G75*
G70*
%OFA0B0*%
%FSLAX24Y24*%
%IPPOS*%
%LPD*%
%AMOC8*
5,1,8,0,0,1.08239X$1,22.5*
%
%ADD10C,0.1300*%
%ADD11C,0.0740*%
%ADD12R,0.0800X0.0800*%
%ADD13C,0.0690*%
%ADD14R,0.0690X0.0690*%
%ADD15OC8,0.1040*%
%ADD16C,0.1040*%
%ADD17R,0.1024X0.0237*%
%ADD18R,0.1024X0.0827*%
%ADD19C,0.0394*%
%ADD20R,0.0540X0.0260*%
%ADD21R,0.0260X0.0540*%
%ADD22C,0.0540*%
%ADD23OC8,0.1306*%
%ADD24OC8,0.0560*%
%ADD25C,0.0808*%
%ADD26C,0.0780*%
%ADD27C,0.0560*%
D10*
X002069Y001675D03*
X002069Y018210D03*
X037502Y017817D03*
X037502Y001675D03*
D11*
X029584Y005218D03*
X028584Y005218D03*
X027584Y005218D03*
X026584Y005218D03*
X025584Y005218D03*
X024584Y005218D03*
X023584Y005218D03*
X022584Y005218D03*
X016986Y005218D03*
X015986Y005218D03*
X014986Y005218D03*
X013986Y005218D03*
X012986Y005218D03*
X011986Y005218D03*
X010986Y005218D03*
X009986Y005218D03*
X009986Y014667D03*
X010986Y014667D03*
X011986Y014667D03*
X012986Y014667D03*
X013986Y014667D03*
X014986Y014667D03*
X015986Y014667D03*
X016986Y014667D03*
X022584Y014667D03*
X023584Y014667D03*
X024584Y014667D03*
X025584Y014667D03*
X026584Y014667D03*
X027584Y014667D03*
X028584Y014667D03*
X029584Y014667D03*
D12*
X035927Y012818D03*
X035927Y007068D03*
D13*
X037895Y015561D03*
D14*
X037895Y014561D03*
D15*
X005336Y017092D03*
D16*
X003155Y017092D03*
D17*
X036517Y010572D03*
X036517Y010257D03*
X036517Y009943D03*
X036517Y009628D03*
X036517Y009313D03*
D18*
X036517Y008171D03*
X038683Y008171D03*
X038683Y011714D03*
X036517Y011714D03*
D19*
X037502Y010809D03*
X037502Y009076D03*
D20*
G36*
X022042Y010456D02*
X021662Y010076D01*
X021478Y010260D01*
X021858Y010640D01*
X022042Y010456D01*
G37*
G36*
X021819Y010679D02*
X021439Y010299D01*
X021255Y010483D01*
X021635Y010863D01*
X021819Y010679D01*
G37*
G36*
X021596Y010901D02*
X021216Y010521D01*
X021032Y010705D01*
X021412Y011085D01*
X021596Y010901D01*
G37*
G36*
X021373Y011124D02*
X020993Y010744D01*
X020809Y010928D01*
X021189Y011308D01*
X021373Y011124D01*
G37*
G36*
X021151Y011347D02*
X020771Y010967D01*
X020587Y011151D01*
X020967Y011531D01*
X021151Y011347D01*
G37*
G36*
X020928Y011570D02*
X020548Y011190D01*
X020364Y011374D01*
X020744Y011754D01*
X020928Y011570D01*
G37*
G36*
X020705Y011792D02*
X020325Y011412D01*
X020141Y011596D01*
X020521Y011976D01*
X020705Y011792D01*
G37*
G36*
X020483Y012015D02*
X020103Y011635D01*
X019919Y011819D01*
X020299Y012199D01*
X020483Y012015D01*
G37*
G36*
X018093Y009625D02*
X017713Y009245D01*
X017529Y009429D01*
X017909Y009809D01*
X018093Y009625D01*
G37*
G36*
X018315Y009402D02*
X017935Y009022D01*
X017751Y009206D01*
X018131Y009586D01*
X018315Y009402D01*
G37*
G36*
X018538Y009180D02*
X018158Y008800D01*
X017974Y008984D01*
X018354Y009364D01*
X018538Y009180D01*
G37*
G36*
X018761Y008957D02*
X018381Y008577D01*
X018197Y008761D01*
X018577Y009141D01*
X018761Y008957D01*
G37*
G36*
X018983Y008734D02*
X018603Y008354D01*
X018419Y008538D01*
X018799Y008918D01*
X018983Y008734D01*
G37*
G36*
X019206Y008511D02*
X018826Y008131D01*
X018642Y008315D01*
X019022Y008695D01*
X019206Y008511D01*
G37*
G36*
X019429Y008289D02*
X019049Y007909D01*
X018865Y008093D01*
X019245Y008473D01*
X019429Y008289D01*
G37*
G36*
X019652Y008066D02*
X019272Y007686D01*
X019088Y007870D01*
X019468Y008250D01*
X019652Y008066D01*
G37*
D21*
G36*
X020483Y007870D02*
X020299Y007686D01*
X019919Y008066D01*
X020103Y008250D01*
X020483Y007870D01*
G37*
G36*
X020705Y008093D02*
X020521Y007909D01*
X020141Y008289D01*
X020325Y008473D01*
X020705Y008093D01*
G37*
G36*
X020928Y008315D02*
X020744Y008131D01*
X020364Y008511D01*
X020548Y008695D01*
X020928Y008315D01*
G37*
G36*
X021151Y008538D02*
X020967Y008354D01*
X020587Y008734D01*
X020771Y008918D01*
X021151Y008538D01*
G37*
G36*
X021373Y008761D02*
X021189Y008577D01*
X020809Y008957D01*
X020993Y009141D01*
X021373Y008761D01*
G37*
G36*
X021596Y008984D02*
X021412Y008800D01*
X021032Y009180D01*
X021216Y009364D01*
X021596Y008984D01*
G37*
G36*
X021819Y009206D02*
X021635Y009022D01*
X021255Y009402D01*
X021439Y009586D01*
X021819Y009206D01*
G37*
G36*
X022042Y009429D02*
X021858Y009245D01*
X021478Y009625D01*
X021662Y009809D01*
X022042Y009429D01*
G37*
G36*
X018761Y010928D02*
X018577Y010744D01*
X018197Y011124D01*
X018381Y011308D01*
X018761Y010928D01*
G37*
G36*
X018538Y010705D02*
X018354Y010521D01*
X017974Y010901D01*
X018158Y011085D01*
X018538Y010705D01*
G37*
G36*
X018315Y010483D02*
X018131Y010299D01*
X017751Y010679D01*
X017935Y010863D01*
X018315Y010483D01*
G37*
G36*
X018093Y010260D02*
X017909Y010076D01*
X017529Y010456D01*
X017713Y010640D01*
X018093Y010260D01*
G37*
G36*
X018983Y011151D02*
X018799Y010967D01*
X018419Y011347D01*
X018603Y011531D01*
X018983Y011151D01*
G37*
G36*
X019206Y011374D02*
X019022Y011190D01*
X018642Y011570D01*
X018826Y011754D01*
X019206Y011374D01*
G37*
G36*
X019429Y011596D02*
X019245Y011412D01*
X018865Y011792D01*
X019049Y011976D01*
X019429Y011596D01*
G37*
G36*
X019652Y011819D02*
X019468Y011635D01*
X019088Y012015D01*
X019272Y012199D01*
X019652Y011819D01*
G37*
D22*
X015061Y011222D03*
X013880Y011222D03*
X012698Y011222D03*
X012698Y008663D03*
X013880Y008663D03*
X015061Y008663D03*
D23*
X018013Y001675D03*
X019785Y001675D03*
X021557Y001675D03*
D24*
X023222Y001675D03*
X024222Y001675D03*
X016348Y001675D03*
X015348Y001675D03*
X016635Y009443D03*
X016635Y010443D03*
D25*
X035139Y013880D03*
X036714Y013880D03*
D26*
X000789Y000785D03*
X003349Y000785D03*
X004332Y000785D03*
X006892Y000785D03*
X006892Y002565D03*
X004332Y002565D03*
X003349Y002565D03*
X000789Y002565D03*
X009919Y018050D03*
X008919Y018150D03*
X010919Y018150D03*
X011919Y018050D03*
X012919Y018150D03*
X013919Y018050D03*
X014919Y018150D03*
X015919Y018050D03*
X016919Y018150D03*
X017919Y018050D03*
X018919Y018150D03*
X019919Y018050D03*
X020919Y018150D03*
X021919Y018050D03*
X022919Y018150D03*
X023919Y018050D03*
X025313Y018150D03*
X026313Y018050D03*
X027313Y018150D03*
X028313Y018050D03*
X029313Y018150D03*
X030706Y018100D03*
X032678Y018707D03*
X035238Y018707D03*
X036222Y018707D03*
X038782Y018707D03*
X038782Y016927D03*
X036222Y016927D03*
X035238Y016927D03*
X032678Y016927D03*
X036222Y005714D03*
X038782Y005714D03*
X038782Y003934D03*
X038782Y002565D03*
X036222Y002565D03*
X035238Y002565D03*
X036222Y003934D03*
X032678Y002565D03*
X032678Y000785D03*
X035238Y000785D03*
X036222Y000785D03*
X038782Y000785D03*
D27*
X011517Y008836D03*
X010336Y008836D03*
X009155Y008836D03*
X007974Y008836D03*
X007974Y011124D03*
X009155Y011124D03*
X010336Y011124D03*
X011517Y011124D03*
M02*
