%
M48
M72
T01C0.0120
T02C0.0197
T03C0.0236
T04C0.0276
T05C0.0315
T06C0.0320
T07C0.0354
T08C0.0400
T09C0.0472
%
T01
X5387Y4039
X7119Y6086
X6568Y7031
X6883Y7188
X7670Y7188
X7907Y7818
X7592Y8291
X7513Y9866
X7985Y10732
X7749Y10968
X6725Y12070
X5466Y11283
X4914Y12070
X6489Y14747
X6489Y15614
X5387Y15141
X7907Y15692
X8458Y14590
X9009Y14590
X9324Y13330
X8222Y12621
X7907Y12543
X9245Y10417
X9796Y9708
X10584Y8921
X10584Y8527
X11056Y8448
X11371Y7740
X12395Y7740
X12710Y8448
X13261Y6086
X12788Y5377
X11765Y5771
X10505Y4905
X10348Y6716
X9718Y8527
X11056Y10968
X10584Y11362
X11765Y11677
X10977Y13724
X12316Y14826
X9009Y18133
X9245Y19393
X2237Y12307
X1922Y12385
X3261Y9393
X3103Y8448
X2474Y8212
X2316Y7346
X2631Y7267
X2631Y6558
X505Y8684
X4836Y8606
X5466Y8763
X5387Y7267
X5308Y6952
X8143Y2936
X8930Y2228
X8930Y1283
X9796Y2936
T02
X8930Y8211
X8930Y13961
T03
X15328Y6854
X15328Y6066
X15328Y5279
T04
X11883Y5279
X11883Y6263
X11883Y7247
X11883Y8232
X11883Y9216
X11883Y10200
X11883Y11184
X11883Y12169
X11883Y13153
X11883Y14137
X11883Y15121
X11883Y16106
X11883Y17090
X11883Y18074
X11883Y19058
X11883Y20043
X10505Y15826
X10505Y14826
X5977Y15121
X5977Y14137
X5977Y13153
X5977Y12169
X5977Y11184
X5977Y10200
X5977Y9216
X5977Y8232
X5977Y7247
X5977Y6263
X5977Y5279
X8430Y6755
X9430Y6755
X5977Y16106
X5977Y17090
X5977Y18074
X5977Y19058
X5977Y20043
T05
X6962Y7936
X6962Y5574
X10899Y5574
X10899Y7936
T06
X4131Y7964
X4131Y6964
X4131Y5964
X3344Y4590
X1131Y5964
X1131Y6964
X1131Y7964
X1131Y8964
X1131Y9964
X1131Y10964
X1131Y11964
X1131Y12964
X1131Y13964
X1131Y14964
X1131Y15964
X1131Y16964
X1131Y17964
X1131Y18964
X4131Y18964
X4131Y17964
X4131Y16964
X4131Y15964
X4131Y14964
X4131Y13964
X4131Y12964
X4131Y11964
X4131Y10964
X4131Y9964
X4131Y8964
X1056Y4590
T07
X8064Y18370
X9796Y18370
T08
X957Y1928
X957Y3708
X3517Y3708
X4497Y4295
X6277Y4295
X7930Y4287
X7930Y5287
X8930Y5287
X8930Y4287
X9930Y4287
X9930Y5287
X11584Y4295
X13364Y4295
X14343Y3708
X14343Y1928
X13364Y1735
X11584Y1735
X6277Y1735
X4497Y1735
X3517Y1928
X16903Y1928
X16903Y3708
T09
X15328Y4393
X15328Y7740
X16607Y8177
X14048Y8177
M30
