G75*
G70*
%OFA0B0*%
%FSLAX24Y24*%
%IPPOS*%
%LPD*%
%AMOC8*
5,1,8,0,0,1.08239X$1,22.5*
%
%ADD10C,0.0000*%
%ADD11C,0.0050*%
%ADD12C,0.0040*%
%ADD13C,0.0080*%
%ADD14C,0.0100*%
%ADD15R,0.0300X0.0400*%
%ADD16R,0.0300X0.0300*%
D10*
X001123Y001047D02*
X016445Y001047D01*
X016505Y001049D01*
X016566Y001054D01*
X016625Y001063D01*
X016684Y001076D01*
X016743Y001092D01*
X016800Y001112D01*
X016855Y001135D01*
X016910Y001162D01*
X016962Y001191D01*
X017013Y001224D01*
X017062Y001260D01*
X017108Y001298D01*
X017152Y001340D01*
X017194Y001384D01*
X017232Y001430D01*
X017268Y001479D01*
X017301Y001530D01*
X017330Y001582D01*
X017357Y001637D01*
X017380Y001692D01*
X017400Y001749D01*
X017416Y001808D01*
X017429Y001867D01*
X017438Y001926D01*
X017443Y001987D01*
X017445Y002047D01*
X017445Y007921D01*
X017443Y007981D01*
X017438Y008042D01*
X017429Y008101D01*
X017416Y008160D01*
X017400Y008219D01*
X017380Y008276D01*
X017357Y008331D01*
X017330Y008386D01*
X017301Y008438D01*
X017268Y008489D01*
X017232Y008538D01*
X017194Y008584D01*
X017152Y008628D01*
X017108Y008670D01*
X017062Y008708D01*
X017013Y008744D01*
X016962Y008777D01*
X016910Y008806D01*
X016855Y008833D01*
X016800Y008856D01*
X016743Y008876D01*
X016684Y008892D01*
X016625Y008905D01*
X016566Y008914D01*
X016505Y008919D01*
X016445Y008921D01*
X012721Y008921D01*
X012721Y019732D01*
X012719Y019792D01*
X012714Y019853D01*
X012705Y019912D01*
X012692Y019971D01*
X012676Y020030D01*
X012656Y020087D01*
X012633Y020142D01*
X012606Y020197D01*
X012577Y020249D01*
X012544Y020300D01*
X012508Y020349D01*
X012470Y020395D01*
X012428Y020439D01*
X012384Y020481D01*
X012338Y020519D01*
X012289Y020555D01*
X012238Y020588D01*
X012186Y020617D01*
X012131Y020644D01*
X012076Y020667D01*
X012019Y020687D01*
X011960Y020703D01*
X011901Y020716D01*
X011842Y020725D01*
X011781Y020730D01*
X011721Y020732D01*
X001123Y020732D01*
X001063Y020730D01*
X001002Y020725D01*
X000943Y020716D01*
X000884Y020703D01*
X000825Y020687D01*
X000768Y020667D01*
X000713Y020644D01*
X000658Y020617D01*
X000606Y020588D01*
X000555Y020555D01*
X000506Y020519D01*
X000460Y020481D01*
X000416Y020439D01*
X000374Y020395D01*
X000336Y020349D01*
X000300Y020300D01*
X000267Y020249D01*
X000238Y020197D01*
X000211Y020142D01*
X000188Y020087D01*
X000168Y020030D01*
X000152Y019971D01*
X000139Y019912D01*
X000130Y019853D01*
X000125Y019792D01*
X000123Y019732D01*
X000123Y002047D01*
X000125Y001987D01*
X000130Y001926D01*
X000139Y001867D01*
X000152Y001808D01*
X000168Y001749D01*
X000188Y001692D01*
X000211Y001637D01*
X000238Y001582D01*
X000267Y001530D01*
X000300Y001479D01*
X000336Y001430D01*
X000374Y001384D01*
X000416Y001340D01*
X000460Y001298D01*
X000506Y001260D01*
X000555Y001224D01*
X000606Y001191D01*
X000658Y001162D01*
X000713Y001135D01*
X000768Y001112D01*
X000825Y001092D01*
X000884Y001076D01*
X000943Y001063D01*
X001002Y001054D01*
X001063Y001049D01*
X001123Y001047D01*
X007741Y018370D02*
X007743Y018396D01*
X007749Y018422D01*
X007759Y018447D01*
X007772Y018470D01*
X007788Y018490D01*
X007808Y018508D01*
X007830Y018523D01*
X007853Y018535D01*
X007879Y018543D01*
X007905Y018547D01*
X007931Y018547D01*
X007957Y018543D01*
X007983Y018535D01*
X008007Y018523D01*
X008028Y018508D01*
X008048Y018490D01*
X008064Y018470D01*
X008077Y018447D01*
X008087Y018422D01*
X008093Y018396D01*
X008095Y018370D01*
X008093Y018344D01*
X008087Y018318D01*
X008077Y018293D01*
X008064Y018270D01*
X008048Y018250D01*
X008028Y018232D01*
X008006Y018217D01*
X007983Y018205D01*
X007957Y018197D01*
X007931Y018193D01*
X007905Y018193D01*
X007879Y018197D01*
X007853Y018205D01*
X007829Y018217D01*
X007808Y018232D01*
X007788Y018250D01*
X007772Y018270D01*
X007759Y018293D01*
X007749Y018318D01*
X007743Y018344D01*
X007741Y018370D01*
X009473Y018370D02*
X009475Y018396D01*
X009481Y018422D01*
X009491Y018447D01*
X009504Y018470D01*
X009520Y018490D01*
X009540Y018508D01*
X009562Y018523D01*
X009585Y018535D01*
X009611Y018543D01*
X009637Y018547D01*
X009663Y018547D01*
X009689Y018543D01*
X009715Y018535D01*
X009739Y018523D01*
X009760Y018508D01*
X009780Y018490D01*
X009796Y018470D01*
X009809Y018447D01*
X009819Y018422D01*
X009825Y018396D01*
X009827Y018370D01*
X009825Y018344D01*
X009819Y018318D01*
X009809Y018293D01*
X009796Y018270D01*
X009780Y018250D01*
X009760Y018232D01*
X009738Y018217D01*
X009715Y018205D01*
X009689Y018197D01*
X009663Y018193D01*
X009637Y018193D01*
X009611Y018197D01*
X009585Y018205D01*
X009561Y018217D01*
X009540Y018232D01*
X009520Y018250D01*
X009504Y018270D01*
X009491Y018293D01*
X009481Y018318D01*
X009475Y018344D01*
X009473Y018370D01*
D11*
X010280Y017976D02*
X010280Y018960D01*
X010004Y017070D02*
X009611Y017070D01*
X008881Y016106D02*
X007900Y016106D01*
X007883Y016104D01*
X007866Y016100D01*
X007850Y016093D01*
X007836Y016083D01*
X007823Y016070D01*
X007813Y016056D01*
X007806Y016040D01*
X007802Y016023D01*
X007800Y016006D01*
X007800Y015615D01*
X007802Y015598D01*
X007806Y015581D01*
X007813Y015565D01*
X007823Y015551D01*
X007836Y015538D01*
X007850Y015528D01*
X007866Y015521D01*
X007883Y015517D01*
X007900Y015515D01*
X008881Y015515D01*
X008898Y015517D01*
X008915Y015521D01*
X008931Y015528D01*
X008945Y015538D01*
X008958Y015551D01*
X008968Y015565D01*
X008975Y015581D01*
X008979Y015598D01*
X008981Y015615D01*
X008981Y016006D01*
X008979Y016023D01*
X008975Y016040D01*
X008968Y016056D01*
X008958Y016070D01*
X008945Y016083D01*
X008931Y016093D01*
X008915Y016100D01*
X008898Y016104D01*
X008881Y016106D01*
X008833Y016007D02*
X008882Y015810D01*
X009579Y015810D01*
X008881Y015121D02*
X007900Y015121D01*
X007883Y015119D01*
X007866Y015115D01*
X007850Y015108D01*
X007836Y015098D01*
X007823Y015085D01*
X007813Y015071D01*
X007806Y015055D01*
X007802Y015038D01*
X007800Y015021D01*
X007800Y014631D01*
X007802Y014614D01*
X007806Y014597D01*
X007813Y014581D01*
X007823Y014567D01*
X007836Y014554D01*
X007850Y014544D01*
X007866Y014537D01*
X007883Y014533D01*
X007900Y014531D01*
X008881Y014531D01*
X008898Y014533D01*
X008915Y014537D01*
X008931Y014544D01*
X008945Y014554D01*
X008958Y014567D01*
X008968Y014581D01*
X008975Y014597D01*
X008979Y014614D01*
X008981Y014631D01*
X008981Y015021D01*
X008979Y015038D01*
X008975Y015055D01*
X008968Y015071D01*
X008958Y015085D01*
X008945Y015098D01*
X008931Y015108D01*
X008915Y015115D01*
X008898Y015119D01*
X008881Y015121D01*
X008833Y015023D02*
X008882Y014826D01*
X009579Y014826D01*
X008833Y015023D02*
X008735Y014629D01*
X008636Y015023D01*
X008538Y014629D01*
X008440Y015023D01*
X008341Y014629D01*
X008243Y015023D01*
X008144Y014629D01*
X008046Y015023D01*
X007947Y014629D01*
X007898Y014826D01*
X007201Y014826D01*
X006789Y014863D02*
X006654Y014863D01*
X006609Y014818D01*
X006609Y014773D01*
X006654Y014728D01*
X006744Y014728D01*
X006789Y014773D01*
X006789Y014863D01*
X006699Y014953D01*
X006609Y014998D01*
X006495Y014953D02*
X006495Y014908D01*
X006450Y014863D01*
X006359Y014863D01*
X006314Y014818D01*
X006314Y014773D01*
X006359Y014728D01*
X006450Y014728D01*
X006495Y014773D01*
X006495Y014818D01*
X006450Y014863D01*
X006359Y014863D02*
X006314Y014908D01*
X006314Y014953D01*
X006359Y014998D01*
X006450Y014998D01*
X006495Y014953D01*
X006450Y015712D02*
X006495Y015757D01*
X006495Y015802D01*
X006450Y015847D01*
X006359Y015847D01*
X006314Y015802D01*
X006314Y015757D01*
X006359Y015712D01*
X006450Y015712D01*
X006450Y015847D02*
X006495Y015892D01*
X006495Y015937D01*
X006450Y015983D01*
X006359Y015983D01*
X006314Y015937D01*
X006314Y015892D01*
X006359Y015847D01*
X006609Y015802D02*
X006609Y015757D01*
X006654Y015712D01*
X006744Y015712D01*
X006789Y015757D01*
X006789Y015847D01*
X006654Y015847D01*
X006609Y015802D01*
X006699Y015937D02*
X006609Y015983D01*
X006699Y015937D02*
X006789Y015847D01*
X007201Y015810D02*
X007898Y015810D01*
X007947Y015614D01*
X008046Y016007D01*
X008144Y015614D01*
X008243Y016007D01*
X008341Y015614D01*
X008440Y016007D01*
X008538Y015614D01*
X008636Y016007D01*
X008735Y015614D01*
X008833Y016007D01*
X007957Y017070D02*
X007564Y017070D01*
X007288Y018015D02*
X007288Y018960D01*
X003674Y020141D02*
X002977Y020141D01*
X002928Y020338D01*
X002829Y019944D01*
X002731Y020338D01*
X002632Y019944D01*
X002534Y020338D01*
X002436Y019944D01*
X002337Y020338D01*
X002239Y019944D01*
X002140Y020338D01*
X002042Y019944D01*
X001993Y020141D01*
X001296Y020141D01*
X001894Y019946D02*
X001894Y020336D01*
X001896Y020353D01*
X001900Y020370D01*
X001907Y020386D01*
X001917Y020400D01*
X001930Y020413D01*
X001944Y020423D01*
X001960Y020430D01*
X001977Y020434D01*
X001994Y020436D01*
X002975Y020436D01*
X002992Y020434D01*
X003009Y020430D01*
X003025Y020423D01*
X003039Y020413D01*
X003052Y020400D01*
X003062Y020386D01*
X003069Y020370D01*
X003073Y020353D01*
X003075Y020336D01*
X003075Y019946D01*
X003073Y019929D01*
X003069Y019912D01*
X003062Y019896D01*
X003052Y019882D01*
X003039Y019869D01*
X003025Y019859D01*
X003009Y019852D01*
X002992Y019848D01*
X002975Y019846D01*
X001994Y019846D01*
X001977Y019848D01*
X001960Y019852D01*
X001944Y019859D01*
X001930Y019869D01*
X001917Y019882D01*
X001907Y019896D01*
X001900Y019912D01*
X001896Y019929D01*
X001894Y019946D01*
X002129Y019559D02*
X002264Y019469D01*
X002129Y019379D01*
X002264Y019379D02*
X002264Y019649D01*
X002379Y019604D02*
X002379Y019424D01*
X002424Y019379D01*
X002514Y019379D01*
X002559Y019424D01*
X002379Y019604D01*
X002424Y019649D01*
X002514Y019649D01*
X002559Y019604D01*
X002559Y019424D01*
X002673Y019379D02*
X002854Y019379D01*
X002763Y019379D02*
X002763Y019649D01*
X002854Y019559D01*
X006284Y013586D02*
X011284Y013586D01*
X011284Y008586D01*
X006284Y008586D01*
X006284Y013586D01*
X003485Y012695D02*
X003360Y012695D01*
X003360Y012820D01*
X003235Y012695D01*
X003360Y012695D01*
X003360Y012570D01*
X003485Y012695D01*
X003485Y012570D02*
X003360Y012445D01*
X003485Y012445D01*
X003360Y012320D01*
X003485Y012320D01*
X003360Y012195D01*
X002985Y012570D01*
X002735Y012820D01*
X002235Y012820D01*
X001985Y012570D01*
X001610Y012195D01*
X001860Y012195D01*
X001985Y012070D01*
X001985Y011820D01*
X001735Y012070D01*
X001735Y012320D01*
X001735Y012570D01*
X001610Y012445D01*
X001485Y012445D01*
X001610Y012320D01*
X001485Y012320D01*
X001610Y012195D01*
X001485Y012195D01*
X001735Y011945D01*
X001735Y011820D01*
X002235Y011320D01*
X002235Y012070D01*
X001985Y012070D01*
X002735Y011320D01*
X002735Y011570D01*
X002735Y012070D01*
X002985Y012070D01*
X002985Y011820D01*
X003235Y012070D01*
X003235Y012320D01*
X003235Y012570D01*
X003110Y012695D01*
X003110Y012820D01*
X003110Y012945D01*
X002985Y012820D01*
X002860Y012945D01*
X002860Y013070D01*
X002735Y012945D01*
X002735Y013070D01*
X002610Y012945D01*
X002735Y012820D01*
X002985Y012820D01*
X002735Y012570D01*
X002485Y012820D01*
X002235Y012570D01*
X001985Y012820D01*
X001860Y012945D01*
X001860Y012820D01*
X001860Y012695D01*
X001735Y012570D01*
X001985Y012570D01*
X001985Y012320D01*
X002235Y012070D01*
X002485Y012070D01*
X002735Y012070D01*
X002985Y012320D01*
X002985Y012570D01*
X003235Y012570D01*
X003360Y012445D01*
X003235Y012320D01*
X003110Y012195D01*
X003360Y012195D01*
X003485Y012195D01*
X003235Y011945D01*
X003235Y011820D01*
X002735Y011320D01*
X002610Y011195D01*
X002360Y011195D01*
X002235Y011320D01*
X002985Y012070D01*
X003110Y012195D01*
X003235Y012070D01*
X002985Y012070D01*
X003110Y012195D02*
X002985Y012320D01*
X003235Y012570D01*
X003235Y012695D01*
X003235Y012820D01*
X003110Y012695D01*
X002985Y012570D01*
X002985Y012695D01*
X003110Y012820D01*
X002985Y012820D02*
X002985Y013070D01*
X002860Y012945D01*
X002735Y012820D01*
X002735Y012945D01*
X002735Y012820D02*
X002735Y012570D01*
X002735Y012320D01*
X002985Y012320D01*
X003235Y012320D01*
X003360Y012320D01*
X003360Y012195D02*
X003235Y012070D01*
X003235Y011945D01*
X002985Y011820D02*
X002735Y011570D01*
X002235Y011570D01*
X001985Y011820D01*
X001985Y012070D02*
X001735Y012070D01*
X001735Y011945D01*
X001735Y012070D02*
X001610Y012195D01*
X001610Y012320D02*
X001735Y012320D01*
X001860Y012195D01*
X001735Y012070D01*
X001860Y012195D02*
X001985Y012320D01*
X001735Y012570D01*
X001735Y012695D01*
X001610Y012820D01*
X001610Y012695D01*
X001485Y012695D01*
X001610Y012570D01*
X001610Y012695D01*
X001735Y012695D01*
X001735Y012820D01*
X001860Y012695D01*
X001985Y012570D01*
X001985Y012695D01*
X001860Y012820D01*
X001985Y012820D02*
X002110Y012945D01*
X002110Y013070D01*
X002235Y012945D01*
X002235Y012820D01*
X001985Y012820D01*
X001985Y013070D01*
X002110Y012945D01*
X002235Y012820D01*
X002360Y012945D01*
X002360Y013070D01*
X002485Y012945D01*
X002485Y012820D01*
X002485Y012570D01*
X002735Y012820D01*
X002610Y012945D02*
X002610Y013070D01*
X002485Y012945D01*
X002485Y012820D02*
X002360Y012945D01*
X002235Y013070D01*
X002235Y012945D01*
X002235Y012820D02*
X002235Y012570D01*
X002235Y012320D01*
X001985Y012320D01*
X001735Y012320D01*
X001610Y012445D01*
X001485Y012570D01*
X001610Y012570D01*
X001735Y012570D01*
X001985Y012570D02*
X002235Y012320D01*
X002485Y012070D01*
X002735Y012320D01*
X002985Y012570D01*
X002985Y012695D02*
X002985Y012820D01*
X003235Y012570D02*
X003360Y012570D01*
X003485Y012570D01*
X002610Y012945D02*
X002485Y012820D01*
X002485Y012570D02*
X002235Y012820D01*
X002485Y012570D02*
X002485Y012070D01*
X002485Y011320D01*
X002735Y011570D01*
X002610Y011195D02*
X002485Y011070D01*
X002360Y011195D01*
X002485Y011070D02*
X002485Y011320D01*
X002235Y011570D01*
X001985Y012695D02*
X001985Y012820D01*
X006620Y007346D02*
X007011Y007346D01*
X007028Y007344D01*
X007045Y007340D01*
X007061Y007333D01*
X007075Y007323D01*
X007088Y007310D01*
X007098Y007296D01*
X007105Y007280D01*
X007109Y007263D01*
X007111Y007246D01*
X007111Y006265D01*
X007109Y006248D01*
X007105Y006231D01*
X007098Y006215D01*
X007088Y006201D01*
X007075Y006188D01*
X007061Y006178D01*
X007045Y006171D01*
X007028Y006167D01*
X007011Y006165D01*
X006620Y006165D01*
X006603Y006167D01*
X006586Y006171D01*
X006570Y006178D01*
X006556Y006188D01*
X006543Y006201D01*
X006533Y006215D01*
X006526Y006231D01*
X006522Y006248D01*
X006520Y006265D01*
X006520Y007246D01*
X006522Y007263D01*
X006526Y007280D01*
X006533Y007296D01*
X006543Y007310D01*
X006556Y007323D01*
X006570Y007333D01*
X006586Y007340D01*
X006603Y007344D01*
X006620Y007346D01*
X006619Y007198D02*
X006816Y007247D01*
X006816Y007944D01*
X006619Y007198D02*
X007012Y007100D01*
X006619Y007001D01*
X007012Y006903D01*
X006619Y006805D01*
X007012Y006706D01*
X006619Y006608D01*
X007012Y006509D01*
X006619Y006411D01*
X007012Y006312D01*
X006816Y006263D01*
X006816Y005566D01*
X007308Y006339D02*
X007308Y006519D01*
X007308Y006429D02*
X007578Y006429D01*
X007488Y006339D01*
X007398Y006634D02*
X007488Y006769D01*
X007443Y006879D02*
X007488Y006969D01*
X007488Y007014D01*
X007443Y007060D01*
X007353Y007060D01*
X007308Y007014D01*
X007308Y006924D01*
X007353Y006879D01*
X007443Y006879D02*
X007578Y006879D01*
X007578Y007060D01*
X007308Y006769D02*
X007398Y006634D01*
X007308Y006634D02*
X007578Y006634D01*
X010019Y006373D02*
X010019Y006193D01*
X010064Y006078D02*
X010154Y005988D01*
X010154Y006033D02*
X010154Y005898D01*
X010064Y005898D02*
X010334Y005898D01*
X010334Y006033D01*
X010289Y006078D01*
X010199Y006078D01*
X010154Y006033D01*
X010457Y006265D02*
X010457Y007246D01*
X010379Y007220D02*
X010334Y007220D01*
X010244Y007220D02*
X010064Y007220D01*
X010064Y007175D02*
X010064Y007265D01*
X010109Y007416D02*
X010064Y007461D01*
X010109Y007416D02*
X010289Y007416D01*
X010244Y007371D02*
X010244Y007461D01*
X010244Y007220D02*
X010244Y007175D01*
X010199Y007060D02*
X010064Y007060D01*
X010064Y006970D02*
X010199Y006970D01*
X010244Y007015D01*
X010199Y007060D01*
X010199Y006970D02*
X010244Y006925D01*
X010244Y006880D01*
X010064Y006880D01*
X010064Y006774D02*
X010064Y006684D01*
X010064Y006729D02*
X010244Y006729D01*
X010244Y006684D01*
X010334Y006729D02*
X010379Y006729D01*
X010556Y006805D02*
X010949Y006903D01*
X010556Y007001D01*
X010949Y007100D01*
X010556Y007198D01*
X010753Y007247D01*
X010753Y007944D01*
X010948Y007346D02*
X010557Y007346D01*
X010540Y007344D01*
X010523Y007340D01*
X010507Y007333D01*
X010493Y007323D01*
X010480Y007310D01*
X010470Y007296D01*
X010463Y007280D01*
X010459Y007263D01*
X010457Y007246D01*
X010556Y006805D02*
X010949Y006706D01*
X010556Y006608D01*
X010949Y006509D01*
X010556Y006411D01*
X010949Y006312D01*
X010753Y006263D01*
X010753Y005566D01*
X010948Y006165D02*
X010557Y006165D01*
X010540Y006167D01*
X010523Y006171D01*
X010507Y006178D01*
X010493Y006188D01*
X010480Y006201D01*
X010470Y006215D01*
X010463Y006231D01*
X010459Y006248D01*
X010457Y006265D01*
X010334Y006487D02*
X010334Y006532D01*
X010064Y006532D01*
X010064Y006487D02*
X010064Y006577D01*
X010948Y006165D02*
X010965Y006167D01*
X010982Y006171D01*
X010998Y006178D01*
X011012Y006188D01*
X011025Y006201D01*
X011035Y006215D01*
X011042Y006231D01*
X011046Y006248D01*
X011048Y006265D01*
X011048Y007246D01*
X011046Y007263D01*
X011042Y007280D01*
X011035Y007296D01*
X011025Y007310D01*
X011012Y007323D01*
X010998Y007333D01*
X010982Y007340D01*
X010965Y007344D01*
X010948Y007346D01*
X012120Y002954D02*
X012120Y002683D01*
X012165Y002683D02*
X012075Y002683D01*
X011969Y002728D02*
X011969Y002818D01*
X011924Y002863D01*
X011833Y002863D01*
X011788Y002818D01*
X011788Y002773D01*
X011969Y002773D01*
X011969Y002728D02*
X011924Y002683D01*
X011833Y002683D01*
X012120Y002954D02*
X012165Y002954D01*
X012279Y002863D02*
X012279Y002683D01*
X012415Y002683D01*
X012460Y002728D01*
X012460Y002863D01*
X012574Y002818D02*
X012619Y002773D01*
X012754Y002773D01*
X012754Y002683D02*
X012754Y002954D01*
X012619Y002954D01*
X012574Y002909D01*
X012574Y002818D01*
X012664Y002773D02*
X012574Y002683D01*
X013155Y002683D02*
X013200Y002728D01*
X013200Y002909D01*
X013245Y002863D02*
X013155Y002863D01*
X013352Y002863D02*
X013442Y002863D01*
X013397Y002909D02*
X013397Y002728D01*
X013352Y002683D01*
X013556Y002773D02*
X013736Y002773D01*
X013736Y002728D02*
X013736Y002818D01*
X013691Y002863D01*
X013601Y002863D01*
X013556Y002818D01*
X013556Y002773D01*
X013601Y002683D02*
X013691Y002683D01*
X013736Y002728D01*
X013847Y002863D02*
X013892Y002863D01*
X013982Y002773D01*
X013982Y002683D02*
X013982Y002863D01*
X014096Y002818D02*
X014096Y002773D01*
X014277Y002773D01*
X014277Y002728D02*
X014277Y002818D01*
X014232Y002863D01*
X014142Y002863D01*
X014096Y002818D01*
X014142Y002683D02*
X014232Y002683D01*
X014277Y002728D01*
X014391Y002863D02*
X014481Y002683D01*
X014571Y002863D01*
X014686Y002954D02*
X014866Y002954D01*
X014866Y002683D01*
X014686Y002683D01*
X014776Y002818D02*
X014866Y002818D01*
X015267Y002683D02*
X015357Y002683D01*
X015312Y002683D02*
X015312Y002954D01*
X015357Y002954D01*
X015472Y002818D02*
X015472Y002773D01*
X015652Y002773D01*
X015652Y002728D02*
X015652Y002818D01*
X015607Y002863D01*
X015517Y002863D01*
X015472Y002818D01*
X015517Y002683D02*
X015607Y002683D01*
X015652Y002728D01*
X015766Y002683D02*
X015766Y002818D01*
X015811Y002863D01*
X015901Y002863D01*
X015901Y002773D02*
X015766Y002773D01*
X015766Y002683D02*
X015901Y002683D01*
X015946Y002728D01*
X015901Y002773D01*
X016061Y002818D02*
X016061Y002683D01*
X016061Y002818D02*
X016106Y002863D01*
X016196Y002863D01*
X016241Y002818D01*
X016355Y002863D02*
X016491Y002863D01*
X016536Y002818D01*
X016536Y002728D01*
X016491Y002683D01*
X016355Y002683D01*
X016241Y002683D02*
X016241Y002954D01*
X016687Y002954D02*
X016687Y002999D01*
X016687Y002863D02*
X016687Y002683D01*
X016732Y002683D02*
X016642Y002683D01*
X016687Y002863D02*
X016732Y002863D01*
X016847Y002954D02*
X016847Y002683D01*
X017027Y002683D02*
X017027Y002954D01*
X016937Y002863D01*
X016847Y002954D01*
X006532Y002954D02*
X006352Y002954D01*
X006442Y002954D02*
X006442Y002683D01*
X006237Y002683D02*
X006237Y002863D01*
X006237Y002773D02*
X006147Y002863D01*
X006102Y002863D01*
X005991Y002818D02*
X005946Y002863D01*
X005856Y002863D01*
X005811Y002818D01*
X005811Y002773D01*
X005991Y002773D01*
X005991Y002728D02*
X005991Y002818D01*
X005991Y002728D02*
X005946Y002683D01*
X005856Y002683D01*
X005697Y002728D02*
X005697Y002818D01*
X005652Y002863D01*
X005562Y002863D01*
X005517Y002818D01*
X005517Y002773D01*
X005697Y002773D01*
X005697Y002728D02*
X005652Y002683D01*
X005562Y002683D01*
X005402Y002683D02*
X005402Y002954D01*
X005357Y002863D02*
X005267Y002863D01*
X005222Y002818D01*
X005222Y002683D01*
X005108Y002728D02*
X005062Y002683D01*
X004972Y002683D01*
X004927Y002728D01*
X004927Y002818D01*
X004972Y002863D01*
X005062Y002863D01*
X005108Y002818D01*
X005108Y002728D01*
X005357Y002863D02*
X005402Y002818D01*
X004813Y002863D02*
X004813Y002728D01*
X004768Y002683D01*
X004633Y002683D01*
X004633Y002863D01*
X004518Y002818D02*
X004473Y002863D01*
X004338Y002863D01*
X004383Y002773D02*
X004473Y002773D01*
X004518Y002818D01*
X004518Y002683D02*
X004383Y002683D01*
X004338Y002728D01*
X004383Y002773D01*
X004224Y002773D02*
X004043Y002773D01*
X004043Y002818D01*
X004088Y002863D01*
X004179Y002863D01*
X004224Y002818D01*
X004224Y002728D01*
X004179Y002683D01*
X004088Y002683D01*
X003929Y002593D02*
X003839Y002683D01*
X003884Y002683D01*
X003884Y002728D01*
X003839Y002728D01*
X003839Y002683D01*
X003438Y002683D02*
X003438Y002863D01*
X003348Y002954D01*
X003258Y002863D01*
X003258Y002683D01*
X003143Y002728D02*
X003098Y002683D01*
X003008Y002683D01*
X002963Y002728D01*
X002963Y002773D01*
X003008Y002818D01*
X003098Y002818D01*
X003143Y002863D01*
X003143Y002909D01*
X003098Y002954D01*
X003008Y002954D01*
X002963Y002909D01*
X002849Y002909D02*
X002803Y002954D01*
X002713Y002954D01*
X002668Y002909D01*
X002668Y002863D01*
X002849Y002683D01*
X002668Y002683D01*
X002554Y002683D02*
X002374Y002863D01*
X002374Y002909D01*
X002419Y002954D01*
X002509Y002954D01*
X002554Y002909D01*
X002554Y002683D02*
X002374Y002683D01*
X002259Y002728D02*
X002259Y002909D01*
X002214Y002954D01*
X002124Y002954D01*
X002079Y002909D01*
X002259Y002728D01*
X002214Y002683D01*
X002124Y002683D01*
X002079Y002728D01*
X002079Y002909D01*
X001670Y002954D02*
X001670Y002683D01*
X001490Y002683D01*
X001375Y002728D02*
X001330Y002773D01*
X001195Y002773D01*
X001195Y002818D02*
X001195Y002683D01*
X001330Y002683D01*
X001375Y002728D01*
X001330Y002863D02*
X001240Y002863D01*
X001195Y002818D01*
X001081Y002863D02*
X000945Y002863D01*
X000900Y002818D01*
X000900Y002728D01*
X000945Y002683D01*
X001081Y002683D01*
X001081Y002954D01*
X000786Y002818D02*
X000741Y002863D01*
X000606Y002863D01*
X000651Y002773D02*
X000741Y002773D01*
X000786Y002818D01*
X000786Y002683D02*
X000651Y002683D01*
X000606Y002728D01*
X000651Y002773D01*
X003258Y002818D02*
X003438Y002818D01*
D12*
X007730Y010826D02*
X007644Y010913D01*
X007644Y011000D01*
X007730Y011086D01*
X007991Y011086D01*
X007991Y010913D01*
X007904Y010826D01*
X007730Y010826D01*
X007991Y011086D02*
X007817Y011260D01*
X007644Y011346D01*
X008159Y011346D02*
X008333Y011260D01*
X008506Y011086D01*
X008246Y011086D01*
X008159Y011000D01*
X008159Y010913D01*
X008246Y010826D01*
X008419Y010826D01*
X008506Y010913D01*
X008506Y011086D01*
X008675Y011086D02*
X008675Y010913D01*
X008762Y010826D01*
X008935Y010826D01*
X009022Y010913D01*
X009022Y011086D02*
X008848Y011173D01*
X008762Y011173D01*
X008675Y011086D01*
X008675Y011346D02*
X009022Y011346D01*
X009022Y011086D01*
X009191Y010826D02*
X009537Y010826D01*
X009364Y010826D02*
X009364Y011346D01*
X009537Y011173D01*
X009706Y011346D02*
X009880Y011260D01*
X010053Y011086D01*
X009793Y011086D01*
X009706Y011000D01*
X009706Y010913D01*
X009793Y010826D01*
X009966Y010826D01*
X010053Y010913D01*
X010053Y011086D01*
D13*
X010109Y015326D02*
X010609Y015326D01*
X007800Y006755D02*
X007802Y006817D01*
X007808Y006880D01*
X007818Y006941D01*
X007832Y007002D01*
X007849Y007062D01*
X007870Y007121D01*
X007896Y007178D01*
X007924Y007233D01*
X007956Y007287D01*
X007992Y007338D01*
X008030Y007388D01*
X008072Y007434D01*
X008116Y007478D01*
X008164Y007519D01*
X008213Y007557D01*
X008265Y007591D01*
X008319Y007622D01*
X008375Y007650D01*
X008433Y007674D01*
X008492Y007695D01*
X008552Y007711D01*
X008613Y007724D01*
X008675Y007733D01*
X008737Y007738D01*
X008800Y007739D01*
X008862Y007736D01*
X008924Y007729D01*
X008986Y007718D01*
X009046Y007703D01*
X009106Y007685D01*
X009164Y007663D01*
X009221Y007637D01*
X009276Y007607D01*
X009329Y007574D01*
X009380Y007538D01*
X009428Y007499D01*
X009474Y007456D01*
X009517Y007411D01*
X009557Y007363D01*
X009594Y007313D01*
X009628Y007260D01*
X009659Y007206D01*
X009685Y007150D01*
X009709Y007092D01*
X009728Y007032D01*
X009744Y006972D01*
X009756Y006910D01*
X009764Y006849D01*
X009768Y006786D01*
X009768Y006724D01*
X009764Y006661D01*
X009756Y006600D01*
X009744Y006538D01*
X009728Y006478D01*
X009709Y006418D01*
X009685Y006360D01*
X009659Y006304D01*
X009628Y006250D01*
X009594Y006197D01*
X009557Y006147D01*
X009517Y006099D01*
X009474Y006054D01*
X009428Y006011D01*
X009380Y005972D01*
X009329Y005936D01*
X009276Y005903D01*
X009221Y005873D01*
X009164Y005847D01*
X009106Y005825D01*
X009046Y005807D01*
X008986Y005792D01*
X008924Y005781D01*
X008862Y005774D01*
X008800Y005771D01*
X008737Y005772D01*
X008675Y005777D01*
X008613Y005786D01*
X008552Y005799D01*
X008492Y005815D01*
X008433Y005836D01*
X008375Y005860D01*
X008319Y005888D01*
X008265Y005919D01*
X008213Y005953D01*
X008164Y005991D01*
X008116Y006032D01*
X008072Y006076D01*
X008030Y006122D01*
X007992Y006172D01*
X007956Y006223D01*
X007924Y006277D01*
X007896Y006332D01*
X007870Y006389D01*
X007849Y006448D01*
X007832Y006508D01*
X007818Y006569D01*
X007808Y006630D01*
X007802Y006693D01*
X007800Y006755D01*
X008030Y006393D02*
X008530Y006393D01*
X013536Y005937D02*
X013874Y005937D01*
X014024Y005483D02*
X014024Y005272D01*
X013874Y004817D02*
X013536Y004817D01*
D14*
X010284Y003537D02*
X010284Y002537D01*
X009284Y002537D01*
X008284Y002537D01*
X007284Y002537D01*
X007284Y003537D01*
X008284Y003537D01*
X009284Y003537D01*
X010284Y003537D01*
D15*
X009784Y003737D03*
X008784Y003737D03*
X007784Y003737D03*
D16*
X007784Y004787D03*
X008784Y004787D03*
X009784Y004787D03*
M02*
