G75*
G70*
%OFA0B0*%
%FSLAX24Y24*%
%IPPOS*%
%LPD*%
%AMOC8*
5,1,8,0,0,1.08239X$1,22.5*
%
%ADD10C,0.1300*%
%ADD11C,0.0740*%
%ADD12R,0.0800X0.0800*%
%ADD13C,0.0690*%
%ADD14R,0.0690X0.0690*%
%ADD15OC8,0.1040*%
%ADD16C,0.1040*%
%ADD17C,0.0394*%
%ADD18C,0.0540*%
%ADD19OC8,0.1306*%
%ADD20OC8,0.0560*%
%ADD21C,0.0808*%
%ADD22C,0.0780*%
%ADD23C,0.0560*%
D10*
X002069Y001675D03*
X002069Y018210D03*
X037502Y017817D03*
X037502Y001675D03*
D11*
X029584Y005218D03*
X028584Y005218D03*
X027584Y005218D03*
X026584Y005218D03*
X025584Y005218D03*
X024584Y005218D03*
X023584Y005218D03*
X022584Y005218D03*
X016986Y005218D03*
X015986Y005218D03*
X014986Y005218D03*
X013986Y005218D03*
X012986Y005218D03*
X011986Y005218D03*
X010986Y005218D03*
X009986Y005218D03*
X009986Y014667D03*
X010986Y014667D03*
X011986Y014667D03*
X012986Y014667D03*
X013986Y014667D03*
X014986Y014667D03*
X015986Y014667D03*
X016986Y014667D03*
X022584Y014667D03*
X023584Y014667D03*
X024584Y014667D03*
X025584Y014667D03*
X026584Y014667D03*
X027584Y014667D03*
X028584Y014667D03*
X029584Y014667D03*
D12*
X035927Y012818D03*
X035927Y007068D03*
D13*
X037895Y015561D03*
D14*
X037895Y014561D03*
D15*
X005336Y017092D03*
D16*
X003155Y017092D03*
D17*
X037502Y010809D03*
X037502Y009076D03*
D18*
X015061Y008663D03*
X013880Y008663D03*
X012698Y008663D03*
X012698Y011222D03*
X013880Y011222D03*
X015061Y011222D03*
D19*
X018013Y001675D03*
X019785Y001675D03*
X021557Y001675D03*
D20*
X023222Y001675D03*
X024222Y001675D03*
X016348Y001675D03*
X015348Y001675D03*
X016635Y009443D03*
X016635Y010443D03*
D21*
X035139Y013880D03*
X036714Y013880D03*
D22*
X000789Y000785D03*
X003349Y000785D03*
X004332Y000785D03*
X006892Y000785D03*
X006892Y002565D03*
X004332Y002565D03*
X003349Y002565D03*
X000789Y002565D03*
X009919Y018050D03*
X008919Y018150D03*
X010919Y018150D03*
X011919Y018050D03*
X012919Y018150D03*
X013919Y018050D03*
X014919Y018150D03*
X015919Y018050D03*
X016919Y018150D03*
X017919Y018050D03*
X018919Y018150D03*
X019919Y018050D03*
X020919Y018150D03*
X021919Y018050D03*
X022919Y018150D03*
X023919Y018050D03*
X025313Y018150D03*
X026313Y018050D03*
X027313Y018150D03*
X028313Y018050D03*
X029313Y018150D03*
X030706Y018100D03*
X032678Y018707D03*
X035238Y018707D03*
X036222Y018707D03*
X038782Y018707D03*
X038782Y016927D03*
X036222Y016927D03*
X035238Y016927D03*
X032678Y016927D03*
X036222Y005714D03*
X038782Y005714D03*
X038782Y003934D03*
X038782Y002565D03*
X036222Y002565D03*
X035238Y002565D03*
X036222Y003934D03*
X032678Y002565D03*
X032678Y000785D03*
X035238Y000785D03*
X036222Y000785D03*
X038782Y000785D03*
D23*
X011517Y008836D03*
X010336Y008836D03*
X009155Y008836D03*
X007974Y008836D03*
X007974Y011124D03*
X009155Y011124D03*
X010336Y011124D03*
X011517Y011124D03*
M02*
