G75*
G70*
%OFA0B0*%
%FSLAX24Y24*%
%IPPOS*%
%LPD*%
%AMOC8*
5,1,8,0,0,1.08239X$1,22.5*
%
%ADD10C,0.0000*%
%ADD11C,0.0600*%
%ADD12R,0.0800X0.0800*%
%ADD13R,0.0690X0.0690*%
%ADD14C,0.0690*%
%ADD15R,0.1040X0.1040*%
%ADD16C,0.1040*%
%ADD17R,0.0197X0.0827*%
%ADD18R,0.0749X0.0788*%
%ADD19C,0.0560*%
%ADD20C,0.0780*%
%ADD21C,0.0555*%
%ADD22R,0.0749X0.0749*%
%ADD23C,0.0476*%
%ADD24OC8,0.0640*%
%ADD25R,0.0640X0.0640*%
%ADD26C,0.0394*%
D10*
X001123Y001047D02*
X016445Y001047D01*
X016505Y001049D01*
X016566Y001054D01*
X016625Y001063D01*
X016684Y001076D01*
X016743Y001092D01*
X016800Y001112D01*
X016855Y001135D01*
X016910Y001162D01*
X016962Y001191D01*
X017013Y001224D01*
X017062Y001260D01*
X017108Y001298D01*
X017152Y001340D01*
X017194Y001384D01*
X017232Y001430D01*
X017268Y001479D01*
X017301Y001530D01*
X017330Y001582D01*
X017357Y001637D01*
X017380Y001692D01*
X017400Y001749D01*
X017416Y001808D01*
X017429Y001867D01*
X017438Y001926D01*
X017443Y001987D01*
X017445Y002047D01*
X017445Y007921D01*
X017443Y007981D01*
X017438Y008042D01*
X017429Y008101D01*
X017416Y008160D01*
X017400Y008219D01*
X017380Y008276D01*
X017357Y008331D01*
X017330Y008386D01*
X017301Y008438D01*
X017268Y008489D01*
X017232Y008538D01*
X017194Y008584D01*
X017152Y008628D01*
X017108Y008670D01*
X017062Y008708D01*
X017013Y008744D01*
X016962Y008777D01*
X016910Y008806D01*
X016855Y008833D01*
X016800Y008856D01*
X016743Y008876D01*
X016684Y008892D01*
X016625Y008905D01*
X016566Y008914D01*
X016505Y008919D01*
X016445Y008921D01*
X012721Y008921D01*
X012721Y019732D01*
X012719Y019792D01*
X012714Y019853D01*
X012705Y019912D01*
X012692Y019971D01*
X012676Y020030D01*
X012656Y020087D01*
X012633Y020142D01*
X012606Y020197D01*
X012577Y020249D01*
X012544Y020300D01*
X012508Y020349D01*
X012470Y020395D01*
X012428Y020439D01*
X012384Y020481D01*
X012338Y020519D01*
X012289Y020555D01*
X012238Y020588D01*
X012186Y020617D01*
X012131Y020644D01*
X012076Y020667D01*
X012019Y020687D01*
X011960Y020703D01*
X011901Y020716D01*
X011842Y020725D01*
X011781Y020730D01*
X011721Y020732D01*
X001123Y020732D01*
X001063Y020730D01*
X001002Y020725D01*
X000943Y020716D01*
X000884Y020703D01*
X000825Y020687D01*
X000768Y020667D01*
X000713Y020644D01*
X000658Y020617D01*
X000606Y020588D01*
X000555Y020555D01*
X000506Y020519D01*
X000460Y020481D01*
X000416Y020439D01*
X000374Y020395D01*
X000336Y020349D01*
X000300Y020300D01*
X000267Y020249D01*
X000238Y020197D01*
X000211Y020142D01*
X000188Y020087D01*
X000168Y020030D01*
X000152Y019971D01*
X000139Y019912D01*
X000130Y019853D01*
X000125Y019792D01*
X000123Y019732D01*
X000123Y002047D01*
X000125Y001987D01*
X000130Y001926D01*
X000139Y001867D01*
X000152Y001808D01*
X000168Y001749D01*
X000188Y001692D01*
X000211Y001637D01*
X000238Y001582D01*
X000267Y001530D01*
X000300Y001479D01*
X000336Y001430D01*
X000374Y001384D01*
X000416Y001340D01*
X000460Y001298D01*
X000506Y001260D01*
X000555Y001224D01*
X000606Y001191D01*
X000658Y001162D01*
X000713Y001135D01*
X000768Y001112D01*
X000825Y001092D01*
X000884Y001076D01*
X000943Y001063D01*
X001002Y001054D01*
X001063Y001049D01*
X001123Y001047D01*
X007741Y018370D02*
X007743Y018396D01*
X007749Y018422D01*
X007759Y018447D01*
X007772Y018470D01*
X007788Y018490D01*
X007808Y018508D01*
X007830Y018523D01*
X007853Y018535D01*
X007879Y018543D01*
X007905Y018547D01*
X007931Y018547D01*
X007957Y018543D01*
X007983Y018535D01*
X008007Y018523D01*
X008028Y018508D01*
X008048Y018490D01*
X008064Y018470D01*
X008077Y018447D01*
X008087Y018422D01*
X008093Y018396D01*
X008095Y018370D01*
X008093Y018344D01*
X008087Y018318D01*
X008077Y018293D01*
X008064Y018270D01*
X008048Y018250D01*
X008028Y018232D01*
X008006Y018217D01*
X007983Y018205D01*
X007957Y018197D01*
X007931Y018193D01*
X007905Y018193D01*
X007879Y018197D01*
X007853Y018205D01*
X007829Y018217D01*
X007808Y018232D01*
X007788Y018250D01*
X007772Y018270D01*
X007759Y018293D01*
X007749Y018318D01*
X007743Y018344D01*
X007741Y018370D01*
X009473Y018370D02*
X009475Y018396D01*
X009481Y018422D01*
X009491Y018447D01*
X009504Y018470D01*
X009520Y018490D01*
X009540Y018508D01*
X009562Y018523D01*
X009585Y018535D01*
X009611Y018543D01*
X009637Y018547D01*
X009663Y018547D01*
X009689Y018543D01*
X009715Y018535D01*
X009739Y018523D01*
X009760Y018508D01*
X009780Y018490D01*
X009796Y018470D01*
X009809Y018447D01*
X009819Y018422D01*
X009825Y018396D01*
X009827Y018370D01*
X009825Y018344D01*
X009819Y018318D01*
X009809Y018293D01*
X009796Y018270D01*
X009780Y018250D01*
X009760Y018232D01*
X009738Y018217D01*
X009715Y018205D01*
X009689Y018197D01*
X009663Y018193D01*
X009637Y018193D01*
X009611Y018197D01*
X009585Y018205D01*
X009561Y018217D01*
X009540Y018232D01*
X009520Y018250D01*
X009504Y018270D01*
X009491Y018293D01*
X009481Y018318D01*
X009475Y018344D01*
X009473Y018370D01*
D11*
X011737Y018074D03*
X011737Y017090D03*
X011737Y016106D03*
X011737Y015121D03*
X011737Y014137D03*
X011737Y013153D03*
X011737Y012169D03*
X011737Y011184D03*
X011737Y010200D03*
X011737Y009216D03*
X011737Y008232D03*
X011737Y007247D03*
X011737Y006263D03*
X011737Y005279D03*
X005831Y005279D03*
X005831Y006263D03*
X005831Y007247D03*
X005831Y008232D03*
X005831Y009216D03*
X005831Y010200D03*
X005831Y011184D03*
X005831Y012169D03*
X005831Y013153D03*
X005831Y014137D03*
X005831Y015121D03*
X005831Y016106D03*
X005831Y017090D03*
X005831Y018074D03*
X005831Y019058D03*
X005831Y020043D03*
X011737Y020043D03*
X011737Y019058D03*
D12*
X008784Y013961D03*
X008784Y008211D03*
D13*
X009284Y006755D03*
D14*
X008284Y006755D03*
X010359Y014826D03*
X010359Y015826D03*
D15*
X013902Y008177D03*
D16*
X016461Y008177D03*
D17*
X009296Y002858D03*
X009040Y002858D03*
X008784Y002858D03*
X008528Y002858D03*
X008272Y002858D03*
D18*
X007209Y001696D03*
X010359Y001696D03*
D19*
X004245Y005964D02*
X003725Y005964D01*
X003725Y006964D02*
X004245Y006964D01*
X004245Y007964D02*
X003725Y007964D01*
X003725Y008964D02*
X004245Y008964D01*
X004245Y009964D02*
X003725Y009964D01*
X003725Y010964D02*
X004245Y010964D01*
X004245Y011964D02*
X003725Y011964D01*
X003725Y012964D02*
X004245Y012964D01*
X004245Y013964D02*
X003725Y013964D01*
X003725Y014964D02*
X004245Y014964D01*
X004245Y015964D02*
X003725Y015964D01*
X003725Y016964D02*
X004245Y016964D01*
X004245Y017964D02*
X003725Y017964D01*
X003725Y018964D02*
X004245Y018964D01*
X001245Y018964D02*
X000725Y018964D01*
X000725Y017964D02*
X001245Y017964D01*
X001245Y016964D02*
X000725Y016964D01*
X000725Y015964D02*
X001245Y015964D01*
X001245Y014964D02*
X000725Y014964D01*
X000725Y013964D02*
X001245Y013964D01*
X001245Y012964D02*
X000725Y012964D01*
X000725Y011964D02*
X001245Y011964D01*
X001245Y010964D02*
X000725Y010964D01*
X000725Y009964D02*
X001245Y009964D01*
X001245Y008964D02*
X000725Y008964D01*
X000725Y007964D02*
X001245Y007964D01*
X001245Y006964D02*
X000725Y006964D01*
X000725Y005964D02*
X001245Y005964D01*
X001170Y004590D02*
X000650Y004590D01*
X002937Y004590D02*
X003457Y004590D01*
D20*
X003371Y003708D03*
X004351Y004295D03*
X006131Y004295D03*
X006131Y001735D03*
X004351Y001735D03*
X003371Y001928D03*
X000811Y001928D03*
X000811Y003708D03*
X011437Y004295D03*
X013217Y004295D03*
X014197Y003708D03*
X014197Y001928D03*
X013217Y001735D03*
X011437Y001735D03*
X016757Y001928D03*
X016757Y003708D03*
D21*
X010753Y005574D03*
X010753Y007936D03*
X006816Y007936D03*
X006816Y005574D03*
X007209Y014826D03*
X007209Y015810D03*
X009571Y015810D03*
X009571Y014826D03*
X003666Y020141D03*
X001304Y020141D03*
D22*
X015182Y007740D03*
X015182Y004393D03*
D23*
X015182Y005279D03*
X015182Y006066D03*
X015182Y006854D03*
D24*
X009784Y005287D03*
X008784Y005287D03*
X007784Y005287D03*
X007784Y004287D03*
X008784Y004287D03*
D25*
X009784Y004287D03*
D26*
X009650Y018370D03*
X007918Y018370D03*
M02*
