G75*
G70*
%OFA0B0*%
%FSLAX24Y24*%
%IPPOS*%
%LPD*%
%AMOC8*
5,1,8,0,0,1.08239X$1,22.5*
%
%ADD10C,0.0000*%
%ADD11C,0.0560*%
%ADD12R,0.0760X0.0760*%
%ADD13R,0.0650X0.0650*%
%ADD14C,0.0650*%
%ADD15R,0.1000X0.1000*%
%ADD16C,0.1000*%
%ADD17R,0.0157X0.0787*%
%ADD18R,0.0709X0.0748*%
%ADD19C,0.0520*%
%ADD20C,0.0740*%
%ADD21C,0.0515*%
%ADD22R,0.0709X0.0709*%
%ADD23C,0.0436*%
%ADD24OC8,0.0600*%
%ADD25R,0.0600X0.0600*%
%ADD26C,0.0100*%
%ADD27C,0.0240*%
D10*
X001123Y001047D02*
X016445Y001047D01*
X016505Y001049D01*
X016566Y001054D01*
X016625Y001063D01*
X016684Y001076D01*
X016743Y001092D01*
X016800Y001112D01*
X016855Y001135D01*
X016910Y001162D01*
X016962Y001191D01*
X017013Y001224D01*
X017062Y001260D01*
X017108Y001298D01*
X017152Y001340D01*
X017194Y001384D01*
X017232Y001430D01*
X017268Y001479D01*
X017301Y001530D01*
X017330Y001582D01*
X017357Y001637D01*
X017380Y001692D01*
X017400Y001749D01*
X017416Y001808D01*
X017429Y001867D01*
X017438Y001926D01*
X017443Y001987D01*
X017445Y002047D01*
X017445Y007921D01*
X017443Y007981D01*
X017438Y008042D01*
X017429Y008101D01*
X017416Y008160D01*
X017400Y008219D01*
X017380Y008276D01*
X017357Y008331D01*
X017330Y008386D01*
X017301Y008438D01*
X017268Y008489D01*
X017232Y008538D01*
X017194Y008584D01*
X017152Y008628D01*
X017108Y008670D01*
X017062Y008708D01*
X017013Y008744D01*
X016962Y008777D01*
X016910Y008806D01*
X016855Y008833D01*
X016800Y008856D01*
X016743Y008876D01*
X016684Y008892D01*
X016625Y008905D01*
X016566Y008914D01*
X016505Y008919D01*
X016445Y008921D01*
X012721Y008921D01*
X012721Y019732D01*
X012719Y019792D01*
X012714Y019853D01*
X012705Y019912D01*
X012692Y019971D01*
X012676Y020030D01*
X012656Y020087D01*
X012633Y020142D01*
X012606Y020197D01*
X012577Y020249D01*
X012544Y020300D01*
X012508Y020349D01*
X012470Y020395D01*
X012428Y020439D01*
X012384Y020481D01*
X012338Y020519D01*
X012289Y020555D01*
X012238Y020588D01*
X012186Y020617D01*
X012131Y020644D01*
X012076Y020667D01*
X012019Y020687D01*
X011960Y020703D01*
X011901Y020716D01*
X011842Y020725D01*
X011781Y020730D01*
X011721Y020732D01*
X001123Y020732D01*
X001063Y020730D01*
X001002Y020725D01*
X000943Y020716D01*
X000884Y020703D01*
X000825Y020687D01*
X000768Y020667D01*
X000713Y020644D01*
X000658Y020617D01*
X000606Y020588D01*
X000555Y020555D01*
X000506Y020519D01*
X000460Y020481D01*
X000416Y020439D01*
X000374Y020395D01*
X000336Y020349D01*
X000300Y020300D01*
X000267Y020249D01*
X000238Y020197D01*
X000211Y020142D01*
X000188Y020087D01*
X000168Y020030D01*
X000152Y019971D01*
X000139Y019912D01*
X000130Y019853D01*
X000125Y019792D01*
X000123Y019732D01*
X000123Y002047D01*
X000125Y001987D01*
X000130Y001926D01*
X000139Y001867D01*
X000152Y001808D01*
X000168Y001749D01*
X000188Y001692D01*
X000211Y001637D01*
X000238Y001582D01*
X000267Y001530D01*
X000300Y001479D01*
X000336Y001430D01*
X000374Y001384D01*
X000416Y001340D01*
X000460Y001298D01*
X000506Y001260D01*
X000555Y001224D01*
X000606Y001191D01*
X000658Y001162D01*
X000713Y001135D01*
X000768Y001112D01*
X000825Y001092D01*
X000884Y001076D01*
X000943Y001063D01*
X001002Y001054D01*
X001063Y001049D01*
X001123Y001047D01*
X007741Y018370D02*
X007743Y018396D01*
X007749Y018422D01*
X007759Y018447D01*
X007772Y018470D01*
X007788Y018490D01*
X007808Y018508D01*
X007830Y018523D01*
X007853Y018535D01*
X007879Y018543D01*
X007905Y018547D01*
X007931Y018547D01*
X007957Y018543D01*
X007983Y018535D01*
X008007Y018523D01*
X008028Y018508D01*
X008048Y018490D01*
X008064Y018470D01*
X008077Y018447D01*
X008087Y018422D01*
X008093Y018396D01*
X008095Y018370D01*
X008093Y018344D01*
X008087Y018318D01*
X008077Y018293D01*
X008064Y018270D01*
X008048Y018250D01*
X008028Y018232D01*
X008006Y018217D01*
X007983Y018205D01*
X007957Y018197D01*
X007931Y018193D01*
X007905Y018193D01*
X007879Y018197D01*
X007853Y018205D01*
X007829Y018217D01*
X007808Y018232D01*
X007788Y018250D01*
X007772Y018270D01*
X007759Y018293D01*
X007749Y018318D01*
X007743Y018344D01*
X007741Y018370D01*
X009473Y018370D02*
X009475Y018396D01*
X009481Y018422D01*
X009491Y018447D01*
X009504Y018470D01*
X009520Y018490D01*
X009540Y018508D01*
X009562Y018523D01*
X009585Y018535D01*
X009611Y018543D01*
X009637Y018547D01*
X009663Y018547D01*
X009689Y018543D01*
X009715Y018535D01*
X009739Y018523D01*
X009760Y018508D01*
X009780Y018490D01*
X009796Y018470D01*
X009809Y018447D01*
X009819Y018422D01*
X009825Y018396D01*
X009827Y018370D01*
X009825Y018344D01*
X009819Y018318D01*
X009809Y018293D01*
X009796Y018270D01*
X009780Y018250D01*
X009760Y018232D01*
X009738Y018217D01*
X009715Y018205D01*
X009689Y018197D01*
X009663Y018193D01*
X009637Y018193D01*
X009611Y018197D01*
X009585Y018205D01*
X009561Y018217D01*
X009540Y018232D01*
X009520Y018250D01*
X009504Y018270D01*
X009491Y018293D01*
X009481Y018318D01*
X009475Y018344D01*
X009473Y018370D01*
D11*
X011737Y018074D03*
X011737Y017090D03*
X011737Y016106D03*
X011737Y015121D03*
X011737Y014137D03*
X011737Y013153D03*
X011737Y012169D03*
X011737Y011184D03*
X011737Y010200D03*
X011737Y009216D03*
X011737Y008232D03*
X011737Y007247D03*
X011737Y006263D03*
X011737Y005279D03*
X005831Y005279D03*
X005831Y006263D03*
X005831Y007247D03*
X005831Y008232D03*
X005831Y009216D03*
X005831Y010200D03*
X005831Y011184D03*
X005831Y012169D03*
X005831Y013153D03*
X005831Y014137D03*
X005831Y015121D03*
X005831Y016106D03*
X005831Y017090D03*
X005831Y018074D03*
X005831Y019058D03*
X005831Y020043D03*
X011737Y020043D03*
X011737Y019058D03*
D12*
X008784Y013961D03*
X008784Y008211D03*
D13*
X009284Y006755D03*
D14*
X008284Y006755D03*
X010359Y014826D03*
X010359Y015826D03*
D15*
X013902Y008177D03*
D16*
X016461Y008177D03*
D17*
X009296Y002858D03*
X009040Y002858D03*
X008784Y002858D03*
X008528Y002858D03*
X008272Y002858D03*
D18*
X007209Y001696D03*
X010359Y001696D03*
D19*
X004245Y005964D02*
X003725Y005964D01*
X003725Y006964D02*
X004245Y006964D01*
X004245Y007964D02*
X003725Y007964D01*
X003725Y008964D02*
X004245Y008964D01*
X004245Y009964D02*
X003725Y009964D01*
X003725Y010964D02*
X004245Y010964D01*
X004245Y011964D02*
X003725Y011964D01*
X003725Y012964D02*
X004245Y012964D01*
X004245Y013964D02*
X003725Y013964D01*
X003725Y014964D02*
X004245Y014964D01*
X004245Y015964D02*
X003725Y015964D01*
X003725Y016964D02*
X004245Y016964D01*
X004245Y017964D02*
X003725Y017964D01*
X003725Y018964D02*
X004245Y018964D01*
X001245Y018964D02*
X000725Y018964D01*
X000725Y017964D02*
X001245Y017964D01*
X001245Y016964D02*
X000725Y016964D01*
X000725Y015964D02*
X001245Y015964D01*
X001245Y014964D02*
X000725Y014964D01*
X000725Y013964D02*
X001245Y013964D01*
X001245Y012964D02*
X000725Y012964D01*
X000725Y011964D02*
X001245Y011964D01*
X001245Y010964D02*
X000725Y010964D01*
X000725Y009964D02*
X001245Y009964D01*
X001245Y008964D02*
X000725Y008964D01*
X000725Y007964D02*
X001245Y007964D01*
X001245Y006964D02*
X000725Y006964D01*
X000725Y005964D02*
X001245Y005964D01*
X001170Y004590D02*
X000650Y004590D01*
X002937Y004590D02*
X003457Y004590D01*
D20*
X003371Y003708D03*
X004351Y004295D03*
X006131Y004295D03*
X006131Y001735D03*
X004351Y001735D03*
X003371Y001928D03*
X000811Y001928D03*
X000811Y003708D03*
X011437Y004295D03*
X013217Y004295D03*
X014197Y003708D03*
X014197Y001928D03*
X013217Y001735D03*
X011437Y001735D03*
X016757Y001928D03*
X016757Y003708D03*
D21*
X010753Y005574D03*
X010753Y007936D03*
X006816Y007936D03*
X006816Y005574D03*
X007209Y014826D03*
X007209Y015810D03*
X009571Y015810D03*
X009571Y014826D03*
X003666Y020141D03*
X001304Y020141D03*
D22*
X015182Y007740D03*
X015182Y004393D03*
D23*
X015182Y005279D03*
X015182Y006066D03*
X015182Y006854D03*
D24*
X009784Y005287D03*
X008784Y005287D03*
X007784Y005287D03*
X007784Y004287D03*
X008784Y004287D03*
D25*
X009784Y004287D03*
D26*
X009773Y004247D01*
X009373Y004247D01*
X008973Y003847D01*
X008573Y003847D01*
X008223Y003497D01*
X007973Y003247D02*
X007923Y003197D01*
X008223Y002897D01*
X008272Y002858D01*
X008528Y002858D02*
X008573Y002897D01*
X008573Y003297D01*
X008873Y003597D01*
X008773Y004247D02*
X008623Y004247D01*
X007473Y003097D01*
X007373Y003097D01*
X006673Y002397D01*
X005023Y002397D01*
X004373Y001747D01*
X004351Y001735D01*
X004073Y002647D02*
X003373Y001947D01*
X003371Y001928D01*
X003323Y001947D01*
X000823Y001947D01*
X000811Y001928D01*
X000823Y003697D02*
X000811Y003708D01*
X000923Y003747D01*
X003323Y003747D01*
X003371Y003708D01*
X003373Y003747D01*
X003823Y003747D01*
X004323Y004247D01*
X004351Y004295D01*
X004123Y004997D02*
X005123Y005997D01*
X005023Y005447D02*
X005823Y006247D01*
X005831Y006263D01*
X005873Y006297D01*
X008123Y008547D01*
X008173Y008197D02*
X008173Y007997D01*
X006023Y005847D01*
X005823Y005847D01*
X005423Y005447D01*
X005423Y004997D01*
X006123Y004297D01*
X006131Y004295D01*
X006123Y004247D01*
X005023Y003147D01*
X005373Y003147D02*
X005723Y003147D01*
X007198Y004622D01*
X006423Y005397D01*
X006423Y005797D01*
X008773Y008147D01*
X008773Y008197D01*
X008784Y008211D01*
X008573Y007697D02*
X007823Y006947D01*
X007823Y006597D01*
X006823Y005597D01*
X006816Y005574D01*
X007198Y004622D02*
X007823Y005247D01*
X007784Y005287D01*
X008223Y005347D02*
X008223Y005097D01*
X007873Y004747D01*
X007623Y004747D01*
X007023Y004147D01*
X007023Y003797D01*
X007273Y003547D02*
X006373Y003547D01*
X005773Y002947D01*
X005523Y002947D01*
X005473Y002897D01*
X002573Y002897D01*
X004073Y002647D02*
X006573Y002647D01*
X006473Y003297D02*
X007423Y003297D01*
X008323Y004197D01*
X008323Y004447D01*
X008723Y004847D01*
X008973Y004847D01*
X009323Y005197D01*
X009323Y005447D01*
X011673Y007797D01*
X011873Y007797D01*
X012223Y008147D01*
X012223Y008347D01*
X011923Y008647D01*
X011723Y008647D01*
X011323Y009047D01*
X011323Y011347D01*
X011723Y011747D01*
X011923Y011747D01*
X012423Y012247D01*
X012423Y014397D01*
X012323Y014497D01*
X012223Y014247D02*
X012223Y013047D01*
X011923Y012747D01*
X011623Y012747D01*
X008223Y009347D01*
X007673Y009347D01*
X007323Y009697D01*
X005873Y008247D01*
X005831Y008232D01*
X005823Y008197D01*
X005073Y007447D01*
X004823Y007447D01*
X004723Y007347D01*
X003523Y007347D01*
X003323Y007147D01*
X003323Y006997D01*
X002573Y006247D01*
X002573Y006147D01*
X002873Y005897D02*
X003073Y005897D01*
X003498Y006322D01*
X003473Y006347D01*
X003473Y006397D01*
X003523Y006347D02*
X004173Y006347D01*
X004673Y006847D01*
X004673Y006947D01*
X004923Y007197D01*
X005173Y006997D02*
X004173Y005997D01*
X004023Y005997D01*
X003985Y005964D01*
X003523Y006347D02*
X003498Y006322D01*
X003123Y007047D02*
X002173Y006097D01*
X002173Y005897D01*
X003073Y004997D01*
X004123Y004997D01*
X004973Y005447D02*
X005023Y005447D01*
X006523Y007297D02*
X006523Y007647D01*
X006223Y007947D01*
X007473Y009197D01*
X008123Y009597D02*
X010873Y012347D01*
X010873Y012647D01*
X010873Y012897D02*
X010323Y012897D01*
X008223Y010797D01*
X009073Y010897D02*
X010073Y011897D01*
X010973Y011747D02*
X007273Y008047D01*
X006623Y009397D02*
X005873Y008647D01*
X005673Y008647D01*
X005023Y007997D01*
X005023Y007747D01*
X004673Y007747D02*
X004673Y008047D01*
X005823Y009197D01*
X005831Y009216D01*
X005773Y009747D02*
X004573Y008547D01*
X004023Y008997D02*
X003985Y008964D01*
X003973Y008947D01*
X003973Y008797D01*
X003323Y008147D01*
X003323Y007397D01*
X003123Y007197D01*
X003123Y007047D01*
X003023Y008247D02*
X001923Y007147D01*
X001923Y005797D01*
X002023Y005697D01*
X001723Y004597D02*
X000823Y003697D01*
X001723Y004597D02*
X001723Y007697D01*
X003973Y009947D01*
X003985Y009964D01*
X004223Y010347D02*
X004823Y010947D01*
X005623Y010947D01*
X005823Y011147D01*
X005831Y011184D01*
X005823Y011597D02*
X005973Y011747D01*
X006023Y011747D01*
X006273Y011997D01*
X006273Y012297D01*
X007973Y013997D01*
X008773Y013997D01*
X008784Y013961D01*
X008673Y014697D02*
X009323Y015347D01*
X010473Y015347D01*
X010623Y015197D01*
X010823Y015197D01*
X011223Y015597D01*
X011323Y015297D02*
X011323Y015147D01*
X010523Y014347D01*
X010523Y014247D01*
X009373Y013097D01*
X008923Y012547D02*
X008923Y012447D01*
X007073Y010597D01*
X006973Y010597D01*
X006873Y010497D01*
X006973Y010847D02*
X008273Y012147D01*
X008273Y012397D01*
X009673Y013797D01*
X009673Y014147D01*
X010323Y014797D01*
X010359Y014826D01*
X010773Y014247D02*
X010473Y013947D01*
X010473Y013847D01*
X010223Y013197D02*
X010223Y013147D01*
X006823Y009747D01*
X005773Y009747D01*
X004923Y010247D02*
X004923Y010697D01*
X004923Y010247D02*
X004873Y010197D01*
X004223Y010347D02*
X003523Y010347D01*
X002073Y008897D01*
X002073Y008847D01*
X001723Y008847D02*
X002223Y009347D01*
X002223Y011247D01*
X001873Y011247D02*
X001873Y010747D01*
X001123Y009997D01*
X001023Y009997D01*
X000985Y009964D01*
X001223Y010447D02*
X001273Y010447D01*
X001673Y010847D01*
X001673Y011497D01*
X003523Y013347D01*
X004473Y013347D01*
X005823Y014697D01*
X005973Y014697D01*
X006673Y015397D01*
X007373Y015397D01*
X007423Y015447D01*
X007873Y014997D01*
X008623Y014997D02*
X006923Y013297D01*
X006673Y013447D02*
X006673Y013047D01*
X006273Y012647D01*
X005923Y012647D02*
X005723Y012647D01*
X005073Y013297D01*
X005873Y014097D01*
X005831Y014137D01*
X006223Y013547D02*
X005873Y013197D01*
X005831Y013153D01*
X006223Y013547D02*
X006373Y013547D01*
X006673Y013447D02*
X011123Y017897D01*
X011123Y018297D01*
X011723Y018897D01*
X011723Y019047D01*
X011737Y019058D01*
X011723Y018647D02*
X011323Y018247D01*
X011323Y016047D01*
X010723Y015447D01*
X010723Y015847D02*
X010373Y015847D01*
X010359Y015826D01*
X010723Y015847D02*
X011023Y016147D01*
X011737Y016106D02*
X011773Y016097D01*
X011773Y015747D01*
X012223Y015297D01*
X012223Y014997D01*
X011923Y014697D01*
X011723Y014697D01*
X010223Y013197D01*
X009973Y013247D02*
X006723Y009997D01*
X005973Y010747D02*
X005773Y010747D01*
X004023Y008997D01*
X003273Y008897D02*
X003273Y008847D01*
X001973Y007547D01*
X001623Y007997D02*
X002723Y009097D01*
X002623Y010097D02*
X003023Y010497D01*
X003023Y011697D01*
X003273Y011947D01*
X003273Y012297D01*
X003173Y012547D02*
X003573Y012547D01*
X003973Y012947D01*
X003985Y012964D01*
X004023Y012947D01*
X004473Y012947D01*
X005823Y011597D01*
X005831Y012169D02*
X005823Y012197D01*
X004673Y013347D01*
X004473Y013347D01*
X004373Y013547D02*
X004673Y013847D01*
X004673Y013947D01*
X005823Y015097D01*
X005831Y015121D01*
X006673Y015647D02*
X004473Y015647D01*
X004373Y015547D01*
X003323Y015547D01*
X001973Y016897D01*
X001023Y015947D01*
X000985Y015964D01*
X000985Y016964D02*
X001023Y016997D01*
X001173Y016997D01*
X003623Y019447D01*
X003823Y019747D02*
X003323Y019747D01*
X001773Y018197D01*
X001223Y017997D02*
X002023Y018797D01*
X001223Y017997D02*
X001023Y017997D01*
X000985Y017964D01*
X000985Y018964D02*
X001023Y018997D01*
X002123Y020097D01*
X003623Y020097D01*
X003666Y020141D01*
X003823Y019747D02*
X004523Y020447D01*
X006023Y020447D01*
X006123Y020347D01*
X008573Y020347D01*
X009323Y019347D02*
X006723Y019347D01*
X006023Y018647D01*
X005723Y018647D01*
X004923Y017847D01*
X004923Y017247D01*
X005423Y016747D01*
X004923Y016247D01*
X004523Y016247D01*
X004223Y016547D01*
X002573Y016547D01*
X001923Y017197D01*
X001723Y016997D01*
X003023Y017847D02*
X003973Y018797D01*
X003973Y018947D01*
X003985Y018964D01*
X003723Y017547D02*
X003273Y017097D01*
X003723Y017547D02*
X004373Y017547D01*
X005823Y018997D01*
X005823Y019047D01*
X005831Y019058D01*
X005723Y019547D02*
X011823Y019547D01*
X012323Y019047D01*
X011923Y018647D01*
X011723Y018647D01*
X011737Y017090D02*
X011773Y017047D01*
X011773Y016697D01*
X012423Y016047D01*
X012423Y014947D01*
X012073Y014597D01*
X012073Y014397D01*
X012223Y014247D01*
X011737Y014137D02*
X011723Y014097D01*
X010773Y013147D01*
X010873Y012897D02*
X011123Y013147D01*
X011723Y013147D01*
X011737Y013153D01*
X011223Y011947D02*
X011223Y011497D01*
X011123Y011397D01*
X011123Y008947D01*
X009673Y007497D01*
X009173Y007497D01*
X008823Y007147D01*
X008823Y006547D01*
X008573Y006297D01*
X008623Y005747D02*
X009023Y005747D01*
X009323Y006047D01*
X009423Y006047D01*
X009773Y006397D01*
X009773Y006947D01*
X009823Y006997D01*
X009223Y007697D02*
X008573Y007697D01*
X009223Y007697D02*
X009823Y008297D01*
X009823Y010247D01*
X011737Y010200D02*
X011773Y010247D01*
X011773Y010547D01*
X012173Y010947D01*
X011823Y009697D02*
X012423Y009097D01*
X012423Y008097D01*
X011773Y007447D01*
X011773Y007297D01*
X011737Y007247D01*
X011223Y007597D02*
X009473Y005847D01*
X009373Y005847D01*
X008823Y005297D01*
X008784Y005287D01*
X008623Y005747D02*
X008223Y005347D01*
X008273Y004797D02*
X007823Y004347D01*
X007823Y004297D01*
X007784Y004287D01*
X008773Y004247D02*
X008784Y004287D01*
X009323Y003047D02*
X010223Y003947D01*
X010223Y004347D01*
X011573Y005697D01*
X011823Y005697D01*
X012323Y006197D01*
X012423Y006697D02*
X013873Y008147D01*
X013902Y008177D01*
X013173Y006697D02*
X011773Y005297D01*
X011737Y005279D01*
X012023Y004797D02*
X011223Y004797D01*
X011173Y004747D01*
X011023Y004747D01*
X010523Y003997D02*
X009673Y003147D01*
X009673Y003047D01*
X009323Y003047D02*
X009323Y002897D01*
X009296Y002858D01*
X008784Y002858D02*
X008773Y002847D01*
X008773Y002447D01*
X008623Y002297D01*
X008123Y002297D01*
X007973Y002147D01*
X008123Y001547D02*
X008873Y002297D01*
X009423Y002297D01*
X010473Y003347D01*
X011123Y003347D01*
X011073Y002947D02*
X010973Y002947D01*
X010323Y002297D01*
X010073Y002297D01*
X010323Y002947D02*
X009173Y001797D01*
X010323Y002947D02*
X010523Y002947D01*
X011073Y002947D02*
X012623Y004497D01*
X012523Y004747D02*
X012973Y004747D01*
X013023Y004797D01*
X013923Y004797D01*
X015173Y006047D01*
X015182Y006066D01*
X013773Y004547D02*
X013773Y004147D01*
X012073Y002447D01*
X012023Y002747D02*
X011623Y002747D01*
X010923Y002047D01*
X011437Y001735D02*
X011473Y001747D01*
X012173Y001747D01*
X014173Y003747D01*
X014197Y003708D01*
X014223Y003747D01*
X016723Y003747D01*
X016757Y003708D01*
X016723Y001947D02*
X016757Y001928D01*
X016723Y001947D02*
X014223Y001947D01*
X014197Y001928D01*
X014173Y001947D01*
X013723Y001947D01*
X013223Y002447D01*
X012623Y001847D01*
X012023Y002747D02*
X012973Y003697D01*
X013173Y004247D02*
X013217Y004295D01*
X013173Y004247D02*
X011923Y002997D01*
X011073Y002697D02*
X012273Y003897D01*
X012373Y003897D01*
X012223Y004447D02*
X012023Y004447D01*
X012223Y004447D02*
X012523Y004747D01*
X012423Y006697D02*
X011573Y006697D01*
X010873Y005997D01*
X010623Y005997D01*
X010348Y005722D01*
X010323Y005747D01*
X010323Y005797D01*
X010348Y005722D02*
X009923Y005297D01*
X009823Y005297D01*
X009784Y005287D01*
X011223Y007597D02*
X011223Y008047D01*
X008023Y012247D02*
X008073Y012297D01*
X008073Y013747D01*
X007323Y012697D02*
X007323Y011597D01*
X007123Y011397D01*
X007073Y011797D02*
X007023Y011797D01*
X005973Y010747D01*
X003985Y010964D02*
X003973Y010997D01*
X003973Y011947D01*
X003985Y011964D01*
X003173Y012547D02*
X001873Y011247D01*
X001023Y011097D02*
X003473Y013547D01*
X004373Y013547D01*
X003985Y015964D02*
X004023Y015997D01*
X005123Y015997D01*
X005673Y016547D01*
X005873Y016547D01*
X006323Y016997D01*
X007223Y016897D02*
X008423Y018097D01*
X009123Y018147D02*
X009123Y017647D01*
X007573Y016097D01*
X007923Y016097D02*
X008273Y016447D01*
X008723Y015997D01*
X009173Y016297D02*
X009173Y017247D01*
X010073Y018147D01*
X010073Y018247D01*
X010123Y018297D01*
X010123Y018547D01*
X009323Y019347D01*
X007223Y016897D02*
X007223Y015847D01*
X007209Y015810D01*
X006823Y015147D02*
X006823Y014047D01*
X008623Y014997D02*
X008623Y015047D01*
X009423Y014697D02*
X009523Y014797D01*
X009571Y014826D01*
X009423Y014697D02*
X009423Y013897D01*
X011323Y015297D02*
X011573Y015547D01*
X011573Y015597D01*
X006573Y018797D02*
X005873Y018097D01*
X005831Y018074D01*
X004773Y016997D02*
X004773Y016497D01*
X002223Y014197D02*
X001023Y012997D01*
X000985Y012964D01*
X001873Y012297D02*
X002173Y012597D01*
X002173Y013747D01*
X001023Y011097D02*
X001023Y010997D01*
X000985Y010964D01*
X001023Y007997D02*
X000985Y007964D01*
X001023Y007997D02*
X001623Y007997D01*
D27*
X001973Y007547D03*
X003023Y008247D03*
X003273Y008897D03*
X002723Y009097D03*
X002073Y008847D03*
X001723Y008847D03*
X002623Y010097D03*
X002223Y011247D03*
X001873Y012297D03*
X002173Y013747D03*
X002223Y014197D03*
X003273Y012297D03*
X004923Y010697D03*
X004873Y010197D03*
X004573Y008547D03*
X004673Y007747D03*
X005023Y007747D03*
X004923Y007197D03*
X005173Y006997D03*
X005123Y005997D03*
X004973Y005447D03*
X003473Y006397D03*
X002873Y005897D03*
X002573Y006147D03*
X002023Y005697D03*
X002573Y002897D03*
X005023Y003147D03*
X005373Y003147D03*
X006473Y003297D03*
X006573Y002647D03*
X007273Y003547D03*
X007023Y003797D03*
X007973Y003247D03*
X008223Y003497D03*
X008873Y003597D03*
X009673Y003047D03*
X010073Y002297D03*
X010523Y002947D03*
X011073Y002697D03*
X011123Y003347D03*
X010523Y003997D03*
X011023Y004747D03*
X012023Y004797D03*
X012023Y004447D03*
X012623Y004497D03*
X012373Y003897D03*
X012973Y003697D03*
X013773Y004547D03*
X012323Y006197D03*
X013173Y006697D03*
X011223Y008047D03*
X009823Y006997D03*
X009673Y007497D03*
X008573Y006297D03*
X008273Y004797D03*
X010323Y005797D03*
X008173Y008197D03*
X008123Y008547D03*
X007473Y009197D03*
X008123Y009597D03*
X008223Y010797D03*
X009073Y010897D03*
X009823Y010247D03*
X010973Y011747D03*
X011223Y011947D03*
X010873Y012647D03*
X010773Y013147D03*
X010473Y013847D03*
X010773Y014247D03*
X009973Y013247D03*
X009423Y013897D03*
X009373Y013097D03*
X008923Y012547D03*
X008023Y012247D03*
X007323Y012697D03*
X006923Y013297D03*
X006373Y013547D03*
X006823Y014047D03*
X006823Y015147D03*
X006673Y015647D03*
X007573Y016097D03*
X007923Y016097D03*
X008723Y015997D03*
X009173Y016297D03*
X008623Y015047D03*
X008673Y014697D03*
X008073Y013747D03*
X007873Y014997D03*
X006323Y016997D03*
X004773Y016997D03*
X004773Y016497D03*
X003273Y017097D03*
X003023Y017847D03*
X002023Y018797D03*
X001773Y018197D03*
X001723Y016997D03*
X003623Y019447D03*
X005723Y019547D03*
X006573Y018797D03*
X008423Y018097D03*
X009123Y018147D03*
X008573Y020347D03*
X011023Y016147D03*
X011223Y015597D03*
X011573Y015597D03*
X010723Y015447D03*
X012323Y014497D03*
X010073Y011897D03*
X011823Y009697D03*
X012173Y010947D03*
X007273Y008047D03*
X006523Y007297D03*
X006623Y009397D03*
X006723Y009997D03*
X006873Y010497D03*
X006973Y010847D03*
X007123Y011397D03*
X007073Y011797D03*
X006273Y012647D03*
X005923Y012647D03*
X001223Y010447D03*
X007973Y002147D03*
X008123Y001547D03*
X009173Y001797D03*
X010923Y002047D03*
X012073Y002447D03*
X011923Y002997D03*
X012623Y001847D03*
M02*
