G75*
G70*
%OFA0B0*%
%FSLAX24Y24*%
%IPPOS*%
%LPD*%
%AMOC8*
5,1,8,0,0,1.08239X$1,22.5*
%
%ADD10C,0.0000*%
%ADD11OC8,0.0520*%
%ADD12OC8,0.0600*%
%ADD13C,0.0100*%
%ADD14C,0.0240*%
D10*
X004378Y000350D02*
X000167Y007644D01*
X000147Y007683D01*
X000130Y007723D01*
X000117Y007765D01*
X000108Y007807D01*
X000102Y007850D01*
X000100Y007894D01*
X000102Y007938D01*
X000108Y007981D01*
X000117Y008023D01*
X000130Y008065D01*
X000147Y008105D01*
X000167Y008144D01*
X004378Y015438D01*
X004401Y015475D01*
X004428Y015509D01*
X004457Y015542D01*
X004490Y015571D01*
X004524Y015598D01*
X004561Y015621D01*
X004600Y015641D01*
X004640Y015658D01*
X004682Y015671D01*
X004724Y015680D01*
X004767Y015686D01*
X004811Y015688D01*
X013234Y015688D01*
X013667Y015438D02*
X017878Y008144D01*
X017898Y008105D01*
X017915Y008065D01*
X017928Y008023D01*
X017937Y007981D01*
X017943Y007938D01*
X017945Y007894D01*
X017943Y007850D01*
X017937Y007807D01*
X017928Y007765D01*
X017915Y007723D01*
X017898Y007683D01*
X017878Y007644D01*
X013667Y000350D01*
X013234Y000100D02*
X004811Y000100D01*
X004767Y000102D01*
X004724Y000108D01*
X004682Y000117D01*
X004640Y000130D01*
X004600Y000147D01*
X004561Y000167D01*
X004524Y000190D01*
X004490Y000217D01*
X004457Y000246D01*
X004428Y000279D01*
X004401Y000313D01*
X004378Y000350D01*
X013234Y000100D02*
X013278Y000102D01*
X013321Y000108D01*
X013363Y000117D01*
X013405Y000130D01*
X013445Y000147D01*
X013484Y000167D01*
X013521Y000190D01*
X013555Y000217D01*
X013588Y000246D01*
X013617Y000279D01*
X013644Y000313D01*
X013667Y000350D01*
X013667Y015438D02*
X013644Y015475D01*
X013617Y015509D01*
X013588Y015542D01*
X013555Y015571D01*
X013521Y015598D01*
X013484Y015621D01*
X013445Y015641D01*
X013405Y015658D01*
X013363Y015671D01*
X013321Y015680D01*
X013278Y015686D01*
X013234Y015688D01*
D11*
X003523Y002698D03*
X004523Y002698D03*
X005523Y002698D03*
X006523Y002698D03*
X007523Y002698D03*
X008523Y002698D03*
X009523Y002698D03*
X010523Y002698D03*
X011523Y002698D03*
X012523Y002698D03*
X013523Y002698D03*
X014523Y002698D03*
X014523Y004430D03*
X015523Y004430D03*
X015523Y006162D03*
X016523Y006162D03*
X014523Y006162D03*
X013523Y006162D03*
X012523Y006162D03*
X011523Y006162D03*
X010523Y006162D03*
X009523Y006162D03*
X008523Y006162D03*
X007523Y006162D03*
X006523Y006162D03*
X005523Y006162D03*
X004523Y006162D03*
X003523Y006162D03*
X002523Y006162D03*
X001523Y006162D03*
X001523Y007894D03*
X002523Y007894D03*
X003523Y007894D03*
X004523Y007894D03*
X005523Y007894D03*
X006523Y007894D03*
X007523Y007894D03*
X008523Y007894D03*
X009523Y007894D03*
X010523Y007894D03*
X011523Y007894D03*
X012523Y007894D03*
X013523Y007894D03*
X014523Y007894D03*
X015523Y007894D03*
X016523Y007894D03*
X017523Y007894D03*
X016523Y009626D03*
X015523Y009626D03*
X014523Y009626D03*
X013523Y009626D03*
X012523Y009626D03*
X011523Y009626D03*
X010523Y009626D03*
X009523Y009626D03*
X008523Y009626D03*
X007523Y009626D03*
X006523Y009626D03*
X005523Y009626D03*
X004523Y009626D03*
X003523Y009626D03*
X002523Y009626D03*
X001523Y009626D03*
X000523Y007894D03*
X002523Y004430D03*
X003523Y004430D03*
X004523Y004430D03*
X005523Y004430D03*
X006523Y004430D03*
X007523Y004430D03*
X008523Y004430D03*
X009523Y004430D03*
X010523Y004430D03*
X011523Y004430D03*
X012523Y004430D03*
X013523Y004430D03*
X013523Y000966D03*
X012523Y000966D03*
X011523Y000966D03*
X010523Y000966D03*
X009523Y000966D03*
X008523Y000966D03*
X007523Y000966D03*
X006523Y000966D03*
X005523Y000966D03*
X004523Y000966D03*
X004523Y011358D03*
X005523Y011358D03*
X006523Y011358D03*
X007523Y011358D03*
X008523Y011358D03*
X009523Y011358D03*
X010523Y011358D03*
X011523Y011358D03*
X012523Y011358D03*
X013523Y011358D03*
X014523Y011358D03*
X015523Y011358D03*
X014523Y013090D03*
X013523Y013090D03*
X012523Y013090D03*
X011523Y013090D03*
X010523Y013090D03*
X009523Y013090D03*
X008523Y013090D03*
X007523Y013090D03*
X006523Y013090D03*
X005523Y013090D03*
X004523Y013090D03*
X003523Y013090D03*
X003523Y011358D03*
X002523Y011358D03*
X004523Y014822D03*
X005523Y014822D03*
X006523Y014822D03*
X007523Y014822D03*
X008523Y014822D03*
X009523Y014822D03*
X010523Y014822D03*
X011523Y014822D03*
X012523Y014822D03*
X013523Y014822D03*
D12*
X013023Y001850D03*
X012023Y001850D03*
X011023Y001850D03*
X010023Y001850D03*
X009023Y001850D03*
X008023Y001850D03*
X007023Y001850D03*
X006023Y001850D03*
X005023Y001850D03*
D13*
X005023Y001600D01*
X005523Y001100D01*
X005523Y000966D01*
X006023Y001100D02*
X005523Y001600D01*
X005523Y002100D01*
X005023Y002600D01*
X005023Y004850D01*
X004523Y005350D01*
X004523Y006162D01*
X003523Y006162D02*
X003523Y006350D01*
X002523Y006350D01*
X002523Y006162D01*
X002523Y006350D02*
X002523Y006850D01*
X001523Y007850D01*
X001523Y007894D01*
X001523Y008100D01*
X002023Y008600D01*
X002023Y010100D01*
X003023Y011100D01*
X003023Y011600D01*
X004523Y013100D01*
X004523Y013090D01*
X005023Y013600D02*
X005523Y013100D01*
X005523Y013090D01*
X005023Y013600D02*
X005023Y015350D01*
X005773Y015350D01*
X006023Y015100D01*
X006023Y014600D01*
X006523Y014100D01*
X007023Y014600D01*
X007023Y015100D01*
X007273Y015350D01*
X009023Y015350D01*
X009023Y013600D01*
X009523Y013100D01*
X009523Y013090D01*
X009523Y011358D01*
X010523Y011358D02*
X010523Y010850D01*
X011523Y009850D01*
X011523Y009626D01*
X012523Y009626D02*
X012523Y010350D01*
X013523Y011350D01*
X013523Y011358D01*
X012523Y011358D02*
X012523Y013090D01*
X012523Y013100D01*
X013523Y013100D01*
X013523Y013090D01*
X014023Y014100D02*
X014023Y007350D01*
X014523Y007850D01*
X014523Y007894D01*
X014023Y007350D02*
X014023Y001600D01*
X013523Y001100D01*
X013523Y000966D01*
X013023Y001850D02*
X012773Y001850D01*
X012023Y002600D01*
X012023Y012350D01*
X011523Y012850D01*
X011523Y013090D01*
X010523Y013090D02*
X010523Y011358D01*
X011023Y012100D02*
X011023Y014100D01*
X010523Y014600D01*
X010523Y014822D01*
X008523Y013090D02*
X008523Y012850D01*
X009023Y012350D01*
X009023Y010350D01*
X009523Y009850D01*
X009523Y009626D01*
X010523Y009626D02*
X010523Y009100D01*
X011023Y008600D01*
X011023Y005100D01*
X011523Y004600D01*
X011523Y004430D01*
X010523Y004430D02*
X010523Y004600D01*
X009023Y006100D01*
X009023Y006350D01*
X008023Y007350D01*
X008023Y014100D01*
X007523Y014600D01*
X007523Y014822D01*
X006523Y014100D02*
X007523Y013100D01*
X007523Y013090D01*
X006023Y014100D02*
X006023Y004100D01*
X005523Y003600D01*
X005523Y002698D01*
X006023Y002100D02*
X006023Y001850D01*
X006023Y002100D02*
X007023Y001100D01*
X007523Y001100D01*
X007523Y000966D01*
X008023Y000350D02*
X006023Y000350D01*
X006023Y001100D01*
X007023Y001850D02*
X007023Y002850D01*
X008023Y003850D01*
X008023Y005600D01*
X007523Y006100D01*
X007523Y006162D01*
X008023Y005850D02*
X008523Y005350D01*
X008523Y004430D01*
X008523Y003850D01*
X009523Y002850D01*
X009523Y002698D01*
X009023Y002850D02*
X008273Y003600D01*
X009023Y002850D02*
X009023Y001850D01*
X008523Y001350D02*
X008523Y000966D01*
X008523Y001350D02*
X010523Y001350D01*
X010523Y000966D01*
X010523Y001350D02*
X010523Y002698D01*
X011023Y002850D02*
X009523Y004350D01*
X009523Y004430D01*
X009023Y004350D02*
X009023Y005600D01*
X008523Y006100D01*
X008523Y006162D01*
X008023Y005850D02*
X008023Y007350D01*
X007523Y007894D02*
X007523Y008600D01*
X007023Y009100D01*
X007023Y005100D01*
X007523Y004600D01*
X007523Y004430D01*
X006523Y004430D02*
X006523Y004350D01*
X006023Y003850D01*
X006023Y002100D01*
X004523Y002698D02*
X004523Y003100D01*
X004023Y003600D01*
X004023Y010850D01*
X004523Y011350D01*
X004523Y011358D01*
X005523Y011358D02*
X005523Y009626D01*
X005523Y009600D01*
X005023Y009600D01*
X005023Y005100D01*
X005523Y004600D01*
X005523Y004430D01*
X004023Y003350D02*
X003023Y004350D01*
X003023Y004600D01*
X001523Y006100D01*
X001523Y006162D01*
X003523Y007894D02*
X003523Y008600D01*
X002523Y009600D01*
X002523Y009626D01*
X002523Y010350D01*
X003523Y011350D01*
X003523Y011358D01*
X004523Y009626D02*
X004523Y009600D01*
X005023Y009600D01*
X005523Y009600D02*
X005523Y007894D01*
X007023Y009100D02*
X006523Y009600D01*
X006523Y009626D01*
X008523Y009626D02*
X008523Y009100D01*
X009523Y008100D01*
X009523Y007894D01*
X009523Y007850D01*
X010523Y006850D01*
X010523Y006162D01*
X011523Y007894D02*
X011523Y008100D01*
X011023Y008600D01*
X012523Y009100D02*
X012523Y009626D01*
X012523Y009100D02*
X013523Y008100D01*
X013523Y007894D01*
X013523Y007850D01*
X013023Y007350D01*
X013023Y005850D01*
X013773Y005100D01*
X013523Y004850D01*
X013523Y004430D01*
X014523Y004430D02*
X014523Y002698D01*
X013523Y002698D02*
X013523Y002850D01*
X012523Y002850D01*
X012523Y002698D01*
X012023Y002600D02*
X011523Y002600D01*
X011523Y002698D01*
X011023Y002850D02*
X011023Y001850D01*
X010023Y001850D02*
X010023Y003350D01*
X009023Y004350D01*
X008023Y001850D02*
X008023Y000350D01*
X010523Y000350D01*
X011023Y000850D01*
X011523Y000850D01*
X011523Y000966D01*
X016523Y006162D02*
X016523Y006850D01*
X015523Y007850D01*
X015523Y007894D01*
X015523Y008600D01*
X014523Y009600D01*
X014523Y009626D01*
X014523Y010350D01*
X015523Y011350D01*
X015523Y011358D01*
X016523Y009626D02*
X016523Y009100D01*
X017523Y008100D01*
X017523Y007894D01*
X011523Y011358D02*
X011523Y011600D01*
X011023Y012100D01*
X013523Y014600D02*
X013523Y014822D01*
X013523Y014600D02*
X014023Y014100D01*
X006023Y014100D02*
X005523Y014600D01*
X005523Y014822D01*
X004023Y003350D02*
X004023Y001600D01*
X004523Y001100D01*
X004523Y000966D01*
D14*
X008273Y003600D03*
X013773Y005100D03*
M02*
