G75*
G70*
%OFA0B0*%
%FSLAX24Y24*%
%IPPOS*%
%LPD*%
%AMOC8*
5,1,8,0,0,1.08239X$1,22.5*
%
%ADD10C,0.0060*%
%ADD11C,0.0050*%
%ADD12C,0.0040*%
%ADD13R,0.0689X1.1614*%
%ADD14R,0.0300X0.0800*%
D10*
X005897Y005543D02*
X005918Y005567D01*
X005935Y005593D01*
X005949Y005621D01*
X005960Y005650D01*
X005967Y005681D01*
X005970Y005712D01*
X005969Y005744D01*
X005964Y005775D01*
X005955Y005805D01*
X005943Y005833D01*
X005927Y005861D01*
X005908Y005885D01*
X005885Y005908D01*
X005861Y005927D01*
X005833Y005943D01*
X005805Y005955D01*
X005775Y005964D01*
X005744Y005969D01*
X005712Y005970D01*
X005681Y005967D01*
X005650Y005960D01*
X005621Y005949D01*
X005593Y005935D01*
X005567Y005918D01*
X005543Y005897D01*
X005544Y005897D02*
X004943Y006498D01*
X007771Y009327D01*
X009327Y007771D01*
X006498Y004943D01*
X005897Y005544D01*
D11*
X005111Y004262D02*
X004262Y005111D01*
X004828Y005676D01*
X005676Y004828D01*
X005111Y004262D01*
X005637Y003188D02*
X006751Y004301D01*
X004301Y006751D01*
X003188Y005637D01*
X005637Y003188D01*
X006177Y006163D02*
X005911Y006428D01*
X006123Y006640D02*
X006389Y006375D01*
X006389Y006269D01*
X006283Y006163D01*
X006177Y006163D01*
X006396Y006594D02*
X006290Y006700D01*
X006290Y006807D01*
X006449Y006966D01*
X006768Y006647D01*
X006661Y006753D02*
X006502Y006594D01*
X006396Y006594D01*
X006615Y007026D02*
X006828Y006814D01*
X006934Y006814D01*
X007040Y006920D01*
X007040Y007026D01*
X006615Y007026D01*
X006615Y007132D01*
X006722Y007238D01*
X006828Y007238D01*
X007040Y007026D01*
X007206Y007086D02*
X007419Y007298D01*
X007312Y007192D02*
X006994Y007511D01*
X007206Y007511D01*
X007373Y007571D02*
X007585Y007783D01*
X007751Y007843D02*
X007539Y008056D01*
X007751Y008268D02*
X007964Y008056D01*
X007964Y007843D01*
X007751Y007843D01*
X008077Y008169D02*
X008130Y008116D01*
X008236Y008116D01*
X008342Y008222D01*
X008342Y008328D01*
X008508Y008388D02*
X008721Y008601D01*
X008615Y008494D02*
X008296Y008813D01*
X008508Y008813D01*
X008569Y008979D02*
X008516Y009032D01*
X008569Y008979D02*
X008781Y008979D01*
X008940Y008820D01*
X008781Y008979D02*
X008781Y009192D01*
X008728Y009245D01*
X008841Y009358D02*
X009160Y009039D01*
X009053Y009570D01*
X009372Y009252D01*
X009483Y009363D02*
X009589Y009469D01*
X009536Y009416D02*
X009217Y009734D01*
X009270Y009787D02*
X009164Y009681D01*
X009384Y009900D02*
X009596Y010113D01*
X009490Y010007D02*
X009808Y009688D01*
X010601Y008786D02*
X010114Y008299D01*
X010601Y008786D02*
X008792Y010596D01*
X008235Y010039D01*
X008792Y010596D02*
X008026Y011361D01*
X016378Y019713D01*
X019719Y016372D01*
X011367Y008020D01*
X010601Y008786D01*
X008130Y008540D02*
X008024Y008540D01*
X007918Y008434D01*
X007918Y008328D01*
X007971Y008275D01*
X008077Y008275D01*
X008077Y008169D01*
X008077Y008275D02*
X008130Y008328D01*
D12*
X009072Y010795D02*
X009289Y011012D01*
X009289Y010795D02*
X009072Y011012D01*
X010500Y012273D02*
X010826Y012165D01*
X010717Y012490D01*
X010771Y012653D02*
X011205Y012653D01*
X011260Y012599D01*
X011368Y012707D02*
X011422Y012762D01*
X011368Y012816D01*
X011314Y012762D01*
X011368Y012707D01*
X011531Y012870D02*
X011748Y013087D01*
X011314Y013087D01*
X011260Y013141D01*
X011260Y013250D01*
X011368Y013358D01*
X011477Y013358D01*
X011856Y013847D02*
X012073Y014064D01*
X012399Y013738D01*
X012508Y013847D02*
X012725Y014064D01*
X012291Y014064D01*
X012236Y014118D01*
X012236Y014227D01*
X012345Y014335D01*
X012453Y014335D01*
X012616Y014606D02*
X012942Y014281D01*
X013050Y014389D02*
X012833Y014172D01*
X012833Y014606D02*
X012616Y014606D01*
X012236Y013901D02*
X012128Y013793D01*
X010934Y012924D02*
X010717Y012707D01*
X010771Y012653D01*
X013321Y014986D02*
X013484Y014823D01*
X013321Y014986D02*
X013321Y015095D01*
X013484Y015257D01*
X013701Y015040D01*
X013755Y015203D02*
X013647Y015312D01*
X013647Y015420D01*
X013755Y015529D01*
X013864Y015529D01*
X013972Y015420D01*
X013972Y015312D01*
X013864Y015203D01*
X013755Y015203D01*
X014135Y015475D02*
X014298Y015637D01*
X014298Y015746D01*
X014190Y015854D01*
X014081Y015854D01*
X013918Y015692D01*
X014298Y016071D02*
X014515Y015854D01*
X014461Y015800D02*
X014569Y015909D01*
X014678Y016017D02*
X014515Y016180D01*
X014515Y016288D01*
X014624Y016397D01*
X014732Y016397D01*
X014786Y016560D02*
X014949Y016722D01*
X015058Y016722D01*
X015166Y016614D01*
X015166Y016505D01*
X015003Y016343D01*
X014895Y016234D02*
X014569Y016560D01*
X014352Y016126D02*
X014298Y016071D01*
X014190Y016180D02*
X014135Y016234D01*
X015003Y017102D02*
X015058Y017048D01*
X015166Y016939D02*
X015383Y016722D01*
X015329Y016668D02*
X015437Y016777D01*
X015546Y016885D02*
X015220Y017211D01*
X015220Y016994D02*
X015166Y016939D01*
X015546Y016885D02*
X015437Y017428D01*
X015763Y017102D01*
X011299Y008646D02*
X011516Y008429D01*
D13*
G36*
X018604Y017346D02*
X019091Y016859D01*
X010880Y008648D01*
X010393Y009135D01*
X018604Y017346D01*
G37*
D14*
G36*
X005463Y005039D02*
X005675Y004827D01*
X005111Y004263D01*
X004899Y004475D01*
X005463Y005039D01*
G37*
M02*
