%
M48
M72
T01C0.0120
T02C0.0236
T03C0.0315
T04C0.0394
T05C0.0400
T06C0.1102
%
T01
X3837Y3483
X4467Y2833
X4782Y3404
X4940Y3719
X5491Y4389
X4861Y4605
X6357Y4330
X6869Y5373
X7223Y5491
X7656Y5924
X7814Y6672
X7676Y6987
X7046Y7223
X6908Y7538
X6790Y7873
X6593Y7243
X6081Y7085
X5215Y6456
X4251Y6259
X4428Y7873
X4920Y8089
X5491Y8522
X6121Y9290
X6652Y8660
X7991Y8207
X8306Y8522
X8896Y6889
X8089Y5038
X9940Y4389
X9585Y3188
X9723Y1180
X6003Y3089
X5137Y2617
X1298Y5274
X3286Y8267
X1593Y8818
X5019Y10255
X5038Y9487
X9763Y11731
T02
X5471Y10097
X2912Y10097
T03
X2956Y11180
X3956Y11180
X4956Y11180
X5956Y11180
X6956Y11180
X7956Y11180
X8956Y11180
X9956Y11180
X9956Y1731
X8956Y1731
X7956Y1731
X6956Y1731
X5956Y1731
X4956Y1731
X3956Y1731
X2956Y1731
T04
X4456Y550
X5456Y550
X6456Y550
X7456Y550
X8456Y550
X12361Y4456
X12361Y5456
X12361Y6456
X12361Y7456
X12361Y8456
X8456Y12361
X7456Y12361
X6456Y12361
X5456Y12361
X4456Y12361
X550Y8456
X550Y7456
X550Y6456
X550Y5456
X550Y4456
T05
X2412Y5456
X2412Y6456
X2412Y7456
X3412Y7456
X3412Y6456
X3412Y5456
X6456Y10097
X7456Y10097
X8858Y10097
X9958Y10097
X10264Y7959
X10364Y6959
X10264Y5959
X10364Y4959
T06
X944Y944
X944Y11967
X11967Y11967
X11967Y944
M30
