%
M48
M72
T01C0.0120
T02C0.0236
T03C0.0276
T04C0.0315
T05C0.0320
T06C0.0394
T07C0.0400
T08C0.1260
%
T01
X2684Y7291
X2960Y7094
X2684Y8591
X3432Y11701
X3432Y12094
X3196Y12764
X3550Y14575
X4101Y14732
X4574Y15205
X4928Y14102
X5204Y14457
X5479Y13236
X5716Y13000
X5873Y13630
X6109Y12606
X6424Y12370
X5834Y11543
X5440Y11543
X5440Y11976
X5125Y12055
X4771Y12331
X4771Y12646
X4377Y13039
X4219Y11307
X5007Y10520
X5519Y8827
X7448Y9811
X7802Y9063
X8353Y9614
X7684Y11780
X7723Y13748
X7605Y14575
X7842Y15677
X8590Y16937
X8353Y17488
X8432Y17803
X8038Y17803
X7133Y17606
X6936Y16465
X6700Y15441
X6464Y14614
X5794Y17134
X5086Y17843
X4377Y17134
X4023Y18236
X3826Y17291
X3786Y16150
X2999Y15756
X1464Y14535
X1149Y14496
X1503Y12173
X3865Y19850
X3668Y21386
X4968Y20874
X5007Y19575
X6031Y20598
X7330Y20205
X7645Y20717
X7448Y21307
X8786Y21307
X9298Y20323
X9731Y21150
X10322Y23079
X9968Y24417
X8786Y25362
X8511Y26228
X7172Y25638
X5440Y24535
X4338Y26228
X8983Y17764
X9062Y18079
X8983Y17016
X9259Y15323
X9889Y15087
X9928Y15598
X10873Y15126
X10873Y16189
X11464Y15323
X10361Y17606
X8865Y14457
X8708Y14772
X9141Y13630
X8708Y13276
X9574Y12134
X9731Y12803
X10086Y10913
X7723Y5913
X7920Y2409
X5952Y2409
X4416Y4457
T02
X2881Y4181
X2881Y6543
T03
X2881Y11055
X2881Y12055
T04
X1700Y11224
X1700Y10224
X1700Y9224
X1700Y8224
X1700Y7224
X1700Y6224
X1700Y5224
X1700Y4224
X1700Y16823
X1700Y17823
X1700Y18823
X1700Y19823
X1700Y20823
X1700Y21823
X1700Y22823
X1700Y23823
X11149Y23823
X11149Y22823
X11149Y21823
X11149Y20823
X11149Y19823
X11149Y18823
X11149Y17823
X11149Y16823
X11149Y11224
X11149Y10224
X11149Y9224
X11149Y8224
X11149Y7224
X11149Y6224
X11149Y5224
X11149Y4224
T05
X2920Y16756
X2920Y17756
X2920Y18756
X2920Y19756
X2920Y20756
X2920Y21756
X4948Y25146
X5932Y25146
X6916Y25146
X7901Y25146
T06
X7924Y24054
X6924Y24054
X5924Y24054
X4924Y24054
T07
X4924Y4500
X5924Y4500
X6924Y4500
X7924Y4500
T08
X1306Y2606
X11542Y2606
X11542Y25441
X1306Y25441
M30
