%
M48
M72
T01C0.0120
T02C0.0236
T03C0.0276
T04C0.0320
T05C0.0394
T06C0.0400
%
T01
X1166Y3409
X505Y4598
X773Y7283
X1277Y8315
X1670Y8882
X1907Y9118
X1883Y8378
X2080Y7748
X2458Y7795
X2080Y7087
X2442Y6874
X2757Y6874
X2899Y7354
X3418Y8197
X3938Y8386
X3914Y7701
X3962Y7205
X4505Y8071
X4985Y9102
X5159Y9748
X5072Y10063
X4741Y10394
X4505Y10157
X3954Y10724
X3733Y11622
X3544Y11874
X3096Y12685
X2836Y12984
X2363Y13055
X2009Y13079
X2080Y14071
X2592Y15094
X3159Y14929
X3489Y14110
X4292Y15016
X4584Y13921
X5229Y15252
X4788Y16189
X3804Y16189
X5340Y13945
X6182Y14039
X5285Y11921
X5387Y11000
X6072Y11039
X6190Y10205
X6300Y8512
X6544Y8268
X6710Y7472
X7229Y6323
X7497Y6921
X7418Y8094
X6048Y6024
X5316Y6528
X5009Y5827
X4568Y6858
X5631Y7724
X5576Y2661
X6135Y1819
X4568Y2409
X3725Y2409
X3316Y2661
X2710Y2819
X2072Y3787
X1907Y3291
X2009Y1819
X2875Y8772
X2639Y8976
X2521Y9331
X3009Y9567
X2395Y10661
X2718Y11315
X1568Y11323
X1568Y10992
X1568Y10228
X1072Y9315
X1072Y13220
X2009Y16780
X6135Y16780
T02
X3628Y13481
X1957Y11811
T03
X1119Y11760
X1119Y12744
X1119Y13728
X1119Y14713
X1119Y15697
X1119Y16681
X1119Y10776
X1119Y9791
X1119Y8807
X1119Y7823
X1119Y6839
X1119Y5854
X1119Y4870
X1119Y3886
X1119Y2902
X1119Y1917
X5530Y5836
X6237Y6543
X7025Y6839
X7025Y7823
X7025Y8807
X7025Y9791
X7025Y10776
X7025Y11760
X7025Y12744
X7025Y13728
X7025Y14713
X7025Y15697
X7025Y16681
X7025Y5854
X7025Y4870
X7025Y3886
X7025Y2902
X7025Y1917
T04
X5450Y7035
X6139Y7724
X4761Y6346
X4072Y5657
X2989Y11760
X3678Y12449
X3580Y15697
X4564Y15697
X5548Y15697
X2596Y15697
T05
X529Y1770
X2572Y14605
X3572Y14605
X4572Y14605
X5572Y14605
X7615Y16780
X7615Y1819
X529Y16780
T06
X2572Y4500
X3572Y4500
X4572Y4500
X5572Y4500
M30
