G75*
G70*
%OFA0B0*%
%FSLAX24Y24*%
%IPPOS*%
%LPD*%
%AMOC8*
5,1,8,0,0,1.08239X$1,22.5*
%
%ADD10C,0.0000*%
D10*
X000529Y001425D02*
X007615Y001425D01*
X007418Y001819D02*
X007420Y001846D01*
X007426Y001873D01*
X007435Y001899D01*
X007448Y001923D01*
X007464Y001946D01*
X007483Y001965D01*
X007505Y001982D01*
X007529Y001996D01*
X007554Y002006D01*
X007581Y002013D01*
X007608Y002016D01*
X007636Y002015D01*
X007663Y002010D01*
X007689Y002002D01*
X007713Y001990D01*
X007736Y001974D01*
X007757Y001956D01*
X007774Y001935D01*
X007789Y001911D01*
X007800Y001886D01*
X007808Y001860D01*
X007812Y001833D01*
X007812Y001805D01*
X007808Y001778D01*
X007800Y001752D01*
X007789Y001727D01*
X007774Y001703D01*
X007757Y001682D01*
X007736Y001664D01*
X007714Y001648D01*
X007689Y001636D01*
X007663Y001628D01*
X007636Y001623D01*
X007608Y001622D01*
X007581Y001625D01*
X007554Y001632D01*
X007529Y001642D01*
X007505Y001656D01*
X007483Y001673D01*
X007464Y001692D01*
X007448Y001715D01*
X007435Y001739D01*
X007426Y001765D01*
X007420Y001792D01*
X007418Y001819D01*
X007615Y001425D02*
X007654Y001427D01*
X007692Y001433D01*
X007729Y001442D01*
X007766Y001455D01*
X007801Y001472D01*
X007834Y001491D01*
X007865Y001514D01*
X007894Y001540D01*
X007920Y001569D01*
X007943Y001600D01*
X007962Y001633D01*
X007979Y001668D01*
X007992Y001705D01*
X008001Y001742D01*
X008007Y001780D01*
X008009Y001819D01*
X008009Y016780D01*
X007418Y016780D02*
X007420Y016807D01*
X007426Y016834D01*
X007435Y016860D01*
X007448Y016884D01*
X007464Y016907D01*
X007483Y016926D01*
X007505Y016943D01*
X007529Y016957D01*
X007554Y016967D01*
X007581Y016974D01*
X007608Y016977D01*
X007636Y016976D01*
X007663Y016971D01*
X007689Y016963D01*
X007713Y016951D01*
X007736Y016935D01*
X007757Y016917D01*
X007774Y016896D01*
X007789Y016872D01*
X007800Y016847D01*
X007808Y016821D01*
X007812Y016794D01*
X007812Y016766D01*
X007808Y016739D01*
X007800Y016713D01*
X007789Y016688D01*
X007774Y016664D01*
X007757Y016643D01*
X007736Y016625D01*
X007714Y016609D01*
X007689Y016597D01*
X007663Y016589D01*
X007636Y016584D01*
X007608Y016583D01*
X007581Y016586D01*
X007554Y016593D01*
X007529Y016603D01*
X007505Y016617D01*
X007483Y016634D01*
X007464Y016653D01*
X007448Y016676D01*
X007435Y016700D01*
X007426Y016726D01*
X007420Y016753D01*
X007418Y016780D01*
X007615Y017174D02*
X007654Y017172D01*
X007692Y017166D01*
X007729Y017157D01*
X007766Y017144D01*
X007801Y017127D01*
X007834Y017108D01*
X007865Y017085D01*
X007894Y017059D01*
X007920Y017030D01*
X007943Y016999D01*
X007962Y016966D01*
X007979Y016931D01*
X007992Y016894D01*
X008001Y016857D01*
X008007Y016819D01*
X008009Y016780D01*
X007615Y017173D02*
X000529Y017173D01*
X000332Y016780D02*
X000334Y016807D01*
X000340Y016834D01*
X000349Y016860D01*
X000362Y016884D01*
X000378Y016907D01*
X000397Y016926D01*
X000419Y016943D01*
X000443Y016957D01*
X000468Y016967D01*
X000495Y016974D01*
X000522Y016977D01*
X000550Y016976D01*
X000577Y016971D01*
X000603Y016963D01*
X000627Y016951D01*
X000650Y016935D01*
X000671Y016917D01*
X000688Y016896D01*
X000703Y016872D01*
X000714Y016847D01*
X000722Y016821D01*
X000726Y016794D01*
X000726Y016766D01*
X000722Y016739D01*
X000714Y016713D01*
X000703Y016688D01*
X000688Y016664D01*
X000671Y016643D01*
X000650Y016625D01*
X000628Y016609D01*
X000603Y016597D01*
X000577Y016589D01*
X000550Y016584D01*
X000522Y016583D01*
X000495Y016586D01*
X000468Y016593D01*
X000443Y016603D01*
X000419Y016617D01*
X000397Y016634D01*
X000378Y016653D01*
X000362Y016676D01*
X000349Y016700D01*
X000340Y016726D01*
X000334Y016753D01*
X000332Y016780D01*
X000135Y016780D02*
X000137Y016819D01*
X000143Y016857D01*
X000152Y016894D01*
X000165Y016931D01*
X000182Y016966D01*
X000201Y016999D01*
X000224Y017030D01*
X000250Y017059D01*
X000279Y017085D01*
X000310Y017108D01*
X000343Y017127D01*
X000378Y017144D01*
X000415Y017157D01*
X000452Y017166D01*
X000490Y017172D01*
X000529Y017174D01*
X000135Y016780D02*
X000135Y001819D01*
X000137Y001780D01*
X000143Y001742D01*
X000152Y001705D01*
X000165Y001668D01*
X000182Y001633D01*
X000201Y001600D01*
X000224Y001569D01*
X000250Y001540D01*
X000279Y001514D01*
X000310Y001491D01*
X000343Y001472D01*
X000378Y001455D01*
X000415Y001442D01*
X000452Y001433D01*
X000490Y001427D01*
X000529Y001425D01*
X000332Y001770D02*
X000334Y001797D01*
X000340Y001824D01*
X000349Y001850D01*
X000362Y001874D01*
X000378Y001897D01*
X000397Y001916D01*
X000419Y001933D01*
X000443Y001947D01*
X000468Y001957D01*
X000495Y001964D01*
X000522Y001967D01*
X000550Y001966D01*
X000577Y001961D01*
X000603Y001953D01*
X000627Y001941D01*
X000650Y001925D01*
X000671Y001907D01*
X000688Y001886D01*
X000703Y001862D01*
X000714Y001837D01*
X000722Y001811D01*
X000726Y001784D01*
X000726Y001756D01*
X000722Y001729D01*
X000714Y001703D01*
X000703Y001678D01*
X000688Y001654D01*
X000671Y001633D01*
X000650Y001615D01*
X000628Y001599D01*
X000603Y001587D01*
X000577Y001579D01*
X000550Y001574D01*
X000522Y001573D01*
X000495Y001576D01*
X000468Y001583D01*
X000443Y001593D01*
X000419Y001607D01*
X000397Y001624D01*
X000378Y001643D01*
X000362Y001666D01*
X000349Y001690D01*
X000340Y001716D01*
X000334Y001743D01*
X000332Y001770D01*
M02*
