G75*
G70*
%OFA0B0*%
%FSLAX24Y24*%
%IPPOS*%
%LPD*%
%AMOC8*
5,1,8,0,0,1.08239X$1,22.5*
%
%ADD10C,0.0000*%
%ADD11C,0.0060*%
%ADD12C,0.0040*%
%ADD13C,0.0071*%
%ADD14C,0.0050*%
%ADD15C,0.0300*%
%ADD16R,0.0300X0.0200*%
%ADD17R,0.0300X0.0400*%
%ADD18C,0.0080*%
D10*
X000529Y001425D02*
X007615Y001425D01*
X007418Y001819D02*
X007420Y001846D01*
X007426Y001873D01*
X007435Y001899D01*
X007448Y001923D01*
X007464Y001946D01*
X007483Y001965D01*
X007505Y001982D01*
X007529Y001996D01*
X007554Y002006D01*
X007581Y002013D01*
X007608Y002016D01*
X007636Y002015D01*
X007663Y002010D01*
X007689Y002002D01*
X007713Y001990D01*
X007736Y001974D01*
X007757Y001956D01*
X007774Y001935D01*
X007789Y001911D01*
X007800Y001886D01*
X007808Y001860D01*
X007812Y001833D01*
X007812Y001805D01*
X007808Y001778D01*
X007800Y001752D01*
X007789Y001727D01*
X007774Y001703D01*
X007757Y001682D01*
X007736Y001664D01*
X007714Y001648D01*
X007689Y001636D01*
X007663Y001628D01*
X007636Y001623D01*
X007608Y001622D01*
X007581Y001625D01*
X007554Y001632D01*
X007529Y001642D01*
X007505Y001656D01*
X007483Y001673D01*
X007464Y001692D01*
X007448Y001715D01*
X007435Y001739D01*
X007426Y001765D01*
X007420Y001792D01*
X007418Y001819D01*
X007615Y001425D02*
X007654Y001427D01*
X007692Y001433D01*
X007729Y001442D01*
X007766Y001455D01*
X007801Y001472D01*
X007834Y001491D01*
X007865Y001514D01*
X007894Y001540D01*
X007920Y001569D01*
X007943Y001600D01*
X007962Y001633D01*
X007979Y001668D01*
X007992Y001705D01*
X008001Y001742D01*
X008007Y001780D01*
X008009Y001819D01*
X008009Y016780D01*
X007418Y016780D02*
X007420Y016807D01*
X007426Y016834D01*
X007435Y016860D01*
X007448Y016884D01*
X007464Y016907D01*
X007483Y016926D01*
X007505Y016943D01*
X007529Y016957D01*
X007554Y016967D01*
X007581Y016974D01*
X007608Y016977D01*
X007636Y016976D01*
X007663Y016971D01*
X007689Y016963D01*
X007713Y016951D01*
X007736Y016935D01*
X007757Y016917D01*
X007774Y016896D01*
X007789Y016872D01*
X007800Y016847D01*
X007808Y016821D01*
X007812Y016794D01*
X007812Y016766D01*
X007808Y016739D01*
X007800Y016713D01*
X007789Y016688D01*
X007774Y016664D01*
X007757Y016643D01*
X007736Y016625D01*
X007714Y016609D01*
X007689Y016597D01*
X007663Y016589D01*
X007636Y016584D01*
X007608Y016583D01*
X007581Y016586D01*
X007554Y016593D01*
X007529Y016603D01*
X007505Y016617D01*
X007483Y016634D01*
X007464Y016653D01*
X007448Y016676D01*
X007435Y016700D01*
X007426Y016726D01*
X007420Y016753D01*
X007418Y016780D01*
X007615Y017174D02*
X007654Y017172D01*
X007692Y017166D01*
X007729Y017157D01*
X007766Y017144D01*
X007801Y017127D01*
X007834Y017108D01*
X007865Y017085D01*
X007894Y017059D01*
X007920Y017030D01*
X007943Y016999D01*
X007962Y016966D01*
X007979Y016931D01*
X007992Y016894D01*
X008001Y016857D01*
X008007Y016819D01*
X008009Y016780D01*
X007615Y017173D02*
X000529Y017173D01*
X000332Y016780D02*
X000334Y016807D01*
X000340Y016834D01*
X000349Y016860D01*
X000362Y016884D01*
X000378Y016907D01*
X000397Y016926D01*
X000419Y016943D01*
X000443Y016957D01*
X000468Y016967D01*
X000495Y016974D01*
X000522Y016977D01*
X000550Y016976D01*
X000577Y016971D01*
X000603Y016963D01*
X000627Y016951D01*
X000650Y016935D01*
X000671Y016917D01*
X000688Y016896D01*
X000703Y016872D01*
X000714Y016847D01*
X000722Y016821D01*
X000726Y016794D01*
X000726Y016766D01*
X000722Y016739D01*
X000714Y016713D01*
X000703Y016688D01*
X000688Y016664D01*
X000671Y016643D01*
X000650Y016625D01*
X000628Y016609D01*
X000603Y016597D01*
X000577Y016589D01*
X000550Y016584D01*
X000522Y016583D01*
X000495Y016586D01*
X000468Y016593D01*
X000443Y016603D01*
X000419Y016617D01*
X000397Y016634D01*
X000378Y016653D01*
X000362Y016676D01*
X000349Y016700D01*
X000340Y016726D01*
X000334Y016753D01*
X000332Y016780D01*
X000135Y016780D02*
X000137Y016819D01*
X000143Y016857D01*
X000152Y016894D01*
X000165Y016931D01*
X000182Y016966D01*
X000201Y016999D01*
X000224Y017030D01*
X000250Y017059D01*
X000279Y017085D01*
X000310Y017108D01*
X000343Y017127D01*
X000378Y017144D01*
X000415Y017157D01*
X000452Y017166D01*
X000490Y017172D01*
X000529Y017174D01*
X000135Y016780D02*
X000135Y001819D01*
X000137Y001780D01*
X000143Y001742D01*
X000152Y001705D01*
X000165Y001668D01*
X000182Y001633D01*
X000201Y001600D01*
X000224Y001569D01*
X000250Y001540D01*
X000279Y001514D01*
X000310Y001491D01*
X000343Y001472D01*
X000378Y001455D01*
X000415Y001442D01*
X000452Y001433D01*
X000490Y001427D01*
X000529Y001425D01*
X000332Y001770D02*
X000334Y001797D01*
X000340Y001824D01*
X000349Y001850D01*
X000362Y001874D01*
X000378Y001897D01*
X000397Y001916D01*
X000419Y001933D01*
X000443Y001947D01*
X000468Y001957D01*
X000495Y001964D01*
X000522Y001967D01*
X000550Y001966D01*
X000577Y001961D01*
X000603Y001953D01*
X000627Y001941D01*
X000650Y001925D01*
X000671Y001907D01*
X000688Y001886D01*
X000703Y001862D01*
X000714Y001837D01*
X000722Y001811D01*
X000726Y001784D01*
X000726Y001756D01*
X000722Y001729D01*
X000714Y001703D01*
X000703Y001678D01*
X000688Y001654D01*
X000671Y001633D01*
X000650Y001615D01*
X000628Y001599D01*
X000603Y001587D01*
X000577Y001579D01*
X000550Y001574D01*
X000522Y001573D01*
X000495Y001576D01*
X000468Y001583D01*
X000443Y001593D01*
X000419Y001607D01*
X000397Y001624D01*
X000378Y001643D01*
X000362Y001666D01*
X000349Y001690D01*
X000340Y001716D01*
X000334Y001743D01*
X000332Y001770D01*
D11*
X000359Y002304D02*
X000699Y002304D01*
X000699Y002191D02*
X000699Y002418D01*
X000585Y002559D02*
X000359Y002559D01*
X000472Y002559D02*
X000585Y002672D01*
X000585Y002729D01*
X000529Y002866D02*
X000585Y002923D01*
X000585Y003036D01*
X000529Y003093D01*
X000472Y003093D01*
X000472Y002866D01*
X000415Y002866D02*
X000529Y002866D01*
X000415Y002866D02*
X000359Y002923D01*
X000359Y003036D01*
X000415Y003234D02*
X000359Y003291D01*
X000359Y003404D01*
X000472Y003461D02*
X000472Y003234D01*
X000415Y003234D02*
X000529Y003234D01*
X000585Y003291D01*
X000585Y003404D01*
X000529Y003461D01*
X000472Y003461D01*
X000529Y003603D02*
X000585Y003659D01*
X000585Y003773D01*
X000529Y003829D01*
X000359Y003829D01*
X000415Y003971D02*
X000359Y004028D01*
X000359Y004141D01*
X000415Y004198D01*
X000529Y004198D01*
X000585Y004141D01*
X000585Y004028D01*
X000529Y003971D01*
X000415Y003971D01*
X000359Y003603D02*
X000699Y003603D01*
X000585Y004339D02*
X000359Y004453D01*
X000585Y004566D01*
X000529Y004707D02*
X000585Y004764D01*
X000585Y004934D01*
X000529Y005076D02*
X000585Y005133D01*
X000585Y005246D01*
X000529Y005303D01*
X000472Y005303D01*
X000472Y005076D01*
X000415Y005076D02*
X000529Y005076D01*
X000415Y005076D02*
X000359Y005133D01*
X000359Y005246D01*
X000415Y004934D02*
X000359Y004878D01*
X000359Y004707D01*
X000472Y004764D02*
X000472Y004878D01*
X000415Y004934D01*
X000472Y004764D02*
X000529Y004707D01*
X002097Y005600D02*
X002097Y006700D01*
X002099Y006717D01*
X002103Y006734D01*
X002110Y006750D01*
X002120Y006764D01*
X002133Y006777D01*
X002147Y006787D01*
X002163Y006794D01*
X002180Y006798D01*
X002197Y006800D01*
X002797Y006800D01*
X002814Y006798D01*
X002831Y006794D01*
X002847Y006787D01*
X002861Y006777D01*
X002874Y006764D01*
X002884Y006750D01*
X002891Y006734D01*
X002895Y006717D01*
X002897Y006700D01*
X002897Y005600D01*
X002895Y005583D01*
X002891Y005566D01*
X002884Y005550D01*
X002874Y005536D01*
X002861Y005523D01*
X002847Y005513D01*
X002831Y005506D01*
X002814Y005502D01*
X002797Y005500D01*
X002197Y005500D01*
X002180Y005502D01*
X002163Y005506D01*
X002147Y005513D01*
X002133Y005523D01*
X002120Y005536D01*
X002110Y005550D01*
X002103Y005566D01*
X002099Y005583D01*
X002097Y005600D01*
X002072Y003750D02*
X002072Y002750D01*
X003072Y002750D01*
X004072Y002750D01*
X005072Y002750D01*
X006072Y002750D01*
X006072Y003750D01*
X005072Y003750D01*
X005072Y002750D01*
X005476Y003246D02*
X005702Y003246D01*
X005072Y003750D02*
X004072Y003750D01*
X004072Y002750D01*
X003838Y003125D02*
X003838Y003352D01*
X003838Y003239D02*
X003725Y003352D01*
X003668Y003352D01*
X003531Y003352D02*
X003304Y003125D01*
X003531Y003125D02*
X003304Y003352D01*
X003072Y003750D02*
X003072Y002750D01*
X002651Y003246D02*
X002424Y003246D01*
X002538Y003133D02*
X002538Y003360D01*
X002072Y003750D02*
X003072Y003750D01*
X004072Y003750D01*
X004072Y005233D02*
X004001Y005304D01*
X004072Y005233D02*
X004143Y005304D01*
X004425Y005587D02*
X004496Y005657D01*
X004425Y005728D01*
X004143Y006011D02*
X004072Y006082D01*
X004001Y006011D01*
X003718Y005728D02*
X003648Y005657D01*
X003718Y005587D01*
X003398Y005745D02*
X003171Y005745D01*
X003115Y005802D01*
X003115Y005934D02*
X003341Y006161D01*
X003398Y006302D02*
X003455Y006359D01*
X003455Y006473D01*
X003398Y006529D01*
X003341Y006529D01*
X003228Y006416D01*
X003171Y006416D02*
X003115Y006416D01*
X003115Y006161D02*
X003341Y005934D01*
X003341Y005802D02*
X003341Y005689D01*
X004072Y007348D02*
X005925Y009200D01*
X005925Y009398D01*
X004072Y011251D01*
X002120Y009299D01*
X004072Y007348D01*
X004072Y007856D02*
X004072Y008083D01*
X004129Y008083D02*
X003902Y008083D01*
X003902Y007856D02*
X004129Y007856D01*
X004242Y007969D01*
X004129Y008083D01*
X004242Y008224D02*
X004242Y008451D01*
X004242Y008338D02*
X003902Y008338D01*
X003902Y008593D02*
X004242Y008593D01*
X004129Y008706D01*
X004242Y008819D01*
X003902Y008819D01*
X003902Y008961D02*
X003902Y009188D01*
X003959Y009329D02*
X003902Y009386D01*
X003902Y009499D01*
X003959Y009556D01*
X004072Y009556D01*
X004072Y009443D01*
X004186Y009556D02*
X004242Y009499D01*
X004242Y009386D01*
X004186Y009329D01*
X003959Y009329D01*
X003902Y009698D02*
X004129Y009698D01*
X004242Y009811D01*
X004129Y009924D01*
X003902Y009924D01*
X003959Y010066D02*
X004186Y010293D01*
X004186Y010179D02*
X003959Y010179D01*
X003959Y010293D02*
X004186Y010066D01*
X004072Y010066D02*
X004072Y010293D01*
X004015Y010434D02*
X004072Y010491D01*
X004072Y010604D01*
X004015Y010661D01*
X003959Y010661D01*
X003902Y010604D01*
X003902Y010491D01*
X003959Y010434D01*
X004015Y010434D01*
X004072Y010491D02*
X004129Y010434D01*
X004186Y010434D01*
X004242Y010491D01*
X004242Y010604D01*
X004186Y010661D01*
X004129Y010661D01*
X004072Y010604D01*
X004072Y009924D02*
X004072Y009698D01*
X004242Y009188D02*
X004242Y008961D01*
X003902Y008961D01*
X004072Y008961D02*
X004072Y009074D01*
X005096Y007106D02*
X005026Y007035D01*
X005096Y006965D01*
X005379Y006682D02*
X005450Y006611D01*
X005521Y006682D01*
X005803Y006965D02*
X005874Y007035D01*
X005803Y007106D01*
X006068Y007371D02*
X006139Y007300D01*
X006210Y007371D01*
X006492Y007654D02*
X006563Y007724D01*
X006492Y007795D01*
X006210Y008078D02*
X006139Y008149D01*
X006068Y008078D01*
X005785Y007795D02*
X005715Y007724D01*
X005785Y007654D01*
X005521Y007389D02*
X005450Y007460D01*
X005379Y007389D01*
X005114Y006417D02*
X005185Y006346D01*
X005114Y006276D01*
X004832Y005993D02*
X004761Y005922D01*
X004690Y005993D01*
X004690Y006700D02*
X004761Y006771D01*
X004832Y006700D01*
X004407Y006417D02*
X004337Y006346D01*
X004407Y006276D01*
X005458Y009299D02*
X005460Y009322D01*
X005466Y009345D01*
X005475Y009366D01*
X005488Y009386D01*
X005504Y009403D01*
X005522Y009417D01*
X005542Y009428D01*
X005564Y009436D01*
X005587Y009440D01*
X005611Y009440D01*
X005634Y009436D01*
X005656Y009428D01*
X005676Y009417D01*
X005694Y009403D01*
X005710Y009386D01*
X005723Y009366D01*
X005732Y009345D01*
X005738Y009322D01*
X005740Y009299D01*
X005738Y009276D01*
X005732Y009253D01*
X005723Y009232D01*
X005710Y009212D01*
X005694Y009195D01*
X005676Y009181D01*
X005656Y009170D01*
X005634Y009162D01*
X005611Y009158D01*
X005587Y009158D01*
X005564Y009162D01*
X005542Y009170D01*
X005522Y009181D01*
X005504Y009195D01*
X005488Y009212D01*
X005475Y009232D01*
X005466Y009253D01*
X005460Y009276D01*
X005458Y009299D01*
X004916Y011957D02*
X004689Y011957D01*
X004803Y011957D02*
X004916Y012070D01*
X004916Y012127D01*
X004916Y012264D02*
X004689Y012491D01*
X004689Y012264D02*
X004916Y012491D01*
X004973Y012632D02*
X005030Y012689D01*
X005030Y012802D01*
X004973Y012859D01*
X004916Y012859D01*
X004803Y012746D01*
X004746Y012746D02*
X004689Y012746D01*
X005247Y012391D02*
X005247Y013491D01*
X005249Y013508D01*
X005253Y013525D01*
X005260Y013541D01*
X005270Y013555D01*
X005283Y013568D01*
X005297Y013578D01*
X005313Y013585D01*
X005330Y013589D01*
X005347Y013591D01*
X005947Y013591D01*
X005964Y013589D01*
X005981Y013585D01*
X005997Y013578D01*
X006011Y013568D01*
X006024Y013555D01*
X006034Y013541D01*
X006041Y013525D01*
X006045Y013508D01*
X006047Y013491D01*
X006047Y012391D01*
X006045Y012374D01*
X006041Y012357D01*
X006034Y012341D01*
X006024Y012327D01*
X006011Y012314D01*
X005997Y012304D01*
X005981Y012297D01*
X005964Y012293D01*
X005947Y012291D01*
X005347Y012291D01*
X005330Y012293D01*
X005313Y012297D01*
X005297Y012304D01*
X005283Y012314D01*
X005270Y012327D01*
X005260Y012341D01*
X005253Y012357D01*
X005249Y012374D01*
X005247Y012391D01*
X004728Y013952D02*
X004784Y014009D01*
X004784Y014236D01*
X004728Y014179D02*
X004841Y014179D01*
X004595Y014179D02*
X004369Y013952D01*
X004595Y013952D02*
X004369Y014179D01*
X004120Y014739D02*
X004177Y014796D01*
X004177Y014910D01*
X004120Y014966D01*
X004007Y014966D01*
X003950Y014910D01*
X003950Y014796D01*
X004007Y014739D01*
X004120Y014739D01*
X004264Y015397D02*
X004364Y015397D01*
X004264Y015397D02*
X004264Y015497D01*
X004264Y015897D02*
X004264Y015997D01*
X004364Y015997D01*
X004764Y015997D02*
X004864Y015997D01*
X004864Y015897D01*
X004864Y015497D02*
X004864Y015397D01*
X004764Y015397D01*
X005036Y014739D02*
X005149Y014739D01*
X005092Y014739D02*
X005092Y014966D01*
X005149Y014966D01*
X005092Y015080D02*
X005092Y015136D01*
X005248Y015397D02*
X005348Y015397D01*
X005248Y015397D02*
X005248Y015497D01*
X005248Y015897D02*
X005248Y015997D01*
X005348Y015997D01*
X005748Y015997D02*
X005848Y015997D01*
X005848Y015897D01*
X005848Y015497D02*
X005848Y015397D01*
X005748Y015397D01*
X006043Y014966D02*
X006213Y014853D01*
X006043Y014739D01*
X006213Y014739D02*
X006213Y015080D01*
X006386Y016068D02*
X006613Y016295D01*
X006613Y016068D02*
X006386Y016295D01*
X006361Y016780D02*
X006588Y016780D01*
X006802Y016352D02*
X006802Y016125D01*
X006745Y016068D01*
X006745Y016295D02*
X006859Y016295D01*
X007544Y016289D02*
X007714Y016289D01*
X007771Y016346D01*
X007714Y016403D01*
X007544Y016403D01*
X007544Y016176D02*
X007771Y016176D01*
X007771Y016232D01*
X007714Y016289D01*
X007714Y016034D02*
X007600Y016034D01*
X007544Y015978D01*
X007544Y015864D01*
X007600Y015807D01*
X007714Y015807D01*
X007771Y015864D01*
X007771Y015978D01*
X007714Y016034D01*
X007771Y015666D02*
X007771Y015496D01*
X007714Y015439D01*
X007600Y015439D01*
X007544Y015496D01*
X007544Y015666D01*
X007544Y015312D02*
X007544Y015255D01*
X007600Y015255D01*
X007600Y015312D01*
X007544Y015312D01*
X007544Y015123D02*
X007544Y015009D01*
X007544Y015066D02*
X007884Y015066D01*
X007884Y015009D01*
X007884Y014821D02*
X007941Y014821D01*
X007771Y014821D02*
X007544Y014821D01*
X007544Y014877D02*
X007544Y014764D01*
X007544Y014622D02*
X007544Y014452D01*
X007600Y014396D01*
X007657Y014452D01*
X007657Y014622D01*
X007714Y014622D02*
X007544Y014622D01*
X007714Y014622D02*
X007771Y014566D01*
X007771Y014452D01*
X007714Y014254D02*
X007544Y014254D01*
X007544Y014141D02*
X007714Y014141D01*
X007771Y014197D01*
X007714Y014254D01*
X007714Y014141D02*
X007771Y014084D01*
X007771Y014027D01*
X007544Y014027D01*
X007544Y013886D02*
X007544Y013716D01*
X007600Y013659D01*
X007714Y013659D01*
X007771Y013716D01*
X007771Y013886D01*
X007487Y013886D01*
X007430Y013829D01*
X007430Y013772D01*
X007600Y013517D02*
X007544Y013461D01*
X007544Y013347D01*
X007600Y013291D01*
X007827Y013291D01*
X007884Y013347D01*
X007884Y013461D01*
X007827Y013517D01*
X007714Y013517D01*
X007657Y013461D01*
X007771Y013461D01*
X007771Y013347D01*
X007657Y013347D01*
X007657Y013461D01*
X007771Y013154D02*
X007771Y013097D01*
X007657Y012984D01*
X007544Y012984D02*
X007771Y012984D01*
X007714Y012842D02*
X007657Y012842D01*
X007657Y012615D01*
X007600Y012615D02*
X007714Y012615D01*
X007771Y012672D01*
X007771Y012785D01*
X007714Y012842D01*
X007544Y012672D02*
X007600Y012615D01*
X007544Y012672D02*
X007544Y012785D01*
X007544Y012474D02*
X007544Y012304D01*
X007600Y012247D01*
X007714Y012247D01*
X007771Y012304D01*
X007771Y012474D01*
X007487Y012474D01*
X007430Y012417D01*
X007430Y012360D01*
X007544Y012106D02*
X007714Y012106D01*
X007771Y012049D01*
X007771Y011879D01*
X007544Y011879D01*
X007544Y011737D02*
X007544Y011567D01*
X007600Y011510D01*
X007657Y011567D01*
X007657Y011737D01*
X007714Y011737D02*
X007544Y011737D01*
X007714Y011737D02*
X007771Y011681D01*
X007771Y011567D01*
X007771Y011369D02*
X007771Y011199D01*
X007714Y011142D01*
X007600Y011142D01*
X007544Y011199D01*
X007544Y011369D01*
X007884Y011369D01*
X007771Y011001D02*
X007600Y011001D01*
X007544Y010944D01*
X007600Y010887D01*
X007544Y010830D01*
X007600Y010774D01*
X007771Y010774D01*
X007714Y010632D02*
X007771Y010576D01*
X007771Y010462D01*
X007714Y010405D01*
X007600Y010405D01*
X007544Y010462D01*
X007544Y010576D01*
X007600Y010632D01*
X007714Y010632D01*
X007544Y010273D02*
X007544Y010160D01*
X007544Y010217D02*
X007884Y010217D01*
X007884Y010160D01*
X007771Y010018D02*
X007771Y009848D01*
X007714Y009792D01*
X007657Y009848D01*
X007657Y009962D01*
X007600Y010018D01*
X007544Y009962D01*
X007544Y009792D01*
X007657Y008793D02*
X007657Y008566D01*
X007600Y008566D02*
X007714Y008566D01*
X007771Y008623D01*
X007771Y008736D01*
X007714Y008793D01*
X007657Y008793D01*
X007544Y008736D02*
X007544Y008623D01*
X007600Y008566D01*
X007544Y008434D02*
X007544Y008321D01*
X007544Y008377D02*
X007884Y008377D01*
X007884Y008321D01*
X007771Y008179D02*
X007544Y008179D01*
X007544Y008009D01*
X007600Y007952D01*
X007771Y007952D01*
X007827Y007811D02*
X007714Y007811D01*
X007657Y007754D01*
X007657Y007584D01*
X007657Y007698D02*
X007544Y007811D01*
X007544Y007584D02*
X007884Y007584D01*
X007884Y007754D01*
X007827Y007811D01*
X007771Y007084D02*
X007771Y006970D01*
X007827Y007027D02*
X007600Y007027D01*
X007544Y007084D01*
X007544Y006838D02*
X007600Y006781D01*
X007827Y006781D01*
X007771Y006725D02*
X007771Y006838D01*
X007714Y006583D02*
X007657Y006583D01*
X007657Y006356D01*
X007600Y006356D02*
X007714Y006356D01*
X007771Y006413D01*
X007771Y006527D01*
X007714Y006583D01*
X007544Y006413D02*
X007600Y006356D01*
X007544Y006413D02*
X007544Y006527D01*
X007771Y006163D02*
X007657Y006049D01*
X007544Y006049D02*
X007771Y006049D01*
X007771Y006163D02*
X007771Y006220D01*
X007714Y005908D02*
X007657Y005908D01*
X007657Y005681D01*
X007600Y005681D02*
X007714Y005681D01*
X007771Y005738D01*
X007771Y005851D01*
X007714Y005908D01*
X007544Y005738D02*
X007600Y005681D01*
X007544Y005738D02*
X007544Y005851D01*
X007771Y005540D02*
X007544Y005426D01*
X007771Y005313D01*
X007714Y005058D02*
X007714Y004945D01*
X007884Y004945D02*
X007544Y004945D01*
X007544Y005171D01*
X007544Y004444D02*
X007544Y004331D01*
X007544Y004387D02*
X007884Y004387D01*
X007884Y004331D01*
X007714Y004189D02*
X007771Y004132D01*
X007771Y004019D01*
X007714Y003962D01*
X007600Y003962D01*
X007544Y004019D01*
X007544Y004132D01*
X007657Y004189D02*
X007657Y003962D01*
X007657Y003821D02*
X007657Y003651D01*
X007600Y003594D01*
X007544Y003651D01*
X007544Y003821D01*
X007714Y003821D01*
X007771Y003764D01*
X007771Y003651D01*
X007714Y003453D02*
X007544Y003453D01*
X007544Y003226D02*
X007884Y003226D01*
X007771Y003282D02*
X007771Y003396D01*
X007714Y003453D01*
X007771Y003282D02*
X007714Y003226D01*
X007771Y003084D02*
X007771Y002914D01*
X007714Y002857D01*
X007600Y002857D01*
X007544Y002914D01*
X007544Y003084D01*
X007544Y002725D02*
X007544Y002612D01*
X007544Y002669D02*
X007771Y002669D01*
X007771Y002612D01*
X007884Y002669D02*
X007941Y002669D01*
X007884Y002470D02*
X007544Y002470D01*
X007544Y002244D02*
X007884Y002244D01*
X007771Y002357D01*
X007884Y002470D01*
X007714Y004189D02*
X007657Y004189D01*
X007884Y004945D02*
X007884Y005171D01*
X006601Y005090D02*
X006261Y005090D01*
X006261Y005203D02*
X006261Y004976D01*
X006261Y004849D02*
X006261Y004792D01*
X006318Y004792D01*
X006318Y004849D01*
X006261Y004849D01*
X006488Y004976D02*
X006601Y005090D01*
X006488Y005345D02*
X006318Y005345D01*
X006261Y005401D01*
X006261Y005571D01*
X006488Y005571D01*
X006431Y005713D02*
X006431Y005826D01*
X006261Y005713D02*
X006601Y005713D01*
X006601Y005940D01*
X003678Y012025D02*
X003749Y012095D01*
X003678Y012025D02*
X003608Y012095D01*
X003343Y011831D02*
X003414Y011760D01*
X003343Y011689D01*
X003060Y011406D02*
X002989Y011336D01*
X002919Y011406D01*
X002636Y011689D02*
X002565Y011760D01*
X002636Y011831D01*
X002919Y012113D02*
X002989Y012184D01*
X003060Y012113D01*
X003325Y012378D02*
X003254Y012449D01*
X003325Y012520D01*
X003608Y012802D02*
X003678Y012873D01*
X003749Y012802D01*
X004032Y012520D02*
X004102Y012449D01*
X004032Y012378D01*
X003113Y014739D02*
X003113Y014966D01*
X003113Y014853D02*
X002999Y014966D01*
X002943Y014966D01*
X002896Y015397D02*
X002796Y015397D01*
X002896Y015397D02*
X002896Y015497D01*
X002896Y015897D02*
X002896Y015997D01*
X002796Y015997D01*
X002396Y015997D02*
X002296Y015997D01*
X002296Y015897D01*
X002296Y015497D02*
X002296Y015397D01*
X002396Y015397D01*
X002538Y014186D02*
X002538Y013960D01*
X002651Y014073D02*
X002424Y014073D01*
X002478Y013446D02*
X002719Y013205D01*
X002799Y013285D02*
X002639Y013125D01*
X002499Y013065D02*
X002499Y012985D01*
X002418Y012905D01*
X002338Y012905D01*
X002178Y013065D01*
X002499Y013065D01*
X002338Y013226D01*
X002258Y013226D01*
X002178Y013145D01*
X002178Y013065D01*
X002038Y013005D02*
X002278Y012765D01*
X002198Y012845D02*
X002158Y012644D01*
X002198Y012845D02*
X001998Y012805D01*
X002478Y013446D02*
X002639Y013446D01*
X003280Y015397D02*
X003380Y015397D01*
X003280Y015397D02*
X003280Y015497D01*
X003280Y015897D02*
X003280Y015997D01*
X003380Y015997D01*
X003780Y015997D02*
X003880Y015997D01*
X003880Y015897D01*
X003880Y015497D02*
X003880Y015397D01*
X003780Y015397D01*
X005476Y014073D02*
X005702Y014073D01*
X007771Y014764D02*
X007771Y014821D01*
X001864Y016730D02*
X001637Y016730D01*
X001750Y016617D02*
X001750Y016844D01*
X000699Y015749D02*
X000359Y015749D01*
X000359Y015919D01*
X000415Y015976D01*
X000529Y015976D01*
X000585Y015919D01*
X000585Y015749D01*
X000529Y015608D02*
X000359Y015608D01*
X000359Y015438D01*
X000415Y015381D01*
X000472Y015438D01*
X000472Y015608D01*
X000529Y015608D02*
X000585Y015551D01*
X000585Y015438D01*
X000699Y015012D02*
X000359Y015012D01*
X000359Y015239D01*
X000415Y014503D02*
X000359Y014446D01*
X000359Y014333D01*
X000415Y014276D01*
X000642Y014503D01*
X000415Y014503D01*
X000415Y014276D02*
X000642Y014276D01*
X000699Y014333D01*
X000699Y014446D01*
X000642Y014503D01*
X000642Y014134D02*
X000699Y014078D01*
X000699Y013964D01*
X000642Y013908D01*
X000642Y013766D02*
X000699Y013709D01*
X000699Y013596D01*
X000642Y013539D01*
X000642Y013398D02*
X000699Y013341D01*
X000699Y013228D01*
X000642Y013171D01*
X000585Y013171D01*
X000529Y013228D01*
X000529Y013341D01*
X000472Y013398D01*
X000415Y013398D01*
X000359Y013341D01*
X000359Y013228D01*
X000415Y013171D01*
X000359Y013029D02*
X000585Y013029D01*
X000699Y012916D01*
X000585Y012803D01*
X000359Y012803D01*
X000529Y012803D02*
X000529Y013029D01*
X000359Y013539D02*
X000585Y013766D01*
X000642Y013766D01*
X000359Y013908D02*
X000585Y014134D01*
X000642Y014134D01*
X000359Y014134D02*
X000359Y013908D01*
X000359Y013766D02*
X000359Y013539D01*
X000359Y016117D02*
X000359Y016288D01*
X000415Y016344D01*
X000472Y016288D01*
X000472Y016174D01*
X000529Y016117D01*
X000585Y016174D01*
X000585Y016344D01*
D12*
X001174Y016173D02*
X001241Y016240D01*
X001174Y016173D02*
X001174Y016106D01*
X001241Y016040D01*
X001329Y016040D02*
X001462Y016173D01*
X001546Y016173D02*
X001580Y016173D01*
X001646Y016106D01*
X001646Y016040D02*
X001646Y016173D01*
X001727Y016240D02*
X001794Y016173D01*
X001794Y016106D01*
X001727Y016040D01*
X001462Y016040D02*
X001329Y016173D01*
X003241Y014155D02*
X003308Y014222D01*
X003241Y014155D02*
X003241Y014089D01*
X003308Y014022D01*
X003396Y014022D02*
X003529Y014155D01*
X003529Y014022D02*
X003396Y014155D01*
X003613Y014155D02*
X003646Y014155D01*
X003713Y014089D01*
X003713Y014155D02*
X003713Y014022D01*
X003794Y014022D02*
X003860Y014089D01*
X003860Y014155D01*
X003794Y014222D01*
X004360Y003346D02*
X004293Y003280D01*
X004293Y003213D01*
X004360Y003146D01*
X004447Y003146D02*
X004581Y003280D01*
X004661Y003280D02*
X004728Y003280D01*
X004695Y003313D02*
X004695Y003179D01*
X004661Y003146D01*
X004581Y003146D02*
X004447Y003280D01*
X004809Y003346D02*
X004876Y003280D01*
X004876Y003213D01*
X004809Y003146D01*
D13*
X004958Y014909D02*
X004761Y015106D01*
X004761Y015402D01*
X005155Y016189D02*
X004958Y016386D01*
X005155Y016189D02*
X006286Y016189D01*
X006237Y016386D02*
X006434Y016583D01*
X006237Y016386D02*
X005942Y016386D01*
X005745Y015402D02*
X005745Y015106D01*
X005942Y014909D01*
X003875Y015008D02*
X003777Y015106D01*
X003777Y015402D01*
X002940Y016140D02*
X003186Y016386D01*
X002940Y016140D02*
X001857Y016140D01*
X001907Y016386D02*
X001808Y016484D01*
X001907Y016386D02*
X002202Y016386D01*
X002792Y015402D02*
X002792Y015106D01*
X002842Y015057D01*
D14*
X003633Y013486D02*
X003140Y012994D01*
X002966Y013098D01*
X003175Y012750D01*
X002827Y012959D01*
X003036Y012611D01*
X002688Y012820D01*
X002897Y012472D01*
X002549Y012680D01*
X002758Y012332D01*
X002410Y012541D01*
X002618Y012193D01*
X002444Y012298D01*
X001952Y011805D01*
X002513Y012090D02*
X002237Y012366D01*
X002236Y012366D02*
X002225Y012380D01*
X002216Y012395D01*
X002210Y012411D01*
X002207Y012428D01*
X002207Y012446D01*
X002210Y012463D01*
X002216Y012479D01*
X002225Y012494D01*
X002236Y012508D01*
X002237Y012508D02*
X002930Y013201D01*
X002930Y013202D02*
X002944Y013213D01*
X002959Y013222D01*
X002975Y013228D01*
X002992Y013231D01*
X003010Y013231D01*
X003027Y013228D01*
X003043Y013222D01*
X003058Y013213D01*
X003072Y013202D01*
X003072Y013201D02*
X003348Y012925D01*
X003359Y012911D01*
X003368Y012896D01*
X003374Y012880D01*
X003377Y012863D01*
X003377Y012845D01*
X003374Y012828D01*
X003368Y012812D01*
X003359Y012797D01*
X003348Y012783D01*
X003348Y012784D02*
X002654Y012090D01*
X002655Y012090D02*
X002641Y012079D01*
X002626Y012070D01*
X002610Y012064D01*
X002593Y012061D01*
X002575Y012061D01*
X002558Y012064D01*
X002542Y012070D01*
X002527Y012079D01*
X002513Y012090D01*
X002546Y011656D02*
X002578Y011560D01*
X002578Y011433D01*
X002482Y011529D01*
X002419Y011529D01*
X002387Y011497D01*
X002387Y011433D01*
X002451Y011369D01*
X002514Y011369D01*
X002578Y011433D01*
X002659Y011352D02*
X002563Y011257D01*
X002659Y011161D01*
X002723Y011161D01*
X002723Y011225D01*
X002627Y011320D01*
X002659Y011352D02*
X002723Y011352D01*
X002786Y011288D01*
X003910Y012765D02*
X003941Y012797D01*
X003941Y013051D01*
X003973Y013083D01*
X004101Y012956D01*
X004086Y012779D02*
X003991Y012684D01*
X004086Y012588D01*
X004150Y012588D01*
X004150Y012652D01*
X004054Y012747D01*
X004086Y012779D02*
X004150Y012779D01*
X004213Y012716D01*
X006243Y008168D02*
X006370Y008040D01*
X006370Y008295D01*
X006402Y008327D01*
X006466Y008327D01*
X006529Y008263D01*
X006529Y008200D01*
X006579Y008087D02*
X006674Y007991D01*
X006674Y007928D01*
X006610Y007864D01*
X006547Y007864D01*
X006451Y007959D01*
X006642Y008150D01*
X005953Y007412D02*
X005762Y007221D01*
X005858Y007126D01*
X005921Y007126D01*
X005985Y007189D01*
X005985Y007253D01*
X005890Y007349D01*
X005840Y007461D02*
X005840Y007525D01*
X005777Y007589D01*
X005713Y007589D01*
X005681Y007557D01*
X005681Y007493D01*
X005618Y007493D01*
X005586Y007461D01*
X005586Y007398D01*
X005649Y007334D01*
X005713Y007334D01*
X005713Y007461D02*
X005681Y007493D01*
X005342Y006645D02*
X005151Y006454D01*
X005056Y006550D01*
X005056Y006613D01*
X005120Y006677D01*
X005183Y006677D01*
X005279Y006581D01*
X005039Y006758D02*
X004943Y006853D01*
X004879Y006853D01*
X004848Y006822D01*
X004848Y006758D01*
X004911Y006694D01*
X004975Y006694D01*
X005039Y006758D01*
X005039Y006885D01*
X005007Y006981D01*
X004318Y006292D02*
X004445Y006164D01*
X004431Y005988D02*
X004494Y005988D01*
X004590Y005892D01*
X004654Y005956D02*
X004462Y005765D01*
X004367Y005861D01*
X004367Y005924D01*
X004431Y005988D01*
X004286Y006005D02*
X004286Y006260D01*
X004318Y006292D01*
X004286Y006005D02*
X004254Y005973D01*
X002920Y017582D02*
X002513Y017582D01*
X002717Y017582D02*
X002717Y018192D01*
X002920Y017989D01*
D15*
X002572Y002500D02*
X002572Y000250D01*
X003572Y000250D02*
X003572Y002500D01*
X004572Y002500D02*
X004572Y000250D01*
X005572Y000250D02*
X005572Y002500D01*
D16*
X005572Y002650D03*
X004572Y002650D03*
X003572Y002650D03*
X002572Y002650D03*
D17*
X002572Y003950D03*
X003572Y003950D03*
X004572Y003950D03*
X005572Y003950D03*
D18*
X006061Y006013D02*
X005707Y006367D01*
X006123Y015246D02*
X002021Y015246D01*
X002021Y018510D01*
X006123Y018510D01*
X006123Y015246D01*
M02*
