G75*
G70*
%OFA0B0*%
%FSLAX24Y24*%
%IPPOS*%
%LPD*%
%AMOC8*
5,1,8,0,0,1.08239X$1,22.5*
%
%ADD10C,0.0000*%
%ADD11C,0.0050*%
%ADD12C,0.0040*%
%ADD13C,0.0080*%
%ADD14C,0.0100*%
%ADD15R,0.0300X0.0400*%
%ADD16R,0.0300X0.0300*%
D10*
X001269Y001047D02*
X016592Y001047D01*
X016652Y001049D01*
X016713Y001054D01*
X016772Y001063D01*
X016831Y001076D01*
X016890Y001092D01*
X016947Y001112D01*
X017002Y001135D01*
X017057Y001162D01*
X017109Y001191D01*
X017160Y001224D01*
X017209Y001260D01*
X017255Y001298D01*
X017299Y001340D01*
X017341Y001384D01*
X017379Y001430D01*
X017415Y001479D01*
X017448Y001530D01*
X017477Y001582D01*
X017504Y001637D01*
X017527Y001692D01*
X017547Y001749D01*
X017563Y001808D01*
X017576Y001867D01*
X017585Y001926D01*
X017590Y001987D01*
X017592Y002047D01*
X017592Y007921D01*
X017590Y007981D01*
X017585Y008042D01*
X017576Y008101D01*
X017563Y008160D01*
X017547Y008219D01*
X017527Y008276D01*
X017504Y008331D01*
X017477Y008386D01*
X017448Y008438D01*
X017415Y008489D01*
X017379Y008538D01*
X017341Y008584D01*
X017299Y008628D01*
X017255Y008670D01*
X017209Y008708D01*
X017160Y008744D01*
X017109Y008777D01*
X017057Y008806D01*
X017002Y008833D01*
X016947Y008856D01*
X016890Y008876D01*
X016831Y008892D01*
X016772Y008905D01*
X016713Y008914D01*
X016652Y008919D01*
X016592Y008921D01*
X012867Y008921D01*
X012867Y019732D01*
X012865Y019792D01*
X012860Y019853D01*
X012851Y019912D01*
X012838Y019971D01*
X012822Y020030D01*
X012802Y020087D01*
X012779Y020142D01*
X012752Y020197D01*
X012723Y020249D01*
X012690Y020300D01*
X012654Y020349D01*
X012616Y020395D01*
X012574Y020439D01*
X012530Y020481D01*
X012484Y020519D01*
X012435Y020555D01*
X012384Y020588D01*
X012332Y020617D01*
X012277Y020644D01*
X012222Y020667D01*
X012165Y020687D01*
X012106Y020703D01*
X012047Y020716D01*
X011988Y020725D01*
X011927Y020730D01*
X011867Y020732D01*
X001269Y020732D01*
X001209Y020730D01*
X001148Y020725D01*
X001089Y020716D01*
X001030Y020703D01*
X000971Y020687D01*
X000914Y020667D01*
X000859Y020644D01*
X000804Y020617D01*
X000752Y020588D01*
X000701Y020555D01*
X000652Y020519D01*
X000606Y020481D01*
X000562Y020439D01*
X000520Y020395D01*
X000482Y020349D01*
X000446Y020300D01*
X000413Y020249D01*
X000384Y020197D01*
X000357Y020142D01*
X000334Y020087D01*
X000314Y020030D01*
X000298Y019971D01*
X000285Y019912D01*
X000276Y019853D01*
X000271Y019792D01*
X000269Y019732D01*
X000269Y002047D01*
X000271Y001987D01*
X000276Y001926D01*
X000285Y001867D01*
X000298Y001808D01*
X000314Y001749D01*
X000334Y001692D01*
X000357Y001637D01*
X000384Y001582D01*
X000413Y001530D01*
X000446Y001479D01*
X000482Y001430D01*
X000520Y001384D01*
X000562Y001340D01*
X000606Y001298D01*
X000652Y001260D01*
X000701Y001224D01*
X000752Y001191D01*
X000804Y001162D01*
X000859Y001135D01*
X000914Y001112D01*
X000971Y001092D01*
X001030Y001076D01*
X001089Y001063D01*
X001148Y001054D01*
X001209Y001049D01*
X001269Y001047D01*
X007887Y018370D02*
X007889Y018396D01*
X007895Y018422D01*
X007905Y018447D01*
X007918Y018470D01*
X007934Y018490D01*
X007954Y018508D01*
X007976Y018523D01*
X007999Y018535D01*
X008025Y018543D01*
X008051Y018547D01*
X008077Y018547D01*
X008103Y018543D01*
X008129Y018535D01*
X008153Y018523D01*
X008174Y018508D01*
X008194Y018490D01*
X008210Y018470D01*
X008223Y018447D01*
X008233Y018422D01*
X008239Y018396D01*
X008241Y018370D01*
X008239Y018344D01*
X008233Y018318D01*
X008223Y018293D01*
X008210Y018270D01*
X008194Y018250D01*
X008174Y018232D01*
X008152Y018217D01*
X008129Y018205D01*
X008103Y018197D01*
X008077Y018193D01*
X008051Y018193D01*
X008025Y018197D01*
X007999Y018205D01*
X007975Y018217D01*
X007954Y018232D01*
X007934Y018250D01*
X007918Y018270D01*
X007905Y018293D01*
X007895Y018318D01*
X007889Y018344D01*
X007887Y018370D01*
X009619Y018370D02*
X009621Y018396D01*
X009627Y018422D01*
X009637Y018447D01*
X009650Y018470D01*
X009666Y018490D01*
X009686Y018508D01*
X009708Y018523D01*
X009731Y018535D01*
X009757Y018543D01*
X009783Y018547D01*
X009809Y018547D01*
X009835Y018543D01*
X009861Y018535D01*
X009885Y018523D01*
X009906Y018508D01*
X009926Y018490D01*
X009942Y018470D01*
X009955Y018447D01*
X009965Y018422D01*
X009971Y018396D01*
X009973Y018370D01*
X009971Y018344D01*
X009965Y018318D01*
X009955Y018293D01*
X009942Y018270D01*
X009926Y018250D01*
X009906Y018232D01*
X009884Y018217D01*
X009861Y018205D01*
X009835Y018197D01*
X009809Y018193D01*
X009783Y018193D01*
X009757Y018197D01*
X009731Y018205D01*
X009707Y018217D01*
X009686Y018232D01*
X009666Y018250D01*
X009650Y018270D01*
X009637Y018293D01*
X009627Y018318D01*
X009621Y018344D01*
X009619Y018370D01*
D11*
X010426Y017976D02*
X010426Y018960D01*
X010151Y017070D02*
X009757Y017070D01*
X008103Y017070D02*
X007710Y017070D01*
X007434Y018015D02*
X007434Y018960D01*
X006430Y013586D02*
X011430Y013586D01*
X011430Y008586D01*
X006430Y008586D01*
X006430Y013586D01*
X003631Y012695D02*
X003506Y012570D01*
X003506Y012695D01*
X003631Y012695D01*
X003631Y012570D02*
X003506Y012445D01*
X003631Y012445D01*
X003506Y012320D01*
X003631Y012320D01*
X003506Y012195D01*
X003131Y012570D01*
X002881Y012820D01*
X002381Y012820D01*
X002131Y012570D01*
X001756Y012195D01*
X002006Y012195D01*
X002131Y012070D01*
X002131Y011820D01*
X001881Y012070D01*
X001881Y012320D01*
X001881Y012570D01*
X001756Y012445D01*
X001631Y012445D01*
X001756Y012320D01*
X001631Y012320D01*
X001756Y012195D01*
X001631Y012195D01*
X001881Y011945D01*
X001881Y011820D01*
X002381Y011320D01*
X002381Y012070D01*
X002131Y012070D01*
X002881Y011320D01*
X002881Y011570D01*
X002881Y012070D01*
X003131Y012070D01*
X003131Y011820D01*
X003381Y012070D01*
X003381Y012320D01*
X003381Y012570D01*
X003256Y012695D01*
X003256Y012820D01*
X003256Y012945D01*
X003131Y012820D01*
X003006Y012945D01*
X003006Y013070D01*
X002881Y012945D01*
X002881Y013070D01*
X002756Y012945D01*
X002881Y012820D01*
X003131Y012820D01*
X002881Y012570D01*
X002631Y012820D01*
X002381Y012570D01*
X002131Y012820D01*
X002006Y012945D01*
X002006Y012820D01*
X002006Y012695D01*
X001881Y012570D01*
X002131Y012570D01*
X002131Y012320D01*
X002381Y012070D01*
X002631Y012070D01*
X002881Y012070D01*
X003131Y012320D01*
X003131Y012570D01*
X003381Y012570D01*
X003506Y012445D01*
X003381Y012320D01*
X003256Y012195D01*
X003506Y012195D01*
X003631Y012195D01*
X003381Y011945D01*
X003381Y011820D01*
X002881Y011320D01*
X002756Y011195D01*
X002506Y011195D01*
X002381Y011320D01*
X003131Y012070D01*
X003256Y012195D01*
X003381Y012070D01*
X003131Y012070D01*
X003256Y012195D02*
X003131Y012320D01*
X003381Y012570D01*
X003381Y012695D01*
X003506Y012820D01*
X003506Y012695D01*
X003381Y012695D01*
X003381Y012820D01*
X003256Y012695D01*
X003131Y012570D01*
X003131Y012695D01*
X003256Y012820D01*
X003131Y012820D02*
X003131Y013070D01*
X003006Y012945D01*
X002881Y012820D01*
X002881Y012945D01*
X002881Y012820D02*
X002881Y012570D01*
X002881Y012320D01*
X003131Y012320D01*
X003381Y012320D01*
X003506Y012320D01*
X003506Y012195D02*
X003381Y012070D01*
X003381Y011945D01*
X003131Y011820D02*
X002881Y011570D01*
X002381Y011570D01*
X002131Y011820D01*
X002131Y012070D02*
X001881Y012070D01*
X001881Y011945D01*
X001881Y012070D02*
X001756Y012195D01*
X001756Y012320D02*
X001881Y012320D01*
X002006Y012195D01*
X001881Y012070D01*
X002006Y012195D02*
X002131Y012320D01*
X001881Y012570D01*
X001881Y012695D01*
X001756Y012820D01*
X001756Y012695D01*
X001631Y012695D01*
X001756Y012570D01*
X001756Y012695D01*
X001881Y012695D01*
X001881Y012820D01*
X002006Y012695D01*
X002131Y012570D01*
X002131Y012695D01*
X002006Y012820D01*
X002131Y012820D02*
X002256Y012945D01*
X002256Y013070D01*
X002381Y012945D01*
X002381Y012820D01*
X002131Y012820D01*
X002131Y013070D01*
X002256Y012945D01*
X002381Y012820D01*
X002506Y012945D01*
X002506Y013070D01*
X002631Y012945D01*
X002631Y012820D01*
X002631Y012570D01*
X002881Y012820D01*
X002756Y012945D02*
X002756Y013070D01*
X002631Y012945D01*
X002631Y012820D02*
X002506Y012945D01*
X002381Y013070D01*
X002381Y012945D01*
X002381Y012820D02*
X002381Y012570D01*
X002381Y012320D01*
X002131Y012320D01*
X001881Y012320D01*
X001756Y012445D01*
X001631Y012570D01*
X001756Y012570D01*
X001881Y012570D01*
X002131Y012570D02*
X002381Y012320D01*
X002631Y012070D01*
X002881Y012320D01*
X003131Y012570D01*
X003131Y012695D02*
X003131Y012820D01*
X003381Y012570D02*
X003506Y012570D01*
X003631Y012570D01*
X002756Y012945D02*
X002631Y012820D01*
X002631Y012570D02*
X002381Y012820D01*
X002631Y012570D02*
X002631Y012070D01*
X002631Y011320D01*
X002881Y011570D01*
X002631Y011320D02*
X002381Y011570D01*
X002631Y011320D02*
X002631Y011070D01*
X002506Y011195D01*
X002631Y011070D02*
X002756Y011195D01*
X002131Y012695D02*
X002131Y012820D01*
X006766Y007346D02*
X007157Y007346D01*
X007174Y007344D01*
X007191Y007340D01*
X007207Y007333D01*
X007221Y007323D01*
X007234Y007310D01*
X007244Y007296D01*
X007251Y007280D01*
X007255Y007263D01*
X007257Y007246D01*
X007257Y006265D01*
X007255Y006248D01*
X007251Y006231D01*
X007244Y006215D01*
X007234Y006201D01*
X007221Y006188D01*
X007207Y006178D01*
X007191Y006171D01*
X007174Y006167D01*
X007157Y006165D01*
X006766Y006165D01*
X006749Y006167D01*
X006732Y006171D01*
X006716Y006178D01*
X006702Y006188D01*
X006689Y006201D01*
X006679Y006215D01*
X006672Y006231D01*
X006668Y006248D01*
X006666Y006265D01*
X006666Y007246D01*
X006668Y007263D01*
X006672Y007280D01*
X006679Y007296D01*
X006689Y007310D01*
X006702Y007323D01*
X006716Y007333D01*
X006732Y007340D01*
X006749Y007344D01*
X006766Y007346D01*
X006765Y007198D02*
X006962Y007247D01*
X006962Y007944D01*
X006765Y007198D02*
X007159Y007100D01*
X006765Y007001D01*
X007159Y006903D01*
X006765Y006805D01*
X007159Y006706D01*
X006765Y006608D01*
X007159Y006509D01*
X006765Y006411D01*
X007159Y006312D01*
X006962Y006263D01*
X006962Y005566D01*
X007454Y006339D02*
X007454Y006519D01*
X007454Y006429D02*
X007724Y006429D01*
X007634Y006339D01*
X007679Y006634D02*
X007499Y006634D01*
X007679Y006814D01*
X007499Y006814D01*
X007454Y006769D01*
X007454Y006679D01*
X007499Y006634D01*
X007679Y006634D02*
X007724Y006679D01*
X007724Y006769D01*
X007679Y006814D01*
X007724Y006928D02*
X007454Y006928D01*
X007544Y006928D02*
X007454Y007064D01*
X007544Y006928D02*
X007634Y007064D01*
X010165Y006373D02*
X010165Y006193D01*
X010210Y006078D02*
X010300Y005988D01*
X010300Y006033D02*
X010300Y005898D01*
X010210Y005898D02*
X010480Y005898D01*
X010480Y006033D01*
X010435Y006078D01*
X010345Y006078D01*
X010300Y006033D01*
X010603Y006265D02*
X010603Y007246D01*
X010525Y007220D02*
X010480Y007220D01*
X010390Y007220D02*
X010210Y007220D01*
X010210Y007175D02*
X010210Y007265D01*
X010255Y007416D02*
X010210Y007461D01*
X010255Y007416D02*
X010435Y007416D01*
X010390Y007371D02*
X010390Y007461D01*
X010390Y007220D02*
X010390Y007175D01*
X010345Y007060D02*
X010210Y007060D01*
X010210Y006970D02*
X010345Y006970D01*
X010390Y007015D01*
X010345Y007060D01*
X010345Y006970D02*
X010390Y006925D01*
X010390Y006880D01*
X010210Y006880D01*
X010210Y006774D02*
X010210Y006684D01*
X010210Y006729D02*
X010390Y006729D01*
X010390Y006684D01*
X010480Y006729D02*
X010525Y006729D01*
X010702Y006805D02*
X011096Y006903D01*
X010702Y007001D01*
X011096Y007100D01*
X010702Y007198D01*
X010899Y007247D01*
X010899Y007944D01*
X011094Y007346D02*
X010703Y007346D01*
X010686Y007344D01*
X010669Y007340D01*
X010653Y007333D01*
X010639Y007323D01*
X010626Y007310D01*
X010616Y007296D01*
X010609Y007280D01*
X010605Y007263D01*
X010603Y007246D01*
X010702Y006805D02*
X011096Y006706D01*
X010702Y006608D01*
X011096Y006509D01*
X010702Y006411D01*
X011096Y006312D01*
X010899Y006263D01*
X010899Y005566D01*
X011094Y006165D02*
X010703Y006165D01*
X010686Y006167D01*
X010669Y006171D01*
X010653Y006178D01*
X010639Y006188D01*
X010626Y006201D01*
X010616Y006215D01*
X010609Y006231D01*
X010605Y006248D01*
X010603Y006265D01*
X010480Y006487D02*
X010480Y006532D01*
X010210Y006532D01*
X010210Y006487D02*
X010210Y006577D01*
X011094Y006165D02*
X011111Y006167D01*
X011128Y006171D01*
X011144Y006178D01*
X011158Y006188D01*
X011171Y006201D01*
X011181Y006215D01*
X011188Y006231D01*
X011192Y006248D01*
X011194Y006265D01*
X011194Y007246D01*
X011192Y007263D01*
X011188Y007280D01*
X011181Y007296D01*
X011171Y007310D01*
X011158Y007323D01*
X011144Y007333D01*
X011128Y007340D01*
X011111Y007344D01*
X011094Y007346D01*
X012266Y002954D02*
X012266Y002683D01*
X012311Y002683D02*
X012221Y002683D01*
X012115Y002728D02*
X012115Y002818D01*
X012070Y002863D01*
X011980Y002863D01*
X011935Y002818D01*
X011935Y002773D01*
X012115Y002773D01*
X012115Y002728D02*
X012070Y002683D01*
X011980Y002683D01*
X012266Y002954D02*
X012311Y002954D01*
X012426Y002863D02*
X012426Y002683D01*
X012561Y002683D01*
X012606Y002728D01*
X012606Y002863D01*
X012720Y002818D02*
X012765Y002773D01*
X012900Y002773D01*
X012810Y002773D02*
X012720Y002683D01*
X012720Y002818D02*
X012720Y002909D01*
X012765Y002954D01*
X012900Y002954D01*
X012900Y002683D01*
X013301Y002683D02*
X013347Y002728D01*
X013347Y002909D01*
X013392Y002863D02*
X013301Y002863D01*
X013498Y002863D02*
X013588Y002863D01*
X013543Y002909D02*
X013543Y002728D01*
X013498Y002683D01*
X013702Y002773D02*
X013883Y002773D01*
X013883Y002728D02*
X013883Y002818D01*
X013838Y002863D01*
X013748Y002863D01*
X013702Y002818D01*
X013702Y002773D01*
X013748Y002683D02*
X013838Y002683D01*
X013883Y002728D01*
X013993Y002863D02*
X014038Y002863D01*
X014128Y002773D01*
X014128Y002683D02*
X014128Y002863D01*
X014243Y002818D02*
X014243Y002773D01*
X014423Y002773D01*
X014423Y002728D02*
X014423Y002818D01*
X014378Y002863D01*
X014288Y002863D01*
X014243Y002818D01*
X014288Y002683D02*
X014378Y002683D01*
X014423Y002728D01*
X014537Y002863D02*
X014627Y002683D01*
X014717Y002863D01*
X014832Y002954D02*
X015012Y002954D01*
X015012Y002683D01*
X014832Y002683D01*
X014922Y002818D02*
X015012Y002818D01*
X015413Y002683D02*
X015503Y002683D01*
X015458Y002683D02*
X015458Y002954D01*
X015503Y002954D01*
X015618Y002818D02*
X015618Y002773D01*
X015798Y002773D01*
X015798Y002728D02*
X015798Y002818D01*
X015753Y002863D01*
X015663Y002863D01*
X015618Y002818D01*
X015663Y002683D02*
X015753Y002683D01*
X015798Y002728D01*
X015912Y002683D02*
X015912Y002818D01*
X015957Y002863D01*
X016047Y002863D01*
X016047Y002773D02*
X015912Y002773D01*
X015912Y002683D02*
X016047Y002683D01*
X016093Y002728D01*
X016047Y002773D01*
X016207Y002818D02*
X016207Y002683D01*
X016207Y002818D02*
X016252Y002863D01*
X016342Y002863D01*
X016387Y002818D01*
X016502Y002863D02*
X016637Y002863D01*
X016682Y002818D01*
X016682Y002728D01*
X016637Y002683D01*
X016502Y002683D01*
X016387Y002683D02*
X016387Y002954D01*
X016833Y002954D02*
X016833Y002999D01*
X016833Y002863D02*
X016833Y002683D01*
X016878Y002683D02*
X016788Y002683D01*
X016833Y002863D02*
X016878Y002863D01*
X016993Y002954D02*
X016993Y002683D01*
X017173Y002683D02*
X017173Y002954D01*
X017083Y002863D01*
X016993Y002954D01*
X006678Y002954D02*
X006498Y002954D01*
X006588Y002954D02*
X006588Y002683D01*
X006383Y002683D02*
X006383Y002863D01*
X006383Y002773D02*
X006293Y002863D01*
X006248Y002863D01*
X006138Y002818D02*
X006138Y002728D01*
X006093Y002683D01*
X006003Y002683D01*
X005957Y002773D02*
X006138Y002773D01*
X006138Y002818D02*
X006093Y002863D01*
X006003Y002863D01*
X005957Y002818D01*
X005957Y002773D01*
X005843Y002773D02*
X005663Y002773D01*
X005663Y002818D01*
X005708Y002863D01*
X005798Y002863D01*
X005843Y002818D01*
X005843Y002728D01*
X005798Y002683D01*
X005708Y002683D01*
X005548Y002683D02*
X005548Y002954D01*
X005503Y002863D02*
X005413Y002863D01*
X005368Y002818D01*
X005368Y002683D01*
X005254Y002728D02*
X005254Y002818D01*
X005209Y002863D01*
X005119Y002863D01*
X005074Y002818D01*
X005074Y002728D01*
X005119Y002683D01*
X005209Y002683D01*
X005254Y002728D01*
X004959Y002728D02*
X004959Y002863D01*
X004959Y002728D02*
X004914Y002683D01*
X004779Y002683D01*
X004779Y002863D01*
X004664Y002818D02*
X004619Y002863D01*
X004484Y002863D01*
X004529Y002773D02*
X004619Y002773D01*
X004664Y002818D01*
X004664Y002683D02*
X004529Y002683D01*
X004484Y002728D01*
X004529Y002773D01*
X004370Y002773D02*
X004190Y002773D01*
X004190Y002818D01*
X004235Y002863D01*
X004325Y002863D01*
X004370Y002818D01*
X004370Y002728D01*
X004325Y002683D01*
X004235Y002683D01*
X004075Y002593D02*
X003985Y002683D01*
X004030Y002683D01*
X004030Y002728D01*
X003985Y002728D01*
X003985Y002683D01*
X003584Y002683D02*
X003584Y002863D01*
X003494Y002954D01*
X003404Y002863D01*
X003404Y002683D01*
X003289Y002728D02*
X003244Y002683D01*
X003154Y002683D01*
X003109Y002728D01*
X003109Y002773D01*
X003154Y002818D01*
X003244Y002818D01*
X003289Y002863D01*
X003289Y002909D01*
X003244Y002954D01*
X003154Y002954D01*
X003109Y002909D01*
X002995Y002909D02*
X002950Y002954D01*
X002860Y002954D01*
X002815Y002909D01*
X002815Y002863D01*
X002995Y002683D01*
X002815Y002683D01*
X002700Y002683D02*
X002520Y002863D01*
X002520Y002909D01*
X002565Y002954D01*
X002655Y002954D01*
X002700Y002909D01*
X002700Y002683D02*
X002520Y002683D01*
X002405Y002728D02*
X002225Y002909D01*
X002225Y002728D01*
X002270Y002683D01*
X002360Y002683D01*
X002405Y002728D01*
X002405Y002909D01*
X002360Y002954D01*
X002270Y002954D01*
X002225Y002909D01*
X001816Y002954D02*
X001816Y002683D01*
X001636Y002683D01*
X001521Y002728D02*
X001476Y002773D01*
X001341Y002773D01*
X001341Y002818D02*
X001341Y002683D01*
X001476Y002683D01*
X001521Y002728D01*
X001476Y002863D02*
X001386Y002863D01*
X001341Y002818D01*
X001227Y002863D02*
X001092Y002863D01*
X001047Y002818D01*
X001047Y002728D01*
X001092Y002683D01*
X001227Y002683D01*
X001227Y002954D01*
X000932Y002818D02*
X000887Y002863D01*
X000752Y002863D01*
X000797Y002773D02*
X000887Y002773D01*
X000932Y002818D01*
X000932Y002683D02*
X000797Y002683D01*
X000752Y002728D01*
X000797Y002773D01*
X003404Y002818D02*
X003584Y002818D01*
X005503Y002863D02*
X005548Y002818D01*
D12*
X007877Y010826D02*
X007790Y010913D01*
X007790Y011000D01*
X007877Y011086D01*
X008137Y011086D01*
X008137Y010913D01*
X008050Y010826D01*
X007877Y010826D01*
X008137Y011086D02*
X007963Y011260D01*
X007790Y011346D01*
X008305Y011346D02*
X008479Y011260D01*
X008652Y011086D01*
X008392Y011086D01*
X008305Y011000D01*
X008305Y010913D01*
X008392Y010826D01*
X008566Y010826D01*
X008652Y010913D01*
X008652Y011086D01*
X008821Y011086D02*
X008821Y010913D01*
X008908Y010826D01*
X009081Y010826D01*
X009168Y010913D01*
X009168Y011086D02*
X008995Y011173D01*
X008908Y011173D01*
X008821Y011086D01*
X008821Y011346D02*
X009168Y011346D01*
X009168Y011086D01*
X009337Y010826D02*
X009684Y010826D01*
X009510Y010826D02*
X009510Y011346D01*
X009684Y011173D01*
X009852Y011346D02*
X010026Y011260D01*
X010199Y011086D01*
X009939Y011086D01*
X009852Y011000D01*
X009852Y010913D01*
X009939Y010826D01*
X010113Y010826D01*
X010199Y010913D01*
X010199Y011086D01*
D13*
X010255Y015326D02*
X010755Y015326D01*
X007946Y006755D02*
X007948Y006817D01*
X007954Y006880D01*
X007964Y006941D01*
X007978Y007002D01*
X007995Y007062D01*
X008016Y007121D01*
X008042Y007178D01*
X008070Y007233D01*
X008102Y007287D01*
X008138Y007338D01*
X008176Y007388D01*
X008218Y007434D01*
X008262Y007478D01*
X008310Y007519D01*
X008359Y007557D01*
X008411Y007591D01*
X008465Y007622D01*
X008521Y007650D01*
X008579Y007674D01*
X008638Y007695D01*
X008698Y007711D01*
X008759Y007724D01*
X008821Y007733D01*
X008883Y007738D01*
X008946Y007739D01*
X009008Y007736D01*
X009070Y007729D01*
X009132Y007718D01*
X009192Y007703D01*
X009252Y007685D01*
X009310Y007663D01*
X009367Y007637D01*
X009422Y007607D01*
X009475Y007574D01*
X009526Y007538D01*
X009574Y007499D01*
X009620Y007456D01*
X009663Y007411D01*
X009703Y007363D01*
X009740Y007313D01*
X009774Y007260D01*
X009805Y007206D01*
X009831Y007150D01*
X009855Y007092D01*
X009874Y007032D01*
X009890Y006972D01*
X009902Y006910D01*
X009910Y006849D01*
X009914Y006786D01*
X009914Y006724D01*
X009910Y006661D01*
X009902Y006600D01*
X009890Y006538D01*
X009874Y006478D01*
X009855Y006418D01*
X009831Y006360D01*
X009805Y006304D01*
X009774Y006250D01*
X009740Y006197D01*
X009703Y006147D01*
X009663Y006099D01*
X009620Y006054D01*
X009574Y006011D01*
X009526Y005972D01*
X009475Y005936D01*
X009422Y005903D01*
X009367Y005873D01*
X009310Y005847D01*
X009252Y005825D01*
X009192Y005807D01*
X009132Y005792D01*
X009070Y005781D01*
X009008Y005774D01*
X008946Y005771D01*
X008883Y005772D01*
X008821Y005777D01*
X008759Y005786D01*
X008698Y005799D01*
X008638Y005815D01*
X008579Y005836D01*
X008521Y005860D01*
X008465Y005888D01*
X008411Y005919D01*
X008359Y005953D01*
X008310Y005991D01*
X008262Y006032D01*
X008218Y006076D01*
X008176Y006122D01*
X008138Y006172D01*
X008102Y006223D01*
X008070Y006277D01*
X008042Y006332D01*
X008016Y006389D01*
X007995Y006448D01*
X007978Y006508D01*
X007964Y006569D01*
X007954Y006630D01*
X007948Y006693D01*
X007946Y006755D01*
X008176Y006393D02*
X008676Y006393D01*
X013682Y005937D02*
X014021Y005937D01*
X014171Y005483D02*
X014171Y005272D01*
X014021Y004817D02*
X013682Y004817D01*
D14*
X010430Y003537D02*
X010430Y002537D01*
X009430Y002537D01*
X008430Y002537D01*
X007430Y002537D01*
X007430Y003537D01*
X008430Y003537D01*
X009430Y003537D01*
X010430Y003537D01*
D15*
X009930Y003737D03*
X008930Y003737D03*
X007930Y003737D03*
D16*
X007930Y004787D03*
X008930Y004787D03*
X009930Y004787D03*
M02*
