%
M48
M72
T01C0.0120
T02C0.0197
T03C0.0236
T04C0.0276
T05C0.0315
T06C0.0320
T07C0.0354
T08C0.0400
T09C0.0472
%
T01
X2573Y2897
X5023Y3147
X5373Y3147
X6473Y3297
X6573Y2647
X7273Y3547
X7023Y3797
X7973Y3247
X8223Y3497
X8873Y3597
X9673Y3047
X10073Y2297
X10523Y2947
X11073Y2697
X11123Y3347
X10523Y3997
X11023Y4747
X12023Y4797
X12023Y4447
X12623Y4497
X12373Y3897
X12973Y3697
X13773Y4547
X12323Y6197
X13173Y6697
X11223Y8047
X9823Y6997
X9673Y7497
X8573Y6297
X8273Y4797
X10323Y5797
X8173Y8197
X8123Y8547
X7473Y9197
X8123Y9597
X8223Y10797
X9073Y10897
X9823Y10247
X10973Y11747
X11223Y11947
X10873Y12647
X10773Y13147
X10473Y13847
X10773Y14247
X9973Y13247
X9423Y13897
X9373Y13097
X8923Y12547
X8023Y12247
X7323Y12697
X6923Y13297
X6373Y13547
X6823Y14047
X6823Y15147
X6673Y15647
X7573Y16097
X7923Y16097
X8723Y15997
X9173Y16297
X8623Y15047
X8673Y14697
X8073Y13747
X7873Y14997
X6323Y16997
X4773Y16997
X4773Y16497
X3273Y17097
X3023Y17847
X2023Y18797
X1773Y18197
X1723Y16997
X3623Y19447
X5723Y19547
X6573Y18797
X8423Y18097
X9123Y18147
X8573Y20347
X11023Y16147
X11223Y15597
X11573Y15597
X10723Y15447
X12323Y14497
X10073Y11897
X11823Y9697
X12173Y10947
X7273Y8047
X6523Y7297
X5173Y6997
X4923Y7197
X5023Y7747
X4673Y7747
X4573Y8547
X3273Y8897
X2723Y9097
X2073Y8847
X1723Y8847
X2623Y10097
X2223Y11247
X1873Y12297
X2173Y13747
X2223Y14197
X3273Y12297
X4923Y10697
X4873Y10197
X6623Y9397
X6723Y9997
X6873Y10497
X6973Y10847
X7123Y11397
X7073Y11797
X6273Y12647
X5923Y12647
X3023Y8247
X1973Y7547
X2573Y6147
X2873Y5897
X3473Y6397
X2023Y5697
X4973Y5447
X5123Y5997
X7973Y2147
X8123Y1547
X9173Y1797
X10923Y2047
X12073Y2447
X11923Y2997
X12623Y1847
X1223Y10447
T02
X8784Y8211
X8784Y13961
T03
X15182Y6854
X15182Y6066
X15182Y5279
T04
X11737Y5279
X11737Y6263
X11737Y7247
X11737Y8232
X11737Y9216
X11737Y10200
X11737Y11184
X11737Y12169
X11737Y13153
X11737Y14137
X11737Y15121
X11737Y16106
X11737Y17090
X11737Y18074
X11737Y19058
X11737Y20043
X10359Y15826
X10359Y14826
X5831Y15121
X5831Y14137
X5831Y13153
X5831Y12169
X5831Y11184
X5831Y10200
X5831Y9216
X5831Y8232
X5831Y7247
X5831Y6263
X5831Y5279
X8284Y6755
X9284Y6755
X5831Y16106
X5831Y17090
X5831Y18074
X5831Y19058
X5831Y20043
T05
X3666Y20141
X1304Y20141
X7209Y15810
X7209Y14826
X9571Y14826
X9571Y15810
X10753Y7936
X10753Y5574
X6816Y5574
X6816Y7936
T06
X3985Y7964
X3985Y6964
X3985Y5964
X3197Y4590
X910Y4590
X985Y5964
X985Y6964
X985Y7964
X985Y8964
X985Y9964
X985Y10964
X985Y11964
X985Y12964
X985Y13964
X985Y14964
X985Y15964
X985Y16964
X985Y17964
X985Y18964
X3985Y18964
X3985Y17964
X3985Y16964
X3985Y15964
X3985Y14964
X3985Y13964
X3985Y12964
X3985Y11964
X3985Y10964
X3985Y9964
X3985Y8964
T07
X7918Y18370
X9650Y18370
T08
X811Y1928
X811Y3708
X3371Y3708
X4351Y4295
X6131Y4295
X7784Y4287
X7784Y5287
X8784Y5287
X8784Y4287
X9784Y4287
X9784Y5287
X11437Y4295
X13217Y4295
X14197Y3708
X14197Y1928
X13217Y1735
X11437Y1735
X16757Y1928
X16757Y3708
X6131Y1735
X4351Y1735
X3371Y1928
T09
X13902Y8177
X15182Y7740
X16461Y8177
X15182Y4393
M30
