%
M48
M72
T01C0.0250
T02C0.0320
T03C0.0400
T04C0.1300
%
T01
X19405Y4655
X20405Y4655
X21405Y4655
X21405Y5655
X20405Y5655
X19405Y5655
X19405Y6805
X20405Y6805
X21405Y6805
X21405Y8155
X20405Y8155
X23155Y8905
X27155Y9155
X17155Y9755
X11655Y8905
X11655Y8405
X11655Y7905
T02
X1655Y1655
X4155Y1655
X6655Y1655
X9155Y1655
X11655Y1655
X14155Y1655
X16655Y1655
X19155Y1655
X21655Y1655
X24155Y1655
X26655Y1655
X29155Y1655
X31655Y1655
X34155Y1655
X36655Y1655
X39155Y1655
X39155Y2655
X36655Y2655
X34155Y2655
X31655Y2655
X29155Y2655
X26655Y2655
X24155Y2655
X21655Y2655
X19155Y2655
X16655Y2655
X14155Y2655
X11655Y2655
X9155Y2655
X6655Y2655
X4155Y2655
X1655Y2655
T03
X1655Y4155
X1655Y5155
X1655Y6155
X1655Y7155
X1655Y8155
X1655Y9155
X36295Y9155
X36295Y8155
X36295Y7155
X36295Y6155
X36295Y5155
X36295Y4155
T04
X39655Y4655
X39655Y9655
X34155Y9655
X3155Y9655
M30
