G75*
G70*
%OFA0B0*%
%FSLAX24Y24*%
%IPPOS*%
%LPD*%
%AMOC8*
5,1,8,0,0,1.08239X$1,22.5*
%
%ADD10C,0.0300*%
%ADD11R,0.0500X0.0579*%
D10*
X018305Y003905D02*
X018605Y003905D01*
X018605Y004405D02*
X018305Y004405D01*
X018305Y004905D02*
X018605Y004905D01*
X018605Y005405D02*
X018305Y005405D01*
X018305Y005905D02*
X018605Y005905D01*
X018605Y006405D02*
X018305Y006405D01*
X018305Y006905D02*
X018605Y006905D01*
X018605Y007405D02*
X018305Y007405D01*
X018305Y007905D02*
X018605Y007905D01*
X018605Y008405D02*
X018305Y008405D01*
X018305Y008905D02*
X018605Y008905D01*
X018605Y009405D02*
X018305Y009405D01*
X022155Y009405D02*
X022455Y009405D01*
X022455Y008905D02*
X022155Y008905D01*
X022155Y008405D02*
X022455Y008405D01*
X022455Y007905D02*
X022155Y007905D01*
X022155Y007405D02*
X022455Y007405D01*
X022455Y006905D02*
X022155Y006905D01*
X022155Y006405D02*
X022455Y006405D01*
X022455Y005905D02*
X022155Y005905D01*
X022155Y005405D02*
X022455Y005405D01*
X022455Y004905D02*
X022155Y004905D01*
X022155Y004405D02*
X022455Y004405D01*
X022455Y003905D02*
X022155Y003905D01*
D11*
X024159Y009155D03*
X025852Y009155D03*
M02*
