%
M48
M72
T01C0.0120
T02C0.0236
T03C0.0276
T04C0.0320
T05C0.0472
T06C0.1260
%
T01
X3946Y4969
X5481Y6387
X6308Y6780
X6505Y7686
X7174Y5993
X6347Y5166
X9772Y7331
X10914Y8473
X10481Y9379
X9576Y10127
X10127Y11032
X9300Y11308
X10757Y12292
X11820Y10639
X12056Y9733
X11820Y9103
X13001Y11820
T02
X13977Y11614
X15647Y13285
T03
X5676Y4262
X4969Y4969
X4262Y5676
T04
X5502Y5502
X6209Y6209
X6781Y6781
X7488Y7488
X8061Y8061
X8768Y8768
X9340Y9340
X10047Y10047
X10620Y10620
X11327Y11327
X11899Y11899
X12606Y12606
X13179Y13179
X13886Y13886
X14458Y14458
X15165Y15165
X15738Y15738
X16445Y16445
X17017Y17017
X17724Y17724
X16775Y19334
X15158Y17717
X14610Y17169
X12992Y15551
X12444Y15004
X10827Y13386
X10279Y12838
X8662Y11221
X7135Y9256
X6428Y8549
X5720Y7842
X5013Y7135
X7135Y5013
X7842Y5720
X8549Y6428
X9256Y7135
X11349Y8987
X12763Y10401
T05
X9981Y8432
X8438Y9975
T06
X18631Y18631
M30
