G75*
G70*
%OFA0B0*%
%FSLAX24Y24*%
%IPPOS*%
%LPD*%
%AMOC8*
5,1,8,0,0,1.08239X$1,22.5*
%
%ADD10C,0.0000*%
%ADD11C,0.0060*%
%ADD12C,0.0050*%
D10*
X004378Y000350D02*
X000167Y007644D01*
X000147Y007683D01*
X000130Y007723D01*
X000117Y007765D01*
X000108Y007807D01*
X000102Y007850D01*
X000100Y007894D01*
X000102Y007938D01*
X000108Y007981D01*
X000117Y008023D01*
X000130Y008065D01*
X000147Y008105D01*
X000167Y008144D01*
X004378Y015438D01*
X004401Y015475D01*
X004428Y015509D01*
X004457Y015542D01*
X004490Y015571D01*
X004524Y015598D01*
X004561Y015621D01*
X004600Y015641D01*
X004640Y015658D01*
X004682Y015671D01*
X004724Y015680D01*
X004767Y015686D01*
X004811Y015688D01*
X013234Y015688D01*
X013667Y015438D02*
X017878Y008144D01*
X017898Y008105D01*
X017915Y008065D01*
X017928Y008023D01*
X017937Y007981D01*
X017943Y007938D01*
X017945Y007894D01*
X017943Y007850D01*
X017937Y007807D01*
X017928Y007765D01*
X017915Y007723D01*
X017898Y007683D01*
X017878Y007644D01*
X013667Y000350D01*
X013234Y000100D02*
X004811Y000100D01*
X004767Y000102D01*
X004724Y000108D01*
X004682Y000117D01*
X004640Y000130D01*
X004600Y000147D01*
X004561Y000167D01*
X004524Y000190D01*
X004490Y000217D01*
X004457Y000246D01*
X004428Y000279D01*
X004401Y000313D01*
X004378Y000350D01*
X013234Y000100D02*
X013278Y000102D01*
X013321Y000108D01*
X013363Y000117D01*
X013405Y000130D01*
X013445Y000147D01*
X013484Y000167D01*
X013521Y000190D01*
X013555Y000217D01*
X013588Y000246D01*
X013617Y000279D01*
X013644Y000313D01*
X013667Y000350D01*
X013667Y015438D02*
X013644Y015475D01*
X013617Y015509D01*
X013588Y015542D01*
X013555Y015571D01*
X013521Y015598D01*
X013484Y015621D01*
X013445Y015641D01*
X013405Y015658D01*
X013363Y015671D01*
X013321Y015680D01*
X013278Y015686D01*
X013234Y015688D01*
D11*
X010604Y013950D02*
X010604Y013737D01*
X010497Y013630D01*
X010284Y013630D01*
X010177Y013737D01*
X010177Y013844D01*
X010284Y013950D01*
X010604Y013950D01*
X010391Y014164D01*
X010177Y014271D01*
X009959Y014057D02*
X009746Y014271D01*
X009746Y013630D01*
X009959Y013630D02*
X009532Y013630D01*
X009315Y013737D02*
X009208Y013630D01*
X008995Y013630D01*
X008888Y013737D01*
X008888Y013950D01*
X008995Y014057D01*
X009101Y014057D01*
X009315Y013950D01*
X009315Y014271D01*
X008888Y014271D01*
X008670Y013950D02*
X008350Y013950D01*
X008243Y013844D01*
X008243Y013737D01*
X008350Y013630D01*
X008564Y013630D01*
X008670Y013737D01*
X008670Y013950D01*
X008457Y014164D01*
X008243Y014271D01*
X008026Y013950D02*
X007706Y013950D01*
X007599Y013844D01*
X007599Y013737D01*
X007706Y013630D01*
X007919Y013630D01*
X008026Y013737D01*
X008026Y013950D01*
X007812Y014164D01*
X007599Y014271D01*
X009444Y012671D02*
X009871Y012671D01*
X009871Y012030D01*
X009444Y012030D01*
X009657Y012350D02*
X009871Y012350D01*
X009226Y012457D02*
X009013Y012030D01*
X008799Y012457D01*
X008582Y012350D02*
X008475Y012457D01*
X008261Y012457D01*
X008154Y012350D01*
X008154Y012244D01*
X008582Y012244D01*
X008582Y012350D02*
X008582Y012137D01*
X008475Y012030D01*
X008261Y012030D01*
X007937Y012030D02*
X007937Y012457D01*
X007937Y012244D02*
X007723Y012457D01*
X007617Y012457D01*
X007400Y012350D02*
X007293Y012457D01*
X007080Y012457D01*
X006973Y012350D01*
X006973Y012244D01*
X007400Y012244D01*
X007400Y012350D02*
X007400Y012137D01*
X007293Y012030D01*
X007080Y012030D01*
X006649Y012137D02*
X006542Y012030D01*
X006649Y012137D02*
X006649Y012564D01*
X006755Y012457D02*
X006542Y012457D01*
X006326Y012457D02*
X006112Y012457D01*
X006219Y012564D02*
X006219Y012137D01*
X006112Y012030D01*
X005251Y012030D02*
X005251Y012671D01*
X004931Y012671D01*
X004824Y012564D01*
X004824Y012350D01*
X004931Y012244D01*
X005251Y012244D01*
X005038Y012244D02*
X004824Y012030D01*
X004607Y012137D02*
X004500Y012030D01*
X004180Y012030D01*
X004180Y012457D01*
X003962Y012671D02*
X003855Y012671D01*
X003855Y012030D01*
X003749Y012030D02*
X003962Y012030D01*
X003533Y012137D02*
X003533Y012350D01*
X003426Y012457D01*
X003212Y012457D01*
X003106Y012350D01*
X003106Y012244D01*
X003533Y012244D01*
X003533Y012137D02*
X003426Y012030D01*
X003212Y012030D01*
X004607Y012137D02*
X004607Y012457D01*
X005413Y010921D02*
X005413Y010280D01*
X005520Y010280D02*
X005306Y010280D01*
X005090Y010280D02*
X004983Y010280D01*
X004983Y010387D01*
X005090Y010387D01*
X005090Y010280D01*
X004768Y010387D02*
X004768Y010600D01*
X004661Y010707D01*
X004341Y010707D01*
X004123Y010600D02*
X004123Y010387D01*
X004017Y010280D01*
X003803Y010280D01*
X003696Y010387D01*
X003696Y010600D01*
X003803Y010707D01*
X004017Y010707D01*
X004123Y010600D01*
X004341Y010280D02*
X004661Y010280D01*
X004768Y010387D01*
X005413Y010921D02*
X005520Y010921D01*
X005843Y010921D02*
X005843Y011027D01*
X005843Y010707D02*
X005843Y010280D01*
X005950Y010280D02*
X005736Y010280D01*
X006167Y010280D02*
X006167Y010600D01*
X006274Y010707D01*
X006487Y010707D01*
X006487Y010494D02*
X006167Y010494D01*
X006167Y010280D02*
X006487Y010280D01*
X006594Y010387D01*
X006487Y010494D01*
X006812Y010600D02*
X006812Y010280D01*
X007025Y010280D02*
X007025Y010600D01*
X006918Y010707D01*
X006812Y010600D01*
X007025Y010600D02*
X007132Y010707D01*
X007239Y010707D01*
X007239Y010280D01*
X007456Y010280D02*
X007777Y010280D01*
X007883Y010387D01*
X007883Y010600D01*
X007777Y010707D01*
X007456Y010707D01*
X007456Y010173D01*
X007563Y010066D01*
X007670Y010066D01*
X008101Y010387D02*
X008208Y010280D01*
X008421Y010280D01*
X008528Y010387D01*
X008528Y010814D01*
X008421Y010921D01*
X008208Y010921D01*
X008101Y010814D01*
X008101Y010600D01*
X008208Y010494D01*
X008208Y010707D01*
X008421Y010707D01*
X008421Y010494D01*
X008208Y010494D01*
X008745Y010707D02*
X008851Y010707D01*
X009065Y010494D01*
X009065Y010707D02*
X009065Y010280D01*
X009282Y010494D02*
X009709Y010494D01*
X009709Y010600D02*
X009603Y010707D01*
X009389Y010707D01*
X009282Y010600D01*
X009282Y010494D01*
X009389Y010280D02*
X009603Y010280D01*
X009709Y010387D01*
X009709Y010600D01*
X009927Y010707D02*
X010247Y010707D01*
X010354Y010600D01*
X010354Y010387D01*
X010247Y010280D01*
X009927Y010280D01*
X009927Y010173D02*
X009927Y010707D01*
X009927Y010173D02*
X010034Y010066D01*
X010141Y010066D01*
X010572Y010280D02*
X010572Y010600D01*
X010678Y010707D01*
X010999Y010707D01*
X010999Y010280D01*
X011216Y010280D02*
X011536Y010280D01*
X011643Y010387D01*
X011536Y010494D01*
X011216Y010494D01*
X011216Y010600D02*
X011216Y010280D01*
X011216Y010600D02*
X011323Y010707D01*
X011536Y010707D01*
X011861Y010707D02*
X012181Y010707D01*
X012288Y010600D01*
X012288Y010387D01*
X012181Y010280D01*
X011861Y010280D01*
X011861Y010921D01*
X012505Y010707D02*
X012505Y010387D01*
X012612Y010280D01*
X012719Y010387D01*
X012825Y010280D01*
X012932Y010387D01*
X012932Y010707D01*
X013150Y010600D02*
X013257Y010707D01*
X013470Y010707D01*
X013577Y010600D01*
X013577Y010387D01*
X013470Y010280D01*
X013257Y010280D01*
X013150Y010387D01*
X013150Y010600D01*
X013793Y010280D02*
X014006Y010280D01*
X013900Y010280D02*
X013900Y010921D01*
X014006Y010921D01*
X014224Y010707D02*
X014544Y010707D01*
X014651Y010600D01*
X014544Y010494D01*
X014331Y010494D01*
X014224Y010387D01*
X014331Y010280D01*
X014651Y010280D01*
X014597Y012030D02*
X014597Y012671D01*
X014384Y012457D01*
X014170Y012671D01*
X014170Y012030D01*
X013953Y012030D02*
X013739Y012030D01*
X013846Y012030D02*
X013846Y012457D01*
X013953Y012457D01*
X013846Y012671D02*
X013846Y012777D01*
X013523Y012350D02*
X013523Y012137D01*
X013416Y012030D01*
X013096Y012030D01*
X012879Y012030D02*
X012879Y012671D01*
X012772Y012457D02*
X012558Y012457D01*
X012451Y012350D01*
X012451Y012030D01*
X012234Y012137D02*
X012127Y012244D01*
X011807Y012244D01*
X011807Y012350D02*
X011807Y012030D01*
X012127Y012030D01*
X012234Y012137D01*
X012127Y012457D02*
X011914Y012457D01*
X011807Y012350D01*
X011589Y012350D02*
X011483Y012457D01*
X011269Y012457D01*
X011162Y012350D01*
X011162Y012244D01*
X011589Y012244D01*
X011589Y012350D02*
X011589Y012137D01*
X011483Y012030D01*
X011269Y012030D01*
X010945Y012030D02*
X010731Y012030D01*
X010838Y012030D02*
X010838Y012671D01*
X010945Y012671D01*
X012772Y012457D02*
X012879Y012350D01*
X013096Y012457D02*
X013416Y012457D01*
X013523Y012350D01*
X005950Y010707D02*
X005843Y010707D01*
X003479Y010707D02*
X003479Y010280D01*
X003265Y010280D02*
X003265Y010600D01*
X003159Y010707D01*
X003052Y010600D01*
X003052Y010280D01*
X003265Y010600D02*
X003372Y010707D01*
X003479Y010707D01*
X004773Y002350D02*
X004523Y002100D01*
X004523Y001600D01*
X004773Y001350D01*
X005273Y001350D01*
X005523Y001600D01*
X005773Y001350D01*
X006273Y001350D01*
X006523Y001600D01*
X006773Y001350D01*
X007273Y001350D01*
X007523Y001600D01*
X007773Y001350D01*
X008273Y001350D01*
X008523Y001600D01*
X008773Y001350D01*
X009273Y001350D01*
X009523Y001600D01*
X009773Y001350D01*
X010273Y001350D01*
X010523Y001600D01*
X010773Y001350D01*
X011273Y001350D01*
X011523Y001600D01*
X011773Y001350D01*
X012273Y001350D01*
X012523Y001600D01*
X012773Y001350D01*
X013273Y001350D01*
X013523Y001600D01*
X013523Y002100D01*
X013273Y002350D01*
X012773Y002350D01*
X012523Y002100D01*
X012523Y001600D01*
X012523Y002100D01*
X012273Y002350D01*
X011773Y002350D01*
X011523Y002100D01*
X011523Y001600D01*
X011523Y002100D01*
X011273Y002350D01*
X010773Y002350D01*
X010523Y002100D01*
X010523Y001600D01*
X010523Y002100D01*
X010273Y002350D01*
X009773Y002350D01*
X009523Y002100D01*
X009523Y001600D01*
X009523Y002100D01*
X009273Y002350D01*
X008773Y002350D01*
X008523Y002100D01*
X008523Y001600D01*
X008523Y002100D01*
X008273Y002350D01*
X007773Y002350D01*
X007523Y002100D01*
X007523Y001600D01*
X007523Y002100D01*
X007273Y002350D01*
X006773Y002350D01*
X006523Y002100D01*
X006523Y001600D01*
X006523Y002100D01*
X006273Y002350D01*
X005773Y002350D01*
X005523Y002100D01*
X005523Y001600D01*
X005523Y002100D01*
X005273Y002350D01*
X004773Y002350D01*
D12*
X008273Y004850D02*
X008773Y004350D01*
X008773Y005100D01*
X008523Y005100D01*
X008523Y004850D01*
X008273Y005100D01*
X008273Y005350D01*
X008273Y005600D01*
X008148Y005475D01*
X008023Y005475D01*
X008148Y005350D01*
X008023Y005350D01*
X008148Y005225D01*
X008523Y005600D01*
X008773Y005850D01*
X009273Y005850D01*
X009523Y005600D01*
X009898Y005225D01*
X009648Y005225D01*
X009523Y005100D01*
X009523Y004850D01*
X009773Y005100D01*
X009773Y005350D01*
X009773Y005600D01*
X009648Y005725D01*
X009648Y005850D01*
X009648Y005975D01*
X009523Y005850D01*
X009398Y005975D01*
X009398Y006100D01*
X009273Y005975D01*
X009273Y006100D01*
X009148Y005975D01*
X009273Y005850D01*
X009523Y005850D01*
X009273Y005600D01*
X009023Y005850D01*
X008773Y005600D01*
X008523Y005850D01*
X008398Y005975D01*
X008398Y005850D01*
X008398Y005725D01*
X008273Y005600D01*
X008523Y005600D01*
X008523Y005350D01*
X008773Y005100D01*
X009023Y005100D01*
X009273Y005100D01*
X009273Y004600D01*
X009273Y004350D01*
X008523Y005100D01*
X008398Y005225D01*
X008148Y005225D01*
X008023Y005225D01*
X008273Y004975D01*
X008273Y004850D01*
X008273Y004975D02*
X008273Y005100D01*
X008523Y005100D01*
X008398Y005225D02*
X008273Y005350D01*
X008148Y005475D01*
X008023Y005600D01*
X008148Y005600D01*
X008023Y005725D01*
X008148Y005725D01*
X008148Y005850D01*
X008273Y005725D01*
X008148Y005725D01*
X008148Y005600D01*
X008273Y005600D01*
X008273Y005725D01*
X008273Y005850D01*
X008398Y005725D01*
X008523Y005600D01*
X008523Y005725D01*
X008398Y005850D01*
X008523Y005850D02*
X008523Y005725D01*
X008523Y005600D02*
X008773Y005350D01*
X008523Y005350D01*
X008398Y005225D01*
X008273Y005100D01*
X008148Y005225D01*
X008148Y005350D02*
X008273Y005350D01*
X008523Y005350D01*
X008273Y005600D01*
X008523Y005850D02*
X008648Y005975D01*
X008648Y006100D01*
X008773Y005975D01*
X008773Y005850D01*
X008523Y005850D01*
X008523Y006100D01*
X008648Y005975D01*
X008773Y005850D01*
X008898Y005975D01*
X008898Y006100D01*
X009023Y005975D01*
X009023Y005850D01*
X009023Y005600D01*
X009273Y005850D01*
X009273Y005975D01*
X009398Y005975D02*
X009523Y006100D01*
X009523Y005850D01*
X009523Y005725D01*
X009648Y005850D01*
X009773Y005850D02*
X009773Y005725D01*
X009898Y005850D01*
X009898Y005725D01*
X010023Y005725D01*
X009898Y005600D01*
X009898Y005725D01*
X009773Y005725D01*
X009773Y005600D01*
X009898Y005475D01*
X010023Y005475D01*
X009898Y005350D01*
X010023Y005350D01*
X009898Y005225D01*
X010023Y005225D01*
X009773Y004975D01*
X009773Y004850D01*
X009273Y004350D01*
X009148Y004225D01*
X008898Y004225D01*
X008773Y004350D01*
X009523Y005100D01*
X009773Y005100D01*
X009773Y004975D01*
X009773Y005100D02*
X009648Y005225D01*
X009773Y005350D01*
X009898Y005475D01*
X010023Y005600D01*
X009898Y005600D01*
X009773Y005600D01*
X009523Y005600D01*
X009523Y005350D01*
X009273Y005100D01*
X009523Y005100D01*
X009648Y005225D02*
X009523Y005350D01*
X009773Y005600D01*
X009648Y005725D02*
X009773Y005850D01*
X009648Y005725D02*
X009523Y005600D01*
X009523Y005725D01*
X009523Y005600D02*
X009273Y005350D01*
X009523Y005350D01*
X009773Y005350D01*
X009898Y005350D01*
X009898Y005225D02*
X009773Y005100D01*
X009523Y004850D02*
X009273Y004600D01*
X008773Y004600D01*
X008523Y004850D01*
X008773Y004600D02*
X009023Y004350D01*
X009273Y004600D01*
X009023Y004350D02*
X009023Y005100D01*
X009273Y005350D01*
X009273Y005600D01*
X009273Y005850D01*
X009398Y005975D01*
X009148Y005975D02*
X009148Y006100D01*
X009023Y005975D01*
X009148Y005975D02*
X009023Y005850D01*
X008898Y005975D01*
X008773Y006100D01*
X008773Y005975D01*
X008773Y005850D02*
X008773Y005600D01*
X008773Y005350D01*
X009023Y005100D01*
X009023Y005600D01*
X008773Y005850D01*
X009023Y004350D02*
X009023Y004100D01*
X008898Y004225D01*
X009023Y004100D02*
X009148Y004225D01*
M02*
