%
M48
M72
T01C0.0240
T02C0.0320
T03C0.0400
T04C0.1260
%
T01
X4100Y2600
X14100Y18100
X24100Y20350
X1600Y28100
T02
X600Y1100
X1600Y1100
X2600Y1100
X3600Y1100
X4600Y1100
X5600Y1100
X6600Y1100
X7600Y1100
X8600Y1100
X9600Y1100
X10600Y1100
X11600Y1100
X12600Y1100
X13600Y1100
X14600Y1100
X15600Y1100
X16600Y1100
X17600Y1100
X18600Y1100
X19600Y1100
X20600Y1100
X21600Y1100
X22600Y1100
X23600Y1100
X24600Y1100
X25600Y1100
X26600Y1100
X27600Y1100
X28600Y1100
X29600Y1100
X30600Y1100
X31600Y1100
X31600Y3100
X30600Y3100
X29600Y3100
X28600Y3100
X27600Y3100
X26600Y3100
X25600Y3100
X24600Y3100
X23600Y3100
X22600Y3100
X21600Y3100
X20600Y3100
X19600Y3100
X18600Y3100
X17600Y3100
X16600Y3100
X15600Y3100
X14600Y3100
X13600Y3100
X12600Y3100
X11600Y3100
X10600Y3100
X9600Y3100
X8600Y3100
X7600Y3100
X6600Y3100
X5600Y3100
X4600Y3100
X3600Y3100
X2600Y3100
X1600Y3100
X600Y3100
X600Y5100
X1600Y5100
X2600Y5100
X3600Y5100
X4600Y5100
X5600Y5100
X6600Y5100
X7600Y5100
X8600Y5100
X9600Y5100
X10600Y5100
X11600Y5100
X12600Y5100
X13600Y5100
X14600Y5100
X15600Y5100
X16600Y5100
X17600Y5100
X18600Y5100
X19600Y5100
X20600Y5100
X21600Y5100
X22600Y5100
X23600Y5100
X24600Y5100
X25600Y5100
X26600Y5100
X27600Y5100
X28600Y5100
X29600Y5100
X30600Y5100
X31600Y5100
X31600Y7100
X30600Y7100
X29600Y7100
X28600Y7100
X27600Y7100
X26600Y7100
X25600Y7100
X24600Y7100
X23600Y7100
X22600Y7100
X21600Y7100
X20600Y7100
X19600Y7100
X18600Y7100
X17600Y7100
X16600Y7100
X15600Y7100
X14600Y7100
X13600Y7100
X12600Y7100
X11600Y7100
X10600Y7100
X9600Y7100
X8600Y7100
X7600Y7100
X6600Y7100
X5600Y7100
X4600Y7100
X3600Y7100
X2600Y7100
X1600Y7100
X600Y7100
X600Y9100
X1600Y9100
X2600Y9100
X3600Y9100
X4600Y9100
X5600Y9100
X6600Y9100
X7600Y9100
X8600Y9100
X9600Y9100
X10600Y9100
X11600Y9100
X12600Y9100
X13600Y9100
X14600Y9100
X15600Y9100
X16600Y9100
X17600Y9100
X18600Y9100
X19600Y9100
X20600Y9100
X21600Y9100
X22600Y9100
X23600Y9100
X24600Y9100
X25600Y9100
X26600Y9100
X27600Y9100
X28600Y9100
X29600Y9100
X30600Y9100
X31600Y9100
X31600Y11100
X30600Y11100
X29600Y11100
X28600Y11100
X27600Y11100
X26600Y11100
X25600Y11100
X24600Y11100
X23600Y11100
X22600Y11100
X21600Y11100
X20600Y11100
X19600Y11100
X18600Y11100
X17600Y11100
X16600Y11100
X15600Y11100
X14600Y11100
X13600Y11100
X12600Y11100
X11600Y11100
X10600Y11100
X9600Y11100
X8600Y11100
X7600Y11100
X6600Y11100
X5600Y11100
X4600Y11100
X3600Y11100
X2600Y11100
X1600Y11100
X600Y11100
X600Y13100
X1600Y13100
X2600Y13100
X3600Y13100
X4600Y13100
X5600Y13100
X6600Y13100
X7600Y13100
X8600Y13100
X9600Y13100
X10600Y13100
X11600Y13100
X12600Y13100
X13600Y13100
X14600Y13100
X15600Y13100
X16600Y13100
X17600Y13100
X18600Y13100
X19600Y13100
X20600Y13100
X21600Y13100
X22600Y13100
X23600Y13100
X24600Y13100
X25600Y13100
X26600Y13100
X27600Y13100
X28600Y13100
X29600Y13100
X30600Y13100
X31600Y13100
X31600Y15100
X30600Y15100
X29600Y15100
X28600Y15100
X27600Y15100
X26600Y15100
X25600Y15100
X24600Y15100
X23600Y15100
X22600Y15100
X21600Y15100
X20600Y15100
X19600Y15100
X18600Y15100
X17600Y15100
X16600Y15100
X15600Y15100
X14600Y15100
X13600Y15100
X12600Y15100
X11600Y15100
X10600Y15100
X9600Y15100
X8600Y15100
X7600Y15100
X6600Y15100
X5600Y15100
X4600Y15100
X3600Y15100
X2600Y15100
X1600Y15100
X600Y15100
X600Y17100
X1600Y17100
X2600Y17100
X3600Y17100
X4600Y17100
X5600Y17100
X6600Y17100
X7600Y17100
X8600Y17100
X9600Y17100
X10600Y17100
X11600Y17100
X12600Y17100
X13600Y17100
X14600Y17100
X15600Y17100
X16600Y17100
X17600Y17100
X18600Y17100
X19600Y17100
X20600Y17100
X21600Y17100
X22600Y17100
X23600Y17100
X24600Y17100
X25600Y17100
X26600Y17100
X27600Y17100
X28600Y17100
X29600Y17100
X30600Y17100
X31600Y17100
X31600Y19100
X30600Y19100
X29600Y19100
X28600Y19100
X27600Y19100
X26600Y19100
X25600Y19100
X24600Y19100
X23600Y19100
X22600Y19100
X21600Y19100
X20600Y19100
X19600Y19100
X18600Y19100
X17600Y19100
X16600Y19100
X15600Y19100
X14600Y19100
X13600Y19100
X12600Y19100
X11600Y19100
X10600Y19100
X9600Y19100
X8600Y19100
X7600Y19100
X6600Y19100
X5600Y19100
X4600Y19100
X3600Y19100
X2600Y19100
X1600Y19100
X600Y19100
X600Y21100
X1600Y21100
X2600Y21100
X3600Y21100
X4600Y21100
X5600Y21100
X6600Y21100
X7600Y21100
X8600Y21100
X9600Y21100
X10600Y21100
X11600Y21100
X12600Y21100
X13600Y21100
X14600Y21100
X15600Y21100
X16600Y21100
X17600Y21100
X18600Y21100
X19600Y21100
X20600Y21100
X21600Y21100
X22600Y21100
X23600Y21100
X24600Y21100
X25600Y21100
X26600Y21100
X27600Y21100
X28600Y21100
X29600Y21100
X30600Y21100
X31600Y21100
X31600Y23100
X30600Y23100
X29600Y23100
X28600Y23100
X27600Y23100
X26600Y23100
X25600Y23100
X24600Y23100
X23600Y23100
X22600Y23100
X21600Y23100
X20600Y23100
X19600Y23100
X18600Y23100
X17600Y23100
X16600Y23100
X15600Y23100
X14600Y23100
X13600Y23100
X12600Y23100
X11600Y23100
X10600Y23100
X9600Y23100
X8600Y23100
X7600Y23100
X6600Y23100
X5600Y23100
X4600Y23100
X3600Y23100
X2600Y23100
X1600Y23100
X600Y23100
X600Y25100
X1600Y25100
X2600Y25100
X3600Y25100
X4600Y25100
X5600Y25100
X6600Y25100
X7600Y25100
X8600Y25100
X9600Y25100
X10600Y25100
X11600Y25100
X12600Y25100
X13600Y25100
X14600Y25100
X15600Y25100
X16600Y25100
X17600Y25100
X18600Y25100
X19600Y25100
X20600Y25100
X21600Y25100
X22600Y25100
X23600Y25100
X24600Y25100
X25600Y25100
X26600Y25100
X27600Y25100
X28600Y25100
X29600Y25100
X30600Y25100
X31600Y25100
X31600Y27100
X30600Y27100
X29600Y27100
X28600Y27100
X27600Y27100
X26600Y27100
X25600Y27100
X24600Y27100
X23600Y27100
X22600Y27100
X21600Y27100
X20600Y27100
X19600Y27100
X18600Y27100
X17600Y27100
X16600Y27100
X15600Y27100
X14600Y27100
X13600Y27100
X12600Y27100
X11600Y27100
X10600Y27100
X9600Y27100
X8600Y27100
X7600Y27100
X6600Y27100
X5600Y27100
X4600Y27100
X3600Y27100
X2600Y27100
X1600Y27100
X600Y27100
X600Y29100
X1600Y29100
X2600Y29100
X3600Y29100
X4600Y29100
X5600Y29100
X6600Y29100
X7600Y29100
X8600Y29100
X9600Y29100
X10600Y29100
X11600Y29100
X12600Y29100
X13600Y29100
X14600Y29100
X15600Y29100
X16600Y29100
X17600Y29100
X18600Y29100
X19600Y29100
X20600Y29100
X21600Y29100
X22600Y29100
X23600Y29100
X24600Y29100
X25600Y29100
X26600Y29100
X27600Y29100
X28600Y29100
X29600Y29100
X30600Y29100
X31600Y29100
X31600Y31100
X30600Y31100
X29600Y31100
X28600Y31100
X27600Y31100
X26600Y31100
X25600Y31100
X24600Y31100
X23600Y31100
X22600Y31100
X21600Y31100
X20600Y31100
X19600Y31100
X18600Y31100
X17600Y31100
X16600Y31100
X15600Y31100
X14600Y31100
X13600Y31100
X12600Y31100
X11600Y31100
X10600Y31100
X9600Y31100
X8600Y31100
X7600Y31100
X6600Y31100
X5600Y31100
X4600Y31100
X3600Y31100
X2600Y31100
X1600Y31100
X600Y31100
T03
X8100Y28100
X9100Y28100
X10100Y28100
X11100Y28100
X12100Y28100
X13100Y28100
X14100Y28100
X15100Y28100
X16100Y28100
X17100Y28100
X18100Y28100
X19100Y28100
X20100Y28100
X21100Y28100
X22100Y28100
X23100Y28100
X24100Y28100
X24100Y6100
X23100Y6100
X22100Y6100
X21100Y6100
X20100Y6100
X19100Y6100
X18100Y6100
X17100Y6100
X16100Y6100
X15100Y6100
X14100Y6100
X13100Y6100
X12100Y6100
X11100Y6100
X10100Y6100
X9100Y6100
X8100Y6100
X8100Y2100
X9100Y2100
X10100Y2100
X11100Y2100
X12100Y2100
X13100Y2100
X14100Y2100
X15100Y2100
X16100Y2100
X17100Y2100
X18100Y2100
X19100Y2100
X20100Y2100
X21100Y2100
X22100Y2100
X23100Y2100
X24100Y2100
T04
X30100Y2100
X30100Y16100
X30100Y30100
X16100Y30100
X2100Y30100
X2100Y16100
X16100Y16100
X2100Y2100
M30
