%
M48
M72
T01C0.0120
T02C0.0236
T03C0.0276
T04C0.0315
T05C0.0394
T06C0.0400
T07C0.1260
%
T01
X9299Y2862
X9890Y3256
X10283Y3256
X11465Y3453
X11858Y3453
X12252Y3256
X12843Y3650
X12449Y4043
X12055Y4437
X11268Y4831
X12449Y5224
X12252Y5815
X10677Y5815
X9496Y5421
X8709Y5421
X7528Y6012
X7528Y6406
X9299Y6799
X12252Y6799
X14614Y5815
X14417Y5421
X13827Y4634
X14811Y4437
X15992Y4634
X16780Y4240
X17370Y4437
X16976Y5224
X16780Y6209
X16189Y6799
X9693Y4240
X9299Y4240
X9299Y3846
X8709Y3650
X9496Y2469
X10480Y1878
X14220Y1484
X14417Y2075
X16386Y2862
X16780Y2862
X17173Y3256
X16583Y3650
X14811Y3453
X18551Y2075
X16976Y1681
X6346Y5224
T02
X15598Y5421
X15598Y3059
T03
X14890Y1041
X13890Y1041
X12890Y1041
X11890Y1041
X10890Y1041
X9890Y1041
X8512Y1173
X8512Y2173
X9890Y7435
X10890Y7435
X11890Y7435
X12890Y7435
X13890Y7435
X14890Y7435
T04
X21803Y5697
X21803Y4697
X21803Y3697
X21803Y2697
X3000Y2697
X3000Y3697
X3000Y4697
X3000Y5697
T05
X18345Y5740
X18345Y4740
X18345Y3740
X18345Y2740
T06
X8028Y3240
X7028Y3240
X4500Y2740
X4500Y3740
X7028Y4240
X8028Y4240
X8028Y5240
X7028Y5240
X4500Y4740
X4500Y5740
X16189Y7390
X17189Y7390
X18189Y7390
T07
X3394Y1287
X3394Y7193
X21504Y7193
X21504Y1287
M30
