%
M48
M72
T01C0.0120
T02C0.0236
T03C0.0276
T04C0.0320
T05C0.0394
T06C0.0400
T07C0.0472
%
T01
X12684Y1152
X14771Y1664
X15046Y1939
X12763Y2215
X15046Y2412
X6779Y1979
X35637Y2254
X37842Y3120
T02
X2881Y2963
X2881Y3750
X2881Y2176
T03
X9456Y4459
X10440Y4459
T04
X11908Y4262
X12908Y4262
X14271Y4262
X15271Y4262
X16633Y4262
X17633Y4262
X18995Y4262
X19995Y4262
X21357Y4262
X22357Y4262
X23719Y4262
X24719Y4262
X26082Y4262
X27082Y4262
X28444Y4262
X29444Y4262
X30806Y4262
X31806Y4262
X33168Y4262
X34168Y4262
X35531Y4262
X36531Y4262
X37893Y4262
X38893Y4262
X8290Y2491
X6290Y2491
X5381Y2498
X6290Y1506
X5381Y1498
X8290Y1506
T05
X1385Y916
X2094Y2963
X1385Y5050
X19613Y2963
X21779Y2963
X39298Y2963
X39968Y916
X39968Y5050
T06
X7405Y4467
X6405Y4467
X5405Y4467
X5405Y3467
X6405Y3467
X7405Y3467
T07
X2881Y4636
X2881Y1290
M30
