G75*
G70*
%OFA0B0*%
%FSLAX24Y24*%
%IPPOS*%
%LPD*%
%AMOC8*
5,1,8,0,0,1.08239X$1,22.5*
%
%ADD10C,0.0000*%
%ADD11C,0.0060*%
%ADD12C,0.0100*%
D10*
X001100Y000100D02*
X017100Y000100D01*
X017160Y000102D01*
X017221Y000107D01*
X017280Y000116D01*
X017339Y000129D01*
X017398Y000145D01*
X017455Y000165D01*
X017510Y000188D01*
X017565Y000215D01*
X017617Y000244D01*
X017668Y000277D01*
X017717Y000313D01*
X017763Y000351D01*
X017807Y000393D01*
X017849Y000437D01*
X017887Y000483D01*
X017923Y000532D01*
X017956Y000583D01*
X017985Y000635D01*
X018012Y000690D01*
X018035Y000745D01*
X018055Y000802D01*
X018071Y000861D01*
X018084Y000920D01*
X018093Y000979D01*
X018098Y001040D01*
X018100Y001100D01*
X018100Y017100D01*
X018098Y017160D01*
X018093Y017221D01*
X018084Y017280D01*
X018071Y017339D01*
X018055Y017398D01*
X018035Y017455D01*
X018012Y017510D01*
X017985Y017565D01*
X017956Y017617D01*
X017923Y017668D01*
X017887Y017717D01*
X017849Y017763D01*
X017807Y017807D01*
X017763Y017849D01*
X017717Y017887D01*
X017668Y017923D01*
X017617Y017956D01*
X017565Y017985D01*
X017510Y018012D01*
X017455Y018035D01*
X017398Y018055D01*
X017339Y018071D01*
X017280Y018084D01*
X017221Y018093D01*
X017160Y018098D01*
X017100Y018100D01*
X001100Y018100D01*
X001040Y018098D01*
X000979Y018093D01*
X000920Y018084D01*
X000861Y018071D01*
X000802Y018055D01*
X000745Y018035D01*
X000690Y018012D01*
X000635Y017985D01*
X000583Y017956D01*
X000532Y017923D01*
X000483Y017887D01*
X000437Y017849D01*
X000393Y017807D01*
X000351Y017763D01*
X000313Y017717D01*
X000277Y017668D01*
X000244Y017617D01*
X000215Y017565D01*
X000188Y017510D01*
X000165Y017455D01*
X000145Y017398D01*
X000129Y017339D01*
X000116Y017280D01*
X000107Y017221D01*
X000102Y017160D01*
X000100Y017100D01*
X000100Y001100D01*
X000102Y001040D01*
X000107Y000979D01*
X000116Y000920D01*
X000129Y000861D01*
X000145Y000802D01*
X000165Y000745D01*
X000188Y000690D01*
X000215Y000635D01*
X000244Y000583D01*
X000277Y000532D01*
X000313Y000483D01*
X000351Y000437D01*
X000393Y000393D01*
X000437Y000351D01*
X000483Y000313D01*
X000532Y000277D01*
X000583Y000244D01*
X000635Y000215D01*
X000690Y000188D01*
X000745Y000165D01*
X000802Y000145D01*
X000861Y000129D01*
X000920Y000116D01*
X000979Y000107D01*
X001040Y000102D01*
X001100Y000100D01*
X001470Y002100D02*
X001472Y002150D01*
X001478Y002200D01*
X001488Y002249D01*
X001502Y002297D01*
X001519Y002344D01*
X001540Y002389D01*
X001565Y002433D01*
X001593Y002474D01*
X001625Y002513D01*
X001659Y002550D01*
X001696Y002584D01*
X001736Y002614D01*
X001778Y002641D01*
X001822Y002665D01*
X001868Y002686D01*
X001915Y002702D01*
X001963Y002715D01*
X002013Y002724D01*
X002062Y002729D01*
X002113Y002730D01*
X002163Y002727D01*
X002212Y002720D01*
X002261Y002709D01*
X002309Y002694D01*
X002355Y002676D01*
X002400Y002654D01*
X002443Y002628D01*
X002484Y002599D01*
X002523Y002567D01*
X002559Y002532D01*
X002591Y002494D01*
X002621Y002454D01*
X002648Y002411D01*
X002671Y002367D01*
X002690Y002321D01*
X002706Y002273D01*
X002718Y002224D01*
X002726Y002175D01*
X002730Y002125D01*
X002730Y002075D01*
X002726Y002025D01*
X002718Y001976D01*
X002706Y001927D01*
X002690Y001879D01*
X002671Y001833D01*
X002648Y001789D01*
X002621Y001746D01*
X002591Y001706D01*
X002559Y001668D01*
X002523Y001633D01*
X002484Y001601D01*
X002443Y001572D01*
X002400Y001546D01*
X002355Y001524D01*
X002309Y001506D01*
X002261Y001491D01*
X002212Y001480D01*
X002163Y001473D01*
X002113Y001470D01*
X002062Y001471D01*
X002013Y001476D01*
X001963Y001485D01*
X001915Y001498D01*
X001868Y001514D01*
X001822Y001535D01*
X001778Y001559D01*
X001736Y001586D01*
X001696Y001616D01*
X001659Y001650D01*
X001625Y001687D01*
X001593Y001726D01*
X001565Y001767D01*
X001540Y001811D01*
X001519Y001856D01*
X001502Y001903D01*
X001488Y001951D01*
X001478Y002000D01*
X001472Y002050D01*
X001470Y002100D01*
X001470Y016100D02*
X001472Y016150D01*
X001478Y016200D01*
X001488Y016249D01*
X001502Y016297D01*
X001519Y016344D01*
X001540Y016389D01*
X001565Y016433D01*
X001593Y016474D01*
X001625Y016513D01*
X001659Y016550D01*
X001696Y016584D01*
X001736Y016614D01*
X001778Y016641D01*
X001822Y016665D01*
X001868Y016686D01*
X001915Y016702D01*
X001963Y016715D01*
X002013Y016724D01*
X002062Y016729D01*
X002113Y016730D01*
X002163Y016727D01*
X002212Y016720D01*
X002261Y016709D01*
X002309Y016694D01*
X002355Y016676D01*
X002400Y016654D01*
X002443Y016628D01*
X002484Y016599D01*
X002523Y016567D01*
X002559Y016532D01*
X002591Y016494D01*
X002621Y016454D01*
X002648Y016411D01*
X002671Y016367D01*
X002690Y016321D01*
X002706Y016273D01*
X002718Y016224D01*
X002726Y016175D01*
X002730Y016125D01*
X002730Y016075D01*
X002726Y016025D01*
X002718Y015976D01*
X002706Y015927D01*
X002690Y015879D01*
X002671Y015833D01*
X002648Y015789D01*
X002621Y015746D01*
X002591Y015706D01*
X002559Y015668D01*
X002523Y015633D01*
X002484Y015601D01*
X002443Y015572D01*
X002400Y015546D01*
X002355Y015524D01*
X002309Y015506D01*
X002261Y015491D01*
X002212Y015480D01*
X002163Y015473D01*
X002113Y015470D01*
X002062Y015471D01*
X002013Y015476D01*
X001963Y015485D01*
X001915Y015498D01*
X001868Y015514D01*
X001822Y015535D01*
X001778Y015559D01*
X001736Y015586D01*
X001696Y015616D01*
X001659Y015650D01*
X001625Y015687D01*
X001593Y015726D01*
X001565Y015767D01*
X001540Y015811D01*
X001519Y015856D01*
X001502Y015903D01*
X001488Y015951D01*
X001478Y016000D01*
X001472Y016050D01*
X001470Y016100D01*
X015470Y016100D02*
X015472Y016150D01*
X015478Y016200D01*
X015488Y016249D01*
X015502Y016297D01*
X015519Y016344D01*
X015540Y016389D01*
X015565Y016433D01*
X015593Y016474D01*
X015625Y016513D01*
X015659Y016550D01*
X015696Y016584D01*
X015736Y016614D01*
X015778Y016641D01*
X015822Y016665D01*
X015868Y016686D01*
X015915Y016702D01*
X015963Y016715D01*
X016013Y016724D01*
X016062Y016729D01*
X016113Y016730D01*
X016163Y016727D01*
X016212Y016720D01*
X016261Y016709D01*
X016309Y016694D01*
X016355Y016676D01*
X016400Y016654D01*
X016443Y016628D01*
X016484Y016599D01*
X016523Y016567D01*
X016559Y016532D01*
X016591Y016494D01*
X016621Y016454D01*
X016648Y016411D01*
X016671Y016367D01*
X016690Y016321D01*
X016706Y016273D01*
X016718Y016224D01*
X016726Y016175D01*
X016730Y016125D01*
X016730Y016075D01*
X016726Y016025D01*
X016718Y015976D01*
X016706Y015927D01*
X016690Y015879D01*
X016671Y015833D01*
X016648Y015789D01*
X016621Y015746D01*
X016591Y015706D01*
X016559Y015668D01*
X016523Y015633D01*
X016484Y015601D01*
X016443Y015572D01*
X016400Y015546D01*
X016355Y015524D01*
X016309Y015506D01*
X016261Y015491D01*
X016212Y015480D01*
X016163Y015473D01*
X016113Y015470D01*
X016062Y015471D01*
X016013Y015476D01*
X015963Y015485D01*
X015915Y015498D01*
X015868Y015514D01*
X015822Y015535D01*
X015778Y015559D01*
X015736Y015586D01*
X015696Y015616D01*
X015659Y015650D01*
X015625Y015687D01*
X015593Y015726D01*
X015565Y015767D01*
X015540Y015811D01*
X015519Y015856D01*
X015502Y015903D01*
X015488Y015951D01*
X015478Y016000D01*
X015472Y016050D01*
X015470Y016100D01*
X015470Y002100D02*
X015472Y002150D01*
X015478Y002200D01*
X015488Y002249D01*
X015502Y002297D01*
X015519Y002344D01*
X015540Y002389D01*
X015565Y002433D01*
X015593Y002474D01*
X015625Y002513D01*
X015659Y002550D01*
X015696Y002584D01*
X015736Y002614D01*
X015778Y002641D01*
X015822Y002665D01*
X015868Y002686D01*
X015915Y002702D01*
X015963Y002715D01*
X016013Y002724D01*
X016062Y002729D01*
X016113Y002730D01*
X016163Y002727D01*
X016212Y002720D01*
X016261Y002709D01*
X016309Y002694D01*
X016355Y002676D01*
X016400Y002654D01*
X016443Y002628D01*
X016484Y002599D01*
X016523Y002567D01*
X016559Y002532D01*
X016591Y002494D01*
X016621Y002454D01*
X016648Y002411D01*
X016671Y002367D01*
X016690Y002321D01*
X016706Y002273D01*
X016718Y002224D01*
X016726Y002175D01*
X016730Y002125D01*
X016730Y002075D01*
X016726Y002025D01*
X016718Y001976D01*
X016706Y001927D01*
X016690Y001879D01*
X016671Y001833D01*
X016648Y001789D01*
X016621Y001746D01*
X016591Y001706D01*
X016559Y001668D01*
X016523Y001633D01*
X016484Y001601D01*
X016443Y001572D01*
X016400Y001546D01*
X016355Y001524D01*
X016309Y001506D01*
X016261Y001491D01*
X016212Y001480D01*
X016163Y001473D01*
X016113Y001470D01*
X016062Y001471D01*
X016013Y001476D01*
X015963Y001485D01*
X015915Y001498D01*
X015868Y001514D01*
X015822Y001535D01*
X015778Y001559D01*
X015736Y001586D01*
X015696Y001616D01*
X015659Y001650D01*
X015625Y001687D01*
X015593Y001726D01*
X015565Y001767D01*
X015540Y001811D01*
X015519Y001856D01*
X015502Y001903D01*
X015488Y001951D01*
X015478Y002000D01*
X015472Y002050D01*
X015470Y002100D01*
D11*
X014626Y000732D02*
X014656Y000697D01*
X014687Y000664D01*
X014722Y000634D01*
X014758Y000607D01*
X014796Y000583D01*
X014836Y000561D01*
X014878Y000543D01*
X014921Y000527D01*
X014965Y000515D01*
X015009Y000507D01*
X015055Y000502D01*
X015100Y000500D01*
X014620Y001460D02*
X014649Y001496D01*
X014681Y001530D01*
X014716Y001561D01*
X014752Y001589D01*
X014791Y001614D01*
X014832Y001637D01*
X014874Y001656D01*
X014917Y001672D01*
X014962Y001684D01*
X015008Y001693D01*
X015054Y001698D01*
X015100Y001700D01*
X015574Y000732D02*
X015544Y000697D01*
X015513Y000664D01*
X015478Y000634D01*
X015442Y000607D01*
X015404Y000583D01*
X015364Y000561D01*
X015322Y000543D01*
X015279Y000527D01*
X015235Y000515D01*
X015191Y000507D01*
X015145Y000502D01*
X015100Y000500D01*
X015588Y001449D02*
X015559Y001486D01*
X015527Y001521D01*
X015492Y001554D01*
X015455Y001584D01*
X015416Y001610D01*
X015375Y001633D01*
X015331Y001654D01*
X015287Y001670D01*
X015241Y001683D01*
X015195Y001692D01*
X015147Y001698D01*
X015100Y001700D01*
X014620Y003460D02*
X014649Y003496D01*
X014681Y003530D01*
X014716Y003561D01*
X014752Y003589D01*
X014791Y003614D01*
X014832Y003637D01*
X014874Y003656D01*
X014917Y003672D01*
X014962Y003684D01*
X015008Y003693D01*
X015054Y003698D01*
X015100Y003700D01*
X014626Y002732D02*
X014656Y002697D01*
X014687Y002664D01*
X014722Y002634D01*
X014758Y002607D01*
X014796Y002583D01*
X014836Y002561D01*
X014878Y002543D01*
X014921Y002527D01*
X014965Y002515D01*
X015009Y002507D01*
X015055Y002502D01*
X015100Y002500D01*
X015588Y003449D02*
X015559Y003486D01*
X015527Y003521D01*
X015492Y003554D01*
X015455Y003584D01*
X015416Y003610D01*
X015375Y003633D01*
X015331Y003654D01*
X015287Y003670D01*
X015241Y003683D01*
X015195Y003692D01*
X015147Y003698D01*
X015100Y003700D01*
X015574Y002732D02*
X015544Y002697D01*
X015513Y002664D01*
X015478Y002634D01*
X015442Y002607D01*
X015404Y002583D01*
X015364Y002561D01*
X015322Y002543D01*
X015279Y002527D01*
X015235Y002515D01*
X015191Y002507D01*
X015145Y002502D01*
X015100Y002500D01*
X013100Y002500D02*
X013055Y002502D01*
X013009Y002507D01*
X012965Y002515D01*
X012921Y002527D01*
X012878Y002543D01*
X012836Y002561D01*
X012796Y002583D01*
X012758Y002607D01*
X012722Y002634D01*
X012687Y002664D01*
X012656Y002697D01*
X012626Y002732D01*
X013100Y003700D02*
X013147Y003698D01*
X013195Y003692D01*
X013241Y003683D01*
X013287Y003670D01*
X013331Y003654D01*
X013375Y003633D01*
X013416Y003610D01*
X013455Y003584D01*
X013492Y003554D01*
X013527Y003521D01*
X013559Y003486D01*
X013588Y003449D01*
X013100Y003700D02*
X013054Y003698D01*
X013008Y003693D01*
X012962Y003684D01*
X012917Y003672D01*
X012874Y003656D01*
X012832Y003637D01*
X012791Y003614D01*
X012752Y003589D01*
X012716Y003561D01*
X012681Y003530D01*
X012649Y003496D01*
X012620Y003460D01*
X013100Y002500D02*
X013145Y002502D01*
X013191Y002507D01*
X013235Y002515D01*
X013279Y002527D01*
X013322Y002543D01*
X013364Y002561D01*
X013404Y002583D01*
X013442Y002607D01*
X013478Y002634D01*
X013513Y002664D01*
X013544Y002697D01*
X013574Y002732D01*
X012626Y000732D02*
X012656Y000697D01*
X012687Y000664D01*
X012722Y000634D01*
X012758Y000607D01*
X012796Y000583D01*
X012836Y000561D01*
X012878Y000543D01*
X012921Y000527D01*
X012965Y000515D01*
X013009Y000507D01*
X013055Y000502D01*
X013100Y000500D01*
X012620Y001460D02*
X012649Y001496D01*
X012681Y001530D01*
X012716Y001561D01*
X012752Y001589D01*
X012791Y001614D01*
X012832Y001637D01*
X012874Y001656D01*
X012917Y001672D01*
X012962Y001684D01*
X013008Y001693D01*
X013054Y001698D01*
X013100Y001700D01*
X013574Y000732D02*
X013544Y000697D01*
X013513Y000664D01*
X013478Y000634D01*
X013442Y000607D01*
X013404Y000583D01*
X013364Y000561D01*
X013322Y000543D01*
X013279Y000527D01*
X013235Y000515D01*
X013191Y000507D01*
X013145Y000502D01*
X013100Y000500D01*
X013588Y001449D02*
X013559Y001486D01*
X013527Y001521D01*
X013492Y001554D01*
X013455Y001584D01*
X013416Y001610D01*
X013375Y001633D01*
X013331Y001654D01*
X013287Y001670D01*
X013241Y001683D01*
X013195Y001692D01*
X013147Y001698D01*
X013100Y001700D01*
X011100Y000500D02*
X011055Y000502D01*
X011009Y000507D01*
X010965Y000515D01*
X010921Y000527D01*
X010878Y000543D01*
X010836Y000561D01*
X010796Y000583D01*
X010758Y000607D01*
X010722Y000634D01*
X010687Y000664D01*
X010656Y000697D01*
X010626Y000732D01*
X011100Y001700D02*
X011147Y001698D01*
X011195Y001692D01*
X011241Y001683D01*
X011287Y001670D01*
X011331Y001654D01*
X011375Y001633D01*
X011416Y001610D01*
X011455Y001584D01*
X011492Y001554D01*
X011527Y001521D01*
X011559Y001486D01*
X011588Y001449D01*
X011100Y001700D02*
X011054Y001698D01*
X011008Y001693D01*
X010962Y001684D01*
X010917Y001672D01*
X010874Y001656D01*
X010832Y001637D01*
X010791Y001614D01*
X010752Y001589D01*
X010716Y001561D01*
X010681Y001530D01*
X010649Y001496D01*
X010620Y001460D01*
X011100Y000500D02*
X011145Y000502D01*
X011191Y000507D01*
X011235Y000515D01*
X011279Y000527D01*
X011322Y000543D01*
X011364Y000561D01*
X011404Y000583D01*
X011442Y000607D01*
X011478Y000634D01*
X011513Y000664D01*
X011544Y000697D01*
X011574Y000732D01*
X010620Y003460D02*
X010649Y003496D01*
X010681Y003530D01*
X010716Y003561D01*
X010752Y003589D01*
X010791Y003614D01*
X010832Y003637D01*
X010874Y003656D01*
X010917Y003672D01*
X010962Y003684D01*
X011008Y003693D01*
X011054Y003698D01*
X011100Y003700D01*
X010626Y002732D02*
X010656Y002697D01*
X010687Y002664D01*
X010722Y002634D01*
X010758Y002607D01*
X010796Y002583D01*
X010836Y002561D01*
X010878Y002543D01*
X010921Y002527D01*
X010965Y002515D01*
X011009Y002507D01*
X011055Y002502D01*
X011100Y002500D01*
X011588Y003449D02*
X011559Y003486D01*
X011527Y003521D01*
X011492Y003554D01*
X011455Y003584D01*
X011416Y003610D01*
X011375Y003633D01*
X011331Y003654D01*
X011287Y003670D01*
X011241Y003683D01*
X011195Y003692D01*
X011147Y003698D01*
X011100Y003700D01*
X011574Y002732D02*
X011544Y002697D01*
X011513Y002664D01*
X011478Y002634D01*
X011442Y002607D01*
X011404Y002583D01*
X011364Y002561D01*
X011322Y002543D01*
X011279Y002527D01*
X011235Y002515D01*
X011191Y002507D01*
X011145Y002502D01*
X011100Y002500D01*
X009100Y002500D02*
X009055Y002502D01*
X009009Y002507D01*
X008965Y002515D01*
X008921Y002527D01*
X008878Y002543D01*
X008836Y002561D01*
X008796Y002583D01*
X008758Y002607D01*
X008722Y002634D01*
X008687Y002664D01*
X008656Y002697D01*
X008626Y002732D01*
X009100Y003700D02*
X009147Y003698D01*
X009195Y003692D01*
X009241Y003683D01*
X009287Y003670D01*
X009331Y003654D01*
X009375Y003633D01*
X009416Y003610D01*
X009455Y003584D01*
X009492Y003554D01*
X009527Y003521D01*
X009559Y003486D01*
X009588Y003449D01*
X009100Y003700D02*
X009054Y003698D01*
X009008Y003693D01*
X008962Y003684D01*
X008917Y003672D01*
X008874Y003656D01*
X008832Y003637D01*
X008791Y003614D01*
X008752Y003589D01*
X008716Y003561D01*
X008681Y003530D01*
X008649Y003496D01*
X008620Y003460D01*
X009100Y002500D02*
X009145Y002502D01*
X009191Y002507D01*
X009235Y002515D01*
X009279Y002527D01*
X009322Y002543D01*
X009364Y002561D01*
X009404Y002583D01*
X009442Y002607D01*
X009478Y002634D01*
X009513Y002664D01*
X009544Y002697D01*
X009574Y002732D01*
X008626Y000732D02*
X008656Y000697D01*
X008687Y000664D01*
X008722Y000634D01*
X008758Y000607D01*
X008796Y000583D01*
X008836Y000561D01*
X008878Y000543D01*
X008921Y000527D01*
X008965Y000515D01*
X009009Y000507D01*
X009055Y000502D01*
X009100Y000500D01*
X008620Y001460D02*
X008649Y001496D01*
X008681Y001530D01*
X008716Y001561D01*
X008752Y001589D01*
X008791Y001614D01*
X008832Y001637D01*
X008874Y001656D01*
X008917Y001672D01*
X008962Y001684D01*
X009008Y001693D01*
X009054Y001698D01*
X009100Y001700D01*
X009574Y000732D02*
X009544Y000697D01*
X009513Y000664D01*
X009478Y000634D01*
X009442Y000607D01*
X009404Y000583D01*
X009364Y000561D01*
X009322Y000543D01*
X009279Y000527D01*
X009235Y000515D01*
X009191Y000507D01*
X009145Y000502D01*
X009100Y000500D01*
X009588Y001449D02*
X009559Y001486D01*
X009527Y001521D01*
X009492Y001554D01*
X009455Y001584D01*
X009416Y001610D01*
X009375Y001633D01*
X009331Y001654D01*
X009287Y001670D01*
X009241Y001683D01*
X009195Y001692D01*
X009147Y001698D01*
X009100Y001700D01*
X007100Y000500D02*
X007055Y000502D01*
X007009Y000507D01*
X006965Y000515D01*
X006921Y000527D01*
X006878Y000543D01*
X006836Y000561D01*
X006796Y000583D01*
X006758Y000607D01*
X006722Y000634D01*
X006687Y000664D01*
X006656Y000697D01*
X006626Y000732D01*
X007100Y001700D02*
X007147Y001698D01*
X007195Y001692D01*
X007241Y001683D01*
X007287Y001670D01*
X007331Y001654D01*
X007375Y001633D01*
X007416Y001610D01*
X007455Y001584D01*
X007492Y001554D01*
X007527Y001521D01*
X007559Y001486D01*
X007588Y001449D01*
X007100Y001700D02*
X007054Y001698D01*
X007008Y001693D01*
X006962Y001684D01*
X006917Y001672D01*
X006874Y001656D01*
X006832Y001637D01*
X006791Y001614D01*
X006752Y001589D01*
X006716Y001561D01*
X006681Y001530D01*
X006649Y001496D01*
X006620Y001460D01*
X007100Y000500D02*
X007145Y000502D01*
X007191Y000507D01*
X007235Y000515D01*
X007279Y000527D01*
X007322Y000543D01*
X007364Y000561D01*
X007404Y000583D01*
X007442Y000607D01*
X007478Y000634D01*
X007513Y000664D01*
X007544Y000697D01*
X007574Y000732D01*
X006620Y003460D02*
X006649Y003496D01*
X006681Y003530D01*
X006716Y003561D01*
X006752Y003589D01*
X006791Y003614D01*
X006832Y003637D01*
X006874Y003656D01*
X006917Y003672D01*
X006962Y003684D01*
X007008Y003693D01*
X007054Y003698D01*
X007100Y003700D01*
X006626Y002732D02*
X006656Y002697D01*
X006687Y002664D01*
X006722Y002634D01*
X006758Y002607D01*
X006796Y002583D01*
X006836Y002561D01*
X006878Y002543D01*
X006921Y002527D01*
X006965Y002515D01*
X007009Y002507D01*
X007055Y002502D01*
X007100Y002500D01*
X007588Y003449D02*
X007559Y003486D01*
X007527Y003521D01*
X007492Y003554D01*
X007455Y003584D01*
X007416Y003610D01*
X007375Y003633D01*
X007331Y003654D01*
X007287Y003670D01*
X007241Y003683D01*
X007195Y003692D01*
X007147Y003698D01*
X007100Y003700D01*
X007574Y002732D02*
X007544Y002697D01*
X007513Y002664D01*
X007478Y002634D01*
X007442Y002607D01*
X007404Y002583D01*
X007364Y002561D01*
X007322Y002543D01*
X007279Y002527D01*
X007235Y002515D01*
X007191Y002507D01*
X007145Y002502D01*
X007100Y002500D01*
X005100Y002500D02*
X005055Y002502D01*
X005009Y002507D01*
X004965Y002515D01*
X004921Y002527D01*
X004878Y002543D01*
X004836Y002561D01*
X004796Y002583D01*
X004758Y002607D01*
X004722Y002634D01*
X004687Y002664D01*
X004656Y002697D01*
X004626Y002732D01*
X005100Y003700D02*
X005147Y003698D01*
X005195Y003692D01*
X005241Y003683D01*
X005287Y003670D01*
X005331Y003654D01*
X005375Y003633D01*
X005416Y003610D01*
X005455Y003584D01*
X005492Y003554D01*
X005527Y003521D01*
X005559Y003486D01*
X005588Y003449D01*
X005100Y003700D02*
X005054Y003698D01*
X005008Y003693D01*
X004962Y003684D01*
X004917Y003672D01*
X004874Y003656D01*
X004832Y003637D01*
X004791Y003614D01*
X004752Y003589D01*
X004716Y003561D01*
X004681Y003530D01*
X004649Y003496D01*
X004620Y003460D01*
X005100Y002500D02*
X005145Y002502D01*
X005191Y002507D01*
X005235Y002515D01*
X005279Y002527D01*
X005322Y002543D01*
X005364Y002561D01*
X005404Y002583D01*
X005442Y002607D01*
X005478Y002634D01*
X005513Y002664D01*
X005544Y002697D01*
X005574Y002732D01*
X004626Y000732D02*
X004656Y000697D01*
X004687Y000664D01*
X004722Y000634D01*
X004758Y000607D01*
X004796Y000583D01*
X004836Y000561D01*
X004878Y000543D01*
X004921Y000527D01*
X004965Y000515D01*
X005009Y000507D01*
X005055Y000502D01*
X005100Y000500D01*
X004620Y001460D02*
X004649Y001496D01*
X004681Y001530D01*
X004716Y001561D01*
X004752Y001589D01*
X004791Y001614D01*
X004832Y001637D01*
X004874Y001656D01*
X004917Y001672D01*
X004962Y001684D01*
X005008Y001693D01*
X005054Y001698D01*
X005100Y001700D01*
X005574Y000732D02*
X005544Y000697D01*
X005513Y000664D01*
X005478Y000634D01*
X005442Y000607D01*
X005404Y000583D01*
X005364Y000561D01*
X005322Y000543D01*
X005279Y000527D01*
X005235Y000515D01*
X005191Y000507D01*
X005145Y000502D01*
X005100Y000500D01*
X005588Y001449D02*
X005559Y001486D01*
X005527Y001521D01*
X005492Y001554D01*
X005455Y001584D01*
X005416Y001610D01*
X005375Y001633D01*
X005331Y001654D01*
X005287Y001670D01*
X005241Y001683D01*
X005195Y001692D01*
X005147Y001698D01*
X005100Y001700D01*
X003100Y000500D02*
X003055Y000502D01*
X003009Y000507D01*
X002965Y000515D01*
X002921Y000527D01*
X002878Y000543D01*
X002836Y000561D01*
X002796Y000583D01*
X002758Y000607D01*
X002722Y000634D01*
X002687Y000664D01*
X002656Y000697D01*
X002626Y000732D01*
X003100Y001700D02*
X003147Y001698D01*
X003195Y001692D01*
X003241Y001683D01*
X003287Y001670D01*
X003331Y001654D01*
X003375Y001633D01*
X003416Y001610D01*
X003455Y001584D01*
X003492Y001554D01*
X003527Y001521D01*
X003559Y001486D01*
X003588Y001449D01*
X003100Y001700D02*
X003054Y001698D01*
X003008Y001693D01*
X002962Y001684D01*
X002917Y001672D01*
X002874Y001656D01*
X002832Y001637D01*
X002791Y001614D01*
X002752Y001589D01*
X002716Y001561D01*
X002681Y001530D01*
X002649Y001496D01*
X002620Y001460D01*
X003100Y000500D02*
X003145Y000502D01*
X003191Y000507D01*
X003235Y000515D01*
X003279Y000527D01*
X003322Y000543D01*
X003364Y000561D01*
X003404Y000583D01*
X003442Y000607D01*
X003478Y000634D01*
X003513Y000664D01*
X003544Y000697D01*
X003574Y000732D01*
X002620Y003460D02*
X002649Y003496D01*
X002681Y003530D01*
X002716Y003561D01*
X002752Y003589D01*
X002791Y003614D01*
X002832Y003637D01*
X002874Y003656D01*
X002917Y003672D01*
X002962Y003684D01*
X003008Y003693D01*
X003054Y003698D01*
X003100Y003700D01*
X002626Y002732D02*
X002656Y002697D01*
X002687Y002664D01*
X002722Y002634D01*
X002758Y002607D01*
X002796Y002583D01*
X002836Y002561D01*
X002878Y002543D01*
X002921Y002527D01*
X002965Y002515D01*
X003009Y002507D01*
X003055Y002502D01*
X003100Y002500D01*
X003588Y003449D02*
X003559Y003486D01*
X003527Y003521D01*
X003492Y003554D01*
X003455Y003584D01*
X003416Y003610D01*
X003375Y003633D01*
X003331Y003654D01*
X003287Y003670D01*
X003241Y003683D01*
X003195Y003692D01*
X003147Y003698D01*
X003100Y003700D01*
X003574Y002732D02*
X003544Y002697D01*
X003513Y002664D01*
X003478Y002634D01*
X003442Y002607D01*
X003404Y002583D01*
X003364Y002561D01*
X003322Y002543D01*
X003279Y002527D01*
X003235Y002515D01*
X003191Y002507D01*
X003145Y002502D01*
X003100Y002500D01*
X001100Y002500D02*
X001055Y002502D01*
X001009Y002507D01*
X000965Y002515D01*
X000921Y002527D01*
X000878Y002543D01*
X000836Y002561D01*
X000796Y002583D01*
X000758Y002607D01*
X000722Y002634D01*
X000687Y002664D01*
X000656Y002697D01*
X000626Y002732D01*
X001100Y003700D02*
X001147Y003698D01*
X001195Y003692D01*
X001241Y003683D01*
X001287Y003670D01*
X001331Y003654D01*
X001375Y003633D01*
X001416Y003610D01*
X001455Y003584D01*
X001492Y003554D01*
X001527Y003521D01*
X001559Y003486D01*
X001588Y003449D01*
X001100Y003700D02*
X001054Y003698D01*
X001008Y003693D01*
X000962Y003684D01*
X000917Y003672D01*
X000874Y003656D01*
X000832Y003637D01*
X000791Y003614D01*
X000752Y003589D01*
X000716Y003561D01*
X000681Y003530D01*
X000649Y003496D01*
X000620Y003460D01*
X001100Y002500D02*
X001145Y002502D01*
X001191Y002507D01*
X001235Y002515D01*
X001279Y002527D01*
X001322Y002543D01*
X001364Y002561D01*
X001404Y002583D01*
X001442Y002607D01*
X001478Y002634D01*
X001513Y002664D01*
X001544Y002697D01*
X001574Y002732D01*
X000626Y000732D02*
X000656Y000697D01*
X000687Y000664D01*
X000722Y000634D01*
X000758Y000607D01*
X000796Y000583D01*
X000836Y000561D01*
X000878Y000543D01*
X000921Y000527D01*
X000965Y000515D01*
X001009Y000507D01*
X001055Y000502D01*
X001100Y000500D01*
X000620Y001460D02*
X000649Y001496D01*
X000681Y001530D01*
X000716Y001561D01*
X000752Y001589D01*
X000791Y001614D01*
X000832Y001637D01*
X000874Y001656D01*
X000917Y001672D01*
X000962Y001684D01*
X001008Y001693D01*
X001054Y001698D01*
X001100Y001700D01*
X001574Y000732D02*
X001544Y000697D01*
X001513Y000664D01*
X001478Y000634D01*
X001442Y000607D01*
X001404Y000583D01*
X001364Y000561D01*
X001322Y000543D01*
X001279Y000527D01*
X001235Y000515D01*
X001191Y000507D01*
X001145Y000502D01*
X001100Y000500D01*
X001588Y001449D02*
X001559Y001486D01*
X001527Y001521D01*
X001492Y001554D01*
X001455Y001584D01*
X001416Y001610D01*
X001375Y001633D01*
X001331Y001654D01*
X001287Y001670D01*
X001241Y001683D01*
X001195Y001692D01*
X001147Y001698D01*
X001100Y001700D01*
X000620Y005460D02*
X000649Y005496D01*
X000681Y005530D01*
X000716Y005561D01*
X000752Y005589D01*
X000791Y005614D01*
X000832Y005637D01*
X000874Y005656D01*
X000917Y005672D01*
X000962Y005684D01*
X001008Y005693D01*
X001054Y005698D01*
X001100Y005700D01*
X000626Y004732D02*
X000656Y004697D01*
X000687Y004664D01*
X000722Y004634D01*
X000758Y004607D01*
X000796Y004583D01*
X000836Y004561D01*
X000878Y004543D01*
X000921Y004527D01*
X000965Y004515D01*
X001009Y004507D01*
X001055Y004502D01*
X001100Y004500D01*
X001588Y005449D02*
X001559Y005486D01*
X001527Y005521D01*
X001492Y005554D01*
X001455Y005584D01*
X001416Y005610D01*
X001375Y005633D01*
X001331Y005654D01*
X001287Y005670D01*
X001241Y005683D01*
X001195Y005692D01*
X001147Y005698D01*
X001100Y005700D01*
X001574Y004732D02*
X001544Y004697D01*
X001513Y004664D01*
X001478Y004634D01*
X001442Y004607D01*
X001404Y004583D01*
X001364Y004561D01*
X001322Y004543D01*
X001279Y004527D01*
X001235Y004515D01*
X001191Y004507D01*
X001145Y004502D01*
X001100Y004500D01*
X003100Y005700D02*
X003147Y005698D01*
X003195Y005692D01*
X003241Y005683D01*
X003287Y005670D01*
X003331Y005654D01*
X003375Y005633D01*
X003416Y005610D01*
X003455Y005584D01*
X003492Y005554D01*
X003527Y005521D01*
X003559Y005486D01*
X003588Y005449D01*
X003100Y004500D02*
X003055Y004502D01*
X003009Y004507D01*
X002965Y004515D01*
X002921Y004527D01*
X002878Y004543D01*
X002836Y004561D01*
X002796Y004583D01*
X002758Y004607D01*
X002722Y004634D01*
X002687Y004664D01*
X002656Y004697D01*
X002626Y004732D01*
X003100Y004500D02*
X003145Y004502D01*
X003191Y004507D01*
X003235Y004515D01*
X003279Y004527D01*
X003322Y004543D01*
X003364Y004561D01*
X003404Y004583D01*
X003442Y004607D01*
X003478Y004634D01*
X003513Y004664D01*
X003544Y004697D01*
X003574Y004732D01*
X003100Y005700D02*
X003054Y005698D01*
X003008Y005693D01*
X002962Y005684D01*
X002917Y005672D01*
X002874Y005656D01*
X002832Y005637D01*
X002791Y005614D01*
X002752Y005589D01*
X002716Y005561D01*
X002681Y005530D01*
X002649Y005496D01*
X002620Y005460D01*
X003588Y007449D02*
X003559Y007486D01*
X003527Y007521D01*
X003492Y007554D01*
X003455Y007584D01*
X003416Y007610D01*
X003375Y007633D01*
X003331Y007654D01*
X003287Y007670D01*
X003241Y007683D01*
X003195Y007692D01*
X003147Y007698D01*
X003100Y007700D01*
X002626Y006732D02*
X002656Y006697D01*
X002687Y006664D01*
X002722Y006634D01*
X002758Y006607D01*
X002796Y006583D01*
X002836Y006561D01*
X002878Y006543D01*
X002921Y006527D01*
X002965Y006515D01*
X003009Y006507D01*
X003055Y006502D01*
X003100Y006500D01*
X002620Y007460D02*
X002649Y007496D01*
X002681Y007530D01*
X002716Y007561D01*
X002752Y007589D01*
X002791Y007614D01*
X002832Y007637D01*
X002874Y007656D01*
X002917Y007672D01*
X002962Y007684D01*
X003008Y007693D01*
X003054Y007698D01*
X003100Y007700D01*
X003574Y006732D02*
X003544Y006697D01*
X003513Y006664D01*
X003478Y006634D01*
X003442Y006607D01*
X003404Y006583D01*
X003364Y006561D01*
X003322Y006543D01*
X003279Y006527D01*
X003235Y006515D01*
X003191Y006507D01*
X003145Y006502D01*
X003100Y006500D01*
X005100Y007700D02*
X005147Y007698D01*
X005195Y007692D01*
X005241Y007683D01*
X005287Y007670D01*
X005331Y007654D01*
X005375Y007633D01*
X005416Y007610D01*
X005455Y007584D01*
X005492Y007554D01*
X005527Y007521D01*
X005559Y007486D01*
X005588Y007449D01*
X005100Y006500D02*
X005055Y006502D01*
X005009Y006507D01*
X004965Y006515D01*
X004921Y006527D01*
X004878Y006543D01*
X004836Y006561D01*
X004796Y006583D01*
X004758Y006607D01*
X004722Y006634D01*
X004687Y006664D01*
X004656Y006697D01*
X004626Y006732D01*
X005100Y006500D02*
X005145Y006502D01*
X005191Y006507D01*
X005235Y006515D01*
X005279Y006527D01*
X005322Y006543D01*
X005364Y006561D01*
X005404Y006583D01*
X005442Y006607D01*
X005478Y006634D01*
X005513Y006664D01*
X005544Y006697D01*
X005574Y006732D01*
X005100Y007700D02*
X005054Y007698D01*
X005008Y007693D01*
X004962Y007684D01*
X004917Y007672D01*
X004874Y007656D01*
X004832Y007637D01*
X004791Y007614D01*
X004752Y007589D01*
X004716Y007561D01*
X004681Y007530D01*
X004649Y007496D01*
X004620Y007460D01*
X005588Y009449D02*
X005559Y009486D01*
X005527Y009521D01*
X005492Y009554D01*
X005455Y009584D01*
X005416Y009610D01*
X005375Y009633D01*
X005331Y009654D01*
X005287Y009670D01*
X005241Y009683D01*
X005195Y009692D01*
X005147Y009698D01*
X005100Y009700D01*
X004626Y008732D02*
X004656Y008697D01*
X004687Y008664D01*
X004722Y008634D01*
X004758Y008607D01*
X004796Y008583D01*
X004836Y008561D01*
X004878Y008543D01*
X004921Y008527D01*
X004965Y008515D01*
X005009Y008507D01*
X005055Y008502D01*
X005100Y008500D01*
X004620Y009460D02*
X004649Y009496D01*
X004681Y009530D01*
X004716Y009561D01*
X004752Y009589D01*
X004791Y009614D01*
X004832Y009637D01*
X004874Y009656D01*
X004917Y009672D01*
X004962Y009684D01*
X005008Y009693D01*
X005054Y009698D01*
X005100Y009700D01*
X005574Y008732D02*
X005544Y008697D01*
X005513Y008664D01*
X005478Y008634D01*
X005442Y008607D01*
X005404Y008583D01*
X005364Y008561D01*
X005322Y008543D01*
X005279Y008527D01*
X005235Y008515D01*
X005191Y008507D01*
X005145Y008502D01*
X005100Y008500D01*
X003100Y008500D02*
X003055Y008502D01*
X003009Y008507D01*
X002965Y008515D01*
X002921Y008527D01*
X002878Y008543D01*
X002836Y008561D01*
X002796Y008583D01*
X002758Y008607D01*
X002722Y008634D01*
X002687Y008664D01*
X002656Y008697D01*
X002626Y008732D01*
X003100Y009700D02*
X003147Y009698D01*
X003195Y009692D01*
X003241Y009683D01*
X003287Y009670D01*
X003331Y009654D01*
X003375Y009633D01*
X003416Y009610D01*
X003455Y009584D01*
X003492Y009554D01*
X003527Y009521D01*
X003559Y009486D01*
X003588Y009449D01*
X003100Y009700D02*
X003054Y009698D01*
X003008Y009693D01*
X002962Y009684D01*
X002917Y009672D01*
X002874Y009656D01*
X002832Y009637D01*
X002791Y009614D01*
X002752Y009589D01*
X002716Y009561D01*
X002681Y009530D01*
X002649Y009496D01*
X002620Y009460D01*
X003100Y008500D02*
X003145Y008502D01*
X003191Y008507D01*
X003235Y008515D01*
X003279Y008527D01*
X003322Y008543D01*
X003364Y008561D01*
X003404Y008583D01*
X003442Y008607D01*
X003478Y008634D01*
X003513Y008664D01*
X003544Y008697D01*
X003574Y008732D01*
X002620Y011460D02*
X002649Y011496D01*
X002681Y011530D01*
X002716Y011561D01*
X002752Y011589D01*
X002791Y011614D01*
X002832Y011637D01*
X002874Y011656D01*
X002917Y011672D01*
X002962Y011684D01*
X003008Y011693D01*
X003054Y011698D01*
X003100Y011700D01*
X002626Y010732D02*
X002656Y010697D01*
X002687Y010664D01*
X002722Y010634D01*
X002758Y010607D01*
X002796Y010583D01*
X002836Y010561D01*
X002878Y010543D01*
X002921Y010527D01*
X002965Y010515D01*
X003009Y010507D01*
X003055Y010502D01*
X003100Y010500D01*
X003588Y011449D02*
X003559Y011486D01*
X003527Y011521D01*
X003492Y011554D01*
X003455Y011584D01*
X003416Y011610D01*
X003375Y011633D01*
X003331Y011654D01*
X003287Y011670D01*
X003241Y011683D01*
X003195Y011692D01*
X003147Y011698D01*
X003100Y011700D01*
X003574Y010732D02*
X003544Y010697D01*
X003513Y010664D01*
X003478Y010634D01*
X003442Y010607D01*
X003404Y010583D01*
X003364Y010561D01*
X003322Y010543D01*
X003279Y010527D01*
X003235Y010515D01*
X003191Y010507D01*
X003145Y010502D01*
X003100Y010500D01*
X005100Y011700D02*
X005147Y011698D01*
X005195Y011692D01*
X005241Y011683D01*
X005287Y011670D01*
X005331Y011654D01*
X005375Y011633D01*
X005416Y011610D01*
X005455Y011584D01*
X005492Y011554D01*
X005527Y011521D01*
X005559Y011486D01*
X005588Y011449D01*
X005100Y010500D02*
X005055Y010502D01*
X005009Y010507D01*
X004965Y010515D01*
X004921Y010527D01*
X004878Y010543D01*
X004836Y010561D01*
X004796Y010583D01*
X004758Y010607D01*
X004722Y010634D01*
X004687Y010664D01*
X004656Y010697D01*
X004626Y010732D01*
X005100Y010500D02*
X005145Y010502D01*
X005191Y010507D01*
X005235Y010515D01*
X005279Y010527D01*
X005322Y010543D01*
X005364Y010561D01*
X005404Y010583D01*
X005442Y010607D01*
X005478Y010634D01*
X005513Y010664D01*
X005544Y010697D01*
X005574Y010732D01*
X005100Y011700D02*
X005054Y011698D01*
X005008Y011693D01*
X004962Y011684D01*
X004917Y011672D01*
X004874Y011656D01*
X004832Y011637D01*
X004791Y011614D01*
X004752Y011589D01*
X004716Y011561D01*
X004681Y011530D01*
X004649Y011496D01*
X004620Y011460D01*
X005588Y013449D02*
X005559Y013486D01*
X005527Y013521D01*
X005492Y013554D01*
X005455Y013584D01*
X005416Y013610D01*
X005375Y013633D01*
X005331Y013654D01*
X005287Y013670D01*
X005241Y013683D01*
X005195Y013692D01*
X005147Y013698D01*
X005100Y013700D01*
X004626Y012732D02*
X004656Y012697D01*
X004687Y012664D01*
X004722Y012634D01*
X004758Y012607D01*
X004796Y012583D01*
X004836Y012561D01*
X004878Y012543D01*
X004921Y012527D01*
X004965Y012515D01*
X005009Y012507D01*
X005055Y012502D01*
X005100Y012500D01*
X004620Y013460D02*
X004649Y013496D01*
X004681Y013530D01*
X004716Y013561D01*
X004752Y013589D01*
X004791Y013614D01*
X004832Y013637D01*
X004874Y013656D01*
X004917Y013672D01*
X004962Y013684D01*
X005008Y013693D01*
X005054Y013698D01*
X005100Y013700D01*
X005574Y012732D02*
X005544Y012697D01*
X005513Y012664D01*
X005478Y012634D01*
X005442Y012607D01*
X005404Y012583D01*
X005364Y012561D01*
X005322Y012543D01*
X005279Y012527D01*
X005235Y012515D01*
X005191Y012507D01*
X005145Y012502D01*
X005100Y012500D01*
X003100Y012500D02*
X003055Y012502D01*
X003009Y012507D01*
X002965Y012515D01*
X002921Y012527D01*
X002878Y012543D01*
X002836Y012561D01*
X002796Y012583D01*
X002758Y012607D01*
X002722Y012634D01*
X002687Y012664D01*
X002656Y012697D01*
X002626Y012732D01*
X003100Y013700D02*
X003147Y013698D01*
X003195Y013692D01*
X003241Y013683D01*
X003287Y013670D01*
X003331Y013654D01*
X003375Y013633D01*
X003416Y013610D01*
X003455Y013584D01*
X003492Y013554D01*
X003527Y013521D01*
X003559Y013486D01*
X003588Y013449D01*
X003100Y013700D02*
X003054Y013698D01*
X003008Y013693D01*
X002962Y013684D01*
X002917Y013672D01*
X002874Y013656D01*
X002832Y013637D01*
X002791Y013614D01*
X002752Y013589D01*
X002716Y013561D01*
X002681Y013530D01*
X002649Y013496D01*
X002620Y013460D01*
X003100Y012500D02*
X003145Y012502D01*
X003191Y012507D01*
X003235Y012515D01*
X003279Y012527D01*
X003322Y012543D01*
X003364Y012561D01*
X003404Y012583D01*
X003442Y012607D01*
X003478Y012634D01*
X003513Y012664D01*
X003544Y012697D01*
X003574Y012732D01*
X002620Y015460D02*
X002649Y015496D01*
X002681Y015530D01*
X002716Y015561D01*
X002752Y015589D01*
X002791Y015614D01*
X002832Y015637D01*
X002874Y015656D01*
X002917Y015672D01*
X002962Y015684D01*
X003008Y015693D01*
X003054Y015698D01*
X003100Y015700D01*
X002626Y014732D02*
X002656Y014697D01*
X002687Y014664D01*
X002722Y014634D01*
X002758Y014607D01*
X002796Y014583D01*
X002836Y014561D01*
X002878Y014543D01*
X002921Y014527D01*
X002965Y014515D01*
X003009Y014507D01*
X003055Y014502D01*
X003100Y014500D01*
X003588Y015449D02*
X003559Y015486D01*
X003527Y015521D01*
X003492Y015554D01*
X003455Y015584D01*
X003416Y015610D01*
X003375Y015633D01*
X003331Y015654D01*
X003287Y015670D01*
X003241Y015683D01*
X003195Y015692D01*
X003147Y015698D01*
X003100Y015700D01*
X003574Y014732D02*
X003544Y014697D01*
X003513Y014664D01*
X003478Y014634D01*
X003442Y014607D01*
X003404Y014583D01*
X003364Y014561D01*
X003322Y014543D01*
X003279Y014527D01*
X003235Y014515D01*
X003191Y014507D01*
X003145Y014502D01*
X003100Y014500D01*
X005100Y015700D02*
X005147Y015698D01*
X005195Y015692D01*
X005241Y015683D01*
X005287Y015670D01*
X005331Y015654D01*
X005375Y015633D01*
X005416Y015610D01*
X005455Y015584D01*
X005492Y015554D01*
X005527Y015521D01*
X005559Y015486D01*
X005588Y015449D01*
X005100Y014500D02*
X005055Y014502D01*
X005009Y014507D01*
X004965Y014515D01*
X004921Y014527D01*
X004878Y014543D01*
X004836Y014561D01*
X004796Y014583D01*
X004758Y014607D01*
X004722Y014634D01*
X004687Y014664D01*
X004656Y014697D01*
X004626Y014732D01*
X005100Y014500D02*
X005145Y014502D01*
X005191Y014507D01*
X005235Y014515D01*
X005279Y014527D01*
X005322Y014543D01*
X005364Y014561D01*
X005404Y014583D01*
X005442Y014607D01*
X005478Y014634D01*
X005513Y014664D01*
X005544Y014697D01*
X005574Y014732D01*
X005100Y015700D02*
X005054Y015698D01*
X005008Y015693D01*
X004962Y015684D01*
X004917Y015672D01*
X004874Y015656D01*
X004832Y015637D01*
X004791Y015614D01*
X004752Y015589D01*
X004716Y015561D01*
X004681Y015530D01*
X004649Y015496D01*
X004620Y015460D01*
X005588Y017449D02*
X005559Y017486D01*
X005527Y017521D01*
X005492Y017554D01*
X005455Y017584D01*
X005416Y017610D01*
X005375Y017633D01*
X005331Y017654D01*
X005287Y017670D01*
X005241Y017683D01*
X005195Y017692D01*
X005147Y017698D01*
X005100Y017700D01*
X004626Y016732D02*
X004656Y016697D01*
X004687Y016664D01*
X004722Y016634D01*
X004758Y016607D01*
X004796Y016583D01*
X004836Y016561D01*
X004878Y016543D01*
X004921Y016527D01*
X004965Y016515D01*
X005009Y016507D01*
X005055Y016502D01*
X005100Y016500D01*
X004620Y017460D02*
X004649Y017496D01*
X004681Y017530D01*
X004716Y017561D01*
X004752Y017589D01*
X004791Y017614D01*
X004832Y017637D01*
X004874Y017656D01*
X004917Y017672D01*
X004962Y017684D01*
X005008Y017693D01*
X005054Y017698D01*
X005100Y017700D01*
X005574Y016732D02*
X005544Y016697D01*
X005513Y016664D01*
X005478Y016634D01*
X005442Y016607D01*
X005404Y016583D01*
X005364Y016561D01*
X005322Y016543D01*
X005279Y016527D01*
X005235Y016515D01*
X005191Y016507D01*
X005145Y016502D01*
X005100Y016500D01*
X003100Y016500D02*
X003055Y016502D01*
X003009Y016507D01*
X002965Y016515D01*
X002921Y016527D01*
X002878Y016543D01*
X002836Y016561D01*
X002796Y016583D01*
X002758Y016607D01*
X002722Y016634D01*
X002687Y016664D01*
X002656Y016697D01*
X002626Y016732D01*
X003100Y017700D02*
X003147Y017698D01*
X003195Y017692D01*
X003241Y017683D01*
X003287Y017670D01*
X003331Y017654D01*
X003375Y017633D01*
X003416Y017610D01*
X003455Y017584D01*
X003492Y017554D01*
X003527Y017521D01*
X003559Y017486D01*
X003588Y017449D01*
X003100Y017700D02*
X003054Y017698D01*
X003008Y017693D01*
X002962Y017684D01*
X002917Y017672D01*
X002874Y017656D01*
X002832Y017637D01*
X002791Y017614D01*
X002752Y017589D01*
X002716Y017561D01*
X002681Y017530D01*
X002649Y017496D01*
X002620Y017460D01*
X003100Y016500D02*
X003145Y016502D01*
X003191Y016507D01*
X003235Y016515D01*
X003279Y016527D01*
X003322Y016543D01*
X003364Y016561D01*
X003404Y016583D01*
X003442Y016607D01*
X003478Y016634D01*
X003513Y016664D01*
X003544Y016697D01*
X003574Y016732D01*
X001100Y016500D02*
X001055Y016502D01*
X001009Y016507D01*
X000965Y016515D01*
X000921Y016527D01*
X000878Y016543D01*
X000836Y016561D01*
X000796Y016583D01*
X000758Y016607D01*
X000722Y016634D01*
X000687Y016664D01*
X000656Y016697D01*
X000626Y016732D01*
X001100Y017700D02*
X001147Y017698D01*
X001195Y017692D01*
X001241Y017683D01*
X001287Y017670D01*
X001331Y017654D01*
X001375Y017633D01*
X001416Y017610D01*
X001455Y017584D01*
X001492Y017554D01*
X001527Y017521D01*
X001559Y017486D01*
X001588Y017449D01*
X001100Y017700D02*
X001054Y017698D01*
X001008Y017693D01*
X000962Y017684D01*
X000917Y017672D01*
X000874Y017656D01*
X000832Y017637D01*
X000791Y017614D01*
X000752Y017589D01*
X000716Y017561D01*
X000681Y017530D01*
X000649Y017496D01*
X000620Y017460D01*
X001100Y016500D02*
X001145Y016502D01*
X001191Y016507D01*
X001235Y016515D01*
X001279Y016527D01*
X001322Y016543D01*
X001364Y016561D01*
X001404Y016583D01*
X001442Y016607D01*
X001478Y016634D01*
X001513Y016664D01*
X001544Y016697D01*
X001574Y016732D01*
X000626Y014732D02*
X000656Y014697D01*
X000687Y014664D01*
X000722Y014634D01*
X000758Y014607D01*
X000796Y014583D01*
X000836Y014561D01*
X000878Y014543D01*
X000921Y014527D01*
X000965Y014515D01*
X001009Y014507D01*
X001055Y014502D01*
X001100Y014500D01*
X000620Y015460D02*
X000649Y015496D01*
X000681Y015530D01*
X000716Y015561D01*
X000752Y015589D01*
X000791Y015614D01*
X000832Y015637D01*
X000874Y015656D01*
X000917Y015672D01*
X000962Y015684D01*
X001008Y015693D01*
X001054Y015698D01*
X001100Y015700D01*
X001574Y014732D02*
X001544Y014697D01*
X001513Y014664D01*
X001478Y014634D01*
X001442Y014607D01*
X001404Y014583D01*
X001364Y014561D01*
X001322Y014543D01*
X001279Y014527D01*
X001235Y014515D01*
X001191Y014507D01*
X001145Y014502D01*
X001100Y014500D01*
X001588Y015449D02*
X001559Y015486D01*
X001527Y015521D01*
X001492Y015554D01*
X001455Y015584D01*
X001416Y015610D01*
X001375Y015633D01*
X001331Y015654D01*
X001287Y015670D01*
X001241Y015683D01*
X001195Y015692D01*
X001147Y015698D01*
X001100Y015700D01*
X000626Y012732D02*
X000656Y012697D01*
X000687Y012664D01*
X000722Y012634D01*
X000758Y012607D01*
X000796Y012583D01*
X000836Y012561D01*
X000878Y012543D01*
X000921Y012527D01*
X000965Y012515D01*
X001009Y012507D01*
X001055Y012502D01*
X001100Y012500D01*
X000620Y013460D02*
X000649Y013496D01*
X000681Y013530D01*
X000716Y013561D01*
X000752Y013589D01*
X000791Y013614D01*
X000832Y013637D01*
X000874Y013656D01*
X000917Y013672D01*
X000962Y013684D01*
X001008Y013693D01*
X001054Y013698D01*
X001100Y013700D01*
X001574Y012732D02*
X001544Y012697D01*
X001513Y012664D01*
X001478Y012634D01*
X001442Y012607D01*
X001404Y012583D01*
X001364Y012561D01*
X001322Y012543D01*
X001279Y012527D01*
X001235Y012515D01*
X001191Y012507D01*
X001145Y012502D01*
X001100Y012500D01*
X001588Y013449D02*
X001559Y013486D01*
X001527Y013521D01*
X001492Y013554D01*
X001455Y013584D01*
X001416Y013610D01*
X001375Y013633D01*
X001331Y013654D01*
X001287Y013670D01*
X001241Y013683D01*
X001195Y013692D01*
X001147Y013698D01*
X001100Y013700D01*
X000626Y010732D02*
X000656Y010697D01*
X000687Y010664D01*
X000722Y010634D01*
X000758Y010607D01*
X000796Y010583D01*
X000836Y010561D01*
X000878Y010543D01*
X000921Y010527D01*
X000965Y010515D01*
X001009Y010507D01*
X001055Y010502D01*
X001100Y010500D01*
X000620Y011460D02*
X000649Y011496D01*
X000681Y011530D01*
X000716Y011561D01*
X000752Y011589D01*
X000791Y011614D01*
X000832Y011637D01*
X000874Y011656D01*
X000917Y011672D01*
X000962Y011684D01*
X001008Y011693D01*
X001054Y011698D01*
X001100Y011700D01*
X001574Y010732D02*
X001544Y010697D01*
X001513Y010664D01*
X001478Y010634D01*
X001442Y010607D01*
X001404Y010583D01*
X001364Y010561D01*
X001322Y010543D01*
X001279Y010527D01*
X001235Y010515D01*
X001191Y010507D01*
X001145Y010502D01*
X001100Y010500D01*
X001588Y011449D02*
X001559Y011486D01*
X001527Y011521D01*
X001492Y011554D01*
X001455Y011584D01*
X001416Y011610D01*
X001375Y011633D01*
X001331Y011654D01*
X001287Y011670D01*
X001241Y011683D01*
X001195Y011692D01*
X001147Y011698D01*
X001100Y011700D01*
X000626Y008732D02*
X000656Y008697D01*
X000687Y008664D01*
X000722Y008634D01*
X000758Y008607D01*
X000796Y008583D01*
X000836Y008561D01*
X000878Y008543D01*
X000921Y008527D01*
X000965Y008515D01*
X001009Y008507D01*
X001055Y008502D01*
X001100Y008500D01*
X000620Y009460D02*
X000649Y009496D01*
X000681Y009530D01*
X000716Y009561D01*
X000752Y009589D01*
X000791Y009614D01*
X000832Y009637D01*
X000874Y009656D01*
X000917Y009672D01*
X000962Y009684D01*
X001008Y009693D01*
X001054Y009698D01*
X001100Y009700D01*
X001574Y008732D02*
X001544Y008697D01*
X001513Y008664D01*
X001478Y008634D01*
X001442Y008607D01*
X001404Y008583D01*
X001364Y008561D01*
X001322Y008543D01*
X001279Y008527D01*
X001235Y008515D01*
X001191Y008507D01*
X001145Y008502D01*
X001100Y008500D01*
X001588Y009449D02*
X001559Y009486D01*
X001527Y009521D01*
X001492Y009554D01*
X001455Y009584D01*
X001416Y009610D01*
X001375Y009633D01*
X001331Y009654D01*
X001287Y009670D01*
X001241Y009683D01*
X001195Y009692D01*
X001147Y009698D01*
X001100Y009700D01*
X000626Y006732D02*
X000656Y006697D01*
X000687Y006664D01*
X000722Y006634D01*
X000758Y006607D01*
X000796Y006583D01*
X000836Y006561D01*
X000878Y006543D01*
X000921Y006527D01*
X000965Y006515D01*
X001009Y006507D01*
X001055Y006502D01*
X001100Y006500D01*
X000620Y007460D02*
X000649Y007496D01*
X000681Y007530D01*
X000716Y007561D01*
X000752Y007589D01*
X000791Y007614D01*
X000832Y007637D01*
X000874Y007656D01*
X000917Y007672D01*
X000962Y007684D01*
X001008Y007693D01*
X001054Y007698D01*
X001100Y007700D01*
X001574Y006732D02*
X001544Y006697D01*
X001513Y006664D01*
X001478Y006634D01*
X001442Y006607D01*
X001404Y006583D01*
X001364Y006561D01*
X001322Y006543D01*
X001279Y006527D01*
X001235Y006515D01*
X001191Y006507D01*
X001145Y006502D01*
X001100Y006500D01*
X001588Y007449D02*
X001559Y007486D01*
X001527Y007521D01*
X001492Y007554D01*
X001455Y007584D01*
X001416Y007610D01*
X001375Y007633D01*
X001331Y007654D01*
X001287Y007670D01*
X001241Y007683D01*
X001195Y007692D01*
X001147Y007698D01*
X001100Y007700D01*
X005100Y005700D02*
X005147Y005698D01*
X005195Y005692D01*
X005241Y005683D01*
X005287Y005670D01*
X005331Y005654D01*
X005375Y005633D01*
X005416Y005610D01*
X005455Y005584D01*
X005492Y005554D01*
X005527Y005521D01*
X005559Y005486D01*
X005588Y005449D01*
X005100Y004500D02*
X005055Y004502D01*
X005009Y004507D01*
X004965Y004515D01*
X004921Y004527D01*
X004878Y004543D01*
X004836Y004561D01*
X004796Y004583D01*
X004758Y004607D01*
X004722Y004634D01*
X004687Y004664D01*
X004656Y004697D01*
X004626Y004732D01*
X005100Y004500D02*
X005145Y004502D01*
X005191Y004507D01*
X005235Y004515D01*
X005279Y004527D01*
X005322Y004543D01*
X005364Y004561D01*
X005404Y004583D01*
X005442Y004607D01*
X005478Y004634D01*
X005513Y004664D01*
X005544Y004697D01*
X005574Y004732D01*
X005100Y005700D02*
X005054Y005698D01*
X005008Y005693D01*
X004962Y005684D01*
X004917Y005672D01*
X004874Y005656D01*
X004832Y005637D01*
X004791Y005614D01*
X004752Y005589D01*
X004716Y005561D01*
X004681Y005530D01*
X004649Y005496D01*
X004620Y005460D01*
X007100Y005700D02*
X007147Y005698D01*
X007195Y005692D01*
X007241Y005683D01*
X007287Y005670D01*
X007331Y005654D01*
X007375Y005633D01*
X007416Y005610D01*
X007455Y005584D01*
X007492Y005554D01*
X007527Y005521D01*
X007559Y005486D01*
X007588Y005449D01*
X007100Y004500D02*
X007055Y004502D01*
X007009Y004507D01*
X006965Y004515D01*
X006921Y004527D01*
X006878Y004543D01*
X006836Y004561D01*
X006796Y004583D01*
X006758Y004607D01*
X006722Y004634D01*
X006687Y004664D01*
X006656Y004697D01*
X006626Y004732D01*
X007100Y004500D02*
X007145Y004502D01*
X007191Y004507D01*
X007235Y004515D01*
X007279Y004527D01*
X007322Y004543D01*
X007364Y004561D01*
X007404Y004583D01*
X007442Y004607D01*
X007478Y004634D01*
X007513Y004664D01*
X007544Y004697D01*
X007574Y004732D01*
X007100Y005700D02*
X007054Y005698D01*
X007008Y005693D01*
X006962Y005684D01*
X006917Y005672D01*
X006874Y005656D01*
X006832Y005637D01*
X006791Y005614D01*
X006752Y005589D01*
X006716Y005561D01*
X006681Y005530D01*
X006649Y005496D01*
X006620Y005460D01*
X007588Y007449D02*
X007559Y007486D01*
X007527Y007521D01*
X007492Y007554D01*
X007455Y007584D01*
X007416Y007610D01*
X007375Y007633D01*
X007331Y007654D01*
X007287Y007670D01*
X007241Y007683D01*
X007195Y007692D01*
X007147Y007698D01*
X007100Y007700D01*
X006626Y006732D02*
X006656Y006697D01*
X006687Y006664D01*
X006722Y006634D01*
X006758Y006607D01*
X006796Y006583D01*
X006836Y006561D01*
X006878Y006543D01*
X006921Y006527D01*
X006965Y006515D01*
X007009Y006507D01*
X007055Y006502D01*
X007100Y006500D01*
X006620Y007460D02*
X006649Y007496D01*
X006681Y007530D01*
X006716Y007561D01*
X006752Y007589D01*
X006791Y007614D01*
X006832Y007637D01*
X006874Y007656D01*
X006917Y007672D01*
X006962Y007684D01*
X007008Y007693D01*
X007054Y007698D01*
X007100Y007700D01*
X007574Y006732D02*
X007544Y006697D01*
X007513Y006664D01*
X007478Y006634D01*
X007442Y006607D01*
X007404Y006583D01*
X007364Y006561D01*
X007322Y006543D01*
X007279Y006527D01*
X007235Y006515D01*
X007191Y006507D01*
X007145Y006502D01*
X007100Y006500D01*
X009100Y007700D02*
X009147Y007698D01*
X009195Y007692D01*
X009241Y007683D01*
X009287Y007670D01*
X009331Y007654D01*
X009375Y007633D01*
X009416Y007610D01*
X009455Y007584D01*
X009492Y007554D01*
X009527Y007521D01*
X009559Y007486D01*
X009588Y007449D01*
X009100Y006500D02*
X009055Y006502D01*
X009009Y006507D01*
X008965Y006515D01*
X008921Y006527D01*
X008878Y006543D01*
X008836Y006561D01*
X008796Y006583D01*
X008758Y006607D01*
X008722Y006634D01*
X008687Y006664D01*
X008656Y006697D01*
X008626Y006732D01*
X009100Y006500D02*
X009145Y006502D01*
X009191Y006507D01*
X009235Y006515D01*
X009279Y006527D01*
X009322Y006543D01*
X009364Y006561D01*
X009404Y006583D01*
X009442Y006607D01*
X009478Y006634D01*
X009513Y006664D01*
X009544Y006697D01*
X009574Y006732D01*
X009100Y007700D02*
X009054Y007698D01*
X009008Y007693D01*
X008962Y007684D01*
X008917Y007672D01*
X008874Y007656D01*
X008832Y007637D01*
X008791Y007614D01*
X008752Y007589D01*
X008716Y007561D01*
X008681Y007530D01*
X008649Y007496D01*
X008620Y007460D01*
X009588Y009449D02*
X009559Y009486D01*
X009527Y009521D01*
X009492Y009554D01*
X009455Y009584D01*
X009416Y009610D01*
X009375Y009633D01*
X009331Y009654D01*
X009287Y009670D01*
X009241Y009683D01*
X009195Y009692D01*
X009147Y009698D01*
X009100Y009700D01*
X008626Y008732D02*
X008656Y008697D01*
X008687Y008664D01*
X008722Y008634D01*
X008758Y008607D01*
X008796Y008583D01*
X008836Y008561D01*
X008878Y008543D01*
X008921Y008527D01*
X008965Y008515D01*
X009009Y008507D01*
X009055Y008502D01*
X009100Y008500D01*
X008620Y009460D02*
X008649Y009496D01*
X008681Y009530D01*
X008716Y009561D01*
X008752Y009589D01*
X008791Y009614D01*
X008832Y009637D01*
X008874Y009656D01*
X008917Y009672D01*
X008962Y009684D01*
X009008Y009693D01*
X009054Y009698D01*
X009100Y009700D01*
X009574Y008732D02*
X009544Y008697D01*
X009513Y008664D01*
X009478Y008634D01*
X009442Y008607D01*
X009404Y008583D01*
X009364Y008561D01*
X009322Y008543D01*
X009279Y008527D01*
X009235Y008515D01*
X009191Y008507D01*
X009145Y008502D01*
X009100Y008500D01*
X011100Y009700D02*
X011147Y009698D01*
X011195Y009692D01*
X011241Y009683D01*
X011287Y009670D01*
X011331Y009654D01*
X011375Y009633D01*
X011416Y009610D01*
X011455Y009584D01*
X011492Y009554D01*
X011527Y009521D01*
X011559Y009486D01*
X011588Y009449D01*
X011100Y008500D02*
X011055Y008502D01*
X011009Y008507D01*
X010965Y008515D01*
X010921Y008527D01*
X010878Y008543D01*
X010836Y008561D01*
X010796Y008583D01*
X010758Y008607D01*
X010722Y008634D01*
X010687Y008664D01*
X010656Y008697D01*
X010626Y008732D01*
X011100Y008500D02*
X011145Y008502D01*
X011191Y008507D01*
X011235Y008515D01*
X011279Y008527D01*
X011322Y008543D01*
X011364Y008561D01*
X011404Y008583D01*
X011442Y008607D01*
X011478Y008634D01*
X011513Y008664D01*
X011544Y008697D01*
X011574Y008732D01*
X011100Y009700D02*
X011054Y009698D01*
X011008Y009693D01*
X010962Y009684D01*
X010917Y009672D01*
X010874Y009656D01*
X010832Y009637D01*
X010791Y009614D01*
X010752Y009589D01*
X010716Y009561D01*
X010681Y009530D01*
X010649Y009496D01*
X010620Y009460D01*
X011588Y011449D02*
X011559Y011486D01*
X011527Y011521D01*
X011492Y011554D01*
X011455Y011584D01*
X011416Y011610D01*
X011375Y011633D01*
X011331Y011654D01*
X011287Y011670D01*
X011241Y011683D01*
X011195Y011692D01*
X011147Y011698D01*
X011100Y011700D01*
X010626Y010732D02*
X010656Y010697D01*
X010687Y010664D01*
X010722Y010634D01*
X010758Y010607D01*
X010796Y010583D01*
X010836Y010561D01*
X010878Y010543D01*
X010921Y010527D01*
X010965Y010515D01*
X011009Y010507D01*
X011055Y010502D01*
X011100Y010500D01*
X010620Y011460D02*
X010649Y011496D01*
X010681Y011530D01*
X010716Y011561D01*
X010752Y011589D01*
X010791Y011614D01*
X010832Y011637D01*
X010874Y011656D01*
X010917Y011672D01*
X010962Y011684D01*
X011008Y011693D01*
X011054Y011698D01*
X011100Y011700D01*
X011574Y010732D02*
X011544Y010697D01*
X011513Y010664D01*
X011478Y010634D01*
X011442Y010607D01*
X011404Y010583D01*
X011364Y010561D01*
X011322Y010543D01*
X011279Y010527D01*
X011235Y010515D01*
X011191Y010507D01*
X011145Y010502D01*
X011100Y010500D01*
X009100Y010500D02*
X009055Y010502D01*
X009009Y010507D01*
X008965Y010515D01*
X008921Y010527D01*
X008878Y010543D01*
X008836Y010561D01*
X008796Y010583D01*
X008758Y010607D01*
X008722Y010634D01*
X008687Y010664D01*
X008656Y010697D01*
X008626Y010732D01*
X009100Y011700D02*
X009147Y011698D01*
X009195Y011692D01*
X009241Y011683D01*
X009287Y011670D01*
X009331Y011654D01*
X009375Y011633D01*
X009416Y011610D01*
X009455Y011584D01*
X009492Y011554D01*
X009527Y011521D01*
X009559Y011486D01*
X009588Y011449D01*
X009100Y011700D02*
X009054Y011698D01*
X009008Y011693D01*
X008962Y011684D01*
X008917Y011672D01*
X008874Y011656D01*
X008832Y011637D01*
X008791Y011614D01*
X008752Y011589D01*
X008716Y011561D01*
X008681Y011530D01*
X008649Y011496D01*
X008620Y011460D01*
X009100Y010500D02*
X009145Y010502D01*
X009191Y010507D01*
X009235Y010515D01*
X009279Y010527D01*
X009322Y010543D01*
X009364Y010561D01*
X009404Y010583D01*
X009442Y010607D01*
X009478Y010634D01*
X009513Y010664D01*
X009544Y010697D01*
X009574Y010732D01*
X008620Y013460D02*
X008649Y013496D01*
X008681Y013530D01*
X008716Y013561D01*
X008752Y013589D01*
X008791Y013614D01*
X008832Y013637D01*
X008874Y013656D01*
X008917Y013672D01*
X008962Y013684D01*
X009008Y013693D01*
X009054Y013698D01*
X009100Y013700D01*
X008626Y012732D02*
X008656Y012697D01*
X008687Y012664D01*
X008722Y012634D01*
X008758Y012607D01*
X008796Y012583D01*
X008836Y012561D01*
X008878Y012543D01*
X008921Y012527D01*
X008965Y012515D01*
X009009Y012507D01*
X009055Y012502D01*
X009100Y012500D01*
X009588Y013449D02*
X009559Y013486D01*
X009527Y013521D01*
X009492Y013554D01*
X009455Y013584D01*
X009416Y013610D01*
X009375Y013633D01*
X009331Y013654D01*
X009287Y013670D01*
X009241Y013683D01*
X009195Y013692D01*
X009147Y013698D01*
X009100Y013700D01*
X009574Y012732D02*
X009544Y012697D01*
X009513Y012664D01*
X009478Y012634D01*
X009442Y012607D01*
X009404Y012583D01*
X009364Y012561D01*
X009322Y012543D01*
X009279Y012527D01*
X009235Y012515D01*
X009191Y012507D01*
X009145Y012502D01*
X009100Y012500D01*
X011100Y013700D02*
X011147Y013698D01*
X011195Y013692D01*
X011241Y013683D01*
X011287Y013670D01*
X011331Y013654D01*
X011375Y013633D01*
X011416Y013610D01*
X011455Y013584D01*
X011492Y013554D01*
X011527Y013521D01*
X011559Y013486D01*
X011588Y013449D01*
X011100Y012500D02*
X011055Y012502D01*
X011009Y012507D01*
X010965Y012515D01*
X010921Y012527D01*
X010878Y012543D01*
X010836Y012561D01*
X010796Y012583D01*
X010758Y012607D01*
X010722Y012634D01*
X010687Y012664D01*
X010656Y012697D01*
X010626Y012732D01*
X011100Y012500D02*
X011145Y012502D01*
X011191Y012507D01*
X011235Y012515D01*
X011279Y012527D01*
X011322Y012543D01*
X011364Y012561D01*
X011404Y012583D01*
X011442Y012607D01*
X011478Y012634D01*
X011513Y012664D01*
X011544Y012697D01*
X011574Y012732D01*
X011100Y013700D02*
X011054Y013698D01*
X011008Y013693D01*
X010962Y013684D01*
X010917Y013672D01*
X010874Y013656D01*
X010832Y013637D01*
X010791Y013614D01*
X010752Y013589D01*
X010716Y013561D01*
X010681Y013530D01*
X010649Y013496D01*
X010620Y013460D01*
X011588Y015449D02*
X011559Y015486D01*
X011527Y015521D01*
X011492Y015554D01*
X011455Y015584D01*
X011416Y015610D01*
X011375Y015633D01*
X011331Y015654D01*
X011287Y015670D01*
X011241Y015683D01*
X011195Y015692D01*
X011147Y015698D01*
X011100Y015700D01*
X010626Y014732D02*
X010656Y014697D01*
X010687Y014664D01*
X010722Y014634D01*
X010758Y014607D01*
X010796Y014583D01*
X010836Y014561D01*
X010878Y014543D01*
X010921Y014527D01*
X010965Y014515D01*
X011009Y014507D01*
X011055Y014502D01*
X011100Y014500D01*
X010620Y015460D02*
X010649Y015496D01*
X010681Y015530D01*
X010716Y015561D01*
X010752Y015589D01*
X010791Y015614D01*
X010832Y015637D01*
X010874Y015656D01*
X010917Y015672D01*
X010962Y015684D01*
X011008Y015693D01*
X011054Y015698D01*
X011100Y015700D01*
X011574Y014732D02*
X011544Y014697D01*
X011513Y014664D01*
X011478Y014634D01*
X011442Y014607D01*
X011404Y014583D01*
X011364Y014561D01*
X011322Y014543D01*
X011279Y014527D01*
X011235Y014515D01*
X011191Y014507D01*
X011145Y014502D01*
X011100Y014500D01*
X009100Y014500D02*
X009055Y014502D01*
X009009Y014507D01*
X008965Y014515D01*
X008921Y014527D01*
X008878Y014543D01*
X008836Y014561D01*
X008796Y014583D01*
X008758Y014607D01*
X008722Y014634D01*
X008687Y014664D01*
X008656Y014697D01*
X008626Y014732D01*
X009100Y015700D02*
X009147Y015698D01*
X009195Y015692D01*
X009241Y015683D01*
X009287Y015670D01*
X009331Y015654D01*
X009375Y015633D01*
X009416Y015610D01*
X009455Y015584D01*
X009492Y015554D01*
X009527Y015521D01*
X009559Y015486D01*
X009588Y015449D01*
X009100Y015700D02*
X009054Y015698D01*
X009008Y015693D01*
X008962Y015684D01*
X008917Y015672D01*
X008874Y015656D01*
X008832Y015637D01*
X008791Y015614D01*
X008752Y015589D01*
X008716Y015561D01*
X008681Y015530D01*
X008649Y015496D01*
X008620Y015460D01*
X009100Y014500D02*
X009145Y014502D01*
X009191Y014507D01*
X009235Y014515D01*
X009279Y014527D01*
X009322Y014543D01*
X009364Y014561D01*
X009404Y014583D01*
X009442Y014607D01*
X009478Y014634D01*
X009513Y014664D01*
X009544Y014697D01*
X009574Y014732D01*
X008620Y017460D02*
X008649Y017496D01*
X008681Y017530D01*
X008716Y017561D01*
X008752Y017589D01*
X008791Y017614D01*
X008832Y017637D01*
X008874Y017656D01*
X008917Y017672D01*
X008962Y017684D01*
X009008Y017693D01*
X009054Y017698D01*
X009100Y017700D01*
X008626Y016732D02*
X008656Y016697D01*
X008687Y016664D01*
X008722Y016634D01*
X008758Y016607D01*
X008796Y016583D01*
X008836Y016561D01*
X008878Y016543D01*
X008921Y016527D01*
X008965Y016515D01*
X009009Y016507D01*
X009055Y016502D01*
X009100Y016500D01*
X009588Y017449D02*
X009559Y017486D01*
X009527Y017521D01*
X009492Y017554D01*
X009455Y017584D01*
X009416Y017610D01*
X009375Y017633D01*
X009331Y017654D01*
X009287Y017670D01*
X009241Y017683D01*
X009195Y017692D01*
X009147Y017698D01*
X009100Y017700D01*
X009574Y016732D02*
X009544Y016697D01*
X009513Y016664D01*
X009478Y016634D01*
X009442Y016607D01*
X009404Y016583D01*
X009364Y016561D01*
X009322Y016543D01*
X009279Y016527D01*
X009235Y016515D01*
X009191Y016507D01*
X009145Y016502D01*
X009100Y016500D01*
X011100Y017700D02*
X011147Y017698D01*
X011195Y017692D01*
X011241Y017683D01*
X011287Y017670D01*
X011331Y017654D01*
X011375Y017633D01*
X011416Y017610D01*
X011455Y017584D01*
X011492Y017554D01*
X011527Y017521D01*
X011559Y017486D01*
X011588Y017449D01*
X011100Y016500D02*
X011055Y016502D01*
X011009Y016507D01*
X010965Y016515D01*
X010921Y016527D01*
X010878Y016543D01*
X010836Y016561D01*
X010796Y016583D01*
X010758Y016607D01*
X010722Y016634D01*
X010687Y016664D01*
X010656Y016697D01*
X010626Y016732D01*
X011100Y016500D02*
X011145Y016502D01*
X011191Y016507D01*
X011235Y016515D01*
X011279Y016527D01*
X011322Y016543D01*
X011364Y016561D01*
X011404Y016583D01*
X011442Y016607D01*
X011478Y016634D01*
X011513Y016664D01*
X011544Y016697D01*
X011574Y016732D01*
X011100Y017700D02*
X011054Y017698D01*
X011008Y017693D01*
X010962Y017684D01*
X010917Y017672D01*
X010874Y017656D01*
X010832Y017637D01*
X010791Y017614D01*
X010752Y017589D01*
X010716Y017561D01*
X010681Y017530D01*
X010649Y017496D01*
X010620Y017460D01*
X013100Y017700D02*
X013147Y017698D01*
X013195Y017692D01*
X013241Y017683D01*
X013287Y017670D01*
X013331Y017654D01*
X013375Y017633D01*
X013416Y017610D01*
X013455Y017584D01*
X013492Y017554D01*
X013527Y017521D01*
X013559Y017486D01*
X013588Y017449D01*
X013100Y016500D02*
X013055Y016502D01*
X013009Y016507D01*
X012965Y016515D01*
X012921Y016527D01*
X012878Y016543D01*
X012836Y016561D01*
X012796Y016583D01*
X012758Y016607D01*
X012722Y016634D01*
X012687Y016664D01*
X012656Y016697D01*
X012626Y016732D01*
X013100Y016500D02*
X013145Y016502D01*
X013191Y016507D01*
X013235Y016515D01*
X013279Y016527D01*
X013322Y016543D01*
X013364Y016561D01*
X013404Y016583D01*
X013442Y016607D01*
X013478Y016634D01*
X013513Y016664D01*
X013544Y016697D01*
X013574Y016732D01*
X013100Y017700D02*
X013054Y017698D01*
X013008Y017693D01*
X012962Y017684D01*
X012917Y017672D01*
X012874Y017656D01*
X012832Y017637D01*
X012791Y017614D01*
X012752Y017589D01*
X012716Y017561D01*
X012681Y017530D01*
X012649Y017496D01*
X012620Y017460D01*
X013100Y015700D02*
X013147Y015698D01*
X013195Y015692D01*
X013241Y015683D01*
X013287Y015670D01*
X013331Y015654D01*
X013375Y015633D01*
X013416Y015610D01*
X013455Y015584D01*
X013492Y015554D01*
X013527Y015521D01*
X013559Y015486D01*
X013588Y015449D01*
X013100Y014500D02*
X013055Y014502D01*
X013009Y014507D01*
X012965Y014515D01*
X012921Y014527D01*
X012878Y014543D01*
X012836Y014561D01*
X012796Y014583D01*
X012758Y014607D01*
X012722Y014634D01*
X012687Y014664D01*
X012656Y014697D01*
X012626Y014732D01*
X013100Y014500D02*
X013145Y014502D01*
X013191Y014507D01*
X013235Y014515D01*
X013279Y014527D01*
X013322Y014543D01*
X013364Y014561D01*
X013404Y014583D01*
X013442Y014607D01*
X013478Y014634D01*
X013513Y014664D01*
X013544Y014697D01*
X013574Y014732D01*
X013100Y015700D02*
X013054Y015698D01*
X013008Y015693D01*
X012962Y015684D01*
X012917Y015672D01*
X012874Y015656D01*
X012832Y015637D01*
X012791Y015614D01*
X012752Y015589D01*
X012716Y015561D01*
X012681Y015530D01*
X012649Y015496D01*
X012620Y015460D01*
X013100Y013700D02*
X013147Y013698D01*
X013195Y013692D01*
X013241Y013683D01*
X013287Y013670D01*
X013331Y013654D01*
X013375Y013633D01*
X013416Y013610D01*
X013455Y013584D01*
X013492Y013554D01*
X013527Y013521D01*
X013559Y013486D01*
X013588Y013449D01*
X013100Y012500D02*
X013055Y012502D01*
X013009Y012507D01*
X012965Y012515D01*
X012921Y012527D01*
X012878Y012543D01*
X012836Y012561D01*
X012796Y012583D01*
X012758Y012607D01*
X012722Y012634D01*
X012687Y012664D01*
X012656Y012697D01*
X012626Y012732D01*
X013100Y012500D02*
X013145Y012502D01*
X013191Y012507D01*
X013235Y012515D01*
X013279Y012527D01*
X013322Y012543D01*
X013364Y012561D01*
X013404Y012583D01*
X013442Y012607D01*
X013478Y012634D01*
X013513Y012664D01*
X013544Y012697D01*
X013574Y012732D01*
X013100Y013700D02*
X013054Y013698D01*
X013008Y013693D01*
X012962Y013684D01*
X012917Y013672D01*
X012874Y013656D01*
X012832Y013637D01*
X012791Y013614D01*
X012752Y013589D01*
X012716Y013561D01*
X012681Y013530D01*
X012649Y013496D01*
X012620Y013460D01*
X013100Y011700D02*
X013147Y011698D01*
X013195Y011692D01*
X013241Y011683D01*
X013287Y011670D01*
X013331Y011654D01*
X013375Y011633D01*
X013416Y011610D01*
X013455Y011584D01*
X013492Y011554D01*
X013527Y011521D01*
X013559Y011486D01*
X013588Y011449D01*
X013100Y010500D02*
X013055Y010502D01*
X013009Y010507D01*
X012965Y010515D01*
X012921Y010527D01*
X012878Y010543D01*
X012836Y010561D01*
X012796Y010583D01*
X012758Y010607D01*
X012722Y010634D01*
X012687Y010664D01*
X012656Y010697D01*
X012626Y010732D01*
X013100Y010500D02*
X013145Y010502D01*
X013191Y010507D01*
X013235Y010515D01*
X013279Y010527D01*
X013322Y010543D01*
X013364Y010561D01*
X013404Y010583D01*
X013442Y010607D01*
X013478Y010634D01*
X013513Y010664D01*
X013544Y010697D01*
X013574Y010732D01*
X013100Y011700D02*
X013054Y011698D01*
X013008Y011693D01*
X012962Y011684D01*
X012917Y011672D01*
X012874Y011656D01*
X012832Y011637D01*
X012791Y011614D01*
X012752Y011589D01*
X012716Y011561D01*
X012681Y011530D01*
X012649Y011496D01*
X012620Y011460D01*
X013100Y009700D02*
X013147Y009698D01*
X013195Y009692D01*
X013241Y009683D01*
X013287Y009670D01*
X013331Y009654D01*
X013375Y009633D01*
X013416Y009610D01*
X013455Y009584D01*
X013492Y009554D01*
X013527Y009521D01*
X013559Y009486D01*
X013588Y009449D01*
X013100Y008500D02*
X013055Y008502D01*
X013009Y008507D01*
X012965Y008515D01*
X012921Y008527D01*
X012878Y008543D01*
X012836Y008561D01*
X012796Y008583D01*
X012758Y008607D01*
X012722Y008634D01*
X012687Y008664D01*
X012656Y008697D01*
X012626Y008732D01*
X013100Y008500D02*
X013145Y008502D01*
X013191Y008507D01*
X013235Y008515D01*
X013279Y008527D01*
X013322Y008543D01*
X013364Y008561D01*
X013404Y008583D01*
X013442Y008607D01*
X013478Y008634D01*
X013513Y008664D01*
X013544Y008697D01*
X013574Y008732D01*
X013100Y009700D02*
X013054Y009698D01*
X013008Y009693D01*
X012962Y009684D01*
X012917Y009672D01*
X012874Y009656D01*
X012832Y009637D01*
X012791Y009614D01*
X012752Y009589D01*
X012716Y009561D01*
X012681Y009530D01*
X012649Y009496D01*
X012620Y009460D01*
X013100Y007700D02*
X013147Y007698D01*
X013195Y007692D01*
X013241Y007683D01*
X013287Y007670D01*
X013331Y007654D01*
X013375Y007633D01*
X013416Y007610D01*
X013455Y007584D01*
X013492Y007554D01*
X013527Y007521D01*
X013559Y007486D01*
X013588Y007449D01*
X013100Y006500D02*
X013055Y006502D01*
X013009Y006507D01*
X012965Y006515D01*
X012921Y006527D01*
X012878Y006543D01*
X012836Y006561D01*
X012796Y006583D01*
X012758Y006607D01*
X012722Y006634D01*
X012687Y006664D01*
X012656Y006697D01*
X012626Y006732D01*
X013100Y006500D02*
X013145Y006502D01*
X013191Y006507D01*
X013235Y006515D01*
X013279Y006527D01*
X013322Y006543D01*
X013364Y006561D01*
X013404Y006583D01*
X013442Y006607D01*
X013478Y006634D01*
X013513Y006664D01*
X013544Y006697D01*
X013574Y006732D01*
X013100Y007700D02*
X013054Y007698D01*
X013008Y007693D01*
X012962Y007684D01*
X012917Y007672D01*
X012874Y007656D01*
X012832Y007637D01*
X012791Y007614D01*
X012752Y007589D01*
X012716Y007561D01*
X012681Y007530D01*
X012649Y007496D01*
X012620Y007460D01*
X011100Y006500D02*
X011055Y006502D01*
X011009Y006507D01*
X010965Y006515D01*
X010921Y006527D01*
X010878Y006543D01*
X010836Y006561D01*
X010796Y006583D01*
X010758Y006607D01*
X010722Y006634D01*
X010687Y006664D01*
X010656Y006697D01*
X010626Y006732D01*
X011100Y007700D02*
X011147Y007698D01*
X011195Y007692D01*
X011241Y007683D01*
X011287Y007670D01*
X011331Y007654D01*
X011375Y007633D01*
X011416Y007610D01*
X011455Y007584D01*
X011492Y007554D01*
X011527Y007521D01*
X011559Y007486D01*
X011588Y007449D01*
X011100Y007700D02*
X011054Y007698D01*
X011008Y007693D01*
X010962Y007684D01*
X010917Y007672D01*
X010874Y007656D01*
X010832Y007637D01*
X010791Y007614D01*
X010752Y007589D01*
X010716Y007561D01*
X010681Y007530D01*
X010649Y007496D01*
X010620Y007460D01*
X011100Y006500D02*
X011145Y006502D01*
X011191Y006507D01*
X011235Y006515D01*
X011279Y006527D01*
X011322Y006543D01*
X011364Y006561D01*
X011404Y006583D01*
X011442Y006607D01*
X011478Y006634D01*
X011513Y006664D01*
X011544Y006697D01*
X011574Y006732D01*
X010626Y004732D02*
X010656Y004697D01*
X010687Y004664D01*
X010722Y004634D01*
X010758Y004607D01*
X010796Y004583D01*
X010836Y004561D01*
X010878Y004543D01*
X010921Y004527D01*
X010965Y004515D01*
X011009Y004507D01*
X011055Y004502D01*
X011100Y004500D01*
X010620Y005460D02*
X010649Y005496D01*
X010681Y005530D01*
X010716Y005561D01*
X010752Y005589D01*
X010791Y005614D01*
X010832Y005637D01*
X010874Y005656D01*
X010917Y005672D01*
X010962Y005684D01*
X011008Y005693D01*
X011054Y005698D01*
X011100Y005700D01*
X011574Y004732D02*
X011544Y004697D01*
X011513Y004664D01*
X011478Y004634D01*
X011442Y004607D01*
X011404Y004583D01*
X011364Y004561D01*
X011322Y004543D01*
X011279Y004527D01*
X011235Y004515D01*
X011191Y004507D01*
X011145Y004502D01*
X011100Y004500D01*
X011588Y005449D02*
X011559Y005486D01*
X011527Y005521D01*
X011492Y005554D01*
X011455Y005584D01*
X011416Y005610D01*
X011375Y005633D01*
X011331Y005654D01*
X011287Y005670D01*
X011241Y005683D01*
X011195Y005692D01*
X011147Y005698D01*
X011100Y005700D01*
X009100Y004500D02*
X009055Y004502D01*
X009009Y004507D01*
X008965Y004515D01*
X008921Y004527D01*
X008878Y004543D01*
X008836Y004561D01*
X008796Y004583D01*
X008758Y004607D01*
X008722Y004634D01*
X008687Y004664D01*
X008656Y004697D01*
X008626Y004732D01*
X009100Y005700D02*
X009147Y005698D01*
X009195Y005692D01*
X009241Y005683D01*
X009287Y005670D01*
X009331Y005654D01*
X009375Y005633D01*
X009416Y005610D01*
X009455Y005584D01*
X009492Y005554D01*
X009527Y005521D01*
X009559Y005486D01*
X009588Y005449D01*
X009100Y005700D02*
X009054Y005698D01*
X009008Y005693D01*
X008962Y005684D01*
X008917Y005672D01*
X008874Y005656D01*
X008832Y005637D01*
X008791Y005614D01*
X008752Y005589D01*
X008716Y005561D01*
X008681Y005530D01*
X008649Y005496D01*
X008620Y005460D01*
X009100Y004500D02*
X009145Y004502D01*
X009191Y004507D01*
X009235Y004515D01*
X009279Y004527D01*
X009322Y004543D01*
X009364Y004561D01*
X009404Y004583D01*
X009442Y004607D01*
X009478Y004634D01*
X009513Y004664D01*
X009544Y004697D01*
X009574Y004732D01*
X013100Y005700D02*
X013147Y005698D01*
X013195Y005692D01*
X013241Y005683D01*
X013287Y005670D01*
X013331Y005654D01*
X013375Y005633D01*
X013416Y005610D01*
X013455Y005584D01*
X013492Y005554D01*
X013527Y005521D01*
X013559Y005486D01*
X013588Y005449D01*
X013100Y004500D02*
X013055Y004502D01*
X013009Y004507D01*
X012965Y004515D01*
X012921Y004527D01*
X012878Y004543D01*
X012836Y004561D01*
X012796Y004583D01*
X012758Y004607D01*
X012722Y004634D01*
X012687Y004664D01*
X012656Y004697D01*
X012626Y004732D01*
X013100Y004500D02*
X013145Y004502D01*
X013191Y004507D01*
X013235Y004515D01*
X013279Y004527D01*
X013322Y004543D01*
X013364Y004561D01*
X013404Y004583D01*
X013442Y004607D01*
X013478Y004634D01*
X013513Y004664D01*
X013544Y004697D01*
X013574Y004732D01*
X013100Y005700D02*
X013054Y005698D01*
X013008Y005693D01*
X012962Y005684D01*
X012917Y005672D01*
X012874Y005656D01*
X012832Y005637D01*
X012791Y005614D01*
X012752Y005589D01*
X012716Y005561D01*
X012681Y005530D01*
X012649Y005496D01*
X012620Y005460D01*
X015100Y005700D02*
X015147Y005698D01*
X015195Y005692D01*
X015241Y005683D01*
X015287Y005670D01*
X015331Y005654D01*
X015375Y005633D01*
X015416Y005610D01*
X015455Y005584D01*
X015492Y005554D01*
X015527Y005521D01*
X015559Y005486D01*
X015588Y005449D01*
X015100Y004500D02*
X015055Y004502D01*
X015009Y004507D01*
X014965Y004515D01*
X014921Y004527D01*
X014878Y004543D01*
X014836Y004561D01*
X014796Y004583D01*
X014758Y004607D01*
X014722Y004634D01*
X014687Y004664D01*
X014656Y004697D01*
X014626Y004732D01*
X015100Y004500D02*
X015145Y004502D01*
X015191Y004507D01*
X015235Y004515D01*
X015279Y004527D01*
X015322Y004543D01*
X015364Y004561D01*
X015404Y004583D01*
X015442Y004607D01*
X015478Y004634D01*
X015513Y004664D01*
X015544Y004697D01*
X015574Y004732D01*
X015100Y005700D02*
X015054Y005698D01*
X015008Y005693D01*
X014962Y005684D01*
X014917Y005672D01*
X014874Y005656D01*
X014832Y005637D01*
X014791Y005614D01*
X014752Y005589D01*
X014716Y005561D01*
X014681Y005530D01*
X014649Y005496D01*
X014620Y005460D01*
X015588Y007449D02*
X015559Y007486D01*
X015527Y007521D01*
X015492Y007554D01*
X015455Y007584D01*
X015416Y007610D01*
X015375Y007633D01*
X015331Y007654D01*
X015287Y007670D01*
X015241Y007683D01*
X015195Y007692D01*
X015147Y007698D01*
X015100Y007700D01*
X014626Y006732D02*
X014656Y006697D01*
X014687Y006664D01*
X014722Y006634D01*
X014758Y006607D01*
X014796Y006583D01*
X014836Y006561D01*
X014878Y006543D01*
X014921Y006527D01*
X014965Y006515D01*
X015009Y006507D01*
X015055Y006502D01*
X015100Y006500D01*
X014620Y007460D02*
X014649Y007496D01*
X014681Y007530D01*
X014716Y007561D01*
X014752Y007589D01*
X014791Y007614D01*
X014832Y007637D01*
X014874Y007656D01*
X014917Y007672D01*
X014962Y007684D01*
X015008Y007693D01*
X015054Y007698D01*
X015100Y007700D01*
X015574Y006732D02*
X015544Y006697D01*
X015513Y006664D01*
X015478Y006634D01*
X015442Y006607D01*
X015404Y006583D01*
X015364Y006561D01*
X015322Y006543D01*
X015279Y006527D01*
X015235Y006515D01*
X015191Y006507D01*
X015145Y006502D01*
X015100Y006500D01*
X017100Y007700D02*
X017147Y007698D01*
X017195Y007692D01*
X017241Y007683D01*
X017287Y007670D01*
X017331Y007654D01*
X017375Y007633D01*
X017416Y007610D01*
X017455Y007584D01*
X017492Y007554D01*
X017527Y007521D01*
X017559Y007486D01*
X017588Y007449D01*
X017100Y006500D02*
X017055Y006502D01*
X017009Y006507D01*
X016965Y006515D01*
X016921Y006527D01*
X016878Y006543D01*
X016836Y006561D01*
X016796Y006583D01*
X016758Y006607D01*
X016722Y006634D01*
X016687Y006664D01*
X016656Y006697D01*
X016626Y006732D01*
X017100Y006500D02*
X017145Y006502D01*
X017191Y006507D01*
X017235Y006515D01*
X017279Y006527D01*
X017322Y006543D01*
X017364Y006561D01*
X017404Y006583D01*
X017442Y006607D01*
X017478Y006634D01*
X017513Y006664D01*
X017544Y006697D01*
X017574Y006732D01*
X017100Y007700D02*
X017054Y007698D01*
X017008Y007693D01*
X016962Y007684D01*
X016917Y007672D01*
X016874Y007656D01*
X016832Y007637D01*
X016791Y007614D01*
X016752Y007589D01*
X016716Y007561D01*
X016681Y007530D01*
X016649Y007496D01*
X016620Y007460D01*
X017588Y009449D02*
X017559Y009486D01*
X017527Y009521D01*
X017492Y009554D01*
X017455Y009584D01*
X017416Y009610D01*
X017375Y009633D01*
X017331Y009654D01*
X017287Y009670D01*
X017241Y009683D01*
X017195Y009692D01*
X017147Y009698D01*
X017100Y009700D01*
X016626Y008732D02*
X016656Y008697D01*
X016687Y008664D01*
X016722Y008634D01*
X016758Y008607D01*
X016796Y008583D01*
X016836Y008561D01*
X016878Y008543D01*
X016921Y008527D01*
X016965Y008515D01*
X017009Y008507D01*
X017055Y008502D01*
X017100Y008500D01*
X016620Y009460D02*
X016649Y009496D01*
X016681Y009530D01*
X016716Y009561D01*
X016752Y009589D01*
X016791Y009614D01*
X016832Y009637D01*
X016874Y009656D01*
X016917Y009672D01*
X016962Y009684D01*
X017008Y009693D01*
X017054Y009698D01*
X017100Y009700D01*
X017574Y008732D02*
X017544Y008697D01*
X017513Y008664D01*
X017478Y008634D01*
X017442Y008607D01*
X017404Y008583D01*
X017364Y008561D01*
X017322Y008543D01*
X017279Y008527D01*
X017235Y008515D01*
X017191Y008507D01*
X017145Y008502D01*
X017100Y008500D01*
X015100Y008500D02*
X015055Y008502D01*
X015009Y008507D01*
X014965Y008515D01*
X014921Y008527D01*
X014878Y008543D01*
X014836Y008561D01*
X014796Y008583D01*
X014758Y008607D01*
X014722Y008634D01*
X014687Y008664D01*
X014656Y008697D01*
X014626Y008732D01*
X015100Y009700D02*
X015147Y009698D01*
X015195Y009692D01*
X015241Y009683D01*
X015287Y009670D01*
X015331Y009654D01*
X015375Y009633D01*
X015416Y009610D01*
X015455Y009584D01*
X015492Y009554D01*
X015527Y009521D01*
X015559Y009486D01*
X015588Y009449D01*
X015100Y009700D02*
X015054Y009698D01*
X015008Y009693D01*
X014962Y009684D01*
X014917Y009672D01*
X014874Y009656D01*
X014832Y009637D01*
X014791Y009614D01*
X014752Y009589D01*
X014716Y009561D01*
X014681Y009530D01*
X014649Y009496D01*
X014620Y009460D01*
X015100Y008500D02*
X015145Y008502D01*
X015191Y008507D01*
X015235Y008515D01*
X015279Y008527D01*
X015322Y008543D01*
X015364Y008561D01*
X015404Y008583D01*
X015442Y008607D01*
X015478Y008634D01*
X015513Y008664D01*
X015544Y008697D01*
X015574Y008732D01*
X014620Y011460D02*
X014649Y011496D01*
X014681Y011530D01*
X014716Y011561D01*
X014752Y011589D01*
X014791Y011614D01*
X014832Y011637D01*
X014874Y011656D01*
X014917Y011672D01*
X014962Y011684D01*
X015008Y011693D01*
X015054Y011698D01*
X015100Y011700D01*
X014626Y010732D02*
X014656Y010697D01*
X014687Y010664D01*
X014722Y010634D01*
X014758Y010607D01*
X014796Y010583D01*
X014836Y010561D01*
X014878Y010543D01*
X014921Y010527D01*
X014965Y010515D01*
X015009Y010507D01*
X015055Y010502D01*
X015100Y010500D01*
X015588Y011449D02*
X015559Y011486D01*
X015527Y011521D01*
X015492Y011554D01*
X015455Y011584D01*
X015416Y011610D01*
X015375Y011633D01*
X015331Y011654D01*
X015287Y011670D01*
X015241Y011683D01*
X015195Y011692D01*
X015147Y011698D01*
X015100Y011700D01*
X015574Y010732D02*
X015544Y010697D01*
X015513Y010664D01*
X015478Y010634D01*
X015442Y010607D01*
X015404Y010583D01*
X015364Y010561D01*
X015322Y010543D01*
X015279Y010527D01*
X015235Y010515D01*
X015191Y010507D01*
X015145Y010502D01*
X015100Y010500D01*
X017100Y011700D02*
X017147Y011698D01*
X017195Y011692D01*
X017241Y011683D01*
X017287Y011670D01*
X017331Y011654D01*
X017375Y011633D01*
X017416Y011610D01*
X017455Y011584D01*
X017492Y011554D01*
X017527Y011521D01*
X017559Y011486D01*
X017588Y011449D01*
X017100Y010500D02*
X017055Y010502D01*
X017009Y010507D01*
X016965Y010515D01*
X016921Y010527D01*
X016878Y010543D01*
X016836Y010561D01*
X016796Y010583D01*
X016758Y010607D01*
X016722Y010634D01*
X016687Y010664D01*
X016656Y010697D01*
X016626Y010732D01*
X017100Y010500D02*
X017145Y010502D01*
X017191Y010507D01*
X017235Y010515D01*
X017279Y010527D01*
X017322Y010543D01*
X017364Y010561D01*
X017404Y010583D01*
X017442Y010607D01*
X017478Y010634D01*
X017513Y010664D01*
X017544Y010697D01*
X017574Y010732D01*
X017100Y011700D02*
X017054Y011698D01*
X017008Y011693D01*
X016962Y011684D01*
X016917Y011672D01*
X016874Y011656D01*
X016832Y011637D01*
X016791Y011614D01*
X016752Y011589D01*
X016716Y011561D01*
X016681Y011530D01*
X016649Y011496D01*
X016620Y011460D01*
X017588Y013449D02*
X017559Y013486D01*
X017527Y013521D01*
X017492Y013554D01*
X017455Y013584D01*
X017416Y013610D01*
X017375Y013633D01*
X017331Y013654D01*
X017287Y013670D01*
X017241Y013683D01*
X017195Y013692D01*
X017147Y013698D01*
X017100Y013700D01*
X016626Y012732D02*
X016656Y012697D01*
X016687Y012664D01*
X016722Y012634D01*
X016758Y012607D01*
X016796Y012583D01*
X016836Y012561D01*
X016878Y012543D01*
X016921Y012527D01*
X016965Y012515D01*
X017009Y012507D01*
X017055Y012502D01*
X017100Y012500D01*
X016620Y013460D02*
X016649Y013496D01*
X016681Y013530D01*
X016716Y013561D01*
X016752Y013589D01*
X016791Y013614D01*
X016832Y013637D01*
X016874Y013656D01*
X016917Y013672D01*
X016962Y013684D01*
X017008Y013693D01*
X017054Y013698D01*
X017100Y013700D01*
X017574Y012732D02*
X017544Y012697D01*
X017513Y012664D01*
X017478Y012634D01*
X017442Y012607D01*
X017404Y012583D01*
X017364Y012561D01*
X017322Y012543D01*
X017279Y012527D01*
X017235Y012515D01*
X017191Y012507D01*
X017145Y012502D01*
X017100Y012500D01*
X015100Y012500D02*
X015055Y012502D01*
X015009Y012507D01*
X014965Y012515D01*
X014921Y012527D01*
X014878Y012543D01*
X014836Y012561D01*
X014796Y012583D01*
X014758Y012607D01*
X014722Y012634D01*
X014687Y012664D01*
X014656Y012697D01*
X014626Y012732D01*
X015100Y013700D02*
X015147Y013698D01*
X015195Y013692D01*
X015241Y013683D01*
X015287Y013670D01*
X015331Y013654D01*
X015375Y013633D01*
X015416Y013610D01*
X015455Y013584D01*
X015492Y013554D01*
X015527Y013521D01*
X015559Y013486D01*
X015588Y013449D01*
X015100Y013700D02*
X015054Y013698D01*
X015008Y013693D01*
X014962Y013684D01*
X014917Y013672D01*
X014874Y013656D01*
X014832Y013637D01*
X014791Y013614D01*
X014752Y013589D01*
X014716Y013561D01*
X014681Y013530D01*
X014649Y013496D01*
X014620Y013460D01*
X015100Y012500D02*
X015145Y012502D01*
X015191Y012507D01*
X015235Y012515D01*
X015279Y012527D01*
X015322Y012543D01*
X015364Y012561D01*
X015404Y012583D01*
X015442Y012607D01*
X015478Y012634D01*
X015513Y012664D01*
X015544Y012697D01*
X015574Y012732D01*
X014620Y015460D02*
X014649Y015496D01*
X014681Y015530D01*
X014716Y015561D01*
X014752Y015589D01*
X014791Y015614D01*
X014832Y015637D01*
X014874Y015656D01*
X014917Y015672D01*
X014962Y015684D01*
X015008Y015693D01*
X015054Y015698D01*
X015100Y015700D01*
X014626Y014732D02*
X014656Y014697D01*
X014687Y014664D01*
X014722Y014634D01*
X014758Y014607D01*
X014796Y014583D01*
X014836Y014561D01*
X014878Y014543D01*
X014921Y014527D01*
X014965Y014515D01*
X015009Y014507D01*
X015055Y014502D01*
X015100Y014500D01*
X015588Y015449D02*
X015559Y015486D01*
X015527Y015521D01*
X015492Y015554D01*
X015455Y015584D01*
X015416Y015610D01*
X015375Y015633D01*
X015331Y015654D01*
X015287Y015670D01*
X015241Y015683D01*
X015195Y015692D01*
X015147Y015698D01*
X015100Y015700D01*
X015574Y014732D02*
X015544Y014697D01*
X015513Y014664D01*
X015478Y014634D01*
X015442Y014607D01*
X015404Y014583D01*
X015364Y014561D01*
X015322Y014543D01*
X015279Y014527D01*
X015235Y014515D01*
X015191Y014507D01*
X015145Y014502D01*
X015100Y014500D01*
X017100Y015700D02*
X017147Y015698D01*
X017195Y015692D01*
X017241Y015683D01*
X017287Y015670D01*
X017331Y015654D01*
X017375Y015633D01*
X017416Y015610D01*
X017455Y015584D01*
X017492Y015554D01*
X017527Y015521D01*
X017559Y015486D01*
X017588Y015449D01*
X017100Y014500D02*
X017055Y014502D01*
X017009Y014507D01*
X016965Y014515D01*
X016921Y014527D01*
X016878Y014543D01*
X016836Y014561D01*
X016796Y014583D01*
X016758Y014607D01*
X016722Y014634D01*
X016687Y014664D01*
X016656Y014697D01*
X016626Y014732D01*
X017100Y014500D02*
X017145Y014502D01*
X017191Y014507D01*
X017235Y014515D01*
X017279Y014527D01*
X017322Y014543D01*
X017364Y014561D01*
X017404Y014583D01*
X017442Y014607D01*
X017478Y014634D01*
X017513Y014664D01*
X017544Y014697D01*
X017574Y014732D01*
X017100Y015700D02*
X017054Y015698D01*
X017008Y015693D01*
X016962Y015684D01*
X016917Y015672D01*
X016874Y015656D01*
X016832Y015637D01*
X016791Y015614D01*
X016752Y015589D01*
X016716Y015561D01*
X016681Y015530D01*
X016649Y015496D01*
X016620Y015460D01*
X017588Y017449D02*
X017559Y017486D01*
X017527Y017521D01*
X017492Y017554D01*
X017455Y017584D01*
X017416Y017610D01*
X017375Y017633D01*
X017331Y017654D01*
X017287Y017670D01*
X017241Y017683D01*
X017195Y017692D01*
X017147Y017698D01*
X017100Y017700D01*
X016626Y016732D02*
X016656Y016697D01*
X016687Y016664D01*
X016722Y016634D01*
X016758Y016607D01*
X016796Y016583D01*
X016836Y016561D01*
X016878Y016543D01*
X016921Y016527D01*
X016965Y016515D01*
X017009Y016507D01*
X017055Y016502D01*
X017100Y016500D01*
X016620Y017460D02*
X016649Y017496D01*
X016681Y017530D01*
X016716Y017561D01*
X016752Y017589D01*
X016791Y017614D01*
X016832Y017637D01*
X016874Y017656D01*
X016917Y017672D01*
X016962Y017684D01*
X017008Y017693D01*
X017054Y017698D01*
X017100Y017700D01*
X017574Y016732D02*
X017544Y016697D01*
X017513Y016664D01*
X017478Y016634D01*
X017442Y016607D01*
X017404Y016583D01*
X017364Y016561D01*
X017322Y016543D01*
X017279Y016527D01*
X017235Y016515D01*
X017191Y016507D01*
X017145Y016502D01*
X017100Y016500D01*
X015100Y016500D02*
X015055Y016502D01*
X015009Y016507D01*
X014965Y016515D01*
X014921Y016527D01*
X014878Y016543D01*
X014836Y016561D01*
X014796Y016583D01*
X014758Y016607D01*
X014722Y016634D01*
X014687Y016664D01*
X014656Y016697D01*
X014626Y016732D01*
X015100Y017700D02*
X015147Y017698D01*
X015195Y017692D01*
X015241Y017683D01*
X015287Y017670D01*
X015331Y017654D01*
X015375Y017633D01*
X015416Y017610D01*
X015455Y017584D01*
X015492Y017554D01*
X015527Y017521D01*
X015559Y017486D01*
X015588Y017449D01*
X015100Y017700D02*
X015054Y017698D01*
X015008Y017693D01*
X014962Y017684D01*
X014917Y017672D01*
X014874Y017656D01*
X014832Y017637D01*
X014791Y017614D01*
X014752Y017589D01*
X014716Y017561D01*
X014681Y017530D01*
X014649Y017496D01*
X014620Y017460D01*
X015100Y016500D02*
X015145Y016502D01*
X015191Y016507D01*
X015235Y016515D01*
X015279Y016527D01*
X015322Y016543D01*
X015364Y016561D01*
X015404Y016583D01*
X015442Y016607D01*
X015478Y016634D01*
X015513Y016664D01*
X015544Y016697D01*
X015574Y016732D01*
X007100Y016500D02*
X007055Y016502D01*
X007009Y016507D01*
X006965Y016515D01*
X006921Y016527D01*
X006878Y016543D01*
X006836Y016561D01*
X006796Y016583D01*
X006758Y016607D01*
X006722Y016634D01*
X006687Y016664D01*
X006656Y016697D01*
X006626Y016732D01*
X007100Y017700D02*
X007147Y017698D01*
X007195Y017692D01*
X007241Y017683D01*
X007287Y017670D01*
X007331Y017654D01*
X007375Y017633D01*
X007416Y017610D01*
X007455Y017584D01*
X007492Y017554D01*
X007527Y017521D01*
X007559Y017486D01*
X007588Y017449D01*
X007100Y017700D02*
X007054Y017698D01*
X007008Y017693D01*
X006962Y017684D01*
X006917Y017672D01*
X006874Y017656D01*
X006832Y017637D01*
X006791Y017614D01*
X006752Y017589D01*
X006716Y017561D01*
X006681Y017530D01*
X006649Y017496D01*
X006620Y017460D01*
X007100Y016500D02*
X007145Y016502D01*
X007191Y016507D01*
X007235Y016515D01*
X007279Y016527D01*
X007322Y016543D01*
X007364Y016561D01*
X007404Y016583D01*
X007442Y016607D01*
X007478Y016634D01*
X007513Y016664D01*
X007544Y016697D01*
X007574Y016732D01*
X006626Y014732D02*
X006656Y014697D01*
X006687Y014664D01*
X006722Y014634D01*
X006758Y014607D01*
X006796Y014583D01*
X006836Y014561D01*
X006878Y014543D01*
X006921Y014527D01*
X006965Y014515D01*
X007009Y014507D01*
X007055Y014502D01*
X007100Y014500D01*
X006620Y015460D02*
X006649Y015496D01*
X006681Y015530D01*
X006716Y015561D01*
X006752Y015589D01*
X006791Y015614D01*
X006832Y015637D01*
X006874Y015656D01*
X006917Y015672D01*
X006962Y015684D01*
X007008Y015693D01*
X007054Y015698D01*
X007100Y015700D01*
X007574Y014732D02*
X007544Y014697D01*
X007513Y014664D01*
X007478Y014634D01*
X007442Y014607D01*
X007404Y014583D01*
X007364Y014561D01*
X007322Y014543D01*
X007279Y014527D01*
X007235Y014515D01*
X007191Y014507D01*
X007145Y014502D01*
X007100Y014500D01*
X007588Y015449D02*
X007559Y015486D01*
X007527Y015521D01*
X007492Y015554D01*
X007455Y015584D01*
X007416Y015610D01*
X007375Y015633D01*
X007331Y015654D01*
X007287Y015670D01*
X007241Y015683D01*
X007195Y015692D01*
X007147Y015698D01*
X007100Y015700D01*
X006626Y012732D02*
X006656Y012697D01*
X006687Y012664D01*
X006722Y012634D01*
X006758Y012607D01*
X006796Y012583D01*
X006836Y012561D01*
X006878Y012543D01*
X006921Y012527D01*
X006965Y012515D01*
X007009Y012507D01*
X007055Y012502D01*
X007100Y012500D01*
X006620Y013460D02*
X006649Y013496D01*
X006681Y013530D01*
X006716Y013561D01*
X006752Y013589D01*
X006791Y013614D01*
X006832Y013637D01*
X006874Y013656D01*
X006917Y013672D01*
X006962Y013684D01*
X007008Y013693D01*
X007054Y013698D01*
X007100Y013700D01*
X007574Y012732D02*
X007544Y012697D01*
X007513Y012664D01*
X007478Y012634D01*
X007442Y012607D01*
X007404Y012583D01*
X007364Y012561D01*
X007322Y012543D01*
X007279Y012527D01*
X007235Y012515D01*
X007191Y012507D01*
X007145Y012502D01*
X007100Y012500D01*
X007588Y013449D02*
X007559Y013486D01*
X007527Y013521D01*
X007492Y013554D01*
X007455Y013584D01*
X007416Y013610D01*
X007375Y013633D01*
X007331Y013654D01*
X007287Y013670D01*
X007241Y013683D01*
X007195Y013692D01*
X007147Y013698D01*
X007100Y013700D01*
X006626Y010732D02*
X006656Y010697D01*
X006687Y010664D01*
X006722Y010634D01*
X006758Y010607D01*
X006796Y010583D01*
X006836Y010561D01*
X006878Y010543D01*
X006921Y010527D01*
X006965Y010515D01*
X007009Y010507D01*
X007055Y010502D01*
X007100Y010500D01*
X006620Y011460D02*
X006649Y011496D01*
X006681Y011530D01*
X006716Y011561D01*
X006752Y011589D01*
X006791Y011614D01*
X006832Y011637D01*
X006874Y011656D01*
X006917Y011672D01*
X006962Y011684D01*
X007008Y011693D01*
X007054Y011698D01*
X007100Y011700D01*
X007574Y010732D02*
X007544Y010697D01*
X007513Y010664D01*
X007478Y010634D01*
X007442Y010607D01*
X007404Y010583D01*
X007364Y010561D01*
X007322Y010543D01*
X007279Y010527D01*
X007235Y010515D01*
X007191Y010507D01*
X007145Y010502D01*
X007100Y010500D01*
X007588Y011449D02*
X007559Y011486D01*
X007527Y011521D01*
X007492Y011554D01*
X007455Y011584D01*
X007416Y011610D01*
X007375Y011633D01*
X007331Y011654D01*
X007287Y011670D01*
X007241Y011683D01*
X007195Y011692D01*
X007147Y011698D01*
X007100Y011700D01*
X006626Y008732D02*
X006656Y008697D01*
X006687Y008664D01*
X006722Y008634D01*
X006758Y008607D01*
X006796Y008583D01*
X006836Y008561D01*
X006878Y008543D01*
X006921Y008527D01*
X006965Y008515D01*
X007009Y008507D01*
X007055Y008502D01*
X007100Y008500D01*
X006620Y009460D02*
X006649Y009496D01*
X006681Y009530D01*
X006716Y009561D01*
X006752Y009589D01*
X006791Y009614D01*
X006832Y009637D01*
X006874Y009656D01*
X006917Y009672D01*
X006962Y009684D01*
X007008Y009693D01*
X007054Y009698D01*
X007100Y009700D01*
X007574Y008732D02*
X007544Y008697D01*
X007513Y008664D01*
X007478Y008634D01*
X007442Y008607D01*
X007404Y008583D01*
X007364Y008561D01*
X007322Y008543D01*
X007279Y008527D01*
X007235Y008515D01*
X007191Y008507D01*
X007145Y008502D01*
X007100Y008500D01*
X007588Y009449D02*
X007559Y009486D01*
X007527Y009521D01*
X007492Y009554D01*
X007455Y009584D01*
X007416Y009610D01*
X007375Y009633D01*
X007331Y009654D01*
X007287Y009670D01*
X007241Y009683D01*
X007195Y009692D01*
X007147Y009698D01*
X007100Y009700D01*
X017100Y005700D02*
X017147Y005698D01*
X017195Y005692D01*
X017241Y005683D01*
X017287Y005670D01*
X017331Y005654D01*
X017375Y005633D01*
X017416Y005610D01*
X017455Y005584D01*
X017492Y005554D01*
X017527Y005521D01*
X017559Y005486D01*
X017588Y005449D01*
X017100Y004500D02*
X017055Y004502D01*
X017009Y004507D01*
X016965Y004515D01*
X016921Y004527D01*
X016878Y004543D01*
X016836Y004561D01*
X016796Y004583D01*
X016758Y004607D01*
X016722Y004634D01*
X016687Y004664D01*
X016656Y004697D01*
X016626Y004732D01*
X017100Y004500D02*
X017145Y004502D01*
X017191Y004507D01*
X017235Y004515D01*
X017279Y004527D01*
X017322Y004543D01*
X017364Y004561D01*
X017404Y004583D01*
X017442Y004607D01*
X017478Y004634D01*
X017513Y004664D01*
X017544Y004697D01*
X017574Y004732D01*
X017100Y005700D02*
X017054Y005698D01*
X017008Y005693D01*
X016962Y005684D01*
X016917Y005672D01*
X016874Y005656D01*
X016832Y005637D01*
X016791Y005614D01*
X016752Y005589D01*
X016716Y005561D01*
X016681Y005530D01*
X016649Y005496D01*
X016620Y005460D01*
X017100Y003700D02*
X017147Y003698D01*
X017195Y003692D01*
X017241Y003683D01*
X017287Y003670D01*
X017331Y003654D01*
X017375Y003633D01*
X017416Y003610D01*
X017455Y003584D01*
X017492Y003554D01*
X017527Y003521D01*
X017559Y003486D01*
X017588Y003449D01*
X017100Y002500D02*
X017055Y002502D01*
X017009Y002507D01*
X016965Y002515D01*
X016921Y002527D01*
X016878Y002543D01*
X016836Y002561D01*
X016796Y002583D01*
X016758Y002607D01*
X016722Y002634D01*
X016687Y002664D01*
X016656Y002697D01*
X016626Y002732D01*
X017100Y002500D02*
X017145Y002502D01*
X017191Y002507D01*
X017235Y002515D01*
X017279Y002527D01*
X017322Y002543D01*
X017364Y002561D01*
X017404Y002583D01*
X017442Y002607D01*
X017478Y002634D01*
X017513Y002664D01*
X017544Y002697D01*
X017574Y002732D01*
X017100Y003700D02*
X017054Y003698D01*
X017008Y003693D01*
X016962Y003684D01*
X016917Y003672D01*
X016874Y003656D01*
X016832Y003637D01*
X016791Y003614D01*
X016752Y003589D01*
X016716Y003561D01*
X016681Y003530D01*
X016649Y003496D01*
X016620Y003460D01*
X017100Y001700D02*
X017147Y001698D01*
X017195Y001692D01*
X017241Y001683D01*
X017287Y001670D01*
X017331Y001654D01*
X017375Y001633D01*
X017416Y001610D01*
X017455Y001584D01*
X017492Y001554D01*
X017527Y001521D01*
X017559Y001486D01*
X017588Y001449D01*
X017100Y000500D02*
X017055Y000502D01*
X017009Y000507D01*
X016965Y000515D01*
X016921Y000527D01*
X016878Y000543D01*
X016836Y000561D01*
X016796Y000583D01*
X016758Y000607D01*
X016722Y000634D01*
X016687Y000664D01*
X016656Y000697D01*
X016626Y000732D01*
X017100Y000500D02*
X017145Y000502D01*
X017191Y000507D01*
X017235Y000515D01*
X017279Y000527D01*
X017322Y000543D01*
X017364Y000561D01*
X017404Y000583D01*
X017442Y000607D01*
X017478Y000634D01*
X017513Y000664D01*
X017544Y000697D01*
X017574Y000732D01*
X017100Y001700D02*
X017054Y001698D01*
X017008Y001693D01*
X016962Y001684D01*
X016917Y001672D01*
X016874Y001656D01*
X016832Y001637D01*
X016791Y001614D01*
X016752Y001589D01*
X016716Y001561D01*
X016681Y001530D01*
X016649Y001496D01*
X016620Y001460D01*
D12*
X016405Y000703D02*
X016435Y000655D01*
X016468Y000610D01*
X016504Y000567D01*
X016542Y000526D01*
X016584Y000489D01*
X016628Y000454D01*
X016674Y000423D01*
X016723Y000394D01*
X016773Y000370D01*
X016825Y000349D01*
X016879Y000331D01*
X016933Y000318D01*
X016988Y000308D01*
X017044Y000302D01*
X017100Y000300D01*
X016394Y001476D02*
X016421Y001523D01*
X016451Y001568D01*
X016484Y001611D01*
X016520Y001651D01*
X016559Y001689D01*
X016600Y001724D01*
X016643Y001757D01*
X016688Y001786D01*
X016736Y001812D01*
X016785Y001835D01*
X016835Y001855D01*
X016886Y001871D01*
X016939Y001884D01*
X016992Y001893D01*
X017046Y001898D01*
X017100Y001900D01*
X017711Y000583D02*
X017675Y000544D01*
X017636Y000506D01*
X017596Y000472D01*
X017553Y000440D01*
X017508Y000412D01*
X017461Y000386D01*
X017412Y000363D01*
X017362Y000344D01*
X017311Y000328D01*
X017259Y000316D01*
X017207Y000307D01*
X017153Y000302D01*
X017100Y000300D01*
X017715Y001612D02*
X017679Y001652D01*
X017640Y001690D01*
X017599Y001725D01*
X017556Y001757D01*
X017511Y001787D01*
X017464Y001813D01*
X017415Y001835D01*
X017364Y001855D01*
X017313Y001871D01*
X017261Y001884D01*
X017207Y001893D01*
X017154Y001898D01*
X017100Y001900D01*
X016394Y003476D02*
X016421Y003523D01*
X016451Y003568D01*
X016484Y003611D01*
X016520Y003651D01*
X016559Y003689D01*
X016600Y003724D01*
X016643Y003757D01*
X016688Y003786D01*
X016736Y003812D01*
X016785Y003835D01*
X016835Y003855D01*
X016886Y003871D01*
X016939Y003884D01*
X016992Y003893D01*
X017046Y003898D01*
X017100Y003900D01*
X016405Y002703D02*
X016435Y002655D01*
X016468Y002610D01*
X016504Y002567D01*
X016542Y002526D01*
X016584Y002489D01*
X016628Y002454D01*
X016674Y002423D01*
X016723Y002394D01*
X016773Y002370D01*
X016825Y002349D01*
X016879Y002331D01*
X016933Y002318D01*
X016988Y002308D01*
X017044Y002302D01*
X017100Y002300D01*
X017153Y002302D01*
X017207Y002307D01*
X017259Y002316D01*
X017311Y002328D01*
X017362Y002344D01*
X017412Y002363D01*
X017461Y002386D01*
X017508Y002412D01*
X017553Y002440D01*
X017596Y002472D01*
X017636Y002506D01*
X017675Y002544D01*
X017711Y002583D01*
X017715Y003612D02*
X017679Y003652D01*
X017640Y003690D01*
X017599Y003725D01*
X017556Y003757D01*
X017511Y003787D01*
X017464Y003813D01*
X017415Y003835D01*
X017364Y003855D01*
X017313Y003871D01*
X017261Y003884D01*
X017207Y003893D01*
X017154Y003898D01*
X017100Y003900D01*
X016394Y005476D02*
X016421Y005523D01*
X016451Y005568D01*
X016484Y005611D01*
X016520Y005651D01*
X016559Y005689D01*
X016600Y005724D01*
X016643Y005757D01*
X016688Y005786D01*
X016736Y005812D01*
X016785Y005835D01*
X016835Y005855D01*
X016886Y005871D01*
X016939Y005884D01*
X016992Y005893D01*
X017046Y005898D01*
X017100Y005900D01*
X016405Y004703D02*
X016435Y004655D01*
X016468Y004610D01*
X016504Y004567D01*
X016542Y004526D01*
X016584Y004489D01*
X016628Y004454D01*
X016674Y004423D01*
X016723Y004394D01*
X016773Y004370D01*
X016825Y004349D01*
X016879Y004331D01*
X016933Y004318D01*
X016988Y004308D01*
X017044Y004302D01*
X017100Y004300D01*
X017153Y004302D01*
X017207Y004307D01*
X017259Y004316D01*
X017311Y004328D01*
X017362Y004344D01*
X017412Y004363D01*
X017461Y004386D01*
X017508Y004412D01*
X017553Y004440D01*
X017596Y004472D01*
X017636Y004506D01*
X017675Y004544D01*
X017711Y004583D01*
X017715Y005612D02*
X017679Y005652D01*
X017640Y005690D01*
X017599Y005725D01*
X017556Y005757D01*
X017511Y005787D01*
X017464Y005813D01*
X017415Y005835D01*
X017364Y005855D01*
X017313Y005871D01*
X017261Y005884D01*
X017207Y005893D01*
X017154Y005898D01*
X017100Y005900D01*
X016394Y007476D02*
X016421Y007523D01*
X016451Y007568D01*
X016484Y007611D01*
X016520Y007651D01*
X016559Y007689D01*
X016600Y007724D01*
X016643Y007757D01*
X016688Y007786D01*
X016736Y007812D01*
X016785Y007835D01*
X016835Y007855D01*
X016886Y007871D01*
X016939Y007884D01*
X016992Y007893D01*
X017046Y007898D01*
X017100Y007900D01*
X016405Y006703D02*
X016435Y006655D01*
X016468Y006610D01*
X016504Y006567D01*
X016542Y006526D01*
X016584Y006489D01*
X016628Y006454D01*
X016674Y006423D01*
X016723Y006394D01*
X016773Y006370D01*
X016825Y006349D01*
X016879Y006331D01*
X016933Y006318D01*
X016988Y006308D01*
X017044Y006302D01*
X017100Y006300D01*
X017153Y006302D01*
X017207Y006307D01*
X017259Y006316D01*
X017311Y006328D01*
X017362Y006344D01*
X017412Y006363D01*
X017461Y006386D01*
X017508Y006412D01*
X017553Y006440D01*
X017596Y006472D01*
X017636Y006506D01*
X017675Y006544D01*
X017711Y006583D01*
X017715Y007612D02*
X017679Y007652D01*
X017640Y007690D01*
X017599Y007725D01*
X017556Y007757D01*
X017511Y007787D01*
X017464Y007813D01*
X017415Y007835D01*
X017364Y007855D01*
X017313Y007871D01*
X017261Y007884D01*
X017207Y007893D01*
X017154Y007898D01*
X017100Y007900D01*
X016394Y009476D02*
X016421Y009523D01*
X016451Y009568D01*
X016484Y009611D01*
X016520Y009651D01*
X016559Y009689D01*
X016600Y009724D01*
X016643Y009757D01*
X016688Y009786D01*
X016736Y009812D01*
X016785Y009835D01*
X016835Y009855D01*
X016886Y009871D01*
X016939Y009884D01*
X016992Y009893D01*
X017046Y009898D01*
X017100Y009900D01*
X016405Y008703D02*
X016435Y008655D01*
X016468Y008610D01*
X016504Y008567D01*
X016542Y008526D01*
X016584Y008489D01*
X016628Y008454D01*
X016674Y008423D01*
X016723Y008394D01*
X016773Y008370D01*
X016825Y008349D01*
X016879Y008331D01*
X016933Y008318D01*
X016988Y008308D01*
X017044Y008302D01*
X017100Y008300D01*
X017153Y008302D01*
X017207Y008307D01*
X017259Y008316D01*
X017311Y008328D01*
X017362Y008344D01*
X017412Y008363D01*
X017461Y008386D01*
X017508Y008412D01*
X017553Y008440D01*
X017596Y008472D01*
X017636Y008506D01*
X017675Y008544D01*
X017711Y008583D01*
X017715Y009612D02*
X017679Y009652D01*
X017640Y009690D01*
X017599Y009725D01*
X017556Y009757D01*
X017511Y009787D01*
X017464Y009813D01*
X017415Y009835D01*
X017364Y009855D01*
X017313Y009871D01*
X017261Y009884D01*
X017207Y009893D01*
X017154Y009898D01*
X017100Y009900D01*
X016394Y011476D02*
X016421Y011523D01*
X016451Y011568D01*
X016484Y011611D01*
X016520Y011651D01*
X016559Y011689D01*
X016600Y011724D01*
X016643Y011757D01*
X016688Y011786D01*
X016736Y011812D01*
X016785Y011835D01*
X016835Y011855D01*
X016886Y011871D01*
X016939Y011884D01*
X016992Y011893D01*
X017046Y011898D01*
X017100Y011900D01*
X016405Y010703D02*
X016435Y010655D01*
X016468Y010610D01*
X016504Y010567D01*
X016542Y010526D01*
X016584Y010489D01*
X016628Y010454D01*
X016674Y010423D01*
X016723Y010394D01*
X016773Y010370D01*
X016825Y010349D01*
X016879Y010331D01*
X016933Y010318D01*
X016988Y010308D01*
X017044Y010302D01*
X017100Y010300D01*
X017153Y010302D01*
X017207Y010307D01*
X017259Y010316D01*
X017311Y010328D01*
X017362Y010344D01*
X017412Y010363D01*
X017461Y010386D01*
X017508Y010412D01*
X017553Y010440D01*
X017596Y010472D01*
X017636Y010506D01*
X017675Y010544D01*
X017711Y010583D01*
X017715Y011612D02*
X017679Y011652D01*
X017640Y011690D01*
X017599Y011725D01*
X017556Y011757D01*
X017511Y011787D01*
X017464Y011813D01*
X017415Y011835D01*
X017364Y011855D01*
X017313Y011871D01*
X017261Y011884D01*
X017207Y011893D01*
X017154Y011898D01*
X017100Y011900D01*
X016394Y013476D02*
X016421Y013523D01*
X016451Y013568D01*
X016484Y013611D01*
X016520Y013651D01*
X016559Y013689D01*
X016600Y013724D01*
X016643Y013757D01*
X016688Y013786D01*
X016736Y013812D01*
X016785Y013835D01*
X016835Y013855D01*
X016886Y013871D01*
X016939Y013884D01*
X016992Y013893D01*
X017046Y013898D01*
X017100Y013900D01*
X016405Y012703D02*
X016435Y012655D01*
X016468Y012610D01*
X016504Y012567D01*
X016542Y012526D01*
X016584Y012489D01*
X016628Y012454D01*
X016674Y012423D01*
X016723Y012394D01*
X016773Y012370D01*
X016825Y012349D01*
X016879Y012331D01*
X016933Y012318D01*
X016988Y012308D01*
X017044Y012302D01*
X017100Y012300D01*
X017153Y012302D01*
X017207Y012307D01*
X017259Y012316D01*
X017311Y012328D01*
X017362Y012344D01*
X017412Y012363D01*
X017461Y012386D01*
X017508Y012412D01*
X017553Y012440D01*
X017596Y012472D01*
X017636Y012506D01*
X017675Y012544D01*
X017711Y012583D01*
X017715Y013612D02*
X017679Y013652D01*
X017640Y013690D01*
X017599Y013725D01*
X017556Y013757D01*
X017511Y013787D01*
X017464Y013813D01*
X017415Y013835D01*
X017364Y013855D01*
X017313Y013871D01*
X017261Y013884D01*
X017207Y013893D01*
X017154Y013898D01*
X017100Y013900D01*
X016394Y015476D02*
X016421Y015523D01*
X016451Y015568D01*
X016484Y015611D01*
X016520Y015651D01*
X016559Y015689D01*
X016600Y015724D01*
X016643Y015757D01*
X016688Y015786D01*
X016736Y015812D01*
X016785Y015835D01*
X016835Y015855D01*
X016886Y015871D01*
X016939Y015884D01*
X016992Y015893D01*
X017046Y015898D01*
X017100Y015900D01*
X016405Y014703D02*
X016435Y014655D01*
X016468Y014610D01*
X016504Y014567D01*
X016542Y014526D01*
X016584Y014489D01*
X016628Y014454D01*
X016674Y014423D01*
X016723Y014394D01*
X016773Y014370D01*
X016825Y014349D01*
X016879Y014331D01*
X016933Y014318D01*
X016988Y014308D01*
X017044Y014302D01*
X017100Y014300D01*
X017153Y014302D01*
X017207Y014307D01*
X017259Y014316D01*
X017311Y014328D01*
X017362Y014344D01*
X017412Y014363D01*
X017461Y014386D01*
X017508Y014412D01*
X017553Y014440D01*
X017596Y014472D01*
X017636Y014506D01*
X017675Y014544D01*
X017711Y014583D01*
X017715Y015612D02*
X017679Y015652D01*
X017640Y015690D01*
X017599Y015725D01*
X017556Y015757D01*
X017511Y015787D01*
X017464Y015813D01*
X017415Y015835D01*
X017364Y015855D01*
X017313Y015871D01*
X017261Y015884D01*
X017207Y015893D01*
X017154Y015898D01*
X017100Y015900D01*
X016394Y017476D02*
X016421Y017523D01*
X016451Y017568D01*
X016484Y017611D01*
X016520Y017651D01*
X016559Y017689D01*
X016600Y017724D01*
X016643Y017757D01*
X016688Y017786D01*
X016736Y017812D01*
X016785Y017835D01*
X016835Y017855D01*
X016886Y017871D01*
X016939Y017884D01*
X016992Y017893D01*
X017046Y017898D01*
X017100Y017900D01*
X016405Y016703D02*
X016435Y016655D01*
X016468Y016610D01*
X016504Y016567D01*
X016542Y016526D01*
X016584Y016489D01*
X016628Y016454D01*
X016674Y016423D01*
X016723Y016394D01*
X016773Y016370D01*
X016825Y016349D01*
X016879Y016331D01*
X016933Y016318D01*
X016988Y016308D01*
X017044Y016302D01*
X017100Y016300D01*
X017153Y016302D01*
X017207Y016307D01*
X017259Y016316D01*
X017311Y016328D01*
X017362Y016344D01*
X017412Y016363D01*
X017461Y016386D01*
X017508Y016412D01*
X017553Y016440D01*
X017596Y016472D01*
X017636Y016506D01*
X017675Y016544D01*
X017711Y016583D01*
X017715Y017612D02*
X017679Y017652D01*
X017640Y017690D01*
X017599Y017725D01*
X017556Y017757D01*
X017511Y017787D01*
X017464Y017813D01*
X017415Y017835D01*
X017364Y017855D01*
X017313Y017871D01*
X017261Y017884D01*
X017207Y017893D01*
X017154Y017898D01*
X017100Y017900D01*
X015100Y017900D02*
X015046Y017898D01*
X014992Y017893D01*
X014939Y017884D01*
X014886Y017871D01*
X014835Y017855D01*
X014785Y017835D01*
X014736Y017812D01*
X014688Y017786D01*
X014643Y017757D01*
X014600Y017724D01*
X014559Y017689D01*
X014520Y017651D01*
X014484Y017611D01*
X014451Y017568D01*
X014421Y017523D01*
X014394Y017476D01*
X014405Y016703D02*
X014435Y016655D01*
X014468Y016610D01*
X014504Y016567D01*
X014542Y016526D01*
X014584Y016489D01*
X014628Y016454D01*
X014674Y016423D01*
X014723Y016394D01*
X014773Y016370D01*
X014825Y016349D01*
X014879Y016331D01*
X014933Y016318D01*
X014988Y016308D01*
X015044Y016302D01*
X015100Y016300D01*
X015153Y016302D01*
X015207Y016307D01*
X015259Y016316D01*
X015311Y016328D01*
X015362Y016344D01*
X015412Y016363D01*
X015461Y016386D01*
X015508Y016412D01*
X015553Y016440D01*
X015596Y016472D01*
X015636Y016506D01*
X015675Y016544D01*
X015711Y016583D01*
X015715Y017612D02*
X015679Y017652D01*
X015640Y017690D01*
X015599Y017725D01*
X015556Y017757D01*
X015511Y017787D01*
X015464Y017813D01*
X015415Y017835D01*
X015364Y017855D01*
X015313Y017871D01*
X015261Y017884D01*
X015207Y017893D01*
X015154Y017898D01*
X015100Y017900D01*
X013100Y017900D02*
X013046Y017898D01*
X012992Y017893D01*
X012939Y017884D01*
X012886Y017871D01*
X012835Y017855D01*
X012785Y017835D01*
X012736Y017812D01*
X012688Y017786D01*
X012643Y017757D01*
X012600Y017724D01*
X012559Y017689D01*
X012520Y017651D01*
X012484Y017611D01*
X012451Y017568D01*
X012421Y017523D01*
X012394Y017476D01*
X012405Y016703D02*
X012435Y016655D01*
X012468Y016610D01*
X012504Y016567D01*
X012542Y016526D01*
X012584Y016489D01*
X012628Y016454D01*
X012674Y016423D01*
X012723Y016394D01*
X012773Y016370D01*
X012825Y016349D01*
X012879Y016331D01*
X012933Y016318D01*
X012988Y016308D01*
X013044Y016302D01*
X013100Y016300D01*
X013153Y016302D01*
X013207Y016307D01*
X013259Y016316D01*
X013311Y016328D01*
X013362Y016344D01*
X013412Y016363D01*
X013461Y016386D01*
X013508Y016412D01*
X013553Y016440D01*
X013596Y016472D01*
X013636Y016506D01*
X013675Y016544D01*
X013711Y016583D01*
X013715Y017612D02*
X013679Y017652D01*
X013640Y017690D01*
X013599Y017725D01*
X013556Y017757D01*
X013511Y017787D01*
X013464Y017813D01*
X013415Y017835D01*
X013364Y017855D01*
X013313Y017871D01*
X013261Y017884D01*
X013207Y017893D01*
X013154Y017898D01*
X013100Y017900D01*
X011100Y017900D02*
X011046Y017898D01*
X010992Y017893D01*
X010939Y017884D01*
X010886Y017871D01*
X010835Y017855D01*
X010785Y017835D01*
X010736Y017812D01*
X010688Y017786D01*
X010643Y017757D01*
X010600Y017724D01*
X010559Y017689D01*
X010520Y017651D01*
X010484Y017611D01*
X010451Y017568D01*
X010421Y017523D01*
X010394Y017476D01*
X010405Y016703D02*
X010435Y016655D01*
X010468Y016610D01*
X010504Y016567D01*
X010542Y016526D01*
X010584Y016489D01*
X010628Y016454D01*
X010674Y016423D01*
X010723Y016394D01*
X010773Y016370D01*
X010825Y016349D01*
X010879Y016331D01*
X010933Y016318D01*
X010988Y016308D01*
X011044Y016302D01*
X011100Y016300D01*
X011153Y016302D01*
X011207Y016307D01*
X011259Y016316D01*
X011311Y016328D01*
X011362Y016344D01*
X011412Y016363D01*
X011461Y016386D01*
X011508Y016412D01*
X011553Y016440D01*
X011596Y016472D01*
X011636Y016506D01*
X011675Y016544D01*
X011711Y016583D01*
X011715Y017612D02*
X011679Y017652D01*
X011640Y017690D01*
X011599Y017725D01*
X011556Y017757D01*
X011511Y017787D01*
X011464Y017813D01*
X011415Y017835D01*
X011364Y017855D01*
X011313Y017871D01*
X011261Y017884D01*
X011207Y017893D01*
X011154Y017898D01*
X011100Y017900D01*
X009100Y017900D02*
X009046Y017898D01*
X008992Y017893D01*
X008939Y017884D01*
X008886Y017871D01*
X008835Y017855D01*
X008785Y017835D01*
X008736Y017812D01*
X008688Y017786D01*
X008643Y017757D01*
X008600Y017724D01*
X008559Y017689D01*
X008520Y017651D01*
X008484Y017611D01*
X008451Y017568D01*
X008421Y017523D01*
X008394Y017476D01*
X008405Y016703D02*
X008435Y016655D01*
X008468Y016610D01*
X008504Y016567D01*
X008542Y016526D01*
X008584Y016489D01*
X008628Y016454D01*
X008674Y016423D01*
X008723Y016394D01*
X008773Y016370D01*
X008825Y016349D01*
X008879Y016331D01*
X008933Y016318D01*
X008988Y016308D01*
X009044Y016302D01*
X009100Y016300D01*
X009153Y016302D01*
X009207Y016307D01*
X009259Y016316D01*
X009311Y016328D01*
X009362Y016344D01*
X009412Y016363D01*
X009461Y016386D01*
X009508Y016412D01*
X009553Y016440D01*
X009596Y016472D01*
X009636Y016506D01*
X009675Y016544D01*
X009711Y016583D01*
X009715Y017612D02*
X009679Y017652D01*
X009640Y017690D01*
X009599Y017725D01*
X009556Y017757D01*
X009511Y017787D01*
X009464Y017813D01*
X009415Y017835D01*
X009364Y017855D01*
X009313Y017871D01*
X009261Y017884D01*
X009207Y017893D01*
X009154Y017898D01*
X009100Y017900D01*
X007100Y017900D02*
X007046Y017898D01*
X006992Y017893D01*
X006939Y017884D01*
X006886Y017871D01*
X006835Y017855D01*
X006785Y017835D01*
X006736Y017812D01*
X006688Y017786D01*
X006643Y017757D01*
X006600Y017724D01*
X006559Y017689D01*
X006520Y017651D01*
X006484Y017611D01*
X006451Y017568D01*
X006421Y017523D01*
X006394Y017476D01*
X006405Y016703D02*
X006435Y016655D01*
X006468Y016610D01*
X006504Y016567D01*
X006542Y016526D01*
X006584Y016489D01*
X006628Y016454D01*
X006674Y016423D01*
X006723Y016394D01*
X006773Y016370D01*
X006825Y016349D01*
X006879Y016331D01*
X006933Y016318D01*
X006988Y016308D01*
X007044Y016302D01*
X007100Y016300D01*
X007153Y016302D01*
X007207Y016307D01*
X007259Y016316D01*
X007311Y016328D01*
X007362Y016344D01*
X007412Y016363D01*
X007461Y016386D01*
X007508Y016412D01*
X007553Y016440D01*
X007596Y016472D01*
X007636Y016506D01*
X007675Y016544D01*
X007711Y016583D01*
X007715Y017612D02*
X007679Y017652D01*
X007640Y017690D01*
X007599Y017725D01*
X007556Y017757D01*
X007511Y017787D01*
X007464Y017813D01*
X007415Y017835D01*
X007364Y017855D01*
X007313Y017871D01*
X007261Y017884D01*
X007207Y017893D01*
X007154Y017898D01*
X007100Y017900D01*
X005100Y017900D02*
X005046Y017898D01*
X004992Y017893D01*
X004939Y017884D01*
X004886Y017871D01*
X004835Y017855D01*
X004785Y017835D01*
X004736Y017812D01*
X004688Y017786D01*
X004643Y017757D01*
X004600Y017724D01*
X004559Y017689D01*
X004520Y017651D01*
X004484Y017611D01*
X004451Y017568D01*
X004421Y017523D01*
X004394Y017476D01*
X004405Y016703D02*
X004435Y016655D01*
X004468Y016610D01*
X004504Y016567D01*
X004542Y016526D01*
X004584Y016489D01*
X004628Y016454D01*
X004674Y016423D01*
X004723Y016394D01*
X004773Y016370D01*
X004825Y016349D01*
X004879Y016331D01*
X004933Y016318D01*
X004988Y016308D01*
X005044Y016302D01*
X005100Y016300D01*
X005153Y016302D01*
X005207Y016307D01*
X005259Y016316D01*
X005311Y016328D01*
X005362Y016344D01*
X005412Y016363D01*
X005461Y016386D01*
X005508Y016412D01*
X005553Y016440D01*
X005596Y016472D01*
X005636Y016506D01*
X005675Y016544D01*
X005711Y016583D01*
X005715Y017612D02*
X005679Y017652D01*
X005640Y017690D01*
X005599Y017725D01*
X005556Y017757D01*
X005511Y017787D01*
X005464Y017813D01*
X005415Y017835D01*
X005364Y017855D01*
X005313Y017871D01*
X005261Y017884D01*
X005207Y017893D01*
X005154Y017898D01*
X005100Y017900D01*
X003100Y017900D02*
X003046Y017898D01*
X002992Y017893D01*
X002939Y017884D01*
X002886Y017871D01*
X002835Y017855D01*
X002785Y017835D01*
X002736Y017812D01*
X002688Y017786D01*
X002643Y017757D01*
X002600Y017724D01*
X002559Y017689D01*
X002520Y017651D01*
X002484Y017611D01*
X002451Y017568D01*
X002421Y017523D01*
X002394Y017476D01*
X002405Y016703D02*
X002435Y016655D01*
X002468Y016610D01*
X002504Y016567D01*
X002542Y016526D01*
X002584Y016489D01*
X002628Y016454D01*
X002674Y016423D01*
X002723Y016394D01*
X002773Y016370D01*
X002825Y016349D01*
X002879Y016331D01*
X002933Y016318D01*
X002988Y016308D01*
X003044Y016302D01*
X003100Y016300D01*
X003153Y016302D01*
X003207Y016307D01*
X003259Y016316D01*
X003311Y016328D01*
X003362Y016344D01*
X003412Y016363D01*
X003461Y016386D01*
X003508Y016412D01*
X003553Y016440D01*
X003596Y016472D01*
X003636Y016506D01*
X003675Y016544D01*
X003711Y016583D01*
X003715Y017612D02*
X003679Y017652D01*
X003640Y017690D01*
X003599Y017725D01*
X003556Y017757D01*
X003511Y017787D01*
X003464Y017813D01*
X003415Y017835D01*
X003364Y017855D01*
X003313Y017871D01*
X003261Y017884D01*
X003207Y017893D01*
X003154Y017898D01*
X003100Y017900D01*
X001100Y017900D02*
X001046Y017898D01*
X000992Y017893D01*
X000939Y017884D01*
X000886Y017871D01*
X000835Y017855D01*
X000785Y017835D01*
X000736Y017812D01*
X000688Y017786D01*
X000643Y017757D01*
X000600Y017724D01*
X000559Y017689D01*
X000520Y017651D01*
X000484Y017611D01*
X000451Y017568D01*
X000421Y017523D01*
X000394Y017476D01*
X000405Y016703D02*
X000435Y016655D01*
X000468Y016610D01*
X000504Y016567D01*
X000542Y016526D01*
X000584Y016489D01*
X000628Y016454D01*
X000674Y016423D01*
X000723Y016394D01*
X000773Y016370D01*
X000825Y016349D01*
X000879Y016331D01*
X000933Y016318D01*
X000988Y016308D01*
X001044Y016302D01*
X001100Y016300D01*
X001153Y016302D01*
X001207Y016307D01*
X001259Y016316D01*
X001311Y016328D01*
X001362Y016344D01*
X001412Y016363D01*
X001461Y016386D01*
X001508Y016412D01*
X001553Y016440D01*
X001596Y016472D01*
X001636Y016506D01*
X001675Y016544D01*
X001711Y016583D01*
X001715Y017612D02*
X001679Y017652D01*
X001640Y017690D01*
X001599Y017725D01*
X001556Y017757D01*
X001511Y017787D01*
X001464Y017813D01*
X001415Y017835D01*
X001364Y017855D01*
X001313Y017871D01*
X001261Y017884D01*
X001207Y017893D01*
X001154Y017898D01*
X001100Y017900D01*
X000405Y014703D02*
X000435Y014655D01*
X000468Y014610D01*
X000504Y014567D01*
X000542Y014526D01*
X000584Y014489D01*
X000628Y014454D01*
X000674Y014423D01*
X000723Y014394D01*
X000773Y014370D01*
X000825Y014349D01*
X000879Y014331D01*
X000933Y014318D01*
X000988Y014308D01*
X001044Y014302D01*
X001100Y014300D01*
X000394Y015476D02*
X000421Y015523D01*
X000451Y015568D01*
X000484Y015611D01*
X000520Y015651D01*
X000559Y015689D01*
X000600Y015724D01*
X000643Y015757D01*
X000688Y015786D01*
X000736Y015812D01*
X000785Y015835D01*
X000835Y015855D01*
X000886Y015871D01*
X000939Y015884D01*
X000992Y015893D01*
X001046Y015898D01*
X001100Y015900D01*
X001711Y014583D02*
X001675Y014544D01*
X001636Y014506D01*
X001596Y014472D01*
X001553Y014440D01*
X001508Y014412D01*
X001461Y014386D01*
X001412Y014363D01*
X001362Y014344D01*
X001311Y014328D01*
X001259Y014316D01*
X001207Y014307D01*
X001153Y014302D01*
X001100Y014300D01*
X001715Y015612D02*
X001679Y015652D01*
X001640Y015690D01*
X001599Y015725D01*
X001556Y015757D01*
X001511Y015787D01*
X001464Y015813D01*
X001415Y015835D01*
X001364Y015855D01*
X001313Y015871D01*
X001261Y015884D01*
X001207Y015893D01*
X001154Y015898D01*
X001100Y015900D01*
X002405Y014703D02*
X002435Y014655D01*
X002468Y014610D01*
X002504Y014567D01*
X002542Y014526D01*
X002584Y014489D01*
X002628Y014454D01*
X002674Y014423D01*
X002723Y014394D01*
X002773Y014370D01*
X002825Y014349D01*
X002879Y014331D01*
X002933Y014318D01*
X002988Y014308D01*
X003044Y014302D01*
X003100Y014300D01*
X002394Y015476D02*
X002421Y015523D01*
X002451Y015568D01*
X002484Y015611D01*
X002520Y015651D01*
X002559Y015689D01*
X002600Y015724D01*
X002643Y015757D01*
X002688Y015786D01*
X002736Y015812D01*
X002785Y015835D01*
X002835Y015855D01*
X002886Y015871D01*
X002939Y015884D01*
X002992Y015893D01*
X003046Y015898D01*
X003100Y015900D01*
X003711Y014583D02*
X003675Y014544D01*
X003636Y014506D01*
X003596Y014472D01*
X003553Y014440D01*
X003508Y014412D01*
X003461Y014386D01*
X003412Y014363D01*
X003362Y014344D01*
X003311Y014328D01*
X003259Y014316D01*
X003207Y014307D01*
X003153Y014302D01*
X003100Y014300D01*
X003715Y015612D02*
X003679Y015652D01*
X003640Y015690D01*
X003599Y015725D01*
X003556Y015757D01*
X003511Y015787D01*
X003464Y015813D01*
X003415Y015835D01*
X003364Y015855D01*
X003313Y015871D01*
X003261Y015884D01*
X003207Y015893D01*
X003154Y015898D01*
X003100Y015900D01*
X004405Y014703D02*
X004435Y014655D01*
X004468Y014610D01*
X004504Y014567D01*
X004542Y014526D01*
X004584Y014489D01*
X004628Y014454D01*
X004674Y014423D01*
X004723Y014394D01*
X004773Y014370D01*
X004825Y014349D01*
X004879Y014331D01*
X004933Y014318D01*
X004988Y014308D01*
X005044Y014302D01*
X005100Y014300D01*
X004394Y015476D02*
X004421Y015523D01*
X004451Y015568D01*
X004484Y015611D01*
X004520Y015651D01*
X004559Y015689D01*
X004600Y015724D01*
X004643Y015757D01*
X004688Y015786D01*
X004736Y015812D01*
X004785Y015835D01*
X004835Y015855D01*
X004886Y015871D01*
X004939Y015884D01*
X004992Y015893D01*
X005046Y015898D01*
X005100Y015900D01*
X005711Y014583D02*
X005675Y014544D01*
X005636Y014506D01*
X005596Y014472D01*
X005553Y014440D01*
X005508Y014412D01*
X005461Y014386D01*
X005412Y014363D01*
X005362Y014344D01*
X005311Y014328D01*
X005259Y014316D01*
X005207Y014307D01*
X005153Y014302D01*
X005100Y014300D01*
X005715Y015612D02*
X005679Y015652D01*
X005640Y015690D01*
X005599Y015725D01*
X005556Y015757D01*
X005511Y015787D01*
X005464Y015813D01*
X005415Y015835D01*
X005364Y015855D01*
X005313Y015871D01*
X005261Y015884D01*
X005207Y015893D01*
X005154Y015898D01*
X005100Y015900D01*
X006405Y014703D02*
X006435Y014655D01*
X006468Y014610D01*
X006504Y014567D01*
X006542Y014526D01*
X006584Y014489D01*
X006628Y014454D01*
X006674Y014423D01*
X006723Y014394D01*
X006773Y014370D01*
X006825Y014349D01*
X006879Y014331D01*
X006933Y014318D01*
X006988Y014308D01*
X007044Y014302D01*
X007100Y014300D01*
X006394Y015476D02*
X006421Y015523D01*
X006451Y015568D01*
X006484Y015611D01*
X006520Y015651D01*
X006559Y015689D01*
X006600Y015724D01*
X006643Y015757D01*
X006688Y015786D01*
X006736Y015812D01*
X006785Y015835D01*
X006835Y015855D01*
X006886Y015871D01*
X006939Y015884D01*
X006992Y015893D01*
X007046Y015898D01*
X007100Y015900D01*
X007711Y014583D02*
X007675Y014544D01*
X007636Y014506D01*
X007596Y014472D01*
X007553Y014440D01*
X007508Y014412D01*
X007461Y014386D01*
X007412Y014363D01*
X007362Y014344D01*
X007311Y014328D01*
X007259Y014316D01*
X007207Y014307D01*
X007153Y014302D01*
X007100Y014300D01*
X007715Y015612D02*
X007679Y015652D01*
X007640Y015690D01*
X007599Y015725D01*
X007556Y015757D01*
X007511Y015787D01*
X007464Y015813D01*
X007415Y015835D01*
X007364Y015855D01*
X007313Y015871D01*
X007261Y015884D01*
X007207Y015893D01*
X007154Y015898D01*
X007100Y015900D01*
X008405Y014703D02*
X008435Y014655D01*
X008468Y014610D01*
X008504Y014567D01*
X008542Y014526D01*
X008584Y014489D01*
X008628Y014454D01*
X008674Y014423D01*
X008723Y014394D01*
X008773Y014370D01*
X008825Y014349D01*
X008879Y014331D01*
X008933Y014318D01*
X008988Y014308D01*
X009044Y014302D01*
X009100Y014300D01*
X008394Y015476D02*
X008421Y015523D01*
X008451Y015568D01*
X008484Y015611D01*
X008520Y015651D01*
X008559Y015689D01*
X008600Y015724D01*
X008643Y015757D01*
X008688Y015786D01*
X008736Y015812D01*
X008785Y015835D01*
X008835Y015855D01*
X008886Y015871D01*
X008939Y015884D01*
X008992Y015893D01*
X009046Y015898D01*
X009100Y015900D01*
X009711Y014583D02*
X009675Y014544D01*
X009636Y014506D01*
X009596Y014472D01*
X009553Y014440D01*
X009508Y014412D01*
X009461Y014386D01*
X009412Y014363D01*
X009362Y014344D01*
X009311Y014328D01*
X009259Y014316D01*
X009207Y014307D01*
X009153Y014302D01*
X009100Y014300D01*
X009715Y015612D02*
X009679Y015652D01*
X009640Y015690D01*
X009599Y015725D01*
X009556Y015757D01*
X009511Y015787D01*
X009464Y015813D01*
X009415Y015835D01*
X009364Y015855D01*
X009313Y015871D01*
X009261Y015884D01*
X009207Y015893D01*
X009154Y015898D01*
X009100Y015900D01*
X010405Y014703D02*
X010435Y014655D01*
X010468Y014610D01*
X010504Y014567D01*
X010542Y014526D01*
X010584Y014489D01*
X010628Y014454D01*
X010674Y014423D01*
X010723Y014394D01*
X010773Y014370D01*
X010825Y014349D01*
X010879Y014331D01*
X010933Y014318D01*
X010988Y014308D01*
X011044Y014302D01*
X011100Y014300D01*
X010394Y015476D02*
X010421Y015523D01*
X010451Y015568D01*
X010484Y015611D01*
X010520Y015651D01*
X010559Y015689D01*
X010600Y015724D01*
X010643Y015757D01*
X010688Y015786D01*
X010736Y015812D01*
X010785Y015835D01*
X010835Y015855D01*
X010886Y015871D01*
X010939Y015884D01*
X010992Y015893D01*
X011046Y015898D01*
X011100Y015900D01*
X011711Y014583D02*
X011675Y014544D01*
X011636Y014506D01*
X011596Y014472D01*
X011553Y014440D01*
X011508Y014412D01*
X011461Y014386D01*
X011412Y014363D01*
X011362Y014344D01*
X011311Y014328D01*
X011259Y014316D01*
X011207Y014307D01*
X011153Y014302D01*
X011100Y014300D01*
X011715Y015612D02*
X011679Y015652D01*
X011640Y015690D01*
X011599Y015725D01*
X011556Y015757D01*
X011511Y015787D01*
X011464Y015813D01*
X011415Y015835D01*
X011364Y015855D01*
X011313Y015871D01*
X011261Y015884D01*
X011207Y015893D01*
X011154Y015898D01*
X011100Y015900D01*
X012405Y014703D02*
X012435Y014655D01*
X012468Y014610D01*
X012504Y014567D01*
X012542Y014526D01*
X012584Y014489D01*
X012628Y014454D01*
X012674Y014423D01*
X012723Y014394D01*
X012773Y014370D01*
X012825Y014349D01*
X012879Y014331D01*
X012933Y014318D01*
X012988Y014308D01*
X013044Y014302D01*
X013100Y014300D01*
X012394Y015476D02*
X012421Y015523D01*
X012451Y015568D01*
X012484Y015611D01*
X012520Y015651D01*
X012559Y015689D01*
X012600Y015724D01*
X012643Y015757D01*
X012688Y015786D01*
X012736Y015812D01*
X012785Y015835D01*
X012835Y015855D01*
X012886Y015871D01*
X012939Y015884D01*
X012992Y015893D01*
X013046Y015898D01*
X013100Y015900D01*
X013711Y014583D02*
X013675Y014544D01*
X013636Y014506D01*
X013596Y014472D01*
X013553Y014440D01*
X013508Y014412D01*
X013461Y014386D01*
X013412Y014363D01*
X013362Y014344D01*
X013311Y014328D01*
X013259Y014316D01*
X013207Y014307D01*
X013153Y014302D01*
X013100Y014300D01*
X013715Y015612D02*
X013679Y015652D01*
X013640Y015690D01*
X013599Y015725D01*
X013556Y015757D01*
X013511Y015787D01*
X013464Y015813D01*
X013415Y015835D01*
X013364Y015855D01*
X013313Y015871D01*
X013261Y015884D01*
X013207Y015893D01*
X013154Y015898D01*
X013100Y015900D01*
X014405Y014703D02*
X014435Y014655D01*
X014468Y014610D01*
X014504Y014567D01*
X014542Y014526D01*
X014584Y014489D01*
X014628Y014454D01*
X014674Y014423D01*
X014723Y014394D01*
X014773Y014370D01*
X014825Y014349D01*
X014879Y014331D01*
X014933Y014318D01*
X014988Y014308D01*
X015044Y014302D01*
X015100Y014300D01*
X014394Y015476D02*
X014421Y015523D01*
X014451Y015568D01*
X014484Y015611D01*
X014520Y015651D01*
X014559Y015689D01*
X014600Y015724D01*
X014643Y015757D01*
X014688Y015786D01*
X014736Y015812D01*
X014785Y015835D01*
X014835Y015855D01*
X014886Y015871D01*
X014939Y015884D01*
X014992Y015893D01*
X015046Y015898D01*
X015100Y015900D01*
X015711Y014583D02*
X015675Y014544D01*
X015636Y014506D01*
X015596Y014472D01*
X015553Y014440D01*
X015508Y014412D01*
X015461Y014386D01*
X015412Y014363D01*
X015362Y014344D01*
X015311Y014328D01*
X015259Y014316D01*
X015207Y014307D01*
X015153Y014302D01*
X015100Y014300D01*
X015715Y015612D02*
X015679Y015652D01*
X015640Y015690D01*
X015599Y015725D01*
X015556Y015757D01*
X015511Y015787D01*
X015464Y015813D01*
X015415Y015835D01*
X015364Y015855D01*
X015313Y015871D01*
X015261Y015884D01*
X015207Y015893D01*
X015154Y015898D01*
X015100Y015900D01*
X014405Y012703D02*
X014435Y012655D01*
X014468Y012610D01*
X014504Y012567D01*
X014542Y012526D01*
X014584Y012489D01*
X014628Y012454D01*
X014674Y012423D01*
X014723Y012394D01*
X014773Y012370D01*
X014825Y012349D01*
X014879Y012331D01*
X014933Y012318D01*
X014988Y012308D01*
X015044Y012302D01*
X015100Y012300D01*
X014394Y013476D02*
X014421Y013523D01*
X014451Y013568D01*
X014484Y013611D01*
X014520Y013651D01*
X014559Y013689D01*
X014600Y013724D01*
X014643Y013757D01*
X014688Y013786D01*
X014736Y013812D01*
X014785Y013835D01*
X014835Y013855D01*
X014886Y013871D01*
X014939Y013884D01*
X014992Y013893D01*
X015046Y013898D01*
X015100Y013900D01*
X015711Y012583D02*
X015675Y012544D01*
X015636Y012506D01*
X015596Y012472D01*
X015553Y012440D01*
X015508Y012412D01*
X015461Y012386D01*
X015412Y012363D01*
X015362Y012344D01*
X015311Y012328D01*
X015259Y012316D01*
X015207Y012307D01*
X015153Y012302D01*
X015100Y012300D01*
X015715Y013612D02*
X015679Y013652D01*
X015640Y013690D01*
X015599Y013725D01*
X015556Y013757D01*
X015511Y013787D01*
X015464Y013813D01*
X015415Y013835D01*
X015364Y013855D01*
X015313Y013871D01*
X015261Y013884D01*
X015207Y013893D01*
X015154Y013898D01*
X015100Y013900D01*
X013100Y013900D02*
X013046Y013898D01*
X012992Y013893D01*
X012939Y013884D01*
X012886Y013871D01*
X012835Y013855D01*
X012785Y013835D01*
X012736Y013812D01*
X012688Y013786D01*
X012643Y013757D01*
X012600Y013724D01*
X012559Y013689D01*
X012520Y013651D01*
X012484Y013611D01*
X012451Y013568D01*
X012421Y013523D01*
X012394Y013476D01*
X012405Y012703D02*
X012435Y012655D01*
X012468Y012610D01*
X012504Y012567D01*
X012542Y012526D01*
X012584Y012489D01*
X012628Y012454D01*
X012674Y012423D01*
X012723Y012394D01*
X012773Y012370D01*
X012825Y012349D01*
X012879Y012331D01*
X012933Y012318D01*
X012988Y012308D01*
X013044Y012302D01*
X013100Y012300D01*
X013153Y012302D01*
X013207Y012307D01*
X013259Y012316D01*
X013311Y012328D01*
X013362Y012344D01*
X013412Y012363D01*
X013461Y012386D01*
X013508Y012412D01*
X013553Y012440D01*
X013596Y012472D01*
X013636Y012506D01*
X013675Y012544D01*
X013711Y012583D01*
X013715Y013612D02*
X013679Y013652D01*
X013640Y013690D01*
X013599Y013725D01*
X013556Y013757D01*
X013511Y013787D01*
X013464Y013813D01*
X013415Y013835D01*
X013364Y013855D01*
X013313Y013871D01*
X013261Y013884D01*
X013207Y013893D01*
X013154Y013898D01*
X013100Y013900D01*
X011100Y013900D02*
X011046Y013898D01*
X010992Y013893D01*
X010939Y013884D01*
X010886Y013871D01*
X010835Y013855D01*
X010785Y013835D01*
X010736Y013812D01*
X010688Y013786D01*
X010643Y013757D01*
X010600Y013724D01*
X010559Y013689D01*
X010520Y013651D01*
X010484Y013611D01*
X010451Y013568D01*
X010421Y013523D01*
X010394Y013476D01*
X010405Y012703D02*
X010435Y012655D01*
X010468Y012610D01*
X010504Y012567D01*
X010542Y012526D01*
X010584Y012489D01*
X010628Y012454D01*
X010674Y012423D01*
X010723Y012394D01*
X010773Y012370D01*
X010825Y012349D01*
X010879Y012331D01*
X010933Y012318D01*
X010988Y012308D01*
X011044Y012302D01*
X011100Y012300D01*
X011153Y012302D01*
X011207Y012307D01*
X011259Y012316D01*
X011311Y012328D01*
X011362Y012344D01*
X011412Y012363D01*
X011461Y012386D01*
X011508Y012412D01*
X011553Y012440D01*
X011596Y012472D01*
X011636Y012506D01*
X011675Y012544D01*
X011711Y012583D01*
X011715Y013612D02*
X011679Y013652D01*
X011640Y013690D01*
X011599Y013725D01*
X011556Y013757D01*
X011511Y013787D01*
X011464Y013813D01*
X011415Y013835D01*
X011364Y013855D01*
X011313Y013871D01*
X011261Y013884D01*
X011207Y013893D01*
X011154Y013898D01*
X011100Y013900D01*
X009100Y013900D02*
X009046Y013898D01*
X008992Y013893D01*
X008939Y013884D01*
X008886Y013871D01*
X008835Y013855D01*
X008785Y013835D01*
X008736Y013812D01*
X008688Y013786D01*
X008643Y013757D01*
X008600Y013724D01*
X008559Y013689D01*
X008520Y013651D01*
X008484Y013611D01*
X008451Y013568D01*
X008421Y013523D01*
X008394Y013476D01*
X008405Y012703D02*
X008435Y012655D01*
X008468Y012610D01*
X008504Y012567D01*
X008542Y012526D01*
X008584Y012489D01*
X008628Y012454D01*
X008674Y012423D01*
X008723Y012394D01*
X008773Y012370D01*
X008825Y012349D01*
X008879Y012331D01*
X008933Y012318D01*
X008988Y012308D01*
X009044Y012302D01*
X009100Y012300D01*
X009153Y012302D01*
X009207Y012307D01*
X009259Y012316D01*
X009311Y012328D01*
X009362Y012344D01*
X009412Y012363D01*
X009461Y012386D01*
X009508Y012412D01*
X009553Y012440D01*
X009596Y012472D01*
X009636Y012506D01*
X009675Y012544D01*
X009711Y012583D01*
X009715Y013612D02*
X009679Y013652D01*
X009640Y013690D01*
X009599Y013725D01*
X009556Y013757D01*
X009511Y013787D01*
X009464Y013813D01*
X009415Y013835D01*
X009364Y013855D01*
X009313Y013871D01*
X009261Y013884D01*
X009207Y013893D01*
X009154Y013898D01*
X009100Y013900D01*
X007100Y013900D02*
X007046Y013898D01*
X006992Y013893D01*
X006939Y013884D01*
X006886Y013871D01*
X006835Y013855D01*
X006785Y013835D01*
X006736Y013812D01*
X006688Y013786D01*
X006643Y013757D01*
X006600Y013724D01*
X006559Y013689D01*
X006520Y013651D01*
X006484Y013611D01*
X006451Y013568D01*
X006421Y013523D01*
X006394Y013476D01*
X006405Y012703D02*
X006435Y012655D01*
X006468Y012610D01*
X006504Y012567D01*
X006542Y012526D01*
X006584Y012489D01*
X006628Y012454D01*
X006674Y012423D01*
X006723Y012394D01*
X006773Y012370D01*
X006825Y012349D01*
X006879Y012331D01*
X006933Y012318D01*
X006988Y012308D01*
X007044Y012302D01*
X007100Y012300D01*
X007153Y012302D01*
X007207Y012307D01*
X007259Y012316D01*
X007311Y012328D01*
X007362Y012344D01*
X007412Y012363D01*
X007461Y012386D01*
X007508Y012412D01*
X007553Y012440D01*
X007596Y012472D01*
X007636Y012506D01*
X007675Y012544D01*
X007711Y012583D01*
X007715Y013612D02*
X007679Y013652D01*
X007640Y013690D01*
X007599Y013725D01*
X007556Y013757D01*
X007511Y013787D01*
X007464Y013813D01*
X007415Y013835D01*
X007364Y013855D01*
X007313Y013871D01*
X007261Y013884D01*
X007207Y013893D01*
X007154Y013898D01*
X007100Y013900D01*
X005100Y013900D02*
X005046Y013898D01*
X004992Y013893D01*
X004939Y013884D01*
X004886Y013871D01*
X004835Y013855D01*
X004785Y013835D01*
X004736Y013812D01*
X004688Y013786D01*
X004643Y013757D01*
X004600Y013724D01*
X004559Y013689D01*
X004520Y013651D01*
X004484Y013611D01*
X004451Y013568D01*
X004421Y013523D01*
X004394Y013476D01*
X004405Y012703D02*
X004435Y012655D01*
X004468Y012610D01*
X004504Y012567D01*
X004542Y012526D01*
X004584Y012489D01*
X004628Y012454D01*
X004674Y012423D01*
X004723Y012394D01*
X004773Y012370D01*
X004825Y012349D01*
X004879Y012331D01*
X004933Y012318D01*
X004988Y012308D01*
X005044Y012302D01*
X005100Y012300D01*
X005153Y012302D01*
X005207Y012307D01*
X005259Y012316D01*
X005311Y012328D01*
X005362Y012344D01*
X005412Y012363D01*
X005461Y012386D01*
X005508Y012412D01*
X005553Y012440D01*
X005596Y012472D01*
X005636Y012506D01*
X005675Y012544D01*
X005711Y012583D01*
X005715Y013612D02*
X005679Y013652D01*
X005640Y013690D01*
X005599Y013725D01*
X005556Y013757D01*
X005511Y013787D01*
X005464Y013813D01*
X005415Y013835D01*
X005364Y013855D01*
X005313Y013871D01*
X005261Y013884D01*
X005207Y013893D01*
X005154Y013898D01*
X005100Y013900D01*
X003100Y013900D02*
X003046Y013898D01*
X002992Y013893D01*
X002939Y013884D01*
X002886Y013871D01*
X002835Y013855D01*
X002785Y013835D01*
X002736Y013812D01*
X002688Y013786D01*
X002643Y013757D01*
X002600Y013724D01*
X002559Y013689D01*
X002520Y013651D01*
X002484Y013611D01*
X002451Y013568D01*
X002421Y013523D01*
X002394Y013476D01*
X002405Y012703D02*
X002435Y012655D01*
X002468Y012610D01*
X002504Y012567D01*
X002542Y012526D01*
X002584Y012489D01*
X002628Y012454D01*
X002674Y012423D01*
X002723Y012394D01*
X002773Y012370D01*
X002825Y012349D01*
X002879Y012331D01*
X002933Y012318D01*
X002988Y012308D01*
X003044Y012302D01*
X003100Y012300D01*
X003153Y012302D01*
X003207Y012307D01*
X003259Y012316D01*
X003311Y012328D01*
X003362Y012344D01*
X003412Y012363D01*
X003461Y012386D01*
X003508Y012412D01*
X003553Y012440D01*
X003596Y012472D01*
X003636Y012506D01*
X003675Y012544D01*
X003711Y012583D01*
X003715Y013612D02*
X003679Y013652D01*
X003640Y013690D01*
X003599Y013725D01*
X003556Y013757D01*
X003511Y013787D01*
X003464Y013813D01*
X003415Y013835D01*
X003364Y013855D01*
X003313Y013871D01*
X003261Y013884D01*
X003207Y013893D01*
X003154Y013898D01*
X003100Y013900D01*
X001100Y013900D02*
X001046Y013898D01*
X000992Y013893D01*
X000939Y013884D01*
X000886Y013871D01*
X000835Y013855D01*
X000785Y013835D01*
X000736Y013812D01*
X000688Y013786D01*
X000643Y013757D01*
X000600Y013724D01*
X000559Y013689D01*
X000520Y013651D01*
X000484Y013611D01*
X000451Y013568D01*
X000421Y013523D01*
X000394Y013476D01*
X000405Y012703D02*
X000435Y012655D01*
X000468Y012610D01*
X000504Y012567D01*
X000542Y012526D01*
X000584Y012489D01*
X000628Y012454D01*
X000674Y012423D01*
X000723Y012394D01*
X000773Y012370D01*
X000825Y012349D01*
X000879Y012331D01*
X000933Y012318D01*
X000988Y012308D01*
X001044Y012302D01*
X001100Y012300D01*
X001153Y012302D01*
X001207Y012307D01*
X001259Y012316D01*
X001311Y012328D01*
X001362Y012344D01*
X001412Y012363D01*
X001461Y012386D01*
X001508Y012412D01*
X001553Y012440D01*
X001596Y012472D01*
X001636Y012506D01*
X001675Y012544D01*
X001711Y012583D01*
X001715Y013612D02*
X001679Y013652D01*
X001640Y013690D01*
X001599Y013725D01*
X001556Y013757D01*
X001511Y013787D01*
X001464Y013813D01*
X001415Y013835D01*
X001364Y013855D01*
X001313Y013871D01*
X001261Y013884D01*
X001207Y013893D01*
X001154Y013898D01*
X001100Y013900D01*
X000405Y010703D02*
X000435Y010655D01*
X000468Y010610D01*
X000504Y010567D01*
X000542Y010526D01*
X000584Y010489D01*
X000628Y010454D01*
X000674Y010423D01*
X000723Y010394D01*
X000773Y010370D01*
X000825Y010349D01*
X000879Y010331D01*
X000933Y010318D01*
X000988Y010308D01*
X001044Y010302D01*
X001100Y010300D01*
X000394Y011476D02*
X000421Y011523D01*
X000451Y011568D01*
X000484Y011611D01*
X000520Y011651D01*
X000559Y011689D01*
X000600Y011724D01*
X000643Y011757D01*
X000688Y011786D01*
X000736Y011812D01*
X000785Y011835D01*
X000835Y011855D01*
X000886Y011871D01*
X000939Y011884D01*
X000992Y011893D01*
X001046Y011898D01*
X001100Y011900D01*
X001711Y010583D02*
X001675Y010544D01*
X001636Y010506D01*
X001596Y010472D01*
X001553Y010440D01*
X001508Y010412D01*
X001461Y010386D01*
X001412Y010363D01*
X001362Y010344D01*
X001311Y010328D01*
X001259Y010316D01*
X001207Y010307D01*
X001153Y010302D01*
X001100Y010300D01*
X001715Y011612D02*
X001679Y011652D01*
X001640Y011690D01*
X001599Y011725D01*
X001556Y011757D01*
X001511Y011787D01*
X001464Y011813D01*
X001415Y011835D01*
X001364Y011855D01*
X001313Y011871D01*
X001261Y011884D01*
X001207Y011893D01*
X001154Y011898D01*
X001100Y011900D01*
X002405Y010703D02*
X002435Y010655D01*
X002468Y010610D01*
X002504Y010567D01*
X002542Y010526D01*
X002584Y010489D01*
X002628Y010454D01*
X002674Y010423D01*
X002723Y010394D01*
X002773Y010370D01*
X002825Y010349D01*
X002879Y010331D01*
X002933Y010318D01*
X002988Y010308D01*
X003044Y010302D01*
X003100Y010300D01*
X002394Y011476D02*
X002421Y011523D01*
X002451Y011568D01*
X002484Y011611D01*
X002520Y011651D01*
X002559Y011689D01*
X002600Y011724D01*
X002643Y011757D01*
X002688Y011786D01*
X002736Y011812D01*
X002785Y011835D01*
X002835Y011855D01*
X002886Y011871D01*
X002939Y011884D01*
X002992Y011893D01*
X003046Y011898D01*
X003100Y011900D01*
X003711Y010583D02*
X003675Y010544D01*
X003636Y010506D01*
X003596Y010472D01*
X003553Y010440D01*
X003508Y010412D01*
X003461Y010386D01*
X003412Y010363D01*
X003362Y010344D01*
X003311Y010328D01*
X003259Y010316D01*
X003207Y010307D01*
X003153Y010302D01*
X003100Y010300D01*
X003715Y011612D02*
X003679Y011652D01*
X003640Y011690D01*
X003599Y011725D01*
X003556Y011757D01*
X003511Y011787D01*
X003464Y011813D01*
X003415Y011835D01*
X003364Y011855D01*
X003313Y011871D01*
X003261Y011884D01*
X003207Y011893D01*
X003154Y011898D01*
X003100Y011900D01*
X004405Y010703D02*
X004435Y010655D01*
X004468Y010610D01*
X004504Y010567D01*
X004542Y010526D01*
X004584Y010489D01*
X004628Y010454D01*
X004674Y010423D01*
X004723Y010394D01*
X004773Y010370D01*
X004825Y010349D01*
X004879Y010331D01*
X004933Y010318D01*
X004988Y010308D01*
X005044Y010302D01*
X005100Y010300D01*
X004394Y011476D02*
X004421Y011523D01*
X004451Y011568D01*
X004484Y011611D01*
X004520Y011651D01*
X004559Y011689D01*
X004600Y011724D01*
X004643Y011757D01*
X004688Y011786D01*
X004736Y011812D01*
X004785Y011835D01*
X004835Y011855D01*
X004886Y011871D01*
X004939Y011884D01*
X004992Y011893D01*
X005046Y011898D01*
X005100Y011900D01*
X005711Y010583D02*
X005675Y010544D01*
X005636Y010506D01*
X005596Y010472D01*
X005553Y010440D01*
X005508Y010412D01*
X005461Y010386D01*
X005412Y010363D01*
X005362Y010344D01*
X005311Y010328D01*
X005259Y010316D01*
X005207Y010307D01*
X005153Y010302D01*
X005100Y010300D01*
X005715Y011612D02*
X005679Y011652D01*
X005640Y011690D01*
X005599Y011725D01*
X005556Y011757D01*
X005511Y011787D01*
X005464Y011813D01*
X005415Y011835D01*
X005364Y011855D01*
X005313Y011871D01*
X005261Y011884D01*
X005207Y011893D01*
X005154Y011898D01*
X005100Y011900D01*
X006405Y010703D02*
X006435Y010655D01*
X006468Y010610D01*
X006504Y010567D01*
X006542Y010526D01*
X006584Y010489D01*
X006628Y010454D01*
X006674Y010423D01*
X006723Y010394D01*
X006773Y010370D01*
X006825Y010349D01*
X006879Y010331D01*
X006933Y010318D01*
X006988Y010308D01*
X007044Y010302D01*
X007100Y010300D01*
X006394Y011476D02*
X006421Y011523D01*
X006451Y011568D01*
X006484Y011611D01*
X006520Y011651D01*
X006559Y011689D01*
X006600Y011724D01*
X006643Y011757D01*
X006688Y011786D01*
X006736Y011812D01*
X006785Y011835D01*
X006835Y011855D01*
X006886Y011871D01*
X006939Y011884D01*
X006992Y011893D01*
X007046Y011898D01*
X007100Y011900D01*
X007711Y010583D02*
X007675Y010544D01*
X007636Y010506D01*
X007596Y010472D01*
X007553Y010440D01*
X007508Y010412D01*
X007461Y010386D01*
X007412Y010363D01*
X007362Y010344D01*
X007311Y010328D01*
X007259Y010316D01*
X007207Y010307D01*
X007153Y010302D01*
X007100Y010300D01*
X007715Y011612D02*
X007679Y011652D01*
X007640Y011690D01*
X007599Y011725D01*
X007556Y011757D01*
X007511Y011787D01*
X007464Y011813D01*
X007415Y011835D01*
X007364Y011855D01*
X007313Y011871D01*
X007261Y011884D01*
X007207Y011893D01*
X007154Y011898D01*
X007100Y011900D01*
X008405Y010703D02*
X008435Y010655D01*
X008468Y010610D01*
X008504Y010567D01*
X008542Y010526D01*
X008584Y010489D01*
X008628Y010454D01*
X008674Y010423D01*
X008723Y010394D01*
X008773Y010370D01*
X008825Y010349D01*
X008879Y010331D01*
X008933Y010318D01*
X008988Y010308D01*
X009044Y010302D01*
X009100Y010300D01*
X008394Y011476D02*
X008421Y011523D01*
X008451Y011568D01*
X008484Y011611D01*
X008520Y011651D01*
X008559Y011689D01*
X008600Y011724D01*
X008643Y011757D01*
X008688Y011786D01*
X008736Y011812D01*
X008785Y011835D01*
X008835Y011855D01*
X008886Y011871D01*
X008939Y011884D01*
X008992Y011893D01*
X009046Y011898D01*
X009100Y011900D01*
X009711Y010583D02*
X009675Y010544D01*
X009636Y010506D01*
X009596Y010472D01*
X009553Y010440D01*
X009508Y010412D01*
X009461Y010386D01*
X009412Y010363D01*
X009362Y010344D01*
X009311Y010328D01*
X009259Y010316D01*
X009207Y010307D01*
X009153Y010302D01*
X009100Y010300D01*
X009715Y011612D02*
X009679Y011652D01*
X009640Y011690D01*
X009599Y011725D01*
X009556Y011757D01*
X009511Y011787D01*
X009464Y011813D01*
X009415Y011835D01*
X009364Y011855D01*
X009313Y011871D01*
X009261Y011884D01*
X009207Y011893D01*
X009154Y011898D01*
X009100Y011900D01*
X010405Y010703D02*
X010435Y010655D01*
X010468Y010610D01*
X010504Y010567D01*
X010542Y010526D01*
X010584Y010489D01*
X010628Y010454D01*
X010674Y010423D01*
X010723Y010394D01*
X010773Y010370D01*
X010825Y010349D01*
X010879Y010331D01*
X010933Y010318D01*
X010988Y010308D01*
X011044Y010302D01*
X011100Y010300D01*
X010394Y011476D02*
X010421Y011523D01*
X010451Y011568D01*
X010484Y011611D01*
X010520Y011651D01*
X010559Y011689D01*
X010600Y011724D01*
X010643Y011757D01*
X010688Y011786D01*
X010736Y011812D01*
X010785Y011835D01*
X010835Y011855D01*
X010886Y011871D01*
X010939Y011884D01*
X010992Y011893D01*
X011046Y011898D01*
X011100Y011900D01*
X011711Y010583D02*
X011675Y010544D01*
X011636Y010506D01*
X011596Y010472D01*
X011553Y010440D01*
X011508Y010412D01*
X011461Y010386D01*
X011412Y010363D01*
X011362Y010344D01*
X011311Y010328D01*
X011259Y010316D01*
X011207Y010307D01*
X011153Y010302D01*
X011100Y010300D01*
X011715Y011612D02*
X011679Y011652D01*
X011640Y011690D01*
X011599Y011725D01*
X011556Y011757D01*
X011511Y011787D01*
X011464Y011813D01*
X011415Y011835D01*
X011364Y011855D01*
X011313Y011871D01*
X011261Y011884D01*
X011207Y011893D01*
X011154Y011898D01*
X011100Y011900D01*
X012405Y010703D02*
X012435Y010655D01*
X012468Y010610D01*
X012504Y010567D01*
X012542Y010526D01*
X012584Y010489D01*
X012628Y010454D01*
X012674Y010423D01*
X012723Y010394D01*
X012773Y010370D01*
X012825Y010349D01*
X012879Y010331D01*
X012933Y010318D01*
X012988Y010308D01*
X013044Y010302D01*
X013100Y010300D01*
X012394Y011476D02*
X012421Y011523D01*
X012451Y011568D01*
X012484Y011611D01*
X012520Y011651D01*
X012559Y011689D01*
X012600Y011724D01*
X012643Y011757D01*
X012688Y011786D01*
X012736Y011812D01*
X012785Y011835D01*
X012835Y011855D01*
X012886Y011871D01*
X012939Y011884D01*
X012992Y011893D01*
X013046Y011898D01*
X013100Y011900D01*
X013711Y010583D02*
X013675Y010544D01*
X013636Y010506D01*
X013596Y010472D01*
X013553Y010440D01*
X013508Y010412D01*
X013461Y010386D01*
X013412Y010363D01*
X013362Y010344D01*
X013311Y010328D01*
X013259Y010316D01*
X013207Y010307D01*
X013153Y010302D01*
X013100Y010300D01*
X013715Y011612D02*
X013679Y011652D01*
X013640Y011690D01*
X013599Y011725D01*
X013556Y011757D01*
X013511Y011787D01*
X013464Y011813D01*
X013415Y011835D01*
X013364Y011855D01*
X013313Y011871D01*
X013261Y011884D01*
X013207Y011893D01*
X013154Y011898D01*
X013100Y011900D01*
X014405Y010703D02*
X014435Y010655D01*
X014468Y010610D01*
X014504Y010567D01*
X014542Y010526D01*
X014584Y010489D01*
X014628Y010454D01*
X014674Y010423D01*
X014723Y010394D01*
X014773Y010370D01*
X014825Y010349D01*
X014879Y010331D01*
X014933Y010318D01*
X014988Y010308D01*
X015044Y010302D01*
X015100Y010300D01*
X014394Y011476D02*
X014421Y011523D01*
X014451Y011568D01*
X014484Y011611D01*
X014520Y011651D01*
X014559Y011689D01*
X014600Y011724D01*
X014643Y011757D01*
X014688Y011786D01*
X014736Y011812D01*
X014785Y011835D01*
X014835Y011855D01*
X014886Y011871D01*
X014939Y011884D01*
X014992Y011893D01*
X015046Y011898D01*
X015100Y011900D01*
X015711Y010583D02*
X015675Y010544D01*
X015636Y010506D01*
X015596Y010472D01*
X015553Y010440D01*
X015508Y010412D01*
X015461Y010386D01*
X015412Y010363D01*
X015362Y010344D01*
X015311Y010328D01*
X015259Y010316D01*
X015207Y010307D01*
X015153Y010302D01*
X015100Y010300D01*
X015715Y011612D02*
X015679Y011652D01*
X015640Y011690D01*
X015599Y011725D01*
X015556Y011757D01*
X015511Y011787D01*
X015464Y011813D01*
X015415Y011835D01*
X015364Y011855D01*
X015313Y011871D01*
X015261Y011884D01*
X015207Y011893D01*
X015154Y011898D01*
X015100Y011900D01*
X014405Y008703D02*
X014435Y008655D01*
X014468Y008610D01*
X014504Y008567D01*
X014542Y008526D01*
X014584Y008489D01*
X014628Y008454D01*
X014674Y008423D01*
X014723Y008394D01*
X014773Y008370D01*
X014825Y008349D01*
X014879Y008331D01*
X014933Y008318D01*
X014988Y008308D01*
X015044Y008302D01*
X015100Y008300D01*
X014394Y009476D02*
X014421Y009523D01*
X014451Y009568D01*
X014484Y009611D01*
X014520Y009651D01*
X014559Y009689D01*
X014600Y009724D01*
X014643Y009757D01*
X014688Y009786D01*
X014736Y009812D01*
X014785Y009835D01*
X014835Y009855D01*
X014886Y009871D01*
X014939Y009884D01*
X014992Y009893D01*
X015046Y009898D01*
X015100Y009900D01*
X015711Y008583D02*
X015675Y008544D01*
X015636Y008506D01*
X015596Y008472D01*
X015553Y008440D01*
X015508Y008412D01*
X015461Y008386D01*
X015412Y008363D01*
X015362Y008344D01*
X015311Y008328D01*
X015259Y008316D01*
X015207Y008307D01*
X015153Y008302D01*
X015100Y008300D01*
X015715Y009612D02*
X015679Y009652D01*
X015640Y009690D01*
X015599Y009725D01*
X015556Y009757D01*
X015511Y009787D01*
X015464Y009813D01*
X015415Y009835D01*
X015364Y009855D01*
X015313Y009871D01*
X015261Y009884D01*
X015207Y009893D01*
X015154Y009898D01*
X015100Y009900D01*
X013100Y009900D02*
X013046Y009898D01*
X012992Y009893D01*
X012939Y009884D01*
X012886Y009871D01*
X012835Y009855D01*
X012785Y009835D01*
X012736Y009812D01*
X012688Y009786D01*
X012643Y009757D01*
X012600Y009724D01*
X012559Y009689D01*
X012520Y009651D01*
X012484Y009611D01*
X012451Y009568D01*
X012421Y009523D01*
X012394Y009476D01*
X012405Y008703D02*
X012435Y008655D01*
X012468Y008610D01*
X012504Y008567D01*
X012542Y008526D01*
X012584Y008489D01*
X012628Y008454D01*
X012674Y008423D01*
X012723Y008394D01*
X012773Y008370D01*
X012825Y008349D01*
X012879Y008331D01*
X012933Y008318D01*
X012988Y008308D01*
X013044Y008302D01*
X013100Y008300D01*
X013153Y008302D01*
X013207Y008307D01*
X013259Y008316D01*
X013311Y008328D01*
X013362Y008344D01*
X013412Y008363D01*
X013461Y008386D01*
X013508Y008412D01*
X013553Y008440D01*
X013596Y008472D01*
X013636Y008506D01*
X013675Y008544D01*
X013711Y008583D01*
X013715Y009612D02*
X013679Y009652D01*
X013640Y009690D01*
X013599Y009725D01*
X013556Y009757D01*
X013511Y009787D01*
X013464Y009813D01*
X013415Y009835D01*
X013364Y009855D01*
X013313Y009871D01*
X013261Y009884D01*
X013207Y009893D01*
X013154Y009898D01*
X013100Y009900D01*
X011100Y009900D02*
X011046Y009898D01*
X010992Y009893D01*
X010939Y009884D01*
X010886Y009871D01*
X010835Y009855D01*
X010785Y009835D01*
X010736Y009812D01*
X010688Y009786D01*
X010643Y009757D01*
X010600Y009724D01*
X010559Y009689D01*
X010520Y009651D01*
X010484Y009611D01*
X010451Y009568D01*
X010421Y009523D01*
X010394Y009476D01*
X010405Y008703D02*
X010435Y008655D01*
X010468Y008610D01*
X010504Y008567D01*
X010542Y008526D01*
X010584Y008489D01*
X010628Y008454D01*
X010674Y008423D01*
X010723Y008394D01*
X010773Y008370D01*
X010825Y008349D01*
X010879Y008331D01*
X010933Y008318D01*
X010988Y008308D01*
X011044Y008302D01*
X011100Y008300D01*
X011153Y008302D01*
X011207Y008307D01*
X011259Y008316D01*
X011311Y008328D01*
X011362Y008344D01*
X011412Y008363D01*
X011461Y008386D01*
X011508Y008412D01*
X011553Y008440D01*
X011596Y008472D01*
X011636Y008506D01*
X011675Y008544D01*
X011711Y008583D01*
X011715Y009612D02*
X011679Y009652D01*
X011640Y009690D01*
X011599Y009725D01*
X011556Y009757D01*
X011511Y009787D01*
X011464Y009813D01*
X011415Y009835D01*
X011364Y009855D01*
X011313Y009871D01*
X011261Y009884D01*
X011207Y009893D01*
X011154Y009898D01*
X011100Y009900D01*
X009100Y009900D02*
X009046Y009898D01*
X008992Y009893D01*
X008939Y009884D01*
X008886Y009871D01*
X008835Y009855D01*
X008785Y009835D01*
X008736Y009812D01*
X008688Y009786D01*
X008643Y009757D01*
X008600Y009724D01*
X008559Y009689D01*
X008520Y009651D01*
X008484Y009611D01*
X008451Y009568D01*
X008421Y009523D01*
X008394Y009476D01*
X008405Y008703D02*
X008435Y008655D01*
X008468Y008610D01*
X008504Y008567D01*
X008542Y008526D01*
X008584Y008489D01*
X008628Y008454D01*
X008674Y008423D01*
X008723Y008394D01*
X008773Y008370D01*
X008825Y008349D01*
X008879Y008331D01*
X008933Y008318D01*
X008988Y008308D01*
X009044Y008302D01*
X009100Y008300D01*
X009153Y008302D01*
X009207Y008307D01*
X009259Y008316D01*
X009311Y008328D01*
X009362Y008344D01*
X009412Y008363D01*
X009461Y008386D01*
X009508Y008412D01*
X009553Y008440D01*
X009596Y008472D01*
X009636Y008506D01*
X009675Y008544D01*
X009711Y008583D01*
X009715Y009612D02*
X009679Y009652D01*
X009640Y009690D01*
X009599Y009725D01*
X009556Y009757D01*
X009511Y009787D01*
X009464Y009813D01*
X009415Y009835D01*
X009364Y009855D01*
X009313Y009871D01*
X009261Y009884D01*
X009207Y009893D01*
X009154Y009898D01*
X009100Y009900D01*
X007100Y009900D02*
X007046Y009898D01*
X006992Y009893D01*
X006939Y009884D01*
X006886Y009871D01*
X006835Y009855D01*
X006785Y009835D01*
X006736Y009812D01*
X006688Y009786D01*
X006643Y009757D01*
X006600Y009724D01*
X006559Y009689D01*
X006520Y009651D01*
X006484Y009611D01*
X006451Y009568D01*
X006421Y009523D01*
X006394Y009476D01*
X006405Y008703D02*
X006435Y008655D01*
X006468Y008610D01*
X006504Y008567D01*
X006542Y008526D01*
X006584Y008489D01*
X006628Y008454D01*
X006674Y008423D01*
X006723Y008394D01*
X006773Y008370D01*
X006825Y008349D01*
X006879Y008331D01*
X006933Y008318D01*
X006988Y008308D01*
X007044Y008302D01*
X007100Y008300D01*
X007153Y008302D01*
X007207Y008307D01*
X007259Y008316D01*
X007311Y008328D01*
X007362Y008344D01*
X007412Y008363D01*
X007461Y008386D01*
X007508Y008412D01*
X007553Y008440D01*
X007596Y008472D01*
X007636Y008506D01*
X007675Y008544D01*
X007711Y008583D01*
X007715Y009612D02*
X007679Y009652D01*
X007640Y009690D01*
X007599Y009725D01*
X007556Y009757D01*
X007511Y009787D01*
X007464Y009813D01*
X007415Y009835D01*
X007364Y009855D01*
X007313Y009871D01*
X007261Y009884D01*
X007207Y009893D01*
X007154Y009898D01*
X007100Y009900D01*
X005100Y009900D02*
X005046Y009898D01*
X004992Y009893D01*
X004939Y009884D01*
X004886Y009871D01*
X004835Y009855D01*
X004785Y009835D01*
X004736Y009812D01*
X004688Y009786D01*
X004643Y009757D01*
X004600Y009724D01*
X004559Y009689D01*
X004520Y009651D01*
X004484Y009611D01*
X004451Y009568D01*
X004421Y009523D01*
X004394Y009476D01*
X004405Y008703D02*
X004435Y008655D01*
X004468Y008610D01*
X004504Y008567D01*
X004542Y008526D01*
X004584Y008489D01*
X004628Y008454D01*
X004674Y008423D01*
X004723Y008394D01*
X004773Y008370D01*
X004825Y008349D01*
X004879Y008331D01*
X004933Y008318D01*
X004988Y008308D01*
X005044Y008302D01*
X005100Y008300D01*
X005153Y008302D01*
X005207Y008307D01*
X005259Y008316D01*
X005311Y008328D01*
X005362Y008344D01*
X005412Y008363D01*
X005461Y008386D01*
X005508Y008412D01*
X005553Y008440D01*
X005596Y008472D01*
X005636Y008506D01*
X005675Y008544D01*
X005711Y008583D01*
X005715Y009612D02*
X005679Y009652D01*
X005640Y009690D01*
X005599Y009725D01*
X005556Y009757D01*
X005511Y009787D01*
X005464Y009813D01*
X005415Y009835D01*
X005364Y009855D01*
X005313Y009871D01*
X005261Y009884D01*
X005207Y009893D01*
X005154Y009898D01*
X005100Y009900D01*
X003100Y009900D02*
X003046Y009898D01*
X002992Y009893D01*
X002939Y009884D01*
X002886Y009871D01*
X002835Y009855D01*
X002785Y009835D01*
X002736Y009812D01*
X002688Y009786D01*
X002643Y009757D01*
X002600Y009724D01*
X002559Y009689D01*
X002520Y009651D01*
X002484Y009611D01*
X002451Y009568D01*
X002421Y009523D01*
X002394Y009476D01*
X002405Y008703D02*
X002435Y008655D01*
X002468Y008610D01*
X002504Y008567D01*
X002542Y008526D01*
X002584Y008489D01*
X002628Y008454D01*
X002674Y008423D01*
X002723Y008394D01*
X002773Y008370D01*
X002825Y008349D01*
X002879Y008331D01*
X002933Y008318D01*
X002988Y008308D01*
X003044Y008302D01*
X003100Y008300D01*
X003153Y008302D01*
X003207Y008307D01*
X003259Y008316D01*
X003311Y008328D01*
X003362Y008344D01*
X003412Y008363D01*
X003461Y008386D01*
X003508Y008412D01*
X003553Y008440D01*
X003596Y008472D01*
X003636Y008506D01*
X003675Y008544D01*
X003711Y008583D01*
X003715Y009612D02*
X003679Y009652D01*
X003640Y009690D01*
X003599Y009725D01*
X003556Y009757D01*
X003511Y009787D01*
X003464Y009813D01*
X003415Y009835D01*
X003364Y009855D01*
X003313Y009871D01*
X003261Y009884D01*
X003207Y009893D01*
X003154Y009898D01*
X003100Y009900D01*
X001100Y009900D02*
X001046Y009898D01*
X000992Y009893D01*
X000939Y009884D01*
X000886Y009871D01*
X000835Y009855D01*
X000785Y009835D01*
X000736Y009812D01*
X000688Y009786D01*
X000643Y009757D01*
X000600Y009724D01*
X000559Y009689D01*
X000520Y009651D01*
X000484Y009611D01*
X000451Y009568D01*
X000421Y009523D01*
X000394Y009476D01*
X000405Y008703D02*
X000435Y008655D01*
X000468Y008610D01*
X000504Y008567D01*
X000542Y008526D01*
X000584Y008489D01*
X000628Y008454D01*
X000674Y008423D01*
X000723Y008394D01*
X000773Y008370D01*
X000825Y008349D01*
X000879Y008331D01*
X000933Y008318D01*
X000988Y008308D01*
X001044Y008302D01*
X001100Y008300D01*
X001153Y008302D01*
X001207Y008307D01*
X001259Y008316D01*
X001311Y008328D01*
X001362Y008344D01*
X001412Y008363D01*
X001461Y008386D01*
X001508Y008412D01*
X001553Y008440D01*
X001596Y008472D01*
X001636Y008506D01*
X001675Y008544D01*
X001711Y008583D01*
X001715Y009612D02*
X001679Y009652D01*
X001640Y009690D01*
X001599Y009725D01*
X001556Y009757D01*
X001511Y009787D01*
X001464Y009813D01*
X001415Y009835D01*
X001364Y009855D01*
X001313Y009871D01*
X001261Y009884D01*
X001207Y009893D01*
X001154Y009898D01*
X001100Y009900D01*
X000405Y006703D02*
X000435Y006655D01*
X000468Y006610D01*
X000504Y006567D01*
X000542Y006526D01*
X000584Y006489D01*
X000628Y006454D01*
X000674Y006423D01*
X000723Y006394D01*
X000773Y006370D01*
X000825Y006349D01*
X000879Y006331D01*
X000933Y006318D01*
X000988Y006308D01*
X001044Y006302D01*
X001100Y006300D01*
X000394Y007476D02*
X000421Y007523D01*
X000451Y007568D01*
X000484Y007611D01*
X000520Y007651D01*
X000559Y007689D01*
X000600Y007724D01*
X000643Y007757D01*
X000688Y007786D01*
X000736Y007812D01*
X000785Y007835D01*
X000835Y007855D01*
X000886Y007871D01*
X000939Y007884D01*
X000992Y007893D01*
X001046Y007898D01*
X001100Y007900D01*
X001711Y006583D02*
X001675Y006544D01*
X001636Y006506D01*
X001596Y006472D01*
X001553Y006440D01*
X001508Y006412D01*
X001461Y006386D01*
X001412Y006363D01*
X001362Y006344D01*
X001311Y006328D01*
X001259Y006316D01*
X001207Y006307D01*
X001153Y006302D01*
X001100Y006300D01*
X001715Y007612D02*
X001679Y007652D01*
X001640Y007690D01*
X001599Y007725D01*
X001556Y007757D01*
X001511Y007787D01*
X001464Y007813D01*
X001415Y007835D01*
X001364Y007855D01*
X001313Y007871D01*
X001261Y007884D01*
X001207Y007893D01*
X001154Y007898D01*
X001100Y007900D01*
X002405Y006703D02*
X002435Y006655D01*
X002468Y006610D01*
X002504Y006567D01*
X002542Y006526D01*
X002584Y006489D01*
X002628Y006454D01*
X002674Y006423D01*
X002723Y006394D01*
X002773Y006370D01*
X002825Y006349D01*
X002879Y006331D01*
X002933Y006318D01*
X002988Y006308D01*
X003044Y006302D01*
X003100Y006300D01*
X002394Y007476D02*
X002421Y007523D01*
X002451Y007568D01*
X002484Y007611D01*
X002520Y007651D01*
X002559Y007689D01*
X002600Y007724D01*
X002643Y007757D01*
X002688Y007786D01*
X002736Y007812D01*
X002785Y007835D01*
X002835Y007855D01*
X002886Y007871D01*
X002939Y007884D01*
X002992Y007893D01*
X003046Y007898D01*
X003100Y007900D01*
X003711Y006583D02*
X003675Y006544D01*
X003636Y006506D01*
X003596Y006472D01*
X003553Y006440D01*
X003508Y006412D01*
X003461Y006386D01*
X003412Y006363D01*
X003362Y006344D01*
X003311Y006328D01*
X003259Y006316D01*
X003207Y006307D01*
X003153Y006302D01*
X003100Y006300D01*
X003715Y007612D02*
X003679Y007652D01*
X003640Y007690D01*
X003599Y007725D01*
X003556Y007757D01*
X003511Y007787D01*
X003464Y007813D01*
X003415Y007835D01*
X003364Y007855D01*
X003313Y007871D01*
X003261Y007884D01*
X003207Y007893D01*
X003154Y007898D01*
X003100Y007900D01*
X004405Y006703D02*
X004435Y006655D01*
X004468Y006610D01*
X004504Y006567D01*
X004542Y006526D01*
X004584Y006489D01*
X004628Y006454D01*
X004674Y006423D01*
X004723Y006394D01*
X004773Y006370D01*
X004825Y006349D01*
X004879Y006331D01*
X004933Y006318D01*
X004988Y006308D01*
X005044Y006302D01*
X005100Y006300D01*
X004394Y007476D02*
X004421Y007523D01*
X004451Y007568D01*
X004484Y007611D01*
X004520Y007651D01*
X004559Y007689D01*
X004600Y007724D01*
X004643Y007757D01*
X004688Y007786D01*
X004736Y007812D01*
X004785Y007835D01*
X004835Y007855D01*
X004886Y007871D01*
X004939Y007884D01*
X004992Y007893D01*
X005046Y007898D01*
X005100Y007900D01*
X005711Y006583D02*
X005675Y006544D01*
X005636Y006506D01*
X005596Y006472D01*
X005553Y006440D01*
X005508Y006412D01*
X005461Y006386D01*
X005412Y006363D01*
X005362Y006344D01*
X005311Y006328D01*
X005259Y006316D01*
X005207Y006307D01*
X005153Y006302D01*
X005100Y006300D01*
X005715Y007612D02*
X005679Y007652D01*
X005640Y007690D01*
X005599Y007725D01*
X005556Y007757D01*
X005511Y007787D01*
X005464Y007813D01*
X005415Y007835D01*
X005364Y007855D01*
X005313Y007871D01*
X005261Y007884D01*
X005207Y007893D01*
X005154Y007898D01*
X005100Y007900D01*
X006405Y006703D02*
X006435Y006655D01*
X006468Y006610D01*
X006504Y006567D01*
X006542Y006526D01*
X006584Y006489D01*
X006628Y006454D01*
X006674Y006423D01*
X006723Y006394D01*
X006773Y006370D01*
X006825Y006349D01*
X006879Y006331D01*
X006933Y006318D01*
X006988Y006308D01*
X007044Y006302D01*
X007100Y006300D01*
X006394Y007476D02*
X006421Y007523D01*
X006451Y007568D01*
X006484Y007611D01*
X006520Y007651D01*
X006559Y007689D01*
X006600Y007724D01*
X006643Y007757D01*
X006688Y007786D01*
X006736Y007812D01*
X006785Y007835D01*
X006835Y007855D01*
X006886Y007871D01*
X006939Y007884D01*
X006992Y007893D01*
X007046Y007898D01*
X007100Y007900D01*
X007711Y006583D02*
X007675Y006544D01*
X007636Y006506D01*
X007596Y006472D01*
X007553Y006440D01*
X007508Y006412D01*
X007461Y006386D01*
X007412Y006363D01*
X007362Y006344D01*
X007311Y006328D01*
X007259Y006316D01*
X007207Y006307D01*
X007153Y006302D01*
X007100Y006300D01*
X007715Y007612D02*
X007679Y007652D01*
X007640Y007690D01*
X007599Y007725D01*
X007556Y007757D01*
X007511Y007787D01*
X007464Y007813D01*
X007415Y007835D01*
X007364Y007855D01*
X007313Y007871D01*
X007261Y007884D01*
X007207Y007893D01*
X007154Y007898D01*
X007100Y007900D01*
X008405Y006703D02*
X008435Y006655D01*
X008468Y006610D01*
X008504Y006567D01*
X008542Y006526D01*
X008584Y006489D01*
X008628Y006454D01*
X008674Y006423D01*
X008723Y006394D01*
X008773Y006370D01*
X008825Y006349D01*
X008879Y006331D01*
X008933Y006318D01*
X008988Y006308D01*
X009044Y006302D01*
X009100Y006300D01*
X008394Y007476D02*
X008421Y007523D01*
X008451Y007568D01*
X008484Y007611D01*
X008520Y007651D01*
X008559Y007689D01*
X008600Y007724D01*
X008643Y007757D01*
X008688Y007786D01*
X008736Y007812D01*
X008785Y007835D01*
X008835Y007855D01*
X008886Y007871D01*
X008939Y007884D01*
X008992Y007893D01*
X009046Y007898D01*
X009100Y007900D01*
X009711Y006583D02*
X009675Y006544D01*
X009636Y006506D01*
X009596Y006472D01*
X009553Y006440D01*
X009508Y006412D01*
X009461Y006386D01*
X009412Y006363D01*
X009362Y006344D01*
X009311Y006328D01*
X009259Y006316D01*
X009207Y006307D01*
X009153Y006302D01*
X009100Y006300D01*
X009715Y007612D02*
X009679Y007652D01*
X009640Y007690D01*
X009599Y007725D01*
X009556Y007757D01*
X009511Y007787D01*
X009464Y007813D01*
X009415Y007835D01*
X009364Y007855D01*
X009313Y007871D01*
X009261Y007884D01*
X009207Y007893D01*
X009154Y007898D01*
X009100Y007900D01*
X010405Y006703D02*
X010435Y006655D01*
X010468Y006610D01*
X010504Y006567D01*
X010542Y006526D01*
X010584Y006489D01*
X010628Y006454D01*
X010674Y006423D01*
X010723Y006394D01*
X010773Y006370D01*
X010825Y006349D01*
X010879Y006331D01*
X010933Y006318D01*
X010988Y006308D01*
X011044Y006302D01*
X011100Y006300D01*
X010394Y007476D02*
X010421Y007523D01*
X010451Y007568D01*
X010484Y007611D01*
X010520Y007651D01*
X010559Y007689D01*
X010600Y007724D01*
X010643Y007757D01*
X010688Y007786D01*
X010736Y007812D01*
X010785Y007835D01*
X010835Y007855D01*
X010886Y007871D01*
X010939Y007884D01*
X010992Y007893D01*
X011046Y007898D01*
X011100Y007900D01*
X011711Y006583D02*
X011675Y006544D01*
X011636Y006506D01*
X011596Y006472D01*
X011553Y006440D01*
X011508Y006412D01*
X011461Y006386D01*
X011412Y006363D01*
X011362Y006344D01*
X011311Y006328D01*
X011259Y006316D01*
X011207Y006307D01*
X011153Y006302D01*
X011100Y006300D01*
X011715Y007612D02*
X011679Y007652D01*
X011640Y007690D01*
X011599Y007725D01*
X011556Y007757D01*
X011511Y007787D01*
X011464Y007813D01*
X011415Y007835D01*
X011364Y007855D01*
X011313Y007871D01*
X011261Y007884D01*
X011207Y007893D01*
X011154Y007898D01*
X011100Y007900D01*
X012405Y006703D02*
X012435Y006655D01*
X012468Y006610D01*
X012504Y006567D01*
X012542Y006526D01*
X012584Y006489D01*
X012628Y006454D01*
X012674Y006423D01*
X012723Y006394D01*
X012773Y006370D01*
X012825Y006349D01*
X012879Y006331D01*
X012933Y006318D01*
X012988Y006308D01*
X013044Y006302D01*
X013100Y006300D01*
X012394Y007476D02*
X012421Y007523D01*
X012451Y007568D01*
X012484Y007611D01*
X012520Y007651D01*
X012559Y007689D01*
X012600Y007724D01*
X012643Y007757D01*
X012688Y007786D01*
X012736Y007812D01*
X012785Y007835D01*
X012835Y007855D01*
X012886Y007871D01*
X012939Y007884D01*
X012992Y007893D01*
X013046Y007898D01*
X013100Y007900D01*
X013711Y006583D02*
X013675Y006544D01*
X013636Y006506D01*
X013596Y006472D01*
X013553Y006440D01*
X013508Y006412D01*
X013461Y006386D01*
X013412Y006363D01*
X013362Y006344D01*
X013311Y006328D01*
X013259Y006316D01*
X013207Y006307D01*
X013153Y006302D01*
X013100Y006300D01*
X013715Y007612D02*
X013679Y007652D01*
X013640Y007690D01*
X013599Y007725D01*
X013556Y007757D01*
X013511Y007787D01*
X013464Y007813D01*
X013415Y007835D01*
X013364Y007855D01*
X013313Y007871D01*
X013261Y007884D01*
X013207Y007893D01*
X013154Y007898D01*
X013100Y007900D01*
X014405Y006703D02*
X014435Y006655D01*
X014468Y006610D01*
X014504Y006567D01*
X014542Y006526D01*
X014584Y006489D01*
X014628Y006454D01*
X014674Y006423D01*
X014723Y006394D01*
X014773Y006370D01*
X014825Y006349D01*
X014879Y006331D01*
X014933Y006318D01*
X014988Y006308D01*
X015044Y006302D01*
X015100Y006300D01*
X014394Y007476D02*
X014421Y007523D01*
X014451Y007568D01*
X014484Y007611D01*
X014520Y007651D01*
X014559Y007689D01*
X014600Y007724D01*
X014643Y007757D01*
X014688Y007786D01*
X014736Y007812D01*
X014785Y007835D01*
X014835Y007855D01*
X014886Y007871D01*
X014939Y007884D01*
X014992Y007893D01*
X015046Y007898D01*
X015100Y007900D01*
X015711Y006583D02*
X015675Y006544D01*
X015636Y006506D01*
X015596Y006472D01*
X015553Y006440D01*
X015508Y006412D01*
X015461Y006386D01*
X015412Y006363D01*
X015362Y006344D01*
X015311Y006328D01*
X015259Y006316D01*
X015207Y006307D01*
X015153Y006302D01*
X015100Y006300D01*
X015715Y007612D02*
X015679Y007652D01*
X015640Y007690D01*
X015599Y007725D01*
X015556Y007757D01*
X015511Y007787D01*
X015464Y007813D01*
X015415Y007835D01*
X015364Y007855D01*
X015313Y007871D01*
X015261Y007884D01*
X015207Y007893D01*
X015154Y007898D01*
X015100Y007900D01*
X014405Y004703D02*
X014435Y004655D01*
X014468Y004610D01*
X014504Y004567D01*
X014542Y004526D01*
X014584Y004489D01*
X014628Y004454D01*
X014674Y004423D01*
X014723Y004394D01*
X014773Y004370D01*
X014825Y004349D01*
X014879Y004331D01*
X014933Y004318D01*
X014988Y004308D01*
X015044Y004302D01*
X015100Y004300D01*
X014394Y005476D02*
X014421Y005523D01*
X014451Y005568D01*
X014484Y005611D01*
X014520Y005651D01*
X014559Y005689D01*
X014600Y005724D01*
X014643Y005757D01*
X014688Y005786D01*
X014736Y005812D01*
X014785Y005835D01*
X014835Y005855D01*
X014886Y005871D01*
X014939Y005884D01*
X014992Y005893D01*
X015046Y005898D01*
X015100Y005900D01*
X015711Y004583D02*
X015675Y004544D01*
X015636Y004506D01*
X015596Y004472D01*
X015553Y004440D01*
X015508Y004412D01*
X015461Y004386D01*
X015412Y004363D01*
X015362Y004344D01*
X015311Y004328D01*
X015259Y004316D01*
X015207Y004307D01*
X015153Y004302D01*
X015100Y004300D01*
X015715Y005612D02*
X015679Y005652D01*
X015640Y005690D01*
X015599Y005725D01*
X015556Y005757D01*
X015511Y005787D01*
X015464Y005813D01*
X015415Y005835D01*
X015364Y005855D01*
X015313Y005871D01*
X015261Y005884D01*
X015207Y005893D01*
X015154Y005898D01*
X015100Y005900D01*
X013100Y005900D02*
X013046Y005898D01*
X012992Y005893D01*
X012939Y005884D01*
X012886Y005871D01*
X012835Y005855D01*
X012785Y005835D01*
X012736Y005812D01*
X012688Y005786D01*
X012643Y005757D01*
X012600Y005724D01*
X012559Y005689D01*
X012520Y005651D01*
X012484Y005611D01*
X012451Y005568D01*
X012421Y005523D01*
X012394Y005476D01*
X012405Y004703D02*
X012435Y004655D01*
X012468Y004610D01*
X012504Y004567D01*
X012542Y004526D01*
X012584Y004489D01*
X012628Y004454D01*
X012674Y004423D01*
X012723Y004394D01*
X012773Y004370D01*
X012825Y004349D01*
X012879Y004331D01*
X012933Y004318D01*
X012988Y004308D01*
X013044Y004302D01*
X013100Y004300D01*
X013153Y004302D01*
X013207Y004307D01*
X013259Y004316D01*
X013311Y004328D01*
X013362Y004344D01*
X013412Y004363D01*
X013461Y004386D01*
X013508Y004412D01*
X013553Y004440D01*
X013596Y004472D01*
X013636Y004506D01*
X013675Y004544D01*
X013711Y004583D01*
X013715Y005612D02*
X013679Y005652D01*
X013640Y005690D01*
X013599Y005725D01*
X013556Y005757D01*
X013511Y005787D01*
X013464Y005813D01*
X013415Y005835D01*
X013364Y005855D01*
X013313Y005871D01*
X013261Y005884D01*
X013207Y005893D01*
X013154Y005898D01*
X013100Y005900D01*
X011100Y005900D02*
X011046Y005898D01*
X010992Y005893D01*
X010939Y005884D01*
X010886Y005871D01*
X010835Y005855D01*
X010785Y005835D01*
X010736Y005812D01*
X010688Y005786D01*
X010643Y005757D01*
X010600Y005724D01*
X010559Y005689D01*
X010520Y005651D01*
X010484Y005611D01*
X010451Y005568D01*
X010421Y005523D01*
X010394Y005476D01*
X010405Y004703D02*
X010435Y004655D01*
X010468Y004610D01*
X010504Y004567D01*
X010542Y004526D01*
X010584Y004489D01*
X010628Y004454D01*
X010674Y004423D01*
X010723Y004394D01*
X010773Y004370D01*
X010825Y004349D01*
X010879Y004331D01*
X010933Y004318D01*
X010988Y004308D01*
X011044Y004302D01*
X011100Y004300D01*
X011153Y004302D01*
X011207Y004307D01*
X011259Y004316D01*
X011311Y004328D01*
X011362Y004344D01*
X011412Y004363D01*
X011461Y004386D01*
X011508Y004412D01*
X011553Y004440D01*
X011596Y004472D01*
X011636Y004506D01*
X011675Y004544D01*
X011711Y004583D01*
X011715Y005612D02*
X011679Y005652D01*
X011640Y005690D01*
X011599Y005725D01*
X011556Y005757D01*
X011511Y005787D01*
X011464Y005813D01*
X011415Y005835D01*
X011364Y005855D01*
X011313Y005871D01*
X011261Y005884D01*
X011207Y005893D01*
X011154Y005898D01*
X011100Y005900D01*
X009100Y005900D02*
X009046Y005898D01*
X008992Y005893D01*
X008939Y005884D01*
X008886Y005871D01*
X008835Y005855D01*
X008785Y005835D01*
X008736Y005812D01*
X008688Y005786D01*
X008643Y005757D01*
X008600Y005724D01*
X008559Y005689D01*
X008520Y005651D01*
X008484Y005611D01*
X008451Y005568D01*
X008421Y005523D01*
X008394Y005476D01*
X008405Y004703D02*
X008435Y004655D01*
X008468Y004610D01*
X008504Y004567D01*
X008542Y004526D01*
X008584Y004489D01*
X008628Y004454D01*
X008674Y004423D01*
X008723Y004394D01*
X008773Y004370D01*
X008825Y004349D01*
X008879Y004331D01*
X008933Y004318D01*
X008988Y004308D01*
X009044Y004302D01*
X009100Y004300D01*
X009153Y004302D01*
X009207Y004307D01*
X009259Y004316D01*
X009311Y004328D01*
X009362Y004344D01*
X009412Y004363D01*
X009461Y004386D01*
X009508Y004412D01*
X009553Y004440D01*
X009596Y004472D01*
X009636Y004506D01*
X009675Y004544D01*
X009711Y004583D01*
X009715Y005612D02*
X009679Y005652D01*
X009640Y005690D01*
X009599Y005725D01*
X009556Y005757D01*
X009511Y005787D01*
X009464Y005813D01*
X009415Y005835D01*
X009364Y005855D01*
X009313Y005871D01*
X009261Y005884D01*
X009207Y005893D01*
X009154Y005898D01*
X009100Y005900D01*
X007100Y005900D02*
X007046Y005898D01*
X006992Y005893D01*
X006939Y005884D01*
X006886Y005871D01*
X006835Y005855D01*
X006785Y005835D01*
X006736Y005812D01*
X006688Y005786D01*
X006643Y005757D01*
X006600Y005724D01*
X006559Y005689D01*
X006520Y005651D01*
X006484Y005611D01*
X006451Y005568D01*
X006421Y005523D01*
X006394Y005476D01*
X006405Y004703D02*
X006435Y004655D01*
X006468Y004610D01*
X006504Y004567D01*
X006542Y004526D01*
X006584Y004489D01*
X006628Y004454D01*
X006674Y004423D01*
X006723Y004394D01*
X006773Y004370D01*
X006825Y004349D01*
X006879Y004331D01*
X006933Y004318D01*
X006988Y004308D01*
X007044Y004302D01*
X007100Y004300D01*
X007153Y004302D01*
X007207Y004307D01*
X007259Y004316D01*
X007311Y004328D01*
X007362Y004344D01*
X007412Y004363D01*
X007461Y004386D01*
X007508Y004412D01*
X007553Y004440D01*
X007596Y004472D01*
X007636Y004506D01*
X007675Y004544D01*
X007711Y004583D01*
X007715Y005612D02*
X007679Y005652D01*
X007640Y005690D01*
X007599Y005725D01*
X007556Y005757D01*
X007511Y005787D01*
X007464Y005813D01*
X007415Y005835D01*
X007364Y005855D01*
X007313Y005871D01*
X007261Y005884D01*
X007207Y005893D01*
X007154Y005898D01*
X007100Y005900D01*
X005100Y005900D02*
X005046Y005898D01*
X004992Y005893D01*
X004939Y005884D01*
X004886Y005871D01*
X004835Y005855D01*
X004785Y005835D01*
X004736Y005812D01*
X004688Y005786D01*
X004643Y005757D01*
X004600Y005724D01*
X004559Y005689D01*
X004520Y005651D01*
X004484Y005611D01*
X004451Y005568D01*
X004421Y005523D01*
X004394Y005476D01*
X004405Y004703D02*
X004435Y004655D01*
X004468Y004610D01*
X004504Y004567D01*
X004542Y004526D01*
X004584Y004489D01*
X004628Y004454D01*
X004674Y004423D01*
X004723Y004394D01*
X004773Y004370D01*
X004825Y004349D01*
X004879Y004331D01*
X004933Y004318D01*
X004988Y004308D01*
X005044Y004302D01*
X005100Y004300D01*
X005153Y004302D01*
X005207Y004307D01*
X005259Y004316D01*
X005311Y004328D01*
X005362Y004344D01*
X005412Y004363D01*
X005461Y004386D01*
X005508Y004412D01*
X005553Y004440D01*
X005596Y004472D01*
X005636Y004506D01*
X005675Y004544D01*
X005711Y004583D01*
X005715Y005612D02*
X005679Y005652D01*
X005640Y005690D01*
X005599Y005725D01*
X005556Y005757D01*
X005511Y005787D01*
X005464Y005813D01*
X005415Y005835D01*
X005364Y005855D01*
X005313Y005871D01*
X005261Y005884D01*
X005207Y005893D01*
X005154Y005898D01*
X005100Y005900D01*
X003100Y005900D02*
X003046Y005898D01*
X002992Y005893D01*
X002939Y005884D01*
X002886Y005871D01*
X002835Y005855D01*
X002785Y005835D01*
X002736Y005812D01*
X002688Y005786D01*
X002643Y005757D01*
X002600Y005724D01*
X002559Y005689D01*
X002520Y005651D01*
X002484Y005611D01*
X002451Y005568D01*
X002421Y005523D01*
X002394Y005476D01*
X002405Y004703D02*
X002435Y004655D01*
X002468Y004610D01*
X002504Y004567D01*
X002542Y004526D01*
X002584Y004489D01*
X002628Y004454D01*
X002674Y004423D01*
X002723Y004394D01*
X002773Y004370D01*
X002825Y004349D01*
X002879Y004331D01*
X002933Y004318D01*
X002988Y004308D01*
X003044Y004302D01*
X003100Y004300D01*
X003153Y004302D01*
X003207Y004307D01*
X003259Y004316D01*
X003311Y004328D01*
X003362Y004344D01*
X003412Y004363D01*
X003461Y004386D01*
X003508Y004412D01*
X003553Y004440D01*
X003596Y004472D01*
X003636Y004506D01*
X003675Y004544D01*
X003711Y004583D01*
X003715Y005612D02*
X003679Y005652D01*
X003640Y005690D01*
X003599Y005725D01*
X003556Y005757D01*
X003511Y005787D01*
X003464Y005813D01*
X003415Y005835D01*
X003364Y005855D01*
X003313Y005871D01*
X003261Y005884D01*
X003207Y005893D01*
X003154Y005898D01*
X003100Y005900D01*
X001100Y005900D02*
X001046Y005898D01*
X000992Y005893D01*
X000939Y005884D01*
X000886Y005871D01*
X000835Y005855D01*
X000785Y005835D01*
X000736Y005812D01*
X000688Y005786D01*
X000643Y005757D01*
X000600Y005724D01*
X000559Y005689D01*
X000520Y005651D01*
X000484Y005611D01*
X000451Y005568D01*
X000421Y005523D01*
X000394Y005476D01*
X000405Y004703D02*
X000435Y004655D01*
X000468Y004610D01*
X000504Y004567D01*
X000542Y004526D01*
X000584Y004489D01*
X000628Y004454D01*
X000674Y004423D01*
X000723Y004394D01*
X000773Y004370D01*
X000825Y004349D01*
X000879Y004331D01*
X000933Y004318D01*
X000988Y004308D01*
X001044Y004302D01*
X001100Y004300D01*
X001153Y004302D01*
X001207Y004307D01*
X001259Y004316D01*
X001311Y004328D01*
X001362Y004344D01*
X001412Y004363D01*
X001461Y004386D01*
X001508Y004412D01*
X001553Y004440D01*
X001596Y004472D01*
X001636Y004506D01*
X001675Y004544D01*
X001711Y004583D01*
X001715Y005612D02*
X001679Y005652D01*
X001640Y005690D01*
X001599Y005725D01*
X001556Y005757D01*
X001511Y005787D01*
X001464Y005813D01*
X001415Y005835D01*
X001364Y005855D01*
X001313Y005871D01*
X001261Y005884D01*
X001207Y005893D01*
X001154Y005898D01*
X001100Y005900D01*
X000405Y002703D02*
X000435Y002655D01*
X000468Y002610D01*
X000504Y002567D01*
X000542Y002526D01*
X000584Y002489D01*
X000628Y002454D01*
X000674Y002423D01*
X000723Y002394D01*
X000773Y002370D01*
X000825Y002349D01*
X000879Y002331D01*
X000933Y002318D01*
X000988Y002308D01*
X001044Y002302D01*
X001100Y002300D01*
X000394Y003476D02*
X000421Y003523D01*
X000451Y003568D01*
X000484Y003611D01*
X000520Y003651D01*
X000559Y003689D01*
X000600Y003724D01*
X000643Y003757D01*
X000688Y003786D01*
X000736Y003812D01*
X000785Y003835D01*
X000835Y003855D01*
X000886Y003871D01*
X000939Y003884D01*
X000992Y003893D01*
X001046Y003898D01*
X001100Y003900D01*
X001711Y002583D02*
X001675Y002544D01*
X001636Y002506D01*
X001596Y002472D01*
X001553Y002440D01*
X001508Y002412D01*
X001461Y002386D01*
X001412Y002363D01*
X001362Y002344D01*
X001311Y002328D01*
X001259Y002316D01*
X001207Y002307D01*
X001153Y002302D01*
X001100Y002300D01*
X001715Y003612D02*
X001679Y003652D01*
X001640Y003690D01*
X001599Y003725D01*
X001556Y003757D01*
X001511Y003787D01*
X001464Y003813D01*
X001415Y003835D01*
X001364Y003855D01*
X001313Y003871D01*
X001261Y003884D01*
X001207Y003893D01*
X001154Y003898D01*
X001100Y003900D01*
X002405Y002703D02*
X002435Y002655D01*
X002468Y002610D01*
X002504Y002567D01*
X002542Y002526D01*
X002584Y002489D01*
X002628Y002454D01*
X002674Y002423D01*
X002723Y002394D01*
X002773Y002370D01*
X002825Y002349D01*
X002879Y002331D01*
X002933Y002318D01*
X002988Y002308D01*
X003044Y002302D01*
X003100Y002300D01*
X002394Y003476D02*
X002421Y003523D01*
X002451Y003568D01*
X002484Y003611D01*
X002520Y003651D01*
X002559Y003689D01*
X002600Y003724D01*
X002643Y003757D01*
X002688Y003786D01*
X002736Y003812D01*
X002785Y003835D01*
X002835Y003855D01*
X002886Y003871D01*
X002939Y003884D01*
X002992Y003893D01*
X003046Y003898D01*
X003100Y003900D01*
X003711Y002583D02*
X003675Y002544D01*
X003636Y002506D01*
X003596Y002472D01*
X003553Y002440D01*
X003508Y002412D01*
X003461Y002386D01*
X003412Y002363D01*
X003362Y002344D01*
X003311Y002328D01*
X003259Y002316D01*
X003207Y002307D01*
X003153Y002302D01*
X003100Y002300D01*
X003715Y003612D02*
X003679Y003652D01*
X003640Y003690D01*
X003599Y003725D01*
X003556Y003757D01*
X003511Y003787D01*
X003464Y003813D01*
X003415Y003835D01*
X003364Y003855D01*
X003313Y003871D01*
X003261Y003884D01*
X003207Y003893D01*
X003154Y003898D01*
X003100Y003900D01*
X004405Y002703D02*
X004435Y002655D01*
X004468Y002610D01*
X004504Y002567D01*
X004542Y002526D01*
X004584Y002489D01*
X004628Y002454D01*
X004674Y002423D01*
X004723Y002394D01*
X004773Y002370D01*
X004825Y002349D01*
X004879Y002331D01*
X004933Y002318D01*
X004988Y002308D01*
X005044Y002302D01*
X005100Y002300D01*
X004394Y003476D02*
X004421Y003523D01*
X004451Y003568D01*
X004484Y003611D01*
X004520Y003651D01*
X004559Y003689D01*
X004600Y003724D01*
X004643Y003757D01*
X004688Y003786D01*
X004736Y003812D01*
X004785Y003835D01*
X004835Y003855D01*
X004886Y003871D01*
X004939Y003884D01*
X004992Y003893D01*
X005046Y003898D01*
X005100Y003900D01*
X005711Y002583D02*
X005675Y002544D01*
X005636Y002506D01*
X005596Y002472D01*
X005553Y002440D01*
X005508Y002412D01*
X005461Y002386D01*
X005412Y002363D01*
X005362Y002344D01*
X005311Y002328D01*
X005259Y002316D01*
X005207Y002307D01*
X005153Y002302D01*
X005100Y002300D01*
X005715Y003612D02*
X005679Y003652D01*
X005640Y003690D01*
X005599Y003725D01*
X005556Y003757D01*
X005511Y003787D01*
X005464Y003813D01*
X005415Y003835D01*
X005364Y003855D01*
X005313Y003871D01*
X005261Y003884D01*
X005207Y003893D01*
X005154Y003898D01*
X005100Y003900D01*
X006405Y002703D02*
X006435Y002655D01*
X006468Y002610D01*
X006504Y002567D01*
X006542Y002526D01*
X006584Y002489D01*
X006628Y002454D01*
X006674Y002423D01*
X006723Y002394D01*
X006773Y002370D01*
X006825Y002349D01*
X006879Y002331D01*
X006933Y002318D01*
X006988Y002308D01*
X007044Y002302D01*
X007100Y002300D01*
X006394Y003476D02*
X006421Y003523D01*
X006451Y003568D01*
X006484Y003611D01*
X006520Y003651D01*
X006559Y003689D01*
X006600Y003724D01*
X006643Y003757D01*
X006688Y003786D01*
X006736Y003812D01*
X006785Y003835D01*
X006835Y003855D01*
X006886Y003871D01*
X006939Y003884D01*
X006992Y003893D01*
X007046Y003898D01*
X007100Y003900D01*
X007711Y002583D02*
X007675Y002544D01*
X007636Y002506D01*
X007596Y002472D01*
X007553Y002440D01*
X007508Y002412D01*
X007461Y002386D01*
X007412Y002363D01*
X007362Y002344D01*
X007311Y002328D01*
X007259Y002316D01*
X007207Y002307D01*
X007153Y002302D01*
X007100Y002300D01*
X007715Y003612D02*
X007679Y003652D01*
X007640Y003690D01*
X007599Y003725D01*
X007556Y003757D01*
X007511Y003787D01*
X007464Y003813D01*
X007415Y003835D01*
X007364Y003855D01*
X007313Y003871D01*
X007261Y003884D01*
X007207Y003893D01*
X007154Y003898D01*
X007100Y003900D01*
X008405Y002703D02*
X008435Y002655D01*
X008468Y002610D01*
X008504Y002567D01*
X008542Y002526D01*
X008584Y002489D01*
X008628Y002454D01*
X008674Y002423D01*
X008723Y002394D01*
X008773Y002370D01*
X008825Y002349D01*
X008879Y002331D01*
X008933Y002318D01*
X008988Y002308D01*
X009044Y002302D01*
X009100Y002300D01*
X008394Y003476D02*
X008421Y003523D01*
X008451Y003568D01*
X008484Y003611D01*
X008520Y003651D01*
X008559Y003689D01*
X008600Y003724D01*
X008643Y003757D01*
X008688Y003786D01*
X008736Y003812D01*
X008785Y003835D01*
X008835Y003855D01*
X008886Y003871D01*
X008939Y003884D01*
X008992Y003893D01*
X009046Y003898D01*
X009100Y003900D01*
X009711Y002583D02*
X009675Y002544D01*
X009636Y002506D01*
X009596Y002472D01*
X009553Y002440D01*
X009508Y002412D01*
X009461Y002386D01*
X009412Y002363D01*
X009362Y002344D01*
X009311Y002328D01*
X009259Y002316D01*
X009207Y002307D01*
X009153Y002302D01*
X009100Y002300D01*
X009715Y003612D02*
X009679Y003652D01*
X009640Y003690D01*
X009599Y003725D01*
X009556Y003757D01*
X009511Y003787D01*
X009464Y003813D01*
X009415Y003835D01*
X009364Y003855D01*
X009313Y003871D01*
X009261Y003884D01*
X009207Y003893D01*
X009154Y003898D01*
X009100Y003900D01*
X010405Y002703D02*
X010435Y002655D01*
X010468Y002610D01*
X010504Y002567D01*
X010542Y002526D01*
X010584Y002489D01*
X010628Y002454D01*
X010674Y002423D01*
X010723Y002394D01*
X010773Y002370D01*
X010825Y002349D01*
X010879Y002331D01*
X010933Y002318D01*
X010988Y002308D01*
X011044Y002302D01*
X011100Y002300D01*
X010394Y003476D02*
X010421Y003523D01*
X010451Y003568D01*
X010484Y003611D01*
X010520Y003651D01*
X010559Y003689D01*
X010600Y003724D01*
X010643Y003757D01*
X010688Y003786D01*
X010736Y003812D01*
X010785Y003835D01*
X010835Y003855D01*
X010886Y003871D01*
X010939Y003884D01*
X010992Y003893D01*
X011046Y003898D01*
X011100Y003900D01*
X011711Y002583D02*
X011675Y002544D01*
X011636Y002506D01*
X011596Y002472D01*
X011553Y002440D01*
X011508Y002412D01*
X011461Y002386D01*
X011412Y002363D01*
X011362Y002344D01*
X011311Y002328D01*
X011259Y002316D01*
X011207Y002307D01*
X011153Y002302D01*
X011100Y002300D01*
X011715Y003612D02*
X011679Y003652D01*
X011640Y003690D01*
X011599Y003725D01*
X011556Y003757D01*
X011511Y003787D01*
X011464Y003813D01*
X011415Y003835D01*
X011364Y003855D01*
X011313Y003871D01*
X011261Y003884D01*
X011207Y003893D01*
X011154Y003898D01*
X011100Y003900D01*
X012405Y002703D02*
X012435Y002655D01*
X012468Y002610D01*
X012504Y002567D01*
X012542Y002526D01*
X012584Y002489D01*
X012628Y002454D01*
X012674Y002423D01*
X012723Y002394D01*
X012773Y002370D01*
X012825Y002349D01*
X012879Y002331D01*
X012933Y002318D01*
X012988Y002308D01*
X013044Y002302D01*
X013100Y002300D01*
X012394Y003476D02*
X012421Y003523D01*
X012451Y003568D01*
X012484Y003611D01*
X012520Y003651D01*
X012559Y003689D01*
X012600Y003724D01*
X012643Y003757D01*
X012688Y003786D01*
X012736Y003812D01*
X012785Y003835D01*
X012835Y003855D01*
X012886Y003871D01*
X012939Y003884D01*
X012992Y003893D01*
X013046Y003898D01*
X013100Y003900D01*
X013711Y002583D02*
X013675Y002544D01*
X013636Y002506D01*
X013596Y002472D01*
X013553Y002440D01*
X013508Y002412D01*
X013461Y002386D01*
X013412Y002363D01*
X013362Y002344D01*
X013311Y002328D01*
X013259Y002316D01*
X013207Y002307D01*
X013153Y002302D01*
X013100Y002300D01*
X013715Y003612D02*
X013679Y003652D01*
X013640Y003690D01*
X013599Y003725D01*
X013556Y003757D01*
X013511Y003787D01*
X013464Y003813D01*
X013415Y003835D01*
X013364Y003855D01*
X013313Y003871D01*
X013261Y003884D01*
X013207Y003893D01*
X013154Y003898D01*
X013100Y003900D01*
X014405Y002703D02*
X014435Y002655D01*
X014468Y002610D01*
X014504Y002567D01*
X014542Y002526D01*
X014584Y002489D01*
X014628Y002454D01*
X014674Y002423D01*
X014723Y002394D01*
X014773Y002370D01*
X014825Y002349D01*
X014879Y002331D01*
X014933Y002318D01*
X014988Y002308D01*
X015044Y002302D01*
X015100Y002300D01*
X014394Y003476D02*
X014421Y003523D01*
X014451Y003568D01*
X014484Y003611D01*
X014520Y003651D01*
X014559Y003689D01*
X014600Y003724D01*
X014643Y003757D01*
X014688Y003786D01*
X014736Y003812D01*
X014785Y003835D01*
X014835Y003855D01*
X014886Y003871D01*
X014939Y003884D01*
X014992Y003893D01*
X015046Y003898D01*
X015100Y003900D01*
X015711Y002583D02*
X015675Y002544D01*
X015636Y002506D01*
X015596Y002472D01*
X015553Y002440D01*
X015508Y002412D01*
X015461Y002386D01*
X015412Y002363D01*
X015362Y002344D01*
X015311Y002328D01*
X015259Y002316D01*
X015207Y002307D01*
X015153Y002302D01*
X015100Y002300D01*
X015715Y003612D02*
X015679Y003652D01*
X015640Y003690D01*
X015599Y003725D01*
X015556Y003757D01*
X015511Y003787D01*
X015464Y003813D01*
X015415Y003835D01*
X015364Y003855D01*
X015313Y003871D01*
X015261Y003884D01*
X015207Y003893D01*
X015154Y003898D01*
X015100Y003900D01*
X014405Y000703D02*
X014435Y000655D01*
X014468Y000610D01*
X014504Y000567D01*
X014542Y000526D01*
X014584Y000489D01*
X014628Y000454D01*
X014674Y000423D01*
X014723Y000394D01*
X014773Y000370D01*
X014825Y000349D01*
X014879Y000331D01*
X014933Y000318D01*
X014988Y000308D01*
X015044Y000302D01*
X015100Y000300D01*
X014394Y001476D02*
X014421Y001523D01*
X014451Y001568D01*
X014484Y001611D01*
X014520Y001651D01*
X014559Y001689D01*
X014600Y001724D01*
X014643Y001757D01*
X014688Y001786D01*
X014736Y001812D01*
X014785Y001835D01*
X014835Y001855D01*
X014886Y001871D01*
X014939Y001884D01*
X014992Y001893D01*
X015046Y001898D01*
X015100Y001900D01*
X015711Y000583D02*
X015675Y000544D01*
X015636Y000506D01*
X015596Y000472D01*
X015553Y000440D01*
X015508Y000412D01*
X015461Y000386D01*
X015412Y000363D01*
X015362Y000344D01*
X015311Y000328D01*
X015259Y000316D01*
X015207Y000307D01*
X015153Y000302D01*
X015100Y000300D01*
X015715Y001612D02*
X015679Y001652D01*
X015640Y001690D01*
X015599Y001725D01*
X015556Y001757D01*
X015511Y001787D01*
X015464Y001813D01*
X015415Y001835D01*
X015364Y001855D01*
X015313Y001871D01*
X015261Y001884D01*
X015207Y001893D01*
X015154Y001898D01*
X015100Y001900D01*
X013100Y001900D02*
X013046Y001898D01*
X012992Y001893D01*
X012939Y001884D01*
X012886Y001871D01*
X012835Y001855D01*
X012785Y001835D01*
X012736Y001812D01*
X012688Y001786D01*
X012643Y001757D01*
X012600Y001724D01*
X012559Y001689D01*
X012520Y001651D01*
X012484Y001611D01*
X012451Y001568D01*
X012421Y001523D01*
X012394Y001476D01*
X012405Y000703D02*
X012435Y000655D01*
X012468Y000610D01*
X012504Y000567D01*
X012542Y000526D01*
X012584Y000489D01*
X012628Y000454D01*
X012674Y000423D01*
X012723Y000394D01*
X012773Y000370D01*
X012825Y000349D01*
X012879Y000331D01*
X012933Y000318D01*
X012988Y000308D01*
X013044Y000302D01*
X013100Y000300D01*
X013153Y000302D01*
X013207Y000307D01*
X013259Y000316D01*
X013311Y000328D01*
X013362Y000344D01*
X013412Y000363D01*
X013461Y000386D01*
X013508Y000412D01*
X013553Y000440D01*
X013596Y000472D01*
X013636Y000506D01*
X013675Y000544D01*
X013711Y000583D01*
X013715Y001612D02*
X013679Y001652D01*
X013640Y001690D01*
X013599Y001725D01*
X013556Y001757D01*
X013511Y001787D01*
X013464Y001813D01*
X013415Y001835D01*
X013364Y001855D01*
X013313Y001871D01*
X013261Y001884D01*
X013207Y001893D01*
X013154Y001898D01*
X013100Y001900D01*
X011100Y001900D02*
X011046Y001898D01*
X010992Y001893D01*
X010939Y001884D01*
X010886Y001871D01*
X010835Y001855D01*
X010785Y001835D01*
X010736Y001812D01*
X010688Y001786D01*
X010643Y001757D01*
X010600Y001724D01*
X010559Y001689D01*
X010520Y001651D01*
X010484Y001611D01*
X010451Y001568D01*
X010421Y001523D01*
X010394Y001476D01*
X010405Y000703D02*
X010435Y000655D01*
X010468Y000610D01*
X010504Y000567D01*
X010542Y000526D01*
X010584Y000489D01*
X010628Y000454D01*
X010674Y000423D01*
X010723Y000394D01*
X010773Y000370D01*
X010825Y000349D01*
X010879Y000331D01*
X010933Y000318D01*
X010988Y000308D01*
X011044Y000302D01*
X011100Y000300D01*
X011153Y000302D01*
X011207Y000307D01*
X011259Y000316D01*
X011311Y000328D01*
X011362Y000344D01*
X011412Y000363D01*
X011461Y000386D01*
X011508Y000412D01*
X011553Y000440D01*
X011596Y000472D01*
X011636Y000506D01*
X011675Y000544D01*
X011711Y000583D01*
X011715Y001612D02*
X011679Y001652D01*
X011640Y001690D01*
X011599Y001725D01*
X011556Y001757D01*
X011511Y001787D01*
X011464Y001813D01*
X011415Y001835D01*
X011364Y001855D01*
X011313Y001871D01*
X011261Y001884D01*
X011207Y001893D01*
X011154Y001898D01*
X011100Y001900D01*
X009100Y001900D02*
X009046Y001898D01*
X008992Y001893D01*
X008939Y001884D01*
X008886Y001871D01*
X008835Y001855D01*
X008785Y001835D01*
X008736Y001812D01*
X008688Y001786D01*
X008643Y001757D01*
X008600Y001724D01*
X008559Y001689D01*
X008520Y001651D01*
X008484Y001611D01*
X008451Y001568D01*
X008421Y001523D01*
X008394Y001476D01*
X008405Y000703D02*
X008435Y000655D01*
X008468Y000610D01*
X008504Y000567D01*
X008542Y000526D01*
X008584Y000489D01*
X008628Y000454D01*
X008674Y000423D01*
X008723Y000394D01*
X008773Y000370D01*
X008825Y000349D01*
X008879Y000331D01*
X008933Y000318D01*
X008988Y000308D01*
X009044Y000302D01*
X009100Y000300D01*
X009153Y000302D01*
X009207Y000307D01*
X009259Y000316D01*
X009311Y000328D01*
X009362Y000344D01*
X009412Y000363D01*
X009461Y000386D01*
X009508Y000412D01*
X009553Y000440D01*
X009596Y000472D01*
X009636Y000506D01*
X009675Y000544D01*
X009711Y000583D01*
X009715Y001612D02*
X009679Y001652D01*
X009640Y001690D01*
X009599Y001725D01*
X009556Y001757D01*
X009511Y001787D01*
X009464Y001813D01*
X009415Y001835D01*
X009364Y001855D01*
X009313Y001871D01*
X009261Y001884D01*
X009207Y001893D01*
X009154Y001898D01*
X009100Y001900D01*
X007100Y001900D02*
X007046Y001898D01*
X006992Y001893D01*
X006939Y001884D01*
X006886Y001871D01*
X006835Y001855D01*
X006785Y001835D01*
X006736Y001812D01*
X006688Y001786D01*
X006643Y001757D01*
X006600Y001724D01*
X006559Y001689D01*
X006520Y001651D01*
X006484Y001611D01*
X006451Y001568D01*
X006421Y001523D01*
X006394Y001476D01*
X006405Y000703D02*
X006435Y000655D01*
X006468Y000610D01*
X006504Y000567D01*
X006542Y000526D01*
X006584Y000489D01*
X006628Y000454D01*
X006674Y000423D01*
X006723Y000394D01*
X006773Y000370D01*
X006825Y000349D01*
X006879Y000331D01*
X006933Y000318D01*
X006988Y000308D01*
X007044Y000302D01*
X007100Y000300D01*
X007153Y000302D01*
X007207Y000307D01*
X007259Y000316D01*
X007311Y000328D01*
X007362Y000344D01*
X007412Y000363D01*
X007461Y000386D01*
X007508Y000412D01*
X007553Y000440D01*
X007596Y000472D01*
X007636Y000506D01*
X007675Y000544D01*
X007711Y000583D01*
X007715Y001612D02*
X007679Y001652D01*
X007640Y001690D01*
X007599Y001725D01*
X007556Y001757D01*
X007511Y001787D01*
X007464Y001813D01*
X007415Y001835D01*
X007364Y001855D01*
X007313Y001871D01*
X007261Y001884D01*
X007207Y001893D01*
X007154Y001898D01*
X007100Y001900D01*
X005100Y001900D02*
X005046Y001898D01*
X004992Y001893D01*
X004939Y001884D01*
X004886Y001871D01*
X004835Y001855D01*
X004785Y001835D01*
X004736Y001812D01*
X004688Y001786D01*
X004643Y001757D01*
X004600Y001724D01*
X004559Y001689D01*
X004520Y001651D01*
X004484Y001611D01*
X004451Y001568D01*
X004421Y001523D01*
X004394Y001476D01*
X004405Y000703D02*
X004435Y000655D01*
X004468Y000610D01*
X004504Y000567D01*
X004542Y000526D01*
X004584Y000489D01*
X004628Y000454D01*
X004674Y000423D01*
X004723Y000394D01*
X004773Y000370D01*
X004825Y000349D01*
X004879Y000331D01*
X004933Y000318D01*
X004988Y000308D01*
X005044Y000302D01*
X005100Y000300D01*
X005153Y000302D01*
X005207Y000307D01*
X005259Y000316D01*
X005311Y000328D01*
X005362Y000344D01*
X005412Y000363D01*
X005461Y000386D01*
X005508Y000412D01*
X005553Y000440D01*
X005596Y000472D01*
X005636Y000506D01*
X005675Y000544D01*
X005711Y000583D01*
X005715Y001612D02*
X005679Y001652D01*
X005640Y001690D01*
X005599Y001725D01*
X005556Y001757D01*
X005511Y001787D01*
X005464Y001813D01*
X005415Y001835D01*
X005364Y001855D01*
X005313Y001871D01*
X005261Y001884D01*
X005207Y001893D01*
X005154Y001898D01*
X005100Y001900D01*
X003100Y001900D02*
X003046Y001898D01*
X002992Y001893D01*
X002939Y001884D01*
X002886Y001871D01*
X002835Y001855D01*
X002785Y001835D01*
X002736Y001812D01*
X002688Y001786D01*
X002643Y001757D01*
X002600Y001724D01*
X002559Y001689D01*
X002520Y001651D01*
X002484Y001611D01*
X002451Y001568D01*
X002421Y001523D01*
X002394Y001476D01*
X002405Y000703D02*
X002435Y000655D01*
X002468Y000610D01*
X002504Y000567D01*
X002542Y000526D01*
X002584Y000489D01*
X002628Y000454D01*
X002674Y000423D01*
X002723Y000394D01*
X002773Y000370D01*
X002825Y000349D01*
X002879Y000331D01*
X002933Y000318D01*
X002988Y000308D01*
X003044Y000302D01*
X003100Y000300D01*
X003153Y000302D01*
X003207Y000307D01*
X003259Y000316D01*
X003311Y000328D01*
X003362Y000344D01*
X003412Y000363D01*
X003461Y000386D01*
X003508Y000412D01*
X003553Y000440D01*
X003596Y000472D01*
X003636Y000506D01*
X003675Y000544D01*
X003711Y000583D01*
X003715Y001612D02*
X003679Y001652D01*
X003640Y001690D01*
X003599Y001725D01*
X003556Y001757D01*
X003511Y001787D01*
X003464Y001813D01*
X003415Y001835D01*
X003364Y001855D01*
X003313Y001871D01*
X003261Y001884D01*
X003207Y001893D01*
X003154Y001898D01*
X003100Y001900D01*
X001100Y001900D02*
X001046Y001898D01*
X000992Y001893D01*
X000939Y001884D01*
X000886Y001871D01*
X000835Y001855D01*
X000785Y001835D01*
X000736Y001812D01*
X000688Y001786D01*
X000643Y001757D01*
X000600Y001724D01*
X000559Y001689D01*
X000520Y001651D01*
X000484Y001611D01*
X000451Y001568D01*
X000421Y001523D01*
X000394Y001476D01*
X000405Y000703D02*
X000435Y000655D01*
X000468Y000610D01*
X000504Y000567D01*
X000542Y000526D01*
X000584Y000489D01*
X000628Y000454D01*
X000674Y000423D01*
X000723Y000394D01*
X000773Y000370D01*
X000825Y000349D01*
X000879Y000331D01*
X000933Y000318D01*
X000988Y000308D01*
X001044Y000302D01*
X001100Y000300D01*
X001153Y000302D01*
X001207Y000307D01*
X001259Y000316D01*
X001311Y000328D01*
X001362Y000344D01*
X001412Y000363D01*
X001461Y000386D01*
X001508Y000412D01*
X001553Y000440D01*
X001596Y000472D01*
X001636Y000506D01*
X001675Y000544D01*
X001711Y000583D01*
X001715Y001612D02*
X001679Y001652D01*
X001640Y001690D01*
X001599Y001725D01*
X001556Y001757D01*
X001511Y001787D01*
X001464Y001813D01*
X001415Y001835D01*
X001364Y001855D01*
X001313Y001871D01*
X001261Y001884D01*
X001207Y001893D01*
X001154Y001898D01*
X001100Y001900D01*
M02*
