G75*
G70*
%OFA0B0*%
%FSLAX24Y24*%
%IPPOS*%
%LPD*%
%AMOC8*
5,1,8,0,0,1.08239X$1,22.5*
%
%ADD10C,0.0000*%
%ADD11OC8,0.0520*%
%ADD12OC8,0.0600*%
%ADD13R,0.0740X0.0740*%
%ADD14C,0.0740*%
%ADD15C,0.0500*%
%ADD16C,0.0100*%
%ADD17C,0.0240*%
D10*
X001100Y000100D02*
X017100Y000100D01*
X017160Y000102D01*
X017221Y000107D01*
X017280Y000116D01*
X017339Y000129D01*
X017398Y000145D01*
X017455Y000165D01*
X017510Y000188D01*
X017565Y000215D01*
X017617Y000244D01*
X017668Y000277D01*
X017717Y000313D01*
X017763Y000351D01*
X017807Y000393D01*
X017849Y000437D01*
X017887Y000483D01*
X017923Y000532D01*
X017956Y000583D01*
X017985Y000635D01*
X018012Y000690D01*
X018035Y000745D01*
X018055Y000802D01*
X018071Y000861D01*
X018084Y000920D01*
X018093Y000979D01*
X018098Y001040D01*
X018100Y001100D01*
X018100Y017100D01*
X018098Y017160D01*
X018093Y017221D01*
X018084Y017280D01*
X018071Y017339D01*
X018055Y017398D01*
X018035Y017455D01*
X018012Y017510D01*
X017985Y017565D01*
X017956Y017617D01*
X017923Y017668D01*
X017887Y017717D01*
X017849Y017763D01*
X017807Y017807D01*
X017763Y017849D01*
X017717Y017887D01*
X017668Y017923D01*
X017617Y017956D01*
X017565Y017985D01*
X017510Y018012D01*
X017455Y018035D01*
X017398Y018055D01*
X017339Y018071D01*
X017280Y018084D01*
X017221Y018093D01*
X017160Y018098D01*
X017100Y018100D01*
X001100Y018100D01*
X001040Y018098D01*
X000979Y018093D01*
X000920Y018084D01*
X000861Y018071D01*
X000802Y018055D01*
X000745Y018035D01*
X000690Y018012D01*
X000635Y017985D01*
X000583Y017956D01*
X000532Y017923D01*
X000483Y017887D01*
X000437Y017849D01*
X000393Y017807D01*
X000351Y017763D01*
X000313Y017717D01*
X000277Y017668D01*
X000244Y017617D01*
X000215Y017565D01*
X000188Y017510D01*
X000165Y017455D01*
X000145Y017398D01*
X000129Y017339D01*
X000116Y017280D01*
X000107Y017221D01*
X000102Y017160D01*
X000100Y017100D01*
X000100Y001100D01*
X000102Y001040D01*
X000107Y000979D01*
X000116Y000920D01*
X000129Y000861D01*
X000145Y000802D01*
X000165Y000745D01*
X000188Y000690D01*
X000215Y000635D01*
X000244Y000583D01*
X000277Y000532D01*
X000313Y000483D01*
X000351Y000437D01*
X000393Y000393D01*
X000437Y000351D01*
X000483Y000313D01*
X000532Y000277D01*
X000583Y000244D01*
X000635Y000215D01*
X000690Y000188D01*
X000745Y000165D01*
X000802Y000145D01*
X000861Y000129D01*
X000920Y000116D01*
X000979Y000107D01*
X001040Y000102D01*
X001100Y000100D01*
X001470Y002100D02*
X001472Y002150D01*
X001478Y002200D01*
X001488Y002249D01*
X001502Y002297D01*
X001519Y002344D01*
X001540Y002389D01*
X001565Y002433D01*
X001593Y002474D01*
X001625Y002513D01*
X001659Y002550D01*
X001696Y002584D01*
X001736Y002614D01*
X001778Y002641D01*
X001822Y002665D01*
X001868Y002686D01*
X001915Y002702D01*
X001963Y002715D01*
X002013Y002724D01*
X002062Y002729D01*
X002113Y002730D01*
X002163Y002727D01*
X002212Y002720D01*
X002261Y002709D01*
X002309Y002694D01*
X002355Y002676D01*
X002400Y002654D01*
X002443Y002628D01*
X002484Y002599D01*
X002523Y002567D01*
X002559Y002532D01*
X002591Y002494D01*
X002621Y002454D01*
X002648Y002411D01*
X002671Y002367D01*
X002690Y002321D01*
X002706Y002273D01*
X002718Y002224D01*
X002726Y002175D01*
X002730Y002125D01*
X002730Y002075D01*
X002726Y002025D01*
X002718Y001976D01*
X002706Y001927D01*
X002690Y001879D01*
X002671Y001833D01*
X002648Y001789D01*
X002621Y001746D01*
X002591Y001706D01*
X002559Y001668D01*
X002523Y001633D01*
X002484Y001601D01*
X002443Y001572D01*
X002400Y001546D01*
X002355Y001524D01*
X002309Y001506D01*
X002261Y001491D01*
X002212Y001480D01*
X002163Y001473D01*
X002113Y001470D01*
X002062Y001471D01*
X002013Y001476D01*
X001963Y001485D01*
X001915Y001498D01*
X001868Y001514D01*
X001822Y001535D01*
X001778Y001559D01*
X001736Y001586D01*
X001696Y001616D01*
X001659Y001650D01*
X001625Y001687D01*
X001593Y001726D01*
X001565Y001767D01*
X001540Y001811D01*
X001519Y001856D01*
X001502Y001903D01*
X001488Y001951D01*
X001478Y002000D01*
X001472Y002050D01*
X001470Y002100D01*
X001470Y016100D02*
X001472Y016150D01*
X001478Y016200D01*
X001488Y016249D01*
X001502Y016297D01*
X001519Y016344D01*
X001540Y016389D01*
X001565Y016433D01*
X001593Y016474D01*
X001625Y016513D01*
X001659Y016550D01*
X001696Y016584D01*
X001736Y016614D01*
X001778Y016641D01*
X001822Y016665D01*
X001868Y016686D01*
X001915Y016702D01*
X001963Y016715D01*
X002013Y016724D01*
X002062Y016729D01*
X002113Y016730D01*
X002163Y016727D01*
X002212Y016720D01*
X002261Y016709D01*
X002309Y016694D01*
X002355Y016676D01*
X002400Y016654D01*
X002443Y016628D01*
X002484Y016599D01*
X002523Y016567D01*
X002559Y016532D01*
X002591Y016494D01*
X002621Y016454D01*
X002648Y016411D01*
X002671Y016367D01*
X002690Y016321D01*
X002706Y016273D01*
X002718Y016224D01*
X002726Y016175D01*
X002730Y016125D01*
X002730Y016075D01*
X002726Y016025D01*
X002718Y015976D01*
X002706Y015927D01*
X002690Y015879D01*
X002671Y015833D01*
X002648Y015789D01*
X002621Y015746D01*
X002591Y015706D01*
X002559Y015668D01*
X002523Y015633D01*
X002484Y015601D01*
X002443Y015572D01*
X002400Y015546D01*
X002355Y015524D01*
X002309Y015506D01*
X002261Y015491D01*
X002212Y015480D01*
X002163Y015473D01*
X002113Y015470D01*
X002062Y015471D01*
X002013Y015476D01*
X001963Y015485D01*
X001915Y015498D01*
X001868Y015514D01*
X001822Y015535D01*
X001778Y015559D01*
X001736Y015586D01*
X001696Y015616D01*
X001659Y015650D01*
X001625Y015687D01*
X001593Y015726D01*
X001565Y015767D01*
X001540Y015811D01*
X001519Y015856D01*
X001502Y015903D01*
X001488Y015951D01*
X001478Y016000D01*
X001472Y016050D01*
X001470Y016100D01*
X015470Y016100D02*
X015472Y016150D01*
X015478Y016200D01*
X015488Y016249D01*
X015502Y016297D01*
X015519Y016344D01*
X015540Y016389D01*
X015565Y016433D01*
X015593Y016474D01*
X015625Y016513D01*
X015659Y016550D01*
X015696Y016584D01*
X015736Y016614D01*
X015778Y016641D01*
X015822Y016665D01*
X015868Y016686D01*
X015915Y016702D01*
X015963Y016715D01*
X016013Y016724D01*
X016062Y016729D01*
X016113Y016730D01*
X016163Y016727D01*
X016212Y016720D01*
X016261Y016709D01*
X016309Y016694D01*
X016355Y016676D01*
X016400Y016654D01*
X016443Y016628D01*
X016484Y016599D01*
X016523Y016567D01*
X016559Y016532D01*
X016591Y016494D01*
X016621Y016454D01*
X016648Y016411D01*
X016671Y016367D01*
X016690Y016321D01*
X016706Y016273D01*
X016718Y016224D01*
X016726Y016175D01*
X016730Y016125D01*
X016730Y016075D01*
X016726Y016025D01*
X016718Y015976D01*
X016706Y015927D01*
X016690Y015879D01*
X016671Y015833D01*
X016648Y015789D01*
X016621Y015746D01*
X016591Y015706D01*
X016559Y015668D01*
X016523Y015633D01*
X016484Y015601D01*
X016443Y015572D01*
X016400Y015546D01*
X016355Y015524D01*
X016309Y015506D01*
X016261Y015491D01*
X016212Y015480D01*
X016163Y015473D01*
X016113Y015470D01*
X016062Y015471D01*
X016013Y015476D01*
X015963Y015485D01*
X015915Y015498D01*
X015868Y015514D01*
X015822Y015535D01*
X015778Y015559D01*
X015736Y015586D01*
X015696Y015616D01*
X015659Y015650D01*
X015625Y015687D01*
X015593Y015726D01*
X015565Y015767D01*
X015540Y015811D01*
X015519Y015856D01*
X015502Y015903D01*
X015488Y015951D01*
X015478Y016000D01*
X015472Y016050D01*
X015470Y016100D01*
X015470Y002100D02*
X015472Y002150D01*
X015478Y002200D01*
X015488Y002249D01*
X015502Y002297D01*
X015519Y002344D01*
X015540Y002389D01*
X015565Y002433D01*
X015593Y002474D01*
X015625Y002513D01*
X015659Y002550D01*
X015696Y002584D01*
X015736Y002614D01*
X015778Y002641D01*
X015822Y002665D01*
X015868Y002686D01*
X015915Y002702D01*
X015963Y002715D01*
X016013Y002724D01*
X016062Y002729D01*
X016113Y002730D01*
X016163Y002727D01*
X016212Y002720D01*
X016261Y002709D01*
X016309Y002694D01*
X016355Y002676D01*
X016400Y002654D01*
X016443Y002628D01*
X016484Y002599D01*
X016523Y002567D01*
X016559Y002532D01*
X016591Y002494D01*
X016621Y002454D01*
X016648Y002411D01*
X016671Y002367D01*
X016690Y002321D01*
X016706Y002273D01*
X016718Y002224D01*
X016726Y002175D01*
X016730Y002125D01*
X016730Y002075D01*
X016726Y002025D01*
X016718Y001976D01*
X016706Y001927D01*
X016690Y001879D01*
X016671Y001833D01*
X016648Y001789D01*
X016621Y001746D01*
X016591Y001706D01*
X016559Y001668D01*
X016523Y001633D01*
X016484Y001601D01*
X016443Y001572D01*
X016400Y001546D01*
X016355Y001524D01*
X016309Y001506D01*
X016261Y001491D01*
X016212Y001480D01*
X016163Y001473D01*
X016113Y001470D01*
X016062Y001471D01*
X016013Y001476D01*
X015963Y001485D01*
X015915Y001498D01*
X015868Y001514D01*
X015822Y001535D01*
X015778Y001559D01*
X015736Y001586D01*
X015696Y001616D01*
X015659Y001650D01*
X015625Y001687D01*
X015593Y001726D01*
X015565Y001767D01*
X015540Y001811D01*
X015519Y001856D01*
X015502Y001903D01*
X015488Y001951D01*
X015478Y002000D01*
X015472Y002050D01*
X015470Y002100D01*
D11*
X015600Y001100D03*
X014600Y001100D03*
X013600Y001100D03*
X012600Y001100D03*
X011600Y001100D03*
X010600Y001100D03*
X009600Y001100D03*
X008600Y001100D03*
X007600Y001100D03*
X006600Y001100D03*
X005600Y001100D03*
X004600Y001100D03*
X003600Y001100D03*
X002600Y001100D03*
X001600Y001100D03*
X000600Y001100D03*
X000600Y003100D03*
X001600Y003100D03*
X002600Y003100D03*
X003600Y003100D03*
X004600Y003100D03*
X005600Y003100D03*
X006600Y003100D03*
X007600Y003100D03*
X008600Y003100D03*
X009600Y003100D03*
X010600Y003100D03*
X011600Y003100D03*
X012600Y003100D03*
X013600Y003100D03*
X014600Y003100D03*
X015600Y003100D03*
X016600Y003100D03*
X017600Y003100D03*
X017600Y001100D03*
X016600Y001100D03*
X016600Y005100D03*
X015600Y005100D03*
X014600Y005100D03*
X013600Y005100D03*
X012600Y005100D03*
X011600Y005100D03*
X010600Y005100D03*
X009600Y005100D03*
X008600Y005100D03*
X007600Y005100D03*
X006600Y005100D03*
X005600Y005100D03*
X004600Y005100D03*
X003600Y005100D03*
X002600Y005100D03*
X001600Y005100D03*
X000600Y005100D03*
X000600Y007100D03*
X001600Y007100D03*
X002600Y007100D03*
X003600Y007100D03*
X004600Y007100D03*
X005600Y007100D03*
X006600Y007100D03*
X007600Y007100D03*
X008600Y007100D03*
X009600Y007100D03*
X010600Y007100D03*
X011600Y007100D03*
X012600Y007100D03*
X013600Y007100D03*
X014600Y007100D03*
X015600Y007100D03*
X016600Y007100D03*
X017600Y007100D03*
X017600Y005100D03*
X017600Y009100D03*
X016600Y009100D03*
X015600Y009100D03*
X014600Y009100D03*
X013600Y009100D03*
X012600Y009100D03*
X011600Y009100D03*
X010600Y009100D03*
X009600Y009100D03*
X008600Y009100D03*
X007600Y009100D03*
X006600Y009100D03*
X005600Y009100D03*
X004600Y009100D03*
X003600Y009100D03*
X002600Y009100D03*
X001600Y009100D03*
X000600Y009100D03*
X000600Y011100D03*
X001600Y011100D03*
X002600Y011100D03*
X003600Y011100D03*
X004600Y011100D03*
X005600Y011100D03*
X006600Y011100D03*
X007600Y011100D03*
X008600Y011100D03*
X009600Y011100D03*
X010600Y011100D03*
X011600Y011100D03*
X012600Y011100D03*
X013600Y011100D03*
X014600Y011100D03*
X015600Y011100D03*
X016600Y011100D03*
X017600Y011100D03*
X017600Y013100D03*
X016600Y013100D03*
X015600Y013100D03*
X014600Y013100D03*
X013600Y013100D03*
X012600Y013100D03*
X011600Y013100D03*
X010600Y013100D03*
X009600Y013100D03*
X008600Y013100D03*
X007600Y013100D03*
X006600Y013100D03*
X005600Y013100D03*
X004600Y013100D03*
X003600Y013100D03*
X002600Y013100D03*
X001600Y013100D03*
X000600Y013100D03*
X000600Y015100D03*
X001600Y015100D03*
X002600Y015100D03*
X003600Y015100D03*
X004600Y015100D03*
X004600Y014100D03*
X005600Y014100D03*
X005600Y015100D03*
X006600Y015100D03*
X007600Y015100D03*
X008600Y015100D03*
X009600Y015100D03*
X010600Y015100D03*
X011600Y015100D03*
X012600Y015100D03*
X013600Y015100D03*
X014600Y015100D03*
X015600Y015100D03*
X016600Y015100D03*
X017600Y015100D03*
X017600Y017100D03*
X016600Y017100D03*
X015600Y017100D03*
X014600Y017100D03*
X013600Y017100D03*
X012600Y017100D03*
X011600Y017100D03*
X010600Y017100D03*
X009600Y017100D03*
X008600Y017100D03*
X007600Y017100D03*
X006600Y017100D03*
X005600Y017100D03*
X004600Y017100D03*
X003600Y017100D03*
X002600Y017100D03*
X001600Y017100D03*
X000600Y017100D03*
D12*
X004100Y012100D03*
X005100Y012100D03*
X006100Y012100D03*
X007100Y012100D03*
X008100Y012100D03*
X007600Y002100D03*
X008600Y002100D03*
X009600Y002100D03*
X010600Y002100D03*
X011600Y002100D03*
X012600Y002100D03*
X013600Y002100D03*
X006600Y002100D03*
X005600Y002100D03*
X004600Y002100D03*
D13*
X007100Y016150D03*
D14*
X006100Y016050D03*
X005100Y016150D03*
X004100Y016050D03*
X009100Y016000D03*
X010100Y016100D03*
X011100Y016000D03*
X012100Y016100D03*
X013100Y016000D03*
X014100Y016100D03*
D15*
X010281Y014100D03*
X007919Y014100D03*
D16*
X007550Y013150D02*
X007600Y013100D01*
X007600Y011100D01*
X007600Y009100D01*
X007600Y007100D01*
X008600Y007100D01*
X008800Y007450D02*
X009000Y007250D01*
X009000Y004050D01*
X008050Y003100D01*
X008050Y001000D01*
X007750Y000700D01*
X004800Y000700D01*
X004775Y000725D01*
X005050Y001000D01*
X005050Y004650D01*
X004600Y005100D01*
X004600Y006450D01*
X004675Y006525D01*
X004700Y006500D01*
X006000Y006500D01*
X006600Y007100D01*
X007000Y006850D02*
X006850Y006700D01*
X007000Y006850D02*
X007000Y008700D01*
X006600Y009100D01*
X005600Y009100D02*
X005600Y007100D01*
X004850Y006700D02*
X004675Y006525D01*
X003600Y007100D02*
X003600Y005100D01*
X003600Y003100D01*
X004600Y003100D01*
X003600Y003100D02*
X003600Y001100D01*
X003000Y000500D02*
X003000Y000450D01*
X004500Y000450D01*
X004775Y000725D01*
X004600Y001100D02*
X004600Y002100D01*
X005600Y002100D02*
X006600Y003100D01*
X006600Y002100D02*
X005600Y001100D01*
X007600Y001100D02*
X007600Y002100D01*
X007600Y003100D01*
X007600Y005100D01*
X007600Y007100D01*
X008800Y007450D02*
X008800Y008900D01*
X008600Y009100D01*
X009000Y008600D02*
X009000Y010700D01*
X008975Y010725D01*
X008700Y010450D01*
X008975Y010725D02*
X009100Y010850D01*
X009100Y016000D01*
X010000Y016000D02*
X010000Y014350D01*
X009900Y014250D01*
X009900Y013350D01*
X010200Y013050D01*
X010200Y010750D01*
X010225Y010725D01*
X009900Y010400D01*
X010225Y010725D02*
X010600Y011100D01*
X011100Y010650D02*
X011100Y016000D01*
X010100Y016100D02*
X010000Y016000D01*
X009600Y015100D02*
X009600Y013100D01*
X009600Y011100D01*
X009600Y009100D01*
X009600Y007100D01*
X009600Y005100D01*
X009600Y003100D01*
X008650Y002150D01*
X008650Y002100D01*
X008600Y002100D01*
X009600Y001100D01*
X010150Y001550D02*
X010600Y001100D01*
X011200Y000950D02*
X011450Y000700D01*
X013600Y000700D01*
X013600Y001100D01*
X014050Y001550D01*
X014050Y002650D01*
X013600Y003100D01*
X013600Y005100D01*
X013600Y005600D01*
X013450Y005750D01*
X013500Y005750D01*
X013500Y007000D01*
X013600Y007100D01*
X013350Y007500D02*
X013200Y007350D01*
X013200Y002700D01*
X012600Y002100D01*
X012050Y002650D02*
X012050Y001550D01*
X011600Y001100D01*
X011200Y000950D02*
X011200Y001500D01*
X010600Y002100D01*
X010150Y001550D02*
X010150Y009350D01*
X010600Y009100D02*
X010600Y008700D01*
X011100Y008700D01*
X011600Y009100D02*
X011600Y007100D01*
X011600Y005100D01*
X011600Y003100D01*
X012050Y002650D01*
X014200Y003500D02*
X014600Y003100D01*
X014200Y003500D02*
X014200Y009400D01*
X014100Y009500D01*
X013600Y009100D02*
X013600Y011100D01*
X013600Y013100D01*
X013600Y015100D01*
X013600Y017100D01*
X013100Y016600D02*
X013100Y016000D01*
X013100Y016600D02*
X012600Y017100D01*
X011600Y017100D02*
X011600Y015100D01*
X011600Y013100D01*
X011600Y011100D01*
X012600Y011100D01*
X013100Y011250D02*
X012100Y012250D01*
X012100Y014100D01*
X011850Y014100D01*
X012100Y014100D02*
X012100Y016100D01*
X013750Y017500D02*
X007600Y017500D01*
X007600Y017100D01*
X007600Y015100D01*
X007550Y015050D01*
X007550Y013150D01*
X007100Y012100D02*
X007200Y012000D01*
X007200Y010850D01*
X007250Y010800D01*
X007000Y010650D02*
X007000Y011400D01*
X006300Y012100D01*
X006100Y012100D01*
X006400Y011650D02*
X006200Y011450D01*
X006200Y011050D01*
X005850Y010700D01*
X005600Y011100D02*
X005600Y013100D01*
X005200Y013500D01*
X005200Y014700D01*
X005600Y015100D01*
X005600Y017100D01*
X006000Y017250D02*
X005550Y017700D01*
X003000Y017700D01*
X003000Y010850D01*
X002950Y010800D01*
X002750Y010400D02*
X002150Y011000D01*
X002150Y013200D01*
X001600Y013100D02*
X001600Y015100D01*
X001200Y015500D01*
X001200Y016700D01*
X001600Y017100D01*
X001000Y016700D02*
X000600Y017100D01*
X001000Y016700D02*
X001000Y007150D01*
X001050Y007100D01*
X001600Y007100D02*
X001600Y005100D01*
X001600Y003100D01*
X001200Y002700D01*
X001200Y001500D01*
X001600Y001100D01*
X002600Y001100D01*
X003000Y000500D02*
X003000Y002700D01*
X002600Y003100D01*
X000600Y001100D02*
X001200Y000500D01*
X003000Y000500D01*
X003200Y006800D02*
X003200Y017250D01*
X003450Y017500D01*
X004100Y017500D01*
X004100Y016050D01*
X004100Y014600D01*
X004600Y014100D01*
X005600Y014100D02*
X006200Y014700D01*
X006200Y015250D01*
X007100Y016150D01*
X006100Y016050D02*
X006000Y016150D01*
X006000Y017250D01*
X005100Y016150D02*
X005000Y016050D01*
X005000Y012950D01*
X004650Y012600D01*
X004650Y011950D01*
X005000Y011600D01*
X005000Y011050D01*
X005050Y011000D01*
X005100Y010650D02*
X004100Y010650D01*
X004100Y012100D01*
X003600Y013100D02*
X003600Y015100D01*
X003600Y017100D01*
X003600Y013100D02*
X003600Y011100D01*
X003600Y009100D01*
X003600Y007100D01*
X001600Y007100D02*
X001600Y009100D01*
X001600Y011100D01*
X001600Y013100D01*
X004100Y009500D02*
X004600Y009500D01*
X004600Y009100D01*
X005600Y009100D02*
X005600Y011100D01*
X006600Y010650D02*
X007000Y010650D01*
X008100Y009750D02*
X008100Y012100D01*
X008100Y009750D02*
X007850Y009500D01*
X009000Y008600D02*
X009350Y008250D01*
X011600Y009100D02*
X011600Y011100D01*
X011100Y010650D02*
X011300Y010450D01*
X013600Y013100D02*
X014600Y013100D01*
X015600Y013100D02*
X015600Y015100D01*
X015200Y015500D01*
X015200Y016700D01*
X015600Y017100D01*
X015450Y017500D02*
X016600Y017500D01*
X016600Y017100D01*
X017600Y017100D02*
X017600Y015100D01*
X017600Y013100D01*
X017600Y011100D01*
X017600Y009100D01*
X016200Y009400D02*
X016200Y007500D01*
X016600Y007100D01*
X015600Y007100D02*
X015600Y009100D01*
X015600Y011100D01*
X015600Y013100D01*
X015600Y015100D02*
X016600Y015100D01*
X015000Y015500D02*
X015000Y017050D01*
X015450Y017500D01*
X014000Y017250D02*
X014000Y016200D01*
X014100Y016100D01*
X015000Y015500D02*
X014600Y015100D01*
X014000Y017250D02*
X013750Y017500D01*
X009600Y017100D02*
X009600Y015100D01*
X014850Y009500D02*
X015000Y009350D01*
X015000Y005500D01*
X014600Y005100D01*
X015600Y005100D02*
X015600Y003100D01*
X015200Y002700D01*
X015200Y001500D01*
X015600Y001100D01*
X017600Y001100D02*
X017600Y003100D01*
X017600Y005100D01*
X017600Y007100D01*
X015600Y007100D02*
X015600Y005100D01*
X016200Y009400D02*
X015850Y009750D01*
D17*
X015850Y009750D03*
X014850Y009500D03*
X014100Y009500D03*
X013100Y011250D03*
X011300Y010450D03*
X010150Y009350D03*
X011100Y008700D03*
X009350Y008250D03*
X007850Y009500D03*
X008700Y010450D03*
X009900Y010400D03*
X007250Y010800D03*
X006600Y010650D03*
X005850Y010700D03*
X005100Y010650D03*
X005050Y011000D03*
X006400Y011650D03*
X004100Y009500D03*
X002750Y010400D03*
X002950Y010800D03*
X002150Y013200D03*
X001050Y007100D03*
X003200Y006800D03*
X004850Y006700D03*
X006850Y006700D03*
X013350Y007500D03*
X013450Y005750D03*
X011850Y014100D03*
M02*
