G75*
G70*
%OFA0B0*%
%FSLAX24Y24*%
%IPPOS*%
%LPD*%
%AMOC8*
5,1,8,0,0,1.08239X$1,22.5*
%
%ADD10C,0.0000*%
%ADD11R,0.0240X0.0870*%
%ADD12R,0.0260X0.0800*%
D10*
X001100Y000100D02*
X017100Y000100D01*
X017160Y000102D01*
X017221Y000107D01*
X017280Y000116D01*
X017339Y000129D01*
X017398Y000145D01*
X017455Y000165D01*
X017510Y000188D01*
X017565Y000215D01*
X017617Y000244D01*
X017668Y000277D01*
X017717Y000313D01*
X017763Y000351D01*
X017807Y000393D01*
X017849Y000437D01*
X017887Y000483D01*
X017923Y000532D01*
X017956Y000583D01*
X017985Y000635D01*
X018012Y000690D01*
X018035Y000745D01*
X018055Y000802D01*
X018071Y000861D01*
X018084Y000920D01*
X018093Y000979D01*
X018098Y001040D01*
X018100Y001100D01*
X018100Y017100D01*
X018098Y017160D01*
X018093Y017221D01*
X018084Y017280D01*
X018071Y017339D01*
X018055Y017398D01*
X018035Y017455D01*
X018012Y017510D01*
X017985Y017565D01*
X017956Y017617D01*
X017923Y017668D01*
X017887Y017717D01*
X017849Y017763D01*
X017807Y017807D01*
X017763Y017849D01*
X017717Y017887D01*
X017668Y017923D01*
X017617Y017956D01*
X017565Y017985D01*
X017510Y018012D01*
X017455Y018035D01*
X017398Y018055D01*
X017339Y018071D01*
X017280Y018084D01*
X017221Y018093D01*
X017160Y018098D01*
X017100Y018100D01*
X001100Y018100D01*
X001040Y018098D01*
X000979Y018093D01*
X000920Y018084D01*
X000861Y018071D01*
X000802Y018055D01*
X000745Y018035D01*
X000690Y018012D01*
X000635Y017985D01*
X000583Y017956D01*
X000532Y017923D01*
X000483Y017887D01*
X000437Y017849D01*
X000393Y017807D01*
X000351Y017763D01*
X000313Y017717D01*
X000277Y017668D01*
X000244Y017617D01*
X000215Y017565D01*
X000188Y017510D01*
X000165Y017455D01*
X000145Y017398D01*
X000129Y017339D01*
X000116Y017280D01*
X000107Y017221D01*
X000102Y017160D01*
X000100Y017100D01*
X000100Y001100D01*
X000102Y001040D01*
X000107Y000979D01*
X000116Y000920D01*
X000129Y000861D01*
X000145Y000802D01*
X000165Y000745D01*
X000188Y000690D01*
X000215Y000635D01*
X000244Y000583D01*
X000277Y000532D01*
X000313Y000483D01*
X000351Y000437D01*
X000393Y000393D01*
X000437Y000351D01*
X000483Y000313D01*
X000532Y000277D01*
X000583Y000244D01*
X000635Y000215D01*
X000690Y000188D01*
X000745Y000165D01*
X000802Y000145D01*
X000861Y000129D01*
X000920Y000116D01*
X000979Y000107D01*
X001040Y000102D01*
X001100Y000100D01*
X001470Y002100D02*
X001472Y002150D01*
X001478Y002200D01*
X001488Y002249D01*
X001502Y002297D01*
X001519Y002344D01*
X001540Y002389D01*
X001565Y002433D01*
X001593Y002474D01*
X001625Y002513D01*
X001659Y002550D01*
X001696Y002584D01*
X001736Y002614D01*
X001778Y002641D01*
X001822Y002665D01*
X001868Y002686D01*
X001915Y002702D01*
X001963Y002715D01*
X002013Y002724D01*
X002062Y002729D01*
X002113Y002730D01*
X002163Y002727D01*
X002212Y002720D01*
X002261Y002709D01*
X002309Y002694D01*
X002355Y002676D01*
X002400Y002654D01*
X002443Y002628D01*
X002484Y002599D01*
X002523Y002567D01*
X002559Y002532D01*
X002591Y002494D01*
X002621Y002454D01*
X002648Y002411D01*
X002671Y002367D01*
X002690Y002321D01*
X002706Y002273D01*
X002718Y002224D01*
X002726Y002175D01*
X002730Y002125D01*
X002730Y002075D01*
X002726Y002025D01*
X002718Y001976D01*
X002706Y001927D01*
X002690Y001879D01*
X002671Y001833D01*
X002648Y001789D01*
X002621Y001746D01*
X002591Y001706D01*
X002559Y001668D01*
X002523Y001633D01*
X002484Y001601D01*
X002443Y001572D01*
X002400Y001546D01*
X002355Y001524D01*
X002309Y001506D01*
X002261Y001491D01*
X002212Y001480D01*
X002163Y001473D01*
X002113Y001470D01*
X002062Y001471D01*
X002013Y001476D01*
X001963Y001485D01*
X001915Y001498D01*
X001868Y001514D01*
X001822Y001535D01*
X001778Y001559D01*
X001736Y001586D01*
X001696Y001616D01*
X001659Y001650D01*
X001625Y001687D01*
X001593Y001726D01*
X001565Y001767D01*
X001540Y001811D01*
X001519Y001856D01*
X001502Y001903D01*
X001488Y001951D01*
X001478Y002000D01*
X001472Y002050D01*
X001470Y002100D01*
X001470Y016100D02*
X001472Y016150D01*
X001478Y016200D01*
X001488Y016249D01*
X001502Y016297D01*
X001519Y016344D01*
X001540Y016389D01*
X001565Y016433D01*
X001593Y016474D01*
X001625Y016513D01*
X001659Y016550D01*
X001696Y016584D01*
X001736Y016614D01*
X001778Y016641D01*
X001822Y016665D01*
X001868Y016686D01*
X001915Y016702D01*
X001963Y016715D01*
X002013Y016724D01*
X002062Y016729D01*
X002113Y016730D01*
X002163Y016727D01*
X002212Y016720D01*
X002261Y016709D01*
X002309Y016694D01*
X002355Y016676D01*
X002400Y016654D01*
X002443Y016628D01*
X002484Y016599D01*
X002523Y016567D01*
X002559Y016532D01*
X002591Y016494D01*
X002621Y016454D01*
X002648Y016411D01*
X002671Y016367D01*
X002690Y016321D01*
X002706Y016273D01*
X002718Y016224D01*
X002726Y016175D01*
X002730Y016125D01*
X002730Y016075D01*
X002726Y016025D01*
X002718Y015976D01*
X002706Y015927D01*
X002690Y015879D01*
X002671Y015833D01*
X002648Y015789D01*
X002621Y015746D01*
X002591Y015706D01*
X002559Y015668D01*
X002523Y015633D01*
X002484Y015601D01*
X002443Y015572D01*
X002400Y015546D01*
X002355Y015524D01*
X002309Y015506D01*
X002261Y015491D01*
X002212Y015480D01*
X002163Y015473D01*
X002113Y015470D01*
X002062Y015471D01*
X002013Y015476D01*
X001963Y015485D01*
X001915Y015498D01*
X001868Y015514D01*
X001822Y015535D01*
X001778Y015559D01*
X001736Y015586D01*
X001696Y015616D01*
X001659Y015650D01*
X001625Y015687D01*
X001593Y015726D01*
X001565Y015767D01*
X001540Y015811D01*
X001519Y015856D01*
X001502Y015903D01*
X001488Y015951D01*
X001478Y016000D01*
X001472Y016050D01*
X001470Y016100D01*
X015470Y016100D02*
X015472Y016150D01*
X015478Y016200D01*
X015488Y016249D01*
X015502Y016297D01*
X015519Y016344D01*
X015540Y016389D01*
X015565Y016433D01*
X015593Y016474D01*
X015625Y016513D01*
X015659Y016550D01*
X015696Y016584D01*
X015736Y016614D01*
X015778Y016641D01*
X015822Y016665D01*
X015868Y016686D01*
X015915Y016702D01*
X015963Y016715D01*
X016013Y016724D01*
X016062Y016729D01*
X016113Y016730D01*
X016163Y016727D01*
X016212Y016720D01*
X016261Y016709D01*
X016309Y016694D01*
X016355Y016676D01*
X016400Y016654D01*
X016443Y016628D01*
X016484Y016599D01*
X016523Y016567D01*
X016559Y016532D01*
X016591Y016494D01*
X016621Y016454D01*
X016648Y016411D01*
X016671Y016367D01*
X016690Y016321D01*
X016706Y016273D01*
X016718Y016224D01*
X016726Y016175D01*
X016730Y016125D01*
X016730Y016075D01*
X016726Y016025D01*
X016718Y015976D01*
X016706Y015927D01*
X016690Y015879D01*
X016671Y015833D01*
X016648Y015789D01*
X016621Y015746D01*
X016591Y015706D01*
X016559Y015668D01*
X016523Y015633D01*
X016484Y015601D01*
X016443Y015572D01*
X016400Y015546D01*
X016355Y015524D01*
X016309Y015506D01*
X016261Y015491D01*
X016212Y015480D01*
X016163Y015473D01*
X016113Y015470D01*
X016062Y015471D01*
X016013Y015476D01*
X015963Y015485D01*
X015915Y015498D01*
X015868Y015514D01*
X015822Y015535D01*
X015778Y015559D01*
X015736Y015586D01*
X015696Y015616D01*
X015659Y015650D01*
X015625Y015687D01*
X015593Y015726D01*
X015565Y015767D01*
X015540Y015811D01*
X015519Y015856D01*
X015502Y015903D01*
X015488Y015951D01*
X015478Y016000D01*
X015472Y016050D01*
X015470Y016100D01*
X015470Y002100D02*
X015472Y002150D01*
X015478Y002200D01*
X015488Y002249D01*
X015502Y002297D01*
X015519Y002344D01*
X015540Y002389D01*
X015565Y002433D01*
X015593Y002474D01*
X015625Y002513D01*
X015659Y002550D01*
X015696Y002584D01*
X015736Y002614D01*
X015778Y002641D01*
X015822Y002665D01*
X015868Y002686D01*
X015915Y002702D01*
X015963Y002715D01*
X016013Y002724D01*
X016062Y002729D01*
X016113Y002730D01*
X016163Y002727D01*
X016212Y002720D01*
X016261Y002709D01*
X016309Y002694D01*
X016355Y002676D01*
X016400Y002654D01*
X016443Y002628D01*
X016484Y002599D01*
X016523Y002567D01*
X016559Y002532D01*
X016591Y002494D01*
X016621Y002454D01*
X016648Y002411D01*
X016671Y002367D01*
X016690Y002321D01*
X016706Y002273D01*
X016718Y002224D01*
X016726Y002175D01*
X016730Y002125D01*
X016730Y002075D01*
X016726Y002025D01*
X016718Y001976D01*
X016706Y001927D01*
X016690Y001879D01*
X016671Y001833D01*
X016648Y001789D01*
X016621Y001746D01*
X016591Y001706D01*
X016559Y001668D01*
X016523Y001633D01*
X016484Y001601D01*
X016443Y001572D01*
X016400Y001546D01*
X016355Y001524D01*
X016309Y001506D01*
X016261Y001491D01*
X016212Y001480D01*
X016163Y001473D01*
X016113Y001470D01*
X016062Y001471D01*
X016013Y001476D01*
X015963Y001485D01*
X015915Y001498D01*
X015868Y001514D01*
X015822Y001535D01*
X015778Y001559D01*
X015736Y001586D01*
X015696Y001616D01*
X015659Y001650D01*
X015625Y001687D01*
X015593Y001726D01*
X015565Y001767D01*
X015540Y001811D01*
X015519Y001856D01*
X015502Y001903D01*
X015488Y001951D01*
X015478Y002000D01*
X015472Y002050D01*
X015470Y002100D01*
D11*
X014600Y008075D03*
X014100Y008075D03*
X013600Y008075D03*
X013100Y008075D03*
X012600Y008075D03*
X012100Y008075D03*
X011600Y008075D03*
X011600Y010125D03*
X012100Y010125D03*
X012600Y010125D03*
X013100Y010125D03*
X013600Y010125D03*
X014100Y010125D03*
X014600Y010125D03*
D12*
X008350Y010080D03*
X007850Y010080D03*
X007350Y010080D03*
X006850Y010080D03*
X006350Y010080D03*
X005850Y010080D03*
X005350Y010080D03*
X004850Y010080D03*
X004350Y010080D03*
X003850Y010080D03*
X003850Y006120D03*
X004350Y006120D03*
X004850Y006120D03*
X005350Y006120D03*
X005850Y006120D03*
X006350Y006120D03*
X006850Y006120D03*
X007350Y006120D03*
X007850Y006120D03*
X008350Y006120D03*
M02*
