G75*
G70*
%OFA0B0*%
%FSLAX24Y24*%
%IPPOS*%
%LPD*%
%AMOC8*
5,1,8,0,0,1.08239X$1,22.5*
%
%ADD10C,0.0000*%
%ADD11R,0.0500X0.0220*%
%ADD12R,0.0220X0.0500*%
%ADD13R,0.0630X0.0460*%
D10*
X000529Y001425D02*
X007615Y001425D01*
X007418Y001819D02*
X007420Y001846D01*
X007426Y001873D01*
X007435Y001899D01*
X007448Y001923D01*
X007464Y001946D01*
X007483Y001965D01*
X007505Y001982D01*
X007529Y001996D01*
X007554Y002006D01*
X007581Y002013D01*
X007608Y002016D01*
X007636Y002015D01*
X007663Y002010D01*
X007689Y002002D01*
X007713Y001990D01*
X007736Y001974D01*
X007757Y001956D01*
X007774Y001935D01*
X007789Y001911D01*
X007800Y001886D01*
X007808Y001860D01*
X007812Y001833D01*
X007812Y001805D01*
X007808Y001778D01*
X007800Y001752D01*
X007789Y001727D01*
X007774Y001703D01*
X007757Y001682D01*
X007736Y001664D01*
X007714Y001648D01*
X007689Y001636D01*
X007663Y001628D01*
X007636Y001623D01*
X007608Y001622D01*
X007581Y001625D01*
X007554Y001632D01*
X007529Y001642D01*
X007505Y001656D01*
X007483Y001673D01*
X007464Y001692D01*
X007448Y001715D01*
X007435Y001739D01*
X007426Y001765D01*
X007420Y001792D01*
X007418Y001819D01*
X007615Y001425D02*
X007654Y001427D01*
X007692Y001433D01*
X007729Y001442D01*
X007766Y001455D01*
X007801Y001472D01*
X007834Y001491D01*
X007865Y001514D01*
X007894Y001540D01*
X007920Y001569D01*
X007943Y001600D01*
X007962Y001633D01*
X007979Y001668D01*
X007992Y001705D01*
X008001Y001742D01*
X008007Y001780D01*
X008009Y001819D01*
X008009Y016780D01*
X007418Y016780D02*
X007420Y016807D01*
X007426Y016834D01*
X007435Y016860D01*
X007448Y016884D01*
X007464Y016907D01*
X007483Y016926D01*
X007505Y016943D01*
X007529Y016957D01*
X007554Y016967D01*
X007581Y016974D01*
X007608Y016977D01*
X007636Y016976D01*
X007663Y016971D01*
X007689Y016963D01*
X007713Y016951D01*
X007736Y016935D01*
X007757Y016917D01*
X007774Y016896D01*
X007789Y016872D01*
X007800Y016847D01*
X007808Y016821D01*
X007812Y016794D01*
X007812Y016766D01*
X007808Y016739D01*
X007800Y016713D01*
X007789Y016688D01*
X007774Y016664D01*
X007757Y016643D01*
X007736Y016625D01*
X007714Y016609D01*
X007689Y016597D01*
X007663Y016589D01*
X007636Y016584D01*
X007608Y016583D01*
X007581Y016586D01*
X007554Y016593D01*
X007529Y016603D01*
X007505Y016617D01*
X007483Y016634D01*
X007464Y016653D01*
X007448Y016676D01*
X007435Y016700D01*
X007426Y016726D01*
X007420Y016753D01*
X007418Y016780D01*
X007615Y017174D02*
X007654Y017172D01*
X007692Y017166D01*
X007729Y017157D01*
X007766Y017144D01*
X007801Y017127D01*
X007834Y017108D01*
X007865Y017085D01*
X007894Y017059D01*
X007920Y017030D01*
X007943Y016999D01*
X007962Y016966D01*
X007979Y016931D01*
X007992Y016894D01*
X008001Y016857D01*
X008007Y016819D01*
X008009Y016780D01*
X007615Y017173D02*
X000529Y017173D01*
X000332Y016780D02*
X000334Y016807D01*
X000340Y016834D01*
X000349Y016860D01*
X000362Y016884D01*
X000378Y016907D01*
X000397Y016926D01*
X000419Y016943D01*
X000443Y016957D01*
X000468Y016967D01*
X000495Y016974D01*
X000522Y016977D01*
X000550Y016976D01*
X000577Y016971D01*
X000603Y016963D01*
X000627Y016951D01*
X000650Y016935D01*
X000671Y016917D01*
X000688Y016896D01*
X000703Y016872D01*
X000714Y016847D01*
X000722Y016821D01*
X000726Y016794D01*
X000726Y016766D01*
X000722Y016739D01*
X000714Y016713D01*
X000703Y016688D01*
X000688Y016664D01*
X000671Y016643D01*
X000650Y016625D01*
X000628Y016609D01*
X000603Y016597D01*
X000577Y016589D01*
X000550Y016584D01*
X000522Y016583D01*
X000495Y016586D01*
X000468Y016593D01*
X000443Y016603D01*
X000419Y016617D01*
X000397Y016634D01*
X000378Y016653D01*
X000362Y016676D01*
X000349Y016700D01*
X000340Y016726D01*
X000334Y016753D01*
X000332Y016780D01*
X000135Y016780D02*
X000137Y016819D01*
X000143Y016857D01*
X000152Y016894D01*
X000165Y016931D01*
X000182Y016966D01*
X000201Y016999D01*
X000224Y017030D01*
X000250Y017059D01*
X000279Y017085D01*
X000310Y017108D01*
X000343Y017127D01*
X000378Y017144D01*
X000415Y017157D01*
X000452Y017166D01*
X000490Y017172D01*
X000529Y017174D01*
X000135Y016780D02*
X000135Y001819D01*
X000137Y001780D01*
X000143Y001742D01*
X000152Y001705D01*
X000165Y001668D01*
X000182Y001633D01*
X000201Y001600D01*
X000224Y001569D01*
X000250Y001540D01*
X000279Y001514D01*
X000310Y001491D01*
X000343Y001472D01*
X000378Y001455D01*
X000415Y001442D01*
X000452Y001433D01*
X000490Y001427D01*
X000529Y001425D01*
X000332Y001770D02*
X000334Y001797D01*
X000340Y001824D01*
X000349Y001850D01*
X000362Y001874D01*
X000378Y001897D01*
X000397Y001916D01*
X000419Y001933D01*
X000443Y001947D01*
X000468Y001957D01*
X000495Y001964D01*
X000522Y001967D01*
X000550Y001966D01*
X000577Y001961D01*
X000603Y001953D01*
X000627Y001941D01*
X000650Y001925D01*
X000671Y001907D01*
X000688Y001886D01*
X000703Y001862D01*
X000714Y001837D01*
X000722Y001811D01*
X000726Y001784D01*
X000726Y001756D01*
X000722Y001729D01*
X000714Y001703D01*
X000703Y001678D01*
X000688Y001654D01*
X000671Y001633D01*
X000650Y001615D01*
X000628Y001599D01*
X000603Y001587D01*
X000577Y001579D01*
X000550Y001574D01*
X000522Y001573D01*
X000495Y001576D01*
X000468Y001583D01*
X000443Y001593D01*
X000419Y001607D01*
X000397Y001624D01*
X000378Y001643D01*
X000362Y001666D01*
X000349Y001690D01*
X000340Y001716D01*
X000334Y001743D01*
X000332Y001770D01*
D11*
G36*
X001999Y009969D02*
X002351Y009617D01*
X002195Y009461D01*
X001843Y009813D01*
X001999Y009969D01*
G37*
G36*
X002222Y010191D02*
X002574Y009839D01*
X002418Y009683D01*
X002066Y010035D01*
X002222Y010191D01*
G37*
G36*
X002445Y010414D02*
X002797Y010062D01*
X002641Y009906D01*
X002289Y010258D01*
X002445Y010414D01*
G37*
G36*
X002668Y010637D02*
X003020Y010285D01*
X002864Y010129D01*
X002512Y010481D01*
X002668Y010637D01*
G37*
G36*
X002890Y010860D02*
X003242Y010508D01*
X003086Y010352D01*
X002734Y010704D01*
X002890Y010860D01*
G37*
G36*
X003113Y011082D02*
X003465Y010730D01*
X003309Y010574D01*
X002957Y010926D01*
X003113Y011082D01*
G37*
G36*
X003336Y011305D02*
X003688Y010953D01*
X003532Y010797D01*
X003180Y011149D01*
X003336Y011305D01*
G37*
G36*
X003558Y011528D02*
X003910Y011176D01*
X003754Y011020D01*
X003402Y011372D01*
X003558Y011528D01*
G37*
G36*
X005058Y008247D02*
X005410Y007895D01*
X005254Y007739D01*
X004902Y008091D01*
X005058Y008247D01*
G37*
G36*
X004835Y008024D02*
X005187Y007672D01*
X005031Y007516D01*
X004679Y007868D01*
X004835Y008024D01*
G37*
G36*
X004612Y007801D02*
X004964Y007449D01*
X004808Y007293D01*
X004456Y007645D01*
X004612Y007801D01*
G37*
G36*
X004389Y007579D02*
X004741Y007227D01*
X004585Y007071D01*
X004233Y007423D01*
X004389Y007579D01*
G37*
G36*
X005280Y008470D02*
X005632Y008118D01*
X005476Y007962D01*
X005124Y008314D01*
X005280Y008470D01*
G37*
G36*
X005503Y008692D02*
X005855Y008340D01*
X005699Y008184D01*
X005347Y008536D01*
X005503Y008692D01*
G37*
G36*
X005726Y008915D02*
X006078Y008563D01*
X005922Y008407D01*
X005570Y008759D01*
X005726Y008915D01*
G37*
G36*
X005948Y009138D02*
X006300Y008786D01*
X006144Y008630D01*
X005792Y008982D01*
X005948Y009138D01*
G37*
D12*
G36*
X006144Y009969D02*
X006300Y009813D01*
X005948Y009461D01*
X005792Y009617D01*
X006144Y009969D01*
G37*
G36*
X005922Y010191D02*
X006078Y010035D01*
X005726Y009683D01*
X005570Y009839D01*
X005922Y010191D01*
G37*
G36*
X005699Y010414D02*
X005855Y010258D01*
X005503Y009906D01*
X005347Y010062D01*
X005699Y010414D01*
G37*
G36*
X005476Y010637D02*
X005632Y010481D01*
X005280Y010129D01*
X005124Y010285D01*
X005476Y010637D01*
G37*
G36*
X005254Y010860D02*
X005410Y010704D01*
X005058Y010352D01*
X004902Y010508D01*
X005254Y010860D01*
G37*
G36*
X005031Y011082D02*
X005187Y010926D01*
X004835Y010574D01*
X004679Y010730D01*
X005031Y011082D01*
G37*
G36*
X004808Y011305D02*
X004964Y011149D01*
X004612Y010797D01*
X004456Y010953D01*
X004808Y011305D01*
G37*
G36*
X004585Y011528D02*
X004741Y011372D01*
X004389Y011020D01*
X004233Y011176D01*
X004585Y011528D01*
G37*
G36*
X003086Y008247D02*
X003242Y008091D01*
X002890Y007739D01*
X002734Y007895D01*
X003086Y008247D01*
G37*
G36*
X003309Y008024D02*
X003465Y007868D01*
X003113Y007516D01*
X002957Y007672D01*
X003309Y008024D01*
G37*
G36*
X003532Y007801D02*
X003688Y007645D01*
X003336Y007293D01*
X003180Y007449D01*
X003532Y007801D01*
G37*
G36*
X003754Y007579D02*
X003910Y007423D01*
X003558Y007071D01*
X003402Y007227D01*
X003754Y007579D01*
G37*
G36*
X002864Y008470D02*
X003020Y008314D01*
X002668Y007962D01*
X002512Y008118D01*
X002864Y008470D01*
G37*
G36*
X002641Y008692D02*
X002797Y008536D01*
X002445Y008184D01*
X002289Y008340D01*
X002641Y008692D01*
G37*
G36*
X002418Y008915D02*
X002574Y008759D01*
X002222Y008407D01*
X002066Y008563D01*
X002418Y008915D01*
G37*
G36*
X002195Y009138D02*
X002351Y008982D01*
X001999Y008630D01*
X001843Y008786D01*
X002195Y009138D01*
G37*
D13*
X002497Y006450D03*
X002497Y005850D03*
X005647Y012641D03*
X005647Y013241D03*
M02*
