G75*
G70*
%OFA0B0*%
%FSLAX24Y24*%
%IPPOS*%
%LPD*%
%AMOC8*
5,1,8,0,0,1.08239X$1,22.5*
%
%ADD10C,0.0000*%
%ADD11C,0.0560*%
%ADD12R,0.0500X0.0220*%
%ADD13R,0.0220X0.0500*%
%ADD14R,0.0630X0.0460*%
%ADD15C,0.0600*%
%ADD16OC8,0.0594*%
%ADD17R,0.0787X0.0787*%
%ADD18C,0.0500*%
%ADD19C,0.0650*%
%ADD20OC8,0.0630*%
%ADD21C,0.0126*%
%ADD22C,0.0080*%
%ADD23C,0.0240*%
D10*
X000529Y001425D02*
X007615Y001425D01*
X007418Y001819D02*
X007420Y001846D01*
X007426Y001873D01*
X007435Y001899D01*
X007448Y001923D01*
X007464Y001946D01*
X007483Y001965D01*
X007505Y001982D01*
X007529Y001996D01*
X007554Y002006D01*
X007581Y002013D01*
X007608Y002016D01*
X007636Y002015D01*
X007663Y002010D01*
X007689Y002002D01*
X007713Y001990D01*
X007736Y001974D01*
X007757Y001956D01*
X007774Y001935D01*
X007789Y001911D01*
X007800Y001886D01*
X007808Y001860D01*
X007812Y001833D01*
X007812Y001805D01*
X007808Y001778D01*
X007800Y001752D01*
X007789Y001727D01*
X007774Y001703D01*
X007757Y001682D01*
X007736Y001664D01*
X007714Y001648D01*
X007689Y001636D01*
X007663Y001628D01*
X007636Y001623D01*
X007608Y001622D01*
X007581Y001625D01*
X007554Y001632D01*
X007529Y001642D01*
X007505Y001656D01*
X007483Y001673D01*
X007464Y001692D01*
X007448Y001715D01*
X007435Y001739D01*
X007426Y001765D01*
X007420Y001792D01*
X007418Y001819D01*
X007615Y001425D02*
X007654Y001427D01*
X007692Y001433D01*
X007729Y001442D01*
X007766Y001455D01*
X007801Y001472D01*
X007834Y001491D01*
X007865Y001514D01*
X007894Y001540D01*
X007920Y001569D01*
X007943Y001600D01*
X007962Y001633D01*
X007979Y001668D01*
X007992Y001705D01*
X008001Y001742D01*
X008007Y001780D01*
X008009Y001819D01*
X008009Y016780D01*
X007418Y016780D02*
X007420Y016807D01*
X007426Y016834D01*
X007435Y016860D01*
X007448Y016884D01*
X007464Y016907D01*
X007483Y016926D01*
X007505Y016943D01*
X007529Y016957D01*
X007554Y016967D01*
X007581Y016974D01*
X007608Y016977D01*
X007636Y016976D01*
X007663Y016971D01*
X007689Y016963D01*
X007713Y016951D01*
X007736Y016935D01*
X007757Y016917D01*
X007774Y016896D01*
X007789Y016872D01*
X007800Y016847D01*
X007808Y016821D01*
X007812Y016794D01*
X007812Y016766D01*
X007808Y016739D01*
X007800Y016713D01*
X007789Y016688D01*
X007774Y016664D01*
X007757Y016643D01*
X007736Y016625D01*
X007714Y016609D01*
X007689Y016597D01*
X007663Y016589D01*
X007636Y016584D01*
X007608Y016583D01*
X007581Y016586D01*
X007554Y016593D01*
X007529Y016603D01*
X007505Y016617D01*
X007483Y016634D01*
X007464Y016653D01*
X007448Y016676D01*
X007435Y016700D01*
X007426Y016726D01*
X007420Y016753D01*
X007418Y016780D01*
X007615Y017174D02*
X007654Y017172D01*
X007692Y017166D01*
X007729Y017157D01*
X007766Y017144D01*
X007801Y017127D01*
X007834Y017108D01*
X007865Y017085D01*
X007894Y017059D01*
X007920Y017030D01*
X007943Y016999D01*
X007962Y016966D01*
X007979Y016931D01*
X007992Y016894D01*
X008001Y016857D01*
X008007Y016819D01*
X008009Y016780D01*
X007615Y017173D02*
X000529Y017173D01*
X000332Y016780D02*
X000334Y016807D01*
X000340Y016834D01*
X000349Y016860D01*
X000362Y016884D01*
X000378Y016907D01*
X000397Y016926D01*
X000419Y016943D01*
X000443Y016957D01*
X000468Y016967D01*
X000495Y016974D01*
X000522Y016977D01*
X000550Y016976D01*
X000577Y016971D01*
X000603Y016963D01*
X000627Y016951D01*
X000650Y016935D01*
X000671Y016917D01*
X000688Y016896D01*
X000703Y016872D01*
X000714Y016847D01*
X000722Y016821D01*
X000726Y016794D01*
X000726Y016766D01*
X000722Y016739D01*
X000714Y016713D01*
X000703Y016688D01*
X000688Y016664D01*
X000671Y016643D01*
X000650Y016625D01*
X000628Y016609D01*
X000603Y016597D01*
X000577Y016589D01*
X000550Y016584D01*
X000522Y016583D01*
X000495Y016586D01*
X000468Y016593D01*
X000443Y016603D01*
X000419Y016617D01*
X000397Y016634D01*
X000378Y016653D01*
X000362Y016676D01*
X000349Y016700D01*
X000340Y016726D01*
X000334Y016753D01*
X000332Y016780D01*
X000135Y016780D02*
X000137Y016819D01*
X000143Y016857D01*
X000152Y016894D01*
X000165Y016931D01*
X000182Y016966D01*
X000201Y016999D01*
X000224Y017030D01*
X000250Y017059D01*
X000279Y017085D01*
X000310Y017108D01*
X000343Y017127D01*
X000378Y017144D01*
X000415Y017157D01*
X000452Y017166D01*
X000490Y017172D01*
X000529Y017174D01*
X000135Y016780D02*
X000135Y001819D01*
X000137Y001780D01*
X000143Y001742D01*
X000152Y001705D01*
X000165Y001668D01*
X000182Y001633D01*
X000201Y001600D01*
X000224Y001569D01*
X000250Y001540D01*
X000279Y001514D01*
X000310Y001491D01*
X000343Y001472D01*
X000378Y001455D01*
X000415Y001442D01*
X000452Y001433D01*
X000490Y001427D01*
X000529Y001425D01*
X000332Y001770D02*
X000334Y001797D01*
X000340Y001824D01*
X000349Y001850D01*
X000362Y001874D01*
X000378Y001897D01*
X000397Y001916D01*
X000419Y001933D01*
X000443Y001947D01*
X000468Y001957D01*
X000495Y001964D01*
X000522Y001967D01*
X000550Y001966D01*
X000577Y001961D01*
X000603Y001953D01*
X000627Y001941D01*
X000650Y001925D01*
X000671Y001907D01*
X000688Y001886D01*
X000703Y001862D01*
X000714Y001837D01*
X000722Y001811D01*
X000726Y001784D01*
X000726Y001756D01*
X000722Y001729D01*
X000714Y001703D01*
X000703Y001678D01*
X000688Y001654D01*
X000671Y001633D01*
X000650Y001615D01*
X000628Y001599D01*
X000603Y001587D01*
X000577Y001579D01*
X000550Y001574D01*
X000522Y001573D01*
X000495Y001576D01*
X000468Y001583D01*
X000443Y001593D01*
X000419Y001607D01*
X000397Y001624D01*
X000378Y001643D01*
X000362Y001666D01*
X000349Y001690D01*
X000340Y001716D01*
X000334Y001743D01*
X000332Y001770D01*
D11*
X001119Y001917D03*
X001119Y002902D03*
X001119Y003886D03*
X001119Y004870D03*
X001119Y005854D03*
X001119Y006839D03*
X001119Y007823D03*
X001119Y008807D03*
X001119Y009791D03*
X001119Y010776D03*
X001119Y011760D03*
X001119Y012744D03*
X001119Y013728D03*
X001119Y014713D03*
X001119Y015697D03*
X001119Y016681D03*
X007025Y016681D03*
X007025Y015697D03*
X007025Y014713D03*
X007025Y013728D03*
X007025Y012744D03*
X007025Y011760D03*
X007025Y010776D03*
X007025Y009791D03*
X007025Y008807D03*
X007025Y007823D03*
X007025Y006839D03*
X007025Y005854D03*
X007025Y004870D03*
X007025Y003886D03*
X007025Y002902D03*
X007025Y001917D03*
D12*
G36*
X004612Y007801D02*
X004964Y007449D01*
X004808Y007293D01*
X004456Y007645D01*
X004612Y007801D01*
G37*
G36*
X004389Y007579D02*
X004741Y007227D01*
X004585Y007071D01*
X004233Y007423D01*
X004389Y007579D01*
G37*
G36*
X004835Y008024D02*
X005187Y007672D01*
X005031Y007516D01*
X004679Y007868D01*
X004835Y008024D01*
G37*
G36*
X005058Y008247D02*
X005410Y007895D01*
X005254Y007739D01*
X004902Y008091D01*
X005058Y008247D01*
G37*
G36*
X005280Y008470D02*
X005632Y008118D01*
X005476Y007962D01*
X005124Y008314D01*
X005280Y008470D01*
G37*
G36*
X005503Y008692D02*
X005855Y008340D01*
X005699Y008184D01*
X005347Y008536D01*
X005503Y008692D01*
G37*
G36*
X005726Y008915D02*
X006078Y008563D01*
X005922Y008407D01*
X005570Y008759D01*
X005726Y008915D01*
G37*
G36*
X005948Y009138D02*
X006300Y008786D01*
X006144Y008630D01*
X005792Y008982D01*
X005948Y009138D01*
G37*
G36*
X003558Y011528D02*
X003910Y011176D01*
X003754Y011020D01*
X003402Y011372D01*
X003558Y011528D01*
G37*
G36*
X003336Y011305D02*
X003688Y010953D01*
X003532Y010797D01*
X003180Y011149D01*
X003336Y011305D01*
G37*
G36*
X003113Y011082D02*
X003465Y010730D01*
X003309Y010574D01*
X002957Y010926D01*
X003113Y011082D01*
G37*
G36*
X002890Y010860D02*
X003242Y010508D01*
X003086Y010352D01*
X002734Y010704D01*
X002890Y010860D01*
G37*
G36*
X002668Y010637D02*
X003020Y010285D01*
X002864Y010129D01*
X002512Y010481D01*
X002668Y010637D01*
G37*
G36*
X002445Y010414D02*
X002797Y010062D01*
X002641Y009906D01*
X002289Y010258D01*
X002445Y010414D01*
G37*
G36*
X002222Y010191D02*
X002574Y009839D01*
X002418Y009683D01*
X002066Y010035D01*
X002222Y010191D01*
G37*
G36*
X001999Y009969D02*
X002351Y009617D01*
X002195Y009461D01*
X001843Y009813D01*
X001999Y009969D01*
G37*
D13*
G36*
X002195Y009138D02*
X002351Y008982D01*
X001999Y008630D01*
X001843Y008786D01*
X002195Y009138D01*
G37*
G36*
X002418Y008915D02*
X002574Y008759D01*
X002222Y008407D01*
X002066Y008563D01*
X002418Y008915D01*
G37*
G36*
X002641Y008692D02*
X002797Y008536D01*
X002445Y008184D01*
X002289Y008340D01*
X002641Y008692D01*
G37*
G36*
X002864Y008470D02*
X003020Y008314D01*
X002668Y007962D01*
X002512Y008118D01*
X002864Y008470D01*
G37*
G36*
X003086Y008247D02*
X003242Y008091D01*
X002890Y007739D01*
X002734Y007895D01*
X003086Y008247D01*
G37*
G36*
X003309Y008024D02*
X003465Y007868D01*
X003113Y007516D01*
X002957Y007672D01*
X003309Y008024D01*
G37*
G36*
X003532Y007801D02*
X003688Y007645D01*
X003336Y007293D01*
X003180Y007449D01*
X003532Y007801D01*
G37*
G36*
X003754Y007579D02*
X003910Y007423D01*
X003558Y007071D01*
X003402Y007227D01*
X003754Y007579D01*
G37*
G36*
X005254Y010860D02*
X005410Y010704D01*
X005058Y010352D01*
X004902Y010508D01*
X005254Y010860D01*
G37*
G36*
X005031Y011082D02*
X005187Y010926D01*
X004835Y010574D01*
X004679Y010730D01*
X005031Y011082D01*
G37*
G36*
X004808Y011305D02*
X004964Y011149D01*
X004612Y010797D01*
X004456Y010953D01*
X004808Y011305D01*
G37*
G36*
X004585Y011528D02*
X004741Y011372D01*
X004389Y011020D01*
X004233Y011176D01*
X004585Y011528D01*
G37*
G36*
X005476Y010637D02*
X005632Y010481D01*
X005280Y010129D01*
X005124Y010285D01*
X005476Y010637D01*
G37*
G36*
X005699Y010414D02*
X005855Y010258D01*
X005503Y009906D01*
X005347Y010062D01*
X005699Y010414D01*
G37*
G36*
X005922Y010191D02*
X006078Y010035D01*
X005726Y009683D01*
X005570Y009839D01*
X005922Y010191D01*
G37*
G36*
X006144Y009969D02*
X006300Y009813D01*
X005948Y009461D01*
X005792Y009617D01*
X006144Y009969D01*
G37*
D14*
X005647Y012641D03*
X005647Y013241D03*
X002497Y006450D03*
X002497Y005850D03*
D15*
X002572Y004800D02*
X002572Y004200D01*
X003572Y004200D02*
X003572Y004800D01*
X004572Y004800D02*
X004572Y004200D01*
X005572Y004200D02*
X005572Y004800D01*
D16*
X005572Y014605D03*
X004572Y014605D03*
X003572Y014605D03*
X002572Y014605D03*
D17*
X002596Y016780D03*
X003580Y016780D03*
X004564Y016780D03*
X005548Y016780D03*
X005548Y001819D03*
X004564Y001819D03*
X003580Y001819D03*
X002596Y001819D03*
D18*
X001957Y011811D03*
X003628Y013481D03*
D19*
X006237Y006543D03*
X005530Y005836D03*
D20*
X005548Y015697D03*
X004564Y015697D03*
X003580Y015697D03*
X002596Y015697D03*
D21*
X003490Y012408D02*
X003427Y012345D01*
X003427Y012553D01*
X003574Y012700D01*
X003782Y012700D01*
X003929Y012553D01*
X003929Y012345D01*
X003782Y012198D01*
X003574Y012198D01*
X003427Y012345D01*
X003522Y012384D01*
X003522Y012514D01*
X003613Y012605D01*
X003743Y012605D01*
X003834Y012514D01*
X003834Y012384D01*
X003743Y012293D01*
X003613Y012293D01*
X003522Y012384D01*
X003616Y012423D01*
X003616Y012475D01*
X003652Y012511D01*
X003704Y012511D01*
X003740Y012475D01*
X003740Y012423D01*
X003704Y012387D01*
X003652Y012387D01*
X003616Y012423D01*
X002801Y011719D02*
X002738Y011656D01*
X002738Y011864D01*
X002885Y012011D01*
X003093Y012011D01*
X003240Y011864D01*
X003240Y011656D01*
X003093Y011509D01*
X002885Y011509D01*
X002738Y011656D01*
X002833Y011695D01*
X002833Y011825D01*
X002924Y011916D01*
X003054Y011916D01*
X003145Y011825D01*
X003145Y011695D01*
X003054Y011604D01*
X002924Y011604D01*
X002833Y011695D01*
X002927Y011734D01*
X002927Y011786D01*
X002963Y011822D01*
X003015Y011822D01*
X003051Y011786D01*
X003051Y011734D01*
X003015Y011698D01*
X002963Y011698D01*
X002927Y011734D01*
X004573Y006305D02*
X004510Y006242D01*
X004510Y006450D01*
X004657Y006597D01*
X004865Y006597D01*
X005012Y006450D01*
X005012Y006242D01*
X004865Y006095D01*
X004657Y006095D01*
X004510Y006242D01*
X004605Y006281D01*
X004605Y006411D01*
X004696Y006502D01*
X004826Y006502D01*
X004917Y006411D01*
X004917Y006281D01*
X004826Y006190D01*
X004696Y006190D01*
X004605Y006281D01*
X004699Y006320D01*
X004699Y006372D01*
X004735Y006408D01*
X004787Y006408D01*
X004823Y006372D01*
X004823Y006320D01*
X004787Y006284D01*
X004735Y006284D01*
X004699Y006320D01*
X003884Y005616D02*
X003821Y005553D01*
X003821Y005761D01*
X003968Y005908D01*
X004176Y005908D01*
X004323Y005761D01*
X004323Y005553D01*
X004176Y005406D01*
X003968Y005406D01*
X003821Y005553D01*
X003916Y005592D01*
X003916Y005722D01*
X004007Y005813D01*
X004137Y005813D01*
X004228Y005722D01*
X004228Y005592D01*
X004137Y005501D01*
X004007Y005501D01*
X003916Y005592D01*
X004010Y005631D01*
X004010Y005683D01*
X004046Y005719D01*
X004098Y005719D01*
X004134Y005683D01*
X004134Y005631D01*
X004098Y005595D01*
X004046Y005595D01*
X004010Y005631D01*
X005262Y006994D02*
X005199Y006931D01*
X005199Y007139D01*
X005346Y007286D01*
X005554Y007286D01*
X005701Y007139D01*
X005701Y006931D01*
X005554Y006784D01*
X005346Y006784D01*
X005199Y006931D01*
X005294Y006970D01*
X005294Y007100D01*
X005385Y007191D01*
X005515Y007191D01*
X005606Y007100D01*
X005606Y006970D01*
X005515Y006879D01*
X005385Y006879D01*
X005294Y006970D01*
X005388Y007009D01*
X005388Y007061D01*
X005424Y007097D01*
X005476Y007097D01*
X005512Y007061D01*
X005512Y007009D01*
X005476Y006973D01*
X005424Y006973D01*
X005388Y007009D01*
X005951Y007683D02*
X005888Y007620D01*
X005888Y007828D01*
X006035Y007975D01*
X006243Y007975D01*
X006390Y007828D01*
X006390Y007620D01*
X006243Y007473D01*
X006035Y007473D01*
X005888Y007620D01*
X005983Y007659D01*
X005983Y007789D01*
X006074Y007880D01*
X006204Y007880D01*
X006295Y007789D01*
X006295Y007659D01*
X006204Y007568D01*
X006074Y007568D01*
X005983Y007659D01*
X006077Y007698D01*
X006077Y007750D01*
X006113Y007786D01*
X006165Y007786D01*
X006201Y007750D01*
X006201Y007698D01*
X006165Y007662D01*
X006113Y007662D01*
X006077Y007698D01*
D22*
X005749Y008071D02*
X005749Y008291D01*
X005607Y008433D01*
X005601Y008438D01*
X005560Y008449D01*
X005426Y008583D01*
X004962Y008583D01*
X002993Y010551D01*
X002993Y010598D01*
X002988Y010606D01*
X002954Y010535D01*
X002324Y011165D01*
X002324Y011913D01*
X003096Y012685D01*
X003190Y012961D02*
X002080Y014071D01*
X001985Y014307D02*
X002174Y014307D01*
X003363Y013118D01*
X003828Y013118D01*
X004261Y012685D01*
X004261Y012402D01*
X005080Y011583D01*
X005080Y011102D01*
X004938Y010961D01*
X004938Y010835D01*
X004933Y010828D01*
X005159Y010740D02*
X005159Y010606D01*
X005156Y010606D01*
X005159Y010740D02*
X005387Y010969D01*
X005387Y011000D01*
X005623Y010756D02*
X005379Y010512D01*
X005379Y010386D01*
X005378Y010383D01*
X005560Y010150D02*
X005601Y010160D01*
X005607Y010165D01*
X005607Y010299D01*
X005781Y010472D01*
X005781Y012504D01*
X005647Y012638D01*
X005647Y012641D01*
X005647Y013241D02*
X005647Y013244D01*
X004930Y013244D01*
X003576Y014598D01*
X003572Y014605D01*
X003592Y014638D01*
X004009Y015055D01*
X004009Y015874D01*
X003820Y016063D01*
X003820Y016150D01*
X003804Y016189D01*
X003804Y016559D01*
X003584Y016780D01*
X003580Y016780D01*
X003025Y015874D02*
X003025Y015126D01*
X002576Y014677D01*
X002576Y014606D01*
X002572Y014605D01*
X002592Y015094D02*
X001119Y016567D01*
X001119Y016681D01*
X001119Y015697D02*
X001119Y015268D01*
X000725Y014874D01*
X000725Y013567D01*
X001072Y013220D01*
X001119Y012748D02*
X001119Y012744D01*
X001103Y012709D01*
X000411Y012016D01*
X000411Y006992D01*
X000962Y006441D01*
X001088Y006441D01*
X001513Y006016D01*
X001513Y004465D01*
X002072Y003906D01*
X002072Y003787D01*
X001907Y003291D02*
X001285Y003291D01*
X001166Y003409D01*
X001513Y004016D02*
X001513Y004047D01*
X001088Y004472D01*
X000631Y004472D01*
X000505Y004598D01*
X001513Y004016D02*
X002710Y002819D01*
X003237Y002425D02*
X002647Y001835D01*
X002631Y001835D01*
X002596Y001819D01*
X002009Y001819D01*
X003237Y002425D02*
X003411Y002425D01*
X003552Y002567D01*
X003552Y003520D01*
X002572Y004500D01*
X002426Y005213D02*
X002844Y005213D01*
X003536Y004520D01*
X003572Y004500D01*
X003710Y004362D01*
X003710Y002449D01*
X003725Y002409D01*
X003725Y001961D01*
X003584Y001819D01*
X003580Y001819D01*
X003316Y002661D02*
X003316Y002874D01*
X001670Y004520D01*
X001670Y006843D01*
X001088Y007425D01*
X000962Y007425D01*
X000725Y007661D01*
X000725Y010378D01*
X001119Y010772D01*
X001119Y010776D01*
X001088Y011173D02*
X000962Y011173D01*
X000568Y010780D01*
X000568Y007488D01*
X000773Y007283D01*
X001277Y008315D02*
X001395Y008315D01*
X001725Y007984D01*
X002269Y007984D01*
X002458Y007795D01*
X002489Y008071D02*
X002395Y008071D01*
X002324Y008142D01*
X001781Y008142D01*
X001119Y008803D01*
X001119Y008807D01*
X001072Y009315D02*
X001198Y009315D01*
X001513Y009630D01*
X001513Y010173D01*
X001568Y010228D01*
X001568Y010559D02*
X001119Y010110D01*
X001119Y009791D01*
X001568Y010559D02*
X001568Y010992D01*
X001804Y011087D02*
X001568Y011323D01*
X001513Y011598D02*
X001088Y011173D01*
X001513Y011598D02*
X001513Y011882D01*
X001804Y012173D01*
X002025Y012173D01*
X002836Y012984D01*
X002599Y012961D02*
X002387Y012748D01*
X001119Y012748D01*
X002009Y013079D02*
X001363Y013724D01*
X001119Y013724D01*
X001119Y013728D01*
X001119Y014299D02*
X002363Y013055D01*
X002599Y012961D02*
X002599Y013150D01*
X001844Y013906D01*
X001844Y014165D01*
X001985Y014307D01*
X001119Y014299D02*
X001119Y014713D01*
X002009Y016780D02*
X002596Y016780D01*
X002607Y016740D01*
X002607Y016291D01*
X003025Y015874D01*
X003159Y014929D02*
X003159Y013976D01*
X003615Y013520D01*
X003628Y013481D01*
X003631Y013480D01*
X003678Y013480D01*
X004418Y012740D01*
X004418Y012457D01*
X005623Y011252D01*
X005623Y010756D01*
X005560Y010150D02*
X005159Y009748D01*
X005072Y010063D02*
X004741Y010394D01*
X004568Y010567D01*
X004568Y010780D01*
X004710Y010921D01*
X004710Y011047D01*
X004710Y011051D01*
X004466Y011236D02*
X004487Y011274D01*
X004481Y011276D01*
X004481Y011969D01*
X004103Y012346D01*
X004103Y012630D01*
X003773Y012961D01*
X003190Y012961D01*
X003072Y012449D02*
X003678Y012449D01*
X003812Y011874D02*
X003544Y011874D01*
X003733Y011622D02*
X003662Y011551D01*
X003662Y011276D01*
X003656Y011274D01*
X004025Y011126D02*
X003718Y010819D01*
X003718Y010039D01*
X004954Y008803D01*
X005662Y008803D01*
X005788Y008677D01*
X005824Y008661D01*
X005828Y008654D01*
X006655Y007827D01*
X007025Y007827D01*
X007025Y007823D01*
X006820Y007472D02*
X007056Y007236D01*
X007182Y007236D01*
X007497Y006921D01*
X007733Y006827D02*
X007229Y006323D01*
X007733Y006827D02*
X007733Y010835D01*
X007025Y011543D01*
X007025Y011760D01*
X006993Y012157D02*
X006867Y012157D01*
X006631Y011921D01*
X006631Y011598D01*
X007056Y011173D01*
X007182Y011173D01*
X007418Y010937D01*
X007418Y008094D01*
X006820Y007472D02*
X006710Y007472D01*
X006544Y008268D02*
X006544Y008701D01*
X006048Y009197D01*
X006048Y009709D01*
X006046Y009715D01*
X006190Y010205D02*
X006757Y010772D01*
X007025Y010772D01*
X007025Y010776D01*
X006993Y012157D02*
X007418Y012583D01*
X007418Y014874D01*
X007182Y015110D01*
X007056Y015110D01*
X006151Y016016D01*
X006151Y016740D01*
X006135Y016780D01*
X005548Y016780D01*
X004804Y016063D02*
X004993Y015874D01*
X004993Y015024D01*
X005033Y015016D01*
X005741Y015016D01*
X006182Y014575D01*
X006182Y014039D01*
X006072Y013520D02*
X006072Y011039D01*
X005824Y009937D02*
X005820Y009937D01*
X005225Y009343D01*
X004505Y010063D01*
X004505Y010157D01*
X004025Y011126D02*
X004025Y011661D01*
X003812Y011874D01*
X003426Y011055D02*
X003434Y011051D01*
X003426Y011055D02*
X003300Y011055D01*
X003040Y011315D01*
X002718Y011315D01*
X002623Y011079D02*
X002828Y011079D01*
X003072Y010835D01*
X003206Y010835D01*
X003211Y010828D01*
X002773Y010378D02*
X002914Y010236D01*
X002914Y010016D01*
X002903Y010004D01*
X004749Y008157D01*
X004788Y008142D01*
X005009Y008362D01*
X005229Y008362D01*
X005371Y008220D01*
X005378Y008216D01*
X005285Y007992D02*
X005426Y007850D01*
X005529Y007850D01*
X005544Y007811D01*
X005631Y007724D01*
X005529Y007850D02*
X005749Y008071D01*
X005623Y007465D02*
X006237Y006850D01*
X006237Y006543D01*
X006253Y006504D01*
X006285Y006472D01*
X006285Y005929D01*
X005749Y005394D01*
X005355Y005394D01*
X005009Y005740D01*
X005009Y005827D01*
X004765Y006346D02*
X004761Y006346D01*
X004765Y006346D02*
X004859Y006441D01*
X004859Y007268D01*
X004718Y007409D01*
X004718Y007543D01*
X004710Y007547D01*
X004489Y007323D02*
X004487Y007325D01*
X004489Y007323D02*
X004489Y006937D01*
X004568Y006858D01*
X004332Y007165D02*
X004332Y006173D01*
X005292Y005213D01*
X006686Y005213D01*
X007025Y004874D01*
X007025Y004870D01*
X007025Y002902D02*
X007025Y002898D01*
X005812Y002898D01*
X005576Y002661D01*
X005340Y002567D02*
X005536Y002370D01*
X005536Y001858D01*
X005548Y001819D01*
X006135Y001819D01*
X005340Y002567D02*
X005340Y004268D01*
X005572Y004500D01*
X005962Y006024D02*
X005458Y006528D01*
X005316Y006528D01*
X005371Y007465D02*
X005623Y007465D01*
X005371Y007465D02*
X005080Y007756D01*
X004970Y007756D01*
X004933Y007770D01*
X004930Y007772D01*
X004930Y007906D01*
X004788Y008047D01*
X004788Y008142D01*
X004505Y008150D02*
X004033Y008622D01*
X003513Y008622D01*
X003001Y008110D01*
X003001Y008031D01*
X002988Y007993D01*
X002985Y007992D01*
X002080Y007087D01*
X001844Y007181D02*
X002080Y007417D01*
X002080Y007748D01*
X001844Y007181D02*
X001844Y005795D01*
X002426Y005213D01*
X002497Y005843D02*
X002497Y005850D01*
X002497Y005843D02*
X003229Y005843D01*
X004572Y004500D01*
X004568Y004465D01*
X004568Y002409D01*
X004568Y001819D01*
X004564Y001819D01*
X005962Y006024D02*
X006048Y006024D01*
X005285Y007992D02*
X005159Y007992D01*
X005156Y007993D01*
X004985Y009102D02*
X005225Y009343D01*
X004505Y008150D02*
X004505Y008071D01*
X004151Y007795D02*
X004151Y007504D01*
X004119Y007472D01*
X004119Y007378D01*
X004332Y007165D01*
X004151Y007795D02*
X003938Y008008D01*
X003938Y008386D01*
X003914Y007701D02*
X003718Y007701D01*
X003568Y007551D01*
X003434Y007551D01*
X003434Y007547D01*
X003206Y007764D02*
X003211Y007770D01*
X003222Y007811D01*
X003418Y008008D01*
X003418Y008197D01*
X003206Y007764D02*
X003072Y007764D01*
X002899Y007591D01*
X002804Y007591D01*
X002442Y007228D01*
X002442Y006874D01*
X002757Y006717D02*
X002497Y006457D01*
X002497Y006450D01*
X002757Y006717D02*
X002757Y006874D01*
X002899Y007354D02*
X003111Y007354D01*
X003285Y007181D01*
X003521Y007181D01*
X003631Y007291D01*
X003656Y007325D01*
X003662Y007323D01*
X003844Y007323D01*
X003962Y007205D01*
X002544Y008441D02*
X002875Y008772D01*
X002639Y008976D02*
X002324Y008661D01*
X002320Y008661D01*
X002544Y008441D02*
X002543Y008438D01*
X002631Y008213D02*
X002489Y008071D01*
X002631Y008213D02*
X002765Y008213D01*
X002766Y008216D01*
X002111Y008921D02*
X002521Y009331D01*
X002592Y009795D02*
X002694Y009795D01*
X002903Y010004D01*
X002773Y010378D02*
X002766Y010383D01*
X002536Y010299D02*
X002536Y010165D01*
X002543Y010160D01*
X002536Y010299D02*
X002395Y010441D01*
X002395Y010661D01*
X002623Y011079D02*
X002481Y011220D01*
X002481Y011858D01*
X003072Y012449D01*
X003489Y014110D02*
X003513Y014110D01*
X005222Y012402D01*
X005222Y011984D01*
X005285Y011921D01*
X006072Y013520D02*
X005647Y013945D01*
X005340Y013945D01*
X005623Y014181D02*
X004844Y014181D01*
X004584Y013921D01*
X004572Y014605D02*
X004576Y014606D01*
X004993Y015024D01*
X005229Y015252D02*
X005718Y015252D01*
X006253Y014717D01*
X007025Y014717D01*
X007025Y014713D01*
X005623Y014181D02*
X007025Y012780D01*
X007025Y012744D01*
X006046Y008884D02*
X006048Y008882D01*
X006048Y008764D01*
X006300Y008512D01*
X003954Y010724D02*
X004466Y011236D01*
X003009Y009567D02*
X002135Y009567D01*
X002097Y009715D01*
X002096Y009709D01*
X002096Y009307D01*
X001907Y009118D01*
X002111Y008921D02*
X002097Y008884D01*
X002096Y008882D01*
X002096Y008748D01*
X001883Y008535D01*
X001883Y008378D01*
X001670Y008882D02*
X001670Y009803D01*
X001804Y009937D01*
X001804Y011087D01*
X001962Y010425D02*
X001962Y011803D01*
X001957Y011811D01*
X001962Y010425D02*
X002308Y010079D01*
X002308Y009976D01*
X002320Y009937D01*
X002324Y009937D01*
X002450Y009937D01*
X002592Y009795D01*
X004292Y015016D02*
X004292Y015425D01*
X004564Y015697D01*
X004804Y016063D02*
X004804Y016150D01*
X004788Y016189D01*
X004788Y016559D01*
X004568Y016780D01*
X004564Y016780D01*
D23*
X004788Y016189D03*
X005229Y015252D03*
X005340Y013945D03*
X004584Y013921D03*
X004292Y015016D03*
X003804Y016189D03*
X003159Y014929D03*
X003489Y014110D03*
X003096Y012685D03*
X002836Y012984D03*
X002363Y013055D03*
X002009Y013079D03*
X002080Y014071D03*
X002592Y015094D03*
X002009Y016780D03*
X001072Y013220D03*
X001568Y011323D03*
X001568Y010992D03*
X001568Y010228D03*
X001072Y009315D03*
X001277Y008315D03*
X001670Y008882D03*
X001907Y009118D03*
X001883Y008378D03*
X002080Y007748D03*
X002458Y007795D03*
X002080Y007087D03*
X002442Y006874D03*
X002757Y006874D03*
X002899Y007354D03*
X003418Y008197D03*
X003938Y008386D03*
X003914Y007701D03*
X003962Y007205D03*
X004505Y008071D03*
X004985Y009102D03*
X005159Y009748D03*
X005072Y010063D03*
X004741Y010394D03*
X004505Y010157D03*
X003954Y010724D03*
X003733Y011622D03*
X003544Y011874D03*
X002718Y011315D03*
X002395Y010661D03*
X003009Y009567D03*
X002639Y008976D03*
X002521Y009331D03*
X002875Y008772D03*
X004568Y006858D03*
X005009Y005827D03*
X005316Y006528D03*
X005631Y007724D03*
X006300Y008512D03*
X006544Y008268D03*
X006710Y007472D03*
X007229Y006323D03*
X007497Y006921D03*
X007418Y008094D03*
X006190Y010205D03*
X006072Y011039D03*
X005387Y011000D03*
X005285Y011921D03*
X006182Y014039D03*
X006135Y016780D03*
X006048Y006024D03*
X005576Y002661D03*
X006135Y001819D03*
X004568Y002409D03*
X003725Y002409D03*
X003316Y002661D03*
X002710Y002819D03*
X002072Y003787D03*
X001907Y003291D03*
X002009Y001819D03*
X001166Y003409D03*
X000505Y004598D03*
X000773Y007283D03*
M02*
