%
M48
M72
T01C0.0120
T02C0.0197
T03C0.0236
T04C0.0276
T05C0.0315
T06C0.0320
T07C0.0354
T08C0.0400
T09C0.0472
T10C0.0512
T11C0.0866
T12C0.1260
%
T01
X16650Y4000
X16700Y4450
X20950Y4700
X22300Y7400
X22250Y8300
X21700Y8800
X21500Y8550
X20650Y9050
X19550Y8500
X19750Y8250
X17950Y8350
X16800Y8450
X16700Y8950
X15650Y9750
X17300Y10400
X17550Y10150
X18550Y10400
X19850Y10750
X20050Y11300
X19800Y11950
X18600Y11800
X18200Y11450
X17950Y11150
X21000Y10400
X21950Y9850
X22500Y10250
X25550Y11850
X26250Y12400
X25950Y12600
X26200Y13200
X27550Y13350
X23500Y15250
X23350Y16100
X24350Y16100
X22300Y17150
X19850Y15850
X20000Y15350
X20950Y15450
X22550Y13600
X18050Y12950
X16950Y13050
X15300Y13000
X10350Y9600
X16800Y7750
X25850Y800
X27050Y18750
T02
X35927Y12818
X35927Y7068
T03
X15061Y8663
X13880Y8663
X12698Y8663
X12698Y11222
X13880Y11222
X15061Y11222
T04
X37895Y14561
X37895Y15561
T05
X29584Y14667
X28584Y14667
X27584Y14667
X26584Y14667
X25584Y14667
X24584Y14667
X23584Y14667
X22584Y14667
X16986Y14667
X15986Y14667
X14986Y14667
X13986Y14667
X12986Y14667
X11986Y14667
X10986Y14667
X9986Y14667
X9986Y5218
X10986Y5218
X11986Y5218
X12986Y5218
X13986Y5218
X14986Y5218
X15986Y5218
X16986Y5218
X22584Y5218
X23584Y5218
X24584Y5218
X25584Y5218
X26584Y5218
X27584Y5218
X28584Y5218
X29584Y5218
T06
X24222Y1675
X23222Y1675
X16348Y1675
X15348Y1675
X11517Y8836
X10336Y8836
X9155Y8836
X7974Y8836
X7974Y11124
X9155Y11124
X10336Y11124
X11517Y11124
X16635Y10443
X16635Y9443
T07
X37502Y9076
X37502Y10809
T08
X789Y785
X3349Y785
X4332Y785
X6892Y785
X6892Y2565
X4332Y2565
X3349Y2565
X789Y2565
X9919Y18050
X8919Y18150
X10919Y18150
X11919Y18050
X12919Y18150
X13919Y18050
X14919Y18150
X15919Y18050
X16919Y18150
X17919Y18050
X18919Y18150
X19919Y18050
X20919Y18150
X21919Y18050
X22919Y18150
X23919Y18050
X25313Y18150
X26313Y18050
X27313Y18150
X28313Y18050
X29313Y18150
X30706Y18100
X32678Y18707
X35238Y18707
X36222Y18707
X38782Y18707
X38782Y16927
X36222Y16927
X35238Y16927
X32678Y16927
X36222Y5714
X38782Y5714
X38782Y3934
X38782Y2565
X36222Y2565
X35238Y2565
X36222Y3934
X32678Y2565
X32678Y785
X35238Y785
X36222Y785
X38782Y785
T09
X5336Y17092
X3155Y17092
T10
X35139Y13880
X36714Y13880
T11
X21557Y1675
X19785Y1675
X18013Y1675
T12
X2069Y1675
X2069Y18210
X37502Y17817
X37502Y1675
M30
