G75*
G70*
%OFA0B0*%
%FSLAX24Y24*%
%IPPOS*%
%LPD*%
%AMOC8*
5,1,8,0,0,1.08239X$1,22.5*
%
%ADD10C,0.0000*%
%ADD11C,0.0700*%
%ADD12R,0.0500X0.0220*%
%ADD13R,0.0220X0.0500*%
%ADD14C,0.0500*%
%ADD15C,0.0800*%
%ADD16R,0.0600X0.0600*%
%ADD17OC8,0.0600*%
%ADD18R,0.0860X0.0860*%
%ADD19R,0.0740X0.0740*%
%ADD20C,0.0740*%
%ADD21C,0.0200*%
%ADD22C,0.0240*%
D10*
X000156Y000156D02*
X012755Y000156D01*
X012755Y012755D01*
X000156Y012755D01*
X000156Y000156D01*
X000393Y000944D02*
X000395Y000991D01*
X000401Y001037D01*
X000411Y001083D01*
X000424Y001128D01*
X000442Y001171D01*
X000463Y001213D01*
X000487Y001253D01*
X000515Y001290D01*
X000546Y001325D01*
X000580Y001358D01*
X000616Y001387D01*
X000655Y001413D01*
X000696Y001436D01*
X000739Y001455D01*
X000783Y001471D01*
X000828Y001483D01*
X000874Y001491D01*
X000921Y001495D01*
X000967Y001495D01*
X001014Y001491D01*
X001060Y001483D01*
X001105Y001471D01*
X001149Y001455D01*
X001192Y001436D01*
X001233Y001413D01*
X001272Y001387D01*
X001308Y001358D01*
X001342Y001325D01*
X001373Y001290D01*
X001401Y001253D01*
X001425Y001213D01*
X001446Y001171D01*
X001464Y001128D01*
X001477Y001083D01*
X001487Y001037D01*
X001493Y000991D01*
X001495Y000944D01*
X001493Y000897D01*
X001487Y000851D01*
X001477Y000805D01*
X001464Y000760D01*
X001446Y000717D01*
X001425Y000675D01*
X001401Y000635D01*
X001373Y000598D01*
X001342Y000563D01*
X001308Y000530D01*
X001272Y000501D01*
X001233Y000475D01*
X001192Y000452D01*
X001149Y000433D01*
X001105Y000417D01*
X001060Y000405D01*
X001014Y000397D01*
X000967Y000393D01*
X000921Y000393D01*
X000874Y000397D01*
X000828Y000405D01*
X000783Y000417D01*
X000739Y000433D01*
X000696Y000452D01*
X000655Y000475D01*
X000616Y000501D01*
X000580Y000530D01*
X000546Y000563D01*
X000515Y000598D01*
X000487Y000635D01*
X000463Y000675D01*
X000442Y000717D01*
X000424Y000760D01*
X000411Y000805D01*
X000401Y000851D01*
X000395Y000897D01*
X000393Y000944D01*
X000393Y011967D02*
X000395Y012014D01*
X000401Y012060D01*
X000411Y012106D01*
X000424Y012151D01*
X000442Y012194D01*
X000463Y012236D01*
X000487Y012276D01*
X000515Y012313D01*
X000546Y012348D01*
X000580Y012381D01*
X000616Y012410D01*
X000655Y012436D01*
X000696Y012459D01*
X000739Y012478D01*
X000783Y012494D01*
X000828Y012506D01*
X000874Y012514D01*
X000921Y012518D01*
X000967Y012518D01*
X001014Y012514D01*
X001060Y012506D01*
X001105Y012494D01*
X001149Y012478D01*
X001192Y012459D01*
X001233Y012436D01*
X001272Y012410D01*
X001308Y012381D01*
X001342Y012348D01*
X001373Y012313D01*
X001401Y012276D01*
X001425Y012236D01*
X001446Y012194D01*
X001464Y012151D01*
X001477Y012106D01*
X001487Y012060D01*
X001493Y012014D01*
X001495Y011967D01*
X001493Y011920D01*
X001487Y011874D01*
X001477Y011828D01*
X001464Y011783D01*
X001446Y011740D01*
X001425Y011698D01*
X001401Y011658D01*
X001373Y011621D01*
X001342Y011586D01*
X001308Y011553D01*
X001272Y011524D01*
X001233Y011498D01*
X001192Y011475D01*
X001149Y011456D01*
X001105Y011440D01*
X001060Y011428D01*
X001014Y011420D01*
X000967Y011416D01*
X000921Y011416D01*
X000874Y011420D01*
X000828Y011428D01*
X000783Y011440D01*
X000739Y011456D01*
X000696Y011475D01*
X000655Y011498D01*
X000616Y011524D01*
X000580Y011553D01*
X000546Y011586D01*
X000515Y011621D01*
X000487Y011658D01*
X000463Y011698D01*
X000442Y011740D01*
X000424Y011783D01*
X000411Y011828D01*
X000401Y011874D01*
X000395Y011920D01*
X000393Y011967D01*
X011416Y011967D02*
X011418Y012014D01*
X011424Y012060D01*
X011434Y012106D01*
X011447Y012151D01*
X011465Y012194D01*
X011486Y012236D01*
X011510Y012276D01*
X011538Y012313D01*
X011569Y012348D01*
X011603Y012381D01*
X011639Y012410D01*
X011678Y012436D01*
X011719Y012459D01*
X011762Y012478D01*
X011806Y012494D01*
X011851Y012506D01*
X011897Y012514D01*
X011944Y012518D01*
X011990Y012518D01*
X012037Y012514D01*
X012083Y012506D01*
X012128Y012494D01*
X012172Y012478D01*
X012215Y012459D01*
X012256Y012436D01*
X012295Y012410D01*
X012331Y012381D01*
X012365Y012348D01*
X012396Y012313D01*
X012424Y012276D01*
X012448Y012236D01*
X012469Y012194D01*
X012487Y012151D01*
X012500Y012106D01*
X012510Y012060D01*
X012516Y012014D01*
X012518Y011967D01*
X012516Y011920D01*
X012510Y011874D01*
X012500Y011828D01*
X012487Y011783D01*
X012469Y011740D01*
X012448Y011698D01*
X012424Y011658D01*
X012396Y011621D01*
X012365Y011586D01*
X012331Y011553D01*
X012295Y011524D01*
X012256Y011498D01*
X012215Y011475D01*
X012172Y011456D01*
X012128Y011440D01*
X012083Y011428D01*
X012037Y011420D01*
X011990Y011416D01*
X011944Y011416D01*
X011897Y011420D01*
X011851Y011428D01*
X011806Y011440D01*
X011762Y011456D01*
X011719Y011475D01*
X011678Y011498D01*
X011639Y011524D01*
X011603Y011553D01*
X011569Y011586D01*
X011538Y011621D01*
X011510Y011658D01*
X011486Y011698D01*
X011465Y011740D01*
X011447Y011783D01*
X011434Y011828D01*
X011424Y011874D01*
X011418Y011920D01*
X011416Y011967D01*
X011416Y000944D02*
X011418Y000991D01*
X011424Y001037D01*
X011434Y001083D01*
X011447Y001128D01*
X011465Y001171D01*
X011486Y001213D01*
X011510Y001253D01*
X011538Y001290D01*
X011569Y001325D01*
X011603Y001358D01*
X011639Y001387D01*
X011678Y001413D01*
X011719Y001436D01*
X011762Y001455D01*
X011806Y001471D01*
X011851Y001483D01*
X011897Y001491D01*
X011944Y001495D01*
X011990Y001495D01*
X012037Y001491D01*
X012083Y001483D01*
X012128Y001471D01*
X012172Y001455D01*
X012215Y001436D01*
X012256Y001413D01*
X012295Y001387D01*
X012331Y001358D01*
X012365Y001325D01*
X012396Y001290D01*
X012424Y001253D01*
X012448Y001213D01*
X012469Y001171D01*
X012487Y001128D01*
X012500Y001083D01*
X012510Y001037D01*
X012516Y000991D01*
X012518Y000944D01*
X012516Y000897D01*
X012510Y000851D01*
X012500Y000805D01*
X012487Y000760D01*
X012469Y000717D01*
X012448Y000675D01*
X012424Y000635D01*
X012396Y000598D01*
X012365Y000563D01*
X012331Y000530D01*
X012295Y000501D01*
X012256Y000475D01*
X012215Y000452D01*
X012172Y000433D01*
X012128Y000417D01*
X012083Y000405D01*
X012037Y000397D01*
X011990Y000393D01*
X011944Y000393D01*
X011897Y000397D01*
X011851Y000405D01*
X011806Y000417D01*
X011762Y000433D01*
X011719Y000452D01*
X011678Y000475D01*
X011639Y000501D01*
X011603Y000530D01*
X011569Y000563D01*
X011538Y000598D01*
X011510Y000635D01*
X011486Y000675D01*
X011465Y000717D01*
X011447Y000760D01*
X011434Y000805D01*
X011424Y000851D01*
X011418Y000897D01*
X011416Y000944D01*
D11*
X009956Y001731D03*
X008956Y001731D03*
X007956Y001731D03*
X006956Y001731D03*
X005956Y001731D03*
X004956Y001731D03*
X003956Y001731D03*
X002956Y001731D03*
X002956Y011180D03*
X003956Y011180D03*
X004956Y011180D03*
X005956Y011180D03*
X006956Y011180D03*
X007956Y011180D03*
X008956Y011180D03*
X009956Y011180D03*
D12*
G36*
X006138Y008176D02*
X005786Y008528D01*
X005942Y008684D01*
X006294Y008332D01*
X006138Y008176D01*
G37*
G36*
X005915Y007953D02*
X005563Y008305D01*
X005719Y008461D01*
X006071Y008109D01*
X005915Y007953D01*
G37*
G36*
X005693Y007731D02*
X005341Y008083D01*
X005497Y008239D01*
X005849Y007887D01*
X005693Y007731D01*
G37*
G36*
X005470Y007508D02*
X005118Y007860D01*
X005274Y008016D01*
X005626Y007664D01*
X005470Y007508D01*
G37*
G36*
X005247Y007285D02*
X004895Y007637D01*
X005051Y007793D01*
X005403Y007441D01*
X005247Y007285D01*
G37*
G36*
X005024Y007062D02*
X004672Y007414D01*
X004828Y007570D01*
X005180Y007218D01*
X005024Y007062D01*
G37*
G36*
X004802Y006840D02*
X004450Y007192D01*
X004606Y007348D01*
X004958Y006996D01*
X004802Y006840D01*
G37*
G36*
X004579Y006617D02*
X004227Y006969D01*
X004383Y007125D01*
X004735Y006773D01*
X004579Y006617D01*
G37*
G36*
X006969Y004227D02*
X006617Y004579D01*
X006773Y004735D01*
X007125Y004383D01*
X006969Y004227D01*
G37*
G36*
X007192Y004450D02*
X006840Y004802D01*
X006996Y004958D01*
X007348Y004606D01*
X007192Y004450D01*
G37*
G36*
X007414Y004672D02*
X007062Y005024D01*
X007218Y005180D01*
X007570Y004828D01*
X007414Y004672D01*
G37*
G36*
X007637Y004895D02*
X007285Y005247D01*
X007441Y005403D01*
X007793Y005051D01*
X007637Y004895D01*
G37*
G36*
X007860Y005118D02*
X007508Y005470D01*
X007664Y005626D01*
X008016Y005274D01*
X007860Y005118D01*
G37*
G36*
X008083Y005341D02*
X007731Y005693D01*
X007887Y005849D01*
X008239Y005497D01*
X008083Y005341D01*
G37*
G36*
X008305Y005563D02*
X007953Y005915D01*
X008109Y006071D01*
X008461Y005719D01*
X008305Y005563D01*
G37*
G36*
X008528Y005786D02*
X008176Y006138D01*
X008332Y006294D01*
X008684Y005942D01*
X008528Y005786D01*
G37*
D13*
G36*
X008332Y006617D02*
X008176Y006773D01*
X008528Y007125D01*
X008684Y006969D01*
X008332Y006617D01*
G37*
G36*
X008109Y006840D02*
X007953Y006996D01*
X008305Y007348D01*
X008461Y007192D01*
X008109Y006840D01*
G37*
G36*
X007887Y007062D02*
X007731Y007218D01*
X008083Y007570D01*
X008239Y007414D01*
X007887Y007062D01*
G37*
G36*
X007664Y007285D02*
X007508Y007441D01*
X007860Y007793D01*
X008016Y007637D01*
X007664Y007285D01*
G37*
G36*
X007441Y007508D02*
X007285Y007664D01*
X007637Y008016D01*
X007793Y007860D01*
X007441Y007508D01*
G37*
G36*
X007218Y007731D02*
X007062Y007887D01*
X007414Y008239D01*
X007570Y008083D01*
X007218Y007731D01*
G37*
G36*
X006996Y007953D02*
X006840Y008109D01*
X007192Y008461D01*
X007348Y008305D01*
X006996Y007953D01*
G37*
G36*
X006773Y008176D02*
X006617Y008332D01*
X006969Y008684D01*
X007125Y008528D01*
X006773Y008176D01*
G37*
G36*
X004383Y005786D02*
X004227Y005942D01*
X004579Y006294D01*
X004735Y006138D01*
X004383Y005786D01*
G37*
G36*
X004606Y005563D02*
X004450Y005719D01*
X004802Y006071D01*
X004958Y005915D01*
X004606Y005563D01*
G37*
G36*
X004828Y005341D02*
X004672Y005497D01*
X005024Y005849D01*
X005180Y005693D01*
X004828Y005341D01*
G37*
G36*
X005051Y005118D02*
X004895Y005274D01*
X005247Y005626D01*
X005403Y005470D01*
X005051Y005118D01*
G37*
G36*
X005274Y004895D02*
X005118Y005051D01*
X005470Y005403D01*
X005626Y005247D01*
X005274Y004895D01*
G37*
G36*
X005497Y004672D02*
X005341Y004828D01*
X005693Y005180D01*
X005849Y005024D01*
X005497Y004672D01*
G37*
G36*
X005719Y004450D02*
X005563Y004606D01*
X005915Y004958D01*
X006071Y004802D01*
X005719Y004450D01*
G37*
G36*
X005942Y004227D02*
X005786Y004383D01*
X006138Y004735D01*
X006294Y004579D01*
X005942Y004227D01*
G37*
D14*
X005471Y010097D03*
X002912Y010097D03*
D15*
X008858Y010097D03*
X009958Y010097D03*
D16*
X002412Y005456D03*
D17*
X002412Y006456D03*
X002412Y007456D03*
X003412Y007456D03*
X003412Y006456D03*
X003412Y005456D03*
D18*
X000550Y005456D03*
X000550Y006456D03*
X000550Y007456D03*
X000550Y008456D03*
X004456Y012361D03*
X005456Y012361D03*
X006456Y012361D03*
X007456Y012361D03*
X008456Y012361D03*
X012361Y008456D03*
X012361Y007456D03*
X012361Y006456D03*
X012361Y005456D03*
X012361Y004456D03*
X008456Y000550D03*
X007456Y000550D03*
X006456Y000550D03*
X005456Y000550D03*
X004456Y000550D03*
X000550Y004456D03*
D19*
X010364Y004959D03*
D20*
X010264Y005959D03*
X010364Y006959D03*
X010264Y007959D03*
X007456Y010097D03*
X006456Y010097D03*
D21*
X006160Y009802D01*
X006160Y009763D01*
X004428Y008030D01*
X004428Y007873D01*
X004704Y007715D02*
X004979Y007991D01*
X004920Y008070D01*
X004920Y008089D01*
X004979Y007991D02*
X005137Y007991D01*
X005353Y007774D01*
X005372Y007762D01*
X005156Y007538D02*
X005149Y007539D01*
X005156Y007538D02*
X005452Y007243D01*
X005530Y007322D01*
X005550Y007322D01*
X005698Y007469D01*
X006081Y007085D01*
X005698Y007469D02*
X005826Y007597D01*
X005826Y007755D01*
X005609Y007971D01*
X005595Y007985D01*
X005806Y008207D02*
X005817Y008207D01*
X005806Y008207D02*
X005491Y008522D01*
X006042Y008444D02*
X006040Y008430D01*
X006042Y008444D02*
X006042Y009211D01*
X006121Y009290D01*
X006652Y008660D02*
X006869Y008444D01*
X006871Y008430D01*
X007094Y008207D02*
X007105Y008207D01*
X007125Y008207D01*
X007381Y008463D01*
X007440Y008463D01*
X007479Y008503D01*
X007853Y008503D01*
X007873Y008522D01*
X008306Y008522D01*
X008621Y008404D02*
X008621Y009507D01*
X008011Y010117D01*
X008011Y010235D01*
X008956Y011180D01*
X009448Y011593D02*
X009900Y011141D01*
X009940Y011180D01*
X009956Y011180D01*
X009763Y011731D02*
X009959Y011928D01*
X010550Y011337D01*
X010550Y009861D01*
X008660Y007971D01*
X008660Y007125D01*
X008444Y006908D01*
X008444Y006889D01*
X008430Y006871D01*
X008188Y007046D02*
X007814Y006672D01*
X007676Y006987D02*
X007971Y007282D01*
X007971Y007302D01*
X007985Y007316D01*
X008188Y007085D02*
X008207Y007094D01*
X008188Y007085D02*
X008188Y007046D01*
X007762Y007539D02*
X007774Y007558D01*
X008621Y008404D01*
X008956Y007853D02*
X010806Y009704D01*
X010806Y009743D01*
X010845Y009782D01*
X010845Y011475D01*
X009959Y012361D01*
X009448Y011849D01*
X009448Y011593D01*
X007456Y012361D02*
X007440Y012361D01*
X007066Y011987D01*
X007066Y011849D01*
X006928Y011711D01*
X005983Y011711D01*
X005471Y012223D01*
X005471Y012361D01*
X005456Y012361D01*
X005944Y011180D02*
X005956Y011180D01*
X005944Y011180D02*
X005019Y010255D01*
X005471Y010097D02*
X005038Y009664D01*
X005038Y009487D01*
X004940Y009448D01*
X003444Y007952D01*
X003227Y007952D01*
X002735Y007459D01*
X002420Y007459D01*
X002412Y007456D01*
X002223Y006948D02*
X002912Y006948D01*
X003404Y007440D01*
X003412Y007456D01*
X003896Y007459D02*
X003896Y007912D01*
X005904Y009920D01*
X005904Y010333D01*
X006219Y010648D01*
X006416Y010648D01*
X006948Y011180D01*
X006956Y011180D01*
X007558Y008207D02*
X007991Y008207D01*
X007558Y008207D02*
X007341Y007991D01*
X007322Y007991D01*
X007316Y007985D01*
X007519Y007755D02*
X007302Y007538D01*
X006908Y007538D01*
X006593Y007676D02*
X006593Y007243D01*
X006593Y007676D02*
X006790Y007873D01*
X007046Y007223D02*
X006593Y006770D01*
X005078Y006770D01*
X005058Y006751D01*
X004723Y007085D01*
X004704Y007094D01*
X004467Y006889D02*
X004481Y006871D01*
X004467Y006889D02*
X003896Y007459D01*
X004625Y007617D02*
X004704Y007696D01*
X004704Y007715D01*
X004625Y007617D02*
X004920Y007322D01*
X004926Y007316D01*
X005235Y006475D02*
X005215Y006456D01*
X005235Y006475D02*
X006672Y006475D01*
X006711Y006515D01*
X006751Y006515D01*
X007125Y006889D01*
X008188Y005826D01*
X008207Y005817D01*
X008444Y006022D02*
X008430Y006040D01*
X008444Y006022D02*
X009782Y004684D01*
X009625Y004526D01*
X009625Y003227D01*
X009585Y003188D01*
X009684Y002873D02*
X009704Y002873D01*
X011180Y004349D01*
X011180Y004389D01*
X011751Y004959D01*
X011751Y004979D01*
X011849Y005078D01*
X011987Y005078D01*
X012361Y005452D01*
X012361Y005456D01*
X011987Y006081D02*
X011869Y006081D01*
X010924Y005137D01*
X010924Y004507D01*
X010806Y004389D01*
X009940Y004389D01*
X010364Y004959D02*
X010373Y004959D01*
X010373Y005274D01*
X010826Y005727D01*
X010826Y006042D01*
X011849Y007066D01*
X011987Y007066D01*
X012361Y007440D01*
X012361Y007456D01*
X011751Y007971D02*
X011849Y008070D01*
X011987Y008070D01*
X012361Y008444D01*
X012361Y008456D01*
X011751Y007971D02*
X010274Y007971D01*
X010264Y007959D01*
X008956Y007853D02*
X008956Y007046D01*
X008916Y007007D01*
X008916Y006967D01*
X008896Y006948D01*
X008896Y006889D01*
X007656Y005924D02*
X007971Y005609D01*
X007985Y005595D01*
X007762Y005372D02*
X007774Y005353D01*
X008089Y005038D01*
X007755Y004940D02*
X007558Y005137D01*
X007539Y005149D01*
X007479Y005235D01*
X007223Y005491D01*
X006869Y005373D02*
X007302Y004940D01*
X007316Y004926D01*
X007105Y004704D02*
X007094Y004704D01*
X007105Y004704D02*
X007400Y004408D01*
X007479Y004487D01*
X007499Y004487D01*
X007666Y004654D01*
X009566Y002755D01*
X009684Y002873D01*
X009408Y002263D02*
X009093Y002263D01*
X006889Y004467D01*
X006871Y004481D01*
X006849Y004369D01*
X005137Y002656D01*
X005137Y002617D01*
X004467Y002833D02*
X004467Y003522D01*
X004546Y003601D01*
X004546Y004743D01*
X005137Y005333D01*
X005137Y005353D01*
X005149Y005372D01*
X004920Y005570D02*
X004270Y004920D01*
X004270Y004861D01*
X004231Y004822D01*
X004231Y003877D01*
X003837Y003483D01*
X003759Y003857D02*
X003050Y003148D01*
X003050Y002833D01*
X002735Y002519D01*
X002735Y001948D01*
X002952Y001731D01*
X002956Y001731D01*
X002715Y001200D02*
X000570Y003345D01*
X001160Y003936D01*
X001160Y004861D01*
X001180Y004959D01*
X000609Y005530D01*
X000550Y005471D01*
X000550Y005456D01*
X001180Y004959D02*
X002774Y004959D01*
X003267Y005452D01*
X003404Y005452D01*
X003412Y005456D01*
X003837Y004920D02*
X003837Y004861D01*
X003798Y004822D01*
X003798Y004763D01*
X003759Y004723D01*
X003759Y003857D01*
X004782Y003404D02*
X005058Y003404D01*
X005432Y003778D01*
X005432Y003837D01*
X005983Y004389D01*
X006040Y004481D01*
X006042Y004467D01*
X006219Y004467D01*
X006357Y004330D01*
X005817Y004704D02*
X005806Y004704D01*
X005491Y004389D01*
X005176Y004507D02*
X005176Y003956D01*
X004940Y003719D01*
X005176Y004507D02*
X005589Y004920D01*
X005595Y004926D01*
X005353Y005097D02*
X004861Y004605D01*
X005353Y005097D02*
X005353Y005137D01*
X005372Y005149D01*
X004920Y005570D02*
X004920Y005589D01*
X004926Y005595D01*
X004704Y005786D02*
X003837Y004920D01*
X004704Y005786D02*
X004704Y005806D01*
X004704Y005817D01*
X004481Y006040D02*
X004467Y006042D01*
X004251Y006259D01*
X002223Y006948D02*
X001298Y006022D01*
X001298Y005274D01*
X000550Y006456D02*
X000924Y006830D01*
X001042Y006830D01*
X002479Y008267D01*
X003286Y008267D01*
X002912Y009684D02*
X001062Y007833D01*
X000924Y007833D01*
X000550Y007459D01*
X000550Y007456D01*
X001593Y008818D02*
X001593Y009822D01*
X002952Y011180D01*
X002956Y011180D01*
X002912Y010097D02*
X002912Y009684D01*
X007519Y007755D02*
X007538Y007755D01*
X007539Y007762D01*
X007755Y004940D02*
X007755Y004743D01*
X007666Y004654D01*
X006003Y003089D02*
X006003Y001770D01*
X005963Y001731D01*
X005956Y001731D01*
X006830Y001042D02*
X006830Y000924D01*
X006456Y000550D01*
X006830Y001042D02*
X006967Y001180D01*
X009723Y001180D01*
X009940Y001731D02*
X009956Y001731D01*
X009940Y001731D02*
X009408Y002263D01*
X010491Y002578D02*
X010491Y001515D01*
X009526Y000550D01*
X008456Y000550D01*
X010491Y002578D02*
X012361Y004448D01*
X012361Y004456D01*
X011987Y006081D02*
X012361Y006456D01*
X005452Y000688D02*
X005452Y000550D01*
X005456Y000550D01*
X005452Y000688D02*
X004940Y001200D01*
X002715Y001200D01*
D22*
X004467Y002833D03*
X004782Y003404D03*
X004940Y003719D03*
X005491Y004389D03*
X004861Y004605D03*
X003837Y003483D03*
X005137Y002617D03*
X006003Y003089D03*
X006357Y004330D03*
X006869Y005373D03*
X007223Y005491D03*
X007656Y005924D03*
X007814Y006672D03*
X007676Y006987D03*
X007046Y007223D03*
X006908Y007538D03*
X006790Y007873D03*
X006593Y007243D03*
X006081Y007085D03*
X005215Y006456D03*
X004251Y006259D03*
X004428Y007873D03*
X004920Y008089D03*
X005491Y008522D03*
X006121Y009290D03*
X006652Y008660D03*
X007991Y008207D03*
X008306Y008522D03*
X008896Y006889D03*
X008089Y005038D03*
X009940Y004389D03*
X009585Y003188D03*
X009723Y001180D03*
X003286Y008267D03*
X001593Y008818D03*
X005019Y010255D03*
X005038Y009487D03*
X001298Y005274D03*
X009763Y011731D03*
M02*
