G75*
G70*
%OFA0B0*%
%FSLAX24Y24*%
%IPPOS*%
%LPD*%
%AMOC8*
5,1,8,0,0,1.08239X$1,22.5*
%
%ADD10C,0.0000*%
%ADD11C,0.1142*%
%ADD12C,0.0740*%
%ADD13C,0.0540*%
%ADD14C,0.0050*%
%ADD15R,0.0640X0.0640*%
%ADD16OC8,0.0640*%
%ADD17R,0.0900X0.0900*%
%ADD18R,0.0780X0.0780*%
%ADD19C,0.0780*%
D10*
X000156Y000156D02*
X012755Y000156D01*
X012755Y012755D01*
X000156Y012755D01*
X000156Y000156D01*
X000393Y000944D02*
X000395Y000991D01*
X000401Y001037D01*
X000411Y001083D01*
X000424Y001128D01*
X000442Y001171D01*
X000463Y001213D01*
X000487Y001253D01*
X000515Y001290D01*
X000546Y001325D01*
X000580Y001358D01*
X000616Y001387D01*
X000655Y001413D01*
X000696Y001436D01*
X000739Y001455D01*
X000783Y001471D01*
X000828Y001483D01*
X000874Y001491D01*
X000921Y001495D01*
X000967Y001495D01*
X001014Y001491D01*
X001060Y001483D01*
X001105Y001471D01*
X001149Y001455D01*
X001192Y001436D01*
X001233Y001413D01*
X001272Y001387D01*
X001308Y001358D01*
X001342Y001325D01*
X001373Y001290D01*
X001401Y001253D01*
X001425Y001213D01*
X001446Y001171D01*
X001464Y001128D01*
X001477Y001083D01*
X001487Y001037D01*
X001493Y000991D01*
X001495Y000944D01*
X001493Y000897D01*
X001487Y000851D01*
X001477Y000805D01*
X001464Y000760D01*
X001446Y000717D01*
X001425Y000675D01*
X001401Y000635D01*
X001373Y000598D01*
X001342Y000563D01*
X001308Y000530D01*
X001272Y000501D01*
X001233Y000475D01*
X001192Y000452D01*
X001149Y000433D01*
X001105Y000417D01*
X001060Y000405D01*
X001014Y000397D01*
X000967Y000393D01*
X000921Y000393D01*
X000874Y000397D01*
X000828Y000405D01*
X000783Y000417D01*
X000739Y000433D01*
X000696Y000452D01*
X000655Y000475D01*
X000616Y000501D01*
X000580Y000530D01*
X000546Y000563D01*
X000515Y000598D01*
X000487Y000635D01*
X000463Y000675D01*
X000442Y000717D01*
X000424Y000760D01*
X000411Y000805D01*
X000401Y000851D01*
X000395Y000897D01*
X000393Y000944D01*
X000393Y011967D02*
X000395Y012014D01*
X000401Y012060D01*
X000411Y012106D01*
X000424Y012151D01*
X000442Y012194D01*
X000463Y012236D01*
X000487Y012276D01*
X000515Y012313D01*
X000546Y012348D01*
X000580Y012381D01*
X000616Y012410D01*
X000655Y012436D01*
X000696Y012459D01*
X000739Y012478D01*
X000783Y012494D01*
X000828Y012506D01*
X000874Y012514D01*
X000921Y012518D01*
X000967Y012518D01*
X001014Y012514D01*
X001060Y012506D01*
X001105Y012494D01*
X001149Y012478D01*
X001192Y012459D01*
X001233Y012436D01*
X001272Y012410D01*
X001308Y012381D01*
X001342Y012348D01*
X001373Y012313D01*
X001401Y012276D01*
X001425Y012236D01*
X001446Y012194D01*
X001464Y012151D01*
X001477Y012106D01*
X001487Y012060D01*
X001493Y012014D01*
X001495Y011967D01*
X001493Y011920D01*
X001487Y011874D01*
X001477Y011828D01*
X001464Y011783D01*
X001446Y011740D01*
X001425Y011698D01*
X001401Y011658D01*
X001373Y011621D01*
X001342Y011586D01*
X001308Y011553D01*
X001272Y011524D01*
X001233Y011498D01*
X001192Y011475D01*
X001149Y011456D01*
X001105Y011440D01*
X001060Y011428D01*
X001014Y011420D01*
X000967Y011416D01*
X000921Y011416D01*
X000874Y011420D01*
X000828Y011428D01*
X000783Y011440D01*
X000739Y011456D01*
X000696Y011475D01*
X000655Y011498D01*
X000616Y011524D01*
X000580Y011553D01*
X000546Y011586D01*
X000515Y011621D01*
X000487Y011658D01*
X000463Y011698D01*
X000442Y011740D01*
X000424Y011783D01*
X000411Y011828D01*
X000401Y011874D01*
X000395Y011920D01*
X000393Y011967D01*
X011416Y011967D02*
X011418Y012014D01*
X011424Y012060D01*
X011434Y012106D01*
X011447Y012151D01*
X011465Y012194D01*
X011486Y012236D01*
X011510Y012276D01*
X011538Y012313D01*
X011569Y012348D01*
X011603Y012381D01*
X011639Y012410D01*
X011678Y012436D01*
X011719Y012459D01*
X011762Y012478D01*
X011806Y012494D01*
X011851Y012506D01*
X011897Y012514D01*
X011944Y012518D01*
X011990Y012518D01*
X012037Y012514D01*
X012083Y012506D01*
X012128Y012494D01*
X012172Y012478D01*
X012215Y012459D01*
X012256Y012436D01*
X012295Y012410D01*
X012331Y012381D01*
X012365Y012348D01*
X012396Y012313D01*
X012424Y012276D01*
X012448Y012236D01*
X012469Y012194D01*
X012487Y012151D01*
X012500Y012106D01*
X012510Y012060D01*
X012516Y012014D01*
X012518Y011967D01*
X012516Y011920D01*
X012510Y011874D01*
X012500Y011828D01*
X012487Y011783D01*
X012469Y011740D01*
X012448Y011698D01*
X012424Y011658D01*
X012396Y011621D01*
X012365Y011586D01*
X012331Y011553D01*
X012295Y011524D01*
X012256Y011498D01*
X012215Y011475D01*
X012172Y011456D01*
X012128Y011440D01*
X012083Y011428D01*
X012037Y011420D01*
X011990Y011416D01*
X011944Y011416D01*
X011897Y011420D01*
X011851Y011428D01*
X011806Y011440D01*
X011762Y011456D01*
X011719Y011475D01*
X011678Y011498D01*
X011639Y011524D01*
X011603Y011553D01*
X011569Y011586D01*
X011538Y011621D01*
X011510Y011658D01*
X011486Y011698D01*
X011465Y011740D01*
X011447Y011783D01*
X011434Y011828D01*
X011424Y011874D01*
X011418Y011920D01*
X011416Y011967D01*
X011416Y000944D02*
X011418Y000991D01*
X011424Y001037D01*
X011434Y001083D01*
X011447Y001128D01*
X011465Y001171D01*
X011486Y001213D01*
X011510Y001253D01*
X011538Y001290D01*
X011569Y001325D01*
X011603Y001358D01*
X011639Y001387D01*
X011678Y001413D01*
X011719Y001436D01*
X011762Y001455D01*
X011806Y001471D01*
X011851Y001483D01*
X011897Y001491D01*
X011944Y001495D01*
X011990Y001495D01*
X012037Y001491D01*
X012083Y001483D01*
X012128Y001471D01*
X012172Y001455D01*
X012215Y001436D01*
X012256Y001413D01*
X012295Y001387D01*
X012331Y001358D01*
X012365Y001325D01*
X012396Y001290D01*
X012424Y001253D01*
X012448Y001213D01*
X012469Y001171D01*
X012487Y001128D01*
X012500Y001083D01*
X012510Y001037D01*
X012516Y000991D01*
X012518Y000944D01*
X012516Y000897D01*
X012510Y000851D01*
X012500Y000805D01*
X012487Y000760D01*
X012469Y000717D01*
X012448Y000675D01*
X012424Y000635D01*
X012396Y000598D01*
X012365Y000563D01*
X012331Y000530D01*
X012295Y000501D01*
X012256Y000475D01*
X012215Y000452D01*
X012172Y000433D01*
X012128Y000417D01*
X012083Y000405D01*
X012037Y000397D01*
X011990Y000393D01*
X011944Y000393D01*
X011897Y000397D01*
X011851Y000405D01*
X011806Y000417D01*
X011762Y000433D01*
X011719Y000452D01*
X011678Y000475D01*
X011639Y000501D01*
X011603Y000530D01*
X011569Y000563D01*
X011538Y000598D01*
X011510Y000635D01*
X011486Y000675D01*
X011465Y000717D01*
X011447Y000760D01*
X011434Y000805D01*
X011424Y000851D01*
X011418Y000897D01*
X011416Y000944D01*
D11*
X011967Y000944D03*
X000944Y000944D03*
X000944Y011967D03*
X011967Y011967D03*
D12*
X009956Y011180D03*
X008956Y011180D03*
X007956Y011180D03*
X006956Y011180D03*
X005956Y011180D03*
X004956Y011180D03*
X003956Y011180D03*
X002956Y011180D03*
X002956Y001731D03*
X003956Y001731D03*
X004956Y001731D03*
X005956Y001731D03*
X006956Y001731D03*
X007956Y001731D03*
X008956Y001731D03*
X009956Y001731D03*
D13*
X005471Y010097D03*
X002912Y010097D03*
D14*
X008485Y010105D02*
X008490Y010039D01*
X008506Y009975D01*
X008533Y009915D01*
X008570Y009860D01*
X008617Y009813D01*
X008670Y009774D01*
X008730Y009745D01*
X008793Y009727D01*
X008859Y009720D01*
X008925Y009727D01*
X008989Y009745D01*
X009048Y009773D01*
X009102Y009812D01*
X009148Y009859D01*
X009186Y009914D01*
X009213Y009974D01*
X009229Y010038D01*
X009234Y010104D01*
X009228Y010169D01*
X009210Y010231D01*
X009182Y010289D01*
X009144Y010342D01*
X009098Y010387D01*
X009044Y010423D01*
X008985Y010450D01*
X008923Y010466D01*
X008858Y010470D01*
X008786Y010464D01*
X008717Y010444D01*
X008653Y010410D01*
X008596Y010365D01*
X008550Y010310D01*
X008515Y010246D01*
X008493Y010177D01*
X008485Y010105D01*
X008486Y010099D02*
X009234Y010099D01*
X009230Y010147D02*
X008490Y010147D01*
X008499Y010196D02*
X009220Y010196D01*
X009204Y010244D02*
X008514Y010244D01*
X008540Y010293D02*
X009179Y010293D01*
X009144Y010341D02*
X008576Y010341D01*
X008627Y010390D02*
X009093Y010390D01*
X009010Y010438D02*
X008706Y010438D01*
X008489Y010050D02*
X009230Y010050D01*
X009220Y010002D02*
X008499Y010002D01*
X008516Y009953D02*
X009203Y009953D01*
X009179Y009905D02*
X008540Y009905D01*
X008574Y009856D02*
X009146Y009856D01*
X009096Y009808D02*
X008623Y009808D01*
X008700Y009759D02*
X009019Y009759D01*
X009608Y009975D02*
X009635Y009915D01*
X009672Y009860D01*
X009719Y009813D01*
X009772Y009774D01*
X009832Y009745D01*
X009895Y009727D01*
X009961Y009720D01*
X010027Y009727D01*
X010091Y009745D01*
X010150Y009773D01*
X010204Y009812D01*
X010250Y009859D01*
X010288Y009914D01*
X010315Y009974D01*
X010331Y010038D01*
X010336Y010104D01*
X010330Y010169D01*
X010312Y010231D01*
X010284Y010289D01*
X010246Y010342D01*
X010200Y010387D01*
X010146Y010423D01*
X010087Y010450D01*
X010025Y010466D01*
X009960Y010470D01*
X009888Y010464D01*
X009819Y010444D01*
X009755Y010410D01*
X009698Y010365D01*
X009652Y010310D01*
X009617Y010246D01*
X009595Y010177D01*
X009587Y010105D01*
X009592Y010039D01*
X009608Y009975D01*
X009618Y009953D02*
X010305Y009953D01*
X010322Y010002D02*
X009602Y010002D01*
X009591Y010050D02*
X010332Y010050D01*
X010336Y010099D02*
X009588Y010099D01*
X009592Y010147D02*
X010332Y010147D01*
X010322Y010196D02*
X009601Y010196D01*
X009616Y010244D02*
X010306Y010244D01*
X010281Y010293D02*
X009642Y010293D01*
X009678Y010341D02*
X010246Y010341D01*
X010195Y010390D02*
X009729Y010390D01*
X009808Y010438D02*
X010112Y010438D01*
X010281Y009905D02*
X009642Y009905D01*
X009676Y009856D02*
X010248Y009856D01*
X010198Y009808D02*
X009725Y009808D01*
X009802Y009759D02*
X010121Y009759D01*
D15*
X002412Y005456D03*
D16*
X002412Y006456D03*
X002412Y007456D03*
X003412Y007456D03*
X003412Y006456D03*
X003412Y005456D03*
D17*
X000550Y005456D03*
X000550Y006456D03*
X000550Y007456D03*
X000550Y008456D03*
X004456Y012361D03*
X005456Y012361D03*
X006456Y012361D03*
X007456Y012361D03*
X008456Y012361D03*
X012361Y008456D03*
X012361Y007456D03*
X012361Y006456D03*
X012361Y005456D03*
X012361Y004456D03*
X008456Y000550D03*
X007456Y000550D03*
X006456Y000550D03*
X005456Y000550D03*
X004456Y000550D03*
X000550Y004456D03*
D18*
X010364Y004959D03*
D19*
X010264Y005959D03*
X010364Y006959D03*
X010264Y007959D03*
X007456Y010097D03*
X006456Y010097D03*
M02*
