G75*
G70*
%OFA0B0*%
%FSLAX24Y24*%
%IPPOS*%
%LPD*%
%AMOC8*
5,1,8,0,0,1.08239X$1,22.5*
%
%ADD10C,0.0000*%
%ADD11C,0.1142*%
%ADD12C,0.0740*%
%ADD13R,0.0540X0.0260*%
%ADD14R,0.0260X0.0540*%
%ADD15C,0.0540*%
%ADD16C,0.0050*%
%ADD17R,0.0640X0.0640*%
%ADD18OC8,0.0640*%
%ADD19R,0.0900X0.0900*%
%ADD20R,0.0780X0.0780*%
%ADD21C,0.0780*%
D10*
X000156Y000156D02*
X012755Y000156D01*
X012755Y012755D01*
X000156Y012755D01*
X000156Y000156D01*
X000393Y000944D02*
X000395Y000991D01*
X000401Y001037D01*
X000411Y001083D01*
X000424Y001128D01*
X000442Y001171D01*
X000463Y001213D01*
X000487Y001253D01*
X000515Y001290D01*
X000546Y001325D01*
X000580Y001358D01*
X000616Y001387D01*
X000655Y001413D01*
X000696Y001436D01*
X000739Y001455D01*
X000783Y001471D01*
X000828Y001483D01*
X000874Y001491D01*
X000921Y001495D01*
X000967Y001495D01*
X001014Y001491D01*
X001060Y001483D01*
X001105Y001471D01*
X001149Y001455D01*
X001192Y001436D01*
X001233Y001413D01*
X001272Y001387D01*
X001308Y001358D01*
X001342Y001325D01*
X001373Y001290D01*
X001401Y001253D01*
X001425Y001213D01*
X001446Y001171D01*
X001464Y001128D01*
X001477Y001083D01*
X001487Y001037D01*
X001493Y000991D01*
X001495Y000944D01*
X001493Y000897D01*
X001487Y000851D01*
X001477Y000805D01*
X001464Y000760D01*
X001446Y000717D01*
X001425Y000675D01*
X001401Y000635D01*
X001373Y000598D01*
X001342Y000563D01*
X001308Y000530D01*
X001272Y000501D01*
X001233Y000475D01*
X001192Y000452D01*
X001149Y000433D01*
X001105Y000417D01*
X001060Y000405D01*
X001014Y000397D01*
X000967Y000393D01*
X000921Y000393D01*
X000874Y000397D01*
X000828Y000405D01*
X000783Y000417D01*
X000739Y000433D01*
X000696Y000452D01*
X000655Y000475D01*
X000616Y000501D01*
X000580Y000530D01*
X000546Y000563D01*
X000515Y000598D01*
X000487Y000635D01*
X000463Y000675D01*
X000442Y000717D01*
X000424Y000760D01*
X000411Y000805D01*
X000401Y000851D01*
X000395Y000897D01*
X000393Y000944D01*
X000393Y011967D02*
X000395Y012014D01*
X000401Y012060D01*
X000411Y012106D01*
X000424Y012151D01*
X000442Y012194D01*
X000463Y012236D01*
X000487Y012276D01*
X000515Y012313D01*
X000546Y012348D01*
X000580Y012381D01*
X000616Y012410D01*
X000655Y012436D01*
X000696Y012459D01*
X000739Y012478D01*
X000783Y012494D01*
X000828Y012506D01*
X000874Y012514D01*
X000921Y012518D01*
X000967Y012518D01*
X001014Y012514D01*
X001060Y012506D01*
X001105Y012494D01*
X001149Y012478D01*
X001192Y012459D01*
X001233Y012436D01*
X001272Y012410D01*
X001308Y012381D01*
X001342Y012348D01*
X001373Y012313D01*
X001401Y012276D01*
X001425Y012236D01*
X001446Y012194D01*
X001464Y012151D01*
X001477Y012106D01*
X001487Y012060D01*
X001493Y012014D01*
X001495Y011967D01*
X001493Y011920D01*
X001487Y011874D01*
X001477Y011828D01*
X001464Y011783D01*
X001446Y011740D01*
X001425Y011698D01*
X001401Y011658D01*
X001373Y011621D01*
X001342Y011586D01*
X001308Y011553D01*
X001272Y011524D01*
X001233Y011498D01*
X001192Y011475D01*
X001149Y011456D01*
X001105Y011440D01*
X001060Y011428D01*
X001014Y011420D01*
X000967Y011416D01*
X000921Y011416D01*
X000874Y011420D01*
X000828Y011428D01*
X000783Y011440D01*
X000739Y011456D01*
X000696Y011475D01*
X000655Y011498D01*
X000616Y011524D01*
X000580Y011553D01*
X000546Y011586D01*
X000515Y011621D01*
X000487Y011658D01*
X000463Y011698D01*
X000442Y011740D01*
X000424Y011783D01*
X000411Y011828D01*
X000401Y011874D01*
X000395Y011920D01*
X000393Y011967D01*
X011416Y011967D02*
X011418Y012014D01*
X011424Y012060D01*
X011434Y012106D01*
X011447Y012151D01*
X011465Y012194D01*
X011486Y012236D01*
X011510Y012276D01*
X011538Y012313D01*
X011569Y012348D01*
X011603Y012381D01*
X011639Y012410D01*
X011678Y012436D01*
X011719Y012459D01*
X011762Y012478D01*
X011806Y012494D01*
X011851Y012506D01*
X011897Y012514D01*
X011944Y012518D01*
X011990Y012518D01*
X012037Y012514D01*
X012083Y012506D01*
X012128Y012494D01*
X012172Y012478D01*
X012215Y012459D01*
X012256Y012436D01*
X012295Y012410D01*
X012331Y012381D01*
X012365Y012348D01*
X012396Y012313D01*
X012424Y012276D01*
X012448Y012236D01*
X012469Y012194D01*
X012487Y012151D01*
X012500Y012106D01*
X012510Y012060D01*
X012516Y012014D01*
X012518Y011967D01*
X012516Y011920D01*
X012510Y011874D01*
X012500Y011828D01*
X012487Y011783D01*
X012469Y011740D01*
X012448Y011698D01*
X012424Y011658D01*
X012396Y011621D01*
X012365Y011586D01*
X012331Y011553D01*
X012295Y011524D01*
X012256Y011498D01*
X012215Y011475D01*
X012172Y011456D01*
X012128Y011440D01*
X012083Y011428D01*
X012037Y011420D01*
X011990Y011416D01*
X011944Y011416D01*
X011897Y011420D01*
X011851Y011428D01*
X011806Y011440D01*
X011762Y011456D01*
X011719Y011475D01*
X011678Y011498D01*
X011639Y011524D01*
X011603Y011553D01*
X011569Y011586D01*
X011538Y011621D01*
X011510Y011658D01*
X011486Y011698D01*
X011465Y011740D01*
X011447Y011783D01*
X011434Y011828D01*
X011424Y011874D01*
X011418Y011920D01*
X011416Y011967D01*
X011416Y000944D02*
X011418Y000991D01*
X011424Y001037D01*
X011434Y001083D01*
X011447Y001128D01*
X011465Y001171D01*
X011486Y001213D01*
X011510Y001253D01*
X011538Y001290D01*
X011569Y001325D01*
X011603Y001358D01*
X011639Y001387D01*
X011678Y001413D01*
X011719Y001436D01*
X011762Y001455D01*
X011806Y001471D01*
X011851Y001483D01*
X011897Y001491D01*
X011944Y001495D01*
X011990Y001495D01*
X012037Y001491D01*
X012083Y001483D01*
X012128Y001471D01*
X012172Y001455D01*
X012215Y001436D01*
X012256Y001413D01*
X012295Y001387D01*
X012331Y001358D01*
X012365Y001325D01*
X012396Y001290D01*
X012424Y001253D01*
X012448Y001213D01*
X012469Y001171D01*
X012487Y001128D01*
X012500Y001083D01*
X012510Y001037D01*
X012516Y000991D01*
X012518Y000944D01*
X012516Y000897D01*
X012510Y000851D01*
X012500Y000805D01*
X012487Y000760D01*
X012469Y000717D01*
X012448Y000675D01*
X012424Y000635D01*
X012396Y000598D01*
X012365Y000563D01*
X012331Y000530D01*
X012295Y000501D01*
X012256Y000475D01*
X012215Y000452D01*
X012172Y000433D01*
X012128Y000417D01*
X012083Y000405D01*
X012037Y000397D01*
X011990Y000393D01*
X011944Y000393D01*
X011897Y000397D01*
X011851Y000405D01*
X011806Y000417D01*
X011762Y000433D01*
X011719Y000452D01*
X011678Y000475D01*
X011639Y000501D01*
X011603Y000530D01*
X011569Y000563D01*
X011538Y000598D01*
X011510Y000635D01*
X011486Y000675D01*
X011465Y000717D01*
X011447Y000760D01*
X011434Y000805D01*
X011424Y000851D01*
X011418Y000897D01*
X011416Y000944D01*
D11*
X011967Y000944D03*
X000944Y000944D03*
X000944Y011967D03*
X011967Y011967D03*
D12*
X009956Y011180D03*
X008956Y011180D03*
X007956Y011180D03*
X006956Y011180D03*
X005956Y011180D03*
X004956Y011180D03*
X003956Y011180D03*
X002956Y011180D03*
X002956Y001731D03*
X003956Y001731D03*
X004956Y001731D03*
X005956Y001731D03*
X006956Y001731D03*
X007956Y001731D03*
X008956Y001731D03*
X009956Y001731D03*
D13*
G36*
X007192Y004422D02*
X006812Y004802D01*
X006996Y004986D01*
X007376Y004606D01*
X007192Y004422D01*
G37*
G36*
X006969Y004199D02*
X006589Y004579D01*
X006773Y004763D01*
X007153Y004383D01*
X006969Y004199D01*
G37*
G36*
X007414Y004644D02*
X007034Y005024D01*
X007218Y005208D01*
X007598Y004828D01*
X007414Y004644D01*
G37*
G36*
X007637Y004867D02*
X007257Y005247D01*
X007441Y005431D01*
X007821Y005051D01*
X007637Y004867D01*
G37*
G36*
X007860Y005090D02*
X007480Y005470D01*
X007664Y005654D01*
X008044Y005274D01*
X007860Y005090D01*
G37*
G36*
X008083Y005313D02*
X007703Y005693D01*
X007887Y005877D01*
X008267Y005497D01*
X008083Y005313D01*
G37*
G36*
X008305Y005535D02*
X007925Y005915D01*
X008109Y006099D01*
X008489Y005719D01*
X008305Y005535D01*
G37*
G36*
X008528Y005758D02*
X008148Y006138D01*
X008332Y006322D01*
X008712Y005942D01*
X008528Y005758D01*
G37*
G36*
X006138Y008148D02*
X005758Y008528D01*
X005942Y008712D01*
X006322Y008332D01*
X006138Y008148D01*
G37*
G36*
X005915Y007925D02*
X005535Y008305D01*
X005719Y008489D01*
X006099Y008109D01*
X005915Y007925D01*
G37*
G36*
X005693Y007703D02*
X005313Y008083D01*
X005497Y008267D01*
X005877Y007887D01*
X005693Y007703D01*
G37*
G36*
X005470Y007480D02*
X005090Y007860D01*
X005274Y008044D01*
X005654Y007664D01*
X005470Y007480D01*
G37*
G36*
X005247Y007257D02*
X004867Y007637D01*
X005051Y007821D01*
X005431Y007441D01*
X005247Y007257D01*
G37*
G36*
X005024Y007034D02*
X004644Y007414D01*
X004828Y007598D01*
X005208Y007218D01*
X005024Y007034D01*
G37*
G36*
X004802Y006812D02*
X004422Y007192D01*
X004606Y007376D01*
X004986Y006996D01*
X004802Y006812D01*
G37*
G36*
X004579Y006589D02*
X004199Y006969D01*
X004383Y007153D01*
X004763Y006773D01*
X004579Y006589D01*
G37*
D14*
G36*
X004383Y005758D02*
X004199Y005942D01*
X004579Y006322D01*
X004763Y006138D01*
X004383Y005758D01*
G37*
G36*
X004606Y005535D02*
X004422Y005719D01*
X004802Y006099D01*
X004986Y005915D01*
X004606Y005535D01*
G37*
G36*
X004828Y005313D02*
X004644Y005497D01*
X005024Y005877D01*
X005208Y005693D01*
X004828Y005313D01*
G37*
G36*
X005051Y005090D02*
X004867Y005274D01*
X005247Y005654D01*
X005431Y005470D01*
X005051Y005090D01*
G37*
G36*
X005274Y004867D02*
X005090Y005051D01*
X005470Y005431D01*
X005654Y005247D01*
X005274Y004867D01*
G37*
G36*
X005497Y004644D02*
X005313Y004828D01*
X005693Y005208D01*
X005877Y005024D01*
X005497Y004644D01*
G37*
G36*
X005719Y004422D02*
X005535Y004606D01*
X005915Y004986D01*
X006099Y004802D01*
X005719Y004422D01*
G37*
G36*
X005942Y004199D02*
X005758Y004383D01*
X006138Y004763D01*
X006322Y004579D01*
X005942Y004199D01*
G37*
G36*
X008332Y006589D02*
X008148Y006773D01*
X008528Y007153D01*
X008712Y006969D01*
X008332Y006589D01*
G37*
G36*
X008109Y006812D02*
X007925Y006996D01*
X008305Y007376D01*
X008489Y007192D01*
X008109Y006812D01*
G37*
G36*
X007887Y007034D02*
X007703Y007218D01*
X008083Y007598D01*
X008267Y007414D01*
X007887Y007034D01*
G37*
G36*
X007664Y007257D02*
X007480Y007441D01*
X007860Y007821D01*
X008044Y007637D01*
X007664Y007257D01*
G37*
G36*
X007441Y007480D02*
X007257Y007664D01*
X007637Y008044D01*
X007821Y007860D01*
X007441Y007480D01*
G37*
G36*
X007218Y007703D02*
X007034Y007887D01*
X007414Y008267D01*
X007598Y008083D01*
X007218Y007703D01*
G37*
G36*
X006996Y007925D02*
X006812Y008109D01*
X007192Y008489D01*
X007376Y008305D01*
X006996Y007925D01*
G37*
G36*
X006773Y008148D02*
X006589Y008332D01*
X006969Y008712D01*
X007153Y008528D01*
X006773Y008148D01*
G37*
D15*
X005471Y010097D03*
X002912Y010097D03*
D16*
X008685Y010099D02*
X008689Y010060D01*
X008702Y010022D01*
X008722Y009988D01*
X008750Y009960D01*
X008783Y009938D01*
X008820Y009924D01*
X008859Y009919D01*
X008899Y009925D01*
X008937Y009939D01*
X008970Y009961D01*
X008998Y009990D01*
X009018Y010025D01*
X009031Y010063D01*
X009034Y010103D01*
X009029Y010141D01*
X009016Y010177D01*
X008994Y010209D01*
X008967Y010235D01*
X008934Y010255D01*
X008897Y010267D01*
X008859Y010270D01*
X008821Y010266D01*
X008784Y010254D01*
X008751Y010234D01*
X008724Y010206D01*
X008703Y010174D01*
X008690Y010138D01*
X008685Y010099D01*
X009034Y010099D01*
X009027Y010147D02*
X008693Y010147D01*
X008717Y010196D02*
X009003Y010196D01*
X008952Y010244D02*
X008769Y010244D01*
X008692Y010050D02*
X009027Y010050D01*
X009005Y010002D02*
X008714Y010002D01*
X008759Y009953D02*
X008958Y009953D01*
X009791Y010060D02*
X009787Y010099D01*
X010136Y010099D01*
X010136Y010103D02*
X010133Y010063D01*
X010120Y010025D01*
X010100Y009990D01*
X010072Y009961D01*
X010039Y009939D01*
X010001Y009925D01*
X009961Y009919D01*
X009922Y009924D01*
X009885Y009938D01*
X009852Y009960D01*
X009824Y009988D01*
X009804Y010022D01*
X009791Y010060D01*
X009794Y010050D02*
X010129Y010050D01*
X010107Y010002D02*
X009816Y010002D01*
X009861Y009953D02*
X010060Y009953D01*
X010136Y010103D02*
X010131Y010141D01*
X010118Y010177D01*
X010096Y010209D01*
X010069Y010235D01*
X010036Y010255D01*
X009999Y010267D01*
X009961Y010270D01*
X009923Y010266D01*
X009886Y010254D01*
X009853Y010234D01*
X009826Y010206D01*
X009805Y010174D01*
X009792Y010138D01*
X009787Y010099D01*
X009795Y010147D02*
X010129Y010147D01*
X010105Y010196D02*
X009819Y010196D01*
X009871Y010244D02*
X010054Y010244D01*
D17*
X002412Y005456D03*
D18*
X002412Y006456D03*
X002412Y007456D03*
X003412Y007456D03*
X003412Y006456D03*
X003412Y005456D03*
D19*
X000550Y005456D03*
X000550Y006456D03*
X000550Y007456D03*
X000550Y008456D03*
X004456Y012361D03*
X005456Y012361D03*
X006456Y012361D03*
X007456Y012361D03*
X008456Y012361D03*
X012361Y008456D03*
X012361Y007456D03*
X012361Y006456D03*
X012361Y005456D03*
X012361Y004456D03*
X008456Y000550D03*
X007456Y000550D03*
X006456Y000550D03*
X005456Y000550D03*
X004456Y000550D03*
X000550Y004456D03*
D20*
X010364Y004959D03*
D21*
X010264Y005959D03*
X010364Y006959D03*
X010264Y007959D03*
X007456Y010097D03*
X006456Y010097D03*
M02*
