G75*
G70*
%OFA0B0*%
%FSLAX24Y24*%
%IPPOS*%
%LPD*%
%AMOC8*
5,1,8,0,0,1.08239X$1,22.5*
%
%ADD10C,0.0050*%
%ADD11C,0.0060*%
%ADD12C,0.0040*%
%ADD13C,0.0100*%
%ADD14C,0.0080*%
D10*
X000156Y000156D02*
X012755Y000156D01*
X012755Y012755D01*
X000156Y012755D01*
X000156Y000156D01*
X000387Y000944D02*
X000389Y000991D01*
X000395Y001037D01*
X000404Y001083D01*
X000418Y001127D01*
X000435Y001171D01*
X000456Y001212D01*
X000480Y001252D01*
X000507Y001290D01*
X000538Y001325D01*
X000571Y001358D01*
X000607Y001388D01*
X000646Y001414D01*
X000686Y001438D01*
X000728Y001457D01*
X000772Y001474D01*
X000817Y001486D01*
X000863Y001495D01*
X000909Y001500D01*
X000956Y001501D01*
X001002Y001498D01*
X001048Y001491D01*
X001094Y001480D01*
X001138Y001466D01*
X001181Y001448D01*
X001222Y001426D01*
X001262Y001401D01*
X001299Y001373D01*
X001334Y001342D01*
X001366Y001308D01*
X001395Y001271D01*
X001420Y001233D01*
X001443Y001192D01*
X001462Y001149D01*
X001477Y001105D01*
X001489Y001060D01*
X001497Y001014D01*
X001501Y000967D01*
X001501Y000921D01*
X001497Y000874D01*
X001489Y000828D01*
X001477Y000783D01*
X001462Y000739D01*
X001443Y000696D01*
X001420Y000655D01*
X001395Y000617D01*
X001366Y000580D01*
X001334Y000546D01*
X001299Y000515D01*
X001262Y000487D01*
X001223Y000462D01*
X001181Y000440D01*
X001138Y000422D01*
X001094Y000408D01*
X001048Y000397D01*
X001002Y000390D01*
X000956Y000387D01*
X000909Y000388D01*
X000863Y000393D01*
X000817Y000402D01*
X000772Y000414D01*
X000728Y000431D01*
X000686Y000450D01*
X000646Y000474D01*
X000607Y000500D01*
X000571Y000530D01*
X000538Y000563D01*
X000507Y000598D01*
X000480Y000636D01*
X000456Y000676D01*
X000435Y000717D01*
X000418Y000761D01*
X000404Y000805D01*
X000395Y000851D01*
X000389Y000897D01*
X000387Y000944D01*
X000387Y002519D02*
X000389Y002566D01*
X000395Y002612D01*
X000404Y002658D01*
X000418Y002702D01*
X000435Y002746D01*
X000456Y002787D01*
X000480Y002827D01*
X000507Y002865D01*
X000538Y002900D01*
X000571Y002933D01*
X000607Y002963D01*
X000646Y002989D01*
X000686Y003013D01*
X000728Y003032D01*
X000772Y003049D01*
X000817Y003061D01*
X000863Y003070D01*
X000909Y003075D01*
X000956Y003076D01*
X001002Y003073D01*
X001048Y003066D01*
X001094Y003055D01*
X001138Y003041D01*
X001181Y003023D01*
X001222Y003001D01*
X001262Y002976D01*
X001299Y002948D01*
X001334Y002917D01*
X001366Y002883D01*
X001395Y002846D01*
X001420Y002808D01*
X001443Y002767D01*
X001462Y002724D01*
X001477Y002680D01*
X001489Y002635D01*
X001497Y002589D01*
X001501Y002542D01*
X001501Y002496D01*
X001497Y002449D01*
X001489Y002403D01*
X001477Y002358D01*
X001462Y002314D01*
X001443Y002271D01*
X001420Y002230D01*
X001395Y002192D01*
X001366Y002155D01*
X001334Y002121D01*
X001299Y002090D01*
X001262Y002062D01*
X001223Y002037D01*
X001181Y002015D01*
X001138Y001997D01*
X001094Y001983D01*
X001048Y001972D01*
X001002Y001965D01*
X000956Y001962D01*
X000909Y001963D01*
X000863Y001968D01*
X000817Y001977D01*
X000772Y001989D01*
X000728Y002006D01*
X000686Y002025D01*
X000646Y002049D01*
X000607Y002075D01*
X000571Y002105D01*
X000538Y002138D01*
X000507Y002173D01*
X000480Y002211D01*
X000456Y002251D01*
X000435Y002292D01*
X000418Y002336D01*
X000404Y002380D01*
X000395Y002426D01*
X000389Y002472D01*
X000387Y002519D01*
X000387Y004093D02*
X000389Y004140D01*
X000395Y004186D01*
X000404Y004232D01*
X000418Y004276D01*
X000435Y004320D01*
X000456Y004361D01*
X000480Y004401D01*
X000507Y004439D01*
X000538Y004474D01*
X000571Y004507D01*
X000607Y004537D01*
X000646Y004563D01*
X000686Y004587D01*
X000728Y004606D01*
X000772Y004623D01*
X000817Y004635D01*
X000863Y004644D01*
X000909Y004649D01*
X000956Y004650D01*
X001002Y004647D01*
X001048Y004640D01*
X001094Y004629D01*
X001138Y004615D01*
X001181Y004597D01*
X001222Y004575D01*
X001262Y004550D01*
X001299Y004522D01*
X001334Y004491D01*
X001366Y004457D01*
X001395Y004420D01*
X001420Y004382D01*
X001443Y004341D01*
X001462Y004298D01*
X001477Y004254D01*
X001489Y004209D01*
X001497Y004163D01*
X001501Y004116D01*
X001501Y004070D01*
X001497Y004023D01*
X001489Y003977D01*
X001477Y003932D01*
X001462Y003888D01*
X001443Y003845D01*
X001420Y003804D01*
X001395Y003766D01*
X001366Y003729D01*
X001334Y003695D01*
X001299Y003664D01*
X001262Y003636D01*
X001223Y003611D01*
X001181Y003589D01*
X001138Y003571D01*
X001094Y003557D01*
X001048Y003546D01*
X001002Y003539D01*
X000956Y003536D01*
X000909Y003537D01*
X000863Y003542D01*
X000817Y003551D01*
X000772Y003563D01*
X000728Y003580D01*
X000686Y003599D01*
X000646Y003623D01*
X000607Y003649D01*
X000571Y003679D01*
X000538Y003712D01*
X000507Y003747D01*
X000480Y003785D01*
X000456Y003825D01*
X000435Y003866D01*
X000418Y003910D01*
X000404Y003954D01*
X000395Y004000D01*
X000389Y004046D01*
X000387Y004093D01*
X000387Y005668D02*
X000389Y005715D01*
X000395Y005761D01*
X000404Y005807D01*
X000418Y005851D01*
X000435Y005895D01*
X000456Y005936D01*
X000480Y005976D01*
X000507Y006014D01*
X000538Y006049D01*
X000571Y006082D01*
X000607Y006112D01*
X000646Y006138D01*
X000686Y006162D01*
X000728Y006181D01*
X000772Y006198D01*
X000817Y006210D01*
X000863Y006219D01*
X000909Y006224D01*
X000956Y006225D01*
X001002Y006222D01*
X001048Y006215D01*
X001094Y006204D01*
X001138Y006190D01*
X001181Y006172D01*
X001222Y006150D01*
X001262Y006125D01*
X001299Y006097D01*
X001334Y006066D01*
X001366Y006032D01*
X001395Y005995D01*
X001420Y005957D01*
X001443Y005916D01*
X001462Y005873D01*
X001477Y005829D01*
X001489Y005784D01*
X001497Y005738D01*
X001501Y005691D01*
X001501Y005645D01*
X001497Y005598D01*
X001489Y005552D01*
X001477Y005507D01*
X001462Y005463D01*
X001443Y005420D01*
X001420Y005379D01*
X001395Y005341D01*
X001366Y005304D01*
X001334Y005270D01*
X001299Y005239D01*
X001262Y005211D01*
X001223Y005186D01*
X001181Y005164D01*
X001138Y005146D01*
X001094Y005132D01*
X001048Y005121D01*
X001002Y005114D01*
X000956Y005111D01*
X000909Y005112D01*
X000863Y005117D01*
X000817Y005126D01*
X000772Y005138D01*
X000728Y005155D01*
X000686Y005174D01*
X000646Y005198D01*
X000607Y005224D01*
X000571Y005254D01*
X000538Y005287D01*
X000507Y005322D01*
X000480Y005360D01*
X000456Y005400D01*
X000435Y005441D01*
X000418Y005485D01*
X000404Y005529D01*
X000395Y005575D01*
X000389Y005621D01*
X000387Y005668D01*
X000387Y007243D02*
X000389Y007290D01*
X000395Y007336D01*
X000404Y007382D01*
X000418Y007426D01*
X000435Y007470D01*
X000456Y007511D01*
X000480Y007551D01*
X000507Y007589D01*
X000538Y007624D01*
X000571Y007657D01*
X000607Y007687D01*
X000646Y007713D01*
X000686Y007737D01*
X000728Y007756D01*
X000772Y007773D01*
X000817Y007785D01*
X000863Y007794D01*
X000909Y007799D01*
X000956Y007800D01*
X001002Y007797D01*
X001048Y007790D01*
X001094Y007779D01*
X001138Y007765D01*
X001181Y007747D01*
X001222Y007725D01*
X001262Y007700D01*
X001299Y007672D01*
X001334Y007641D01*
X001366Y007607D01*
X001395Y007570D01*
X001420Y007532D01*
X001443Y007491D01*
X001462Y007448D01*
X001477Y007404D01*
X001489Y007359D01*
X001497Y007313D01*
X001501Y007266D01*
X001501Y007220D01*
X001497Y007173D01*
X001489Y007127D01*
X001477Y007082D01*
X001462Y007038D01*
X001443Y006995D01*
X001420Y006954D01*
X001395Y006916D01*
X001366Y006879D01*
X001334Y006845D01*
X001299Y006814D01*
X001262Y006786D01*
X001223Y006761D01*
X001181Y006739D01*
X001138Y006721D01*
X001094Y006707D01*
X001048Y006696D01*
X001002Y006689D01*
X000956Y006686D01*
X000909Y006687D01*
X000863Y006692D01*
X000817Y006701D01*
X000772Y006713D01*
X000728Y006730D01*
X000686Y006749D01*
X000646Y006773D01*
X000607Y006799D01*
X000571Y006829D01*
X000538Y006862D01*
X000507Y006897D01*
X000480Y006935D01*
X000456Y006975D01*
X000435Y007016D01*
X000418Y007060D01*
X000404Y007104D01*
X000395Y007150D01*
X000389Y007196D01*
X000387Y007243D01*
X000387Y008818D02*
X000389Y008865D01*
X000395Y008911D01*
X000404Y008957D01*
X000418Y009001D01*
X000435Y009045D01*
X000456Y009086D01*
X000480Y009126D01*
X000507Y009164D01*
X000538Y009199D01*
X000571Y009232D01*
X000607Y009262D01*
X000646Y009288D01*
X000686Y009312D01*
X000728Y009331D01*
X000772Y009348D01*
X000817Y009360D01*
X000863Y009369D01*
X000909Y009374D01*
X000956Y009375D01*
X001002Y009372D01*
X001048Y009365D01*
X001094Y009354D01*
X001138Y009340D01*
X001181Y009322D01*
X001222Y009300D01*
X001262Y009275D01*
X001299Y009247D01*
X001334Y009216D01*
X001366Y009182D01*
X001395Y009145D01*
X001420Y009107D01*
X001443Y009066D01*
X001462Y009023D01*
X001477Y008979D01*
X001489Y008934D01*
X001497Y008888D01*
X001501Y008841D01*
X001501Y008795D01*
X001497Y008748D01*
X001489Y008702D01*
X001477Y008657D01*
X001462Y008613D01*
X001443Y008570D01*
X001420Y008529D01*
X001395Y008491D01*
X001366Y008454D01*
X001334Y008420D01*
X001299Y008389D01*
X001262Y008361D01*
X001223Y008336D01*
X001181Y008314D01*
X001138Y008296D01*
X001094Y008282D01*
X001048Y008271D01*
X001002Y008264D01*
X000956Y008261D01*
X000909Y008262D01*
X000863Y008267D01*
X000817Y008276D01*
X000772Y008288D01*
X000728Y008305D01*
X000686Y008324D01*
X000646Y008348D01*
X000607Y008374D01*
X000571Y008404D01*
X000538Y008437D01*
X000507Y008472D01*
X000480Y008510D01*
X000456Y008550D01*
X000435Y008591D01*
X000418Y008635D01*
X000404Y008679D01*
X000395Y008725D01*
X000389Y008771D01*
X000387Y008818D01*
X000387Y010393D02*
X000389Y010440D01*
X000395Y010486D01*
X000404Y010532D01*
X000418Y010576D01*
X000435Y010620D01*
X000456Y010661D01*
X000480Y010701D01*
X000507Y010739D01*
X000538Y010774D01*
X000571Y010807D01*
X000607Y010837D01*
X000646Y010863D01*
X000686Y010887D01*
X000728Y010906D01*
X000772Y010923D01*
X000817Y010935D01*
X000863Y010944D01*
X000909Y010949D01*
X000956Y010950D01*
X001002Y010947D01*
X001048Y010940D01*
X001094Y010929D01*
X001138Y010915D01*
X001181Y010897D01*
X001222Y010875D01*
X001262Y010850D01*
X001299Y010822D01*
X001334Y010791D01*
X001366Y010757D01*
X001395Y010720D01*
X001420Y010682D01*
X001443Y010641D01*
X001462Y010598D01*
X001477Y010554D01*
X001489Y010509D01*
X001497Y010463D01*
X001501Y010416D01*
X001501Y010370D01*
X001497Y010323D01*
X001489Y010277D01*
X001477Y010232D01*
X001462Y010188D01*
X001443Y010145D01*
X001420Y010104D01*
X001395Y010066D01*
X001366Y010029D01*
X001334Y009995D01*
X001299Y009964D01*
X001262Y009936D01*
X001223Y009911D01*
X001181Y009889D01*
X001138Y009871D01*
X001094Y009857D01*
X001048Y009846D01*
X001002Y009839D01*
X000956Y009836D01*
X000909Y009837D01*
X000863Y009842D01*
X000817Y009851D01*
X000772Y009863D01*
X000728Y009880D01*
X000686Y009899D01*
X000646Y009923D01*
X000607Y009949D01*
X000571Y009979D01*
X000538Y010012D01*
X000507Y010047D01*
X000480Y010085D01*
X000456Y010125D01*
X000435Y010166D01*
X000418Y010210D01*
X000404Y010254D01*
X000395Y010300D01*
X000389Y010346D01*
X000387Y010393D01*
X000387Y011967D02*
X000389Y012014D01*
X000395Y012060D01*
X000404Y012106D01*
X000418Y012150D01*
X000435Y012194D01*
X000456Y012235D01*
X000480Y012275D01*
X000507Y012313D01*
X000538Y012348D01*
X000571Y012381D01*
X000607Y012411D01*
X000646Y012437D01*
X000686Y012461D01*
X000728Y012480D01*
X000772Y012497D01*
X000817Y012509D01*
X000863Y012518D01*
X000909Y012523D01*
X000956Y012524D01*
X001002Y012521D01*
X001048Y012514D01*
X001094Y012503D01*
X001138Y012489D01*
X001181Y012471D01*
X001222Y012449D01*
X001262Y012424D01*
X001299Y012396D01*
X001334Y012365D01*
X001366Y012331D01*
X001395Y012294D01*
X001420Y012256D01*
X001443Y012215D01*
X001462Y012172D01*
X001477Y012128D01*
X001489Y012083D01*
X001497Y012037D01*
X001501Y011990D01*
X001501Y011944D01*
X001497Y011897D01*
X001489Y011851D01*
X001477Y011806D01*
X001462Y011762D01*
X001443Y011719D01*
X001420Y011678D01*
X001395Y011640D01*
X001366Y011603D01*
X001334Y011569D01*
X001299Y011538D01*
X001262Y011510D01*
X001223Y011485D01*
X001181Y011463D01*
X001138Y011445D01*
X001094Y011431D01*
X001048Y011420D01*
X001002Y011413D01*
X000956Y011410D01*
X000909Y011411D01*
X000863Y011416D01*
X000817Y011425D01*
X000772Y011437D01*
X000728Y011454D01*
X000686Y011473D01*
X000646Y011497D01*
X000607Y011523D01*
X000571Y011553D01*
X000538Y011586D01*
X000507Y011621D01*
X000480Y011659D01*
X000456Y011699D01*
X000435Y011740D01*
X000418Y011784D01*
X000404Y011828D01*
X000395Y011874D01*
X000389Y011920D01*
X000387Y011967D01*
X003003Y010097D02*
X003700Y010097D01*
X003749Y010294D01*
X003847Y009900D01*
X003946Y010294D01*
X004044Y009900D01*
X004143Y010294D01*
X004241Y009900D01*
X004339Y010294D01*
X004438Y009900D01*
X004536Y010294D01*
X004635Y009900D01*
X004684Y010097D01*
X005381Y010097D01*
X004782Y009902D02*
X004782Y010293D01*
X004780Y010310D01*
X004776Y010327D01*
X004769Y010343D01*
X004759Y010357D01*
X004746Y010370D01*
X004732Y010380D01*
X004716Y010387D01*
X004699Y010391D01*
X004682Y010393D01*
X003701Y010393D01*
X003684Y010391D01*
X003667Y010387D01*
X003651Y010380D01*
X003637Y010370D01*
X003624Y010357D01*
X003614Y010343D01*
X003607Y010327D01*
X003603Y010310D01*
X003601Y010293D01*
X003601Y009902D01*
X003603Y009885D01*
X003607Y009868D01*
X003614Y009852D01*
X003624Y009838D01*
X003637Y009825D01*
X003651Y009815D01*
X003667Y009808D01*
X003684Y009804D01*
X003701Y009802D01*
X004682Y009802D01*
X004699Y009804D01*
X004716Y009808D01*
X004732Y009815D01*
X004746Y009825D01*
X004759Y009838D01*
X004769Y009852D01*
X004776Y009868D01*
X004780Y009885D01*
X004782Y009902D01*
X003536Y008818D02*
X003538Y008865D01*
X003544Y008911D01*
X003553Y008957D01*
X003567Y009001D01*
X003584Y009045D01*
X003605Y009086D01*
X003629Y009126D01*
X003656Y009164D01*
X003687Y009199D01*
X003720Y009232D01*
X003756Y009262D01*
X003795Y009288D01*
X003835Y009312D01*
X003877Y009331D01*
X003921Y009348D01*
X003966Y009360D01*
X004012Y009369D01*
X004058Y009374D01*
X004105Y009375D01*
X004151Y009372D01*
X004197Y009365D01*
X004243Y009354D01*
X004287Y009340D01*
X004330Y009322D01*
X004371Y009300D01*
X004411Y009275D01*
X004448Y009247D01*
X004483Y009216D01*
X004515Y009182D01*
X004544Y009145D01*
X004569Y009107D01*
X004592Y009066D01*
X004611Y009023D01*
X004626Y008979D01*
X004638Y008934D01*
X004646Y008888D01*
X004650Y008841D01*
X004650Y008795D01*
X004646Y008748D01*
X004638Y008702D01*
X004626Y008657D01*
X004611Y008613D01*
X004592Y008570D01*
X004569Y008529D01*
X004544Y008491D01*
X004515Y008454D01*
X004483Y008420D01*
X004448Y008389D01*
X004411Y008361D01*
X004372Y008336D01*
X004330Y008314D01*
X004287Y008296D01*
X004243Y008282D01*
X004197Y008271D01*
X004151Y008264D01*
X004105Y008261D01*
X004058Y008262D01*
X004012Y008267D01*
X003966Y008276D01*
X003921Y008288D01*
X003877Y008305D01*
X003835Y008324D01*
X003795Y008348D01*
X003756Y008374D01*
X003720Y008404D01*
X003687Y008437D01*
X003656Y008472D01*
X003629Y008510D01*
X003605Y008550D01*
X003584Y008591D01*
X003567Y008635D01*
X003553Y008679D01*
X003544Y008725D01*
X003538Y008771D01*
X003536Y008818D01*
X001962Y008818D02*
X001964Y008865D01*
X001970Y008911D01*
X001979Y008957D01*
X001993Y009001D01*
X002010Y009045D01*
X002031Y009086D01*
X002055Y009126D01*
X002082Y009164D01*
X002113Y009199D01*
X002146Y009232D01*
X002182Y009262D01*
X002221Y009288D01*
X002261Y009312D01*
X002303Y009331D01*
X002347Y009348D01*
X002392Y009360D01*
X002438Y009369D01*
X002484Y009374D01*
X002531Y009375D01*
X002577Y009372D01*
X002623Y009365D01*
X002669Y009354D01*
X002713Y009340D01*
X002756Y009322D01*
X002797Y009300D01*
X002837Y009275D01*
X002874Y009247D01*
X002909Y009216D01*
X002941Y009182D01*
X002970Y009145D01*
X002995Y009107D01*
X003018Y009066D01*
X003037Y009023D01*
X003052Y008979D01*
X003064Y008934D01*
X003072Y008888D01*
X003076Y008841D01*
X003076Y008795D01*
X003072Y008748D01*
X003064Y008702D01*
X003052Y008657D01*
X003037Y008613D01*
X003018Y008570D01*
X002995Y008529D01*
X002970Y008491D01*
X002941Y008454D01*
X002909Y008420D01*
X002874Y008389D01*
X002837Y008361D01*
X002798Y008336D01*
X002756Y008314D01*
X002713Y008296D01*
X002669Y008282D01*
X002623Y008271D01*
X002577Y008264D01*
X002531Y008261D01*
X002484Y008262D01*
X002438Y008267D01*
X002392Y008276D01*
X002347Y008288D01*
X002303Y008305D01*
X002261Y008324D01*
X002221Y008348D01*
X002182Y008374D01*
X002146Y008404D01*
X002113Y008437D01*
X002082Y008472D01*
X002055Y008510D01*
X002031Y008550D01*
X002010Y008591D01*
X001993Y008635D01*
X001979Y008679D01*
X001970Y008725D01*
X001964Y008771D01*
X001962Y008818D01*
X001962Y007243D02*
X001964Y007290D01*
X001970Y007336D01*
X001979Y007382D01*
X001993Y007426D01*
X002010Y007470D01*
X002031Y007511D01*
X002055Y007551D01*
X002082Y007589D01*
X002113Y007624D01*
X002146Y007657D01*
X002182Y007687D01*
X002221Y007713D01*
X002261Y007737D01*
X002303Y007756D01*
X002347Y007773D01*
X002392Y007785D01*
X002438Y007794D01*
X002484Y007799D01*
X002531Y007800D01*
X002577Y007797D01*
X002623Y007790D01*
X002669Y007779D01*
X002713Y007765D01*
X002756Y007747D01*
X002797Y007725D01*
X002837Y007700D01*
X002874Y007672D01*
X002909Y007641D01*
X002941Y007607D01*
X002970Y007570D01*
X002995Y007532D01*
X003018Y007491D01*
X003037Y007448D01*
X003052Y007404D01*
X003064Y007359D01*
X003072Y007313D01*
X003076Y007266D01*
X003076Y007220D01*
X003072Y007173D01*
X003064Y007127D01*
X003052Y007082D01*
X003037Y007038D01*
X003018Y006995D01*
X002995Y006954D01*
X002970Y006916D01*
X002941Y006879D01*
X002909Y006845D01*
X002874Y006814D01*
X002837Y006786D01*
X002798Y006761D01*
X002756Y006739D01*
X002713Y006721D01*
X002669Y006707D01*
X002623Y006696D01*
X002577Y006689D01*
X002531Y006686D01*
X002484Y006687D01*
X002438Y006692D01*
X002392Y006701D01*
X002347Y006713D01*
X002303Y006730D01*
X002261Y006749D01*
X002221Y006773D01*
X002182Y006799D01*
X002146Y006829D01*
X002113Y006862D01*
X002082Y006897D01*
X002055Y006935D01*
X002031Y006975D01*
X002010Y007016D01*
X001993Y007060D01*
X001979Y007104D01*
X001970Y007150D01*
X001964Y007196D01*
X001962Y007243D01*
X001962Y005668D02*
X001964Y005715D01*
X001970Y005761D01*
X001979Y005807D01*
X001993Y005851D01*
X002010Y005895D01*
X002031Y005936D01*
X002055Y005976D01*
X002082Y006014D01*
X002113Y006049D01*
X002146Y006082D01*
X002182Y006112D01*
X002221Y006138D01*
X002261Y006162D01*
X002303Y006181D01*
X002347Y006198D01*
X002392Y006210D01*
X002438Y006219D01*
X002484Y006224D01*
X002531Y006225D01*
X002577Y006222D01*
X002623Y006215D01*
X002669Y006204D01*
X002713Y006190D01*
X002756Y006172D01*
X002797Y006150D01*
X002837Y006125D01*
X002874Y006097D01*
X002909Y006066D01*
X002941Y006032D01*
X002970Y005995D01*
X002995Y005957D01*
X003018Y005916D01*
X003037Y005873D01*
X003052Y005829D01*
X003064Y005784D01*
X003072Y005738D01*
X003076Y005691D01*
X003076Y005645D01*
X003072Y005598D01*
X003064Y005552D01*
X003052Y005507D01*
X003037Y005463D01*
X003018Y005420D01*
X002995Y005379D01*
X002970Y005341D01*
X002941Y005304D01*
X002909Y005270D01*
X002874Y005239D01*
X002837Y005211D01*
X002798Y005186D01*
X002756Y005164D01*
X002713Y005146D01*
X002669Y005132D01*
X002623Y005121D01*
X002577Y005114D01*
X002531Y005111D01*
X002484Y005112D01*
X002438Y005117D01*
X002392Y005126D01*
X002347Y005138D01*
X002303Y005155D01*
X002261Y005174D01*
X002221Y005198D01*
X002182Y005224D01*
X002146Y005254D01*
X002113Y005287D01*
X002082Y005322D01*
X002055Y005360D01*
X002031Y005400D01*
X002010Y005441D01*
X001993Y005485D01*
X001979Y005529D01*
X001970Y005575D01*
X001964Y005621D01*
X001962Y005668D01*
X001962Y004093D02*
X001964Y004140D01*
X001970Y004186D01*
X001979Y004232D01*
X001993Y004276D01*
X002010Y004320D01*
X002031Y004361D01*
X002055Y004401D01*
X002082Y004439D01*
X002113Y004474D01*
X002146Y004507D01*
X002182Y004537D01*
X002221Y004563D01*
X002261Y004587D01*
X002303Y004606D01*
X002347Y004623D01*
X002392Y004635D01*
X002438Y004644D01*
X002484Y004649D01*
X002531Y004650D01*
X002577Y004647D01*
X002623Y004640D01*
X002669Y004629D01*
X002713Y004615D01*
X002756Y004597D01*
X002797Y004575D01*
X002837Y004550D01*
X002874Y004522D01*
X002909Y004491D01*
X002941Y004457D01*
X002970Y004420D01*
X002995Y004382D01*
X003018Y004341D01*
X003037Y004298D01*
X003052Y004254D01*
X003064Y004209D01*
X003072Y004163D01*
X003076Y004116D01*
X003076Y004070D01*
X003072Y004023D01*
X003064Y003977D01*
X003052Y003932D01*
X003037Y003888D01*
X003018Y003845D01*
X002995Y003804D01*
X002970Y003766D01*
X002941Y003729D01*
X002909Y003695D01*
X002874Y003664D01*
X002837Y003636D01*
X002798Y003611D01*
X002756Y003589D01*
X002713Y003571D01*
X002669Y003557D01*
X002623Y003546D01*
X002577Y003539D01*
X002531Y003536D01*
X002484Y003537D01*
X002438Y003542D01*
X002392Y003551D01*
X002347Y003563D01*
X002303Y003580D01*
X002261Y003599D01*
X002221Y003623D01*
X002182Y003649D01*
X002146Y003679D01*
X002113Y003712D01*
X002082Y003747D01*
X002055Y003785D01*
X002031Y003825D01*
X002010Y003866D01*
X001993Y003910D01*
X001979Y003954D01*
X001970Y004000D01*
X001964Y004046D01*
X001962Y004093D01*
X003536Y004093D02*
X003538Y004140D01*
X003544Y004186D01*
X003553Y004232D01*
X003567Y004276D01*
X003584Y004320D01*
X003605Y004361D01*
X003629Y004401D01*
X003656Y004439D01*
X003687Y004474D01*
X003720Y004507D01*
X003756Y004537D01*
X003795Y004563D01*
X003835Y004587D01*
X003877Y004606D01*
X003921Y004623D01*
X003966Y004635D01*
X004012Y004644D01*
X004058Y004649D01*
X004105Y004650D01*
X004151Y004647D01*
X004197Y004640D01*
X004243Y004629D01*
X004287Y004615D01*
X004330Y004597D01*
X004371Y004575D01*
X004411Y004550D01*
X004448Y004522D01*
X004483Y004491D01*
X004515Y004457D01*
X004544Y004420D01*
X004569Y004382D01*
X004592Y004341D01*
X004611Y004298D01*
X004626Y004254D01*
X004638Y004209D01*
X004646Y004163D01*
X004650Y004116D01*
X004650Y004070D01*
X004646Y004023D01*
X004638Y003977D01*
X004626Y003932D01*
X004611Y003888D01*
X004592Y003845D01*
X004569Y003804D01*
X004544Y003766D01*
X004515Y003729D01*
X004483Y003695D01*
X004448Y003664D01*
X004411Y003636D01*
X004372Y003611D01*
X004330Y003589D01*
X004287Y003571D01*
X004243Y003557D01*
X004197Y003546D01*
X004151Y003539D01*
X004105Y003536D01*
X004058Y003537D01*
X004012Y003542D01*
X003966Y003551D01*
X003921Y003563D01*
X003877Y003580D01*
X003835Y003599D01*
X003795Y003623D01*
X003756Y003649D01*
X003720Y003679D01*
X003687Y003712D01*
X003656Y003747D01*
X003629Y003785D01*
X003605Y003825D01*
X003584Y003866D01*
X003567Y003910D01*
X003553Y003954D01*
X003544Y004000D01*
X003538Y004046D01*
X003536Y004093D01*
X003536Y005668D02*
X003538Y005715D01*
X003544Y005761D01*
X003553Y005807D01*
X003567Y005851D01*
X003584Y005895D01*
X003605Y005936D01*
X003629Y005976D01*
X003656Y006014D01*
X003687Y006049D01*
X003720Y006082D01*
X003756Y006112D01*
X003795Y006138D01*
X003835Y006162D01*
X003877Y006181D01*
X003921Y006198D01*
X003966Y006210D01*
X004012Y006219D01*
X004058Y006224D01*
X004105Y006225D01*
X004151Y006222D01*
X004197Y006215D01*
X004243Y006204D01*
X004287Y006190D01*
X004330Y006172D01*
X004371Y006150D01*
X004411Y006125D01*
X004448Y006097D01*
X004483Y006066D01*
X004515Y006032D01*
X004544Y005995D01*
X004569Y005957D01*
X004592Y005916D01*
X004611Y005873D01*
X004626Y005829D01*
X004638Y005784D01*
X004646Y005738D01*
X004650Y005691D01*
X004650Y005645D01*
X004646Y005598D01*
X004638Y005552D01*
X004626Y005507D01*
X004611Y005463D01*
X004592Y005420D01*
X004569Y005379D01*
X004544Y005341D01*
X004515Y005304D01*
X004483Y005270D01*
X004448Y005239D01*
X004411Y005211D01*
X004372Y005186D01*
X004330Y005164D01*
X004287Y005146D01*
X004243Y005132D01*
X004197Y005121D01*
X004151Y005114D01*
X004105Y005111D01*
X004058Y005112D01*
X004012Y005117D01*
X003966Y005126D01*
X003921Y005138D01*
X003877Y005155D01*
X003835Y005174D01*
X003795Y005198D01*
X003756Y005224D01*
X003720Y005254D01*
X003687Y005287D01*
X003656Y005322D01*
X003629Y005360D01*
X003605Y005400D01*
X003584Y005441D01*
X003567Y005485D01*
X003553Y005529D01*
X003544Y005575D01*
X003538Y005621D01*
X003536Y005668D01*
X003536Y007243D02*
X003538Y007290D01*
X003544Y007336D01*
X003553Y007382D01*
X003567Y007426D01*
X003584Y007470D01*
X003605Y007511D01*
X003629Y007551D01*
X003656Y007589D01*
X003687Y007624D01*
X003720Y007657D01*
X003756Y007687D01*
X003795Y007713D01*
X003835Y007737D01*
X003877Y007756D01*
X003921Y007773D01*
X003966Y007785D01*
X004012Y007794D01*
X004058Y007799D01*
X004105Y007800D01*
X004151Y007797D01*
X004197Y007790D01*
X004243Y007779D01*
X004287Y007765D01*
X004330Y007747D01*
X004371Y007725D01*
X004411Y007700D01*
X004448Y007672D01*
X004483Y007641D01*
X004515Y007607D01*
X004544Y007570D01*
X004569Y007532D01*
X004592Y007491D01*
X004611Y007448D01*
X004626Y007404D01*
X004638Y007359D01*
X004646Y007313D01*
X004650Y007266D01*
X004650Y007220D01*
X004646Y007173D01*
X004638Y007127D01*
X004626Y007082D01*
X004611Y007038D01*
X004592Y006995D01*
X004569Y006954D01*
X004544Y006916D01*
X004515Y006879D01*
X004483Y006845D01*
X004448Y006814D01*
X004411Y006786D01*
X004372Y006761D01*
X004330Y006739D01*
X004287Y006721D01*
X004243Y006707D01*
X004197Y006696D01*
X004151Y006689D01*
X004105Y006686D01*
X004058Y006687D01*
X004012Y006692D01*
X003966Y006701D01*
X003921Y006713D01*
X003877Y006730D01*
X003835Y006749D01*
X003795Y006773D01*
X003756Y006799D01*
X003720Y006829D01*
X003687Y006862D01*
X003656Y006897D01*
X003629Y006935D01*
X003605Y006975D01*
X003584Y007016D01*
X003567Y007060D01*
X003553Y007104D01*
X003544Y007150D01*
X003538Y007196D01*
X003536Y007243D01*
X005259Y006456D02*
X005384Y006331D01*
X005384Y006581D01*
X005509Y006706D01*
X005759Y006706D01*
X006259Y006706D01*
X006259Y006956D01*
X006009Y006956D01*
X006259Y007206D01*
X006509Y007206D01*
X006759Y007206D01*
X006884Y007081D01*
X007009Y007081D01*
X007134Y007081D01*
X007009Y006956D01*
X007134Y006831D01*
X007259Y006831D01*
X007134Y006706D01*
X007259Y006706D01*
X007134Y006581D01*
X007009Y006706D01*
X007009Y006206D01*
X006759Y005956D01*
X006384Y005581D01*
X006384Y005831D01*
X006259Y005956D01*
X006009Y005956D01*
X006259Y005706D01*
X006509Y005706D01*
X006759Y005706D01*
X006634Y005581D01*
X006634Y005456D01*
X006509Y005581D01*
X006509Y005456D01*
X006384Y005581D01*
X006384Y005456D01*
X006134Y005706D01*
X006009Y005706D01*
X005509Y006206D01*
X006259Y006206D01*
X006259Y005956D01*
X005509Y006706D01*
X006009Y007206D01*
X006134Y007206D01*
X006384Y007456D01*
X006384Y007331D01*
X006759Y006956D01*
X007009Y006706D01*
X007009Y006956D01*
X006759Y006706D01*
X007009Y006456D01*
X006759Y006206D01*
X007009Y005956D01*
X007134Y005831D01*
X007009Y005831D01*
X006884Y005831D01*
X006759Y005706D01*
X006759Y005956D01*
X006509Y005956D01*
X006259Y006206D01*
X006259Y006456D01*
X006259Y006706D01*
X006509Y006956D01*
X006759Y006956D01*
X006759Y007206D01*
X006634Y007331D01*
X006634Y007456D01*
X006509Y007331D01*
X006509Y007456D01*
X006384Y007331D01*
X006384Y007081D01*
X006259Y006956D01*
X005509Y006206D01*
X005384Y006331D01*
X005259Y006456D02*
X005509Y006456D01*
X005759Y006706D01*
X005759Y006206D01*
X006009Y005956D01*
X006259Y005956D02*
X006259Y005706D01*
X006134Y005706D01*
X006259Y005706D02*
X006384Y005831D01*
X006509Y005706D01*
X006634Y005581D01*
X006759Y005456D01*
X006759Y005581D01*
X006884Y005456D01*
X006884Y005581D01*
X007009Y005581D01*
X006884Y005706D01*
X006884Y005581D01*
X006759Y005581D01*
X006759Y005706D01*
X006884Y005706D01*
X007009Y005706D01*
X006884Y005831D01*
X006759Y005956D01*
X006884Y005956D01*
X007009Y005831D01*
X007009Y005956D02*
X006884Y005956D01*
X007009Y005956D02*
X007134Y006081D01*
X007259Y006081D01*
X007134Y006206D01*
X007009Y006206D01*
X007009Y005956D01*
X007259Y005956D01*
X007134Y006081D01*
X007009Y006206D01*
X007134Y006331D01*
X007259Y006331D01*
X007134Y006456D01*
X007009Y006456D01*
X006759Y006456D01*
X007009Y006706D01*
X007134Y006706D01*
X007134Y006831D02*
X007259Y006956D01*
X007009Y006956D01*
X006884Y006956D01*
X007009Y007081D01*
X007009Y007206D02*
X006884Y007206D01*
X007009Y007331D01*
X006884Y007331D01*
X006884Y007456D01*
X006759Y007331D01*
X006884Y007331D01*
X006884Y007206D01*
X006759Y007206D01*
X006759Y007331D01*
X006759Y007456D01*
X006634Y007331D01*
X006509Y007206D01*
X006384Y007081D01*
X006259Y007206D01*
X006259Y006956D01*
X006384Y007081D02*
X006509Y006956D01*
X006759Y007206D01*
X006884Y007081D02*
X007009Y007206D01*
X006884Y007081D02*
X006759Y006956D01*
X006884Y006956D01*
X006759Y006956D02*
X006509Y006706D01*
X006509Y006956D01*
X006509Y007206D01*
X006509Y007331D01*
X006384Y007331D02*
X006259Y007206D01*
X006134Y007206D01*
X006009Y006956D02*
X005759Y006706D01*
X005509Y006456D02*
X005759Y006206D01*
X005509Y006456D02*
X006259Y006456D01*
X006509Y006706D01*
X006759Y006706D01*
X007009Y006706D01*
X007134Y006831D01*
X007134Y006581D02*
X007009Y006456D01*
X007134Y006331D01*
X007259Y006206D01*
X007134Y006206D01*
X007009Y006206D02*
X006759Y006206D01*
X006509Y006206D01*
X006509Y005956D01*
X006384Y005831D01*
X006509Y005956D02*
X006509Y005706D01*
X006509Y005581D01*
X006384Y005581D02*
X006259Y005706D01*
X006509Y005956D02*
X006759Y005706D01*
X006759Y005956D02*
X006509Y006206D01*
X006259Y006456D01*
X006759Y006456D01*
X007009Y006206D01*
X007134Y006456D02*
X007259Y006581D01*
X007134Y006581D01*
X006686Y007243D02*
X006688Y007290D01*
X006694Y007336D01*
X006703Y007382D01*
X006717Y007426D01*
X006734Y007470D01*
X006755Y007511D01*
X006779Y007551D01*
X006806Y007589D01*
X006837Y007624D01*
X006870Y007657D01*
X006906Y007687D01*
X006945Y007713D01*
X006985Y007737D01*
X007027Y007756D01*
X007071Y007773D01*
X007116Y007785D01*
X007162Y007794D01*
X007208Y007799D01*
X007255Y007800D01*
X007301Y007797D01*
X007347Y007790D01*
X007393Y007779D01*
X007437Y007765D01*
X007480Y007747D01*
X007521Y007725D01*
X007561Y007700D01*
X007598Y007672D01*
X007633Y007641D01*
X007665Y007607D01*
X007694Y007570D01*
X007719Y007532D01*
X007742Y007491D01*
X007761Y007448D01*
X007776Y007404D01*
X007788Y007359D01*
X007796Y007313D01*
X007800Y007266D01*
X007800Y007220D01*
X007796Y007173D01*
X007788Y007127D01*
X007776Y007082D01*
X007761Y007038D01*
X007742Y006995D01*
X007719Y006954D01*
X007694Y006916D01*
X007665Y006879D01*
X007633Y006845D01*
X007598Y006814D01*
X007561Y006786D01*
X007522Y006761D01*
X007480Y006739D01*
X007437Y006721D01*
X007393Y006707D01*
X007347Y006696D01*
X007301Y006689D01*
X007255Y006686D01*
X007208Y006687D01*
X007162Y006692D01*
X007116Y006701D01*
X007071Y006713D01*
X007027Y006730D01*
X006985Y006749D01*
X006945Y006773D01*
X006906Y006799D01*
X006870Y006829D01*
X006837Y006862D01*
X006806Y006897D01*
X006779Y006935D01*
X006755Y006975D01*
X006734Y007016D01*
X006717Y007060D01*
X006703Y007104D01*
X006694Y007150D01*
X006688Y007196D01*
X006686Y007243D01*
X005111Y007243D02*
X005113Y007290D01*
X005119Y007336D01*
X005128Y007382D01*
X005142Y007426D01*
X005159Y007470D01*
X005180Y007511D01*
X005204Y007551D01*
X005231Y007589D01*
X005262Y007624D01*
X005295Y007657D01*
X005331Y007687D01*
X005370Y007713D01*
X005410Y007737D01*
X005452Y007756D01*
X005496Y007773D01*
X005541Y007785D01*
X005587Y007794D01*
X005633Y007799D01*
X005680Y007800D01*
X005726Y007797D01*
X005772Y007790D01*
X005818Y007779D01*
X005862Y007765D01*
X005905Y007747D01*
X005946Y007725D01*
X005986Y007700D01*
X006023Y007672D01*
X006058Y007641D01*
X006090Y007607D01*
X006119Y007570D01*
X006144Y007532D01*
X006167Y007491D01*
X006186Y007448D01*
X006201Y007404D01*
X006213Y007359D01*
X006221Y007313D01*
X006225Y007266D01*
X006225Y007220D01*
X006221Y007173D01*
X006213Y007127D01*
X006201Y007082D01*
X006186Y007038D01*
X006167Y006995D01*
X006144Y006954D01*
X006119Y006916D01*
X006090Y006879D01*
X006058Y006845D01*
X006023Y006814D01*
X005986Y006786D01*
X005947Y006761D01*
X005905Y006739D01*
X005862Y006721D01*
X005818Y006707D01*
X005772Y006696D01*
X005726Y006689D01*
X005680Y006686D01*
X005633Y006687D01*
X005587Y006692D01*
X005541Y006701D01*
X005496Y006713D01*
X005452Y006730D01*
X005410Y006749D01*
X005370Y006773D01*
X005331Y006799D01*
X005295Y006829D01*
X005262Y006862D01*
X005231Y006897D01*
X005204Y006935D01*
X005180Y006975D01*
X005159Y007016D01*
X005142Y007060D01*
X005128Y007104D01*
X005119Y007150D01*
X005113Y007196D01*
X005111Y007243D01*
X005384Y006581D02*
X005259Y006456D01*
X005111Y005668D02*
X005113Y005715D01*
X005119Y005761D01*
X005128Y005807D01*
X005142Y005851D01*
X005159Y005895D01*
X005180Y005936D01*
X005204Y005976D01*
X005231Y006014D01*
X005262Y006049D01*
X005295Y006082D01*
X005331Y006112D01*
X005370Y006138D01*
X005410Y006162D01*
X005452Y006181D01*
X005496Y006198D01*
X005541Y006210D01*
X005587Y006219D01*
X005633Y006224D01*
X005680Y006225D01*
X005726Y006222D01*
X005772Y006215D01*
X005818Y006204D01*
X005862Y006190D01*
X005905Y006172D01*
X005946Y006150D01*
X005986Y006125D01*
X006023Y006097D01*
X006058Y006066D01*
X006090Y006032D01*
X006119Y005995D01*
X006144Y005957D01*
X006167Y005916D01*
X006186Y005873D01*
X006201Y005829D01*
X006213Y005784D01*
X006221Y005738D01*
X006225Y005691D01*
X006225Y005645D01*
X006221Y005598D01*
X006213Y005552D01*
X006201Y005507D01*
X006186Y005463D01*
X006167Y005420D01*
X006144Y005379D01*
X006119Y005341D01*
X006090Y005304D01*
X006058Y005270D01*
X006023Y005239D01*
X005986Y005211D01*
X005947Y005186D01*
X005905Y005164D01*
X005862Y005146D01*
X005818Y005132D01*
X005772Y005121D01*
X005726Y005114D01*
X005680Y005111D01*
X005633Y005112D01*
X005587Y005117D01*
X005541Y005126D01*
X005496Y005138D01*
X005452Y005155D01*
X005410Y005174D01*
X005370Y005198D01*
X005331Y005224D01*
X005295Y005254D01*
X005262Y005287D01*
X005231Y005322D01*
X005204Y005360D01*
X005180Y005400D01*
X005159Y005441D01*
X005142Y005485D01*
X005128Y005529D01*
X005119Y005575D01*
X005113Y005621D01*
X005111Y005668D01*
X005111Y004093D02*
X005113Y004140D01*
X005119Y004186D01*
X005128Y004232D01*
X005142Y004276D01*
X005159Y004320D01*
X005180Y004361D01*
X005204Y004401D01*
X005231Y004439D01*
X005262Y004474D01*
X005295Y004507D01*
X005331Y004537D01*
X005370Y004563D01*
X005410Y004587D01*
X005452Y004606D01*
X005496Y004623D01*
X005541Y004635D01*
X005587Y004644D01*
X005633Y004649D01*
X005680Y004650D01*
X005726Y004647D01*
X005772Y004640D01*
X005818Y004629D01*
X005862Y004615D01*
X005905Y004597D01*
X005946Y004575D01*
X005986Y004550D01*
X006023Y004522D01*
X006058Y004491D01*
X006090Y004457D01*
X006119Y004420D01*
X006144Y004382D01*
X006167Y004341D01*
X006186Y004298D01*
X006201Y004254D01*
X006213Y004209D01*
X006221Y004163D01*
X006225Y004116D01*
X006225Y004070D01*
X006221Y004023D01*
X006213Y003977D01*
X006201Y003932D01*
X006186Y003888D01*
X006167Y003845D01*
X006144Y003804D01*
X006119Y003766D01*
X006090Y003729D01*
X006058Y003695D01*
X006023Y003664D01*
X005986Y003636D01*
X005947Y003611D01*
X005905Y003589D01*
X005862Y003571D01*
X005818Y003557D01*
X005772Y003546D01*
X005726Y003539D01*
X005680Y003536D01*
X005633Y003537D01*
X005587Y003542D01*
X005541Y003551D01*
X005496Y003563D01*
X005452Y003580D01*
X005410Y003599D01*
X005370Y003623D01*
X005331Y003649D01*
X005295Y003679D01*
X005262Y003712D01*
X005231Y003747D01*
X005204Y003785D01*
X005180Y003825D01*
X005159Y003866D01*
X005142Y003910D01*
X005128Y003954D01*
X005119Y004000D01*
X005113Y004046D01*
X005111Y004093D01*
X006686Y004093D02*
X006688Y004140D01*
X006694Y004186D01*
X006703Y004232D01*
X006717Y004276D01*
X006734Y004320D01*
X006755Y004361D01*
X006779Y004401D01*
X006806Y004439D01*
X006837Y004474D01*
X006870Y004507D01*
X006906Y004537D01*
X006945Y004563D01*
X006985Y004587D01*
X007027Y004606D01*
X007071Y004623D01*
X007116Y004635D01*
X007162Y004644D01*
X007208Y004649D01*
X007255Y004650D01*
X007301Y004647D01*
X007347Y004640D01*
X007393Y004629D01*
X007437Y004615D01*
X007480Y004597D01*
X007521Y004575D01*
X007561Y004550D01*
X007598Y004522D01*
X007633Y004491D01*
X007665Y004457D01*
X007694Y004420D01*
X007719Y004382D01*
X007742Y004341D01*
X007761Y004298D01*
X007776Y004254D01*
X007788Y004209D01*
X007796Y004163D01*
X007800Y004116D01*
X007800Y004070D01*
X007796Y004023D01*
X007788Y003977D01*
X007776Y003932D01*
X007761Y003888D01*
X007742Y003845D01*
X007719Y003804D01*
X007694Y003766D01*
X007665Y003729D01*
X007633Y003695D01*
X007598Y003664D01*
X007561Y003636D01*
X007522Y003611D01*
X007480Y003589D01*
X007437Y003571D01*
X007393Y003557D01*
X007347Y003546D01*
X007301Y003539D01*
X007255Y003536D01*
X007208Y003537D01*
X007162Y003542D01*
X007116Y003551D01*
X007071Y003563D01*
X007027Y003580D01*
X006985Y003599D01*
X006945Y003623D01*
X006906Y003649D01*
X006870Y003679D01*
X006837Y003712D01*
X006806Y003747D01*
X006779Y003785D01*
X006755Y003825D01*
X006734Y003866D01*
X006717Y003910D01*
X006703Y003954D01*
X006694Y004000D01*
X006688Y004046D01*
X006686Y004093D01*
X006686Y005668D02*
X006688Y005715D01*
X006694Y005761D01*
X006703Y005807D01*
X006717Y005851D01*
X006734Y005895D01*
X006755Y005936D01*
X006779Y005976D01*
X006806Y006014D01*
X006837Y006049D01*
X006870Y006082D01*
X006906Y006112D01*
X006945Y006138D01*
X006985Y006162D01*
X007027Y006181D01*
X007071Y006198D01*
X007116Y006210D01*
X007162Y006219D01*
X007208Y006224D01*
X007255Y006225D01*
X007301Y006222D01*
X007347Y006215D01*
X007393Y006204D01*
X007437Y006190D01*
X007480Y006172D01*
X007521Y006150D01*
X007561Y006125D01*
X007598Y006097D01*
X007633Y006066D01*
X007665Y006032D01*
X007694Y005995D01*
X007719Y005957D01*
X007742Y005916D01*
X007761Y005873D01*
X007776Y005829D01*
X007788Y005784D01*
X007796Y005738D01*
X007800Y005691D01*
X007800Y005645D01*
X007796Y005598D01*
X007788Y005552D01*
X007776Y005507D01*
X007761Y005463D01*
X007742Y005420D01*
X007719Y005379D01*
X007694Y005341D01*
X007665Y005304D01*
X007633Y005270D01*
X007598Y005239D01*
X007561Y005211D01*
X007522Y005186D01*
X007480Y005164D01*
X007437Y005146D01*
X007393Y005132D01*
X007347Y005121D01*
X007301Y005114D01*
X007255Y005111D01*
X007208Y005112D01*
X007162Y005117D01*
X007116Y005126D01*
X007071Y005138D01*
X007027Y005155D01*
X006985Y005174D01*
X006945Y005198D01*
X006906Y005224D01*
X006870Y005254D01*
X006837Y005287D01*
X006806Y005322D01*
X006779Y005360D01*
X006755Y005400D01*
X006734Y005441D01*
X006717Y005485D01*
X006703Y005529D01*
X006694Y005575D01*
X006688Y005621D01*
X006686Y005668D01*
X008261Y005668D02*
X008263Y005715D01*
X008269Y005761D01*
X008278Y005807D01*
X008292Y005851D01*
X008309Y005895D01*
X008330Y005936D01*
X008354Y005976D01*
X008381Y006014D01*
X008412Y006049D01*
X008445Y006082D01*
X008481Y006112D01*
X008520Y006138D01*
X008560Y006162D01*
X008602Y006181D01*
X008646Y006198D01*
X008691Y006210D01*
X008737Y006219D01*
X008783Y006224D01*
X008830Y006225D01*
X008876Y006222D01*
X008922Y006215D01*
X008968Y006204D01*
X009012Y006190D01*
X009055Y006172D01*
X009096Y006150D01*
X009136Y006125D01*
X009173Y006097D01*
X009208Y006066D01*
X009240Y006032D01*
X009269Y005995D01*
X009294Y005957D01*
X009317Y005916D01*
X009336Y005873D01*
X009351Y005829D01*
X009363Y005784D01*
X009371Y005738D01*
X009375Y005691D01*
X009375Y005645D01*
X009371Y005598D01*
X009363Y005552D01*
X009351Y005507D01*
X009336Y005463D01*
X009317Y005420D01*
X009294Y005379D01*
X009269Y005341D01*
X009240Y005304D01*
X009208Y005270D01*
X009173Y005239D01*
X009136Y005211D01*
X009097Y005186D01*
X009055Y005164D01*
X009012Y005146D01*
X008968Y005132D01*
X008922Y005121D01*
X008876Y005114D01*
X008830Y005111D01*
X008783Y005112D01*
X008737Y005117D01*
X008691Y005126D01*
X008646Y005138D01*
X008602Y005155D01*
X008560Y005174D01*
X008520Y005198D01*
X008481Y005224D01*
X008445Y005254D01*
X008412Y005287D01*
X008381Y005322D01*
X008354Y005360D01*
X008330Y005400D01*
X008309Y005441D01*
X008292Y005485D01*
X008278Y005529D01*
X008269Y005575D01*
X008263Y005621D01*
X008261Y005668D01*
X008261Y004093D02*
X008263Y004140D01*
X008269Y004186D01*
X008278Y004232D01*
X008292Y004276D01*
X008309Y004320D01*
X008330Y004361D01*
X008354Y004401D01*
X008381Y004439D01*
X008412Y004474D01*
X008445Y004507D01*
X008481Y004537D01*
X008520Y004563D01*
X008560Y004587D01*
X008602Y004606D01*
X008646Y004623D01*
X008691Y004635D01*
X008737Y004644D01*
X008783Y004649D01*
X008830Y004650D01*
X008876Y004647D01*
X008922Y004640D01*
X008968Y004629D01*
X009012Y004615D01*
X009055Y004597D01*
X009096Y004575D01*
X009136Y004550D01*
X009173Y004522D01*
X009208Y004491D01*
X009240Y004457D01*
X009269Y004420D01*
X009294Y004382D01*
X009317Y004341D01*
X009336Y004298D01*
X009351Y004254D01*
X009363Y004209D01*
X009371Y004163D01*
X009375Y004116D01*
X009375Y004070D01*
X009371Y004023D01*
X009363Y003977D01*
X009351Y003932D01*
X009336Y003888D01*
X009317Y003845D01*
X009294Y003804D01*
X009269Y003766D01*
X009240Y003729D01*
X009208Y003695D01*
X009173Y003664D01*
X009136Y003636D01*
X009097Y003611D01*
X009055Y003589D01*
X009012Y003571D01*
X008968Y003557D01*
X008922Y003546D01*
X008876Y003539D01*
X008830Y003536D01*
X008783Y003537D01*
X008737Y003542D01*
X008691Y003551D01*
X008646Y003563D01*
X008602Y003580D01*
X008560Y003599D01*
X008520Y003623D01*
X008481Y003649D01*
X008445Y003679D01*
X008412Y003712D01*
X008381Y003747D01*
X008354Y003785D01*
X008330Y003825D01*
X008309Y003866D01*
X008292Y003910D01*
X008278Y003954D01*
X008269Y004000D01*
X008263Y004046D01*
X008261Y004093D01*
X009836Y004093D02*
X009838Y004140D01*
X009844Y004186D01*
X009853Y004232D01*
X009867Y004276D01*
X009884Y004320D01*
X009905Y004361D01*
X009929Y004401D01*
X009956Y004439D01*
X009987Y004474D01*
X010020Y004507D01*
X010056Y004537D01*
X010095Y004563D01*
X010135Y004587D01*
X010177Y004606D01*
X010221Y004623D01*
X010266Y004635D01*
X010312Y004644D01*
X010358Y004649D01*
X010405Y004650D01*
X010451Y004647D01*
X010497Y004640D01*
X010543Y004629D01*
X010587Y004615D01*
X010630Y004597D01*
X010671Y004575D01*
X010711Y004550D01*
X010748Y004522D01*
X010783Y004491D01*
X010815Y004457D01*
X010844Y004420D01*
X010869Y004382D01*
X010892Y004341D01*
X010911Y004298D01*
X010926Y004254D01*
X010938Y004209D01*
X010946Y004163D01*
X010950Y004116D01*
X010950Y004070D01*
X010946Y004023D01*
X010938Y003977D01*
X010926Y003932D01*
X010911Y003888D01*
X010892Y003845D01*
X010869Y003804D01*
X010844Y003766D01*
X010815Y003729D01*
X010783Y003695D01*
X010748Y003664D01*
X010711Y003636D01*
X010672Y003611D01*
X010630Y003589D01*
X010587Y003571D01*
X010543Y003557D01*
X010497Y003546D01*
X010451Y003539D01*
X010405Y003536D01*
X010358Y003537D01*
X010312Y003542D01*
X010266Y003551D01*
X010221Y003563D01*
X010177Y003580D01*
X010135Y003599D01*
X010095Y003623D01*
X010056Y003649D01*
X010020Y003679D01*
X009987Y003712D01*
X009956Y003747D01*
X009929Y003785D01*
X009905Y003825D01*
X009884Y003866D01*
X009867Y003910D01*
X009853Y003954D01*
X009844Y004000D01*
X009838Y004046D01*
X009836Y004093D01*
X009836Y005668D02*
X009838Y005715D01*
X009844Y005761D01*
X009853Y005807D01*
X009867Y005851D01*
X009884Y005895D01*
X009905Y005936D01*
X009929Y005976D01*
X009956Y006014D01*
X009987Y006049D01*
X010020Y006082D01*
X010056Y006112D01*
X010095Y006138D01*
X010135Y006162D01*
X010177Y006181D01*
X010221Y006198D01*
X010266Y006210D01*
X010312Y006219D01*
X010358Y006224D01*
X010405Y006225D01*
X010451Y006222D01*
X010497Y006215D01*
X010543Y006204D01*
X010587Y006190D01*
X010630Y006172D01*
X010671Y006150D01*
X010711Y006125D01*
X010748Y006097D01*
X010783Y006066D01*
X010815Y006032D01*
X010844Y005995D01*
X010869Y005957D01*
X010892Y005916D01*
X010911Y005873D01*
X010926Y005829D01*
X010938Y005784D01*
X010946Y005738D01*
X010950Y005691D01*
X010950Y005645D01*
X010946Y005598D01*
X010938Y005552D01*
X010926Y005507D01*
X010911Y005463D01*
X010892Y005420D01*
X010869Y005379D01*
X010844Y005341D01*
X010815Y005304D01*
X010783Y005270D01*
X010748Y005239D01*
X010711Y005211D01*
X010672Y005186D01*
X010630Y005164D01*
X010587Y005146D01*
X010543Y005132D01*
X010497Y005121D01*
X010451Y005114D01*
X010405Y005111D01*
X010358Y005112D01*
X010312Y005117D01*
X010266Y005126D01*
X010221Y005138D01*
X010177Y005155D01*
X010135Y005174D01*
X010095Y005198D01*
X010056Y005224D01*
X010020Y005254D01*
X009987Y005287D01*
X009956Y005322D01*
X009929Y005360D01*
X009905Y005400D01*
X009884Y005441D01*
X009867Y005485D01*
X009853Y005529D01*
X009844Y005575D01*
X009838Y005621D01*
X009836Y005668D01*
X009836Y007243D02*
X009838Y007290D01*
X009844Y007336D01*
X009853Y007382D01*
X009867Y007426D01*
X009884Y007470D01*
X009905Y007511D01*
X009929Y007551D01*
X009956Y007589D01*
X009987Y007624D01*
X010020Y007657D01*
X010056Y007687D01*
X010095Y007713D01*
X010135Y007737D01*
X010177Y007756D01*
X010221Y007773D01*
X010266Y007785D01*
X010312Y007794D01*
X010358Y007799D01*
X010405Y007800D01*
X010451Y007797D01*
X010497Y007790D01*
X010543Y007779D01*
X010587Y007765D01*
X010630Y007747D01*
X010671Y007725D01*
X010711Y007700D01*
X010748Y007672D01*
X010783Y007641D01*
X010815Y007607D01*
X010844Y007570D01*
X010869Y007532D01*
X010892Y007491D01*
X010911Y007448D01*
X010926Y007404D01*
X010938Y007359D01*
X010946Y007313D01*
X010950Y007266D01*
X010950Y007220D01*
X010946Y007173D01*
X010938Y007127D01*
X010926Y007082D01*
X010911Y007038D01*
X010892Y006995D01*
X010869Y006954D01*
X010844Y006916D01*
X010815Y006879D01*
X010783Y006845D01*
X010748Y006814D01*
X010711Y006786D01*
X010672Y006761D01*
X010630Y006739D01*
X010587Y006721D01*
X010543Y006707D01*
X010497Y006696D01*
X010451Y006689D01*
X010405Y006686D01*
X010358Y006687D01*
X010312Y006692D01*
X010266Y006701D01*
X010221Y006713D01*
X010177Y006730D01*
X010135Y006749D01*
X010095Y006773D01*
X010056Y006799D01*
X010020Y006829D01*
X009987Y006862D01*
X009956Y006897D01*
X009929Y006935D01*
X009905Y006975D01*
X009884Y007016D01*
X009867Y007060D01*
X009853Y007104D01*
X009844Y007150D01*
X009838Y007196D01*
X009836Y007243D01*
X008261Y007243D02*
X008263Y007290D01*
X008269Y007336D01*
X008278Y007382D01*
X008292Y007426D01*
X008309Y007470D01*
X008330Y007511D01*
X008354Y007551D01*
X008381Y007589D01*
X008412Y007624D01*
X008445Y007657D01*
X008481Y007687D01*
X008520Y007713D01*
X008560Y007737D01*
X008602Y007756D01*
X008646Y007773D01*
X008691Y007785D01*
X008737Y007794D01*
X008783Y007799D01*
X008830Y007800D01*
X008876Y007797D01*
X008922Y007790D01*
X008968Y007779D01*
X009012Y007765D01*
X009055Y007747D01*
X009096Y007725D01*
X009136Y007700D01*
X009173Y007672D01*
X009208Y007641D01*
X009240Y007607D01*
X009269Y007570D01*
X009294Y007532D01*
X009317Y007491D01*
X009336Y007448D01*
X009351Y007404D01*
X009363Y007359D01*
X009371Y007313D01*
X009375Y007266D01*
X009375Y007220D01*
X009371Y007173D01*
X009363Y007127D01*
X009351Y007082D01*
X009336Y007038D01*
X009317Y006995D01*
X009294Y006954D01*
X009269Y006916D01*
X009240Y006879D01*
X009208Y006845D01*
X009173Y006814D01*
X009136Y006786D01*
X009097Y006761D01*
X009055Y006739D01*
X009012Y006721D01*
X008968Y006707D01*
X008922Y006696D01*
X008876Y006689D01*
X008830Y006686D01*
X008783Y006687D01*
X008737Y006692D01*
X008691Y006701D01*
X008646Y006713D01*
X008602Y006730D01*
X008560Y006749D01*
X008520Y006773D01*
X008481Y006799D01*
X008445Y006829D01*
X008412Y006862D01*
X008381Y006897D01*
X008354Y006935D01*
X008330Y006975D01*
X008309Y007016D01*
X008292Y007060D01*
X008278Y007104D01*
X008269Y007150D01*
X008263Y007196D01*
X008261Y007243D01*
X008261Y008818D02*
X008263Y008865D01*
X008269Y008911D01*
X008278Y008957D01*
X008292Y009001D01*
X008309Y009045D01*
X008330Y009086D01*
X008354Y009126D01*
X008381Y009164D01*
X008412Y009199D01*
X008445Y009232D01*
X008481Y009262D01*
X008520Y009288D01*
X008560Y009312D01*
X008602Y009331D01*
X008646Y009348D01*
X008691Y009360D01*
X008737Y009369D01*
X008783Y009374D01*
X008830Y009375D01*
X008876Y009372D01*
X008922Y009365D01*
X008968Y009354D01*
X009012Y009340D01*
X009055Y009322D01*
X009096Y009300D01*
X009136Y009275D01*
X009173Y009247D01*
X009208Y009216D01*
X009240Y009182D01*
X009269Y009145D01*
X009294Y009107D01*
X009317Y009066D01*
X009336Y009023D01*
X009351Y008979D01*
X009363Y008934D01*
X009371Y008888D01*
X009375Y008841D01*
X009375Y008795D01*
X009371Y008748D01*
X009363Y008702D01*
X009351Y008657D01*
X009336Y008613D01*
X009317Y008570D01*
X009294Y008529D01*
X009269Y008491D01*
X009240Y008454D01*
X009208Y008420D01*
X009173Y008389D01*
X009136Y008361D01*
X009097Y008336D01*
X009055Y008314D01*
X009012Y008296D01*
X008968Y008282D01*
X008922Y008271D01*
X008876Y008264D01*
X008830Y008261D01*
X008783Y008262D01*
X008737Y008267D01*
X008691Y008276D01*
X008646Y008288D01*
X008602Y008305D01*
X008560Y008324D01*
X008520Y008348D01*
X008481Y008374D01*
X008445Y008404D01*
X008412Y008437D01*
X008381Y008472D01*
X008354Y008510D01*
X008330Y008550D01*
X008309Y008591D01*
X008292Y008635D01*
X008278Y008679D01*
X008269Y008725D01*
X008263Y008771D01*
X008261Y008818D01*
X006686Y008818D02*
X006688Y008865D01*
X006694Y008911D01*
X006703Y008957D01*
X006717Y009001D01*
X006734Y009045D01*
X006755Y009086D01*
X006779Y009126D01*
X006806Y009164D01*
X006837Y009199D01*
X006870Y009232D01*
X006906Y009262D01*
X006945Y009288D01*
X006985Y009312D01*
X007027Y009331D01*
X007071Y009348D01*
X007116Y009360D01*
X007162Y009369D01*
X007208Y009374D01*
X007255Y009375D01*
X007301Y009372D01*
X007347Y009365D01*
X007393Y009354D01*
X007437Y009340D01*
X007480Y009322D01*
X007521Y009300D01*
X007561Y009275D01*
X007598Y009247D01*
X007633Y009216D01*
X007665Y009182D01*
X007694Y009145D01*
X007719Y009107D01*
X007742Y009066D01*
X007761Y009023D01*
X007776Y008979D01*
X007788Y008934D01*
X007796Y008888D01*
X007800Y008841D01*
X007800Y008795D01*
X007796Y008748D01*
X007788Y008702D01*
X007776Y008657D01*
X007761Y008613D01*
X007742Y008570D01*
X007719Y008529D01*
X007694Y008491D01*
X007665Y008454D01*
X007633Y008420D01*
X007598Y008389D01*
X007561Y008361D01*
X007522Y008336D01*
X007480Y008314D01*
X007437Y008296D01*
X007393Y008282D01*
X007347Y008271D01*
X007301Y008264D01*
X007255Y008261D01*
X007208Y008262D01*
X007162Y008267D01*
X007116Y008276D01*
X007071Y008288D01*
X007027Y008305D01*
X006985Y008324D01*
X006945Y008348D01*
X006906Y008374D01*
X006870Y008404D01*
X006837Y008437D01*
X006806Y008472D01*
X006779Y008510D01*
X006755Y008550D01*
X006734Y008591D01*
X006717Y008635D01*
X006703Y008679D01*
X006694Y008725D01*
X006688Y008771D01*
X006686Y008818D01*
X005111Y008818D02*
X005113Y008865D01*
X005119Y008911D01*
X005128Y008957D01*
X005142Y009001D01*
X005159Y009045D01*
X005180Y009086D01*
X005204Y009126D01*
X005231Y009164D01*
X005262Y009199D01*
X005295Y009232D01*
X005331Y009262D01*
X005370Y009288D01*
X005410Y009312D01*
X005452Y009331D01*
X005496Y009348D01*
X005541Y009360D01*
X005587Y009369D01*
X005633Y009374D01*
X005680Y009375D01*
X005726Y009372D01*
X005772Y009365D01*
X005818Y009354D01*
X005862Y009340D01*
X005905Y009322D01*
X005946Y009300D01*
X005986Y009275D01*
X006023Y009247D01*
X006058Y009216D01*
X006090Y009182D01*
X006119Y009145D01*
X006144Y009107D01*
X006167Y009066D01*
X006186Y009023D01*
X006201Y008979D01*
X006213Y008934D01*
X006221Y008888D01*
X006225Y008841D01*
X006225Y008795D01*
X006221Y008748D01*
X006213Y008702D01*
X006201Y008657D01*
X006186Y008613D01*
X006167Y008570D01*
X006144Y008529D01*
X006119Y008491D01*
X006090Y008454D01*
X006058Y008420D01*
X006023Y008389D01*
X005986Y008361D01*
X005947Y008336D01*
X005905Y008314D01*
X005862Y008296D01*
X005818Y008282D01*
X005772Y008271D01*
X005726Y008264D01*
X005680Y008261D01*
X005633Y008262D01*
X005587Y008267D01*
X005541Y008276D01*
X005496Y008288D01*
X005452Y008305D01*
X005410Y008324D01*
X005370Y008348D01*
X005331Y008374D01*
X005295Y008404D01*
X005262Y008437D01*
X005231Y008472D01*
X005204Y008510D01*
X005180Y008550D01*
X005159Y008591D01*
X005142Y008635D01*
X005128Y008679D01*
X005119Y008725D01*
X005113Y008771D01*
X005111Y008818D01*
X009836Y008818D02*
X009838Y008865D01*
X009844Y008911D01*
X009853Y008957D01*
X009867Y009001D01*
X009884Y009045D01*
X009905Y009086D01*
X009929Y009126D01*
X009956Y009164D01*
X009987Y009199D01*
X010020Y009232D01*
X010056Y009262D01*
X010095Y009288D01*
X010135Y009312D01*
X010177Y009331D01*
X010221Y009348D01*
X010266Y009360D01*
X010312Y009369D01*
X010358Y009374D01*
X010405Y009375D01*
X010451Y009372D01*
X010497Y009365D01*
X010543Y009354D01*
X010587Y009340D01*
X010630Y009322D01*
X010671Y009300D01*
X010711Y009275D01*
X010748Y009247D01*
X010783Y009216D01*
X010815Y009182D01*
X010844Y009145D01*
X010869Y009107D01*
X010892Y009066D01*
X010911Y009023D01*
X010926Y008979D01*
X010938Y008934D01*
X010946Y008888D01*
X010950Y008841D01*
X010950Y008795D01*
X010946Y008748D01*
X010938Y008702D01*
X010926Y008657D01*
X010911Y008613D01*
X010892Y008570D01*
X010869Y008529D01*
X010844Y008491D01*
X010815Y008454D01*
X010783Y008420D01*
X010748Y008389D01*
X010711Y008361D01*
X010672Y008336D01*
X010630Y008314D01*
X010587Y008296D01*
X010543Y008282D01*
X010497Y008271D01*
X010451Y008264D01*
X010405Y008261D01*
X010358Y008262D01*
X010312Y008267D01*
X010266Y008276D01*
X010221Y008288D01*
X010177Y008305D01*
X010135Y008324D01*
X010095Y008348D01*
X010056Y008374D01*
X010020Y008404D01*
X009987Y008437D01*
X009956Y008472D01*
X009929Y008510D01*
X009905Y008550D01*
X009884Y008591D01*
X009867Y008635D01*
X009853Y008679D01*
X009844Y008725D01*
X009838Y008771D01*
X009836Y008818D01*
X011410Y008818D02*
X011412Y008865D01*
X011418Y008911D01*
X011427Y008957D01*
X011441Y009001D01*
X011458Y009045D01*
X011479Y009086D01*
X011503Y009126D01*
X011530Y009164D01*
X011561Y009199D01*
X011594Y009232D01*
X011630Y009262D01*
X011669Y009288D01*
X011709Y009312D01*
X011751Y009331D01*
X011795Y009348D01*
X011840Y009360D01*
X011886Y009369D01*
X011932Y009374D01*
X011979Y009375D01*
X012025Y009372D01*
X012071Y009365D01*
X012117Y009354D01*
X012161Y009340D01*
X012204Y009322D01*
X012245Y009300D01*
X012285Y009275D01*
X012322Y009247D01*
X012357Y009216D01*
X012389Y009182D01*
X012418Y009145D01*
X012443Y009107D01*
X012466Y009066D01*
X012485Y009023D01*
X012500Y008979D01*
X012512Y008934D01*
X012520Y008888D01*
X012524Y008841D01*
X012524Y008795D01*
X012520Y008748D01*
X012512Y008702D01*
X012500Y008657D01*
X012485Y008613D01*
X012466Y008570D01*
X012443Y008529D01*
X012418Y008491D01*
X012389Y008454D01*
X012357Y008420D01*
X012322Y008389D01*
X012285Y008361D01*
X012246Y008336D01*
X012204Y008314D01*
X012161Y008296D01*
X012117Y008282D01*
X012071Y008271D01*
X012025Y008264D01*
X011979Y008261D01*
X011932Y008262D01*
X011886Y008267D01*
X011840Y008276D01*
X011795Y008288D01*
X011751Y008305D01*
X011709Y008324D01*
X011669Y008348D01*
X011630Y008374D01*
X011594Y008404D01*
X011561Y008437D01*
X011530Y008472D01*
X011503Y008510D01*
X011479Y008550D01*
X011458Y008591D01*
X011441Y008635D01*
X011427Y008679D01*
X011418Y008725D01*
X011412Y008771D01*
X011410Y008818D01*
X011410Y010393D02*
X011412Y010440D01*
X011418Y010486D01*
X011427Y010532D01*
X011441Y010576D01*
X011458Y010620D01*
X011479Y010661D01*
X011503Y010701D01*
X011530Y010739D01*
X011561Y010774D01*
X011594Y010807D01*
X011630Y010837D01*
X011669Y010863D01*
X011709Y010887D01*
X011751Y010906D01*
X011795Y010923D01*
X011840Y010935D01*
X011886Y010944D01*
X011932Y010949D01*
X011979Y010950D01*
X012025Y010947D01*
X012071Y010940D01*
X012117Y010929D01*
X012161Y010915D01*
X012204Y010897D01*
X012245Y010875D01*
X012285Y010850D01*
X012322Y010822D01*
X012357Y010791D01*
X012389Y010757D01*
X012418Y010720D01*
X012443Y010682D01*
X012466Y010641D01*
X012485Y010598D01*
X012500Y010554D01*
X012512Y010509D01*
X012520Y010463D01*
X012524Y010416D01*
X012524Y010370D01*
X012520Y010323D01*
X012512Y010277D01*
X012500Y010232D01*
X012485Y010188D01*
X012466Y010145D01*
X012443Y010104D01*
X012418Y010066D01*
X012389Y010029D01*
X012357Y009995D01*
X012322Y009964D01*
X012285Y009936D01*
X012246Y009911D01*
X012204Y009889D01*
X012161Y009871D01*
X012117Y009857D01*
X012071Y009846D01*
X012025Y009839D01*
X011979Y009836D01*
X011932Y009837D01*
X011886Y009842D01*
X011840Y009851D01*
X011795Y009863D01*
X011751Y009880D01*
X011709Y009899D01*
X011669Y009923D01*
X011630Y009949D01*
X011594Y009979D01*
X011561Y010012D01*
X011530Y010047D01*
X011503Y010085D01*
X011479Y010125D01*
X011458Y010166D01*
X011441Y010210D01*
X011427Y010254D01*
X011418Y010300D01*
X011412Y010346D01*
X011410Y010393D01*
X011410Y011967D02*
X011412Y012014D01*
X011418Y012060D01*
X011427Y012106D01*
X011441Y012150D01*
X011458Y012194D01*
X011479Y012235D01*
X011503Y012275D01*
X011530Y012313D01*
X011561Y012348D01*
X011594Y012381D01*
X011630Y012411D01*
X011669Y012437D01*
X011709Y012461D01*
X011751Y012480D01*
X011795Y012497D01*
X011840Y012509D01*
X011886Y012518D01*
X011932Y012523D01*
X011979Y012524D01*
X012025Y012521D01*
X012071Y012514D01*
X012117Y012503D01*
X012161Y012489D01*
X012204Y012471D01*
X012245Y012449D01*
X012285Y012424D01*
X012322Y012396D01*
X012357Y012365D01*
X012389Y012331D01*
X012418Y012294D01*
X012443Y012256D01*
X012466Y012215D01*
X012485Y012172D01*
X012500Y012128D01*
X012512Y012083D01*
X012520Y012037D01*
X012524Y011990D01*
X012524Y011944D01*
X012520Y011897D01*
X012512Y011851D01*
X012500Y011806D01*
X012485Y011762D01*
X012466Y011719D01*
X012443Y011678D01*
X012418Y011640D01*
X012389Y011603D01*
X012357Y011569D01*
X012322Y011538D01*
X012285Y011510D01*
X012246Y011485D01*
X012204Y011463D01*
X012161Y011445D01*
X012117Y011431D01*
X012071Y011420D01*
X012025Y011413D01*
X011979Y011410D01*
X011932Y011411D01*
X011886Y011416D01*
X011840Y011425D01*
X011795Y011437D01*
X011751Y011454D01*
X011709Y011473D01*
X011669Y011497D01*
X011630Y011523D01*
X011594Y011553D01*
X011561Y011586D01*
X011530Y011621D01*
X011503Y011659D01*
X011479Y011699D01*
X011458Y011740D01*
X011441Y011784D01*
X011427Y011828D01*
X011418Y011874D01*
X011412Y011920D01*
X011410Y011967D01*
X011410Y007243D02*
X011412Y007290D01*
X011418Y007336D01*
X011427Y007382D01*
X011441Y007426D01*
X011458Y007470D01*
X011479Y007511D01*
X011503Y007551D01*
X011530Y007589D01*
X011561Y007624D01*
X011594Y007657D01*
X011630Y007687D01*
X011669Y007713D01*
X011709Y007737D01*
X011751Y007756D01*
X011795Y007773D01*
X011840Y007785D01*
X011886Y007794D01*
X011932Y007799D01*
X011979Y007800D01*
X012025Y007797D01*
X012071Y007790D01*
X012117Y007779D01*
X012161Y007765D01*
X012204Y007747D01*
X012245Y007725D01*
X012285Y007700D01*
X012322Y007672D01*
X012357Y007641D01*
X012389Y007607D01*
X012418Y007570D01*
X012443Y007532D01*
X012466Y007491D01*
X012485Y007448D01*
X012500Y007404D01*
X012512Y007359D01*
X012520Y007313D01*
X012524Y007266D01*
X012524Y007220D01*
X012520Y007173D01*
X012512Y007127D01*
X012500Y007082D01*
X012485Y007038D01*
X012466Y006995D01*
X012443Y006954D01*
X012418Y006916D01*
X012389Y006879D01*
X012357Y006845D01*
X012322Y006814D01*
X012285Y006786D01*
X012246Y006761D01*
X012204Y006739D01*
X012161Y006721D01*
X012117Y006707D01*
X012071Y006696D01*
X012025Y006689D01*
X011979Y006686D01*
X011932Y006687D01*
X011886Y006692D01*
X011840Y006701D01*
X011795Y006713D01*
X011751Y006730D01*
X011709Y006749D01*
X011669Y006773D01*
X011630Y006799D01*
X011594Y006829D01*
X011561Y006862D01*
X011530Y006897D01*
X011503Y006935D01*
X011479Y006975D01*
X011458Y007016D01*
X011441Y007060D01*
X011427Y007104D01*
X011418Y007150D01*
X011412Y007196D01*
X011410Y007243D01*
X011410Y005668D02*
X011412Y005715D01*
X011418Y005761D01*
X011427Y005807D01*
X011441Y005851D01*
X011458Y005895D01*
X011479Y005936D01*
X011503Y005976D01*
X011530Y006014D01*
X011561Y006049D01*
X011594Y006082D01*
X011630Y006112D01*
X011669Y006138D01*
X011709Y006162D01*
X011751Y006181D01*
X011795Y006198D01*
X011840Y006210D01*
X011886Y006219D01*
X011932Y006224D01*
X011979Y006225D01*
X012025Y006222D01*
X012071Y006215D01*
X012117Y006204D01*
X012161Y006190D01*
X012204Y006172D01*
X012245Y006150D01*
X012285Y006125D01*
X012322Y006097D01*
X012357Y006066D01*
X012389Y006032D01*
X012418Y005995D01*
X012443Y005957D01*
X012466Y005916D01*
X012485Y005873D01*
X012500Y005829D01*
X012512Y005784D01*
X012520Y005738D01*
X012524Y005691D01*
X012524Y005645D01*
X012520Y005598D01*
X012512Y005552D01*
X012500Y005507D01*
X012485Y005463D01*
X012466Y005420D01*
X012443Y005379D01*
X012418Y005341D01*
X012389Y005304D01*
X012357Y005270D01*
X012322Y005239D01*
X012285Y005211D01*
X012246Y005186D01*
X012204Y005164D01*
X012161Y005146D01*
X012117Y005132D01*
X012071Y005121D01*
X012025Y005114D01*
X011979Y005111D01*
X011932Y005112D01*
X011886Y005117D01*
X011840Y005126D01*
X011795Y005138D01*
X011751Y005155D01*
X011709Y005174D01*
X011669Y005198D01*
X011630Y005224D01*
X011594Y005254D01*
X011561Y005287D01*
X011530Y005322D01*
X011503Y005360D01*
X011479Y005400D01*
X011458Y005441D01*
X011441Y005485D01*
X011427Y005529D01*
X011418Y005575D01*
X011412Y005621D01*
X011410Y005668D01*
X011410Y004093D02*
X011412Y004140D01*
X011418Y004186D01*
X011427Y004232D01*
X011441Y004276D01*
X011458Y004320D01*
X011479Y004361D01*
X011503Y004401D01*
X011530Y004439D01*
X011561Y004474D01*
X011594Y004507D01*
X011630Y004537D01*
X011669Y004563D01*
X011709Y004587D01*
X011751Y004606D01*
X011795Y004623D01*
X011840Y004635D01*
X011886Y004644D01*
X011932Y004649D01*
X011979Y004650D01*
X012025Y004647D01*
X012071Y004640D01*
X012117Y004629D01*
X012161Y004615D01*
X012204Y004597D01*
X012245Y004575D01*
X012285Y004550D01*
X012322Y004522D01*
X012357Y004491D01*
X012389Y004457D01*
X012418Y004420D01*
X012443Y004382D01*
X012466Y004341D01*
X012485Y004298D01*
X012500Y004254D01*
X012512Y004209D01*
X012520Y004163D01*
X012524Y004116D01*
X012524Y004070D01*
X012520Y004023D01*
X012512Y003977D01*
X012500Y003932D01*
X012485Y003888D01*
X012466Y003845D01*
X012443Y003804D01*
X012418Y003766D01*
X012389Y003729D01*
X012357Y003695D01*
X012322Y003664D01*
X012285Y003636D01*
X012246Y003611D01*
X012204Y003589D01*
X012161Y003571D01*
X012117Y003557D01*
X012071Y003546D01*
X012025Y003539D01*
X011979Y003536D01*
X011932Y003537D01*
X011886Y003542D01*
X011840Y003551D01*
X011795Y003563D01*
X011751Y003580D01*
X011709Y003599D01*
X011669Y003623D01*
X011630Y003649D01*
X011594Y003679D01*
X011561Y003712D01*
X011530Y003747D01*
X011503Y003785D01*
X011479Y003825D01*
X011458Y003866D01*
X011441Y003910D01*
X011427Y003954D01*
X011418Y004000D01*
X011412Y004046D01*
X011410Y004093D01*
X011410Y002519D02*
X011412Y002566D01*
X011418Y002612D01*
X011427Y002658D01*
X011441Y002702D01*
X011458Y002746D01*
X011479Y002787D01*
X011503Y002827D01*
X011530Y002865D01*
X011561Y002900D01*
X011594Y002933D01*
X011630Y002963D01*
X011669Y002989D01*
X011709Y003013D01*
X011751Y003032D01*
X011795Y003049D01*
X011840Y003061D01*
X011886Y003070D01*
X011932Y003075D01*
X011979Y003076D01*
X012025Y003073D01*
X012071Y003066D01*
X012117Y003055D01*
X012161Y003041D01*
X012204Y003023D01*
X012245Y003001D01*
X012285Y002976D01*
X012322Y002948D01*
X012357Y002917D01*
X012389Y002883D01*
X012418Y002846D01*
X012443Y002808D01*
X012466Y002767D01*
X012485Y002724D01*
X012500Y002680D01*
X012512Y002635D01*
X012520Y002589D01*
X012524Y002542D01*
X012524Y002496D01*
X012520Y002449D01*
X012512Y002403D01*
X012500Y002358D01*
X012485Y002314D01*
X012466Y002271D01*
X012443Y002230D01*
X012418Y002192D01*
X012389Y002155D01*
X012357Y002121D01*
X012322Y002090D01*
X012285Y002062D01*
X012246Y002037D01*
X012204Y002015D01*
X012161Y001997D01*
X012117Y001983D01*
X012071Y001972D01*
X012025Y001965D01*
X011979Y001962D01*
X011932Y001963D01*
X011886Y001968D01*
X011840Y001977D01*
X011795Y001989D01*
X011751Y002006D01*
X011709Y002025D01*
X011669Y002049D01*
X011630Y002075D01*
X011594Y002105D01*
X011561Y002138D01*
X011530Y002173D01*
X011503Y002211D01*
X011479Y002251D01*
X011458Y002292D01*
X011441Y002336D01*
X011427Y002380D01*
X011418Y002426D01*
X011412Y002472D01*
X011410Y002519D01*
X011410Y000944D02*
X011412Y000991D01*
X011418Y001037D01*
X011427Y001083D01*
X011441Y001127D01*
X011458Y001171D01*
X011479Y001212D01*
X011503Y001252D01*
X011530Y001290D01*
X011561Y001325D01*
X011594Y001358D01*
X011630Y001388D01*
X011669Y001414D01*
X011709Y001438D01*
X011751Y001457D01*
X011795Y001474D01*
X011840Y001486D01*
X011886Y001495D01*
X011932Y001500D01*
X011979Y001501D01*
X012025Y001498D01*
X012071Y001491D01*
X012117Y001480D01*
X012161Y001466D01*
X012204Y001448D01*
X012245Y001426D01*
X012285Y001401D01*
X012322Y001373D01*
X012357Y001342D01*
X012389Y001308D01*
X012418Y001271D01*
X012443Y001233D01*
X012466Y001192D01*
X012485Y001149D01*
X012500Y001105D01*
X012512Y001060D01*
X012520Y001014D01*
X012524Y000967D01*
X012524Y000921D01*
X012520Y000874D01*
X012512Y000828D01*
X012500Y000783D01*
X012485Y000739D01*
X012466Y000696D01*
X012443Y000655D01*
X012418Y000617D01*
X012389Y000580D01*
X012357Y000546D01*
X012322Y000515D01*
X012285Y000487D01*
X012246Y000462D01*
X012204Y000440D01*
X012161Y000422D01*
X012117Y000408D01*
X012071Y000397D01*
X012025Y000390D01*
X011979Y000387D01*
X011932Y000388D01*
X011886Y000393D01*
X011840Y000402D01*
X011795Y000414D01*
X011751Y000431D01*
X011709Y000450D01*
X011669Y000474D01*
X011630Y000500D01*
X011594Y000530D01*
X011561Y000563D01*
X011530Y000598D01*
X011503Y000636D01*
X011479Y000676D01*
X011458Y000717D01*
X011441Y000761D01*
X011427Y000805D01*
X011418Y000851D01*
X011412Y000897D01*
X011410Y000944D01*
D11*
X009168Y002699D02*
X009062Y002592D01*
X008848Y002592D01*
X008741Y002699D01*
X008524Y002699D02*
X008524Y002806D01*
X008417Y002912D01*
X008097Y002912D01*
X007879Y002806D02*
X007879Y002699D01*
X007773Y002592D01*
X007559Y002592D01*
X007452Y002699D01*
X007452Y002806D01*
X007559Y002912D01*
X007773Y002912D01*
X007879Y002806D01*
X007773Y002912D02*
X007879Y003019D01*
X007879Y003126D01*
X007773Y003233D01*
X007559Y003233D01*
X007452Y003126D01*
X007452Y003019D01*
X007559Y002912D01*
X007235Y002806D02*
X007235Y002699D01*
X007128Y002592D01*
X006915Y002592D01*
X006808Y002699D01*
X006808Y002806D01*
X006915Y002912D01*
X007128Y002912D01*
X007235Y002806D01*
X007128Y002912D02*
X007235Y003019D01*
X007235Y003126D01*
X007128Y003233D01*
X006915Y003233D01*
X006808Y003126D01*
X006808Y003019D01*
X006915Y002912D01*
X006590Y002699D02*
X006484Y002592D01*
X006270Y002592D01*
X006163Y002699D01*
X006590Y003126D01*
X006590Y002699D01*
X006163Y002699D02*
X006163Y003126D01*
X006270Y003233D01*
X006484Y003233D01*
X006590Y003126D01*
X005946Y002592D02*
X005519Y002592D01*
X005732Y002592D02*
X005732Y003233D01*
X005519Y003019D01*
X005301Y002912D02*
X004874Y002912D01*
X004657Y002699D02*
X004550Y002592D01*
X004230Y002592D01*
X004230Y003233D01*
X004550Y003233D01*
X004657Y003126D01*
X004657Y002699D01*
X004012Y002592D02*
X003585Y002592D01*
X003585Y003233D01*
X006456Y004504D02*
X004504Y006456D01*
X006357Y008308D01*
X006554Y008308D01*
X008407Y006456D01*
X006456Y004504D01*
X008097Y003233D02*
X008417Y003233D01*
X008524Y003126D01*
X008524Y003019D01*
X008417Y002912D01*
X008524Y002699D02*
X008417Y002592D01*
X008097Y002592D01*
X008097Y003233D01*
X008741Y003126D02*
X008741Y003019D01*
X008848Y002912D01*
X009062Y002912D01*
X009168Y002806D01*
X009168Y002699D01*
X009168Y003126D02*
X009062Y003233D01*
X008848Y003233D01*
X008741Y003126D01*
X006315Y007983D02*
X006317Y008006D01*
X006323Y008029D01*
X006332Y008050D01*
X006345Y008070D01*
X006361Y008087D01*
X006379Y008101D01*
X006399Y008112D01*
X006421Y008120D01*
X006444Y008124D01*
X006468Y008124D01*
X006491Y008120D01*
X006513Y008112D01*
X006533Y008101D01*
X006551Y008087D01*
X006567Y008070D01*
X006580Y008050D01*
X006589Y008029D01*
X006595Y008006D01*
X006597Y007983D01*
X006595Y007960D01*
X006589Y007937D01*
X006580Y007916D01*
X006567Y007896D01*
X006551Y007879D01*
X006533Y007865D01*
X006513Y007854D01*
X006491Y007846D01*
X006468Y007842D01*
X006444Y007842D01*
X006421Y007846D01*
X006399Y007854D01*
X006379Y007865D01*
X006361Y007879D01*
X006345Y007896D01*
X006332Y007916D01*
X006323Y007937D01*
X006317Y007960D01*
X006315Y007983D01*
D12*
X005976Y011726D02*
X005822Y011726D01*
X005745Y011802D01*
X005745Y012109D01*
X005822Y012186D01*
X005976Y012186D01*
X006052Y012109D01*
X006052Y011802D02*
X005976Y011726D01*
X006745Y011726D02*
X006745Y012032D01*
X006899Y012186D01*
X007052Y012032D01*
X007052Y011726D01*
X007052Y011956D02*
X006745Y011956D01*
X007745Y012109D02*
X007745Y011802D01*
X007822Y011726D01*
X007976Y011726D01*
X008052Y011802D01*
X008052Y012109D02*
X007976Y012186D01*
X007822Y012186D01*
X007745Y012109D01*
X008745Y012109D02*
X008745Y011802D01*
X008822Y011726D01*
X008976Y011726D01*
X009052Y011802D01*
X009052Y012109D02*
X008976Y012186D01*
X008822Y012186D01*
X008745Y012109D01*
X009745Y012032D02*
X009745Y011726D01*
X009745Y011956D02*
X010052Y011956D01*
X010052Y012032D02*
X010052Y011726D01*
X010052Y012032D02*
X009899Y012186D01*
X009745Y012032D01*
X005052Y012032D02*
X005052Y011726D01*
X005052Y011956D02*
X004745Y011956D01*
X004745Y012032D02*
X004899Y012186D01*
X005052Y012032D01*
X004745Y012032D02*
X004745Y011726D01*
X004052Y011802D02*
X003976Y011726D01*
X003822Y011726D01*
X003745Y011802D01*
X003745Y012109D01*
X003822Y012186D01*
X003976Y012186D01*
X004052Y012109D01*
X003052Y012109D02*
X002976Y012186D01*
X002822Y012186D01*
X002745Y012109D01*
X002745Y011802D01*
X002822Y011726D01*
X002976Y011726D01*
X003052Y011802D01*
X002899Y001186D02*
X003052Y001032D01*
X003052Y000726D01*
X003052Y000956D02*
X002745Y000956D01*
X002745Y001032D02*
X002899Y001186D01*
X002745Y001032D02*
X002745Y000726D01*
X003745Y000726D02*
X003745Y001032D01*
X003899Y001186D01*
X004052Y001032D01*
X004052Y000726D01*
X004052Y000956D02*
X003745Y000956D01*
X004745Y001109D02*
X004745Y000802D01*
X004822Y000726D01*
X004976Y000726D01*
X005052Y000802D01*
X005052Y001109D02*
X004976Y001186D01*
X004822Y001186D01*
X004745Y001109D01*
X005745Y001109D02*
X005745Y000802D01*
X005822Y000726D01*
X005976Y000726D01*
X006052Y000802D01*
X006052Y001109D02*
X005976Y001186D01*
X005822Y001186D01*
X005745Y001109D01*
X006745Y001032D02*
X006745Y000726D01*
X006745Y000956D02*
X007052Y000956D01*
X007052Y001032D02*
X007052Y000726D01*
X007052Y001032D02*
X006899Y001186D01*
X006745Y001032D01*
X007745Y001109D02*
X007745Y000802D01*
X007822Y000726D01*
X007976Y000726D01*
X008052Y000802D01*
X008052Y001109D02*
X007976Y001186D01*
X007822Y001186D01*
X007745Y001109D01*
X008745Y001032D02*
X008745Y000726D01*
X008745Y000956D02*
X009052Y000956D01*
X009052Y001032D02*
X009052Y000726D01*
X009052Y001032D02*
X008899Y001186D01*
X008745Y001032D01*
X009745Y001032D02*
X009745Y000726D01*
X009745Y000956D02*
X010052Y000956D01*
X010052Y001032D02*
X010052Y000726D01*
X010052Y001032D02*
X009899Y001186D01*
X009745Y001032D01*
D13*
X010458Y009597D02*
X008358Y009597D01*
X008358Y010597D01*
X010458Y010597D01*
X010458Y009597D01*
X009408Y009847D02*
X009408Y010347D01*
D14*
X007956Y010347D02*
X007956Y009847D01*
X007706Y009597D01*
X007206Y009597D01*
X006956Y009847D01*
X006706Y009597D01*
X006206Y009597D01*
X005956Y009847D01*
X005956Y010347D01*
X006206Y010597D01*
X006706Y010597D01*
X006956Y010347D01*
X007206Y010597D01*
X007706Y010597D01*
X007956Y010347D01*
M02*
