G75*
G70*
%OFA0B0*%
%FSLAX24Y24*%
%IPPOS*%
%LPD*%
%AMOC8*
5,1,8,0,0,1.08239X$1,22.5*
%
%ADD10C,0.0000*%
%ADD11R,0.0500X0.0220*%
%ADD12R,0.0220X0.0500*%
D10*
X000156Y000156D02*
X012755Y000156D01*
X012755Y012755D01*
X000156Y012755D01*
X000156Y000156D01*
X000393Y000944D02*
X000395Y000991D01*
X000401Y001037D01*
X000411Y001083D01*
X000424Y001128D01*
X000442Y001171D01*
X000463Y001213D01*
X000487Y001253D01*
X000515Y001290D01*
X000546Y001325D01*
X000580Y001358D01*
X000616Y001387D01*
X000655Y001413D01*
X000696Y001436D01*
X000739Y001455D01*
X000783Y001471D01*
X000828Y001483D01*
X000874Y001491D01*
X000921Y001495D01*
X000967Y001495D01*
X001014Y001491D01*
X001060Y001483D01*
X001105Y001471D01*
X001149Y001455D01*
X001192Y001436D01*
X001233Y001413D01*
X001272Y001387D01*
X001308Y001358D01*
X001342Y001325D01*
X001373Y001290D01*
X001401Y001253D01*
X001425Y001213D01*
X001446Y001171D01*
X001464Y001128D01*
X001477Y001083D01*
X001487Y001037D01*
X001493Y000991D01*
X001495Y000944D01*
X001493Y000897D01*
X001487Y000851D01*
X001477Y000805D01*
X001464Y000760D01*
X001446Y000717D01*
X001425Y000675D01*
X001401Y000635D01*
X001373Y000598D01*
X001342Y000563D01*
X001308Y000530D01*
X001272Y000501D01*
X001233Y000475D01*
X001192Y000452D01*
X001149Y000433D01*
X001105Y000417D01*
X001060Y000405D01*
X001014Y000397D01*
X000967Y000393D01*
X000921Y000393D01*
X000874Y000397D01*
X000828Y000405D01*
X000783Y000417D01*
X000739Y000433D01*
X000696Y000452D01*
X000655Y000475D01*
X000616Y000501D01*
X000580Y000530D01*
X000546Y000563D01*
X000515Y000598D01*
X000487Y000635D01*
X000463Y000675D01*
X000442Y000717D01*
X000424Y000760D01*
X000411Y000805D01*
X000401Y000851D01*
X000395Y000897D01*
X000393Y000944D01*
X000393Y011967D02*
X000395Y012014D01*
X000401Y012060D01*
X000411Y012106D01*
X000424Y012151D01*
X000442Y012194D01*
X000463Y012236D01*
X000487Y012276D01*
X000515Y012313D01*
X000546Y012348D01*
X000580Y012381D01*
X000616Y012410D01*
X000655Y012436D01*
X000696Y012459D01*
X000739Y012478D01*
X000783Y012494D01*
X000828Y012506D01*
X000874Y012514D01*
X000921Y012518D01*
X000967Y012518D01*
X001014Y012514D01*
X001060Y012506D01*
X001105Y012494D01*
X001149Y012478D01*
X001192Y012459D01*
X001233Y012436D01*
X001272Y012410D01*
X001308Y012381D01*
X001342Y012348D01*
X001373Y012313D01*
X001401Y012276D01*
X001425Y012236D01*
X001446Y012194D01*
X001464Y012151D01*
X001477Y012106D01*
X001487Y012060D01*
X001493Y012014D01*
X001495Y011967D01*
X001493Y011920D01*
X001487Y011874D01*
X001477Y011828D01*
X001464Y011783D01*
X001446Y011740D01*
X001425Y011698D01*
X001401Y011658D01*
X001373Y011621D01*
X001342Y011586D01*
X001308Y011553D01*
X001272Y011524D01*
X001233Y011498D01*
X001192Y011475D01*
X001149Y011456D01*
X001105Y011440D01*
X001060Y011428D01*
X001014Y011420D01*
X000967Y011416D01*
X000921Y011416D01*
X000874Y011420D01*
X000828Y011428D01*
X000783Y011440D01*
X000739Y011456D01*
X000696Y011475D01*
X000655Y011498D01*
X000616Y011524D01*
X000580Y011553D01*
X000546Y011586D01*
X000515Y011621D01*
X000487Y011658D01*
X000463Y011698D01*
X000442Y011740D01*
X000424Y011783D01*
X000411Y011828D01*
X000401Y011874D01*
X000395Y011920D01*
X000393Y011967D01*
X011416Y011967D02*
X011418Y012014D01*
X011424Y012060D01*
X011434Y012106D01*
X011447Y012151D01*
X011465Y012194D01*
X011486Y012236D01*
X011510Y012276D01*
X011538Y012313D01*
X011569Y012348D01*
X011603Y012381D01*
X011639Y012410D01*
X011678Y012436D01*
X011719Y012459D01*
X011762Y012478D01*
X011806Y012494D01*
X011851Y012506D01*
X011897Y012514D01*
X011944Y012518D01*
X011990Y012518D01*
X012037Y012514D01*
X012083Y012506D01*
X012128Y012494D01*
X012172Y012478D01*
X012215Y012459D01*
X012256Y012436D01*
X012295Y012410D01*
X012331Y012381D01*
X012365Y012348D01*
X012396Y012313D01*
X012424Y012276D01*
X012448Y012236D01*
X012469Y012194D01*
X012487Y012151D01*
X012500Y012106D01*
X012510Y012060D01*
X012516Y012014D01*
X012518Y011967D01*
X012516Y011920D01*
X012510Y011874D01*
X012500Y011828D01*
X012487Y011783D01*
X012469Y011740D01*
X012448Y011698D01*
X012424Y011658D01*
X012396Y011621D01*
X012365Y011586D01*
X012331Y011553D01*
X012295Y011524D01*
X012256Y011498D01*
X012215Y011475D01*
X012172Y011456D01*
X012128Y011440D01*
X012083Y011428D01*
X012037Y011420D01*
X011990Y011416D01*
X011944Y011416D01*
X011897Y011420D01*
X011851Y011428D01*
X011806Y011440D01*
X011762Y011456D01*
X011719Y011475D01*
X011678Y011498D01*
X011639Y011524D01*
X011603Y011553D01*
X011569Y011586D01*
X011538Y011621D01*
X011510Y011658D01*
X011486Y011698D01*
X011465Y011740D01*
X011447Y011783D01*
X011434Y011828D01*
X011424Y011874D01*
X011418Y011920D01*
X011416Y011967D01*
X011416Y000944D02*
X011418Y000991D01*
X011424Y001037D01*
X011434Y001083D01*
X011447Y001128D01*
X011465Y001171D01*
X011486Y001213D01*
X011510Y001253D01*
X011538Y001290D01*
X011569Y001325D01*
X011603Y001358D01*
X011639Y001387D01*
X011678Y001413D01*
X011719Y001436D01*
X011762Y001455D01*
X011806Y001471D01*
X011851Y001483D01*
X011897Y001491D01*
X011944Y001495D01*
X011990Y001495D01*
X012037Y001491D01*
X012083Y001483D01*
X012128Y001471D01*
X012172Y001455D01*
X012215Y001436D01*
X012256Y001413D01*
X012295Y001387D01*
X012331Y001358D01*
X012365Y001325D01*
X012396Y001290D01*
X012424Y001253D01*
X012448Y001213D01*
X012469Y001171D01*
X012487Y001128D01*
X012500Y001083D01*
X012510Y001037D01*
X012516Y000991D01*
X012518Y000944D01*
X012516Y000897D01*
X012510Y000851D01*
X012500Y000805D01*
X012487Y000760D01*
X012469Y000717D01*
X012448Y000675D01*
X012424Y000635D01*
X012396Y000598D01*
X012365Y000563D01*
X012331Y000530D01*
X012295Y000501D01*
X012256Y000475D01*
X012215Y000452D01*
X012172Y000433D01*
X012128Y000417D01*
X012083Y000405D01*
X012037Y000397D01*
X011990Y000393D01*
X011944Y000393D01*
X011897Y000397D01*
X011851Y000405D01*
X011806Y000417D01*
X011762Y000433D01*
X011719Y000452D01*
X011678Y000475D01*
X011639Y000501D01*
X011603Y000530D01*
X011569Y000563D01*
X011538Y000598D01*
X011510Y000635D01*
X011486Y000675D01*
X011465Y000717D01*
X011447Y000760D01*
X011434Y000805D01*
X011424Y000851D01*
X011418Y000897D01*
X011416Y000944D01*
D11*
G36*
X007414Y004672D02*
X007062Y005024D01*
X007218Y005180D01*
X007570Y004828D01*
X007414Y004672D01*
G37*
G36*
X007192Y004450D02*
X006840Y004802D01*
X006996Y004958D01*
X007348Y004606D01*
X007192Y004450D01*
G37*
G36*
X006969Y004227D02*
X006617Y004579D01*
X006773Y004735D01*
X007125Y004383D01*
X006969Y004227D01*
G37*
G36*
X007637Y004895D02*
X007285Y005247D01*
X007441Y005403D01*
X007793Y005051D01*
X007637Y004895D01*
G37*
G36*
X007860Y005118D02*
X007508Y005470D01*
X007664Y005626D01*
X008016Y005274D01*
X007860Y005118D01*
G37*
G36*
X008083Y005341D02*
X007731Y005693D01*
X007887Y005849D01*
X008239Y005497D01*
X008083Y005341D01*
G37*
G36*
X008305Y005563D02*
X007953Y005915D01*
X008109Y006071D01*
X008461Y005719D01*
X008305Y005563D01*
G37*
G36*
X008528Y005786D02*
X008176Y006138D01*
X008332Y006294D01*
X008684Y005942D01*
X008528Y005786D01*
G37*
G36*
X006138Y008176D02*
X005786Y008528D01*
X005942Y008684D01*
X006294Y008332D01*
X006138Y008176D01*
G37*
G36*
X005915Y007953D02*
X005563Y008305D01*
X005719Y008461D01*
X006071Y008109D01*
X005915Y007953D01*
G37*
G36*
X005693Y007731D02*
X005341Y008083D01*
X005497Y008239D01*
X005849Y007887D01*
X005693Y007731D01*
G37*
G36*
X005470Y007508D02*
X005118Y007860D01*
X005274Y008016D01*
X005626Y007664D01*
X005470Y007508D01*
G37*
G36*
X005247Y007285D02*
X004895Y007637D01*
X005051Y007793D01*
X005403Y007441D01*
X005247Y007285D01*
G37*
G36*
X005024Y007062D02*
X004672Y007414D01*
X004828Y007570D01*
X005180Y007218D01*
X005024Y007062D01*
G37*
G36*
X004802Y006840D02*
X004450Y007192D01*
X004606Y007348D01*
X004958Y006996D01*
X004802Y006840D01*
G37*
G36*
X004579Y006617D02*
X004227Y006969D01*
X004383Y007125D01*
X004735Y006773D01*
X004579Y006617D01*
G37*
D12*
G36*
X004383Y005786D02*
X004227Y005942D01*
X004579Y006294D01*
X004735Y006138D01*
X004383Y005786D01*
G37*
G36*
X004606Y005563D02*
X004450Y005719D01*
X004802Y006071D01*
X004958Y005915D01*
X004606Y005563D01*
G37*
G36*
X004828Y005341D02*
X004672Y005497D01*
X005024Y005849D01*
X005180Y005693D01*
X004828Y005341D01*
G37*
G36*
X005051Y005118D02*
X004895Y005274D01*
X005247Y005626D01*
X005403Y005470D01*
X005051Y005118D01*
G37*
G36*
X005274Y004895D02*
X005118Y005051D01*
X005470Y005403D01*
X005626Y005247D01*
X005274Y004895D01*
G37*
G36*
X005497Y004672D02*
X005341Y004828D01*
X005693Y005180D01*
X005849Y005024D01*
X005497Y004672D01*
G37*
G36*
X005719Y004450D02*
X005563Y004606D01*
X005915Y004958D01*
X006071Y004802D01*
X005719Y004450D01*
G37*
G36*
X005942Y004227D02*
X005786Y004383D01*
X006138Y004735D01*
X006294Y004579D01*
X005942Y004227D01*
G37*
G36*
X008332Y006617D02*
X008176Y006773D01*
X008528Y007125D01*
X008684Y006969D01*
X008332Y006617D01*
G37*
G36*
X008109Y006840D02*
X007953Y006996D01*
X008305Y007348D01*
X008461Y007192D01*
X008109Y006840D01*
G37*
G36*
X007887Y007062D02*
X007731Y007218D01*
X008083Y007570D01*
X008239Y007414D01*
X007887Y007062D01*
G37*
G36*
X007664Y007285D02*
X007508Y007441D01*
X007860Y007793D01*
X008016Y007637D01*
X007664Y007285D01*
G37*
G36*
X007441Y007508D02*
X007285Y007664D01*
X007637Y008016D01*
X007793Y007860D01*
X007441Y007508D01*
G37*
G36*
X007218Y007731D02*
X007062Y007887D01*
X007414Y008239D01*
X007570Y008083D01*
X007218Y007731D01*
G37*
G36*
X006996Y007953D02*
X006840Y008109D01*
X007192Y008461D01*
X007348Y008305D01*
X006996Y007953D01*
G37*
G36*
X006773Y008176D02*
X006617Y008332D01*
X006969Y008684D01*
X007125Y008528D01*
X006773Y008176D01*
G37*
M02*
