G75*
G70*
%OFA0B0*%
%FSLAX24Y24*%
%IPPOS*%
%LPD*%
%AMOC8*
5,1,8,0,0,1.08239X$1,22.5*
%
%ADD10R,0.0394X0.0394*%
%ADD11C,0.0120*%
%ADD12C,0.0030*%
%ADD13C,0.0100*%
%ADD14C,0.0050*%
%ADD15R,0.0200X0.0200*%
%ADD16R,0.0100X0.0100*%
%ADD17C,0.0080*%
D10*
X000944Y001928D03*
X001534Y002519D03*
X002125Y002519D03*
X002125Y001928D03*
X002125Y001337D03*
X010786Y001337D03*
X010786Y001928D03*
X010786Y002519D03*
X011377Y002519D03*
X011967Y001928D03*
X011377Y010393D03*
X010786Y010393D03*
X010786Y010983D03*
X010786Y011574D03*
X011967Y010983D03*
X002125Y010983D03*
X002125Y011574D03*
X002125Y010393D03*
X001534Y010393D03*
X000944Y010983D03*
D11*
X009113Y006948D02*
X009507Y006948D01*
X009507Y007144D01*
X009507Y006948D02*
X009507Y006751D01*
X009507Y006160D02*
X009507Y005767D01*
X009113Y005767D01*
X010393Y004093D02*
X010393Y003896D01*
X010589Y003896D01*
X010393Y003896D02*
X010393Y003700D01*
X010393Y003896D02*
X010196Y003896D01*
X010393Y008818D02*
X010393Y009211D01*
D12*
X007742Y003451D02*
X007548Y003451D01*
X007645Y003451D02*
X007645Y003161D01*
X007447Y003161D02*
X007447Y003354D01*
X007447Y003258D02*
X007350Y003354D01*
X007302Y003354D01*
X007202Y003306D02*
X007202Y003209D01*
X007153Y003161D01*
X007057Y003161D01*
X007008Y003258D02*
X007202Y003258D01*
X007202Y003306D02*
X007153Y003354D01*
X007057Y003354D01*
X007008Y003306D01*
X007008Y003258D01*
X006907Y003258D02*
X006714Y003258D01*
X006714Y003306D01*
X006762Y003354D01*
X006859Y003354D01*
X006907Y003306D01*
X006907Y003209D01*
X006859Y003161D01*
X006762Y003161D01*
X006612Y003161D02*
X006612Y003451D01*
X006564Y003354D02*
X006467Y003354D01*
X006419Y003306D01*
X006419Y003161D01*
X006318Y003209D02*
X006318Y003306D01*
X006269Y003354D01*
X006173Y003354D01*
X006124Y003306D01*
X006124Y003209D01*
X006173Y003161D01*
X006269Y003161D01*
X006318Y003209D01*
X006294Y002959D02*
X006197Y002959D01*
X006149Y002911D01*
X006149Y002814D01*
X006197Y002766D01*
X006197Y002862D01*
X006294Y002862D01*
X006294Y002766D01*
X006197Y002766D01*
X006149Y002717D02*
X006197Y002669D01*
X006294Y002669D01*
X006342Y002717D01*
X006342Y002911D01*
X006294Y002959D01*
X006443Y002862D02*
X006491Y002862D01*
X006588Y002766D01*
X006588Y002862D02*
X006588Y002669D01*
X006689Y002766D02*
X006882Y002766D01*
X006882Y002814D02*
X006834Y002862D01*
X006737Y002862D01*
X006689Y002814D01*
X006689Y002766D01*
X006737Y002669D02*
X006834Y002669D01*
X006882Y002717D01*
X006882Y002814D01*
X006984Y002862D02*
X006984Y002620D01*
X007032Y002572D01*
X007080Y002572D01*
X007129Y002669D02*
X006984Y002669D01*
X007129Y002669D02*
X007177Y002717D01*
X007177Y002814D01*
X007129Y002862D01*
X006984Y002862D01*
X007278Y002814D02*
X007278Y002669D01*
X007278Y002814D02*
X007327Y002862D01*
X007472Y002862D01*
X007472Y002669D01*
X007573Y002669D02*
X007573Y002814D01*
X007621Y002862D01*
X007718Y002862D01*
X007718Y002766D02*
X007573Y002766D01*
X007573Y002669D02*
X007718Y002669D01*
X007766Y002717D01*
X007718Y002766D01*
X007868Y002862D02*
X008013Y002862D01*
X008061Y002814D01*
X008061Y002717D01*
X008013Y002669D01*
X007868Y002669D01*
X007868Y002959D01*
X008162Y002862D02*
X008162Y002717D01*
X008211Y002669D01*
X008259Y002717D01*
X008307Y002669D01*
X008356Y002717D01*
X008356Y002862D01*
X008457Y002814D02*
X008505Y002862D01*
X008602Y002862D01*
X008650Y002814D01*
X008650Y002717D01*
X008602Y002669D01*
X008505Y002669D01*
X008457Y002717D01*
X008457Y002814D01*
X008750Y002669D02*
X008847Y002669D01*
X008798Y002669D02*
X008798Y002959D01*
X008847Y002959D01*
X008948Y002862D02*
X009093Y002862D01*
X009141Y002814D01*
X009093Y002766D01*
X008996Y002766D01*
X008948Y002717D01*
X008996Y002669D01*
X009141Y002669D01*
X008356Y002467D02*
X008356Y002177D01*
X008162Y002177D02*
X008162Y002467D01*
X008259Y002370D01*
X008356Y002467D01*
X008061Y002370D02*
X008013Y002370D01*
X008013Y002177D01*
X008061Y002177D02*
X007964Y002177D01*
X007865Y002225D02*
X007816Y002177D01*
X007671Y002177D01*
X007570Y002177D02*
X007570Y002467D01*
X007522Y002370D02*
X007425Y002370D01*
X007377Y002322D01*
X007377Y002177D01*
X007275Y002225D02*
X007227Y002273D01*
X007082Y002273D01*
X007082Y002322D02*
X007082Y002177D01*
X007227Y002177D01*
X007275Y002225D01*
X007227Y002370D02*
X007130Y002370D01*
X007082Y002322D01*
X006981Y002322D02*
X006932Y002370D01*
X006836Y002370D01*
X006787Y002322D01*
X006787Y002273D01*
X006981Y002273D01*
X006981Y002225D02*
X006981Y002322D01*
X006981Y002225D02*
X006932Y002177D01*
X006836Y002177D01*
X006686Y002177D02*
X006589Y002177D01*
X006638Y002177D02*
X006638Y002467D01*
X006686Y002467D01*
X006195Y002467D02*
X006195Y002177D01*
X006001Y002177D01*
X006098Y002322D02*
X006195Y002322D01*
X006195Y002467D02*
X006001Y002467D01*
X005951Y002572D02*
X005903Y002572D01*
X005854Y002620D01*
X005854Y002862D01*
X005999Y002862D01*
X006048Y002814D01*
X006048Y002717D01*
X005999Y002669D01*
X005854Y002669D01*
X005753Y002669D02*
X005753Y002862D01*
X005705Y002862D01*
X005656Y002814D01*
X005608Y002862D01*
X005559Y002814D01*
X005559Y002669D01*
X005656Y002669D02*
X005656Y002814D01*
X005458Y002717D02*
X005410Y002766D01*
X005265Y002766D01*
X005265Y002814D02*
X005265Y002669D01*
X005410Y002669D01*
X005458Y002717D01*
X005410Y002862D02*
X005313Y002862D01*
X005265Y002814D01*
X005164Y002862D02*
X005115Y002862D01*
X005115Y002669D01*
X005067Y002669D02*
X005164Y002669D01*
X004967Y002669D02*
X004871Y002669D01*
X004919Y002669D02*
X004919Y002959D01*
X004967Y002959D01*
X005115Y002959D02*
X005115Y003007D01*
X005289Y003161D02*
X005385Y003161D01*
X005434Y003209D01*
X005434Y003306D01*
X005385Y003354D01*
X005289Y003354D01*
X005240Y003306D01*
X005240Y003258D01*
X005434Y003258D01*
X005535Y003209D02*
X005583Y003258D01*
X005680Y003258D01*
X005728Y003306D01*
X005680Y003354D01*
X005535Y003354D01*
X005535Y003209D02*
X005583Y003161D01*
X005728Y003161D01*
X005926Y003161D02*
X005830Y003354D01*
X006023Y003354D02*
X005926Y003161D01*
X006564Y003354D02*
X006612Y003306D01*
X007522Y002370D02*
X007570Y002322D01*
X007671Y002370D02*
X007816Y002370D01*
X007865Y002322D01*
X007865Y002225D01*
X008013Y002467D02*
X008013Y002515D01*
X005606Y002467D02*
X005606Y002177D01*
X005606Y002273D02*
X005461Y002273D01*
X005412Y002322D01*
X005412Y002419D01*
X005461Y002467D01*
X005606Y002467D01*
X005509Y002273D02*
X005412Y002177D01*
X005311Y002225D02*
X005263Y002177D01*
X005118Y002177D01*
X005118Y002370D01*
X005016Y002467D02*
X004968Y002467D01*
X004968Y002177D01*
X005016Y002177D02*
X004920Y002177D01*
X004820Y002225D02*
X004820Y002322D01*
X004772Y002370D01*
X004675Y002370D01*
X004626Y002322D01*
X004626Y002273D01*
X004820Y002273D01*
X004820Y002225D02*
X004772Y002177D01*
X004675Y002177D01*
X004722Y002669D02*
X004771Y002669D01*
X004771Y002717D01*
X004722Y002717D01*
X004722Y002669D01*
X004623Y002717D02*
X004575Y002669D01*
X004430Y002669D01*
X004329Y002717D02*
X004280Y002669D01*
X004184Y002669D01*
X004135Y002717D01*
X004135Y002814D01*
X004184Y002862D01*
X004280Y002862D01*
X004329Y002814D01*
X004329Y002717D01*
X004430Y002862D02*
X004575Y002862D01*
X004623Y002814D01*
X004623Y002717D01*
X004034Y002669D02*
X004034Y002862D01*
X003986Y002862D01*
X003937Y002814D01*
X003889Y002862D01*
X003841Y002814D01*
X003841Y002669D01*
X003937Y002669D02*
X003937Y002814D01*
X005311Y002370D02*
X005311Y002225D01*
D13*
X003912Y004956D02*
X001912Y004956D01*
X001912Y007956D01*
X003912Y007956D01*
X003912Y004956D01*
D14*
X005456Y006581D02*
X005581Y006581D01*
X005956Y006956D01*
X006206Y007206D01*
X006706Y007206D01*
X006956Y006956D01*
X007331Y006581D01*
X007081Y006581D01*
X006956Y006456D01*
X006956Y006206D01*
X007206Y006456D01*
X007206Y006706D01*
X007206Y006956D01*
X007081Y007081D01*
X007081Y007206D01*
X007081Y007331D01*
X006956Y007206D01*
X006831Y007331D01*
X006831Y007456D01*
X006706Y007331D01*
X006706Y007456D01*
X006581Y007331D01*
X006706Y007206D01*
X006956Y007206D01*
X006706Y006956D01*
X006456Y007206D01*
X006206Y006956D01*
X005956Y007206D01*
X005831Y007331D01*
X005831Y007206D01*
X005831Y007081D01*
X005706Y006956D01*
X005581Y006831D01*
X005456Y006831D01*
X005581Y006706D01*
X005456Y006706D01*
X005581Y006581D01*
X005831Y006581D01*
X005956Y006456D01*
X005956Y006206D01*
X005706Y006456D01*
X005706Y006706D01*
X005706Y006956D01*
X005956Y006956D01*
X005956Y006706D01*
X006206Y006456D01*
X006206Y005706D01*
X006956Y006456D01*
X007206Y006456D01*
X007206Y006331D01*
X007456Y006581D01*
X007331Y006581D01*
X007456Y006706D01*
X007331Y006706D01*
X007456Y006831D01*
X007331Y006831D01*
X007206Y006956D01*
X006956Y006956D01*
X006956Y006706D01*
X006706Y006456D01*
X006706Y005956D01*
X006706Y005706D01*
X005956Y006456D01*
X005706Y006456D01*
X005706Y006331D01*
X005456Y006581D01*
X005581Y006581D02*
X005706Y006456D01*
X005831Y006581D01*
X005706Y006706D01*
X005581Y006831D01*
X005456Y006956D01*
X005581Y006956D01*
X005456Y007081D01*
X005581Y007081D01*
X005581Y007206D01*
X005706Y007081D01*
X005581Y007081D01*
X005581Y006956D01*
X005706Y006956D01*
X005706Y007081D01*
X005706Y007206D01*
X005831Y007081D01*
X005956Y006956D01*
X005956Y007081D01*
X005831Y007206D01*
X005956Y007206D02*
X005956Y007081D01*
X005956Y007206D02*
X006081Y007331D01*
X006081Y007456D01*
X006206Y007331D01*
X006206Y007206D01*
X005956Y007206D01*
X005956Y007456D01*
X006081Y007331D01*
X006206Y007206D01*
X006331Y007331D01*
X006331Y007456D01*
X006456Y007331D01*
X006456Y007206D01*
X006456Y006956D01*
X006706Y007206D01*
X006706Y007331D01*
X006706Y007206D02*
X006831Y007331D01*
X006956Y007456D01*
X006956Y007206D01*
X006956Y007081D01*
X007081Y007206D01*
X007081Y007081D02*
X007206Y007206D01*
X007206Y007081D01*
X007331Y007206D01*
X007331Y007081D01*
X007456Y007081D01*
X007331Y006956D01*
X007331Y007081D01*
X007206Y007081D01*
X007206Y006956D01*
X007331Y006956D01*
X007456Y006956D01*
X007331Y006831D01*
X007206Y006706D01*
X007081Y006581D01*
X007206Y006456D01*
X007331Y006581D01*
X007331Y006706D02*
X007206Y006706D01*
X006956Y006706D01*
X007081Y006581D01*
X006956Y006706D02*
X007206Y006956D01*
X007081Y007081D02*
X006956Y006956D01*
X006956Y007081D01*
X006956Y006956D02*
X006706Y006706D01*
X006956Y006706D01*
X006956Y006456D02*
X006706Y006456D01*
X006456Y006456D01*
X006206Y006456D01*
X005956Y006456D01*
X005831Y006581D02*
X005956Y006706D01*
X005706Y006956D01*
X005956Y006956D02*
X006206Y006706D01*
X005956Y006706D01*
X005706Y006706D01*
X005581Y006706D01*
X005706Y006331D02*
X005706Y006206D01*
X006206Y005706D01*
X006331Y005581D01*
X006581Y005581D01*
X006706Y005706D01*
X007206Y006206D01*
X007206Y006331D01*
X006956Y006206D02*
X006706Y005956D01*
X006206Y005956D01*
X005956Y006206D01*
X006206Y005956D02*
X006456Y005706D01*
X006706Y005956D01*
X006456Y005706D02*
X006456Y006456D01*
X006706Y006706D01*
X006706Y006956D01*
X006706Y007206D01*
X006581Y007331D02*
X006581Y007456D01*
X006456Y007331D01*
X006581Y007331D02*
X006456Y007206D01*
X006331Y007331D01*
X006206Y007456D01*
X006206Y007331D01*
X006206Y007206D02*
X006206Y006956D01*
X006206Y006706D01*
X006456Y006456D01*
X006456Y006956D01*
X006206Y007206D01*
X006456Y005706D02*
X006456Y005456D01*
X006331Y005581D01*
X006456Y005456D02*
X006581Y005581D01*
X006656Y001550D02*
X006256Y001550D01*
X006256Y001150D01*
X006456Y001150D01*
X006656Y001150D01*
X006656Y001350D01*
X006656Y001550D01*
X006456Y001550D02*
X006456Y001150D01*
X006256Y001350D02*
X006656Y001350D01*
X007256Y001350D02*
X007456Y001350D01*
X007656Y001350D01*
X007456Y001350D02*
X007456Y001150D01*
X007456Y001350D02*
X007456Y001550D01*
X008256Y001350D02*
X008656Y001350D01*
X011561Y004256D02*
X011561Y004656D01*
X011561Y005256D02*
X011561Y005456D01*
X011561Y005656D01*
X011561Y005456D02*
X011361Y005456D01*
X011561Y005456D02*
X011761Y005456D01*
X011761Y006256D02*
X011361Y006256D01*
X011361Y006656D01*
X011561Y006656D01*
X011761Y006656D01*
X011761Y006456D01*
X011761Y006256D01*
X011761Y006456D02*
X011361Y006456D01*
X011561Y006256D02*
X011561Y006656D01*
X011561Y007256D02*
X011561Y007456D01*
X011561Y007656D01*
X011561Y007456D02*
X011361Y007456D01*
X011561Y007456D02*
X011761Y007456D01*
X011561Y008256D02*
X011561Y008656D01*
X008656Y011561D02*
X008256Y011561D01*
X007656Y011561D02*
X007456Y011561D01*
X007256Y011561D01*
X007456Y011561D02*
X007456Y011361D01*
X007456Y011561D02*
X007456Y011761D01*
X006656Y011761D02*
X006656Y011361D01*
X006256Y011361D01*
X006256Y011561D01*
X006256Y011761D01*
X006456Y011761D01*
X006656Y011761D01*
X006456Y011761D02*
X006456Y011361D01*
X006656Y011561D02*
X006256Y011561D01*
X005656Y011561D02*
X005456Y011561D01*
X005256Y011561D01*
X005456Y011561D02*
X005456Y011361D01*
X005456Y011561D02*
X005456Y011761D01*
X004656Y011561D02*
X004256Y011561D01*
X001350Y008656D02*
X001350Y008256D01*
X001350Y007656D02*
X001350Y007456D01*
X001350Y007256D01*
X001350Y007456D02*
X001550Y007456D01*
X001350Y007456D02*
X001150Y007456D01*
X001150Y006656D02*
X001550Y006656D01*
X001550Y006256D01*
X001350Y006256D01*
X001150Y006256D01*
X001150Y006456D01*
X001150Y006656D01*
X001150Y006456D02*
X001550Y006456D01*
X001350Y006656D02*
X001350Y006256D01*
X001350Y005656D02*
X001350Y005456D01*
X001350Y005256D01*
X001350Y005456D02*
X001150Y005456D01*
X001350Y005456D02*
X001550Y005456D01*
X001350Y004656D02*
X001350Y004256D01*
X004256Y001350D02*
X004656Y001350D01*
X005256Y001350D02*
X005456Y001350D01*
X005656Y001350D01*
X005456Y001350D02*
X005456Y001550D01*
X005456Y001350D02*
X005456Y001150D01*
D15*
X006356Y001250D03*
X006556Y001450D03*
X011461Y006556D03*
X011661Y006356D03*
X006556Y011661D03*
X006356Y011461D03*
X001450Y006356D03*
X001250Y006556D03*
D16*
X001500Y006306D03*
X006306Y011411D03*
X011411Y006606D03*
X006606Y001500D03*
D17*
X009814Y004709D02*
X009814Y005209D01*
X010064Y005459D01*
X009814Y005709D01*
X009814Y006209D01*
X010064Y006459D01*
X009814Y006709D01*
X009814Y007209D01*
X010064Y007459D01*
X009814Y007709D01*
X009814Y008209D01*
X010064Y008459D01*
X010564Y008459D01*
X010814Y008209D01*
X010814Y007709D01*
X010564Y007459D01*
X010814Y007209D01*
X010814Y006709D01*
X010564Y006459D01*
X010814Y006209D01*
X010814Y005709D01*
X010564Y005459D01*
X010814Y005209D01*
X010814Y004709D01*
X010564Y004459D01*
X010064Y004459D01*
X009814Y004709D01*
M02*
