G75*
G70*
%OFA0B0*%
%FSLAX24Y24*%
%IPPOS*%
%LPD*%
%AMOC8*
5,1,8,0,0,1.08239X$1,22.5*
%
%ADD10C,0.0520*%
%ADD11C,0.0104*%
%ADD12R,0.1000X0.1000*%
%ADD13C,0.1000*%
%ADD14C,0.0500*%
%ADD15C,0.0520*%
%ADD16C,0.0476*%
%ADD17C,0.0100*%
%ADD18C,0.0240*%
D10*
X004829Y007318D02*
X005197Y006951D01*
X005904Y007658D02*
X005537Y008026D01*
X006244Y008733D02*
X006611Y008365D01*
X007318Y009072D02*
X006951Y009440D01*
X009072Y007318D02*
X009440Y006951D01*
X008733Y006244D02*
X008365Y006611D01*
X007658Y005904D02*
X008026Y005537D01*
X007318Y004829D02*
X006951Y005197D01*
D11*
X006054Y006175D02*
X006002Y006123D01*
X006002Y006295D01*
X006123Y006416D01*
X006295Y006416D01*
X006416Y006295D01*
X006416Y006123D01*
X006295Y006002D01*
X006123Y006002D01*
X006002Y006123D01*
X006080Y006155D01*
X006080Y006263D01*
X006155Y006338D01*
X006263Y006338D01*
X006338Y006263D01*
X006338Y006155D01*
X006263Y006080D01*
X006155Y006080D01*
X006080Y006155D01*
X006158Y006188D01*
X006158Y006230D01*
X006188Y006260D01*
X006230Y006260D01*
X006260Y006230D01*
X006260Y006188D01*
X006230Y006158D01*
X006188Y006158D01*
X006158Y006188D01*
X006626Y006747D02*
X006574Y006695D01*
X006574Y006867D01*
X006695Y006988D01*
X006867Y006988D01*
X006988Y006867D01*
X006988Y006695D01*
X006867Y006574D01*
X006695Y006574D01*
X006574Y006695D01*
X006652Y006727D01*
X006652Y006835D01*
X006727Y006910D01*
X006835Y006910D01*
X006910Y006835D01*
X006910Y006727D01*
X006835Y006652D01*
X006727Y006652D01*
X006652Y006727D01*
X006730Y006760D01*
X006730Y006802D01*
X006760Y006832D01*
X006802Y006832D01*
X006832Y006802D01*
X006832Y006760D01*
X006802Y006730D01*
X006760Y006730D01*
X006730Y006760D01*
X007333Y007454D02*
X007281Y007402D01*
X007281Y007574D01*
X007402Y007695D01*
X007574Y007695D01*
X007695Y007574D01*
X007695Y007402D01*
X007574Y007281D01*
X007402Y007281D01*
X007281Y007402D01*
X007359Y007434D01*
X007359Y007542D01*
X007434Y007617D01*
X007542Y007617D01*
X007617Y007542D01*
X007617Y007434D01*
X007542Y007359D01*
X007434Y007359D01*
X007359Y007434D01*
X007437Y007467D01*
X007437Y007509D01*
X007467Y007539D01*
X007509Y007539D01*
X007539Y007509D01*
X007539Y007467D01*
X007509Y007437D01*
X007467Y007437D01*
X007437Y007467D01*
X007906Y008027D02*
X007854Y007975D01*
X007854Y008147D01*
X007975Y008268D01*
X008147Y008268D01*
X008268Y008147D01*
X008268Y007975D01*
X008147Y007854D01*
X007975Y007854D01*
X007854Y007975D01*
X007932Y008007D01*
X007932Y008115D01*
X008007Y008190D01*
X008115Y008190D01*
X008190Y008115D01*
X008190Y008007D01*
X008115Y007932D01*
X008007Y007932D01*
X007932Y008007D01*
X008010Y008040D01*
X008010Y008082D01*
X008040Y008112D01*
X008082Y008112D01*
X008112Y008082D01*
X008112Y008040D01*
X008082Y008010D01*
X008040Y008010D01*
X008010Y008040D01*
X008613Y008734D02*
X008561Y008682D01*
X008561Y008854D01*
X008682Y008975D01*
X008854Y008975D01*
X008975Y008854D01*
X008975Y008682D01*
X008854Y008561D01*
X008682Y008561D01*
X008561Y008682D01*
X008639Y008714D01*
X008639Y008822D01*
X008714Y008897D01*
X008822Y008897D01*
X008897Y008822D01*
X008897Y008714D01*
X008822Y008639D01*
X008714Y008639D01*
X008639Y008714D01*
X008717Y008747D01*
X008717Y008789D01*
X008747Y008819D01*
X008789Y008819D01*
X008819Y008789D01*
X008819Y008747D01*
X008789Y008717D01*
X008747Y008717D01*
X008717Y008747D01*
X009185Y009306D02*
X009133Y009254D01*
X009133Y009426D01*
X009254Y009547D01*
X009426Y009547D01*
X009547Y009426D01*
X009547Y009254D01*
X009426Y009133D01*
X009254Y009133D01*
X009133Y009254D01*
X009211Y009286D01*
X009211Y009394D01*
X009286Y009469D01*
X009394Y009469D01*
X009469Y009394D01*
X009469Y009286D01*
X009394Y009211D01*
X009286Y009211D01*
X009211Y009286D01*
X009289Y009319D01*
X009289Y009361D01*
X009319Y009391D01*
X009361Y009391D01*
X009391Y009361D01*
X009391Y009319D01*
X009361Y009289D01*
X009319Y009289D01*
X009289Y009319D01*
X009892Y010013D02*
X009840Y009961D01*
X009840Y010133D01*
X009961Y010254D01*
X010133Y010254D01*
X010254Y010133D01*
X010254Y009961D01*
X010133Y009840D01*
X009961Y009840D01*
X009840Y009961D01*
X009918Y009993D01*
X009918Y010101D01*
X009993Y010176D01*
X010101Y010176D01*
X010176Y010101D01*
X010176Y009993D01*
X010101Y009918D01*
X009993Y009918D01*
X009918Y009993D01*
X009996Y010026D01*
X009996Y010068D01*
X010026Y010098D01*
X010068Y010098D01*
X010098Y010068D01*
X010098Y010026D01*
X010068Y009996D01*
X010026Y009996D01*
X009996Y010026D01*
X010465Y010586D02*
X010413Y010534D01*
X010413Y010706D01*
X010534Y010827D01*
X010706Y010827D01*
X010827Y010706D01*
X010827Y010534D01*
X010706Y010413D01*
X010534Y010413D01*
X010413Y010534D01*
X010491Y010566D01*
X010491Y010674D01*
X010566Y010749D01*
X010674Y010749D01*
X010749Y010674D01*
X010749Y010566D01*
X010674Y010491D01*
X010566Y010491D01*
X010491Y010566D01*
X010569Y010599D01*
X010569Y010641D01*
X010599Y010671D01*
X010641Y010671D01*
X010671Y010641D01*
X010671Y010599D01*
X010641Y010569D01*
X010599Y010569D01*
X010569Y010599D01*
X011172Y011293D02*
X011120Y011241D01*
X011120Y011413D01*
X011241Y011534D01*
X011413Y011534D01*
X011534Y011413D01*
X011534Y011241D01*
X011413Y011120D01*
X011241Y011120D01*
X011120Y011241D01*
X011198Y011273D01*
X011198Y011381D01*
X011273Y011456D01*
X011381Y011456D01*
X011456Y011381D01*
X011456Y011273D01*
X011381Y011198D01*
X011273Y011198D01*
X011198Y011273D01*
X011276Y011306D01*
X011276Y011348D01*
X011306Y011378D01*
X011348Y011378D01*
X011378Y011348D01*
X011378Y011306D01*
X011348Y011276D01*
X011306Y011276D01*
X011276Y011306D01*
X011744Y011865D02*
X011692Y011813D01*
X011692Y011985D01*
X011813Y012106D01*
X011985Y012106D01*
X012106Y011985D01*
X012106Y011813D01*
X011985Y011692D01*
X011813Y011692D01*
X011692Y011813D01*
X011770Y011845D01*
X011770Y011953D01*
X011845Y012028D01*
X011953Y012028D01*
X012028Y011953D01*
X012028Y011845D01*
X011953Y011770D01*
X011845Y011770D01*
X011770Y011845D01*
X011848Y011878D01*
X011848Y011920D01*
X011878Y011950D01*
X011920Y011950D01*
X011950Y011920D01*
X011950Y011878D01*
X011920Y011848D01*
X011878Y011848D01*
X011848Y011878D01*
X012451Y012572D02*
X012399Y012520D01*
X012399Y012692D01*
X012520Y012813D01*
X012692Y012813D01*
X012813Y012692D01*
X012813Y012520D01*
X012692Y012399D01*
X012520Y012399D01*
X012399Y012520D01*
X012477Y012552D01*
X012477Y012660D01*
X012552Y012735D01*
X012660Y012735D01*
X012735Y012660D01*
X012735Y012552D01*
X012660Y012477D01*
X012552Y012477D01*
X012477Y012552D01*
X012555Y012585D01*
X012555Y012627D01*
X012585Y012657D01*
X012627Y012657D01*
X012657Y012627D01*
X012657Y012585D01*
X012627Y012555D01*
X012585Y012555D01*
X012555Y012585D01*
X013024Y013145D02*
X012972Y013093D01*
X012972Y013265D01*
X013093Y013386D01*
X013265Y013386D01*
X013386Y013265D01*
X013386Y013093D01*
X013265Y012972D01*
X013093Y012972D01*
X012972Y013093D01*
X013050Y013125D01*
X013050Y013233D01*
X013125Y013308D01*
X013233Y013308D01*
X013308Y013233D01*
X013308Y013125D01*
X013233Y013050D01*
X013125Y013050D01*
X013050Y013125D01*
X013128Y013158D01*
X013128Y013200D01*
X013158Y013230D01*
X013200Y013230D01*
X013230Y013200D01*
X013230Y013158D01*
X013200Y013128D01*
X013158Y013128D01*
X013128Y013158D01*
X013731Y013852D02*
X013679Y013800D01*
X013679Y013972D01*
X013800Y014093D01*
X013972Y014093D01*
X014093Y013972D01*
X014093Y013800D01*
X013972Y013679D01*
X013800Y013679D01*
X013679Y013800D01*
X013757Y013832D01*
X013757Y013940D01*
X013832Y014015D01*
X013940Y014015D01*
X014015Y013940D01*
X014015Y013832D01*
X013940Y013757D01*
X013832Y013757D01*
X013757Y013832D01*
X013835Y013865D01*
X013835Y013907D01*
X013865Y013937D01*
X013907Y013937D01*
X013937Y013907D01*
X013937Y013865D01*
X013907Y013835D01*
X013865Y013835D01*
X013835Y013865D01*
X014303Y014424D02*
X014251Y014372D01*
X014251Y014544D01*
X014372Y014665D01*
X014544Y014665D01*
X014665Y014544D01*
X014665Y014372D01*
X014544Y014251D01*
X014372Y014251D01*
X014251Y014372D01*
X014329Y014404D01*
X014329Y014512D01*
X014404Y014587D01*
X014512Y014587D01*
X014587Y014512D01*
X014587Y014404D01*
X014512Y014329D01*
X014404Y014329D01*
X014329Y014404D01*
X014407Y014437D01*
X014407Y014479D01*
X014437Y014509D01*
X014479Y014509D01*
X014509Y014479D01*
X014509Y014437D01*
X014479Y014407D01*
X014437Y014407D01*
X014407Y014437D01*
X015010Y015131D02*
X014958Y015079D01*
X014958Y015251D01*
X015079Y015372D01*
X015251Y015372D01*
X015372Y015251D01*
X015372Y015079D01*
X015251Y014958D01*
X015079Y014958D01*
X014958Y015079D01*
X015036Y015111D01*
X015036Y015219D01*
X015111Y015294D01*
X015219Y015294D01*
X015294Y015219D01*
X015294Y015111D01*
X015219Y015036D01*
X015111Y015036D01*
X015036Y015111D01*
X015114Y015144D01*
X015114Y015186D01*
X015144Y015216D01*
X015186Y015216D01*
X015216Y015186D01*
X015216Y015144D01*
X015186Y015114D01*
X015144Y015114D01*
X015114Y015144D01*
X015583Y015704D02*
X015531Y015652D01*
X015531Y015824D01*
X015652Y015945D01*
X015824Y015945D01*
X015945Y015824D01*
X015945Y015652D01*
X015824Y015531D01*
X015652Y015531D01*
X015531Y015652D01*
X015609Y015684D01*
X015609Y015792D01*
X015684Y015867D01*
X015792Y015867D01*
X015867Y015792D01*
X015867Y015684D01*
X015792Y015609D01*
X015684Y015609D01*
X015609Y015684D01*
X015687Y015717D01*
X015687Y015759D01*
X015717Y015789D01*
X015759Y015789D01*
X015789Y015759D01*
X015789Y015717D01*
X015759Y015687D01*
X015717Y015687D01*
X015687Y015717D01*
X016290Y016411D02*
X016238Y016359D01*
X016238Y016531D01*
X016359Y016652D01*
X016531Y016652D01*
X016652Y016531D01*
X016652Y016359D01*
X016531Y016238D01*
X016359Y016238D01*
X016238Y016359D01*
X016316Y016391D01*
X016316Y016499D01*
X016391Y016574D01*
X016499Y016574D01*
X016574Y016499D01*
X016574Y016391D01*
X016499Y016316D01*
X016391Y016316D01*
X016316Y016391D01*
X016394Y016424D01*
X016394Y016466D01*
X016424Y016496D01*
X016466Y016496D01*
X016496Y016466D01*
X016496Y016424D01*
X016466Y016394D01*
X016424Y016394D01*
X016394Y016424D01*
X016862Y016983D02*
X016810Y016931D01*
X016810Y017103D01*
X016931Y017224D01*
X017103Y017224D01*
X017224Y017103D01*
X017224Y016931D01*
X017103Y016810D01*
X016931Y016810D01*
X016810Y016931D01*
X016888Y016963D01*
X016888Y017071D01*
X016963Y017146D01*
X017071Y017146D01*
X017146Y017071D01*
X017146Y016963D01*
X017071Y016888D01*
X016963Y016888D01*
X016888Y016963D01*
X016966Y016996D01*
X016966Y017038D01*
X016996Y017068D01*
X017038Y017068D01*
X017068Y017038D01*
X017068Y016996D01*
X017038Y016966D01*
X016996Y016966D01*
X016966Y016996D01*
X017569Y017690D02*
X017517Y017638D01*
X017517Y017810D01*
X017638Y017931D01*
X017810Y017931D01*
X017931Y017810D01*
X017931Y017638D01*
X017810Y017517D01*
X017638Y017517D01*
X017517Y017638D01*
X017595Y017670D01*
X017595Y017778D01*
X017670Y017853D01*
X017778Y017853D01*
X017853Y017778D01*
X017853Y017670D01*
X017778Y017595D01*
X017670Y017595D01*
X017595Y017670D01*
X017673Y017703D01*
X017673Y017745D01*
X017703Y017775D01*
X017745Y017775D01*
X017775Y017745D01*
X017775Y017703D01*
X017745Y017673D01*
X017703Y017673D01*
X017673Y017703D01*
X012918Y010435D02*
X012970Y010487D01*
X012970Y010315D01*
X012849Y010194D01*
X012677Y010194D01*
X012556Y010315D01*
X012556Y010487D01*
X012677Y010608D01*
X012849Y010608D01*
X012970Y010487D01*
X012892Y010455D01*
X012892Y010347D01*
X012817Y010272D01*
X012709Y010272D01*
X012634Y010347D01*
X012634Y010455D01*
X012709Y010530D01*
X012817Y010530D01*
X012892Y010455D01*
X012814Y010422D01*
X012814Y010380D01*
X012784Y010350D01*
X012742Y010350D01*
X012712Y010380D01*
X012712Y010422D01*
X012742Y010452D01*
X012784Y010452D01*
X012814Y010422D01*
X011504Y009021D02*
X011556Y009073D01*
X011556Y008901D01*
X011435Y008780D01*
X011263Y008780D01*
X011142Y008901D01*
X011142Y009073D01*
X011263Y009194D01*
X011435Y009194D01*
X011556Y009073D01*
X011478Y009041D01*
X011478Y008933D01*
X011403Y008858D01*
X011295Y008858D01*
X011220Y008933D01*
X011220Y009041D01*
X011295Y009116D01*
X011403Y009116D01*
X011478Y009041D01*
X011400Y009008D01*
X011400Y008966D01*
X011370Y008936D01*
X011328Y008936D01*
X011298Y008966D01*
X011298Y009008D01*
X011328Y009038D01*
X011370Y009038D01*
X011400Y009008D01*
X005347Y005468D02*
X005295Y005416D01*
X005295Y005588D01*
X005416Y005709D01*
X005588Y005709D01*
X005709Y005588D01*
X005709Y005416D01*
X005588Y005295D01*
X005416Y005295D01*
X005295Y005416D01*
X005373Y005448D01*
X005373Y005556D01*
X005448Y005631D01*
X005556Y005631D01*
X005631Y005556D01*
X005631Y005448D01*
X005556Y005373D01*
X005448Y005373D01*
X005373Y005448D01*
X005451Y005481D01*
X005451Y005523D01*
X005481Y005553D01*
X005523Y005553D01*
X005553Y005523D01*
X005553Y005481D01*
X005523Y005451D01*
X005481Y005451D01*
X005451Y005481D01*
D12*
G36*
X009981Y009139D02*
X010688Y008432D01*
X009981Y007725D01*
X009274Y008432D01*
X009981Y009139D01*
G37*
D13*
X008438Y009975D03*
D14*
X013977Y011614D03*
X015647Y013285D03*
D15*
X012992Y015551D03*
X012444Y015004D03*
X010827Y013386D03*
X010279Y012838D03*
X008662Y011221D03*
X014610Y017169D03*
X015158Y017717D03*
X016775Y019334D03*
D16*
X004262Y005676D03*
X004969Y004969D03*
X005676Y004262D03*
D17*
X004969Y004969D02*
X003946Y004969D01*
X005481Y006387D02*
X006820Y005048D01*
X007135Y005048D01*
X007135Y005013D01*
X006347Y005166D02*
X006032Y005481D01*
X005520Y005481D01*
X005502Y005502D01*
X006209Y006209D02*
X006229Y006190D01*
X006977Y006190D01*
X007174Y005993D01*
X007804Y005757D02*
X007842Y005720D01*
X007804Y005757D02*
X007804Y007135D01*
X007489Y007450D01*
X007488Y007488D01*
X007095Y007686D02*
X007489Y008080D01*
X007922Y007646D01*
X008513Y007646D01*
X009182Y008316D01*
X009930Y007568D01*
X010363Y007568D01*
X011583Y008788D01*
X011387Y008985D01*
X011349Y008987D01*
X011820Y009103D02*
X011820Y009418D01*
X010639Y010599D01*
X010620Y010620D01*
X010757Y011032D02*
X012056Y009733D01*
X012056Y010009D02*
X010835Y011229D01*
X010284Y011229D01*
X010206Y011308D01*
X009300Y011308D01*
X008709Y010599D02*
X008158Y010599D01*
X006977Y009418D01*
X007135Y009261D01*
X007135Y009256D01*
X007174Y008670D02*
X007056Y008552D01*
X006465Y008552D01*
X006428Y008549D01*
X006426Y007961D02*
X006032Y007568D01*
X005720Y007842D01*
X005757Y007804D01*
X006741Y006820D01*
X006780Y006820D01*
X006781Y006781D01*
X006308Y006780D02*
X005993Y007095D01*
X005048Y007095D01*
X005013Y007135D01*
X006505Y007686D02*
X007095Y007686D01*
X006702Y007883D02*
X006623Y007961D01*
X006426Y007961D01*
X006702Y007883D02*
X007292Y008473D01*
X008198Y008473D01*
X008473Y008749D01*
X008749Y008749D01*
X008768Y008768D01*
X009340Y009340D02*
X009379Y009379D01*
X010481Y009379D01*
X010914Y009733D02*
X010206Y010442D01*
X008867Y010442D01*
X008709Y010599D01*
X009576Y010127D02*
X008119Y008670D01*
X007174Y008670D01*
X008552Y007371D02*
X009143Y007961D01*
X009772Y007331D01*
X010914Y008473D02*
X010914Y009733D01*
X011820Y010639D02*
X011820Y011347D01*
X011347Y011347D01*
X011327Y011327D01*
X011820Y011347D02*
X012883Y011347D01*
X013355Y011820D01*
X012607Y012568D01*
X012606Y012606D01*
X012765Y013001D02*
X011190Y013001D01*
X010835Y013355D01*
X010827Y013386D01*
X010279Y012838D02*
X010284Y012804D01*
X010796Y012292D01*
X010757Y012292D01*
X010796Y012292D02*
X012056Y012292D01*
X012528Y011820D01*
X013001Y011820D01*
X013946Y011820D02*
X012765Y013001D01*
X013946Y011820D02*
X013946Y011623D01*
X013977Y011614D01*
X014300Y011820D02*
X014379Y011741D01*
X014379Y011465D01*
X012528Y009615D01*
X012135Y010009D01*
X012056Y010009D01*
X010757Y011032D02*
X010127Y011032D01*
X008552Y007371D02*
X008552Y006465D01*
X008549Y006428D01*
X014300Y011820D02*
X014300Y014024D01*
X013867Y014457D01*
X016741Y017331D01*
X016741Y019300D01*
X016775Y019334D01*
D18*
X003946Y004969D03*
X005481Y006387D03*
X006308Y006780D03*
X006505Y007686D03*
X007174Y005993D03*
X006347Y005166D03*
X009772Y007331D03*
X010914Y008473D03*
X010481Y009379D03*
X009576Y010127D03*
X010127Y011032D03*
X009300Y011308D03*
X010757Y012292D03*
X011820Y010639D03*
X012056Y009733D03*
X011820Y009103D03*
X013001Y011820D03*
M02*
