G75*
G70*
%OFA0B0*%
%FSLAX24Y24*%
%IPPOS*%
%LPD*%
%AMOC8*
5,1,8,0,0,1.08239X$1,22.5*
%
%ADD10C,0.1300*%
%ADD11C,0.0700*%
%ADD12R,0.0500X0.0670*%
%ADD13R,0.0060X0.0720*%
%ADD14C,0.0640*%
%ADD15OC8,0.0634*%
%ADD16C,0.0540*%
%ADD17C,0.0690*%
%ADD18R,0.0640X0.0640*%
%ADD19OC8,0.0640*%
%ADD20R,0.0840X0.0840*%
%ADD21C,0.0780*%
%ADD22R,0.0540X0.0260*%
%ADD23R,0.0260X0.0540*%
D10*
X003394Y001287D03*
X003394Y007193D03*
X021504Y007193D03*
X021504Y001287D03*
D11*
X014890Y001041D03*
X013890Y001041D03*
X012890Y001041D03*
X011890Y001041D03*
X010890Y001041D03*
X009890Y001041D03*
X009890Y007435D03*
X010890Y007435D03*
X011890Y007435D03*
X012890Y007435D03*
X013890Y007435D03*
X014890Y007435D03*
D12*
X005269Y006799D03*
X004669Y006799D03*
X018251Y001484D03*
X018851Y001484D03*
D13*
X018551Y001484D03*
X004969Y006799D03*
D14*
X004800Y005740D02*
X004200Y005740D01*
X004200Y004740D02*
X004800Y004740D01*
X004800Y003740D02*
X004200Y003740D01*
X004200Y002740D02*
X004800Y002740D01*
D15*
X018345Y002740D03*
X018345Y003740D03*
X018345Y004740D03*
X018345Y005740D03*
D16*
X015598Y005421D03*
X015598Y003059D03*
D17*
X008512Y002173D03*
X008512Y001173D03*
D18*
X008028Y005240D03*
D19*
X007028Y005240D03*
X007028Y004240D03*
X008028Y004240D03*
X008028Y003240D03*
X007028Y003240D03*
D20*
X003000Y003697D03*
X003000Y004697D03*
X003000Y005697D03*
X003000Y002697D03*
X021803Y002697D03*
X021803Y003697D03*
X021803Y004697D03*
X021803Y005697D03*
D21*
X018189Y007390D03*
X017189Y007390D03*
X016189Y007390D03*
D22*
G36*
X011935Y006497D02*
X012315Y006117D01*
X012131Y005933D01*
X011751Y006313D01*
X011935Y006497D01*
G37*
G36*
X011713Y006274D02*
X012093Y005894D01*
X011909Y005710D01*
X011529Y006090D01*
X011713Y006274D01*
G37*
G36*
X011490Y006051D02*
X011870Y005671D01*
X011686Y005487D01*
X011306Y005867D01*
X011490Y006051D01*
G37*
G36*
X011267Y005829D02*
X011647Y005449D01*
X011463Y005265D01*
X011083Y005645D01*
X011267Y005829D01*
G37*
G36*
X011044Y005606D02*
X011424Y005226D01*
X011240Y005042D01*
X010860Y005422D01*
X011044Y005606D01*
G37*
G36*
X010822Y005383D02*
X011202Y005003D01*
X011018Y004819D01*
X010638Y005199D01*
X010822Y005383D01*
G37*
G36*
X010599Y005160D02*
X010979Y004780D01*
X010795Y004596D01*
X010415Y004976D01*
X010599Y005160D01*
G37*
G36*
X010376Y004938D02*
X010756Y004558D01*
X010572Y004374D01*
X010192Y004754D01*
X010376Y004938D01*
G37*
G36*
X014103Y003884D02*
X014483Y003504D01*
X014299Y003320D01*
X013919Y003700D01*
X014103Y003884D01*
G37*
G36*
X014325Y004107D02*
X014705Y003727D01*
X014521Y003543D01*
X014141Y003923D01*
X014325Y004107D01*
G37*
G36*
X013880Y003661D02*
X014260Y003281D01*
X014076Y003097D01*
X013696Y003477D01*
X013880Y003661D01*
G37*
G36*
X013657Y003439D02*
X014037Y003059D01*
X013853Y002875D01*
X013473Y003255D01*
X013657Y003439D01*
G37*
G36*
X013434Y003216D02*
X013814Y002836D01*
X013630Y002652D01*
X013250Y003032D01*
X013434Y003216D01*
G37*
G36*
X013212Y002993D02*
X013592Y002613D01*
X013408Y002429D01*
X013028Y002809D01*
X013212Y002993D01*
G37*
G36*
X012989Y002770D02*
X013369Y002390D01*
X013185Y002206D01*
X012805Y002586D01*
X012989Y002770D01*
G37*
G36*
X012766Y002548D02*
X013146Y002168D01*
X012962Y001984D01*
X012582Y002364D01*
X012766Y002548D01*
G37*
D23*
G36*
X012131Y002548D02*
X012315Y002364D01*
X011935Y001984D01*
X011751Y002168D01*
X012131Y002548D01*
G37*
G36*
X011909Y002770D02*
X012093Y002586D01*
X011713Y002206D01*
X011529Y002390D01*
X011909Y002770D01*
G37*
G36*
X011686Y002993D02*
X011870Y002809D01*
X011490Y002429D01*
X011306Y002613D01*
X011686Y002993D01*
G37*
G36*
X011463Y003216D02*
X011647Y003032D01*
X011267Y002652D01*
X011083Y002836D01*
X011463Y003216D01*
G37*
G36*
X011240Y003439D02*
X011424Y003255D01*
X011044Y002875D01*
X010860Y003059D01*
X011240Y003439D01*
G37*
G36*
X011018Y003661D02*
X011202Y003477D01*
X010822Y003097D01*
X010638Y003281D01*
X011018Y003661D01*
G37*
G36*
X010795Y003884D02*
X010979Y003700D01*
X010599Y003320D01*
X010415Y003504D01*
X010795Y003884D01*
G37*
G36*
X010572Y004107D02*
X010756Y003923D01*
X010376Y003543D01*
X010192Y003727D01*
X010572Y004107D01*
G37*
G36*
X013853Y005606D02*
X014037Y005422D01*
X013657Y005042D01*
X013473Y005226D01*
X013853Y005606D01*
G37*
G36*
X013630Y005829D02*
X013814Y005645D01*
X013434Y005265D01*
X013250Y005449D01*
X013630Y005829D01*
G37*
G36*
X013408Y006051D02*
X013592Y005867D01*
X013212Y005487D01*
X013028Y005671D01*
X013408Y006051D01*
G37*
G36*
X013185Y006274D02*
X013369Y006090D01*
X012989Y005710D01*
X012805Y005894D01*
X013185Y006274D01*
G37*
G36*
X012962Y006497D02*
X013146Y006313D01*
X012766Y005933D01*
X012582Y006117D01*
X012962Y006497D01*
G37*
G36*
X014076Y005383D02*
X014260Y005199D01*
X013880Y004819D01*
X013696Y005003D01*
X014076Y005383D01*
G37*
G36*
X014299Y005160D02*
X014483Y004976D01*
X014103Y004596D01*
X013919Y004780D01*
X014299Y005160D01*
G37*
G36*
X014521Y004938D02*
X014705Y004754D01*
X014325Y004374D01*
X014141Y004558D01*
X014521Y004938D01*
G37*
M02*
