G75*
G70*
%OFA0B0*%
%FSLAX24Y24*%
%IPPOS*%
%LPD*%
%AMOC8*
5,1,8,0,0,1.08239X$1,22.5*
%
%ADD10C,0.0000*%
%ADD11C,0.0160*%
%ADD12R,0.0300X0.0450*%
%ADD13C,0.0660*%
%ADD14C,0.0600*%
%ADD15OC8,0.0594*%
%ADD16C,0.0500*%
%ADD17C,0.0650*%
%ADD18R,0.0600X0.0600*%
%ADD19OC8,0.0600*%
%ADD20R,0.0800X0.0800*%
%ADD21C,0.0740*%
%ADD22C,0.0060*%
%ADD23C,0.0240*%
D10*
X002764Y001287D02*
X002766Y001337D01*
X002772Y001387D01*
X002782Y001436D01*
X002796Y001484D01*
X002813Y001531D01*
X002834Y001576D01*
X002859Y001620D01*
X002887Y001661D01*
X002919Y001700D01*
X002953Y001737D01*
X002990Y001771D01*
X003030Y001801D01*
X003072Y001828D01*
X003116Y001852D01*
X003162Y001873D01*
X003209Y001889D01*
X003257Y001902D01*
X003307Y001911D01*
X003356Y001916D01*
X003407Y001917D01*
X003457Y001914D01*
X003506Y001907D01*
X003555Y001896D01*
X003603Y001881D01*
X003649Y001863D01*
X003694Y001841D01*
X003737Y001815D01*
X003778Y001786D01*
X003817Y001754D01*
X003853Y001719D01*
X003885Y001681D01*
X003915Y001641D01*
X003942Y001598D01*
X003965Y001554D01*
X003984Y001508D01*
X004000Y001460D01*
X004012Y001411D01*
X004020Y001362D01*
X004024Y001312D01*
X004024Y001262D01*
X004020Y001212D01*
X004012Y001163D01*
X004000Y001114D01*
X003984Y001066D01*
X003965Y001020D01*
X003942Y000976D01*
X003915Y000933D01*
X003885Y000893D01*
X003853Y000855D01*
X003817Y000820D01*
X003778Y000788D01*
X003737Y000759D01*
X003694Y000733D01*
X003649Y000711D01*
X003603Y000693D01*
X003555Y000678D01*
X003506Y000667D01*
X003457Y000660D01*
X003407Y000657D01*
X003356Y000658D01*
X003307Y000663D01*
X003257Y000672D01*
X003209Y000685D01*
X003162Y000701D01*
X003116Y000722D01*
X003072Y000746D01*
X003030Y000773D01*
X002990Y000803D01*
X002953Y000837D01*
X002919Y000874D01*
X002887Y000913D01*
X002859Y000954D01*
X002834Y000998D01*
X002813Y001043D01*
X002796Y001090D01*
X002782Y001138D01*
X002772Y001187D01*
X002766Y001237D01*
X002764Y001287D01*
X002764Y007193D02*
X002766Y007243D01*
X002772Y007293D01*
X002782Y007342D01*
X002796Y007390D01*
X002813Y007437D01*
X002834Y007482D01*
X002859Y007526D01*
X002887Y007567D01*
X002919Y007606D01*
X002953Y007643D01*
X002990Y007677D01*
X003030Y007707D01*
X003072Y007734D01*
X003116Y007758D01*
X003162Y007779D01*
X003209Y007795D01*
X003257Y007808D01*
X003307Y007817D01*
X003356Y007822D01*
X003407Y007823D01*
X003457Y007820D01*
X003506Y007813D01*
X003555Y007802D01*
X003603Y007787D01*
X003649Y007769D01*
X003694Y007747D01*
X003737Y007721D01*
X003778Y007692D01*
X003817Y007660D01*
X003853Y007625D01*
X003885Y007587D01*
X003915Y007547D01*
X003942Y007504D01*
X003965Y007460D01*
X003984Y007414D01*
X004000Y007366D01*
X004012Y007317D01*
X004020Y007268D01*
X004024Y007218D01*
X004024Y007168D01*
X004020Y007118D01*
X004012Y007069D01*
X004000Y007020D01*
X003984Y006972D01*
X003965Y006926D01*
X003942Y006882D01*
X003915Y006839D01*
X003885Y006799D01*
X003853Y006761D01*
X003817Y006726D01*
X003778Y006694D01*
X003737Y006665D01*
X003694Y006639D01*
X003649Y006617D01*
X003603Y006599D01*
X003555Y006584D01*
X003506Y006573D01*
X003457Y006566D01*
X003407Y006563D01*
X003356Y006564D01*
X003307Y006569D01*
X003257Y006578D01*
X003209Y006591D01*
X003162Y006607D01*
X003116Y006628D01*
X003072Y006652D01*
X003030Y006679D01*
X002990Y006709D01*
X002953Y006743D01*
X002919Y006780D01*
X002887Y006819D01*
X002859Y006860D01*
X002834Y006904D01*
X002813Y006949D01*
X002796Y006996D01*
X002782Y007044D01*
X002772Y007093D01*
X002766Y007143D01*
X002764Y007193D01*
X020874Y007193D02*
X020876Y007243D01*
X020882Y007293D01*
X020892Y007342D01*
X020906Y007390D01*
X020923Y007437D01*
X020944Y007482D01*
X020969Y007526D01*
X020997Y007567D01*
X021029Y007606D01*
X021063Y007643D01*
X021100Y007677D01*
X021140Y007707D01*
X021182Y007734D01*
X021226Y007758D01*
X021272Y007779D01*
X021319Y007795D01*
X021367Y007808D01*
X021417Y007817D01*
X021466Y007822D01*
X021517Y007823D01*
X021567Y007820D01*
X021616Y007813D01*
X021665Y007802D01*
X021713Y007787D01*
X021759Y007769D01*
X021804Y007747D01*
X021847Y007721D01*
X021888Y007692D01*
X021927Y007660D01*
X021963Y007625D01*
X021995Y007587D01*
X022025Y007547D01*
X022052Y007504D01*
X022075Y007460D01*
X022094Y007414D01*
X022110Y007366D01*
X022122Y007317D01*
X022130Y007268D01*
X022134Y007218D01*
X022134Y007168D01*
X022130Y007118D01*
X022122Y007069D01*
X022110Y007020D01*
X022094Y006972D01*
X022075Y006926D01*
X022052Y006882D01*
X022025Y006839D01*
X021995Y006799D01*
X021963Y006761D01*
X021927Y006726D01*
X021888Y006694D01*
X021847Y006665D01*
X021804Y006639D01*
X021759Y006617D01*
X021713Y006599D01*
X021665Y006584D01*
X021616Y006573D01*
X021567Y006566D01*
X021517Y006563D01*
X021466Y006564D01*
X021417Y006569D01*
X021367Y006578D01*
X021319Y006591D01*
X021272Y006607D01*
X021226Y006628D01*
X021182Y006652D01*
X021140Y006679D01*
X021100Y006709D01*
X021063Y006743D01*
X021029Y006780D01*
X020997Y006819D01*
X020969Y006860D01*
X020944Y006904D01*
X020923Y006949D01*
X020906Y006996D01*
X020892Y007044D01*
X020882Y007093D01*
X020876Y007143D01*
X020874Y007193D01*
X020874Y001287D02*
X020876Y001337D01*
X020882Y001387D01*
X020892Y001436D01*
X020906Y001484D01*
X020923Y001531D01*
X020944Y001576D01*
X020969Y001620D01*
X020997Y001661D01*
X021029Y001700D01*
X021063Y001737D01*
X021100Y001771D01*
X021140Y001801D01*
X021182Y001828D01*
X021226Y001852D01*
X021272Y001873D01*
X021319Y001889D01*
X021367Y001902D01*
X021417Y001911D01*
X021466Y001916D01*
X021517Y001917D01*
X021567Y001914D01*
X021616Y001907D01*
X021665Y001896D01*
X021713Y001881D01*
X021759Y001863D01*
X021804Y001841D01*
X021847Y001815D01*
X021888Y001786D01*
X021927Y001754D01*
X021963Y001719D01*
X021995Y001681D01*
X022025Y001641D01*
X022052Y001598D01*
X022075Y001554D01*
X022094Y001508D01*
X022110Y001460D01*
X022122Y001411D01*
X022130Y001362D01*
X022134Y001312D01*
X022134Y001262D01*
X022130Y001212D01*
X022122Y001163D01*
X022110Y001114D01*
X022094Y001066D01*
X022075Y001020D01*
X022052Y000976D01*
X022025Y000933D01*
X021995Y000893D01*
X021963Y000855D01*
X021927Y000820D01*
X021888Y000788D01*
X021847Y000759D01*
X021804Y000733D01*
X021759Y000711D01*
X021713Y000693D01*
X021665Y000678D01*
X021616Y000667D01*
X021567Y000660D01*
X021517Y000657D01*
X021466Y000658D01*
X021417Y000663D01*
X021367Y000672D01*
X021319Y000685D01*
X021272Y000701D01*
X021226Y000722D01*
X021182Y000746D01*
X021140Y000773D01*
X021100Y000803D01*
X021063Y000837D01*
X021029Y000874D01*
X020997Y000913D01*
X020969Y000954D01*
X020944Y000998D01*
X020923Y001043D01*
X020906Y001090D01*
X020892Y001138D01*
X020882Y001187D01*
X020876Y001237D01*
X020874Y001287D01*
D11*
X002606Y000500D02*
X002606Y007980D01*
X022291Y007980D01*
X022291Y000500D01*
X002606Y000500D01*
D12*
X010146Y002520D03*
X010646Y002510D03*
X011146Y002510D03*
X011646Y002510D03*
X012146Y002510D03*
X012646Y002510D03*
X013146Y002510D03*
X013646Y002510D03*
X014146Y002510D03*
X014646Y002510D03*
X014646Y006260D03*
X014146Y006260D03*
X013646Y006260D03*
X013146Y006260D03*
X012646Y006260D03*
X012146Y006260D03*
X011646Y006260D03*
X011146Y006260D03*
X010646Y006260D03*
X010146Y006260D03*
D13*
X009890Y007435D03*
X010890Y007435D03*
X011890Y007435D03*
X012890Y007435D03*
X013890Y007435D03*
X014890Y007435D03*
X014890Y001041D03*
X013890Y001041D03*
X012890Y001041D03*
X011890Y001041D03*
X010890Y001041D03*
X009890Y001041D03*
D14*
X004800Y002740D02*
X004200Y002740D01*
X004200Y003740D02*
X004800Y003740D01*
X004800Y004740D02*
X004200Y004740D01*
X004200Y005740D02*
X004800Y005740D01*
D15*
X018345Y005740D03*
X018345Y004740D03*
X018345Y003740D03*
X018345Y002740D03*
D16*
X015598Y003059D03*
X015598Y005421D03*
D17*
X008512Y002173D03*
X008512Y001173D03*
D18*
X008028Y005240D03*
D19*
X007028Y005240D03*
X007028Y004240D03*
X008028Y004240D03*
X008028Y003240D03*
X007028Y003240D03*
D20*
X003000Y003697D03*
X003000Y004697D03*
X003000Y005697D03*
X003000Y002697D03*
X021803Y002697D03*
X021803Y003697D03*
X021803Y004697D03*
X021803Y005697D03*
D21*
X018189Y007390D03*
X017189Y007390D03*
X016189Y007390D03*
D22*
X015598Y006799D01*
X013433Y006799D01*
X013236Y006602D01*
X012449Y006602D01*
X012252Y006406D01*
X012146Y006260D01*
X012252Y006209D01*
X012252Y005815D01*
X012646Y005618D02*
X013039Y005224D01*
X012252Y004437D01*
X012055Y004437D01*
X012449Y004043D02*
X011465Y004043D01*
X011071Y003650D01*
X009693Y003650D01*
X008709Y002665D01*
X008315Y002665D01*
X006740Y001091D01*
X005165Y001091D01*
X003787Y002469D01*
X003787Y003059D01*
X004378Y003650D01*
X004500Y003740D01*
X003984Y004240D02*
X003591Y003846D01*
X003591Y002469D01*
X005165Y000894D01*
X006740Y000894D01*
X007528Y001681D01*
X008709Y001681D01*
X009102Y002075D01*
X010283Y002075D01*
X010677Y002469D01*
X010646Y002510D01*
X010677Y002665D01*
X011465Y003453D01*
X011858Y003453D02*
X012055Y003650D01*
X012449Y003650D01*
X012843Y004043D01*
X013827Y004043D01*
X014220Y004437D01*
X014811Y004437D01*
X013827Y004240D02*
X015402Y005815D01*
X015992Y005815D01*
X016976Y006799D01*
X016976Y007193D01*
X017173Y007390D01*
X017189Y007390D01*
X018157Y007390D02*
X018189Y007390D01*
X018354Y007390D01*
X019339Y006406D01*
X019339Y002075D01*
X018945Y001681D01*
X016976Y001681D01*
X017567Y002075D02*
X016780Y002862D01*
X016386Y002862D02*
X015008Y001484D01*
X015008Y001091D01*
X014890Y001041D01*
X013890Y001041D02*
X013827Y001091D01*
X013827Y001484D01*
X014024Y001681D01*
X014024Y002469D01*
X014146Y002510D01*
X013646Y002510D02*
X013630Y002469D01*
X013630Y001681D01*
X013039Y001091D01*
X012890Y001041D01*
X012055Y001091D02*
X011890Y001041D01*
X012055Y001091D02*
X013039Y002075D01*
X013039Y002469D01*
X013146Y002510D01*
X012646Y002510D02*
X012646Y002469D01*
X011071Y000894D01*
X010890Y001041D01*
X009890Y001041D02*
X009890Y000894D01*
X011071Y002075D01*
X011858Y002075D01*
X012055Y002272D01*
X012055Y002469D01*
X012146Y002510D01*
X011646Y002510D02*
X011661Y002665D01*
X012252Y003256D01*
X014614Y003256D01*
X014811Y003059D01*
X016976Y005224D01*
X016386Y005028D02*
X017370Y006012D01*
X017961Y006012D01*
X018157Y006209D01*
X018551Y006209D01*
X019142Y005618D01*
X019142Y002665D01*
X018551Y002075D01*
X017567Y002075D01*
X016386Y003256D02*
X015795Y002665D01*
X015402Y002665D01*
X014220Y001484D01*
X014417Y002075D02*
X014614Y002272D01*
X014614Y002469D01*
X014646Y002510D01*
X014614Y002665D01*
X015402Y003453D01*
X015992Y003453D01*
X016780Y004240D01*
X018157Y005618D01*
X018345Y005740D01*
X016976Y006209D02*
X018157Y007390D01*
X016189Y006799D02*
X015992Y006602D01*
X013433Y006602D01*
X013236Y006406D01*
X013146Y006260D01*
X013630Y006209D02*
X013646Y006260D01*
X013630Y006209D02*
X013630Y004831D01*
X013827Y004634D01*
X013827Y004240D02*
X013433Y004634D01*
X013433Y004831D01*
X013039Y005224D01*
X012449Y005224D02*
X011071Y003846D01*
X009693Y003846D01*
X009102Y003256D01*
X008118Y003256D01*
X008028Y003240D01*
X007724Y003846D02*
X007134Y003256D01*
X007028Y003240D01*
X006937Y003059D01*
X006740Y002862D01*
X004575Y002862D01*
X004500Y002740D01*
X007724Y003846D02*
X008315Y003846D01*
X010087Y005618D01*
X010087Y005815D01*
X010677Y005815D01*
X010087Y005815D02*
X010087Y006209D01*
X010146Y006260D01*
X010646Y006260D02*
X010677Y006209D01*
X011661Y005224D01*
X011268Y004831D01*
X009693Y004240D02*
X009299Y003846D01*
X009299Y004240D02*
X008709Y003650D01*
X009496Y002862D02*
X009890Y003256D01*
X010283Y003256D02*
X009496Y002469D01*
X010146Y002520D02*
X010283Y002665D01*
X011465Y003846D01*
X011858Y003453D01*
X012843Y003650D02*
X014614Y003650D01*
X015992Y005028D01*
X016386Y005028D01*
X015992Y004634D02*
X014811Y003453D01*
X015598Y003059D02*
X015992Y003059D01*
X016583Y003650D01*
X016583Y003256D02*
X016386Y003256D01*
X016583Y003256D02*
X017370Y004043D01*
X017370Y004437D01*
X018354Y004437D02*
X017173Y003256D01*
X018354Y004437D02*
X018354Y004634D01*
X018345Y004740D01*
X014614Y005815D02*
X014614Y006209D01*
X014646Y006260D01*
X014220Y006209D02*
X014146Y006260D01*
X014220Y006209D02*
X014220Y005618D01*
X014417Y005421D01*
X012646Y005618D02*
X012646Y006260D01*
X012055Y006799D02*
X011661Y006406D01*
X011646Y006260D01*
X011268Y006406D02*
X011146Y006260D01*
X011268Y006406D02*
X011858Y006996D01*
X012055Y006996D01*
X012252Y007193D01*
X012646Y007193D01*
X012843Y007390D01*
X012890Y007435D01*
X011890Y007435D02*
X011858Y007390D01*
X011465Y007390D01*
X011071Y006996D01*
X010677Y006996D01*
X010283Y006602D01*
X009890Y006602D01*
X008709Y005421D01*
X009299Y005421D02*
X008118Y004240D01*
X008028Y004240D01*
X007528Y005028D02*
X007134Y004634D01*
X006740Y004634D01*
X006346Y004240D01*
X003984Y004240D01*
X003000Y004697D02*
X003000Y004831D01*
X004378Y004831D01*
X004500Y004740D01*
X005362Y004831D02*
X004575Y005618D01*
X004500Y005740D01*
X004378Y005815D01*
X003000Y005815D01*
X003000Y005697D01*
X005362Y004831D02*
X006346Y004831D01*
X006740Y005224D01*
X006937Y005224D01*
X007028Y005240D01*
X007528Y005028D02*
X007528Y005618D01*
X007724Y005815D01*
X008906Y005815D01*
X009890Y006799D01*
X010283Y006799D01*
X010874Y007390D01*
X010890Y007435D01*
X012055Y006799D02*
X012252Y006799D01*
X009299Y006799D02*
X008315Y006799D01*
X007528Y006012D01*
X007528Y006406D02*
X006346Y005224D01*
X009299Y005421D02*
X009496Y005421D01*
X009496Y002862D02*
X009299Y002862D01*
X010677Y001878D02*
X011071Y002272D01*
X011071Y002469D01*
X011146Y002510D01*
X010677Y001878D02*
X010480Y001878D01*
X016780Y006209D02*
X016976Y006209D01*
D23*
X016780Y006209D03*
X016189Y006799D03*
X014614Y005815D03*
X014417Y005421D03*
X012449Y005224D03*
X011268Y004831D03*
X012055Y004437D03*
X012449Y004043D03*
X012843Y003650D03*
X012252Y003256D03*
X011858Y003453D03*
X011465Y003453D03*
X010283Y003256D03*
X009890Y003256D03*
X009299Y002862D03*
X009496Y002469D03*
X010480Y001878D03*
X014220Y001484D03*
X014417Y002075D03*
X016386Y002862D03*
X016780Y002862D03*
X017173Y003256D03*
X016583Y003650D03*
X016780Y004240D03*
X017370Y004437D03*
X015992Y004634D03*
X014811Y004437D03*
X013827Y004634D03*
X014811Y003453D03*
X018551Y002075D03*
X016976Y001681D03*
X009693Y004240D03*
X009299Y004240D03*
X009299Y003846D03*
X008709Y003650D03*
X006346Y005224D03*
X007528Y006012D03*
X007528Y006406D03*
X009299Y006799D03*
X010677Y005815D03*
X009496Y005421D03*
X008709Y005421D03*
X012252Y005815D03*
X012252Y006799D03*
X016976Y005224D03*
M02*
