G75*
G70*
%OFA0B0*%
%FSLAX24Y24*%
%IPPOS*%
%LPD*%
%AMOC8*
5,1,8,0,0,1.08239X$1,22.5*
%
%ADD10C,0.0070*%
%ADD11C,0.0030*%
%ADD12C,0.0060*%
%ADD13C,0.0050*%
%ADD14C,0.0080*%
%ADD15C,0.0100*%
D10*
X003926Y001878D02*
X003998Y001807D01*
X004213Y001807D01*
X004213Y002237D01*
X003998Y002237D01*
X003926Y002165D01*
X003926Y001878D01*
X004386Y001807D02*
X004386Y002237D01*
X004673Y002237D02*
X004386Y001807D01*
X004673Y001807D02*
X004673Y002237D01*
X004847Y002165D02*
X004918Y002237D01*
X005062Y002237D01*
X005134Y002165D01*
X005134Y001878D01*
X005062Y001807D01*
X004918Y001807D01*
X004847Y001878D01*
X004847Y002022D01*
X004990Y002022D01*
X007456Y002043D02*
X007887Y002043D01*
X007887Y002330D01*
X007671Y002187D02*
X007671Y002043D01*
X007743Y001870D02*
X007456Y001870D01*
X007456Y001654D01*
X007528Y001583D01*
X007743Y001583D01*
X007456Y001409D02*
X007456Y001122D01*
X007743Y001122D02*
X007887Y001266D01*
X007456Y001266D01*
X007456Y000964D02*
X007456Y000892D01*
X007528Y000892D01*
X007528Y000964D01*
X007456Y000964D01*
X005908Y003381D02*
X005908Y003812D01*
X006051Y003812D02*
X005764Y003812D01*
X005591Y003812D02*
X005304Y003381D01*
X005591Y003381D02*
X005304Y003812D01*
X005304Y004366D02*
X005591Y004796D01*
X005764Y004724D02*
X005764Y004581D01*
X005836Y004509D01*
X006051Y004509D01*
X005908Y004509D02*
X005764Y004366D01*
X005591Y004366D02*
X005304Y004796D01*
X005764Y004724D02*
X005836Y004796D01*
X006051Y004796D01*
X006051Y004366D01*
X015800Y006244D02*
X016087Y006244D01*
X015800Y006531D01*
X015800Y006602D01*
X015872Y006674D01*
X016016Y006674D01*
X016087Y006602D01*
X016261Y006602D02*
X016332Y006674D01*
X016548Y006674D01*
X016548Y006244D01*
X016332Y006244D01*
X016261Y006315D01*
X016261Y006602D01*
X016928Y006674D02*
X017072Y006531D01*
X017245Y006531D02*
X017532Y006244D01*
X017769Y006315D02*
X017841Y006244D01*
X017984Y006244D01*
X018056Y006315D01*
X017769Y006602D01*
X017769Y006315D01*
X018056Y006315D02*
X018056Y006602D01*
X017984Y006674D01*
X017841Y006674D01*
X017769Y006602D01*
X017532Y006531D02*
X017245Y006244D01*
X017072Y006244D02*
X016785Y006244D01*
X016928Y006244D02*
X016928Y006674D01*
X018229Y006531D02*
X018516Y006244D01*
X018516Y006531D02*
X018229Y006244D01*
X019674Y005709D02*
X019746Y005780D01*
X019889Y005780D01*
X019961Y005709D01*
X019961Y005422D01*
X019889Y005350D01*
X019746Y005350D01*
X019674Y005422D01*
X020134Y005422D02*
X020206Y005350D01*
X020349Y005350D01*
X020421Y005422D01*
X020421Y005709D01*
X020349Y005780D01*
X020206Y005780D01*
X020134Y005709D01*
X020595Y005780D02*
X020595Y005493D01*
X020738Y005350D01*
X020882Y005493D01*
X020882Y005780D01*
X020421Y004796D02*
X020206Y004796D01*
X020134Y004724D01*
X020134Y004581D01*
X020206Y004509D01*
X020421Y004509D01*
X020278Y004509D02*
X020134Y004366D01*
X019961Y004366D02*
X019674Y004796D01*
X019961Y004796D02*
X019674Y004366D01*
X020421Y004366D02*
X020421Y004796D01*
X020421Y003812D02*
X020134Y003812D01*
X020278Y003812D02*
X020278Y003381D01*
X019961Y003381D02*
X019674Y003812D01*
X019961Y003812D02*
X019674Y003381D01*
X019746Y002828D02*
X019961Y002828D01*
X019961Y002397D01*
X019746Y002397D01*
X019674Y002469D01*
X019674Y002756D01*
X019746Y002828D01*
X020134Y002828D02*
X020134Y002397D01*
X020421Y002828D01*
X020421Y002397D01*
X020595Y002469D02*
X020595Y002612D01*
X020738Y002612D01*
X020882Y002469D02*
X020882Y002756D01*
X020810Y002828D01*
X020666Y002828D01*
X020595Y002756D01*
X020595Y002469D02*
X020666Y002397D01*
X020810Y002397D01*
X020882Y002469D01*
X016548Y003705D02*
X016405Y003561D01*
X016548Y003705D02*
X016118Y003705D01*
X016118Y003848D02*
X016118Y003561D01*
X016189Y004022D02*
X016476Y004309D01*
X016189Y004309D01*
X016118Y004237D01*
X016118Y004093D01*
X016189Y004022D01*
X016476Y004022D01*
X016548Y004093D01*
X016548Y004237D01*
X016476Y004309D01*
X016548Y004482D02*
X016118Y004482D01*
X016261Y004482D02*
X016405Y004697D01*
X016261Y004482D02*
X016118Y004697D01*
D11*
X012934Y003480D02*
X012728Y003275D01*
X012592Y003412D01*
X012763Y003446D02*
X012831Y003377D01*
X012934Y003480D02*
X012797Y003617D01*
X012691Y003654D02*
X012554Y003517D01*
X012486Y003517D01*
X012417Y003586D01*
X012417Y003654D01*
X012486Y003723D01*
X012554Y003654D01*
X012691Y003654D02*
X012691Y003723D01*
X012623Y003791D01*
X012554Y003791D01*
X012448Y003828D02*
X012448Y003965D01*
X012312Y003965D01*
X012175Y003828D01*
X012277Y003931D02*
X012414Y003794D01*
X012448Y003828D02*
X012312Y003691D01*
X012138Y003934D02*
X012069Y003934D01*
X012001Y004002D01*
X012001Y004071D01*
X012035Y004105D01*
X012103Y004105D01*
X012172Y004037D01*
X012240Y004037D01*
X012274Y004071D01*
X012274Y004139D01*
X012206Y004208D01*
X012138Y004208D01*
X012103Y004173D01*
X012103Y004105D01*
X012172Y004037D02*
X012172Y003968D01*
X012138Y003934D01*
X011998Y004211D02*
X011861Y004348D01*
X011789Y004419D02*
X011652Y004556D01*
X011687Y004590D02*
X011550Y004453D01*
X011478Y004525D02*
X011410Y004593D01*
X011444Y004559D02*
X011649Y004764D01*
X011684Y004730D02*
X011615Y004798D01*
X011687Y004590D02*
X011823Y004590D01*
X011823Y004453D01*
X011687Y004316D01*
X012800Y003203D02*
X013005Y003408D01*
X013005Y003272D01*
X013142Y003272D01*
X012937Y003066D01*
X010746Y002128D02*
X010746Y002066D01*
X010562Y002066D02*
X010501Y002066D01*
X010501Y001696D01*
X010562Y001696D02*
X010439Y001696D01*
X010317Y001696D02*
X010317Y001758D01*
X010255Y001758D01*
X010255Y001696D01*
X010317Y001696D01*
X010133Y001758D02*
X010071Y001696D01*
X009886Y001696D01*
X009764Y001758D02*
X009703Y001696D01*
X009579Y001696D01*
X009518Y001758D01*
X009518Y001881D01*
X009579Y001943D01*
X009703Y001943D01*
X009764Y001881D01*
X009764Y001758D01*
X009886Y001943D02*
X010071Y001943D01*
X010133Y001881D01*
X010133Y001758D01*
X010685Y001696D02*
X010808Y001696D01*
X010746Y001696D02*
X010746Y001943D01*
X010808Y001943D01*
X010929Y001881D02*
X010929Y001696D01*
X011115Y001696D01*
X011176Y001758D01*
X011115Y001820D01*
X010929Y001820D01*
X010929Y001881D02*
X010991Y001943D01*
X011115Y001943D01*
X011298Y001881D02*
X011298Y001696D01*
X011421Y001696D02*
X011421Y001881D01*
X011360Y001943D01*
X011298Y001881D01*
X011421Y001881D02*
X011483Y001943D01*
X011545Y001943D01*
X011545Y001696D01*
X011666Y001696D02*
X011851Y001696D01*
X011913Y001758D01*
X011913Y001881D01*
X011851Y001943D01*
X011666Y001943D01*
X011666Y001634D01*
X011728Y001573D01*
X011790Y001573D01*
X012034Y001758D02*
X012096Y001696D01*
X012220Y001696D01*
X012281Y001758D01*
X012281Y002005D01*
X012220Y002066D01*
X012096Y002066D01*
X012034Y002005D01*
X012034Y001881D01*
X012096Y001820D01*
X012096Y001943D01*
X012220Y001943D01*
X012220Y001820D01*
X012096Y001820D01*
X012403Y001943D02*
X012465Y001943D01*
X012588Y001820D01*
X012710Y001820D02*
X012957Y001820D01*
X012957Y001881D02*
X012957Y001758D01*
X012895Y001696D01*
X012771Y001696D01*
X012588Y001696D02*
X012588Y001943D01*
X012710Y001881D02*
X012710Y001820D01*
X012710Y001881D02*
X012771Y001943D01*
X012895Y001943D01*
X012957Y001881D01*
X013078Y001943D02*
X013263Y001943D01*
X013325Y001881D01*
X013325Y001758D01*
X013263Y001696D01*
X013078Y001696D01*
X013078Y001634D02*
X013078Y001943D01*
X013446Y001881D02*
X013446Y001696D01*
X013693Y001696D02*
X013693Y001943D01*
X013508Y001943D01*
X013446Y001881D01*
X013815Y001881D02*
X013815Y001696D01*
X014000Y001696D01*
X014061Y001758D01*
X014000Y001820D01*
X013815Y001820D01*
X013815Y001881D02*
X013876Y001943D01*
X014000Y001943D01*
X014183Y001943D02*
X014368Y001943D01*
X014430Y001881D01*
X014430Y001758D01*
X014368Y001696D01*
X014183Y001696D01*
X014183Y002066D01*
X014551Y001943D02*
X014551Y001758D01*
X014613Y001696D01*
X014675Y001758D01*
X014736Y001696D01*
X014798Y001758D01*
X014798Y001943D01*
X014920Y001881D02*
X014981Y001943D01*
X015105Y001943D01*
X015166Y001881D01*
X015166Y001758D01*
X015105Y001696D01*
X014981Y001696D01*
X014920Y001758D01*
X014920Y001881D01*
X015350Y002066D02*
X015350Y001696D01*
X015289Y001696D02*
X015412Y001696D01*
X015533Y001758D02*
X015595Y001820D01*
X015719Y001820D01*
X015780Y001881D01*
X015719Y001943D01*
X015533Y001943D01*
X015412Y002066D02*
X015350Y002066D01*
X015533Y001758D02*
X015595Y001696D01*
X015780Y001696D01*
X013201Y001573D02*
X013140Y001573D01*
X013078Y001634D01*
X009396Y001696D02*
X009396Y001943D01*
X009334Y001943D01*
X009273Y001881D01*
X009211Y001943D01*
X009149Y001881D01*
X009149Y001696D01*
X009273Y001696D02*
X009273Y001881D01*
X010007Y006617D02*
X010130Y006617D01*
X010192Y006679D01*
X010192Y006803D01*
X010130Y006864D01*
X010007Y006864D01*
X009945Y006803D01*
X009945Y006741D01*
X010192Y006741D01*
X010314Y006617D02*
X010438Y006617D01*
X010376Y006617D02*
X010376Y006988D01*
X010438Y006988D01*
X010559Y006864D02*
X010559Y006617D01*
X010744Y006617D01*
X010806Y006679D01*
X010806Y006864D01*
X010927Y006926D02*
X010927Y006803D01*
X010989Y006741D01*
X011174Y006741D01*
X011051Y006741D02*
X010927Y006617D01*
X011174Y006617D02*
X011174Y006988D01*
X010989Y006988D01*
X010927Y006926D01*
X011665Y006679D02*
X011665Y006617D01*
X011727Y006617D01*
X011727Y006679D01*
X011665Y006679D01*
X011848Y006617D02*
X012095Y006617D01*
X012095Y006988D01*
X011848Y006988D01*
X011972Y006803D02*
X012095Y006803D01*
X012585Y006617D02*
X012709Y006617D01*
X012647Y006617D02*
X012647Y006988D01*
X012709Y006988D01*
X012892Y006864D02*
X012830Y006803D01*
X012830Y006741D01*
X013077Y006741D01*
X013077Y006679D02*
X013077Y006803D01*
X013016Y006864D01*
X012892Y006864D01*
X013199Y006803D02*
X013199Y006617D01*
X013384Y006617D01*
X013446Y006679D01*
X013384Y006741D01*
X013199Y006741D01*
X013199Y006803D02*
X013260Y006864D01*
X013384Y006864D01*
X013567Y006803D02*
X013567Y006617D01*
X013814Y006617D02*
X013814Y006988D01*
X013752Y006864D02*
X013629Y006864D01*
X013567Y006803D01*
X013752Y006864D02*
X013814Y006803D01*
X013935Y006864D02*
X014120Y006864D01*
X014182Y006803D01*
X014182Y006679D01*
X014120Y006617D01*
X013935Y006617D01*
X014304Y006617D02*
X014428Y006617D01*
X014366Y006617D02*
X014366Y006864D01*
X014428Y006864D01*
X014366Y006988D02*
X014366Y007049D01*
X014549Y006988D02*
X014549Y006617D01*
X014796Y006617D02*
X014796Y006988D01*
X014673Y006864D01*
X014549Y006988D01*
X013077Y006679D02*
X013016Y006617D01*
X012892Y006617D01*
D12*
X012449Y006192D02*
X014301Y004339D01*
X014301Y004141D01*
X012449Y002289D01*
X010497Y004240D01*
X012449Y006192D01*
X013835Y004240D02*
X013837Y004263D01*
X013843Y004286D01*
X013852Y004307D01*
X013865Y004327D01*
X013881Y004344D01*
X013899Y004358D01*
X013919Y004369D01*
X013941Y004377D01*
X013964Y004381D01*
X013988Y004381D01*
X014011Y004377D01*
X014033Y004369D01*
X014053Y004358D01*
X014071Y004344D01*
X014087Y004327D01*
X014100Y004307D01*
X014109Y004286D01*
X014115Y004263D01*
X014117Y004240D01*
X014115Y004217D01*
X014109Y004194D01*
X014100Y004173D01*
X014087Y004153D01*
X014071Y004136D01*
X014053Y004122D01*
X014033Y004111D01*
X014011Y004103D01*
X013988Y004099D01*
X013964Y004099D01*
X013941Y004103D01*
X013919Y004111D01*
X013899Y004122D01*
X013881Y004136D01*
X013865Y004153D01*
X013852Y004173D01*
X013843Y004194D01*
X013837Y004217D01*
X013835Y004240D01*
X018001Y001884D02*
X019101Y001884D01*
X019118Y001882D01*
X019135Y001878D01*
X019151Y001871D01*
X019165Y001861D01*
X019178Y001848D01*
X019188Y001834D01*
X019195Y001818D01*
X019199Y001801D01*
X019201Y001784D01*
X019201Y001184D01*
X019199Y001167D01*
X019195Y001150D01*
X019188Y001134D01*
X019178Y001120D01*
X019165Y001107D01*
X019151Y001097D01*
X019135Y001090D01*
X019118Y001086D01*
X019101Y001084D01*
X018001Y001084D01*
X017984Y001086D01*
X017967Y001090D01*
X017951Y001097D01*
X017937Y001107D01*
X017924Y001120D01*
X017914Y001134D01*
X017907Y001150D01*
X017903Y001167D01*
X017901Y001184D01*
X017901Y001784D01*
X017903Y001801D01*
X017907Y001818D01*
X017914Y001834D01*
X017924Y001848D01*
X017937Y001861D01*
X017951Y001871D01*
X017967Y001878D01*
X017984Y001882D01*
X018001Y001884D01*
X006248Y001927D02*
X006101Y001780D01*
X005808Y001780D01*
X006028Y001780D02*
X006028Y002074D01*
X006101Y002074D02*
X005808Y002074D01*
X005954Y002240D02*
X005808Y002387D01*
X005954Y002534D01*
X006248Y002534D01*
X006248Y002701D02*
X005808Y002701D01*
X005954Y002701D02*
X005954Y002921D01*
X006028Y002994D01*
X006175Y002994D01*
X006248Y002921D01*
X006248Y002701D01*
X005954Y002848D02*
X005808Y002994D01*
X006028Y003161D02*
X006028Y003455D01*
X006248Y003622D02*
X006248Y003768D01*
X006248Y003695D02*
X005808Y003695D01*
X005808Y003622D02*
X005808Y003768D01*
X005881Y003929D02*
X005808Y004002D01*
X005808Y004149D01*
X005881Y004222D01*
X005954Y004222D01*
X006028Y004149D01*
X006028Y004002D01*
X006101Y003929D01*
X006175Y003929D01*
X006248Y004002D01*
X006248Y004149D01*
X006175Y004222D01*
X006248Y004389D02*
X005808Y004389D01*
X005954Y004389D02*
X005954Y004609D01*
X006028Y004683D01*
X006175Y004683D01*
X006248Y004609D01*
X006248Y004389D01*
X006028Y004849D02*
X006028Y005143D01*
X006028Y005310D02*
X006028Y005530D01*
X005954Y005603D01*
X005881Y005603D01*
X005808Y005530D01*
X005808Y005383D01*
X005881Y005310D01*
X006028Y005310D01*
X006175Y005457D01*
X006248Y005603D01*
X005519Y006399D02*
X004419Y006399D01*
X004402Y006401D01*
X004385Y006405D01*
X004369Y006412D01*
X004355Y006422D01*
X004342Y006435D01*
X004332Y006449D01*
X004325Y006465D01*
X004321Y006482D01*
X004319Y006499D01*
X004319Y007099D01*
X004321Y007116D01*
X004325Y007133D01*
X004332Y007149D01*
X004342Y007163D01*
X004355Y007176D01*
X004369Y007186D01*
X004385Y007193D01*
X004402Y007197D01*
X004419Y007199D01*
X005519Y007199D01*
X005536Y007197D01*
X005553Y007193D01*
X005569Y007186D01*
X005583Y007176D01*
X005596Y007163D01*
X005606Y007149D01*
X005613Y007133D01*
X005617Y007116D01*
X005619Y007099D01*
X005619Y006499D01*
X005617Y006482D01*
X005613Y006465D01*
X005606Y006449D01*
X005596Y006435D01*
X005583Y006422D01*
X005569Y006412D01*
X005553Y006405D01*
X005536Y006401D01*
X005519Y006399D01*
X005954Y002240D02*
X006248Y002240D01*
X006101Y002074D02*
X006248Y001927D01*
D13*
X011449Y003775D02*
X011574Y003775D01*
X011949Y004150D01*
X012199Y004400D01*
X012699Y004400D01*
X012949Y004150D01*
X013324Y003775D01*
X013074Y003775D01*
X012949Y003650D01*
X012949Y003400D01*
X013199Y003650D01*
X013199Y003900D01*
X013199Y004150D01*
X013074Y004275D01*
X013074Y004400D01*
X013074Y004525D01*
X012949Y004400D01*
X012824Y004525D01*
X012824Y004650D01*
X012699Y004525D01*
X012699Y004650D01*
X012574Y004525D01*
X012699Y004400D01*
X012949Y004400D01*
X012699Y004150D01*
X012449Y004400D01*
X012199Y004150D01*
X011949Y004400D01*
X011824Y004525D01*
X011824Y004400D01*
X011824Y004275D01*
X011699Y004150D01*
X011574Y004025D01*
X011449Y004025D01*
X011574Y003900D01*
X011449Y003900D01*
X011574Y003775D01*
X011824Y003775D01*
X011949Y003650D01*
X011949Y003400D01*
X011699Y003650D01*
X011699Y003900D01*
X011699Y004150D01*
X011949Y004150D01*
X011949Y003900D01*
X012199Y003650D01*
X012199Y002900D01*
X012949Y003650D01*
X013199Y003650D01*
X013199Y003525D01*
X013449Y003775D01*
X013324Y003775D01*
X013449Y003900D01*
X013324Y003900D01*
X013449Y004025D01*
X013324Y004025D01*
X013199Y004150D01*
X012949Y004150D01*
X012949Y003900D01*
X012699Y003650D01*
X012699Y003150D01*
X012699Y002900D01*
X011949Y003650D01*
X011699Y003650D01*
X011699Y003525D01*
X011449Y003775D01*
X011574Y003775D02*
X011699Y003650D01*
X011824Y003775D01*
X011699Y003900D01*
X011574Y004025D01*
X011449Y004150D01*
X011574Y004150D01*
X011449Y004275D01*
X011574Y004275D01*
X011574Y004400D01*
X011699Y004275D01*
X011574Y004275D01*
X011574Y004150D01*
X011699Y004150D01*
X011699Y004275D01*
X011699Y004400D01*
X011824Y004275D01*
X011949Y004150D01*
X011949Y004275D01*
X011824Y004400D01*
X011949Y004400D02*
X011949Y004275D01*
X011949Y004400D02*
X012074Y004525D01*
X012074Y004650D01*
X012199Y004525D01*
X012199Y004400D01*
X011949Y004400D01*
X011949Y004650D01*
X012074Y004525D01*
X012199Y004400D01*
X012324Y004525D01*
X012324Y004650D01*
X012449Y004525D01*
X012449Y004400D01*
X012449Y004150D01*
X012699Y004400D01*
X012699Y004525D01*
X012824Y004525D02*
X012949Y004650D01*
X012949Y004400D01*
X012949Y004275D01*
X013074Y004400D01*
X013199Y004400D02*
X013199Y004275D01*
X013324Y004400D01*
X013324Y004275D01*
X013449Y004275D01*
X013324Y004150D01*
X013324Y004275D01*
X013199Y004275D01*
X013199Y004150D01*
X013324Y004150D01*
X013449Y004150D01*
X013324Y004025D01*
X013199Y003900D01*
X013074Y003775D01*
X013199Y003650D01*
X013324Y003775D01*
X013324Y003900D02*
X013199Y003900D01*
X012949Y003900D01*
X013074Y003775D01*
X012949Y003900D02*
X013199Y004150D01*
X013074Y004275D02*
X012949Y004150D01*
X012949Y004275D01*
X013074Y004275D02*
X013199Y004400D01*
X012824Y004525D02*
X012699Y004400D01*
X012699Y004150D01*
X012699Y003900D01*
X012949Y003900D01*
X012699Y003900D02*
X012949Y004150D01*
X012449Y004150D02*
X012199Y004400D01*
X012199Y004150D01*
X012199Y003900D01*
X011949Y003900D01*
X011824Y003775D01*
X011949Y003900D02*
X011699Y003900D01*
X011574Y003900D01*
X011699Y004150D02*
X011949Y003900D01*
X012199Y003900D02*
X011949Y004150D01*
X012449Y004150D02*
X012449Y003650D01*
X012699Y003650D01*
X012949Y003650D01*
X013199Y003525D02*
X013199Y003400D01*
X012699Y002900D01*
X012574Y002775D01*
X012324Y002775D01*
X012199Y002900D01*
X011699Y003400D01*
X011699Y003525D01*
X011949Y003650D02*
X012199Y003650D01*
X012449Y003650D01*
X012699Y003900D01*
X012449Y003650D02*
X012199Y003900D01*
X012449Y003650D02*
X012449Y002900D01*
X012699Y003150D01*
X012199Y003150D01*
X011949Y003400D01*
X012199Y003150D02*
X012449Y002900D01*
X012449Y002650D01*
X012324Y002775D01*
X012449Y002650D02*
X012574Y002775D01*
X012699Y003150D02*
X012949Y003400D01*
X015303Y003750D02*
X015303Y004731D01*
X015305Y004748D01*
X015309Y004765D01*
X015316Y004781D01*
X015326Y004795D01*
X015339Y004808D01*
X015353Y004818D01*
X015369Y004825D01*
X015386Y004829D01*
X015403Y004831D01*
X015794Y004831D01*
X015811Y004829D01*
X015828Y004825D01*
X015844Y004818D01*
X015858Y004808D01*
X015871Y004795D01*
X015881Y004781D01*
X015888Y004765D01*
X015892Y004748D01*
X015894Y004731D01*
X015894Y003750D01*
X015892Y003733D01*
X015888Y003716D01*
X015881Y003700D01*
X015871Y003686D01*
X015858Y003673D01*
X015844Y003663D01*
X015828Y003656D01*
X015811Y003652D01*
X015794Y003650D01*
X015403Y003650D01*
X015386Y003652D01*
X015369Y003656D01*
X015353Y003663D01*
X015339Y003673D01*
X015326Y003686D01*
X015316Y003700D01*
X015309Y003716D01*
X015305Y003733D01*
X015303Y003750D01*
X015598Y003748D02*
X015598Y003051D01*
X015598Y003748D02*
X015795Y003797D01*
X015402Y003896D01*
X015795Y003994D01*
X015402Y004093D01*
X015795Y004191D01*
X015402Y004289D01*
X015795Y004388D01*
X015402Y004486D01*
X015795Y004585D01*
X015402Y004683D01*
X015598Y004732D01*
X015598Y005429D01*
X012574Y004650D02*
X012449Y004525D01*
X012574Y004525D02*
X012574Y004650D01*
X012574Y004525D02*
X012449Y004400D01*
X012324Y004525D01*
X012199Y004650D01*
X012199Y004525D01*
D14*
X015689Y007140D02*
X015939Y006890D01*
X016439Y006890D01*
X016689Y007140D01*
X016939Y006890D01*
X017439Y006890D01*
X017689Y007140D01*
X017939Y006890D01*
X018439Y006890D01*
X018689Y007140D01*
X018689Y007640D01*
X018439Y007890D01*
X017939Y007890D01*
X017689Y007640D01*
X017439Y007890D01*
X016939Y007890D01*
X016689Y007640D01*
X016439Y007890D01*
X015939Y007890D01*
X015689Y007640D01*
X015689Y007140D01*
X008762Y001673D02*
X008262Y001673D01*
D15*
X008528Y002740D02*
X006528Y002740D01*
X006528Y005740D01*
X008528Y005740D01*
X008528Y002740D01*
M02*
