%
M48
M72
T01C0.0120
T02C0.0236
T03C0.0320
T04C0.0400
T05C0.1260
%
T01
X4850Y6700
X3200Y6800
X1050Y7100
X4100Y9500
X5100Y10650
X5050Y11000
X5850Y10700
X6600Y10650
X7250Y10800
X6400Y11650
X7850Y9500
X8700Y10450
X9900Y10400
X10150Y9350
X11100Y8700
X9350Y8250
X11300Y10450
X13100Y11250
X14100Y9500
X14850Y9500
X15850Y9750
X13350Y7500
X13450Y5750
X6850Y6700
X2750Y10400
X2950Y10800
X2150Y13200
X11850Y14100
T02
X10281Y14100
X7919Y14100
T03
X600Y1100
X1600Y1100
X2600Y1100
X3600Y1100
X4600Y1100
X5600Y1100
X6600Y1100
X7600Y1100
X8600Y1100
X9600Y1100
X10600Y1100
X11600Y1100
X12600Y1100
X13600Y1100
X14600Y1100
X15600Y1100
X16600Y1100
X17600Y1100
X17600Y3100
X16600Y3100
X15600Y3100
X14600Y3100
X13600Y3100
X12600Y3100
X11600Y3100
X10600Y3100
X9600Y3100
X8600Y3100
X7600Y3100
X6600Y3100
X5600Y3100
X4600Y3100
X3600Y3100
X2600Y3100
X1600Y3100
X600Y3100
X600Y5100
X1600Y5100
X2600Y5100
X3600Y5100
X4600Y5100
X5600Y5100
X6600Y5100
X7600Y5100
X8600Y5100
X9600Y5100
X10600Y5100
X11600Y5100
X12600Y5100
X13600Y5100
X14600Y5100
X15600Y5100
X16600Y5100
X17600Y5100
X17600Y7100
X16600Y7100
X15600Y7100
X14600Y7100
X13600Y7100
X12600Y7100
X11600Y7100
X10600Y7100
X9600Y7100
X8600Y7100
X7600Y7100
X6600Y7100
X5600Y7100
X4600Y7100
X3600Y7100
X2600Y7100
X1600Y7100
X600Y7100
X600Y9100
X1600Y9100
X2600Y9100
X3600Y9100
X4600Y9100
X5600Y9100
X6600Y9100
X7600Y9100
X8600Y9100
X9600Y9100
X10600Y9100
X11600Y9100
X12600Y9100
X13600Y9100
X14600Y9100
X15600Y9100
X16600Y9100
X17600Y9100
X17600Y11100
X16600Y11100
X15600Y11100
X14600Y11100
X13600Y11100
X12600Y11100
X11600Y11100
X10600Y11100
X9600Y11100
X8600Y11100
X7600Y11100
X6600Y11100
X5600Y11100
X4600Y11100
X3600Y11100
X2600Y11100
X1600Y11100
X600Y11100
X600Y13100
X1600Y13100
X2600Y13100
X3600Y13100
X4600Y13100
X5600Y13100
X6600Y13100
X7600Y13100
X8600Y13100
X9600Y13100
X10600Y13100
X11600Y13100
X12600Y13100
X13600Y13100
X14600Y13100
X15600Y13100
X16600Y13100
X17600Y13100
X17600Y15100
X16600Y15100
X15600Y15100
X14600Y15100
X13600Y15100
X12600Y15100
X11600Y15100
X10600Y15100
X9600Y15100
X8600Y15100
X7600Y15100
X6600Y15100
X5600Y15100
X5600Y14100
X4600Y14100
X4600Y15100
X3600Y15100
X2600Y15100
X1600Y15100
X600Y15100
X600Y17100
X1600Y17100
X2600Y17100
X3600Y17100
X4600Y17100
X5600Y17100
X6600Y17100
X7600Y17100
X8600Y17100
X9600Y17100
X10600Y17100
X11600Y17100
X12600Y17100
X13600Y17100
X14600Y17100
X15600Y17100
X16600Y17100
X17600Y17100
T04
X14100Y16100
X13100Y16000
X12100Y16100
X11100Y16000
X10100Y16100
X9100Y16000
X7100Y16150
X6100Y16050
X5100Y16150
X4100Y16050
X4100Y12100
X5100Y12100
X6100Y12100
X7100Y12100
X8100Y12100
X7600Y2100
X8600Y2100
X9600Y2100
X10600Y2100
X11600Y2100
X12600Y2100
X13600Y2100
X6600Y2100
X5600Y2100
X4600Y2100
T05
X2100Y2100
X16100Y2100
X16100Y16100
X2100Y16100
M30
