G75*
G70*
%OFA0B0*%
%FSLAX24Y24*%
%IPPOS*%
%LPD*%
%AMOC8*
5,1,8,0,0,1.08239X$1,22.5*
%
%ADD10C,0.1300*%
%ADD11C,0.0740*%
%ADD12C,0.0640*%
%ADD13OC8,0.0634*%
%ADD14C,0.0540*%
%ADD15C,0.0690*%
%ADD16OC8,0.0670*%
%ADD17R,0.0827X0.0827*%
D10*
X001306Y002606D03*
X011542Y002606D03*
X011542Y025441D03*
X001306Y025441D03*
D11*
X001700Y023823D03*
X001700Y022823D03*
X001700Y021823D03*
X001700Y020823D03*
X001700Y019823D03*
X001700Y018823D03*
X001700Y017823D03*
X001700Y016823D03*
X001700Y011224D03*
X001700Y010224D03*
X001700Y009224D03*
X001700Y008224D03*
X001700Y007224D03*
X001700Y006224D03*
X001700Y005224D03*
X001700Y004224D03*
X011149Y004224D03*
X011149Y005224D03*
X011149Y006224D03*
X011149Y007224D03*
X011149Y008224D03*
X011149Y009224D03*
X011149Y010224D03*
X011149Y011224D03*
X011149Y016823D03*
X011149Y017823D03*
X011149Y018823D03*
X011149Y019823D03*
X011149Y020823D03*
X011149Y021823D03*
X011149Y022823D03*
X011149Y023823D03*
D12*
X007924Y004800D02*
X007924Y004200D01*
X006924Y004200D02*
X006924Y004800D01*
X005924Y004800D02*
X005924Y004200D01*
X004924Y004200D02*
X004924Y004800D01*
D13*
X004924Y024054D03*
X005924Y024054D03*
X006924Y024054D03*
X007924Y024054D03*
D14*
X002881Y006543D03*
X002881Y004181D03*
D15*
X002881Y011055D03*
X002881Y012055D03*
D16*
X002920Y016756D03*
X002920Y017756D03*
X002920Y018756D03*
X002920Y019756D03*
X002920Y020756D03*
X002920Y021756D03*
X004948Y025146D03*
X005932Y025146D03*
X006916Y025146D03*
X007901Y025146D03*
D17*
X007901Y026228D03*
X006916Y026228D03*
X005932Y026228D03*
X004948Y026228D03*
X004948Y001819D03*
X005932Y001819D03*
X006916Y001819D03*
X007901Y001819D03*
M02*
