G75*
G70*
%OFA0B0*%
%FSLAX24Y24*%
%IPPOS*%
%LPD*%
%AMOC8*
5,1,8,0,0,1.08239X$1,22.5*
%
%ADD10C,0.1300*%
%ADD11C,0.0740*%
%ADD12R,0.0540X0.0260*%
%ADD13R,0.0260X0.0540*%
%ADD14R,0.0670X0.0500*%
%ADD15R,0.0720X0.0060*%
%ADD16C,0.0640*%
%ADD17OC8,0.0634*%
%ADD18R,0.0827X0.0827*%
%ADD19C,0.0540*%
%ADD20C,0.0690*%
%ADD21OC8,0.0670*%
D10*
X001306Y002606D03*
X011542Y002606D03*
X011542Y025441D03*
X001306Y025441D03*
D11*
X001700Y023823D03*
X001700Y022823D03*
X001700Y021823D03*
X001700Y020823D03*
X001700Y019823D03*
X001700Y018823D03*
X001700Y017823D03*
X001700Y016823D03*
X001700Y011224D03*
X001700Y010224D03*
X001700Y009224D03*
X001700Y008224D03*
X001700Y007224D03*
X001700Y006224D03*
X001700Y005224D03*
X001700Y004224D03*
X011149Y004224D03*
X011149Y005224D03*
X011149Y006224D03*
X011149Y007224D03*
X011149Y008224D03*
X011149Y009224D03*
X011149Y010224D03*
X011149Y011224D03*
X011149Y016823D03*
X011149Y017823D03*
X011149Y018823D03*
X011149Y019823D03*
X011149Y020823D03*
X011149Y021823D03*
X011149Y022823D03*
X011149Y023823D03*
D12*
G36*
X008301Y013890D02*
X008681Y013510D01*
X008497Y013326D01*
X008117Y013706D01*
X008301Y013890D01*
G37*
G36*
X008078Y013667D02*
X008458Y013287D01*
X008274Y013103D01*
X007894Y013483D01*
X008078Y013667D01*
G37*
G36*
X007855Y013445D02*
X008235Y013065D01*
X008051Y012881D01*
X007671Y013261D01*
X007855Y013445D01*
G37*
G36*
X007633Y013222D02*
X008013Y012842D01*
X007829Y012658D01*
X007449Y013038D01*
X007633Y013222D01*
G37*
G36*
X007410Y012999D02*
X007790Y012619D01*
X007606Y012435D01*
X007226Y012815D01*
X007410Y012999D01*
G37*
G36*
X007187Y012777D02*
X007567Y012397D01*
X007383Y012213D01*
X007003Y012593D01*
X007187Y012777D01*
G37*
G36*
X006964Y012554D02*
X007344Y012174D01*
X007160Y011990D01*
X006780Y012370D01*
X006964Y012554D01*
G37*
G36*
X006742Y012331D02*
X007122Y011951D01*
X006938Y011767D01*
X006558Y012147D01*
X006742Y012331D01*
G37*
G36*
X005243Y015612D02*
X005623Y015232D01*
X005439Y015048D01*
X005059Y015428D01*
X005243Y015612D01*
G37*
G36*
X005020Y015389D02*
X005400Y015009D01*
X005216Y014825D01*
X004836Y015205D01*
X005020Y015389D01*
G37*
G36*
X004797Y015167D02*
X005177Y014787D01*
X004993Y014603D01*
X004613Y014983D01*
X004797Y015167D01*
G37*
G36*
X004574Y014944D02*
X004954Y014564D01*
X004770Y014380D01*
X004390Y014760D01*
X004574Y014944D01*
G37*
G36*
X004352Y014721D02*
X004732Y014341D01*
X004548Y014157D01*
X004168Y014537D01*
X004352Y014721D01*
G37*
G36*
X005465Y015835D02*
X005845Y015455D01*
X005661Y015271D01*
X005281Y015651D01*
X005465Y015835D01*
G37*
G36*
X005688Y016057D02*
X006068Y015677D01*
X005884Y015493D01*
X005504Y015873D01*
X005688Y016057D01*
G37*
G36*
X005911Y016280D02*
X006291Y015900D01*
X006107Y015716D01*
X005727Y016096D01*
X005911Y016280D01*
G37*
D13*
G36*
X006938Y016280D02*
X007122Y016096D01*
X006742Y015716D01*
X006558Y015900D01*
X006938Y016280D01*
G37*
G36*
X007160Y016057D02*
X007344Y015873D01*
X006964Y015493D01*
X006780Y015677D01*
X007160Y016057D01*
G37*
G36*
X007383Y015835D02*
X007567Y015651D01*
X007187Y015271D01*
X007003Y015455D01*
X007383Y015835D01*
G37*
G36*
X007606Y015612D02*
X007790Y015428D01*
X007410Y015048D01*
X007226Y015232D01*
X007606Y015612D01*
G37*
G36*
X007829Y015389D02*
X008013Y015205D01*
X007633Y014825D01*
X007449Y015009D01*
X007829Y015389D01*
G37*
G36*
X008051Y015167D02*
X008235Y014983D01*
X007855Y014603D01*
X007671Y014787D01*
X008051Y015167D01*
G37*
G36*
X008274Y014944D02*
X008458Y014760D01*
X008078Y014380D01*
X007894Y014564D01*
X008274Y014944D01*
G37*
G36*
X008497Y014721D02*
X008681Y014537D01*
X008301Y014157D01*
X008117Y014341D01*
X008497Y014721D01*
G37*
G36*
X006107Y012331D02*
X006291Y012147D01*
X005911Y011767D01*
X005727Y011951D01*
X006107Y012331D01*
G37*
G36*
X005884Y012554D02*
X006068Y012370D01*
X005688Y011990D01*
X005504Y012174D01*
X005884Y012554D01*
G37*
G36*
X005661Y012777D02*
X005845Y012593D01*
X005465Y012213D01*
X005281Y012397D01*
X005661Y012777D01*
G37*
G36*
X005439Y012999D02*
X005623Y012815D01*
X005243Y012435D01*
X005059Y012619D01*
X005439Y012999D01*
G37*
G36*
X005216Y013222D02*
X005400Y013038D01*
X005020Y012658D01*
X004836Y012842D01*
X005216Y013222D01*
G37*
G36*
X004993Y013445D02*
X005177Y013261D01*
X004797Y012881D01*
X004613Y013065D01*
X004993Y013445D01*
G37*
G36*
X004770Y013667D02*
X004954Y013483D01*
X004574Y013103D01*
X004390Y013287D01*
X004770Y013667D01*
G37*
G36*
X004548Y013890D02*
X004732Y013706D01*
X004352Y013326D01*
X004168Y013510D01*
X004548Y013890D01*
G37*
D14*
X003275Y003300D03*
X003275Y002700D03*
X009574Y024846D03*
X009574Y025446D03*
D15*
X009574Y025146D03*
X003275Y003000D03*
D16*
X004924Y004200D02*
X004924Y004800D01*
X005924Y004800D02*
X005924Y004200D01*
X006924Y004200D02*
X006924Y004800D01*
X007924Y004800D02*
X007924Y004200D01*
D17*
X007924Y024054D03*
X006924Y024054D03*
X005924Y024054D03*
X004924Y024054D03*
D18*
X004948Y026228D03*
X005932Y026228D03*
X006916Y026228D03*
X007901Y026228D03*
X007901Y001819D03*
X006916Y001819D03*
X005932Y001819D03*
X004948Y001819D03*
D19*
X002881Y004181D03*
X002881Y006543D03*
D20*
X002881Y011055D03*
X002881Y012055D03*
D21*
X002920Y016756D03*
X002920Y017756D03*
X002920Y018756D03*
X002920Y019756D03*
X002920Y020756D03*
X002920Y021756D03*
X004948Y025146D03*
X005932Y025146D03*
X006916Y025146D03*
X007901Y025146D03*
M02*
