%
M48
M72
T01C0.0120
T02C0.0320
T03C0.0400
%
T01
X8273Y3600
X13773Y5100
T02
X3523Y2698
X4523Y2698
X5523Y2698
X6523Y2698
X7523Y2698
X8523Y2698
X9523Y2698
X10523Y2698
X11523Y2698
X12523Y2698
X13523Y2698
X14523Y2698
X14523Y4430
X15523Y4430
X15523Y6162
X16523Y6162
X14523Y6162
X13523Y6162
X12523Y6162
X11523Y6162
X10523Y6162
X9523Y6162
X8523Y6162
X7523Y6162
X6523Y6162
X5523Y6162
X4523Y6162
X3523Y6162
X2523Y6162
X1523Y6162
X1523Y7894
X2523Y7894
X3523Y7894
X4523Y7894
X5523Y7894
X6523Y7894
X7523Y7894
X8523Y7894
X9523Y7894
X10523Y7894
X11523Y7894
X12523Y7894
X13523Y7894
X14523Y7894
X15523Y7894
X16523Y7894
X17523Y7894
X16523Y9626
X15523Y9626
X14523Y9626
X13523Y9626
X12523Y9626
X11523Y9626
X10523Y9626
X9523Y9626
X8523Y9626
X7523Y9626
X6523Y9626
X5523Y9626
X4523Y9626
X3523Y9626
X2523Y9626
X1523Y9626
X523Y7894
X2523Y4430
X3523Y4430
X4523Y4430
X5523Y4430
X6523Y4430
X7523Y4430
X8523Y4430
X9523Y4430
X10523Y4430
X11523Y4430
X12523Y4430
X13523Y4430
X13523Y966
X12523Y966
X11523Y966
X10523Y966
X9523Y966
X8523Y966
X7523Y966
X6523Y966
X5523Y966
X4523Y966
X4523Y11358
X5523Y11358
X6523Y11358
X7523Y11358
X8523Y11358
X9523Y11358
X10523Y11358
X11523Y11358
X12523Y11358
X13523Y11358
X14523Y11358
X15523Y11358
X14523Y13090
X13523Y13090
X12523Y13090
X11523Y13090
X10523Y13090
X9523Y13090
X8523Y13090
X7523Y13090
X6523Y13090
X5523Y13090
X4523Y13090
X3523Y13090
X3523Y11358
X2523Y11358
X4523Y14822
X5523Y14822
X6523Y14822
X7523Y14822
X8523Y14822
X9523Y14822
X10523Y14822
X11523Y14822
X12523Y14822
X13523Y14822
T03
X13023Y1850
X12023Y1850
X11023Y1850
X10023Y1850
X9023Y1850
X8023Y1850
X7023Y1850
X6023Y1850
X5023Y1850
M30
